<svg xmlns="http://www.w3.org/2000/svg" width="155.986" height="19.307" viewBox="0 0 155.986 19.307">
  <path id="Trazado_24144" data-name="Trazado 24144" d="M30.821,21H27.8V12.738l.029-1.357L27.882,9.9q-.752.752-1.045.986L25.2,12.2l-1.455-1.816,4.6-3.662h2.48Zm13.857-7.139A9.952,9.952,0,0,1,43.453,19.4a4.253,4.253,0,0,1-3.774,1.8,4.2,4.2,0,0,1-3.726-1.855A9.811,9.811,0,0,1,34.7,13.861,10.047,10.047,0,0,1,35.919,8.29,4.234,4.234,0,0,1,39.679,6.5a4.214,4.214,0,0,1,3.735,1.875A9.83,9.83,0,0,1,44.679,13.861Zm-6.982,0a11.108,11.108,0,0,0,.454,3.765,1.573,1.573,0,0,0,1.528,1.138A1.589,1.589,0,0,0,41.2,17.611a10.8,10.8,0,0,0,.469-3.75,10.769,10.769,0,0,0-.474-3.774,1.582,1.582,0,0,0-3.042,0A11.089,11.089,0,0,0,37.7,13.861ZM49.19,15.424l-3.516-5.342h3.379l2.119,3.477,2.139-3.477H56.69l-3.555,5.342L56.856,21H53.468l-2.295-3.74L48.868,21H45.489Zm17.6-.4H63.009V12.885h3.779V9.076h2.139v3.809h3.779v2.139H68.927v3.76H66.788Zm23.076,3.018H88.146V21H85.2V18.041H79.1v-2.1l6.26-9.219h2.783V15.7h1.719ZM85.2,15.7V13.275q0-.605.049-1.758t.078-1.338h-.078a10.891,10.891,0,0,1-.869,1.563L81.759,15.7Zm15.684-1.836A9.952,9.952,0,0,1,99.654,19.4a4.253,4.253,0,0,1-3.774,1.8,4.2,4.2,0,0,1-3.726-1.855A9.811,9.811,0,0,1,90.9,13.861,10.047,10.047,0,0,1,92.12,8.29a4.747,4.747,0,0,1,7.5.083A9.83,9.83,0,0,1,100.88,13.861Zm-6.982,0a11.108,11.108,0,0,0,.454,3.765,1.573,1.573,0,0,0,1.528,1.138A1.589,1.589,0,0,0,97.4,17.611a10.8,10.8,0,0,0,.469-3.75,10.769,10.769,0,0,0-.474-3.774,1.582,1.582,0,0,0-3.042,0A11.088,11.088,0,0,0,93.9,13.861Zm7.7-3.779h3.262l2.061,6.143a8.523,8.523,0,0,1,.361,1.895h.059a8.372,8.372,0,0,1,.42-1.895l2.021-6.143h3.193L108.351,22.4a5.332,5.332,0,0,1-1.812,2.559,4.572,4.572,0,0,1-2.749.85,6.913,6.913,0,0,1-1.514-.166V23.275a5.092,5.092,0,0,0,1.172.127,2.116,2.116,0,0,0,1.382-.483,3.134,3.134,0,0,0,.923-1.46l.176-.537Zm17.432,3.057V11h9.7v2.139Zm0,3.779V14.779h9.7v2.139ZM136.993,21l5.361-11.719h-7.041V6.742h10.244V8.637L140.157,21Zm19.9-7.139A9.952,9.952,0,0,1,155.67,19.4a4.253,4.253,0,0,1-3.774,1.8,4.2,4.2,0,0,1-3.726-1.855,9.811,9.811,0,0,1-1.255-5.479,10.047,10.047,0,0,1,1.221-5.571,4.747,4.747,0,0,1,7.5.083A9.83,9.83,0,0,1,156.9,13.861Zm-6.982,0a11.108,11.108,0,0,0,.454,3.765,1.573,1.573,0,0,0,1.528,1.138,1.589,1.589,0,0,0,1.523-1.152,10.8,10.8,0,0,0,.469-3.75,10.769,10.769,0,0,0-.474-3.774,1.582,1.582,0,0,0-3.042,0A11.089,11.089,0,0,0,149.913,13.861Zm18.4,0a9.952,9.952,0,0,1-1.226,5.537,4.253,4.253,0,0,1-3.774,1.8,4.2,4.2,0,0,1-3.726-1.855,9.811,9.811,0,0,1-1.255-5.479,10.047,10.047,0,0,1,1.221-5.571,4.747,4.747,0,0,1,7.5.083A9.83,9.83,0,0,1,168.312,13.861Zm-6.982,0a11.108,11.108,0,0,0,.454,3.765,1.573,1.573,0,0,0,1.528,1.138,1.589,1.589,0,0,0,1.523-1.152,10.8,10.8,0,0,0,.469-3.75,10.769,10.769,0,0,0-.474-3.774,1.582,1.582,0,0,0-3.042,0A11.089,11.089,0,0,0,161.329,13.861Zm18.4,0A9.952,9.952,0,0,1,178.5,19.4a4.253,4.253,0,0,1-3.774,1.8A4.2,4.2,0,0,1,171,19.34a9.811,9.811,0,0,1-1.255-5.479,10.047,10.047,0,0,1,1.221-5.571,4.747,4.747,0,0,1,7.5.083A9.83,9.83,0,0,1,179.728,13.861Zm-6.982,0a11.108,11.108,0,0,0,.454,3.765,1.573,1.573,0,0,0,1.528,1.138,1.589,1.589,0,0,0,1.523-1.152,10.8,10.8,0,0,0,.469-3.75,10.769,10.769,0,0,0-.474-3.774,1.582,1.582,0,0,0-3.042,0A11.089,11.089,0,0,0,172.745,13.861Z" transform="translate(-23.741 -6.498)" fill="#00223d"/>
</svg>
