<svg xmlns="http://www.w3.org/2000/svg" width="262.07" height="154.307" viewBox="0 0 262.07 154.307">
  <path id="Trazado_24148" data-name="Trazado 24148" d="M99.892,21H96.874V12.738l.029-1.357L96.952,9.9q-.752.752-1.045.986L94.267,12.2l-1.455-1.816,4.6-3.662h2.48Zm14.258-2.959h-1.719V21h-2.949V18.041h-6.094v-2.1l6.26-9.219h2.783V15.7h1.719ZM109.481,15.7V13.275q0-.605.049-1.758t.078-1.338h-.078a10.891,10.891,0,0,1-.869,1.563L106.044,15.7Zm5.684-.762q0-4.238,1.792-6.309a6.713,6.713,0,0,1,5.366-2.07,9.737,9.737,0,0,1,1.914.146V9.115a7.821,7.821,0,0,0-1.719-.2,5.9,5.9,0,0,0-2.534.469,3.152,3.152,0,0,0-1.47,1.387,6.368,6.368,0,0,0-.576,2.607h.127a3.315,3.315,0,0,1,3.1-1.66,3.833,3.833,0,0,1,3,1.2,4.776,4.776,0,0,1,1.084,3.32,4.985,4.985,0,0,1-1.289,3.618A4.74,4.74,0,0,1,120.38,21.2a5.113,5.113,0,0,1-2.759-.732,4.757,4.757,0,0,1-1.816-2.139A8.144,8.144,0,0,1,115.165,14.936Zm5.156,3.848a1.787,1.787,0,0,0,1.484-.649,2.906,2.906,0,0,0,.518-1.851,2.554,2.554,0,0,0-.483-1.646,1.762,1.762,0,0,0-1.46-.6,2.237,2.237,0,0,0-1.567.6,1.83,1.83,0,0,0-.649,1.387,3.143,3.143,0,0,0,.61,1.963A1.869,1.869,0,0,0,120.321,18.783Zm16.26-4.922a9.952,9.952,0,0,1-1.226,5.537,4.253,4.253,0,0,1-3.774,1.8,4.2,4.2,0,0,1-3.726-1.855,9.811,9.811,0,0,1-1.255-5.479,10.047,10.047,0,0,1,1.221-5.571,4.747,4.747,0,0,1,7.5.083A9.83,9.83,0,0,1,136.581,13.861Zm-6.982,0a11.108,11.108,0,0,0,.454,3.765,1.573,1.573,0,0,0,1.528,1.138,1.589,1.589,0,0,0,1.523-1.152,10.8,10.8,0,0,0,.469-3.75,10.769,10.769,0,0,0-.474-3.774,1.582,1.582,0,0,0-3.042,0A11.089,11.089,0,0,0,129.6,13.861Zm18.4,0a9.952,9.952,0,0,1-1.226,5.537A4.253,4.253,0,0,1,143,21.2a4.2,4.2,0,0,1-3.726-1.855,9.811,9.811,0,0,1-1.255-5.479,10.047,10.047,0,0,1,1.221-5.571,4.747,4.747,0,0,1,7.5.083A9.83,9.83,0,0,1,148,13.861Zm-6.982,0a11.108,11.108,0,0,0,.454,3.765A1.573,1.573,0,0,0,143,18.764a1.589,1.589,0,0,0,1.523-1.152,10.8,10.8,0,0,0,.469-3.75,10.769,10.769,0,0,0-.474-3.774,1.582,1.582,0,0,0-3.042,0A11.089,11.089,0,0,0,141.015,13.861Zm13.486,3V14.418h5.244v2.441Zm17.031-4.98a4.593,4.593,0,0,1,3.3,1.162,4.177,4.177,0,0,1,1.226,3.184,4.628,4.628,0,0,1-1.475,3.682A6.216,6.216,0,0,1,170.36,21.2a8.263,8.263,0,0,1-3.848-.771V17.816a8.674,8.674,0,0,0,3.74.928q2.764,0,2.764-2.266,0-2.158-2.861-2.158a7.1,7.1,0,0,0-1.143.1,8.36,8.36,0,0,0-1.016.22L166.8,14l.537-7.275h7.744V9.281h-5.1l-.264,2.8.342-.068A6.722,6.722,0,0,1,171.532,11.879Zm16.123,1.982A9.952,9.952,0,0,1,186.43,19.4a4.253,4.253,0,0,1-3.774,1.8,4.2,4.2,0,0,1-3.726-1.855,9.811,9.811,0,0,1-1.255-5.479A10.047,10.047,0,0,1,178.9,8.29a4.747,4.747,0,0,1,7.5.083A9.83,9.83,0,0,1,187.655,13.861Zm-6.982,0a11.108,11.108,0,0,0,.454,3.765,1.573,1.573,0,0,0,1.528,1.138,1.589,1.589,0,0,0,1.523-1.152,10.8,10.8,0,0,0,.469-3.75,10.769,10.769,0,0,0-.474-3.774,1.582,1.582,0,0,0-3.042,0A11.089,11.089,0,0,0,180.673,13.861Zm7.7-3.779h3.262l2.061,6.143a8.523,8.523,0,0,1,.361,1.895h.059a8.372,8.372,0,0,1,.42-1.895l2.021-6.143h3.193L195.126,22.4a5.332,5.332,0,0,1-1.812,2.559,4.572,4.572,0,0,1-2.749.85,6.913,6.913,0,0,1-1.514-.166V23.275a5.092,5.092,0,0,0,1.172.127,2.116,2.116,0,0,0,1.382-.483,3.134,3.134,0,0,0,.923-1.46l.176-.537ZM205.8,13.139V11h9.7v2.139Zm0,3.779V14.779h9.7v2.139Zm25.977-7a3.36,3.36,0,0,1-.811,2.275,4.2,4.2,0,0,1-2.275,1.289v.059a4.547,4.547,0,0,1,2.617,1.05,2.941,2.941,0,0,1,.889,2.251,3.814,3.814,0,0,1-1.494,3.208,6.887,6.887,0,0,1-4.268,1.147,10.362,10.362,0,0,1-4.121-.771V17.855a9.314,9.314,0,0,0,1.826.684,7.685,7.685,0,0,0,1.973.264,3.836,3.836,0,0,0,2.207-.508,1.864,1.864,0,0,0,.713-1.631,1.473,1.473,0,0,0-.82-1.426,6.069,6.069,0,0,0-2.617-.42h-1.084V12.5h1.1a5.132,5.132,0,0,0,2.427-.435,1.569,1.569,0,0,0,.767-1.489q0-1.621-2.031-1.621a4.649,4.649,0,0,0-1.431.234,6.989,6.989,0,0,0-1.616.811l-1.4-2.08a7.759,7.759,0,0,1,4.658-1.406,6.015,6.015,0,0,1,3.5.9A2.881,2.881,0,0,1,231.776,9.916ZM243.749,21h-9.98V18.9l3.584-3.623q1.592-1.631,2.08-2.261a4.972,4.972,0,0,0,.7-1.167,2.971,2.971,0,0,0,.215-1.113,1.622,1.622,0,0,0-.474-1.279,1.837,1.837,0,0,0-1.265-.42A3.637,3.637,0,0,0,237,9.418,8.316,8.316,0,0,0,235.37,10.5l-1.641-1.943a10.7,10.7,0,0,1,1.748-1.27,6.417,6.417,0,0,1,1.514-.571,7.756,7.756,0,0,1,1.836-.2,5.436,5.436,0,0,1,2.363.488,3.77,3.77,0,0,1,1.592,1.367,3.632,3.632,0,0,1,.566,2.012A4.924,4.924,0,0,1,243,12.235a7.105,7.105,0,0,1-1.074,1.772,26.263,26.263,0,0,1-2.563,2.588l-1.836,1.729v.137h6.221Zm1.436-5.479a15.133,15.133,0,0,1,.757-4.844,12.042,12.042,0,0,1,2.183-3.955h2.441a14.062,14.062,0,0,0-2.08,4.141,15.5,15.5,0,0,0-.7,4.639,15.008,15.008,0,0,0,.718,4.624,14,14,0,0,0,2.046,4.038h-2.422a11.508,11.508,0,0,1-2.187-3.877A14.741,14.741,0,0,1,245.185,15.521ZM253.378,21l5.361-11.719H251.7V6.742h10.244V8.637L256.542,21Zm19.9-7.139a9.952,9.952,0,0,1-1.226,5.537,4.253,4.253,0,0,1-3.774,1.8,4.2,4.2,0,0,1-3.726-1.855,9.811,9.811,0,0,1-1.255-5.479,10.047,10.047,0,0,1,1.221-5.571,4.747,4.747,0,0,1,7.5.083A9.83,9.83,0,0,1,273.28,13.861Zm-6.982,0a11.108,11.108,0,0,0,.454,3.765,1.573,1.573,0,0,0,1.528,1.138,1.589,1.589,0,0,0,1.523-1.152,10.8,10.8,0,0,0,.469-3.75,10.768,10.768,0,0,0-.474-3.774,1.582,1.582,0,0,0-3.042,0A11.088,11.088,0,0,0,266.3,13.861Zm18.4,0a9.952,9.952,0,0,1-1.226,5.537,4.253,4.253,0,0,1-3.774,1.8,4.2,4.2,0,0,1-3.726-1.855,9.811,9.811,0,0,1-1.255-5.479,10.047,10.047,0,0,1,1.221-5.571,4.747,4.747,0,0,1,7.5.083A9.83,9.83,0,0,1,284.7,13.861Zm-6.982,0a11.108,11.108,0,0,0,.454,3.765,1.573,1.573,0,0,0,1.528,1.138,1.589,1.589,0,0,0,1.523-1.152,10.8,10.8,0,0,0,.469-3.75,10.768,10.768,0,0,0-.474-3.774,1.582,1.582,0,0,0-3.042,0A11.088,11.088,0,0,0,277.714,13.861Zm13.691,2.881V14.5h8.4v2.246Zm25.5,1.3h-1.719V21h-2.949V18.041h-6.094v-2.1l6.26-9.219h2.783V15.7H316.9ZM312.235,15.7V13.275q0-.605.049-1.758t.078-1.338h-.078a10.891,10.891,0,0,1-.869,1.563L308.8,15.7Zm4.98-5.615h3.262l2.061,6.143a8.522,8.522,0,0,1,.361,1.895h.059a8.372,8.372,0,0,1,.42-1.895l2.021-6.143h3.193L323.974,22.4a5.332,5.332,0,0,1-1.812,2.559,4.572,4.572,0,0,1-2.749.85,6.913,6.913,0,0,1-1.514-.166V23.275a5.091,5.091,0,0,0,1.172.127,2.116,2.116,0,0,0,1.382-.483,3.134,3.134,0,0,0,.923-1.46l.176-.537Zm17.354,5.439a14.717,14.717,0,0,1-.757,4.785,11.446,11.446,0,0,1-2.183,3.857h-2.422a14.1,14.1,0,0,0,2.041-4.028,14.945,14.945,0,0,0,.723-4.634,15.5,15.5,0,0,0-.7-4.639,14.062,14.062,0,0,0-2.08-4.141h2.441a11.98,11.98,0,0,1,2.188,3.97A15.2,15.2,0,0,1,334.569,15.521ZM100.448,48H97.431V39.738l.029-1.357.049-1.484q-.752.752-1.045.986L94.823,39.2l-1.455-1.816,4.6-3.662h2.48Zm14.258-2.959h-1.719V48h-2.949V45.041h-6.094v-2.1l6.26-9.219h2.783V42.7h1.719ZM110.038,42.7V40.275q0-.605.049-1.758t.078-1.338h-.078a10.891,10.891,0,0,1-.869,1.563L106.6,42.7Zm5.684-.762q0-4.238,1.792-6.309a6.713,6.713,0,0,1,5.366-2.07,9.737,9.737,0,0,1,1.914.146v2.412a7.821,7.821,0,0,0-1.719-.2,5.9,5.9,0,0,0-2.534.469,3.152,3.152,0,0,0-1.47,1.387,6.368,6.368,0,0,0-.576,2.607h.127a3.315,3.315,0,0,1,3.1-1.66,3.833,3.833,0,0,1,3,1.2,4.776,4.776,0,0,1,1.084,3.32,4.985,4.985,0,0,1-1.289,3.618,4.74,4.74,0,0,1-3.574,1.333,5.113,5.113,0,0,1-2.759-.732,4.757,4.757,0,0,1-1.816-2.139A8.144,8.144,0,0,1,115.722,41.936Zm5.156,3.848a1.787,1.787,0,0,0,1.484-.649,2.906,2.906,0,0,0,.518-1.851,2.554,2.554,0,0,0-.483-1.646,1.762,1.762,0,0,0-1.46-.6,2.237,2.237,0,0,0-1.567.6,1.83,1.83,0,0,0-.649,1.387,3.143,3.143,0,0,0,.61,1.963A1.869,1.869,0,0,0,120.878,45.783Zm16.26-4.922a9.952,9.952,0,0,1-1.226,5.537,4.253,4.253,0,0,1-3.774,1.8,4.2,4.2,0,0,1-3.726-1.855,9.811,9.811,0,0,1-1.255-5.479,10.047,10.047,0,0,1,1.221-5.571,4.747,4.747,0,0,1,7.5.083A9.83,9.83,0,0,1,137.138,40.861Zm-6.982,0a11.108,11.108,0,0,0,.454,3.765,1.573,1.573,0,0,0,1.528,1.138,1.589,1.589,0,0,0,1.523-1.152,10.8,10.8,0,0,0,.469-3.75,10.769,10.769,0,0,0-.474-3.774,1.582,1.582,0,0,0-3.042,0A11.089,11.089,0,0,0,130.155,40.861Zm18.4,0a9.952,9.952,0,0,1-1.226,5.537,4.253,4.253,0,0,1-3.774,1.8,4.2,4.2,0,0,1-3.726-1.855,9.811,9.811,0,0,1-1.255-5.479,10.047,10.047,0,0,1,1.221-5.571,4.747,4.747,0,0,1,7.5.083A9.83,9.83,0,0,1,148.554,40.861Zm-6.982,0a11.108,11.108,0,0,0,.454,3.765,1.573,1.573,0,0,0,1.528,1.138,1.589,1.589,0,0,0,1.523-1.152,10.8,10.8,0,0,0,.469-3.75,10.769,10.769,0,0,0-.474-3.774,1.582,1.582,0,0,0-3.042,0A11.089,11.089,0,0,0,141.571,40.861Zm13.486,3V41.418H160.3v2.441Zm17.031-4.98a4.593,4.593,0,0,1,3.3,1.162,4.177,4.177,0,0,1,1.226,3.184,4.628,4.628,0,0,1-1.475,3.682,6.216,6.216,0,0,1-4.219,1.289,8.263,8.263,0,0,1-3.848-.771V44.816a8.674,8.674,0,0,0,3.74.928q2.764,0,2.764-2.266,0-2.158-2.861-2.158a7.1,7.1,0,0,0-1.143.1,8.36,8.36,0,0,0-1.016.22l-1.2-.645.537-7.275h7.744v2.559h-5.1l-.264,2.8.342-.068A6.722,6.722,0,0,1,172.089,38.879Zm16.123,1.982a9.952,9.952,0,0,1-1.226,5.537,4.253,4.253,0,0,1-3.774,1.8,4.2,4.2,0,0,1-3.726-1.855,9.811,9.811,0,0,1-1.255-5.479,10.047,10.047,0,0,1,1.221-5.571,4.747,4.747,0,0,1,7.5.083A9.83,9.83,0,0,1,188.212,40.861Zm-6.982,0a11.108,11.108,0,0,0,.454,3.765,1.573,1.573,0,0,0,1.528,1.138,1.589,1.589,0,0,0,1.523-1.152,10.8,10.8,0,0,0,.469-3.75,10.769,10.769,0,0,0-.474-3.774,1.582,1.582,0,0,0-3.042,0A11.089,11.089,0,0,0,181.229,40.861Zm7.7-3.779h3.262l2.061,6.143a8.523,8.523,0,0,1,.361,1.895h.059a8.372,8.372,0,0,1,.42-1.895l2.021-6.143H200.3L195.683,49.4a5.332,5.332,0,0,1-1.812,2.559,4.572,4.572,0,0,1-2.749.85,6.913,6.913,0,0,1-1.514-.166V50.275a5.092,5.092,0,0,0,1.172.127,2.116,2.116,0,0,0,1.382-.483,3.134,3.134,0,0,0,.923-1.46l.176-.537Zm17.432,3.057V38h9.7v2.139Zm0,3.779V41.779h9.7v2.139ZM232.89,48h-9.98V45.9l3.584-3.623q1.592-1.631,2.08-2.261a4.972,4.972,0,0,0,.7-1.167,2.971,2.971,0,0,0,.215-1.113,1.622,1.622,0,0,0-.474-1.279,1.836,1.836,0,0,0-1.265-.42,3.637,3.637,0,0,0-1.611.381,8.316,8.316,0,0,0-1.631,1.084l-1.641-1.943a10.7,10.7,0,0,1,1.748-1.27,6.417,6.417,0,0,1,1.514-.571,7.756,7.756,0,0,1,1.836-.2,5.436,5.436,0,0,1,2.363.488,3.77,3.77,0,0,1,1.592,1.367,3.632,3.632,0,0,1,.566,2.012,4.924,4.924,0,0,1-.347,1.851,7.105,7.105,0,0,1-1.074,1.772A26.263,26.263,0,0,1,228.5,43.6l-1.836,1.729v.137h6.221Zm11.416,0h-9.98V45.9l3.584-3.623q1.592-1.631,2.08-2.261a4.972,4.972,0,0,0,.7-1.167,2.971,2.971,0,0,0,.215-1.113,1.622,1.622,0,0,0-.474-1.279,1.836,1.836,0,0,0-1.265-.42,3.637,3.637,0,0,0-1.611.381,8.316,8.316,0,0,0-1.631,1.084l-1.641-1.943a10.7,10.7,0,0,1,1.748-1.27,6.417,6.417,0,0,1,1.514-.571,7.756,7.756,0,0,1,1.836-.2,5.436,5.436,0,0,1,2.363.488,3.77,3.77,0,0,1,1.592,1.367,3.632,3.632,0,0,1,.566,2.012,4.924,4.924,0,0,1-.347,1.851,7.105,7.105,0,0,1-1.074,1.772,26.263,26.263,0,0,1-2.563,2.588l-1.836,1.729v.137h6.221Zm11.738-2.959h-1.719V48h-2.949V45.041h-6.094v-2.1l6.26-9.219h2.783V42.7h1.719ZM251.376,42.7V40.275q0-.605.049-1.758t.078-1.338h-.078a10.891,10.891,0,0,1-.869,1.563L247.938,42.7Zm15.684-1.836a9.952,9.952,0,0,1-1.226,5.537,4.253,4.253,0,0,1-3.774,1.8,4.2,4.2,0,0,1-3.726-1.855,9.811,9.811,0,0,1-1.255-5.479A10.047,10.047,0,0,1,258.3,35.29a4.747,4.747,0,0,1,7.5.083A9.83,9.83,0,0,1,267.06,40.861Zm-6.982,0a11.108,11.108,0,0,0,.454,3.765,1.573,1.573,0,0,0,1.528,1.138,1.589,1.589,0,0,0,1.523-1.152,10.8,10.8,0,0,0,.469-3.75,10.768,10.768,0,0,0-.474-3.774,1.582,1.582,0,0,0-3.042,0A11.088,11.088,0,0,0,260.077,40.861Zm18.4,0A9.952,9.952,0,0,1,277.25,46.4a4.253,4.253,0,0,1-3.774,1.8,4.2,4.2,0,0,1-3.726-1.855,9.811,9.811,0,0,1-1.255-5.479,10.047,10.047,0,0,1,1.221-5.571,4.747,4.747,0,0,1,7.5.083A9.83,9.83,0,0,1,278.476,40.861Zm-6.982,0a11.108,11.108,0,0,0,.454,3.765,1.573,1.573,0,0,0,1.528,1.138A1.589,1.589,0,0,0,275,44.611a10.8,10.8,0,0,0,.469-3.75,10.768,10.768,0,0,0-.474-3.774,1.582,1.582,0,0,0-3.042,0A11.088,11.088,0,0,0,271.493,40.861Zm13.691,2.881V41.5h8.4v2.246ZM307.841,48h-3.018V39.738l.029-1.357L304.9,36.9q-.752.752-1.045.986L302.216,39.2l-1.455-1.816,4.6-3.662h2.48Zm13.936,0H311.8V45.9l3.584-3.623q1.592-1.631,2.08-2.261a4.971,4.971,0,0,0,.7-1.167,2.971,2.971,0,0,0,.215-1.113,1.622,1.622,0,0,0-.474-1.279,1.837,1.837,0,0,0-1.265-.42,3.637,3.637,0,0,0-1.611.381A8.315,8.315,0,0,0,313.4,37.5l-1.641-1.943a10.7,10.7,0,0,1,1.748-1.27,6.417,6.417,0,0,1,1.514-.571,7.756,7.756,0,0,1,1.836-.2,5.436,5.436,0,0,1,2.363.488,3.77,3.77,0,0,1,1.592,1.367,3.632,3.632,0,0,1,.566,2.012,4.924,4.924,0,0,1-.347,1.851,7.105,7.105,0,0,1-1.074,1.772,26.259,26.259,0,0,1-2.563,2.588l-1.836,1.729v.137h6.221Zm6.357-14.463a5.408,5.408,0,0,1,3.306.933,2.972,2.972,0,0,1,1.255,2.515,3.286,3.286,0,0,1-.605,1.948,5.158,5.158,0,0,1-1.953,1.528,6.921,6.921,0,0,1,2.3,1.792,3.339,3.339,0,0,1,.7,2.046,3.4,3.4,0,0,1-1.377,2.827,5.744,5.744,0,0,1-3.623,1.069,6.045,6.045,0,0,1-3.682-1,3.311,3.311,0,0,1-1.338-2.822,3.742,3.742,0,0,1,.649-2.168,5.394,5.394,0,0,1,2.085-1.67,5.35,5.35,0,0,1-1.758-1.65,3.62,3.62,0,0,1-.537-1.924,2.953,2.953,0,0,1,1.27-2.48A5.4,5.4,0,0,1,328.134,33.537ZM325.907,44.2a1.582,1.582,0,0,0,.586,1.309,3.064,3.064,0,0,0,3.281-.015,1.606,1.606,0,0,0,.557-1.274A1.744,1.744,0,0,0,329.779,43a7.093,7.093,0,0,0-1.792-1.216Q325.907,42.736,325.907,44.2Zm2.207-8.457a1.879,1.879,0,0,0-1.245.4,1.31,1.31,0,0,0-.474,1.06,1.623,1.623,0,0,0,.376,1.05,4.133,4.133,0,0,0,1.362.952,3.814,3.814,0,0,0,1.338-.918,1.669,1.669,0,0,0,.381-1.084,1.29,1.29,0,0,0-.488-1.064A1.939,1.939,0,0,0,328.114,35.744Zm5.713,1.338h3.262l2.061,6.143a8.522,8.522,0,0,1,.361,1.895h.059a8.372,8.372,0,0,1,.42-1.895l2.021-6.143H345.2L340.585,49.4a5.332,5.332,0,0,1-1.812,2.559,4.572,4.572,0,0,1-2.749.85,6.913,6.913,0,0,1-1.514-.166V50.275a5.091,5.091,0,0,0,1.172.127,2.116,2.116,0,0,0,1.382-.483,3.134,3.134,0,0,0,.923-1.46l.176-.537ZM110.839,75h-3.018V66.738l.029-1.357L107.9,63.9q-.752.752-1.045.986L105.214,66.2l-1.455-1.816,4.6-3.662h2.48Zm13.936,0h-9.98V72.9l3.584-3.623q1.592-1.631,2.08-2.261a4.972,4.972,0,0,0,.7-1.167,2.971,2.971,0,0,0,.215-1.113,1.622,1.622,0,0,0-.474-1.279,1.837,1.837,0,0,0-1.265-.42,3.637,3.637,0,0,0-1.611.381A8.315,8.315,0,0,0,116.4,64.5l-1.641-1.943a10.7,10.7,0,0,1,1.748-1.27,6.417,6.417,0,0,1,1.514-.571,7.756,7.756,0,0,1,1.836-.2,5.436,5.436,0,0,1,2.363.488,3.77,3.77,0,0,1,1.592,1.367,3.632,3.632,0,0,1,.566,2.012,4.924,4.924,0,0,1-.347,1.851,7.105,7.105,0,0,1-1.074,1.772A26.261,26.261,0,0,1,120.39,70.6l-1.836,1.729v.137h6.221Zm6.357-14.463a5.408,5.408,0,0,1,3.306.933,2.972,2.972,0,0,1,1.255,2.515,3.286,3.286,0,0,1-.605,1.948,5.158,5.158,0,0,1-1.953,1.528,6.921,6.921,0,0,1,2.3,1.792,3.338,3.338,0,0,1,.7,2.046,3.4,3.4,0,0,1-1.377,2.827,5.744,5.744,0,0,1-3.623,1.069,6.045,6.045,0,0,1-3.682-1,3.311,3.311,0,0,1-1.338-2.822,3.742,3.742,0,0,1,.649-2.168,5.394,5.394,0,0,1,2.085-1.67,5.35,5.35,0,0,1-1.758-1.65,3.62,3.62,0,0,1-.537-1.924,2.953,2.953,0,0,1,1.27-2.48A5.4,5.4,0,0,1,131.132,60.537ZM128.905,71.2a1.582,1.582,0,0,0,.586,1.309,3.064,3.064,0,0,0,3.281-.015,1.606,1.606,0,0,0,.557-1.274A1.744,1.744,0,0,0,132.777,70a7.093,7.093,0,0,0-1.792-1.216Q128.905,69.736,128.905,71.2Zm2.207-8.457a1.878,1.878,0,0,0-1.245.4,1.31,1.31,0,0,0-.474,1.06,1.623,1.623,0,0,0,.376,1.05,4.133,4.133,0,0,0,1.362.952,3.814,3.814,0,0,0,1.338-.918,1.669,1.669,0,0,0,.381-1.084,1.29,1.29,0,0,0-.488-1.064A1.939,1.939,0,0,0,131.112,62.744Zm5.713,1.338h3.262l2.061,6.143a8.523,8.523,0,0,1,.361,1.895h.059a8.372,8.372,0,0,1,.42-1.895l2.021-6.143H148.2L143.583,76.4a5.332,5.332,0,0,1-1.812,2.559,4.572,4.572,0,0,1-2.749.85,6.913,6.913,0,0,1-1.514-.166V77.275a5.092,5.092,0,0,0,1.172.127,2.116,2.116,0,0,0,1.382-.483,3.134,3.134,0,0,0,.923-1.46l.176-.537Zm17.168,6.777V68.418h5.244v2.441Zm17.031-4.98a4.593,4.593,0,0,1,3.3,1.162,4.177,4.177,0,0,1,1.226,3.184,4.628,4.628,0,0,1-1.475,3.682,6.216,6.216,0,0,1-4.219,1.289A8.263,8.263,0,0,1,166,74.424V71.816a8.674,8.674,0,0,0,3.74.928q2.764,0,2.764-2.266,0-2.158-2.861-2.158a7.1,7.1,0,0,0-1.143.1,8.36,8.36,0,0,0-1.016.22l-1.2-.645.537-7.275h7.744v2.559h-5.1l-.264,2.8.342-.068A6.722,6.722,0,0,1,171.024,65.879Zm16.123,1.982a9.952,9.952,0,0,1-1.226,5.537,4.253,4.253,0,0,1-3.774,1.8,4.2,4.2,0,0,1-3.726-1.855,9.811,9.811,0,0,1-1.255-5.479,10.047,10.047,0,0,1,1.221-5.571,4.747,4.747,0,0,1,7.5.083A9.83,9.83,0,0,1,187.147,67.861Zm-6.982,0a11.108,11.108,0,0,0,.454,3.765,1.573,1.573,0,0,0,1.528,1.138,1.589,1.589,0,0,0,1.523-1.152,10.8,10.8,0,0,0,.469-3.75,10.769,10.769,0,0,0-.474-3.774,1.582,1.582,0,0,0-3.042,0A11.089,11.089,0,0,0,180.165,67.861Zm7.7-3.779h3.262l2.061,6.143a8.523,8.523,0,0,1,.361,1.895h.059a8.372,8.372,0,0,1,.42-1.895l2.021-6.143h3.193L194.618,76.4a5.332,5.332,0,0,1-1.812,2.559,4.572,4.572,0,0,1-2.749.85,6.913,6.913,0,0,1-1.514-.166V77.275a5.092,5.092,0,0,0,1.172.127,2.116,2.116,0,0,0,1.382-.483,3.134,3.134,0,0,0,.923-1.46l.176-.537Zm17.432,3.057V65h9.7v2.139Zm0,3.779V68.779h9.7v2.139ZM231.825,75h-9.98V72.9l3.584-3.623q1.592-1.631,2.08-2.261a4.972,4.972,0,0,0,.7-1.167,2.971,2.971,0,0,0,.215-1.113,1.622,1.622,0,0,0-.474-1.279,1.836,1.836,0,0,0-1.265-.42,3.637,3.637,0,0,0-1.611.381,8.316,8.316,0,0,0-1.631,1.084l-1.641-1.943a10.7,10.7,0,0,1,1.748-1.27,6.417,6.417,0,0,1,1.514-.571,7.756,7.756,0,0,1,1.836-.2,5.436,5.436,0,0,1,2.363.488,3.77,3.77,0,0,1,1.592,1.367,3.632,3.632,0,0,1,.566,2.012,4.924,4.924,0,0,1-.347,1.851A7.105,7.105,0,0,1,230,68.008,26.263,26.263,0,0,1,227.44,70.6L225.6,72.324v.137h6.221Zm11.416,0h-9.98V72.9l3.584-3.623q1.592-1.631,2.08-2.261a4.972,4.972,0,0,0,.7-1.167,2.971,2.971,0,0,0,.215-1.113,1.622,1.622,0,0,0-.474-1.279,1.836,1.836,0,0,0-1.265-.42,3.637,3.637,0,0,0-1.611.381,8.316,8.316,0,0,0-1.631,1.084l-1.641-1.943a10.7,10.7,0,0,1,1.748-1.27,6.417,6.417,0,0,1,1.514-.571,7.756,7.756,0,0,1,1.836-.2,5.436,5.436,0,0,1,2.363.488,3.77,3.77,0,0,1,1.592,1.367,3.632,3.632,0,0,1,.566,2.012,4.924,4.924,0,0,1-.347,1.851,7.105,7.105,0,0,1-1.074,1.772,26.263,26.263,0,0,1-2.563,2.588l-1.836,1.729v.137h6.221Zm11.738-2.959h-1.719V75h-2.949V72.041h-6.094v-2.1l6.26-9.219h2.783V69.7h1.719ZM250.312,69.7V67.275q0-.605.049-1.758t.078-1.338h-.078a10.891,10.891,0,0,1-.869,1.563L246.874,69.7ZM266,67.861A9.952,9.952,0,0,1,264.77,73.4,4.253,4.253,0,0,1,261,75.2a4.2,4.2,0,0,1-3.726-1.855,9.811,9.811,0,0,1-1.255-5.479,10.047,10.047,0,0,1,1.221-5.571,4.747,4.747,0,0,1,7.5.083A9.83,9.83,0,0,1,266,67.861Zm-6.982,0a11.108,11.108,0,0,0,.454,3.765A1.573,1.573,0,0,0,261,72.764a1.589,1.589,0,0,0,1.523-1.152,10.8,10.8,0,0,0,.469-3.75,10.768,10.768,0,0,0-.474-3.774,1.582,1.582,0,0,0-3.042,0A11.088,11.088,0,0,0,259.013,67.861Zm18.4,0a9.952,9.952,0,0,1-1.226,5.537,4.253,4.253,0,0,1-3.774,1.8,4.2,4.2,0,0,1-3.726-1.855,9.811,9.811,0,0,1-1.255-5.479,10.047,10.047,0,0,1,1.221-5.571,4.747,4.747,0,0,1,7.5.083A9.83,9.83,0,0,1,277.411,67.861Zm-6.982,0a11.108,11.108,0,0,0,.454,3.765,1.573,1.573,0,0,0,1.528,1.138,1.589,1.589,0,0,0,1.523-1.152,10.8,10.8,0,0,0,.469-3.75,10.768,10.768,0,0,0-.474-3.774,1.582,1.582,0,0,0-3.042,0A11.088,11.088,0,0,0,270.429,67.861Zm13.691,2.881V68.5h8.4v2.246ZM306.776,75h-3.018V66.738l.029-1.357.049-1.484q-.752.752-1.045.986L301.151,66.2,299.7,64.385l4.6-3.662h2.48Zm14.258-2.959h-1.719V75h-2.949V72.041h-6.094v-2.1l6.26-9.219h2.783V69.7h1.719ZM316.366,69.7V67.275q0-.605.049-1.758t.078-1.338h-.078a10.891,10.891,0,0,1-.869,1.563L312.929,69.7Zm5.684-.762q0-4.238,1.792-6.309a6.713,6.713,0,0,1,5.366-2.07,9.737,9.737,0,0,1,1.914.146v2.412a7.821,7.821,0,0,0-1.719-.2,5.9,5.9,0,0,0-2.534.469,3.152,3.152,0,0,0-1.47,1.387,6.368,6.368,0,0,0-.576,2.607h.127a3.315,3.315,0,0,1,3.1-1.66,3.833,3.833,0,0,1,3,1.2,4.776,4.776,0,0,1,1.084,3.32,4.985,4.985,0,0,1-1.289,3.618,4.74,4.74,0,0,1-3.574,1.333,5.113,5.113,0,0,1-2.759-.732,4.757,4.757,0,0,1-1.816-2.139A8.144,8.144,0,0,1,322.05,68.936Zm5.156,3.848a1.787,1.787,0,0,0,1.484-.649,2.906,2.906,0,0,0,.518-1.851,2.554,2.554,0,0,0-.483-1.646,1.762,1.762,0,0,0-1.46-.6,2.237,2.237,0,0,0-1.567.6,1.83,1.83,0,0,0-.649,1.387,3.143,3.143,0,0,0,.61,1.963A1.869,1.869,0,0,0,327.206,72.783Zm16.26-4.922A9.952,9.952,0,0,1,342.24,73.4a4.253,4.253,0,0,1-3.774,1.8,4.2,4.2,0,0,1-3.726-1.855,9.811,9.811,0,0,1-1.255-5.479,10.047,10.047,0,0,1,1.221-5.571,4.747,4.747,0,0,1,7.5.083A9.83,9.83,0,0,1,343.466,67.861Zm-6.982,0a11.108,11.108,0,0,0,.454,3.765,1.573,1.573,0,0,0,1.528,1.138,1.589,1.589,0,0,0,1.523-1.152,10.8,10.8,0,0,0,.469-3.75,10.768,10.768,0,0,0-.474-3.774,1.582,1.582,0,0,0-3.042,0A11.088,11.088,0,0,0,336.483,67.861Zm18.4,0a9.952,9.952,0,0,1-1.226,5.537,4.253,4.253,0,0,1-3.774,1.8,4.2,4.2,0,0,1-3.726-1.855,9.811,9.811,0,0,1-1.255-5.479,10.047,10.047,0,0,1,1.221-5.571,4.747,4.747,0,0,1,7.5.083A9.83,9.83,0,0,1,354.882,67.861Zm-6.982,0a11.108,11.108,0,0,0,.454,3.765,1.573,1.573,0,0,0,1.528,1.138,1.589,1.589,0,0,0,1.523-1.152,10.8,10.8,0,0,0,.469-3.75,10.768,10.768,0,0,0-.474-3.774,1.582,1.582,0,0,0-3.042,0A11.088,11.088,0,0,0,347.9,67.861ZM167.475,102l5.361-11.719h-7.041V87.742h10.244v1.895L170.639,102ZM182.4,87.537a5.408,5.408,0,0,1,3.306.933,2.972,2.972,0,0,1,1.255,2.515,3.286,3.286,0,0,1-.605,1.948,5.158,5.158,0,0,1-1.953,1.528,6.921,6.921,0,0,1,2.3,1.792,3.338,3.338,0,0,1,.7,2.046,3.4,3.4,0,0,1-1.377,2.827A5.744,5.744,0,0,1,182.4,102.2a6.045,6.045,0,0,1-3.682-1,3.311,3.311,0,0,1-1.338-2.822,3.742,3.742,0,0,1,.649-2.168,5.394,5.394,0,0,1,2.085-1.67,5.35,5.35,0,0,1-1.758-1.65,3.62,3.62,0,0,1-.537-1.924,2.953,2.953,0,0,1,1.27-2.48A5.4,5.4,0,0,1,182.4,87.537ZM180.17,98.2a1.582,1.582,0,0,0,.586,1.309,3.064,3.064,0,0,0,3.281-.015,1.606,1.606,0,0,0,.557-1.274A1.744,1.744,0,0,0,184.042,97a7.093,7.093,0,0,0-1.792-1.216Q180.17,96.736,180.17,98.2Zm2.207-8.457a1.878,1.878,0,0,0-1.245.4,1.31,1.31,0,0,0-.474,1.06,1.623,1.623,0,0,0,.376,1.05,4.133,4.133,0,0,0,1.362.952,3.814,3.814,0,0,0,1.338-.918,1.669,1.669,0,0,0,.381-1.084,1.29,1.29,0,0,0-.488-1.064A1.939,1.939,0,0,0,182.377,89.744Zm5.713,1.338h3.262l2.061,6.143a8.523,8.523,0,0,1,.361,1.895h.059a8.372,8.372,0,0,1,.42-1.895l2.021-6.143h3.193L194.848,103.4a5.332,5.332,0,0,1-1.812,2.559,4.572,4.572,0,0,1-2.749.85,6.913,6.913,0,0,1-1.514-.166v-2.363a5.092,5.092,0,0,0,1.172.127,2.116,2.116,0,0,0,1.382-.483,3.134,3.134,0,0,0,.923-1.46l.176-.537Zm17.432,3.057V92h9.7v2.139Zm0,3.779V95.779h9.7v2.139ZM223.49,102l5.361-11.719h-7.041V87.742h10.244v1.895L226.654,102Zm14.922-14.463a5.408,5.408,0,0,1,3.306.933,2.972,2.972,0,0,1,1.255,2.515,3.286,3.286,0,0,1-.605,1.948,5.158,5.158,0,0,1-1.953,1.528,6.921,6.921,0,0,1,2.3,1.792,3.338,3.338,0,0,1,.7,2.046,3.4,3.4,0,0,1-1.377,2.827,5.744,5.744,0,0,1-3.623,1.069,6.045,6.045,0,0,1-3.682-1,3.311,3.311,0,0,1-1.338-2.822,3.742,3.742,0,0,1,.649-2.168,5.394,5.394,0,0,1,2.085-1.67,5.35,5.35,0,0,1-1.758-1.65,3.62,3.62,0,0,1-.537-1.924,2.953,2.953,0,0,1,1.27-2.48A5.4,5.4,0,0,1,238.412,87.537ZM236.186,98.2a1.582,1.582,0,0,0,.586,1.309,3.064,3.064,0,0,0,3.281-.015,1.606,1.606,0,0,0,.557-1.274A1.744,1.744,0,0,0,240.058,97a7.093,7.093,0,0,0-1.792-1.216Q236.186,96.736,236.186,98.2Zm2.207-8.457a1.878,1.878,0,0,0-1.245.4,1.31,1.31,0,0,0-.474,1.06,1.623,1.623,0,0,0,.376,1.05,4.133,4.133,0,0,0,1.362.952,3.814,3.814,0,0,0,1.338-.918,1.669,1.669,0,0,0,.381-1.084,1.29,1.29,0,0,0-.488-1.064A1.939,1.939,0,0,0,238.393,89.744Zm16.416,5.117a9.952,9.952,0,0,1-1.226,5.537,4.253,4.253,0,0,1-3.774,1.8,4.2,4.2,0,0,1-3.726-1.855,9.811,9.811,0,0,1-1.255-5.479,10.047,10.047,0,0,1,1.221-5.571,4.747,4.747,0,0,1,7.5.083A9.83,9.83,0,0,1,254.809,94.861Zm-6.982,0a11.108,11.108,0,0,0,.454,3.765,1.573,1.573,0,0,0,1.528,1.138,1.589,1.589,0,0,0,1.523-1.152,10.8,10.8,0,0,0,.469-3.75,10.769,10.769,0,0,0-.474-3.774,1.582,1.582,0,0,0-3.042,0A11.089,11.089,0,0,0,247.826,94.861Zm18.4,0A9.952,9.952,0,0,1,265,100.4a4.253,4.253,0,0,1-3.774,1.8,4.2,4.2,0,0,1-3.726-1.855,9.811,9.811,0,0,1-1.255-5.479,10.047,10.047,0,0,1,1.221-5.571,4.747,4.747,0,0,1,7.5.083A9.83,9.83,0,0,1,266.225,94.861Zm-6.982,0a11.108,11.108,0,0,0,.454,3.765,1.573,1.573,0,0,0,1.528,1.138,1.589,1.589,0,0,0,1.523-1.152,10.8,10.8,0,0,0,.469-3.75,10.768,10.768,0,0,0-.474-3.774,1.582,1.582,0,0,0-3.042,0A11.088,11.088,0,0,0,259.242,94.861ZM189.7,118.082h3.262l2.061,6.143a8.523,8.523,0,0,1,.361,1.895h.059a8.372,8.372,0,0,1,.42-1.895l2.021-6.143h3.193L196.459,130.4a5.332,5.332,0,0,1-1.812,2.559,4.572,4.572,0,0,1-2.749.85,6.913,6.913,0,0,1-1.514-.166v-2.363a5.091,5.091,0,0,0,1.172.127,2.116,2.116,0,0,0,1.382-.483,3.134,3.134,0,0,0,.923-1.46l.176-.537Zm17.432,3.057V119h9.7v2.139Zm0,3.779v-2.139h9.7v2.139ZM225.1,129l5.361-11.719h-7.041v-2.539h10.244v1.895L228.266,129Zm14.922-14.463a5.408,5.408,0,0,1,3.306.933,2.972,2.972,0,0,1,1.255,2.515,3.286,3.286,0,0,1-.605,1.948,5.158,5.158,0,0,1-1.953,1.528,6.921,6.921,0,0,1,2.3,1.792,3.338,3.338,0,0,1,.7,2.046,3.4,3.4,0,0,1-1.377,2.827,5.744,5.744,0,0,1-3.623,1.069,6.045,6.045,0,0,1-3.682-1A3.311,3.311,0,0,1,235,125.377a3.742,3.742,0,0,1,.649-2.168,5.394,5.394,0,0,1,2.085-1.67,5.35,5.35,0,0,1-1.758-1.65,3.62,3.62,0,0,1-.537-1.924,2.953,2.953,0,0,1,1.27-2.48A5.4,5.4,0,0,1,240.023,114.537ZM237.8,125.2a1.582,1.582,0,0,0,.586,1.309,3.064,3.064,0,0,0,3.281-.015,1.606,1.606,0,0,0,.557-1.274,1.744,1.744,0,0,0-.552-1.226,7.093,7.093,0,0,0-1.792-1.216Q237.8,123.736,237.8,125.2ZM240,116.744a1.878,1.878,0,0,0-1.245.4,1.31,1.31,0,0,0-.474,1.06,1.623,1.623,0,0,0,.376,1.05,4.133,4.133,0,0,0,1.362.952,3.814,3.814,0,0,0,1.338-.918,1.669,1.669,0,0,0,.381-1.084,1.29,1.29,0,0,0-.488-1.064A1.939,1.939,0,0,0,240,116.744Zm16.416,5.117a9.952,9.952,0,0,1-1.226,5.537,4.253,4.253,0,0,1-3.774,1.8,4.2,4.2,0,0,1-3.726-1.855,9.811,9.811,0,0,1-1.255-5.479,10.047,10.047,0,0,1,1.221-5.571,4.747,4.747,0,0,1,7.5.083A9.83,9.83,0,0,1,256.42,121.861Zm-6.982,0a11.108,11.108,0,0,0,.454,3.765,1.573,1.573,0,0,0,1.528,1.138,1.589,1.589,0,0,0,1.523-1.152,15.255,15.255,0,0,0,0-7.524,1.582,1.582,0,0,0-3.042,0A11.089,11.089,0,0,0,249.438,121.861Zm18.4,0a9.952,9.952,0,0,1-1.226,5.537,4.253,4.253,0,0,1-3.774,1.8,4.2,4.2,0,0,1-3.726-1.855,9.811,9.811,0,0,1-1.255-5.479,10.047,10.047,0,0,1,1.221-5.571,4.747,4.747,0,0,1,7.5.083A9.83,9.83,0,0,1,267.836,121.861Zm-6.982,0a11.108,11.108,0,0,0,.454,3.765,1.573,1.573,0,0,0,1.528,1.138,1.589,1.589,0,0,0,1.523-1.152,15.255,15.255,0,0,0,0-7.524,1.582,1.582,0,0,0-3.042,0A11.088,11.088,0,0,0,260.854,121.861Zm15.859-7.139L271.391,129h-2.705l5.322-14.277ZM279.027,129l5.361-11.719h-7.041v-2.539h10.244v1.895L282.191,129Zm14.922-14.463a5.408,5.408,0,0,1,3.306.933,2.972,2.972,0,0,1,1.255,2.515,3.286,3.286,0,0,1-.605,1.948,5.158,5.158,0,0,1-1.953,1.528,6.921,6.921,0,0,1,2.3,1.792,3.339,3.339,0,0,1,.7,2.046,3.4,3.4,0,0,1-1.377,2.827,5.744,5.744,0,0,1-3.623,1.069,6.045,6.045,0,0,1-3.682-1,3.311,3.311,0,0,1-1.338-2.822,3.742,3.742,0,0,1,.649-2.168,5.394,5.394,0,0,1,2.085-1.67,5.35,5.35,0,0,1-1.758-1.65,3.62,3.62,0,0,1-.537-1.924,2.953,2.953,0,0,1,1.27-2.48A5.4,5.4,0,0,1,293.949,114.537ZM291.723,125.2a1.582,1.582,0,0,0,.586,1.309,3.064,3.064,0,0,0,3.281-.015,1.606,1.606,0,0,0,.557-1.274,1.744,1.744,0,0,0-.552-1.226,7.093,7.093,0,0,0-1.792-1.216Q291.723,123.736,291.723,125.2Zm2.207-8.457a1.879,1.879,0,0,0-1.245.4,1.31,1.31,0,0,0-.474,1.06,1.623,1.623,0,0,0,.376,1.05,4.133,4.133,0,0,0,1.362.952,3.814,3.814,0,0,0,1.338-.918,1.669,1.669,0,0,0,.381-1.084,1.29,1.29,0,0,0-.488-1.064A1.939,1.939,0,0,0,293.93,116.744ZM190.175,145.082h3.262l2.061,6.143a8.523,8.523,0,0,1,.361,1.895h.059a8.372,8.372,0,0,1,.42-1.895l2.021-6.143h3.193L196.933,157.4a5.332,5.332,0,0,1-1.812,2.559,4.572,4.572,0,0,1-2.749.85,6.913,6.913,0,0,1-1.514-.166v-2.363a5.091,5.091,0,0,0,1.172.127,2.116,2.116,0,0,0,1.382-.483,3.134,3.134,0,0,0,.923-1.46l.176-.537Zm17.432,3.057V146h9.7v2.139Zm0,3.779v-2.139h9.7v2.139ZM231.62,156H228.6v-8.262l.029-1.357.049-1.484q-.752.752-1.045.986L226,147.2l-1.455-1.816,4.6-3.662h2.48Zm13.857-7.139a9.952,9.952,0,0,1-1.226,5.537,4.253,4.253,0,0,1-3.774,1.8,4.2,4.2,0,0,1-3.726-1.855,9.811,9.811,0,0,1-1.255-5.479,10.047,10.047,0,0,1,1.221-5.571,4.747,4.747,0,0,1,7.5.083A9.83,9.83,0,0,1,245.478,148.861Zm-6.982,0a11.108,11.108,0,0,0,.454,3.765,1.573,1.573,0,0,0,1.528,1.138A1.589,1.589,0,0,0,242,152.611a15.255,15.255,0,0,0,0-7.524,1.582,1.582,0,0,0-3.042,0A11.089,11.089,0,0,0,238.5,148.861Zm18.4,0a9.952,9.952,0,0,1-1.226,5.537,4.253,4.253,0,0,1-3.774,1.8,4.2,4.2,0,0,1-3.726-1.855,9.811,9.811,0,0,1-1.255-5.479,10.047,10.047,0,0,1,1.221-5.571,4.747,4.747,0,0,1,7.5.083A9.83,9.83,0,0,1,256.894,148.861Zm-6.982,0a11.108,11.108,0,0,0,.454,3.765,1.573,1.573,0,0,0,1.528,1.138,1.589,1.589,0,0,0,1.523-1.152,15.255,15.255,0,0,0,0-7.524,1.582,1.582,0,0,0-3.042,0A11.089,11.089,0,0,0,249.911,148.861Z" transform="translate(-92.812 -6.498)" fill="#00223d"/>
</svg>
