<svg xmlns="http://www.w3.org/2000/svg" width="146.328" height="95.697" viewBox="0 0 146.328 95.697">
  <path id="Trazado_24149" data-name="Trazado 24149" d="M3.8,15.424.283,10.082H3.662l2.119,3.477L7.92,10.082H11.3L7.744,15.424,11.465,21H8.076L5.781,17.26,3.477,21H.1Zm13.818-2.285V11h9.7v2.139Zm0,3.779V14.779h9.7v2.139ZM35.586,21,40.947,9.281H33.906V6.742H44.15V8.637L38.75,21Zm19.9-7.139A9.952,9.952,0,0,1,54.263,19.4a4.253,4.253,0,0,1-3.774,1.8,4.2,4.2,0,0,1-3.726-1.855,9.811,9.811,0,0,1-1.255-5.479A10.047,10.047,0,0,1,46.729,8.29,4.234,4.234,0,0,1,50.488,6.5a4.214,4.214,0,0,1,3.735,1.875A9.83,9.83,0,0,1,55.488,13.861Zm-6.982,0a11.108,11.108,0,0,0,.454,3.765,1.573,1.573,0,0,0,1.528,1.138,1.589,1.589,0,0,0,1.523-1.152,10.8,10.8,0,0,0,.469-3.75,10.769,10.769,0,0,0-.474-3.774,1.582,1.582,0,0,0-3.042,0A11.089,11.089,0,0,0,48.506,13.861Zm18.4,0A9.952,9.952,0,0,1,65.679,19.4,4.253,4.253,0,0,1,61.9,21.2a4.2,4.2,0,0,1-3.726-1.855,9.811,9.811,0,0,1-1.255-5.479A10.047,10.047,0,0,1,58.145,8.29a4.747,4.747,0,0,1,7.5.083A9.83,9.83,0,0,1,66.9,13.861Zm-6.982,0a11.108,11.108,0,0,0,.454,3.765A1.573,1.573,0,0,0,61.9,18.764a1.589,1.589,0,0,0,1.523-1.152,10.8,10.8,0,0,0,.469-3.75,10.769,10.769,0,0,0-.474-3.774,1.582,1.582,0,0,0-3.042,0A11.089,11.089,0,0,0,59.922,13.861Zm13.486,3V14.418h5.244v2.441Zm22.139,1.182H93.828V21H90.879V18.041H84.785v-2.1l6.26-9.219h2.783V15.7h1.719ZM90.879,15.7V13.275q0-.605.049-1.758t.078-1.338h-.078a10.891,10.891,0,0,1-.869,1.563L87.441,15.7Zm4.98-5.615h3.262l2.061,6.143a8.523,8.523,0,0,1,.361,1.895h.059a8.372,8.372,0,0,1,.42-1.895l2.021-6.143h3.193L102.617,22.4a5.332,5.332,0,0,1-1.812,2.559,4.572,4.572,0,0,1-2.749.85,6.913,6.913,0,0,1-1.514-.166V23.275a5.092,5.092,0,0,0,1.172.127,2.116,2.116,0,0,0,1.382-.483,3.134,3.134,0,0,0,.923-1.46l.176-.537ZM3.8,42.424.283,37.082H3.662l2.119,3.477L7.92,37.082H11.3L7.744,42.424,11.465,48H8.076L5.781,44.26,3.477,48H.1Zm13.818-2.285V38h9.7v2.139Zm0,3.779V41.779h9.7v2.139ZM35.586,48l5.361-11.719H33.906V33.742H44.15v1.895L38.75,48Zm19.9-7.139A9.952,9.952,0,0,1,54.263,46.4a4.253,4.253,0,0,1-3.774,1.8,4.2,4.2,0,0,1-3.726-1.855,9.811,9.811,0,0,1-1.255-5.479,10.047,10.047,0,0,1,1.221-5.571,4.234,4.234,0,0,1,3.76-1.792,4.214,4.214,0,0,1,3.735,1.875A9.83,9.83,0,0,1,55.488,40.861Zm-6.982,0a11.108,11.108,0,0,0,.454,3.765,1.573,1.573,0,0,0,1.528,1.138,1.589,1.589,0,0,0,1.523-1.152,10.8,10.8,0,0,0,.469-3.75,10.769,10.769,0,0,0-.474-3.774,1.582,1.582,0,0,0-3.042,0A11.089,11.089,0,0,0,48.506,40.861Zm18.4,0A9.952,9.952,0,0,1,65.679,46.4,4.253,4.253,0,0,1,61.9,48.2a4.2,4.2,0,0,1-3.726-1.855,9.811,9.811,0,0,1-1.255-5.479,10.047,10.047,0,0,1,1.221-5.571,4.747,4.747,0,0,1,7.5.083A9.83,9.83,0,0,1,66.9,40.861Zm-6.982,0a11.108,11.108,0,0,0,.454,3.765A1.573,1.573,0,0,0,61.9,45.764a1.589,1.589,0,0,0,1.523-1.152,10.8,10.8,0,0,0,.469-3.75,10.769,10.769,0,0,0-.474-3.774,1.582,1.582,0,0,0-3.042,0A11.089,11.089,0,0,0,59.922,40.861Zm13.691,2.881V41.5h8.4v2.246Zm25.5,1.3H97.393V48H94.443V45.041H88.35v-2.1l6.26-9.219h2.783V42.7h1.719ZM94.443,42.7V40.275q0-.605.049-1.758t.078-1.338h-.078a10.891,10.891,0,0,1-.869,1.563L91.006,42.7Zm5.781-.176a15.133,15.133,0,0,1,.757-4.844,12.042,12.042,0,0,1,2.183-3.955h2.441a14.062,14.062,0,0,0-2.08,4.141,15.5,15.5,0,0,0-.7,4.639,15.008,15.008,0,0,0,.718,4.624,14,14,0,0,0,2.046,4.038h-2.422a11.508,11.508,0,0,1-2.187-3.877A14.741,14.741,0,0,1,100.225,42.521ZM114.463,48h-3.018V39.738l.029-1.357.049-1.484q-.752.752-1.045.986L108.838,39.2l-1.455-1.816,4.6-3.662h2.48Zm13.857-7.139a9.952,9.952,0,0,1-1.226,5.537,4.253,4.253,0,0,1-3.774,1.8,4.2,4.2,0,0,1-3.726-1.855,9.811,9.811,0,0,1-1.255-5.479,10.047,10.047,0,0,1,1.221-5.571,4.747,4.747,0,0,1,7.5.083A9.83,9.83,0,0,1,128.32,40.861Zm-6.982,0a11.108,11.108,0,0,0,.454,3.765,1.573,1.573,0,0,0,1.528,1.138,1.589,1.589,0,0,0,1.523-1.152,10.8,10.8,0,0,0,.469-3.75,10.769,10.769,0,0,0-.474-3.774,1.582,1.582,0,0,0-3.042,0A11.088,11.088,0,0,0,121.338,40.861Zm18.4,0a9.952,9.952,0,0,1-1.226,5.537,4.253,4.253,0,0,1-3.774,1.8,4.2,4.2,0,0,1-3.726-1.855,9.811,9.811,0,0,1-1.255-5.479,10.047,10.047,0,0,1,1.221-5.571,4.747,4.747,0,0,1,7.5.083A9.83,9.83,0,0,1,139.736,40.861Zm-6.982,0a11.108,11.108,0,0,0,.454,3.765,1.573,1.573,0,0,0,1.528,1.138,1.589,1.589,0,0,0,1.523-1.152,10.8,10.8,0,0,0,.469-3.75,10.769,10.769,0,0,0-.474-3.774,1.582,1.582,0,0,0-3.042,0A11.089,11.089,0,0,0,132.754,40.861Zm13.672,1.66a14.716,14.716,0,0,1-.757,4.785,11.446,11.446,0,0,1-2.183,3.857h-2.422a14.1,14.1,0,0,0,2.041-4.028,14.946,14.946,0,0,0,.723-4.634,15.5,15.5,0,0,0-.7-4.639,14.062,14.062,0,0,0-2.08-4.141h2.441a11.98,11.98,0,0,1,2.188,3.97A15.2,15.2,0,0,1,146.426,42.521ZM3.8,69.424.283,64.082H3.662l2.119,3.477L7.92,64.082H11.3L7.744,69.424,11.465,75H8.076L5.781,71.26,3.477,75H.1Zm13.818-2.285V65h9.7v2.139Zm0,3.779V68.779h9.7v2.139ZM35.586,75l5.361-11.719H33.906V60.742H44.15v1.895L38.75,75Zm19.9-7.139A9.952,9.952,0,0,1,54.263,73.4a4.253,4.253,0,0,1-3.774,1.8,4.2,4.2,0,0,1-3.726-1.855,9.811,9.811,0,0,1-1.255-5.479,10.047,10.047,0,0,1,1.221-5.571,4.234,4.234,0,0,1,3.76-1.792,4.214,4.214,0,0,1,3.735,1.875A9.83,9.83,0,0,1,55.488,67.861Zm-6.982,0a11.108,11.108,0,0,0,.454,3.765,1.573,1.573,0,0,0,1.528,1.138,1.589,1.589,0,0,0,1.523-1.152,10.8,10.8,0,0,0,.469-3.75,10.769,10.769,0,0,0-.474-3.774,1.582,1.582,0,0,0-3.042,0A11.089,11.089,0,0,0,48.506,67.861Zm18.4,0A9.952,9.952,0,0,1,65.679,73.4,4.253,4.253,0,0,1,61.9,75.2a4.2,4.2,0,0,1-3.726-1.855,9.811,9.811,0,0,1-1.255-5.479,10.047,10.047,0,0,1,1.221-5.571,4.747,4.747,0,0,1,7.5.083A9.83,9.83,0,0,1,66.9,67.861Zm-6.982,0a11.108,11.108,0,0,0,.454,3.765A1.573,1.573,0,0,0,61.9,72.764a1.589,1.589,0,0,0,1.523-1.152,10.8,10.8,0,0,0,.469-3.75,10.769,10.769,0,0,0-.474-3.774,1.582,1.582,0,0,0-3.042,0A11.089,11.089,0,0,0,59.922,67.861Zm13.691,2.881V68.5h8.4v2.246Zm25.5,1.3H97.393V75H94.443V72.041H88.35v-2.1l6.26-9.219h2.783V69.7h1.719ZM94.443,69.7V67.275q0-.605.049-1.758t.078-1.338h-.078a10.891,10.891,0,0,1-.869,1.563L91.006,69.7Zm15.684-1.836A9.952,9.952,0,0,1,108.9,73.4a4.253,4.253,0,0,1-3.774,1.8A4.2,4.2,0,0,1,101.4,73.34a9.811,9.811,0,0,1-1.255-5.479,10.047,10.047,0,0,1,1.221-5.571,4.747,4.747,0,0,1,7.5.083A9.83,9.83,0,0,1,110.127,67.861Zm-6.982,0a11.108,11.108,0,0,0,.454,3.765,1.573,1.573,0,0,0,1.528,1.138,1.589,1.589,0,0,0,1.523-1.152,10.8,10.8,0,0,0,.469-3.75,10.769,10.769,0,0,0-.474-3.774,1.582,1.582,0,0,0-3.042,0A11.088,11.088,0,0,0,103.145,67.861Zm18.4,0a9.952,9.952,0,0,1-1.226,5.537,4.253,4.253,0,0,1-3.774,1.8,4.2,4.2,0,0,1-3.726-1.855,9.811,9.811,0,0,1-1.255-5.479,10.047,10.047,0,0,1,1.221-5.571,4.747,4.747,0,0,1,7.5.083A9.83,9.83,0,0,1,121.543,67.861Zm-6.982,0a11.108,11.108,0,0,0,.454,3.765,1.573,1.573,0,0,0,1.528,1.138,1.589,1.589,0,0,0,1.523-1.152,10.8,10.8,0,0,0,.469-3.75,10.769,10.769,0,0,0-.474-3.774,1.582,1.582,0,0,0-3.042,0A11.088,11.088,0,0,0,114.561,67.861ZM3.8,96.424.283,91.082H3.662l2.119,3.477L7.92,91.082H11.3L7.744,96.424,11.465,102H8.076L5.781,98.26,3.477,102H.1Zm13.818-2.285V92h9.7v2.139Zm0,3.779V95.779h9.7v2.139Zm25.977-7a3.36,3.36,0,0,1-.811,2.275,4.2,4.2,0,0,1-2.275,1.289v.059a4.547,4.547,0,0,1,2.617,1.05,2.941,2.941,0,0,1,.889,2.251,3.814,3.814,0,0,1-1.494,3.208,6.887,6.887,0,0,1-4.268,1.147,10.362,10.362,0,0,1-4.121-.771V98.855a9.314,9.314,0,0,0,1.826.684,7.685,7.685,0,0,0,1.973.264,3.836,3.836,0,0,0,2.207-.508,1.864,1.864,0,0,0,.713-1.631,1.473,1.473,0,0,0-.82-1.426,6.069,6.069,0,0,0-2.617-.42H36.328V93.5h1.1a5.132,5.132,0,0,0,2.427-.435,1.569,1.569,0,0,0,.767-1.489q0-1.621-2.031-1.621a4.649,4.649,0,0,0-1.431.234A6.989,6.989,0,0,0,35.547,91l-1.4-2.08a7.759,7.759,0,0,1,4.658-1.406,6.015,6.015,0,0,1,3.5.9A2.881,2.881,0,0,1,43.594,90.916Zm11.895,3.945a9.952,9.952,0,0,1-1.226,5.537,4.253,4.253,0,0,1-3.774,1.8,4.2,4.2,0,0,1-3.726-1.855,9.811,9.811,0,0,1-1.255-5.479,10.047,10.047,0,0,1,1.221-5.571,4.234,4.234,0,0,1,3.76-1.792,4.214,4.214,0,0,1,3.735,1.875A9.83,9.83,0,0,1,55.488,94.861Zm-6.982,0a11.108,11.108,0,0,0,.454,3.765,1.573,1.573,0,0,0,1.528,1.138,1.589,1.589,0,0,0,1.523-1.152,10.8,10.8,0,0,0,.469-3.75,10.769,10.769,0,0,0-.474-3.774,1.582,1.582,0,0,0-3.042,0A11.089,11.089,0,0,0,48.506,94.861Zm18.4,0a9.952,9.952,0,0,1-1.226,5.537,4.253,4.253,0,0,1-3.774,1.8,4.2,4.2,0,0,1-3.726-1.855,9.811,9.811,0,0,1-1.255-5.479,10.047,10.047,0,0,1,1.221-5.571,4.747,4.747,0,0,1,7.5.083A9.83,9.83,0,0,1,66.9,94.861Zm-6.982,0a11.108,11.108,0,0,0,.454,3.765A1.573,1.573,0,0,0,61.9,99.764a1.589,1.589,0,0,0,1.523-1.152,10.8,10.8,0,0,0,.469-3.75,10.769,10.769,0,0,0-.474-3.774,1.582,1.582,0,0,0-3.042,0A11.089,11.089,0,0,0,59.922,94.861Z" transform="translate(-0.098 -6.498)" fill="#00223d"/>
</svg>
