<svg xmlns="http://www.w3.org/2000/svg" width="271.67" height="53.28" viewBox="0 0 271.67 53.28">
  <g id="Grupo_14493" data-name="Grupo 14493" transform="translate(-525.33 -1829.76)">
    <path id="Trazado_24185" data-name="Trazado 24185" d="M-10.74-8.26h9.52V-10.7h-9.52Zm0,4.96h9.52V-5.74h-9.52Z" transform="translate(674 1862)" fill="#00223d"/>
    <path id="Trazado_24183" data-name="Trazado 24183" d="M-41.93-8.78a4.725,4.725,0,0,0-3.46,1.24c.1-2.68,1.6-4.06,3.94-4.06a4.611,4.611,0,0,1,2.62.7l1.2-2.38a7.559,7.559,0,0,0-3.9-.96c-4.22,0-7.14,2.7-7.14,7.54,0,4.52,2.4,6.94,6.26,6.94,2.96,0,5.3-1.8,5.3-4.66C-37.11-7.06-39.23-8.78-41.93-8.78Zm-.66,6.6c-1.56,0-2.46-.88-2.46-2.08a2.19,2.19,0,0,1,2.42-2.1,2.111,2.111,0,0,1,2.38,2.1A2.093,2.093,0,0,1-42.59-2.18ZM-29.93.24c3.46,0,6-2.62,6-7.24s-2.54-7.24-6-7.24c-3.44,0-6,2.62-6,7.24S-33.37.24-29.93.24Zm0-2.74c-1.6,0-2.72-1.32-2.72-4.5s1.12-4.5,2.72-4.5c1.62,0,2.74,1.32,2.74,4.5S-28.31-2.5-29.93-2.5ZM-16.35.24c3.46,0,6-2.62,6-7.24s-2.54-7.24-6-7.24c-3.44,0-6,2.62-6,7.24S-19.79.24-16.35.24Zm0-2.74c-1.6,0-2.72-1.32-2.72-4.5s1.12-4.5,2.72-4.5c1.62,0,2.74,1.32,2.74,4.5S-14.73-2.5-16.35-2.5ZM6.87-8.22H3.39v-3.4H.81v3.4H-2.65v2.44H.81v3.4H3.39v-3.4H6.87ZM14.27-14v4.92h2.88v-2.28h4.64L16.77,0h3.52l5.2-11.9V-14ZM31.39-8.74H30.25l.22-2.66h5.84V-14H27.77l-.72,7.88h3.58c2.54,0,3.26.72,3.26,1.82,0,1.14-1,1.82-2.62,1.82a6.738,6.738,0,0,1-3.98-1.26L26.01-1.26A9.674,9.674,0,0,0,31.35.24c4,0,5.82-2.16,5.82-4.64S35.53-8.74,31.39-8.74Zm15.22-2.02-3.04,7.3-3.02-7.3H37.33L41.99.08l-.04.1c-.42.96-.9,1.34-1.76,1.34A2.766,2.766,0,0,1,38.43.84L37.29,3.06a4.778,4.778,0,0,0,3,.98c1.94,0,3.42-.78,4.46-3.38l4.86-11.42Z" transform="translate(574 1844)" fill="#00223d"/>
    <path id="Trazado_24187" data-name="Trazado 24187" d="M-12.43-8.78a4.725,4.725,0,0,0-3.46,1.24c.1-2.68,1.6-4.06,3.94-4.06a4.611,4.611,0,0,1,2.62.7l1.2-2.38a7.559,7.559,0,0,0-3.9-.96c-4.22,0-7.14,2.7-7.14,7.54,0,4.52,2.4,6.94,6.26,6.94,2.96,0,5.3-1.8,5.3-4.66C-7.61-7.06-9.73-8.78-12.43-8.78Zm-.66,6.6c-1.56,0-2.46-.88-2.46-2.08a2.19,2.19,0,0,1,2.42-2.1,2.111,2.111,0,0,1,2.38,2.1A2.093,2.093,0,0,1-13.09-2.18ZM-.43.24c3.46,0,6-2.62,6-7.24s-2.54-7.24-6-7.24c-3.44,0-6,2.62-6,7.24S-3.87.24-.43.24Zm0-2.74c-1.6,0-2.72-1.32-2.72-4.5s1.12-4.5,2.72-4.5c1.62,0,2.74,1.32,2.74,4.5S1.19-2.5-.43-2.5ZM13.15.24c3.46,0,6-2.62,6-7.24s-2.54-7.24-6-7.24c-3.44,0-6,2.62-6,7.24S9.71.24,13.15.24Zm0-2.74c-1.6,0-2.72-1.32-2.72-4.5s1.12-4.5,2.72-4.5c1.62,0,2.74,1.32,2.74,4.5S14.77-2.5,13.15-2.5Z" transform="translate(762 1844)" fill="#00223d"/>
    <path id="Trazado_24184" data-name="Trazado 24184" d="M-35,1.8h10V0H-35Zm10,0h10V0H-25Zm10,0H-5V0H-15Zm10,0H5V0H-5Zm10,0H15V0H5Zm10,0H25V0H15Zm10,0H35V0H25ZM3.14,13.24.1,20.54l-3.02-7.3H-6.14l4.66,10.84-.04.1c-.42.96-.9,1.34-1.76,1.34a2.766,2.766,0,0,1-1.76-.68l-1.14,2.22a4.778,4.778,0,0,0,3,.98c1.94,0,3.42-.78,4.46-3.38L6.14,13.24Z" transform="translate(574 1855)" fill="#00223d"/>
    <path id="Trazado_24186" data-name="Trazado 24186" d="M-35,1.8h10V0H-35Zm10,0h10V0H-25Zm10,0H-5V0H-15Zm10,0H5V0H-5Zm10,0H15V0H5Zm10,0H25V0H15Zm10,0H35V0H25ZM-13.27,13.24l-3.04,7.3-3.02-7.3h-3.22l4.66,10.84-.04.1c-.42.96-.9,1.34-1.76,1.34a2.766,2.766,0,0,1-1.76-.68l-1.14,2.22a4.778,4.778,0,0,0,3,.98c1.94,0,3.42-.78,4.46-3.38l4.86-11.42Zm9.54,6.38H1.93v-2.5H-3.73Zm25.94-1.2H19.93V15.8H16.87v2.62H13.11L19.23,10h-3.4l-6.6,8.88v2.18h7.54V24h3.16V21.06h2.28Z" transform="translate(762 1855)" fill="#00223d"/>
    <line id="Línea_565" data-name="Línea 565" x1="6" transform="translate(556.5 1830.5)" fill="none" stroke="#707070" stroke-width="0.1"/>
    <line id="Línea_566" data-name="Línea 566" x1="6" transform="translate(744.5 1830.5)" fill="none" stroke="#707070" stroke-width="0.1"/>
  </g>
</svg>
