<svg xmlns="http://www.w3.org/2000/svg" width="315.273" height="47" viewBox="0 0 315.273 47">
  <path id="Trazado_24188" data-name="Trazado 24188" d="M123.178,15.521a15.133,15.133,0,0,1,.757-4.844,12.042,12.042,0,0,1,2.183-3.955h2.441a14.062,14.062,0,0,0-2.08,4.141,15.5,15.5,0,0,0-.7,4.639,15.008,15.008,0,0,0,.718,4.624,14,14,0,0,0,2.046,4.038h-2.422a11.508,11.508,0,0,1-2.187-3.877A14.741,14.741,0,0,1,123.178,15.521Zm5.977-5.439h3.262l2.061,6.143a8.523,8.523,0,0,1,.361,1.895h.059a8.372,8.372,0,0,1,.42-1.895l2.021-6.143h3.193L135.912,22.4a5.332,5.332,0,0,1-1.812,2.559,4.572,4.572,0,0,1-2.749.85,6.913,6.913,0,0,1-1.514-.166V23.275a5.092,5.092,0,0,0,1.172.127,2.116,2.116,0,0,0,1.382-.483,3.134,3.134,0,0,0,.923-1.46l.176-.537Zm17.373,6.66V14.5h8.4v2.246Zm25.5,1.3h-1.719V21h-2.949V18.041h-6.094v-2.1l6.26-9.219h2.783V15.7h1.719ZM167.357,15.7V13.275q0-.605.049-1.758t.078-1.338h-.078a10.891,10.891,0,0,1-.869,1.563L163.92,15.7Zm10.957-.176a14.716,14.716,0,0,1-.757,4.785,11.446,11.446,0,0,1-2.183,3.857h-2.422a14.1,14.1,0,0,0,2.041-4.028,14.946,14.946,0,0,0,.723-4.634,15.5,15.5,0,0,0-.7-4.639,14.062,14.062,0,0,0-2.08-4.141h2.441a11.98,11.98,0,0,1,2.188,3.97A15.2,15.2,0,0,1,178.314,15.521ZM191.029,5.8l-.4,3.594,3.643-1.016.322,2.461-3.32.234,2.178,2.9-2.217,1.182L189.711,12.1l-1.338,3.037-2.3-1.162,2.158-2.9-3.3-.254.381-2.441L188.871,9.4l-.4-3.594Zm4.98,9.717a15.133,15.133,0,0,1,.757-4.844,12.042,12.042,0,0,1,2.183-3.955h2.441a14.062,14.062,0,0,0-2.08,4.141,15.5,15.5,0,0,0-.7,4.639,15.008,15.008,0,0,0,.718,4.624,14,14,0,0,0,2.046,4.038h-2.422a11.508,11.508,0,0,1-2.187-3.877A14.741,14.741,0,0,1,196.01,15.521Zm6.68-.586q0-4.238,1.792-6.309a6.713,6.713,0,0,1,5.366-2.07,9.737,9.737,0,0,1,1.914.146V9.115a7.821,7.821,0,0,0-1.719-.2,5.9,5.9,0,0,0-2.534.469,3.152,3.152,0,0,0-1.47,1.387,6.368,6.368,0,0,0-.576,2.607h.127a3.315,3.315,0,0,1,3.1-1.66,3.833,3.833,0,0,1,3,1.2,4.776,4.776,0,0,1,1.084,3.32,4.985,4.985,0,0,1-1.289,3.618A4.74,4.74,0,0,1,207.9,21.2a5.113,5.113,0,0,1-2.759-.732,4.757,4.757,0,0,1-1.816-2.139A8.144,8.144,0,0,1,202.689,14.936Zm5.156,3.848a1.787,1.787,0,0,0,1.484-.649,2.906,2.906,0,0,0,.518-1.851,2.554,2.554,0,0,0-.483-1.646,1.762,1.762,0,0,0-1.46-.6,2.237,2.237,0,0,0-1.567.6,1.83,1.83,0,0,0-.649,1.387,3.143,3.143,0,0,0,.61,1.963A1.869,1.869,0,0,0,207.846,18.783Zm16.26-4.922A9.952,9.952,0,0,1,222.88,19.4a4.253,4.253,0,0,1-3.774,1.8,4.2,4.2,0,0,1-3.726-1.855,9.811,9.811,0,0,1-1.255-5.479,10.047,10.047,0,0,1,1.221-5.571,4.747,4.747,0,0,1,7.5.083A9.83,9.83,0,0,1,224.105,13.861Zm-6.982,0a11.108,11.108,0,0,0,.454,3.765,1.573,1.573,0,0,0,1.528,1.138,1.589,1.589,0,0,0,1.523-1.152,10.8,10.8,0,0,0,.469-3.75,10.769,10.769,0,0,0-.474-3.774,1.582,1.582,0,0,0-3.042,0A11.089,11.089,0,0,0,217.123,13.861Zm18.4,0A9.952,9.952,0,0,1,234.3,19.4a4.253,4.253,0,0,1-3.774,1.8A4.2,4.2,0,0,1,226.8,19.34a9.811,9.811,0,0,1-1.255-5.479,10.047,10.047,0,0,1,1.221-5.571,4.747,4.747,0,0,1,7.5.083A9.83,9.83,0,0,1,235.521,13.861Zm-6.982,0a11.108,11.108,0,0,0,.454,3.765,1.573,1.573,0,0,0,1.528,1.138,1.589,1.589,0,0,0,1.523-1.152,10.8,10.8,0,0,0,.469-3.75,10.769,10.769,0,0,0-.474-3.774,1.582,1.582,0,0,0-3.042,0A11.089,11.089,0,0,0,228.539,13.861Zm17.529,1.162h-3.779V12.885h3.779V9.076h2.139v3.809h3.779v2.139h-3.779v3.76h-2.139ZM260.258,21l5.361-11.719h-7.041V6.742h10.244V8.637L263.422,21Zm15.2-9.121a4.593,4.593,0,0,1,3.3,1.162,4.177,4.177,0,0,1,1.226,3.184,4.628,4.628,0,0,1-1.475,3.682,6.216,6.216,0,0,1-4.219,1.289,8.263,8.263,0,0,1-3.848-.771V17.816a8.674,8.674,0,0,0,3.74.928q2.764,0,2.764-2.266,0-2.158-2.861-2.158a7.1,7.1,0,0,0-1.143.1,8.36,8.36,0,0,0-1.016.22l-1.2-.645.537-7.275H279V9.281h-5.1l-.264,2.8.342-.068A6.722,6.722,0,0,1,275.453,11.879Zm5.42-1.8h3.262l2.061,6.143a8.522,8.522,0,0,1,.361,1.895h.059a8.372,8.372,0,0,1,.42-1.895l2.021-6.143h3.193L287.631,22.4a5.332,5.332,0,0,1-1.812,2.559,4.572,4.572,0,0,1-2.749.85,6.913,6.913,0,0,1-1.514-.166V23.275a5.091,5.091,0,0,0,1.172.127,2.116,2.116,0,0,0,1.382-.483,3.134,3.134,0,0,0,.923-1.46l.176-.537Zm17.354,5.439a14.717,14.717,0,0,1-.757,4.785,11.446,11.446,0,0,1-2.183,3.857h-2.422a14.1,14.1,0,0,0,2.041-4.028,14.945,14.945,0,0,0,.723-4.634,15.5,15.5,0,0,0-.7-4.639,14.062,14.062,0,0,0-2.08-4.141h2.441a11.98,11.98,0,0,1,2.188,3.97A15.2,15.2,0,0,1,298.227,15.521Zm6.855-2.383V11h9.7v2.139Zm0,3.779V14.779h9.7v2.139Zm16.455-1.982q0-4.238,1.792-6.309a6.713,6.713,0,0,1,5.366-2.07,9.737,9.737,0,0,1,1.914.146V9.115a7.821,7.821,0,0,0-1.719-.2,5.9,5.9,0,0,0-2.534.469,3.152,3.152,0,0,0-1.47,1.387,6.368,6.368,0,0,0-.576,2.607h.127a3.315,3.315,0,0,1,3.1-1.66,3.833,3.833,0,0,1,3,1.2,4.776,4.776,0,0,1,1.084,3.32,4.985,4.985,0,0,1-1.289,3.618,4.74,4.74,0,0,1-3.574,1.333,5.113,5.113,0,0,1-2.759-.732,4.757,4.757,0,0,1-1.816-2.139A8.144,8.144,0,0,1,321.537,14.936Zm5.156,3.848a1.787,1.787,0,0,0,1.484-.649,2.906,2.906,0,0,0,.518-1.851,2.554,2.554,0,0,0-.483-1.646,1.762,1.762,0,0,0-1.46-.6,2.237,2.237,0,0,0-1.567.6,1.83,1.83,0,0,0-.649,1.387,3.143,3.143,0,0,0,.61,1.963A1.869,1.869,0,0,0,326.693,18.783Zm16.26-4.922a9.952,9.952,0,0,1-1.226,5.537,4.253,4.253,0,0,1-3.774,1.8,4.2,4.2,0,0,1-3.726-1.855,9.811,9.811,0,0,1-1.255-5.479,10.047,10.047,0,0,1,1.221-5.571,4.747,4.747,0,0,1,7.5.083A9.83,9.83,0,0,1,342.953,13.861Zm-6.982,0a11.108,11.108,0,0,0,.454,3.765,1.573,1.573,0,0,0,1.528,1.138,1.589,1.589,0,0,0,1.523-1.152,10.8,10.8,0,0,0,.469-3.75,10.768,10.768,0,0,0-.474-3.774,1.582,1.582,0,0,0-3.042,0A11.088,11.088,0,0,0,335.971,13.861Zm18.4,0a9.952,9.952,0,0,1-1.226,5.537,4.253,4.253,0,0,1-3.774,1.8,4.2,4.2,0,0,1-3.726-1.855,9.811,9.811,0,0,1-1.255-5.479,10.047,10.047,0,0,1,1.221-5.571,4.747,4.747,0,0,1,7.5.083A9.83,9.83,0,0,1,354.369,13.861Zm-6.982,0a11.108,11.108,0,0,0,.454,3.765,1.573,1.573,0,0,0,1.528,1.138,1.589,1.589,0,0,0,1.523-1.152,10.8,10.8,0,0,0,.469-3.75,10.768,10.768,0,0,0-.474-3.774,1.582,1.582,0,0,0-3.042,0A11.088,11.088,0,0,0,347.387,13.861ZM361.8,5.8,361.4,9.4l3.643-1.016.322,2.461-3.32.234,2.178,2.9-2.217,1.182L360.482,12.1l-1.338,3.037-2.3-1.162,2.158-2.9-3.3-.254.381-2.441L359.643,9.4l-.4-3.594Zm4.18,4.277h3.262l2.061,6.143a8.522,8.522,0,0,1,.361,1.895h.059a8.372,8.372,0,0,1,.42-1.895l2.021-6.143h3.193L372.738,22.4a5.332,5.332,0,0,1-1.812,2.559,4.572,4.572,0,0,1-2.749.85,6.913,6.913,0,0,1-1.514-.166V23.275a5.091,5.091,0,0,0,1.172.127,2.116,2.116,0,0,0,1.382-.483,3.134,3.134,0,0,0,.923-1.46l.176-.537ZM62.085,41.936q0-4.238,1.792-6.309a6.713,6.713,0,0,1,5.366-2.07,9.737,9.737,0,0,1,1.914.146v2.412a7.821,7.821,0,0,0-1.719-.2,5.9,5.9,0,0,0-2.534.469,3.152,3.152,0,0,0-1.47,1.387,6.368,6.368,0,0,0-.576,2.607h.127a3.315,3.315,0,0,1,3.1-1.66,3.833,3.833,0,0,1,3,1.2,4.776,4.776,0,0,1,1.084,3.32,4.985,4.985,0,0,1-1.289,3.618A4.74,4.74,0,0,1,67.3,48.2a5.113,5.113,0,0,1-2.759-.732,4.757,4.757,0,0,1-1.816-2.139A8.144,8.144,0,0,1,62.085,41.936Zm5.156,3.848a1.787,1.787,0,0,0,1.484-.649,2.906,2.906,0,0,0,.518-1.851,2.554,2.554,0,0,0-.483-1.646,1.762,1.762,0,0,0-1.46-.6,2.237,2.237,0,0,0-1.567.6,1.83,1.83,0,0,0-.649,1.387,3.143,3.143,0,0,0,.61,1.963A1.869,1.869,0,0,0,67.241,45.783ZM83.5,40.861A9.952,9.952,0,0,1,82.275,46.4,4.253,4.253,0,0,1,78.5,48.2a4.2,4.2,0,0,1-3.726-1.855,9.811,9.811,0,0,1-1.255-5.479,10.047,10.047,0,0,1,1.221-5.571,4.747,4.747,0,0,1,7.5.083A9.83,9.83,0,0,1,83.5,40.861Zm-6.982,0a11.108,11.108,0,0,0,.454,3.765A1.573,1.573,0,0,0,78.5,45.764a1.589,1.589,0,0,0,1.523-1.152,10.8,10.8,0,0,0,.469-3.75,10.769,10.769,0,0,0-.474-3.774,1.582,1.582,0,0,0-3.042,0A11.088,11.088,0,0,0,76.518,40.861Zm18.4,0A9.952,9.952,0,0,1,93.691,46.4a4.253,4.253,0,0,1-3.774,1.8,4.2,4.2,0,0,1-3.726-1.855,9.811,9.811,0,0,1-1.255-5.479,10.047,10.047,0,0,1,1.221-5.571,4.747,4.747,0,0,1,7.5.083A9.83,9.83,0,0,1,94.917,40.861Zm-6.982,0a11.108,11.108,0,0,0,.454,3.765,1.573,1.573,0,0,0,1.528,1.138,1.589,1.589,0,0,0,1.523-1.152,10.8,10.8,0,0,0,.469-3.75,10.769,10.769,0,0,0-.474-3.774,1.582,1.582,0,0,0-3.042,0A11.088,11.088,0,0,0,87.934,40.861Zm7.7-3.779h3.262l2.061,6.143a8.523,8.523,0,0,1,.361,1.895h.059a8.372,8.372,0,0,1,.42-1.895l2.021-6.143h3.193L102.387,49.4a5.332,5.332,0,0,1-1.812,2.559,4.572,4.572,0,0,1-2.749.85,6.913,6.913,0,0,1-1.514-.166V50.275a5.091,5.091,0,0,0,1.172.127,2.116,2.116,0,0,0,1.382-.483,3.134,3.134,0,0,0,.923-1.46l.176-.537ZM112.8,43.859V41.418h5.244v2.441ZM134.614,48h-9.98V45.9l3.584-3.623q1.592-1.631,2.08-2.261a4.972,4.972,0,0,0,.7-1.167,2.971,2.971,0,0,0,.215-1.113,1.622,1.622,0,0,0-.474-1.279,1.836,1.836,0,0,0-1.265-.42,3.637,3.637,0,0,0-1.611.381,8.315,8.315,0,0,0-1.631,1.084l-1.641-1.943a10.7,10.7,0,0,1,1.748-1.27,6.417,6.417,0,0,1,1.514-.571,7.756,7.756,0,0,1,1.836-.2,5.436,5.436,0,0,1,2.363.488,3.77,3.77,0,0,1,1.592,1.367,3.632,3.632,0,0,1,.566,2.012,4.924,4.924,0,0,1-.347,1.851,7.105,7.105,0,0,1-1.074,1.772,26.263,26.263,0,0,1-2.563,2.588l-1.836,1.729v.137h6.221Zm11.738-2.959h-1.719V48h-2.949V45.041H135.59v-2.1l6.26-9.219h2.783V42.7h1.719ZM141.684,42.7V40.275q0-.605.049-1.758t.078-1.338h-.078a10.891,10.891,0,0,1-.869,1.563L138.247,42.7Zm15.684-1.836a9.952,9.952,0,0,1-1.226,5.537,4.253,4.253,0,0,1-3.774,1.8,4.2,4.2,0,0,1-3.726-1.855,9.811,9.811,0,0,1-1.255-5.479,10.047,10.047,0,0,1,1.221-5.571,4.747,4.747,0,0,1,7.5.083A9.83,9.83,0,0,1,157.368,40.861Zm-6.982,0a11.108,11.108,0,0,0,.454,3.765,1.573,1.573,0,0,0,1.528,1.138,1.589,1.589,0,0,0,1.523-1.152,10.8,10.8,0,0,0,.469-3.75,10.769,10.769,0,0,0-.474-3.774,1.582,1.582,0,0,0-3.042,0A11.089,11.089,0,0,0,150.385,40.861Zm18.4,0a9.952,9.952,0,0,1-1.226,5.537,4.253,4.253,0,0,1-3.774,1.8,4.2,4.2,0,0,1-3.726-1.855,9.811,9.811,0,0,1-1.255-5.479,10.047,10.047,0,0,1,1.221-5.571,4.747,4.747,0,0,1,7.5.083A9.83,9.83,0,0,1,168.784,40.861Zm-6.982,0a11.108,11.108,0,0,0,.454,3.765,1.573,1.573,0,0,0,1.528,1.138,1.589,1.589,0,0,0,1.523-1.152,10.8,10.8,0,0,0,.469-3.75,10.769,10.769,0,0,0-.474-3.774,1.582,1.582,0,0,0-3.042,0A11.089,11.089,0,0,0,161.8,40.861Zm17.529,1.162h-3.779V39.885h3.779V36.076h2.139v3.809h3.779v2.139h-3.779v3.76h-2.139ZM193.52,48l5.361-11.719H191.84V33.742h10.244v1.895L196.684,48Zm15.2-9.121a4.593,4.593,0,0,1,3.3,1.162,4.177,4.177,0,0,1,1.226,3.184,4.628,4.628,0,0,1-1.475,3.682,6.216,6.216,0,0,1-4.219,1.289,8.263,8.263,0,0,1-3.848-.771V44.816a8.674,8.674,0,0,0,3.74.928q2.764,0,2.764-2.266,0-2.158-2.861-2.158a7.1,7.1,0,0,0-1.143.1,8.36,8.36,0,0,0-1.016.22l-1.2-.645.537-7.275h7.744v2.559h-5.1l-.264,2.8.342-.068A6.722,6.722,0,0,1,208.715,38.879Zm5.42-1.8H217.4l2.061,6.143a8.523,8.523,0,0,1,.361,1.895h.059a8.372,8.372,0,0,1,.42-1.895l2.021-6.143h3.193L220.893,49.4a5.332,5.332,0,0,1-1.812,2.559,4.572,4.572,0,0,1-2.749.85,6.913,6.913,0,0,1-1.514-.166V50.275a5.092,5.092,0,0,0,1.172.127,2.116,2.116,0,0,0,1.382-.483,3.134,3.134,0,0,0,.923-1.46l.176-.537ZM231.8,41h-5.822V39.775l2.091-2.113q.929-.951,1.213-1.319a2.9,2.9,0,0,0,.41-.681,1.733,1.733,0,0,0,.125-.649.946.946,0,0,0-.276-.746,1.071,1.071,0,0,0-.738-.245,2.121,2.121,0,0,0-.94.222,4.85,4.85,0,0,0-.951.632l-.957-1.134a6.244,6.244,0,0,1,1.02-.741,3.743,3.743,0,0,1,.883-.333,4.524,4.524,0,0,1,1.071-.117,3.171,3.171,0,0,1,1.379.285,2.2,2.2,0,0,1,.928.8,2.118,2.118,0,0,1,.33,1.173,2.872,2.872,0,0,1-.2,1.079,4.145,4.145,0,0,1-.627,1.034,15.318,15.318,0,0,1-1.5,1.51l-1.071,1.008v.08H231.8Zm6.366,2.742V41.5h8.4v2.246Zm24.619-6.826a3.36,3.36,0,0,1-.811,2.275A4.2,4.2,0,0,1,259.7,40.48v.059a4.547,4.547,0,0,1,2.617,1.05,2.941,2.941,0,0,1,.889,2.251,3.814,3.814,0,0,1-1.494,3.208,6.887,6.887,0,0,1-4.268,1.147,10.362,10.362,0,0,1-4.121-.771V44.855a9.314,9.314,0,0,0,1.826.684,7.684,7.684,0,0,0,1.973.264,3.836,3.836,0,0,0,2.207-.508,1.864,1.864,0,0,0,.713-1.631,1.473,1.473,0,0,0-.82-1.426,6.069,6.069,0,0,0-2.617-.42h-1.084V39.5h1.1a5.132,5.132,0,0,0,2.427-.435,1.569,1.569,0,0,0,.767-1.489q0-1.621-2.031-1.621a4.649,4.649,0,0,0-1.431.234A6.989,6.989,0,0,0,254.74,37l-1.4-2.08A7.759,7.759,0,0,1,258,33.518a6.015,6.015,0,0,1,3.5.9A2.881,2.881,0,0,1,262.786,36.916Zm11.895,3.945a9.952,9.952,0,0,1-1.226,5.537,4.253,4.253,0,0,1-3.774,1.8,4.2,4.2,0,0,1-3.726-1.855,9.811,9.811,0,0,1-1.255-5.479,10.047,10.047,0,0,1,1.221-5.571,4.747,4.747,0,0,1,7.5.083A9.83,9.83,0,0,1,274.681,40.861Zm-6.982,0a11.108,11.108,0,0,0,.454,3.765,1.573,1.573,0,0,0,1.528,1.138,1.589,1.589,0,0,0,1.523-1.152,10.8,10.8,0,0,0,.469-3.75,10.768,10.768,0,0,0-.474-3.774,1.582,1.582,0,0,0-3.042,0A11.088,11.088,0,0,0,267.7,40.861Zm18.4,0a9.952,9.952,0,0,1-1.226,5.537,4.253,4.253,0,0,1-3.774,1.8,4.2,4.2,0,0,1-3.726-1.855,9.811,9.811,0,0,1-1.255-5.479,10.047,10.047,0,0,1,1.221-5.571,4.747,4.747,0,0,1,7.5.083A9.83,9.83,0,0,1,286.1,40.861Zm-6.982,0a11.108,11.108,0,0,0,.454,3.765,1.573,1.573,0,0,0,1.528,1.138,1.589,1.589,0,0,0,1.523-1.152,10.8,10.8,0,0,0,.469-3.75,10.768,10.768,0,0,0-.474-3.774,1.582,1.582,0,0,0-3.042,0A11.088,11.088,0,0,0,279.115,40.861Zm7.7-3.779h3.262l2.061,6.143a8.522,8.522,0,0,1,.361,1.895h.059a8.372,8.372,0,0,1,.42-1.895l2.021-6.143h3.193L293.568,49.4a5.332,5.332,0,0,1-1.812,2.559,4.572,4.572,0,0,1-2.749.85,6.913,6.913,0,0,1-1.514-.166V50.275a5.091,5.091,0,0,0,1.172.127,2.116,2.116,0,0,0,1.382-.483,3.134,3.134,0,0,0,.923-1.46l.176-.537Zm17.432,3.057V38h9.7v2.139Zm0,3.779V41.779h9.7v2.139ZM320.7,41.936q0-4.238,1.792-6.309a6.713,6.713,0,0,1,5.366-2.07,9.737,9.737,0,0,1,1.914.146v2.412a7.821,7.821,0,0,0-1.719-.2,5.9,5.9,0,0,0-2.534.469,3.152,3.152,0,0,0-1.47,1.387,6.368,6.368,0,0,0-.576,2.607h.127a3.315,3.315,0,0,1,3.1-1.66,3.833,3.833,0,0,1,3,1.2,4.776,4.776,0,0,1,1.084,3.32,4.985,4.985,0,0,1-1.289,3.618,4.74,4.74,0,0,1-3.574,1.333,5.113,5.113,0,0,1-2.759-.732,4.757,4.757,0,0,1-1.816-2.139A8.144,8.144,0,0,1,320.7,41.936Zm5.156,3.848a1.787,1.787,0,0,0,1.484-.649,2.906,2.906,0,0,0,.518-1.851,2.554,2.554,0,0,0-.483-1.646,1.762,1.762,0,0,0-1.46-.6,2.237,2.237,0,0,0-1.567.6,1.83,1.83,0,0,0-.649,1.387,3.143,3.143,0,0,0,.61,1.963A1.869,1.869,0,0,0,325.853,45.783Zm16.26-4.922a9.952,9.952,0,0,1-1.226,5.537,4.253,4.253,0,0,1-3.774,1.8,4.2,4.2,0,0,1-3.726-1.855,9.811,9.811,0,0,1-1.255-5.479,10.047,10.047,0,0,1,1.221-5.571,4.747,4.747,0,0,1,7.5.083A9.83,9.83,0,0,1,342.113,40.861Zm-6.982,0a11.108,11.108,0,0,0,.454,3.765,1.573,1.573,0,0,0,1.528,1.138,1.589,1.589,0,0,0,1.523-1.152,10.8,10.8,0,0,0,.469-3.75,10.768,10.768,0,0,0-.474-3.774,1.582,1.582,0,0,0-3.042,0A11.088,11.088,0,0,0,335.13,40.861Zm18.4,0A9.952,9.952,0,0,1,352.3,46.4a4.253,4.253,0,0,1-3.774,1.8A4.2,4.2,0,0,1,344.8,46.34a9.811,9.811,0,0,1-1.255-5.479,10.047,10.047,0,0,1,1.221-5.571,4.747,4.747,0,0,1,7.5.083A9.83,9.83,0,0,1,353.529,40.861Zm-6.982,0A11.108,11.108,0,0,0,347,44.626a1.573,1.573,0,0,0,1.528,1.138,1.589,1.589,0,0,0,1.523-1.152,10.8,10.8,0,0,0,.469-3.75,10.768,10.768,0,0,0-.474-3.774,1.582,1.582,0,0,0-3.042,0A11.088,11.088,0,0,0,346.546,40.861Zm7.7-3.779H357.5l2.061,6.143a8.522,8.522,0,0,1,.361,1.895h.059a8.372,8.372,0,0,1,.42-1.895l2.021-6.143h3.193L361,49.4a5.332,5.332,0,0,1-1.812,2.559,4.572,4.572,0,0,1-2.749.85,6.913,6.913,0,0,1-1.514-.166V50.275a5.091,5.091,0,0,0,1.172.127,2.116,2.116,0,0,0,1.382-.483,3.134,3.134,0,0,0,.923-1.46l.176-.537Z" transform="translate(-62.085 -5.805)" fill="#00223d"/>
</svg>
