<svg xmlns="http://www.w3.org/2000/svg" width="402.55" height="53.28" viewBox="0 0 402.55 53.28">
  <g id="Grupo_14498" data-name="Grupo 14498" transform="translate(-499.1 -3073.76)">
    <path id="Trazado_24231" data-name="Trazado 24231" d="M-35,1.8h10V0H-35Zm10,0h10V0H-25Zm10,0H-5V0H-15Zm10,0H5V0H-5Zm10,0H15V0H5Zm10,0H25V0H15Zm10,0H35V0H25ZM6.71,18.42H4.43V15.8H1.37v2.62H-2.39L3.73,10H.33l-6.6,8.88v2.18H1.27V24H4.43V21.06H6.71Z" transform="translate(771 3099)" fill="#00223d"/>
    <path id="Trazado_24232" data-name="Trazado 24232" d="M0-7.02A1.909,1.909,0,0,0,1.94-8.98,1.864,1.864,0,0,0,0-10.9,1.864,1.864,0,0,0-1.94-8.98,1.909,1.909,0,0,0,0-7.02Zm.02,3.3A1.853,1.853,0,0,0-1.92-1.8,1.735,1.735,0,0,0-.84-.1l-.88,3.18H.26L1.4.2a4.65,4.65,0,0,0,.54-2A1.837,1.837,0,0,0,.02-3.72Z" transform="translate(662 3105)" fill="#00223d"/>
    <path id="Trazado_24233" data-name="Trazado 24233" d="M0-7.02A1.909,1.909,0,0,0,1.94-8.98,1.864,1.864,0,0,0,0-10.9,1.864,1.864,0,0,0-1.94-8.98,1.909,1.909,0,0,0,0-7.02Zm.02,3.3A1.853,1.853,0,0,0-1.92-1.8,1.735,1.735,0,0,0-.84-.1l-.88,3.18H.26L1.4.2a4.65,4.65,0,0,0,.54-2A1.837,1.837,0,0,0,.02-3.72Z" transform="translate(837 3105)" fill="#00223d"/>
    <path id="Trazado_24234" data-name="Trazado 24234" d="M-1.74,0-6.96-7.24-2.08-14h-3.5L-8.74-9.46-11.96-14h-3.68l4.92,6.88L-15.9,0h3.72l3.32-4.86L-5.48,0ZM5.22-8.26h9.52V-10.7H5.22Zm0,4.96h9.52V-5.74H5.22Z" transform="translate(515 3105)" fill="#00223d"/>
    <path id="Trazado_24235" data-name="Trazado 24235" d="M-1.74,0-6.96-7.24-2.08-14h-3.5L-8.74-9.46-11.96-14h-3.68l4.92,6.88L-15.9,0h3.72l3.32-4.86L-5.48,0ZM5.22-8.26h9.52V-10.7H5.22Zm0,4.96h9.52V-5.74H5.22Z" transform="translate(690 3105)" fill="#00223d"/>
    <path id="Trazado_24236" data-name="Trazado 24236" d="M-21.23,0l-5.22-7.24L-21.57-14h-3.5l-3.16,4.54L-31.45-14h-3.68l4.92,6.88L-35.39,0h3.72l3.32-4.86L-24.97,0Zm6.96-8.26h9.52V-10.7h-9.52Zm0,4.96h9.52V-5.74h-9.52ZM2.27-14v2.6h2.8V0H8.31V-14ZM15.55-8.74H14.41l.22-2.66h5.84V-14H11.93l-.72,7.88h3.58c2.54,0,3.26.72,3.26,1.82,0,1.14-1,1.82-2.62,1.82a6.738,6.738,0,0,1-3.98-1.26L10.17-1.26A9.674,9.674,0,0,0,15.51.24c4,0,5.82-2.16,5.82-4.64S19.69-8.74,15.55-8.74ZM28.65.24c3.46,0,6-2.62,6-7.24s-2.54-7.24-6-7.24c-3.44,0-6,2.62-6,7.24S25.21.24,28.65.24Zm0-2.74c-1.6,0-2.72-1.32-2.72-4.5s1.12-4.5,2.72-4.5c1.62,0,2.74,1.32,2.74,4.5S30.27-2.5,28.65-2.5Z" transform="translate(867 3105)" fill="#00223d"/>
    <path id="Trazado_24237" data-name="Trazado 24237" d="M-12.43-8.78a4.725,4.725,0,0,0-3.46,1.24c.1-2.68,1.6-4.06,3.94-4.06a4.611,4.611,0,0,1,2.62.7l1.2-2.38a7.559,7.559,0,0,0-3.9-.96c-4.22,0-7.14,2.7-7.14,7.54,0,4.52,2.4,6.94,6.26,6.94,2.96,0,5.3-1.8,5.3-4.66C-7.61-7.06-9.73-8.78-12.43-8.78Zm-.66,6.6c-1.56,0-2.46-.88-2.46-2.08a2.19,2.19,0,0,1,2.42-2.1,2.111,2.111,0,0,1,2.38,2.1A2.093,2.093,0,0,1-13.09-2.18ZM-.43.24c3.46,0,6-2.62,6-7.24s-2.54-7.24-6-7.24c-3.44,0-6,2.62-6,7.24S-3.87.24-.43.24Zm0-2.74c-1.6,0-2.72-1.32-2.72-4.5s1.12-4.5,2.72-4.5c1.62,0,2.74,1.32,2.74,4.5S1.19-2.5-.43-2.5ZM13.15.24c3.46,0,6-2.62,6-7.24s-2.54-7.24-6-7.24c-3.44,0-6,2.62-6,7.24S9.71.24,13.15.24Zm0-2.74c-1.6,0-2.72-1.32-2.72-4.5s1.12-4.5,2.72-4.5c1.62,0,2.74,1.32,2.74,4.5S14.77-2.5,13.15-2.5Z" transform="translate(596 3088)" fill="#00223d"/>
    <path id="Trazado_24238" data-name="Trazado 24238" d="M-12.43-8.78a4.725,4.725,0,0,0-3.46,1.24c.1-2.68,1.6-4.06,3.94-4.06a4.611,4.611,0,0,1,2.62.7l1.2-2.38a7.559,7.559,0,0,0-3.9-.96c-4.22,0-7.14,2.7-7.14,7.54,0,4.52,2.4,6.94,6.26,6.94,2.96,0,5.3-1.8,5.3-4.66C-7.61-7.06-9.73-8.78-12.43-8.78Zm-.66,6.6c-1.56,0-2.46-.88-2.46-2.08a2.19,2.19,0,0,1,2.42-2.1,2.111,2.111,0,0,1,2.38,2.1A2.093,2.093,0,0,1-13.09-2.18ZM-.43.24c3.46,0,6-2.62,6-7.24s-2.54-7.24-6-7.24c-3.44,0-6,2.62-6,7.24S-3.87.24-.43.24Zm0-2.74c-1.6,0-2.72-1.32-2.72-4.5s1.12-4.5,2.72-4.5c1.62,0,2.74,1.32,2.74,4.5S1.19-2.5-.43-2.5ZM13.15.24c3.46,0,6-2.62,6-7.24s-2.54-7.24-6-7.24c-3.44,0-6,2.62-6,7.24S9.71.24,13.15.24Zm0-2.74c-1.6,0-2.72-1.32-2.72-4.5s1.12-4.5,2.72-4.5c1.62,0,2.74,1.32,2.74,4.5S14.77-2.5,13.15-2.5Z" transform="translate(771 3088)" fill="#00223d"/>
    <path id="Trazado_24239" data-name="Trazado 24239" d="M-35,1.8h10V0H-35Zm10,0h10V0H-25Zm10,0H-5V0H-15Zm10,0H5V0H-5Zm10,0H15V0H5Zm10,0H25V0H15Zm10,0H35V0H25ZM3.14,13.24.1,20.54l-3.02-7.3H-6.14l4.66,10.84-.04.1c-.42.96-.9,1.34-1.76,1.34a2.766,2.766,0,0,1-1.76-.68l-1.14,2.22a4.778,4.778,0,0,0,3,.98c1.94,0,3.42-.78,4.46-3.38L6.14,13.24Z" transform="translate(596 3099)" fill="#00223d"/>
    <path id="Trazado_24240" data-name="Trazado 24240" d="M6,0H0" transform="translate(578.5 3074.5)" fill="none" stroke="#707070" stroke-width="0.1"/>
    <path id="Trazado_24241" data-name="Trazado 24241" d="M6,0H0" transform="translate(753.5 3074.5)" fill="none" stroke="#707070" stroke-width="0.1"/>
  </g>
</svg>
