<svg xmlns="http://www.w3.org/2000/svg" width="205.528" height="51.382" viewBox="0 0 205.528 51.382">
  <g id="Grupo_14537" data-name="Grupo 14537" transform="translate(-575.831 -632.48)">
    <rect id="Rectángulo_3699" data-name="Rectángulo 3699" width="205.528" height="51.382" transform="translate(575.831 632.48)" fill="#d5f4fc"/>
    <g id="Grupo_14483" data-name="Grupo 14483" transform="translate(604.513 637.825)">
      <g id="Grupo_14481" data-name="Grupo 14481" transform="translate(0 11.963)">
        <path id="Trazado_24238" data-name="Trazado 24238" d="M274.964,299.276a4.352,4.352,0,0,1-1.436,3.515,6.154,6.154,0,0,1-4.086,1.216h-1.294v5.063H265.13V294.835h4.546a6.052,6.052,0,0,1,3.939,1.117A4.061,4.061,0,0,1,274.964,299.276Zm-6.816,2.259h.993a3.3,3.3,0,0,0,2.083-.551,1.926,1.926,0,0,0,.692-1.6,1.976,1.976,0,0,0-.58-1.568,2.717,2.717,0,0,0-1.816-.506h-1.372Z" transform="translate(-265.13 -294.835)"/>
        <path id="Trazado_24239" data-name="Trazado 24239" d="M274.347,303.608a15.059,15.059,0,0,1,.754-4.829,11.987,11.987,0,0,1,2.175-3.944h2.436a13.992,13.992,0,0,0-2.075,4.129,15.442,15.442,0,0,0-.7,4.624,14.981,14.981,0,0,0,.716,4.611,14.047,14.047,0,0,0,2.039,4.024h-2.414a11.493,11.493,0,0,1-2.181-3.865A14.687,14.687,0,0,1,274.347,303.608Z" transform="translate(-257.64 -294.835)"/>
        <path id="Trazado_24240" data-name="Trazado 24240" d="M288.541,307.66H285.57V301.3a3.053,3.053,0,0,0-.417-1.767,1.521,1.521,0,0,0-1.334-.589,2,2,0,0,0-1.8.832,5.149,5.149,0,0,0-.555,2.761v5.121h-2.971V296.775h2.269l.4,1.392h.165a3.143,3.143,0,0,1,1.369-1.193,4.664,4.664,0,0,1,1.979-.4,3.8,3.8,0,0,1,2.882,1.028,4.12,4.12,0,0,1,.984,2.964Z" transform="translate(-254.271 -293.425)"/>
        <path id="Trazado_24241" data-name="Trazado 24241" d="M289.057,301.633a29.975,29.975,0,0,1-1.713,4.664H285.2q.636-2.591.984-4.887h2.726Z" transform="translate(-248.819 -289.492)"/>
        <path id="Trazado_24242" data-name="Trazado 24242" d="M297.845,296.57a4.686,4.686,0,0,1,1,.089l-.223,2.784a3.4,3.4,0,0,0-.877-.1,3.144,3.144,0,0,0-2.213.73,2.636,2.636,0,0,0-.794,2.045v5.539h-2.969V296.775h2.248l.439,1.831h.145a4.1,4.1,0,0,1,1.368-1.475A3.374,3.374,0,0,1,297.845,296.57Z" transform="translate(-243.48 -293.425)"/>
        <path id="Trazado_24243" data-name="Trazado 24243" d="M301.6,303.608a14.65,14.65,0,0,1-.754,4.771,11.343,11.343,0,0,1-2.177,3.845h-2.414a13.906,13.906,0,0,0,2.036-4.017,14.883,14.883,0,0,0,.721-4.619,15.443,15.443,0,0,0-.7-4.624,14.074,14.074,0,0,0-2.074-4.129h2.433a11.877,11.877,0,0,1,2.181,3.959A15.09,15.09,0,0,1,301.6,303.608Z" transform="translate(-239.854 -294.835)"/>
        <path id="Trazado_24244" data-name="Trazado 24244" d="M302.964,299.32v-2.132h9.669v2.132Zm0,3.768v-2.132h9.669v2.132Z" transform="translate(-234.384 -292.923)"/>
      </g>
      <g id="Grupo_14482" data-name="Grupo 14482" transform="translate(95.987)">
        <path id="Trazado_24245" data-name="Trazado 24245" d="M336.545,301.06h-2.971V294.7a3.06,3.06,0,0,0-.417-1.769,1.527,1.527,0,0,0-1.334-.587,2.007,2.007,0,0,0-1.8.832,5.169,5.169,0,0,0-.553,2.761v5.121H326.5V290.175h2.269l.4,1.392h.165a3.149,3.149,0,0,1,1.367-1.193,4.651,4.651,0,0,1,1.981-.4A3.8,3.8,0,0,1,335.561,291a4.12,4.12,0,0,1,.984,2.964Z" transform="translate(-311.246 -286.825)"/>
        <path id="Trazado_24246" data-name="Trazado 24246" d="M333.5,301.078a1.631,1.631,0,0,1,.437-1.236,1.778,1.778,0,0,1,1.276-.419,1.722,1.722,0,0,1,1.251.428,1.895,1.895,0,0,1,0,2.438,1.7,1.7,0,0,1-1.247.444,1.755,1.755,0,0,1-1.267-.433A1.627,1.627,0,0,1,333.5,301.078Zm2.911-3.33h-2.376l-.495-9.513H336.9Z" transform="translate(-305.559 -288.235)"/>
        <path id="Trazado_24247" data-name="Trazado 24247" d="M318.084,310.207a15.111,15.111,0,0,1,.754-4.829,12.011,12.011,0,0,1,2.175-3.942h2.436a13.959,13.959,0,0,0-2.076,4.127,15.5,15.5,0,0,0-.7,4.624,15.036,15.036,0,0,0,.714,4.611,14.048,14.048,0,0,0,2.039,4.024h-2.414a11.523,11.523,0,0,1-2.181-3.865A14.734,14.734,0,0,1,318.084,310.207Z" transform="translate(-318.084 -277.507)"/>
        <path id="Trazado_24248" data-name="Trazado 24248" d="M332.278,314.26h-2.969V307.9a3.039,3.039,0,0,0-.419-1.767,1.521,1.521,0,0,0-1.334-.589,2,2,0,0,0-1.8.832,5.167,5.167,0,0,0-.555,2.761v5.121H322.23V303.375H324.5l.4,1.392h.165a3.148,3.148,0,0,1,1.369-1.191,4.639,4.639,0,0,1,1.981-.406,3.8,3.8,0,0,1,2.88,1.028,4.113,4.113,0,0,1,.984,2.965Z" transform="translate(-314.715 -276.098)"/>
        <path id="Trazado_24249" data-name="Trazado 24249" d="M328.929,308.1v-2.434h5.228V308.1Z" transform="translate(-309.271 -274.068)"/>
        <path id="Trazado_24250" data-name="Trazado 24250" d="M339.076,303.17a4.789,4.789,0,0,1,1,.089l-.223,2.784a3.392,3.392,0,0,0-.876-.1,3.145,3.145,0,0,0-2.215.73,2.64,2.64,0,0,0-.792,2.045v5.539H333V303.375h2.248l.439,1.831h.147a4.112,4.112,0,0,1,1.367-1.476A3.381,3.381,0,0,1,339.076,303.17Z" transform="translate(-305.963 -276.098)"/>
        <path id="Trazado_24251" data-name="Trazado 24251" d="M342.827,310.207a14.7,14.7,0,0,1-.754,4.771,11.374,11.374,0,0,1-2.177,3.845h-2.414a14.011,14.011,0,0,0,2.036-4.015,14.956,14.956,0,0,0,.72-4.62,15.441,15.441,0,0,0-.7-4.624,13.992,13.992,0,0,0-2.072-4.127H339.9a11.917,11.917,0,0,1,2.181,3.957A15.142,15.142,0,0,1,342.827,310.207Z" transform="translate(-302.336 -277.507)"/>
        <path id="Trazado_24252" data-name="Trazado 24252" d="M341.492,314.277a1.631,1.631,0,0,1,.437-1.236,1.782,1.782,0,0,1,1.278-.419,1.728,1.728,0,0,1,1.249.428,1.895,1.895,0,0,1,0,2.438,1.691,1.691,0,0,1-1.245.444,1.749,1.749,0,0,1-1.269-.433A1.624,1.624,0,0,1,341.492,314.277Zm2.911-3.33h-2.376l-.495-9.511H344.9Z" transform="translate(-299.062 -277.507)"/>
      </g>
      <line id="Línea_580" data-name="Línea 580" x2="61.744" transform="translate(88.212 20.346)" stroke="#000" stroke-miterlimit="10" stroke-width="0.5"/>
    </g>
  </g>
</svg>
