<svg id="Grupo_14521" data-name="Grupo 14521" xmlns="http://www.w3.org/2000/svg" width="921.574" height="43.313" viewBox="0 0 921.574 43.313">
  <g id="Grupo_14506" data-name="Grupo 14506" transform="translate(0 12.045)">
    <g id="Grupo_14505" data-name="Grupo 14505">
      <path id="Trazado_24493" data-name="Trazado 24493" d="M75.32,563.044a4.741,4.741,0,0,1-1.568,3.834,6.691,6.691,0,0,1-4.455,1.329H67.885v5.523H64.593V558.2h4.959a6.6,6.6,0,0,1,4.3,1.216A4.433,4.433,0,0,1,75.32,563.044Zm-7.435,2.463h1.084a3.609,3.609,0,0,0,2.273-.6A2.1,2.1,0,0,0,72,563.162a2.152,2.152,0,0,0-.633-1.711,2.961,2.961,0,0,0-1.981-.553h-1.5Z" transform="translate(-64.593 -558.201)"/>
      <path id="Trazado_24494" data-name="Trazado 24494" d="M74.647,567.77a16.449,16.449,0,0,1,.825-5.268,13.092,13.092,0,0,1,2.373-4.3H80.5a15.268,15.268,0,0,0-2.262,4.5,16.867,16.867,0,0,0-.765,5.045,16.318,16.318,0,0,0,.781,5.028,15.232,15.232,0,0,0,2.224,4.392H77.845a12.49,12.49,0,0,1-2.378-4.216A16.028,16.028,0,0,1,74.647,567.77Z" transform="translate(-56.423 -558.201)"/>
      <path id="Trazado_24495" data-name="Trazado 24495" d="M90.132,572.192H86.893v-6.937a3.328,3.328,0,0,0-.457-1.927,1.665,1.665,0,0,0-1.456-.643,2.188,2.188,0,0,0-1.965.908,5.63,5.63,0,0,0-.605,3.013v5.587H79.171V560.317h2.474l.435,1.519h.181a3.42,3.42,0,0,1,1.492-1.3,5.087,5.087,0,0,1,2.162-.441,4.155,4.155,0,0,1,3.143,1.12,4.493,4.493,0,0,1,1.073,3.234Z" transform="translate(-52.746 -556.663)"/>
      <path id="Trazado_24496" data-name="Trazado 24496" d="M90.7,565.618a32.987,32.987,0,0,1-1.871,5.086H86.489q.691-2.825,1.073-5.331h2.975Z" transform="translate(-46.799 -552.373)"/>
      <path id="Trazado_24497" data-name="Trazado 24497" d="M100.284,560.094a5.237,5.237,0,0,1,1.093.094l-.245,3.038a3.7,3.7,0,0,0-.955-.105,3.434,3.434,0,0,0-2.416.8,2.883,2.883,0,0,0-.866,2.231v6.043H93.655V560.317h2.454l.477,2h.16a4.45,4.45,0,0,1,1.494-1.608A3.667,3.667,0,0,1,100.284,560.094Z" transform="translate(-40.976 -556.663)"/>
      <path id="Trazado_24498" data-name="Trazado 24498" d="M104.377,567.77a16,16,0,0,1-.823,5.206,12.442,12.442,0,0,1-2.375,4.194H98.546a15.342,15.342,0,0,0,2.22-4.381,16.257,16.257,0,0,0,.785-5.039,16.81,16.81,0,0,0-.765-5.045,15.269,15.269,0,0,0-2.262-4.5h2.656a13.06,13.06,0,0,1,2.38,4.318A16.52,16.52,0,0,1,104.377,567.77Z" transform="translate(-37.019 -558.201)"/>
      <path id="Trazado_24499" data-name="Trazado 24499" d="M105.866,563.094v-2.326h10.548v2.326Zm0,4.109v-2.326h10.548V567.2Z" transform="translate(-31.053 -556.115)"/>
    </g>
  </g>
  <g id="Grupo_14508" data-name="Grupo 14508" transform="translate(97.504 23.867)">
    <g id="Grupo_14507" data-name="Grupo 14507">
      <path id="Trazado_24500" data-name="Trazado 24500" d="M118.384,574.292a16.44,16.44,0,0,1,.823-5.268,13.087,13.087,0,0,1,2.373-4.3h2.656a15.366,15.366,0,0,0-2.262,4.5,16.867,16.867,0,0,0-.765,5.045,16.34,16.34,0,0,0,.781,5.03,15.214,15.214,0,0,0,2.226,4.392H121.58a12.548,12.548,0,0,1-2.378-4.218A16.016,16.016,0,0,1,118.384,574.292Z" transform="translate(-118.384 -564.723)"/>
      <path id="Trazado_24501" data-name="Trazado 24501" d="M122.45,574.292a16.491,16.491,0,0,1,.823-5.268,13.091,13.091,0,0,1,2.375-4.3H128.3a15.278,15.278,0,0,0-2.262,4.5,16.81,16.81,0,0,0-.765,5.045,16.338,16.338,0,0,0,.779,5.03,15.306,15.306,0,0,0,2.226,4.392h-2.634a12.552,12.552,0,0,1-2.38-4.218A16.065,16.065,0,0,1,122.45,574.292Z" transform="translate(-115.08 -564.723)"/>
      <path id="Trazado_24502" data-name="Trazado 24502" d="M137.935,578.713h-3.241v-6.935a3.336,3.336,0,0,0-.457-1.929,1.661,1.661,0,0,0-1.454-.642,2.186,2.186,0,0,0-1.965.908,5.627,5.627,0,0,0-.605,3.011v5.587h-3.239V566.838h2.474l.435,1.519h.181a3.432,3.432,0,0,1,1.492-1.3,5.084,5.084,0,0,1,2.161-.44,4.156,4.156,0,0,1,3.145,1.12,4.505,4.505,0,0,1,1.073,3.236Z" transform="translate(-111.403 -563.185)"/>
      <path id="Trazado_24503" data-name="Trazado 24503" d="M137.4,572V569.34h5.7V572Z" transform="translate(-102.933 -560.971)"/>
      <path id="Trazado_24504" data-name="Trazado 24504" d="M148.466,566.615a5.245,5.245,0,0,1,1.095.1l-.245,3.038a3.714,3.714,0,0,0-.955-.107,3.432,3.432,0,0,0-2.416.8,2.875,2.875,0,0,0-.866,2.23v6.043h-3.239V566.838h2.452l.479,2h.16a4.465,4.465,0,0,1,1.492-1.61A3.691,3.691,0,0,1,148.466,566.615Z" transform="translate(-99.323 -563.185)"/>
      <path id="Trazado_24505" data-name="Trazado 24505" d="M155.678,574.292a16.045,16.045,0,0,1-.823,5.2,12.479,12.479,0,0,1-2.375,4.2h-2.634a15.412,15.412,0,0,0,2.22-4.381,16.269,16.269,0,0,0,.785-5.041,16.867,16.867,0,0,0-.765-5.045,15.277,15.277,0,0,0-2.262-4.5h2.656a13.032,13.032,0,0,1,2.38,4.316A16.591,16.591,0,0,1,155.678,574.292Z" transform="translate(-92.834 -564.723)"/>
      <path id="Trazado_24506" data-name="Trazado 24506" d="M157.938,568.544a1.781,1.781,0,0,1-.479,1.35,1.948,1.948,0,0,1-1.392.455,1.883,1.883,0,0,1-1.365-.466,1.782,1.782,0,0,1-.482-1.339,1.761,1.761,0,0,1,.493-1.332,1.878,1.878,0,0,1,1.354-.473,1.919,1.919,0,0,1,1.381.468A1.763,1.763,0,0,1,157.938,568.544Zm-3.176,3.632h2.59l.542,10.356H154.22Z" transform="translate(-89.262 -563.086)"/>
      <path id="Trazado_24507" data-name="Trazado 24507" d="M163.178,574.292a16.045,16.045,0,0,1-.823,5.2,12.481,12.481,0,0,1-2.375,4.2h-2.634a15.413,15.413,0,0,0,2.22-4.381,16.269,16.269,0,0,0,.785-5.041,16.867,16.867,0,0,0-.765-5.045,15.278,15.278,0,0,0-2.262-4.5h2.656a13.033,13.033,0,0,1,2.38,4.316A16.59,16.59,0,0,1,163.178,574.292Z" transform="translate(-86.739 -564.723)"/>
    </g>
  </g>
  <path id="Trazado_24662" data-name="Trazado 24662" d="M0,0H92.613" transform="translate(89.416 21.189)" fill="none" stroke="#272525" stroke-width="2"/>
  <g id="Grupo_14509" data-name="Grupo 14509" transform="translate(190.445 11.822)">
    <path id="Trazado_24508" data-name="Trazado 24508" d="M173.706,569.663l.16.245a32.994,32.994,0,0,1-1.871,5.086h-2.336q.691-2.825,1.073-5.331Zm-3.473-7.763a1.778,1.778,0,0,1,.477-1.349,1.94,1.94,0,0,1,1.392-.457,1.884,1.884,0,0,1,1.365.468,2.072,2.072,0,0,1-.011,2.67,1.879,1.879,0,0,1-1.354.473,1.919,1.919,0,0,1-1.381-.468A1.762,1.762,0,0,1,170.233,561.9Z" transform="translate(-169.658 -556.44)"/>
    <path id="Trazado_24509" data-name="Trazado 24509" d="M190.809,563.044a4.745,4.745,0,0,1-1.566,3.834,6.7,6.7,0,0,1-4.456,1.329h-1.414v5.523h-3.292V558.2h4.959a6.6,6.6,0,0,1,4.3,1.216A4.433,4.433,0,0,1,190.809,563.044Zm-7.435,2.463h1.084a3.6,3.6,0,0,0,2.273-.6,2.1,2.1,0,0,0,.754-1.746,2.152,2.152,0,0,0-.633-1.711,2.956,2.956,0,0,0-1.979-.553h-1.5Z" transform="translate(-161.187 -557.978)"/>
    <path id="Trazado_24510" data-name="Trazado 24510" d="M190.137,567.77a16.449,16.449,0,0,1,.823-5.268,13.125,13.125,0,0,1,2.373-4.3h2.656a15.267,15.267,0,0,0-2.262,4.5,16.866,16.866,0,0,0-.765,5.045,16.319,16.319,0,0,0,.781,5.028,15.192,15.192,0,0,0,2.226,4.392h-2.636a12.521,12.521,0,0,1-2.378-4.216A16.028,16.028,0,0,1,190.137,567.77Z" transform="translate(-153.016 -557.978)"/>
    <path id="Trazado_24511" data-name="Trazado 24511" d="M204.47,561.774a3.654,3.654,0,0,1-.881,2.474,4.57,4.57,0,0,1-2.474,1.4v.064a4.942,4.942,0,0,1,2.846,1.142,3.193,3.193,0,0,1,.966,2.447,4.144,4.144,0,0,1-1.624,3.489,7.491,7.491,0,0,1-4.642,1.249,11.283,11.283,0,0,1-4.481-.839v-2.793a10.079,10.079,0,0,0,1.985.743,8.4,8.4,0,0,0,2.146.286,4.171,4.171,0,0,0,2.4-.551,2.032,2.032,0,0,0,.776-1.775,1.6,1.6,0,0,0-.892-1.55,6.606,6.606,0,0,0-2.848-.457h-1.178v-2.518h1.2a5.574,5.574,0,0,0,2.639-.473,1.7,1.7,0,0,0,.834-1.619q0-1.764-2.21-1.764a5.041,5.041,0,0,0-1.555.256,7.52,7.52,0,0,0-1.758.881l-1.519-2.262a8.436,8.436,0,0,1,5.066-1.53,6.55,6.55,0,0,1,3.808.977A3.135,3.135,0,0,1,204.47,561.774Z" transform="translate(-149.73 -558.078)"/>
    <path id="Trazado_24512" data-name="Trazado 24512" d="M208.264,565.618A32.956,32.956,0,0,1,206.4,570.7h-2.336q.688-2.825,1.071-5.331H208.1Z" transform="translate(-141.702 -552.15)"/>
    <path id="Trazado_24513" data-name="Trazado 24513" d="M217.919,561.774a3.647,3.647,0,0,1-.883,2.474,4.57,4.57,0,0,1-2.474,1.4v.064a4.937,4.937,0,0,1,2.846,1.142,3.2,3.2,0,0,1,.968,2.447,4.146,4.146,0,0,1-1.626,3.489,7.489,7.489,0,0,1-4.64,1.249,11.291,11.291,0,0,1-4.483-.839v-2.793a10.052,10.052,0,0,0,1.987.743,8.391,8.391,0,0,0,2.144.286,4.171,4.171,0,0,0,2.4-.551,2.027,2.027,0,0,0,.776-1.775,1.6,1.6,0,0,0-.892-1.55,6.6,6.6,0,0,0-2.846-.457h-1.18v-2.518h1.2a5.574,5.574,0,0,0,2.639-.473,1.7,1.7,0,0,0,.834-1.619q0-1.764-2.208-1.764a5.043,5.043,0,0,0-1.557.256,7.478,7.478,0,0,0-1.756.881l-1.519-2.262a8.432,8.432,0,0,1,5.066-1.53,6.544,6.544,0,0,1,3.807.977A3.136,3.136,0,0,1,217.919,561.774Z" transform="translate(-138.803 -558.078)"/>
    <path id="Trazado_24514" data-name="Trazado 24514" d="M220.228,567.77a16,16,0,0,1-.823,5.206,12.439,12.439,0,0,1-2.373,4.194H214.4a15.338,15.338,0,0,0,2.219-4.381,16.259,16.259,0,0,0,.787-5.039,16.867,16.867,0,0,0-.765-5.045,15.267,15.267,0,0,0-2.262-4.5h2.656a13.025,13.025,0,0,1,2.378,4.318A16.52,16.52,0,0,1,220.228,567.77Z" transform="translate(-133.317 -557.978)"/>
    <path id="Trazado_24515" data-name="Trazado 24515" d="M221.719,563.094v-2.326h10.546v2.326Zm0,4.109v-2.326h10.546V567.2Z" transform="translate(-127.351 -555.892)"/>
  </g>
  <g id="Grupo_14511" data-name="Grupo 14511" transform="translate(118.623 0.223)">
    <g id="Grupo_14510" data-name="Grupo 14510">
      <path id="Trazado_24516" data-name="Trazado 24516" d="M141,565.669h-3.239v-6.935a3.336,3.336,0,0,0-.457-1.929,1.664,1.664,0,0,0-1.456-.642,2.189,2.189,0,0,0-1.965.908,5.644,5.644,0,0,0-.605,3.011v5.587h-3.239V553.794h2.474l.437,1.519h.179a3.441,3.441,0,0,1,1.492-1.3,5.094,5.094,0,0,1,2.162-.44,4.149,4.149,0,0,1,3.143,1.12A4.5,4.5,0,0,1,141,557.927Z" transform="translate(-130.035 -550.142)"/>
      <path id="Trazado_24517" data-name="Trazado 24517" d="M137.67,565.687a1.779,1.779,0,0,1,.479-1.349,1.933,1.933,0,0,1,1.39-.457,1.883,1.883,0,0,1,1.365.468,2.062,2.062,0,0,1-.005,2.661,1.856,1.856,0,0,1-1.359.482,1.913,1.913,0,0,1-1.381-.471A1.774,1.774,0,0,1,137.67,565.687Zm3.176-3.633h-2.592l-.542-10.376h3.676Z" transform="translate(-123.83 -551.679)"/>
    </g>
  </g>
  <g id="Grupo_14512" data-name="Grupo 14512" transform="translate(304.666 23.644)">
    <path id="Trazado_24518" data-name="Trazado 24518" d="M232.671,574.292a16.441,16.441,0,0,1,.823-5.268,13.058,13.058,0,0,1,2.375-4.3h2.654a15.365,15.365,0,0,0-2.262,4.5,16.868,16.868,0,0,0-.765,5.045,16.34,16.34,0,0,0,.781,5.03,15.216,15.216,0,0,0,2.226,4.392h-2.634a12.522,12.522,0,0,1-2.38-4.218A16.016,16.016,0,0,1,232.671,574.292Z" transform="translate(-232.671 -564.5)"/>
    <path id="Trazado_24519" data-name="Trazado 24519" d="M236.737,574.292a16.49,16.49,0,0,1,.823-5.268,13.09,13.09,0,0,1,2.375-4.3h2.655a15.279,15.279,0,0,0-2.262,4.5,16.867,16.867,0,0,0-.765,5.045,16.286,16.286,0,0,0,.781,5.03,15.256,15.256,0,0,0,2.224,4.392h-2.634a12.551,12.551,0,0,1-2.38-4.218A16.065,16.065,0,0,1,236.737,574.292Z" transform="translate(-229.367 -564.5)"/>
    <path id="Trazado_24520" data-name="Trazado 24520" d="M251.072,568.3a3.655,3.655,0,0,1-.881,2.474,4.57,4.57,0,0,1-2.476,1.4v.065a4.936,4.936,0,0,1,2.848,1.14,3.2,3.2,0,0,1,.966,2.449,4.148,4.148,0,0,1-1.626,3.489,7.486,7.486,0,0,1-4.64,1.247,11.257,11.257,0,0,1-4.483-.839V576.93a10.21,10.21,0,0,0,1.987.745,8.39,8.39,0,0,0,2.146.286,4.174,4.174,0,0,0,2.4-.553,2.026,2.026,0,0,0,.776-1.773,1.6,1.6,0,0,0-.894-1.552,6.6,6.6,0,0,0-2.846-.457h-1.178v-2.518h1.2a5.605,5.605,0,0,0,2.639-.471,1.711,1.711,0,0,0,.834-1.621q0-1.762-2.21-1.764a5.041,5.041,0,0,0-1.555.256,7.637,7.637,0,0,0-1.758.881l-1.519-2.262a8.444,8.444,0,0,1,5.066-1.528,6.526,6.526,0,0,1,3.807.977A3.132,3.132,0,0,1,251.072,568.3Z" transform="translate(-226.081 -564.6)"/>
    <path id="Trazado_24521" data-name="Trazado 24521" d="M250.647,572V569.34h5.7V572Z" transform="translate(-218.063 -560.748)"/>
    <path id="Trazado_24522" data-name="Trazado 24522" d="M264.9,568.3a3.655,3.655,0,0,1-.881,2.474,4.558,4.558,0,0,1-2.474,1.4v.065a4.936,4.936,0,0,1,2.846,1.14,3.2,3.2,0,0,1,.966,2.449,4.152,4.152,0,0,1-1.624,3.489,7.5,7.5,0,0,1-4.642,1.247,11.258,11.258,0,0,1-4.483-.839V576.93a10.21,10.21,0,0,0,1.987.745,8.4,8.4,0,0,0,2.146.286,4.174,4.174,0,0,0,2.4-.553,2.026,2.026,0,0,0,.776-1.773,1.6,1.6,0,0,0-.894-1.552,6.6,6.6,0,0,0-2.846-.457H257v-2.518h1.2a5.605,5.605,0,0,0,2.639-.471,1.707,1.707,0,0,0,.834-1.621q0-1.762-2.21-1.764a5.04,5.04,0,0,0-1.555.256,7.637,7.637,0,0,0-1.758.881l-1.519-2.262A8.444,8.444,0,0,1,259.7,564.6a6.536,6.536,0,0,1,3.808.977A3.134,3.134,0,0,1,264.9,568.3Z" transform="translate(-214.844 -564.6)"/>
    <path id="Trazado_24523" data-name="Trazado 24523" d="M270.327,574.292a16,16,0,0,1-.823,5.2,12.451,12.451,0,0,1-2.375,4.2H264.5a15.319,15.319,0,0,0,2.22-4.381,16.27,16.27,0,0,0,.787-5.041,16.868,16.868,0,0,0-.765-5.045,15.368,15.368,0,0,0-2.262-4.5h2.654a13,13,0,0,1,2.38,4.316A16.539,16.539,0,0,1,270.327,574.292Z" transform="translate(-206.825 -564.5)"/>
    <path id="Trazado_24524" data-name="Trazado 24524" d="M272.588,568.544a1.781,1.781,0,0,1-.479,1.35,1.943,1.943,0,0,1-1.39.455,1.877,1.877,0,0,1-1.365-.466,1.776,1.776,0,0,1-.484-1.339,1.755,1.755,0,0,1,.495-1.332,1.872,1.872,0,0,1,1.354-.473,1.912,1.912,0,0,1,1.379.468A1.763,1.763,0,0,1,272.588,568.544Zm-3.176,3.632H272l.54,10.356H268.87Z" transform="translate(-203.254 -562.863)"/>
    <path id="Trazado_24525" data-name="Trazado 24525" d="M277.827,574.292a16,16,0,0,1-.823,5.2,12.451,12.451,0,0,1-2.375,4.2H272a15.319,15.319,0,0,0,2.221-4.381A16.272,16.272,0,0,0,275,574.27a16.867,16.867,0,0,0-.765-5.045,15.367,15.367,0,0,0-2.262-4.5h2.654a13,13,0,0,1,2.38,4.316A16.539,16.539,0,0,1,277.827,574.292Z" transform="translate(-200.73 -564.5)"/>
  </g>
  <line id="Línea_586" data-name="Línea 586" x2="92.613" transform="translate(299.096 21.189)" fill="none" stroke="#272525" stroke-miterlimit="10" stroke-width="2"/>
  <g id="Grupo_14513" data-name="Grupo 14513" transform="translate(337.103)">
    <path id="Trazado_24526" data-name="Trazado 24526" d="M260.858,555.252a3.655,3.655,0,0,1-.881,2.474,4.557,4.557,0,0,1-2.474,1.4v.065a4.937,4.937,0,0,1,2.846,1.14,3.2,3.2,0,0,1,.966,2.449,4.152,4.152,0,0,1-1.624,3.489,7.5,7.5,0,0,1-4.642,1.247,11.259,11.259,0,0,1-4.483-.839v-2.793a10.2,10.2,0,0,0,1.987.745,8.4,8.4,0,0,0,2.146.286,4.174,4.174,0,0,0,2.4-.553,2.026,2.026,0,0,0,.776-1.773,1.6,1.6,0,0,0-.894-1.552,6.594,6.594,0,0,0-2.846-.457h-1.178v-2.518h1.2a5.583,5.583,0,0,0,2.639-.471,1.707,1.707,0,0,0,.834-1.621q0-1.762-2.21-1.762a5.039,5.039,0,0,0-1.555.254,7.637,7.637,0,0,0-1.758.881l-1.519-2.262a8.444,8.444,0,0,1,5.066-1.528,6.537,6.537,0,0,1,3.808.977A3.134,3.134,0,0,1,260.858,555.252Z" transform="translate(-250.566 -551.556)"/>
    <path id="Trazado_24527" data-name="Trazado 24527" d="M257.645,565.687a1.778,1.778,0,0,1,.477-1.349,1.94,1.94,0,0,1,1.392-.457,1.883,1.883,0,0,1,1.365.468,2.068,2.068,0,0,1-.005,2.661,1.856,1.856,0,0,1-1.36.482,1.913,1.913,0,0,1-1.381-.471A1.767,1.767,0,0,1,257.645,565.687Zm3.174-3.633h-2.59l-.542-10.376h3.674Z" transform="translate(-244.813 -551.456)"/>
  </g>
  <g id="Grupo_14514" data-name="Grupo 14514" transform="translate(523.223 23.622)">
    <path id="Trazado_24528" data-name="Trazado 24528" d="M353.245,574.292a16.44,16.44,0,0,1,.823-5.268,13.057,13.057,0,0,1,2.375-4.3H359.1a15.276,15.276,0,0,0-2.262,4.5,16.811,16.811,0,0,0-.765,5.045,16.336,16.336,0,0,0,.779,5.03,15.259,15.259,0,0,0,2.226,4.392h-2.634a12.552,12.552,0,0,1-2.38-4.218A16.064,16.064,0,0,1,353.245,574.292Z" transform="translate(-353.245 -564.478)"/>
    <path id="Trazado_24529" data-name="Trazado 24529" d="M357.312,574.292a16.442,16.442,0,0,1,.823-5.268,13.053,13.053,0,0,1,2.373-4.3h2.655a15.279,15.279,0,0,0-2.262,4.5,16.865,16.865,0,0,0-.765,5.045,16.34,16.34,0,0,0,.781,5.03,15.254,15.254,0,0,0,2.224,4.392h-2.634a12.518,12.518,0,0,1-2.378-4.218A16.017,16.017,0,0,1,357.312,574.292Z" transform="translate(-349.94 -564.478)"/>
    <path id="Trazado_24530" data-name="Trazado 24530" d="M372.185,572.6q0,4.068-1.332,6.022a4.624,4.624,0,0,1-4.106,1.954,4.572,4.572,0,0,1-4.051-2.017,10.669,10.669,0,0,1-1.365-5.958q0-4.111,1.327-6.06a5.165,5.165,0,0,1,8.153.091A10.707,10.707,0,0,1,372.185,572.6Zm-7.593,0a12.116,12.116,0,0,0,.493,4.095,1.729,1.729,0,0,0,3.319-.016,16.548,16.548,0,0,0-.005-8.184,1.72,1.72,0,0,0-3.308,0A12.092,12.092,0,0,0,364.592,572.6Z" transform="translate(-346.674 -564.588)"/>
    <path id="Trazado_24531" data-name="Trazado 24531" d="M377.073,574.292a16,16,0,0,1-.823,5.2,12.477,12.477,0,0,1-2.373,4.2h-2.636a15.32,15.32,0,0,0,2.22-4.381,16.27,16.27,0,0,0,.787-5.041,16.868,16.868,0,0,0-.765-5.045,15.367,15.367,0,0,0-2.262-4.5h2.656a13.03,13.03,0,0,1,2.378,4.316A16.54,16.54,0,0,1,377.073,574.292Z" transform="translate(-338.636 -564.478)"/>
    <path id="Trazado_24532" data-name="Trazado 24532" d="M379.334,568.544a1.781,1.781,0,0,1-.479,1.35,1.94,1.94,0,0,1-1.39.455,1.883,1.883,0,0,1-1.365-.466,1.776,1.776,0,0,1-.484-1.339,1.755,1.755,0,0,1,.495-1.332,1.872,1.872,0,0,1,1.354-.473,1.912,1.912,0,0,1,1.379.468A1.763,1.763,0,0,1,379.334,568.544Zm-3.176,3.632h2.592l.542,10.356h-3.676Z" transform="translate(-335.065 -562.841)"/>
    <path id="Trazado_24533" data-name="Trazado 24533" d="M384.573,574.292a16,16,0,0,1-.823,5.2,12.477,12.477,0,0,1-2.373,4.2h-2.636a15.321,15.321,0,0,0,2.22-4.381,16.27,16.27,0,0,0,.787-5.041,16.868,16.868,0,0,0-.765-5.045,15.364,15.364,0,0,0-2.262-4.5h2.656a13.029,13.029,0,0,1,2.378,4.316A16.54,16.54,0,0,1,384.573,574.292Z" transform="translate(-332.541 -564.478)"/>
  </g>
  <line id="Línea_587" data-name="Línea 587" x2="92.613" transform="translate(505.626 21.189)" fill="none" stroke="#272525" stroke-miterlimit="10" stroke-width="2"/>
  <g id="Grupo_14515" data-name="Grupo 14515" transform="translate(543.634)">
    <path id="Trazado_24534" data-name="Trazado 24534" d="M374.8,555.252a3.647,3.647,0,0,1-.883,2.474,4.557,4.557,0,0,1-2.474,1.4v.065a4.931,4.931,0,0,1,2.846,1.14,3.2,3.2,0,0,1,.968,2.449,4.148,4.148,0,0,1-1.626,3.489,7.49,7.49,0,0,1-4.64,1.247,11.258,11.258,0,0,1-4.483-.839v-2.793a10.158,10.158,0,0,0,1.987.745,8.386,8.386,0,0,0,2.144.286,4.17,4.17,0,0,0,2.4-.553,2.022,2.022,0,0,0,.776-1.773,1.6,1.6,0,0,0-.892-1.552,6.6,6.6,0,0,0-2.846-.457h-1.18v-2.518h1.2a5.578,5.578,0,0,0,2.639-.471,1.707,1.707,0,0,0,.834-1.621q0-1.762-2.208-1.762a5.042,5.042,0,0,0-1.557.254,7.674,7.674,0,0,0-1.758.881l-1.517-2.262a8.44,8.44,0,0,1,5.066-1.528,6.534,6.534,0,0,1,3.807.977A3.132,3.132,0,0,1,374.8,555.252Z" transform="translate(-364.505 -551.556)"/>
    <path id="Trazado_24535" data-name="Trazado 24535" d="M371.583,565.687a1.779,1.779,0,0,1,.478-1.349,1.933,1.933,0,0,1,1.39-.457,1.884,1.884,0,0,1,1.365.468,2.062,2.062,0,0,1-.005,2.661,1.85,1.85,0,0,1-1.359.482,1.906,1.906,0,0,1-1.379-.471A1.768,1.768,0,0,1,371.583,565.687Zm3.176-3.633h-2.592l-.542-10.376H375.3Z" transform="translate(-358.753 -551.456)"/>
  </g>
  <g id="Grupo_14516" data-name="Grupo 14516" transform="translate(749.822 23.867)">
    <path id="Trazado_24536" data-name="Trazado 24536" d="M485.955,580.25h-3.283v-8.985l.033-1.475.053-1.615q-.818.818-1.137,1.073l-1.784,1.434-1.582-1.976,5-3.982h2.7Z" transform="translate(-478.255 -564.723)"/>
  </g>
  <line id="Línea_588" data-name="Línea 588" x2="92.613" transform="translate(707.809 21.189)" fill="none" stroke="#272525" stroke-miterlimit="10" stroke-width="2"/>
  <g id="Grupo_14517" data-name="Grupo 14517" transform="translate(728.136)">
    <path id="Trazado_24537" data-name="Trazado 24537" d="M476.583,555.252a3.648,3.648,0,0,1-.883,2.474,4.558,4.558,0,0,1-2.474,1.4v.065a4.938,4.938,0,0,1,2.848,1.14,3.2,3.2,0,0,1,.966,2.449,4.148,4.148,0,0,1-1.626,3.489,7.486,7.486,0,0,1-4.64,1.247,11.259,11.259,0,0,1-4.483-.839v-2.793a10.157,10.157,0,0,0,1.987.745,8.386,8.386,0,0,0,2.144.286,4.18,4.18,0,0,0,2.4-.553,2.025,2.025,0,0,0,.774-1.773,1.6,1.6,0,0,0-.892-1.552,6.593,6.593,0,0,0-2.846-.457h-1.18v-2.518h1.2a5.586,5.586,0,0,0,2.641-.471,1.71,1.71,0,0,0,.834-1.621q0-1.762-2.21-1.762a5.05,5.05,0,0,0-1.557.254,7.63,7.63,0,0,0-1.756.881l-1.519-2.262a8.444,8.444,0,0,1,5.066-1.528,6.53,6.53,0,0,1,3.807.977A3.132,3.132,0,0,1,476.583,555.252Z" transform="translate(-466.291 -551.556)"/>
    <path id="Trazado_24538" data-name="Trazado 24538" d="M476.768,559.5l-3.823-5.81h3.674l2.3,3.781,2.327-3.781h3.674l-3.866,5.81,4.048,6.065h-3.687l-2.5-4.068-2.505,4.068h-3.676Z" transform="translate(-461.049 -549.819)"/>
    <path id="Trazado_24539" data-name="Trazado 24539" d="M490.976,567.306H480.122v-2.284l3.9-3.939q1.732-1.775,2.262-2.46a5.429,5.429,0,0,0,.765-1.269,3.235,3.235,0,0,0,.234-1.211,1.768,1.768,0,0,0-.515-1.392,2,2,0,0,0-1.376-.457,3.968,3.968,0,0,0-1.753.415,9.008,9.008,0,0,0-1.773,1.178l-1.785-2.113a11.649,11.649,0,0,1,1.9-1.38,6.916,6.916,0,0,1,1.646-.622,8.437,8.437,0,0,1,2-.218,5.9,5.9,0,0,1,2.57.531,4.1,4.1,0,0,1,1.731,1.486,3.961,3.961,0,0,1,.616,2.188,5.369,5.369,0,0,1-.377,2.012,7.74,7.74,0,0,1-1.169,1.929,28.719,28.719,0,0,1-2.788,2.815l-2,1.88v.149h6.767Z" transform="translate(-455.087 -551.556)"/>
    <path id="Trazado_24540" data-name="Trazado 24540" d="M490.555,559.5l-3.823-5.81h3.674l2.3,3.781,2.327-3.781h3.674l-3.866,5.81,4.048,6.065h-3.687l-2.5-4.068-2.505,4.068h-3.676Z" transform="translate(-449.845 -549.819)"/>
    <path id="Trazado_24541" data-name="Trazado 24541" d="M501.817,567.206h-3.281v-8.985l.031-1.476.054-1.615q-.818.818-1.136,1.073l-1.785,1.434-1.582-1.976,5-3.982h2.7Z" transform="translate(-443.678 -551.456)"/>
  </g>
  <g id="Grupo_14518" data-name="Grupo 14518" transform="translate(395.789 11.822)">
    <path id="Trazado_24542" data-name="Trazado 24542" d="M286.99,569.663l.16.245a32.812,32.812,0,0,1-1.871,5.086h-2.337q.691-2.825,1.073-5.331Zm-3.473-7.763a1.785,1.785,0,0,1,.477-1.349,1.94,1.94,0,0,1,1.392-.457,1.884,1.884,0,0,1,1.365.468,2.065,2.065,0,0,1-.011,2.67,1.878,1.878,0,0,1-1.354.473,1.919,1.919,0,0,1-1.381-.468A1.769,1.769,0,0,1,283.517,561.9Z" transform="translate(-282.942 -556.44)"/>
    <path id="Trazado_24543" data-name="Trazado 24543" d="M304.093,563.044a4.745,4.745,0,0,1-1.566,3.834,6.7,6.7,0,0,1-4.455,1.329H296.66v5.523h-3.294V558.2h4.961a6.6,6.6,0,0,1,4.3,1.216A4.432,4.432,0,0,1,304.093,563.044Zm-7.434,2.463h1.082a3.6,3.6,0,0,0,2.273-.6,2.094,2.094,0,0,0,.754-1.746,2.157,2.157,0,0,0-.631-1.711,2.965,2.965,0,0,0-1.981-.553h-1.5Z" transform="translate(-274.471 -557.978)"/>
    <path id="Trazado_24544" data-name="Trazado 24544" d="M303.421,567.77a16.449,16.449,0,0,1,.823-5.268,13.1,13.1,0,0,1,2.375-4.3h2.654a15.358,15.358,0,0,0-2.262,4.5,16.867,16.867,0,0,0-.765,5.045,16.316,16.316,0,0,0,.781,5.028,15.189,15.189,0,0,0,2.226,4.392h-2.634a12.493,12.493,0,0,1-2.38-4.216A16.028,16.028,0,0,1,303.421,567.77Z" transform="translate(-266.3 -557.978)"/>
    <path id="Trazado_24545" data-name="Trazado 24545" d="M317.756,561.774a3.656,3.656,0,0,1-.883,2.474,4.57,4.57,0,0,1-2.474,1.4v.064a4.942,4.942,0,0,1,2.846,1.142,3.2,3.2,0,0,1,.968,2.447,4.146,4.146,0,0,1-1.626,3.489,7.489,7.489,0,0,1-4.64,1.249,11.292,11.292,0,0,1-4.483-.839v-2.793a10.052,10.052,0,0,0,1.987.743,8.391,8.391,0,0,0,2.144.286,4.171,4.171,0,0,0,2.4-.551,2.027,2.027,0,0,0,.776-1.775,1.6,1.6,0,0,0-.892-1.55,6.6,6.6,0,0,0-2.846-.457h-1.18v-2.518h1.2a5.574,5.574,0,0,0,2.639-.473,1.7,1.7,0,0,0,.834-1.619q0-1.764-2.208-1.764a5.043,5.043,0,0,0-1.557.256,7.521,7.521,0,0,0-1.758.881l-1.517-2.262a8.428,8.428,0,0,1,5.066-1.53,6.548,6.548,0,0,1,3.807.977A3.136,3.136,0,0,1,317.756,561.774Z" transform="translate(-263.014 -558.078)"/>
    <path id="Trazado_24546" data-name="Trazado 24546" d="M321.548,565.618a32.955,32.955,0,0,1-1.869,5.086h-2.337q.691-2.825,1.073-5.331h2.973Z" transform="translate(-254.986 -552.15)"/>
    <path id="Trazado_24547" data-name="Trazado 24547" d="M331.2,561.774a3.654,3.654,0,0,1-.881,2.474,4.582,4.582,0,0,1-2.476,1.4v.064a4.948,4.948,0,0,1,2.848,1.142,3.2,3.2,0,0,1,.966,2.447,4.146,4.146,0,0,1-1.626,3.489,7.485,7.485,0,0,1-4.64,1.249,11.292,11.292,0,0,1-4.483-.839v-2.793a10.053,10.053,0,0,0,1.987.743,8.391,8.391,0,0,0,2.144.286,4.182,4.182,0,0,0,2.4-.551,2.031,2.031,0,0,0,.774-1.775,1.6,1.6,0,0,0-.892-1.55,6.6,6.6,0,0,0-2.846-.457H323.3v-2.518h1.2a5.579,5.579,0,0,0,2.639-.473,1.707,1.707,0,0,0,.834-1.619q0-1.764-2.21-1.764a5.051,5.051,0,0,0-1.557.256,7.479,7.479,0,0,0-1.757.881l-1.519-2.262a8.432,8.432,0,0,1,5.066-1.53,6.544,6.544,0,0,1,3.807.977A3.136,3.136,0,0,1,331.2,561.774Z" transform="translate(-252.087 -558.078)"/>
    <path id="Trazado_24548" data-name="Trazado 24548" d="M333.514,567.77a16.046,16.046,0,0,1-.823,5.206,12.473,12.473,0,0,1-2.375,4.194h-2.634a15.337,15.337,0,0,0,2.219-4.381,16.2,16.2,0,0,0,.787-5.039,16.866,16.866,0,0,0-.765-5.045,15.268,15.268,0,0,0-2.262-4.5h2.656a13.023,13.023,0,0,1,2.378,4.318A16.519,16.519,0,0,1,333.514,567.77Z" transform="translate(-246.601 -557.978)"/>
    <path id="Trazado_24549" data-name="Trazado 24549" d="M335,563.094v-2.326h10.546v2.326Zm0,4.109v-2.326h10.546V567.2Z" transform="translate(-240.635 -555.892)"/>
  </g>
  <g id="Grupo_14519" data-name="Grupo 14519" transform="translate(603.364 11.822)">
    <path id="Trazado_24550" data-name="Trazado 24550" d="M401.5,569.663l.16.245a32.95,32.95,0,0,1-1.869,5.086h-2.336q.691-2.825,1.073-5.331ZM398.03,561.9a1.779,1.779,0,0,1,.478-1.349,1.94,1.94,0,0,1,1.392-.457,1.889,1.889,0,0,1,1.367.468,2.077,2.077,0,0,1-.011,2.67,1.883,1.883,0,0,1-1.356.473,1.919,1.919,0,0,1-1.381-.468A1.763,1.763,0,0,1,398.03,561.9Z" transform="translate(-397.457 -556.44)"/>
    <path id="Trazado_24551" data-name="Trazado 24551" d="M415.491,563.044a4.739,4.739,0,0,1-1.566,3.834,6.7,6.7,0,0,1-4.457,1.329h-1.412v5.523h-3.292V558.2h4.959a6.605,6.605,0,0,1,4.3,1.216A4.432,4.432,0,0,1,415.491,563.044Zm-7.435,2.463h1.084a3.609,3.609,0,0,0,2.273-.6,2.1,2.1,0,0,0,.754-1.746,2.157,2.157,0,0,0-.631-1.711,2.967,2.967,0,0,0-1.983-.553h-1.5Z" transform="translate(-391.519 -557.978)"/>
    <path id="Trazado_24552" data-name="Trazado 24552" d="M414.818,567.77a16.5,16.5,0,0,1,.825-5.268,13.123,13.123,0,0,1,2.373-4.3h2.655a15.265,15.265,0,0,0-2.262,4.5,16.868,16.868,0,0,0-.765,5.045,16.267,16.267,0,0,0,.783,5.028,15.228,15.228,0,0,0,2.222,4.392h-2.634a12.49,12.49,0,0,1-2.378-4.216A16.029,16.029,0,0,1,414.818,567.77Z" transform="translate(-383.349 -557.978)"/>
    <path id="Trazado_24553" data-name="Trazado 24553" d="M429.153,561.774a3.654,3.654,0,0,1-.881,2.474,4.577,4.577,0,0,1-2.474,1.4v.064a4.948,4.948,0,0,1,2.846,1.142,3.2,3.2,0,0,1,.966,2.447,4.149,4.149,0,0,1-1.624,3.489,7.5,7.5,0,0,1-4.642,1.249,11.292,11.292,0,0,1-4.483-.839v-2.793a10.1,10.1,0,0,0,1.987.743,8.4,8.4,0,0,0,2.146.286,4.175,4.175,0,0,0,2.4-.551,2.032,2.032,0,0,0,.776-1.775,1.6,1.6,0,0,0-.894-1.55,6.6,6.6,0,0,0-2.846-.457h-1.178v-2.518h1.2a5.587,5.587,0,0,0,2.641-.473,1.706,1.706,0,0,0,.832-1.619q0-1.764-2.21-1.764a5.029,5.029,0,0,0-1.553.256,7.5,7.5,0,0,0-1.76.881l-1.519-2.262a8.432,8.432,0,0,1,5.066-1.53,6.556,6.556,0,0,1,3.81.977A3.137,3.137,0,0,1,429.153,561.774Z" transform="translate(-380.063 -558.078)"/>
    <path id="Trazado_24554" data-name="Trazado 24554" d="M432.947,565.618a32.98,32.98,0,0,1-1.871,5.086H428.74q.691-2.825,1.073-5.331h2.974Z" transform="translate(-372.035 -552.15)"/>
    <path id="Trazado_24555" data-name="Trazado 24555" d="M442.6,561.774a3.655,3.655,0,0,1-.881,2.474,4.57,4.57,0,0,1-2.474,1.4v.064a4.942,4.942,0,0,1,2.846,1.142,3.193,3.193,0,0,1,.966,2.447,4.149,4.149,0,0,1-1.624,3.489,7.491,7.491,0,0,1-4.642,1.249,11.283,11.283,0,0,1-4.481-.839v-2.793a10.077,10.077,0,0,0,1.985.743,8.4,8.4,0,0,0,2.146.286,4.171,4.171,0,0,0,2.4-.551,2.032,2.032,0,0,0,.776-1.775,1.6,1.6,0,0,0-.892-1.55,6.606,6.606,0,0,0-2.848-.457H434.7v-2.518h1.2a5.587,5.587,0,0,0,2.641-.473,1.7,1.7,0,0,0,.832-1.619q0-1.764-2.21-1.764a5.03,5.03,0,0,0-1.553.256,7.532,7.532,0,0,0-1.76.881l-1.519-2.262a8.436,8.436,0,0,1,5.066-1.53,6.556,6.556,0,0,1,3.81.977A3.137,3.137,0,0,1,442.6,561.774Z" transform="translate(-369.135 -558.078)"/>
    <path id="Trazado_24556" data-name="Trazado 24556" d="M444.91,567.77a16,16,0,0,1-.821,5.206,12.447,12.447,0,0,1-2.376,4.194h-2.634a15.3,15.3,0,0,0,2.22-4.381,16.257,16.257,0,0,0,.787-5.039,16.867,16.867,0,0,0-.765-5.045,15.351,15.351,0,0,0-2.262-4.5h2.654a13.029,13.029,0,0,1,2.38,4.318A16.521,16.521,0,0,1,444.91,567.77Z" transform="translate(-363.649 -557.978)"/>
    <path id="Trazado_24557" data-name="Trazado 24557" d="M446.4,563.094v-2.326h10.548v2.326Zm0,4.109v-2.326h10.548V567.2Z" transform="translate(-357.684 -555.892)"/>
  </g>
  <g id="Grupo_14520" data-name="Grupo 14520" transform="translate(809.65 11.822)">
    <path id="Trazado_24558" data-name="Trazado 24558" d="M515.307,569.663l.16.245a32.957,32.957,0,0,1-1.869,5.086h-2.336q.691-2.825,1.073-5.331Zm-3.473-7.763a1.779,1.779,0,0,1,.479-1.349,1.936,1.936,0,0,1,1.39-.457,1.879,1.879,0,0,1,1.365.468,2.066,2.066,0,0,1-.011,2.67,1.872,1.872,0,0,1-1.354.473,1.912,1.912,0,0,1-1.379-.468A1.763,1.763,0,0,1,511.834,561.9Z" transform="translate(-511.261 -556.44)"/>
    <path id="Trazado_24559" data-name="Trazado 24559" d="M529.294,563.044a4.745,4.745,0,0,1-1.566,3.834,6.691,6.691,0,0,1-4.455,1.329h-1.412v5.523h-3.293V558.2h4.961a6.6,6.6,0,0,1,4.3,1.216A4.432,4.432,0,0,1,529.294,563.044Zm-7.434,2.463h1.082a3.6,3.6,0,0,0,2.273-.6,2.094,2.094,0,0,0,.754-1.746,2.157,2.157,0,0,0-.631-1.711,2.964,2.964,0,0,0-1.981-.553h-1.5Z" transform="translate(-505.324 -557.978)"/>
    <path id="Trazado_24560" data-name="Trazado 24560" d="M528.622,567.77a16.448,16.448,0,0,1,.823-5.268,13.1,13.1,0,0,1,2.375-4.3h2.656a15.262,15.262,0,0,0-2.262,4.5,16.808,16.808,0,0,0-.765,5.045,16.318,16.318,0,0,0,.779,5.028,15.234,15.234,0,0,0,2.226,4.392h-2.634a12.526,12.526,0,0,1-2.38-4.216A16.027,16.027,0,0,1,528.622,567.77Z" transform="translate(-497.153 -557.978)"/>
    <path id="Trazado_24561" data-name="Trazado 24561" d="M542.957,561.774a3.646,3.646,0,0,1-.883,2.474,4.57,4.57,0,0,1-2.474,1.4v.064a4.948,4.948,0,0,1,2.848,1.142,3.2,3.2,0,0,1,.966,2.447,4.146,4.146,0,0,1-1.626,3.489,7.485,7.485,0,0,1-4.64,1.249,11.292,11.292,0,0,1-4.483-.839v-2.793a10.055,10.055,0,0,0,1.987.743,8.392,8.392,0,0,0,2.144.286,4.182,4.182,0,0,0,2.4-.551,2.031,2.031,0,0,0,.774-1.775,1.6,1.6,0,0,0-.892-1.55,6.6,6.6,0,0,0-2.846-.457h-1.18v-2.518h1.2a5.578,5.578,0,0,0,2.639-.473,1.707,1.707,0,0,0,.834-1.619q0-1.764-2.21-1.764a5.051,5.051,0,0,0-1.557.256,7.478,7.478,0,0,0-1.756.881l-1.519-2.262a8.433,8.433,0,0,1,5.066-1.53,6.544,6.544,0,0,1,3.807.977A3.136,3.136,0,0,1,542.957,561.774Z" transform="translate(-493.867 -558.078)"/>
    <path id="Trazado_24562" data-name="Trazado 24562" d="M543.632,565.618a32.959,32.959,0,0,1-1.869,5.086h-2.336q.691-2.825,1.073-5.331h2.973Z" transform="translate(-488.372 -552.15)"/>
    <path id="Trazado_24563" data-name="Trazado 24563" d="M553.287,561.774a3.655,3.655,0,0,1-.881,2.474,4.583,4.583,0,0,1-2.476,1.4v.064a4.948,4.948,0,0,1,2.848,1.142,3.2,3.2,0,0,1,.966,2.447,4.146,4.146,0,0,1-1.626,3.489,7.485,7.485,0,0,1-4.64,1.249,11.292,11.292,0,0,1-4.483-.839v-2.793a10.055,10.055,0,0,0,1.987.743,8.391,8.391,0,0,0,2.144.286,4.182,4.182,0,0,0,2.4-.551,2.031,2.031,0,0,0,.774-1.775,1.6,1.6,0,0,0-.892-1.55,6.6,6.6,0,0,0-2.846-.457h-1.18v-2.518h1.2a5.578,5.578,0,0,0,2.639-.473,1.707,1.707,0,0,0,.834-1.619q0-1.764-2.21-1.764a5.05,5.05,0,0,0-1.557.256,7.48,7.48,0,0,0-1.757.881l-1.519-2.262a8.432,8.432,0,0,1,5.066-1.53,6.544,6.544,0,0,1,3.806.977A3.136,3.136,0,0,1,553.287,561.774Z" transform="translate(-485.473 -558.078)"/>
    <path id="Trazado_24564" data-name="Trazado 24564" d="M555.6,567.77a16.046,16.046,0,0,1-.823,5.206,12.473,12.473,0,0,1-2.375,4.194h-2.634a15.338,15.338,0,0,0,2.219-4.381,16.206,16.206,0,0,0,.787-5.039,16.866,16.866,0,0,0-.765-5.045,15.267,15.267,0,0,0-2.262-4.5H552.4a13.025,13.025,0,0,1,2.378,4.318A16.519,16.519,0,0,1,555.6,567.77Z" transform="translate(-479.987 -557.978)"/>
    <path id="Trazado_24565" data-name="Trazado 24565" d="M557.087,563.094v-2.326h10.546v2.326Zm0,4.109v-2.326h10.546V567.2Z" transform="translate(-474.021 -555.892)"/>
    <path id="Trazado_24566" data-name="Trazado 24566" d="M566.96,567.214q0-4.609,1.949-6.861a7.3,7.3,0,0,1,5.837-2.251,10.679,10.679,0,0,1,2.081.158v2.625a8.507,8.507,0,0,0-1.869-.212,6.394,6.394,0,0,0-2.755.509,3.418,3.418,0,0,0-1.6,1.508,6.9,6.9,0,0,0-.627,2.835h.138a3.606,3.606,0,0,1,3.368-1.805,4.163,4.163,0,0,1,3.259,1.307,5.188,5.188,0,0,1,1.18,3.611,5.419,5.419,0,0,1-1.4,3.935,5.153,5.153,0,0,1-3.886,1.45,5.555,5.555,0,0,1-3-.8,5.168,5.168,0,0,1-1.976-2.326A8.849,8.849,0,0,1,566.96,567.214Zm5.608,4.185a1.942,1.942,0,0,0,1.613-.707,3.16,3.16,0,0,0,.564-2.012,2.784,2.784,0,0,0-.526-1.791,1.921,1.921,0,0,0-1.588-.653,2.438,2.438,0,0,0-1.706.647,2,2,0,0,0-.705,1.508,3.419,3.419,0,0,0,.664,2.135A2.036,2.036,0,0,0,572.568,571.4Z" transform="translate(-465.997 -558.058)"/>
  </g>
</svg>
