<svg xmlns="http://www.w3.org/2000/svg" width="154.146" height="41.106" viewBox="0 0 154.146 41.106">
  <g id="Grupo_14539" data-name="Grupo 14539" transform="translate(-528.033 -1424.441)">
    <rect id="Rectángulo_3698" data-name="Rectángulo 3698" width="154.146" height="41.106" transform="translate(528.033 1424.441)" fill="#d5f4fc"/>
    <g id="Grupo_14476" data-name="Grupo 14476" transform="translate(561.886 1436.612)">
      <path id="Trazado_24154" data-name="Trazado 24154" d="M251.448,733.349a4.353,4.353,0,0,1-1.436,3.515,6.138,6.138,0,0,1-4.086,1.218h-1.294v5.063h-3.018V728.91h4.546a6.048,6.048,0,0,1,3.939,1.115A4.063,4.063,0,0,1,251.448,733.349Zm-6.816,2.259h.993a3.313,3.313,0,0,0,2.085-.549,1.934,1.934,0,0,0,.691-1.6,1.972,1.972,0,0,0-.58-1.566,2.716,2.716,0,0,0-1.816-.508h-1.372Z" transform="translate(-241.614 -728.91)"/>
      <path id="Trazado_24155" data-name="Trazado 24155" d="M250.831,737.682a15.119,15.119,0,0,1,.754-4.829,12.015,12.015,0,0,1,2.175-3.943H256.2a13.983,13.983,0,0,0-2.075,4.128,15.5,15.5,0,0,0-.7,4.626,15.023,15.023,0,0,0,.714,4.61,14.062,14.062,0,0,0,2.039,4.026H253.76a11.563,11.563,0,0,1-2.181-3.866A14.727,14.727,0,0,1,250.831,737.682Z" transform="translate(-234.124 -728.91)"/>
      <path id="Trazado_24156" data-name="Trazado 24156" d="M265.026,741.735h-2.971v-6.359a3.042,3.042,0,0,0-.419-1.767,1.526,1.526,0,0,0-1.334-.589,2,2,0,0,0-1.8.834,5.159,5.159,0,0,0-.555,2.759v5.122h-2.969V730.85h2.268l.4,1.392h.165a3.153,3.153,0,0,1,1.369-1.193,4.64,4.64,0,0,1,1.981-.4,3.8,3.8,0,0,1,2.882,1.028,4.117,4.117,0,0,1,.984,2.964Z" transform="translate(-230.754 -727.5)"/>
      <path id="Trazado_24157" data-name="Trazado 24157" d="M265.54,735.709a29.792,29.792,0,0,1-1.713,4.664h-2.141q.634-2.591.984-4.889h2.724Z" transform="translate(-225.303 -723.568)"/>
      <path id="Trazado_24158" data-name="Trazado 24158" d="M274.329,730.645a4.81,4.81,0,0,1,1,.087l-.223,2.784a3.473,3.473,0,0,0-.876-.1,3.153,3.153,0,0,0-2.215.729,2.64,2.64,0,0,0-.792,2.045v5.541h-2.971V730.85H270.5l.439,1.829h.145a4.127,4.127,0,0,1,1.369-1.474A3.379,3.379,0,0,1,274.329,730.645Z" transform="translate(-219.964 -727.5)"/>
      <path id="Trazado_24159" data-name="Trazado 24159" d="M278.083,737.682a14.7,14.7,0,0,1-.754,4.771,11.431,11.431,0,0,1-2.177,3.847h-2.414a14.046,14.046,0,0,0,2.036-4.017,14.95,14.95,0,0,0,.72-4.619,15.445,15.445,0,0,0-.7-4.626,14.061,14.061,0,0,0-2.072-4.128h2.433a11.908,11.908,0,0,1,2.181,3.959A15.124,15.124,0,0,1,278.083,737.682Z" transform="translate(-216.337 -728.91)"/>
      <path id="Trazado_24160" data-name="Trazado 24160" d="M279.448,733.395v-2.132h9.669v2.132Zm0,3.767V735.03h9.669v2.132Z" transform="translate(-210.868 -726.998)"/>
      <path id="Trazado_24161" data-name="Trazado 24161" d="M299.02,741.735h-2.971v-6.359a3.057,3.057,0,0,0-.417-1.767,1.531,1.531,0,0,0-1.336-.589,2,2,0,0,0-1.8.834,5.16,5.16,0,0,0-.555,2.759v5.122h-2.969V730.85h2.269l.4,1.392h.165a3.152,3.152,0,0,1,1.369-1.193,4.645,4.645,0,0,1,1.981-.4,3.8,3.8,0,0,1,2.882,1.028,4.116,4.116,0,0,1,.984,2.964Z" transform="translate(-203.129 -727.5)"/>
    </g>
    <g id="Grupo_14535" data-name="Grupo 14535" transform="translate(643.948 1437.88)">
      <path id="Trazado_24661" data-name="Trazado 24661" d="M286.928,731.369c0-.618-.011-1.151-.042-1.64h.837l.042,1.033h.034a1.588,1.588,0,0,1,1.465-1.153,1.943,1.943,0,0,1,.263.022v.9a2.713,2.713,0,0,0-.326-.022,1.341,1.341,0,0,0-1.283,1.218,2.922,2.922,0,0,0-.031.444v2.815h-.959Z" transform="translate(-286.886 -729.609)"/>
    </g>
  </g>
</svg>
