<svg xmlns="http://www.w3.org/2000/svg" width="205.528" height="51.382" viewBox="0 0 205.528 51.382">
  <g id="Grupo_14540" data-name="Grupo 14540" transform="translate(-539.15 -1706.872)">
    <rect id="Rectángulo_3700" data-name="Rectángulo 3700" width="205.528" height="51.382" transform="translate(539.15 1706.872)" fill="#d5f4fc"/>
    <g id="Grupo_14486" data-name="Grupo 14486" transform="translate(571.976 1712.218)">
      <g id="Grupo_14484" data-name="Grupo 14484" transform="translate(0 11.964)">
        <path id="Trazado_24253" data-name="Trazado 24253" d="M257.014,892a4.348,4.348,0,0,1-1.436,3.513,6.138,6.138,0,0,1-4.086,1.218H250.2v5.063H247.18V887.556h4.546a6.048,6.048,0,0,1,3.939,1.117A4.058,4.058,0,0,1,257.014,892Zm-6.815,2.259h.993a3.3,3.3,0,0,0,2.083-.551,1.927,1.927,0,0,0,.692-1.6,1.974,1.974,0,0,0-.58-1.566,2.707,2.707,0,0,0-1.816-.506H250.2Z" transform="translate(-247.18 -887.556)"/>
        <path id="Trazado_24254" data-name="Trazado 24254" d="M256.4,896.327a15.117,15.117,0,0,1,.754-4.829,12.026,12.026,0,0,1,2.175-3.943h2.436a13.989,13.989,0,0,0-2.075,4.129,15.5,15.5,0,0,0-.7,4.624,15.035,15.035,0,0,0,.714,4.611,14.072,14.072,0,0,0,2.039,4.024h-2.414a11.513,11.513,0,0,1-2.181-3.866A14.719,14.719,0,0,1,256.4,896.327Z" transform="translate(-239.69 -887.556)"/>
        <path id="Trazado_24255" data-name="Trazado 24255" d="M270.59,900.381h-2.969v-6.359a3.036,3.036,0,0,0-.419-1.765,1.522,1.522,0,0,0-1.334-.591,2,2,0,0,0-1.8.834,5.166,5.166,0,0,0-.555,2.761v5.121h-2.971V889.5h2.269l.4,1.392h.165a3.165,3.165,0,0,1,1.369-1.193,4.641,4.641,0,0,1,1.981-.4,3.8,3.8,0,0,1,2.88,1.028,4.109,4.109,0,0,1,.984,2.964Z" transform="translate(-236.321 -886.146)"/>
        <path id="Trazado_24256" data-name="Trazado 24256" d="M271.107,894.354a29.982,29.982,0,0,1-1.713,4.664h-2.143q.636-2.591.984-4.887h2.726Z" transform="translate(-230.869 -882.213)"/>
        <path id="Trazado_24257" data-name="Trazado 24257" d="M279.9,889.291a4.674,4.674,0,0,1,1,.089l-.223,2.784a3.4,3.4,0,0,0-.875-.1,3.154,3.154,0,0,0-2.215.729,2.642,2.642,0,0,0-.794,2.045v5.541h-2.969V889.5h2.248l.439,1.831h.145a4.1,4.1,0,0,1,1.369-1.476A3.378,3.378,0,0,1,279.9,889.291Z" transform="translate(-225.53 -886.146)"/>
        <path id="Trazado_24258" data-name="Trazado 24258" d="M283.649,896.327a14.681,14.681,0,0,1-.754,4.771,11.37,11.37,0,0,1-2.179,3.846H278.3a13.929,13.929,0,0,0,2.036-4.017,14.9,14.9,0,0,0,.721-4.619,15.444,15.444,0,0,0-.7-4.624,14.07,14.07,0,0,0-2.072-4.129h2.431a11.9,11.9,0,0,1,2.182,3.959A15.131,15.131,0,0,1,283.649,896.327Z" transform="translate(-221.903 -887.556)"/>
        <path id="Trazado_24259" data-name="Trazado 24259" d="M285.014,892.041v-2.132h9.669v2.132Zm0,3.768v-2.133h9.669v2.133Z" transform="translate(-216.434 -885.644)"/>
      </g>
      <g id="Grupo_14485" data-name="Grupo 14485" transform="translate(94.676)">
        <path id="Trazado_24260" data-name="Trazado 24260" d="M317.873,893.779H314.9v-6.355a3.06,3.06,0,0,0-.417-1.769,1.53,1.53,0,0,0-1.336-.587,2,2,0,0,0-1.8.832,5.153,5.153,0,0,0-.555,2.759v5.121h-2.969V882.9h2.269l.4,1.392h.165a3.152,3.152,0,0,1,1.369-1.193,4.647,4.647,0,0,1,1.981-.4,3.805,3.805,0,0,1,2.882,1.028,4.117,4.117,0,0,1,.984,2.964Z" transform="translate(-292.573 -879.546)"/>
        <path id="Trazado_24261" data-name="Trazado 24261" d="M314.824,893.8a1.639,1.639,0,0,1,.437-1.238,1.783,1.783,0,0,1,1.276-.417,1.717,1.717,0,0,1,1.249.428,1.892,1.892,0,0,1,0,2.438,1.7,1.7,0,0,1-1.247.444,1.752,1.752,0,0,1-1.267-.433A1.627,1.627,0,0,1,314.824,893.8Zm2.909-3.33h-2.375l-.5-9.513h3.368Z" transform="translate(-286.886 -880.956)"/>
        <path id="Trazado_24262" data-name="Trazado 24262" d="M299.411,902.929a15.061,15.061,0,0,1,.754-4.829,11.989,11.989,0,0,1,2.175-3.944h2.436a13.983,13.983,0,0,0-2.075,4.127,15.454,15.454,0,0,0-.7,4.626,14.969,14.969,0,0,0,.716,4.61,14.013,14.013,0,0,0,2.039,4.026H302.34a11.492,11.492,0,0,1-2.181-3.865A14.687,14.687,0,0,1,299.411,902.929Z" transform="translate(-299.411 -870.229)"/>
        <path id="Trazado_24263" data-name="Trazado 24263" d="M313.6,906.981h-2.971v-6.357a3.06,3.06,0,0,0-.417-1.769,1.524,1.524,0,0,0-1.334-.587,2.005,2.005,0,0,0-1.8.832,5.162,5.162,0,0,0-.553,2.759v5.123h-2.971V896.1h2.269l.4,1.392h.165a3.144,3.144,0,0,1,1.369-1.193,4.664,4.664,0,0,1,1.979-.4,3.8,3.8,0,0,1,2.882,1.028,4.12,4.12,0,0,1,.984,2.965Z" transform="translate(-296.042 -868.819)"/>
        <path id="Trazado_24264" data-name="Trazado 24264" d="M310.255,900.822v-2.434h5.228v2.434Z" transform="translate(-290.599 -866.79)"/>
        <path id="Trazado_24265" data-name="Trazado 24265" d="M320.4,895.891a4.815,4.815,0,0,1,1,.087l-.223,2.784a3.485,3.485,0,0,0-.876-.1,3.146,3.146,0,0,0-2.215.731,2.641,2.641,0,0,0-.794,2.045v5.539h-2.969V896.1h2.248l.439,1.829h.145a4.14,4.14,0,0,1,1.368-1.474A3.374,3.374,0,0,1,320.4,895.891Z" transform="translate(-287.29 -868.819)"/>
        <path id="Trazado_24266" data-name="Trazado 24266" d="M324.154,902.929a14.716,14.716,0,0,1-.754,4.771,11.414,11.414,0,0,1-2.179,3.845h-2.414a13.928,13.928,0,0,0,2.036-4.017,14.881,14.881,0,0,0,.721-4.619,15.456,15.456,0,0,0-.7-4.626,14.108,14.108,0,0,0-2.072-4.127h2.431a11.879,11.879,0,0,1,2.181,3.959A15.092,15.092,0,0,1,324.154,902.929Z" transform="translate(-283.663 -870.229)"/>
        <path id="Trazado_24267" data-name="Trazado 24267" d="M322.819,907a1.638,1.638,0,0,1,.437-1.238,1.785,1.785,0,0,1,1.276-.417,1.722,1.722,0,0,1,1.251.428,1.9,1.9,0,0,1,0,2.438,1.7,1.7,0,0,1-1.247.444,1.752,1.752,0,0,1-1.267-.433A1.624,1.624,0,0,1,322.819,907Zm2.909-3.33h-2.375l-.5-9.513h3.368Z" transform="translate(-280.389 -870.229)"/>
      </g>
    </g>
    <line id="Línea_581" data-name="Línea 581" x2="61.744" transform="translate(656.045 1732.563)" fill="none" stroke="#272525" stroke-miterlimit="10" stroke-width="2"/>
  </g>
</svg>
