<svg id="Grupo_14645" data-name="Grupo 14645" xmlns="http://www.w3.org/2000/svg" width="240.264" height="37.125" viewBox="0 0 240.264 37.125">
  <g id="Grupo_14640" data-name="Grupo 14640" transform="translate(0 10.104)">
    <g id="Grupo_14639" data-name="Grupo 14639">
      <path id="Trazado_25103" data-name="Trazado 25103" d="M82.867,984.777l-3.477-5.28h3.34l2.1,3.438,2.114-3.437h3.342l-3.515,5.28,3.678,5.514H87.093l-2.267-3.7-2.28,3.7h-3.34Z" transform="translate(-79.206 -976.261)"/>
      <path id="Trazado_25104" data-name="Trazado 25104" d="M79.7,977.7h6.864v1.467H79.7Z" transform="translate(-78.813 -977.697)"/>
      <path id="Trazado_25105" data-name="Trazado 25105" d="M87.742,982.115V980h9.59v2.114Zm0,3.738v-2.114h9.59v2.114Z" transform="translate(-72.395 -975.859)"/>
    </g>
  </g>
  <g id="Grupo_14642" data-name="Grupo 14642" transform="translate(38.342)">
    <g id="Grupo_14641" data-name="Grupo 14641">
      <path id="Trazado_25106" data-name="Trazado 25106" d="M105.5,972.1a5.344,5.344,0,0,1,3.269.922,2.939,2.939,0,0,1,1.241,2.486,3.234,3.234,0,0,1-.6,1.926,5.091,5.091,0,0,1-1.931,1.512,6.838,6.838,0,0,1,2.276,1.771,3.31,3.31,0,0,1,.69,2.025,3.371,3.371,0,0,1-1.361,2.8,5.7,5.7,0,0,1-3.583,1.057,5.977,5.977,0,0,1-3.641-.985,3.272,3.272,0,0,1-1.323-2.79,3.692,3.692,0,0,1,.642-2.143,1.666,1.666,0,1,0,.324-3.283,3.583,3.583,0,0,1-.53-1.9,2.924,2.924,0,0,1,1.253-2.452A5.348,5.348,0,0,1,105.5,972.1Zm-2.2,10.545a1.564,1.564,0,0,0,.579,1.294,3.026,3.026,0,0,0,3.245-.016,1.582,1.582,0,0,0,.55-1.259,1.73,1.73,0,0,0-.545-1.214,7.059,7.059,0,0,0-1.773-1.2Q103.3,981.194,103.294,982.643Zm2.183-8.362a1.858,1.858,0,0,0-1.232.39,1.3,1.3,0,0,0-.467,1.048,1.6,1.6,0,0,0,.372,1.038,4.037,4.037,0,0,0,1.347.942,3.773,3.773,0,0,0,1.321-.908,1.637,1.637,0,0,0,.378-1.072,1.273,1.273,0,0,0-.484-1.052A1.9,1.9,0,0,0,105.476,974.281Z" transform="translate(-100.532 -972.06)"/>
      <path id="Trazado_25107" data-name="Trazado 25107" d="M110.036,979a29.686,29.686,0,0,1-1.7,4.624h-2.123q.628-2.567.976-4.847h2.7Z" transform="translate(-96 -966.734)"/>
      <path id="Trazado_25108" data-name="Trazado 25108" d="M114.015,977.3a4.546,4.546,0,0,1,3.26,1.149,4.135,4.135,0,0,1,1.214,3.148,4.577,4.577,0,0,1-1.46,3.641,6.152,6.152,0,0,1-4.171,1.275,8.2,8.2,0,0,1-3.806-.762v-2.58a8.611,8.611,0,0,0,3.7.919q2.735,0,2.735-2.24,0-2.136-2.83-2.136a6.978,6.978,0,0,0-1.131.1,8,8,0,0,0-1,.218l-1.187-.637.53-7.2h7.657v2.53H112.48l-.261,2.772.338-.068A6.653,6.653,0,0,1,114.015,977.3Z" transform="translate(-93.735 -971.979)"/>
      <path id="Trazado_25109" data-name="Trazado 25109" d="M120.759,979.374h-3.736V977.26h3.736V973.5h2.116v3.765h3.738v2.114h-3.738v3.718h-2.116Z" transform="translate(-87.374 -970.946)"/>
      <path id="Trazado_25110" data-name="Trazado 25110" d="M126.541,986.309l5.3-11.587h-6.963V972.21h10.129v1.874l-5.34,12.226Z" transform="translate(-81.103 -971.971)"/>
      <path id="Trazado_25111" data-name="Trazado 25111" d="M134.478,979a29.848,29.848,0,0,1-1.7,4.624h-2.125q.628-2.567.976-4.847h2.7Z" transform="translate(-76.498 -966.734)"/>
      <path id="Trazado_25112" data-name="Trazado 25112" d="M143.222,979.357a9.841,9.841,0,0,1-1.21,5.475,4.205,4.205,0,0,1-3.734,1.778,4.151,4.151,0,0,1-3.682-1.836,9.7,9.7,0,0,1-1.242-5.417,9.946,9.946,0,0,1,1.206-5.509,4.7,4.7,0,0,1,7.413.083A9.71,9.71,0,0,1,143.222,979.357Zm-6.9,0a11.023,11.023,0,0,0,.448,3.724,1.571,1.571,0,0,0,3.017-.015,15.07,15.07,0,0,0-.005-7.441,1.563,1.563,0,0,0-3.006,0A10.987,10.987,0,0,0,136.32,979.357Z" transform="translate(-74.344 -972.077)"/>
      <path id="Trazado_25113" data-name="Trazado 25113" d="M145.2,979.374h-3.736V977.26H145.2V973.5h2.114v3.765h3.74v2.114h-3.74v3.718H145.2Z" transform="translate(-67.872 -970.946)"/>
      <path id="Trazado_25114" data-name="Trazado 25114" d="M159.349,978.3q0,4.172-1.757,6.23a6.612,6.612,0,0,1-5.32,2.057,9.863,9.863,0,0,1-1.9-.137v-2.395a6.932,6.932,0,0,0,1.7.2,5.965,5.965,0,0,0,2.461-.44,3.1,3.1,0,0,0,1.478-1.381,6.092,6.092,0,0,0,.59-2.593h-.115a3.3,3.3,0,0,1-1.3,1.275,4.07,4.07,0,0,1-1.832.367,3.709,3.709,0,0,1-2.909-1.183,4.755,4.755,0,0,1-1.063-3.288,4.925,4.925,0,0,1,1.289-3.588,4.691,4.691,0,0,1,3.509-1.316,5.063,5.063,0,0,1,2.74.734,4.738,4.738,0,0,1,1.8,2.129A8.081,8.081,0,0,1,159.349,978.3Zm-5.106-3.794a1.773,1.773,0,0,0-1.451.636,2.841,2.841,0,0,0-.52,1.836,2.54,2.54,0,0,0,.473,1.622,1.718,1.718,0,0,0,1.437.6,2.221,2.221,0,0,0,1.557-.6,1.8,1.8,0,0,0,.645-1.366,3.1,3.1,0,0,0-.6-1.94A1.856,1.856,0,0,0,154.243,974.5Z" transform="translate(-61.554 -972.052)"/>
      <path id="Trazado_25115" data-name="Trazado 25115" d="M158.919,979a29.657,29.657,0,0,1-1.7,4.624H155.1q.631-2.567.976-4.847h2.7Z" transform="translate(-56.997 -966.734)"/>
      <path id="Trazado_25116" data-name="Trazado 25116" d="M157.785,980.394q0-4.19,1.771-6.237a6.637,6.637,0,0,1,5.307-2.048,9.618,9.618,0,0,1,1.893.144v2.386a7.707,7.707,0,0,0-1.7-.192,5.837,5.837,0,0,0-2.508.464,3.108,3.108,0,0,0-1.453,1.37,6.29,6.29,0,0,0-.57,2.578h.128a3.271,3.271,0,0,1,3.06-1.641,3.788,3.788,0,0,1,2.965,1.188,4.724,4.724,0,0,1,1.072,3.283,4.92,4.92,0,0,1-1.275,3.576,4.682,4.682,0,0,1-3.535,1.319,5.056,5.056,0,0,1-2.729-.724,4.714,4.714,0,0,1-1.8-2.114A8.073,8.073,0,0,1,157.785,980.394Zm5.1,3.8a1.765,1.765,0,0,0,1.467-.642,2.87,2.87,0,0,0,.512-1.83,2.527,2.527,0,0,0-.478-1.627,1.743,1.743,0,0,0-1.444-.593,2.22,2.22,0,0,0-1.55.588,1.808,1.808,0,0,0-.644,1.372,3.118,3.118,0,0,0,.6,1.942A1.853,1.853,0,0,0,162.884,984.2Z" transform="translate(-54.85 -972.052)"/>
      <path id="Trazado_25117" data-name="Trazado 25117" d="M169.643,979.374h-3.736V977.26h3.736V973.5h2.116v3.765H175.5v2.114h-3.738v3.718h-2.116Z" transform="translate(-48.37 -970.946)"/>
      <path id="Trazado_25118" data-name="Trazado 25118" d="M173.857,980.394q0-4.19,1.771-6.237a6.641,6.641,0,0,1,5.309-2.048,9.61,9.61,0,0,1,1.891.144v2.386a7.7,7.7,0,0,0-1.7-.192,5.829,5.829,0,0,0-2.506.464,3.112,3.112,0,0,0-1.454,1.37,6.293,6.293,0,0,0-.568,2.578h.126a3.273,3.273,0,0,1,3.06-1.641,3.788,3.788,0,0,1,2.965,1.188,4.724,4.724,0,0,1,1.072,3.283,4.92,4.92,0,0,1-1.275,3.576,4.681,4.681,0,0,1-3.535,1.319,5.046,5.046,0,0,1-2.727-.724,4.692,4.692,0,0,1-1.8-2.114A8.044,8.044,0,0,1,173.857,980.394Zm5.1,3.8a1.763,1.763,0,0,0,1.467-.642,2.87,2.87,0,0,0,.514-1.83,2.517,2.517,0,0,0-.48-1.627,1.74,1.74,0,0,0-1.444-.593,2.22,2.22,0,0,0-1.55.588,1.812,1.812,0,0,0-.642,1.372,3.106,3.106,0,0,0,.6,1.942A1.847,1.847,0,0,0,178.956,984.2Z" transform="translate(-42.027 -972.052)"/>
      <path id="Trazado_25119" data-name="Trazado 25119" d="M183.361,979a29.687,29.687,0,0,1-1.7,4.624h-2.123q.628-2.567.976-4.847h2.7Z" transform="translate(-37.495 -966.734)"/>
      <path id="Trazado_25120" data-name="Trazado 25120" d="M187.339,977.3a4.543,4.543,0,0,1,3.26,1.149,4.135,4.135,0,0,1,1.214,3.148,4.577,4.577,0,0,1-1.46,3.641,6.152,6.152,0,0,1-4.171,1.275,8.187,8.187,0,0,1-3.8-.762v-2.58a8.6,8.6,0,0,0,3.7.919q2.735,0,2.735-2.24,0-2.136-2.828-2.136a6.943,6.943,0,0,0-1.131.1,8.031,8.031,0,0,0-1.005.218l-1.187-.637.53-7.2h7.659v2.53H185.8l-.261,2.772.338-.068A6.664,6.664,0,0,1,187.339,977.3Z" transform="translate(-35.229 -971.979)"/>
      <path id="Trazado_25121" data-name="Trazado 25121" d="M194.084,979.374h-3.736V977.26h3.736V973.5H196.2v3.765h3.738v2.114H196.2v3.718h-2.116Z" transform="translate(-28.869 -970.946)"/>
      <path id="Trazado_25122" data-name="Trazado 25122" d="M199.868,986.309l5.3-11.587h-6.963V972.21h10.131v1.874L203,986.309Z" transform="translate(-22.598 -971.971)"/>
      <path id="Trazado_25123" data-name="Trazado 25123" d="M207.8,979a29.659,29.659,0,0,1-1.7,4.624h-2.125q.631-2.567.976-4.847h2.7Z" transform="translate(-17.993 -966.734)"/>
      <path id="Trazado_25124" data-name="Trazado 25124" d="M211.63,972.1a5.35,5.35,0,0,1,3.27.922,2.939,2.939,0,0,1,1.241,2.486,3.234,3.234,0,0,1-.6,1.926,5.091,5.091,0,0,1-1.931,1.512,6.837,6.837,0,0,1,2.276,1.771,3.32,3.32,0,0,1,.689,2.025,3.374,3.374,0,0,1-1.359,2.8,5.7,5.7,0,0,1-3.585,1.057,5.974,5.974,0,0,1-3.639-.985,3.272,3.272,0,0,1-1.323-2.79,3.692,3.692,0,0,1,.642-2.143,1.666,1.666,0,1,0,.324-3.283,3.583,3.583,0,0,1-.53-1.9,2.919,2.919,0,0,1,1.253-2.452A5.342,5.342,0,0,1,211.63,972.1Zm-2.2,10.545a1.564,1.564,0,0,0,.579,1.294,3.026,3.026,0,0,0,3.245-.016,1.581,1.581,0,0,0,.548-1.259,1.728,1.728,0,0,0-.543-1.214,7.076,7.076,0,0,0-1.775-1.2Q209.432,981.194,209.43,982.643Zm2.183-8.362a1.855,1.855,0,0,0-1.232.39,1.3,1.3,0,0,0-.469,1.048,1.612,1.612,0,0,0,.372,1.038,4.077,4.077,0,0,0,1.347.942,3.765,3.765,0,0,0,1.323-.908,1.646,1.646,0,0,0,.378-1.072,1.273,1.273,0,0,0-.484-1.052A1.907,1.907,0,0,0,211.612,974.281Z" transform="translate(-15.847 -972.06)"/>
    </g>
  </g>
  <g id="Grupo_14644" data-name="Grupo 14644" transform="translate(134.151 22.813)">
    <g id="Grupo_14643" data-name="Grupo 14643">
      <path id="Trazado_25125" data-name="Trazado 25125" d="M158.786,989.865a4.532,4.532,0,0,1,3.258,1.151,4.129,4.129,0,0,1,1.214,3.148,4.568,4.568,0,0,1-1.46,3.639,6.144,6.144,0,0,1-4.171,1.275,8.189,8.189,0,0,1-3.8-.762v-2.578a7.937,7.937,0,0,0,1.776.662,7.857,7.857,0,0,0,1.922.255q2.732,0,2.733-2.24,0-2.136-2.828-2.134a6.935,6.935,0,0,0-1.131.1,8.386,8.386,0,0,0-1.005.219l-1.187-.638.53-7.2h7.659v2.53h-5.043l-.259,2.772.336-.068A6.671,6.671,0,0,1,158.786,989.865Z" transform="translate(-153.822 -984.766)"/>
    </g>
  </g>
  <line id="Línea_610" data-name="Línea 610" x2="203.855" transform="translate(36.409 20.4)" fill="#fff" stroke="#000" stroke-miterlimit="10" stroke-width="0.5"/>
</svg>
