<svg id="Grupo_14638" data-name="Grupo 14638" xmlns="http://www.w3.org/2000/svg" width="58.742" height="16.85" viewBox="0 0 58.742 16.85">
  <g id="Grupo_14637" data-name="Grupo 14637">
    <path id="Trazado_25097" data-name="Trazado 25097" d="M81.249,1009.251l-3.477-5.284h3.34l2.1,3.438,2.113-3.438h3.344l-3.515,5.284,3.678,5.512H85.475l-2.267-3.7-2.28,3.7h-3.34Z" transform="translate(-77.588 -1000.463)"/>
    <path id="Trazado_25098" data-name="Trazado 25098" d="M78.08,1002.168h6.864v1.469H78.08Z" transform="translate(-77.195 -1001.898)"/>
    <path id="Trazado_25099" data-name="Trazado 25099" d="M86.124,1006.588v-2.116h9.59v2.116Zm0,3.736v-2.114h9.59v2.114Z" transform="translate(-70.777 -1000.06)"/>
    <path id="Trazado_25100" data-name="Trazado 25100" d="M97.951,1016.229l5.3-11.587H96.29v-2.512h10.131V1004l-5.342,12.226Z" transform="translate(-62.666 -1001.929)"/>
    <path id="Trazado_25101" data-name="Trazado 25101" d="M105.885,1008.917a29.654,29.654,0,0,1-1.7,4.624h-2.125q.631-2.568.976-4.847h2.7Z" transform="translate(-58.061 -996.691)"/>
    <path id="Trazado_25102" data-name="Trazado 25102" d="M109.713,1002.018a5.351,5.351,0,0,1,3.27.922,2.937,2.937,0,0,1,1.241,2.487,3.234,3.234,0,0,1-.6,1.925,5.091,5.091,0,0,1-1.931,1.512,6.837,6.837,0,0,1,2.276,1.771,3.32,3.32,0,0,1,.689,2.025,3.375,3.375,0,0,1-1.359,2.8,5.7,5.7,0,0,1-3.585,1.057,5.975,5.975,0,0,1-3.639-.985,3.272,3.272,0,0,1-1.323-2.79,3.692,3.692,0,0,1,.642-2.143,1.667,1.667,0,1,0,.324-3.285,3.572,3.572,0,0,1-.53-1.9,2.919,2.919,0,0,1,1.253-2.452A5.343,5.343,0,0,1,109.713,1002.018Zm-2.2,10.545a1.564,1.564,0,0,0,.579,1.295,3.025,3.025,0,0,0,3.245-.016,1.582,1.582,0,0,0,.548-1.259,1.728,1.728,0,0,0-.543-1.213,7.073,7.073,0,0,0-1.775-1.2Q107.515,1011.114,107.513,1012.563Zm2.183-8.362a1.856,1.856,0,0,0-1.232.39,1.3,1.3,0,0,0-.469,1.048,1.611,1.611,0,0,0,.372,1.037,4.074,4.074,0,0,0,1.347.942,3.765,3.765,0,0,0,1.323-.908,1.646,1.646,0,0,0,.378-1.072,1.272,1.272,0,0,0-.484-1.052A1.908,1.908,0,0,0,109.7,1004.2Z" transform="translate(-55.915 -1002.018)"/>
  </g>
</svg>
