<svg id="Grupo_14582" data-name="Grupo 14582" xmlns="http://www.w3.org/2000/svg" width="590.4" height="157.681" viewBox="0 0 590.4 157.681">
  <g id="Grupo_14581" data-name="Grupo 14581">
    <path id="Trazado_24732" data-name="Trazado 24732" d="M82.052,1494.336a6.942,6.942,0,0,1-1.987,5.338,8.085,8.085,0,0,1-5.73,1.855h-4v-14.117h4.432a7.46,7.46,0,0,1,5.368,1.825A6.715,6.715,0,0,1,82.052,1494.336Zm-3.112.078q0-4.55-4.016-4.551H73.33v9.195h1.284Q78.943,1499.057,78.94,1494.413Z" transform="translate(-70.105 -1486.502)"/>
    <path id="Trazado_24733" data-name="Trazado 24733" d="M88.453,1494.729a5.8,5.8,0,0,1-1.392,4.124,5.041,5.041,0,0,1-3.873,1.485,5.39,5.39,0,0,1-2.742-.682,4.519,4.519,0,0,1-1.825-1.954,6.574,6.574,0,0,1-.636-2.974,5.779,5.779,0,0,1,1.379-4.113,5.073,5.073,0,0,1,3.883-1.469,5.451,5.451,0,0,1,2.744.676,4.524,4.524,0,0,1,1.823,1.942A6.5,6.5,0,0,1,88.453,1494.729Zm-7.465,0a4.522,4.522,0,0,0,.527,2.425,1.886,1.886,0,0,0,1.713.82,1.855,1.855,0,0,0,1.7-.816,4.608,4.608,0,0,0,.516-2.429,4.46,4.46,0,0,0-.521-2.4,2.216,2.216,0,0,0-3.407-.007A4.451,4.451,0,0,0,80.988,1494.729Z" transform="translate(-64.002 -1485.119)"/>
    <path id="Trazado_24734" data-name="Trazado 24734" d="M95.127,1500.146H92.182v-6.305a3.024,3.024,0,0,0-.415-1.754,1.512,1.512,0,0,0-1.323-.583,1.984,1.984,0,0,0-1.785.825,5.128,5.128,0,0,0-.55,2.738v5.079H85.161v-10.795h2.251l.4,1.379h.164a3.127,3.127,0,0,1,1.357-1.183,4.623,4.623,0,0,1,1.965-.4,3.773,3.773,0,0,1,2.857,1.02,4.082,4.082,0,0,1,.976,2.941Z" transform="translate(-58.277 -1485.119)"/>
    <path id="Trazado_24735" data-name="Trazado 24735" d="M96.1,1502.125a3.505,3.505,0,0,1-2.988-1.476,8.28,8.28,0,0,1,.02-8.233,3.6,3.6,0,0,1,3.046-1.483,3.521,3.521,0,0,1,3.11,1.584h.1a12.085,12.085,0,0,1-.223-2.152v-3.459h2.958v15.027H99.856l-.568-1.4H99.16A3.366,3.366,0,0,1,96.1,1502.125Zm1.034-2.346a1.994,1.994,0,0,0,1.656-.656,3.809,3.809,0,0,0,.575-2.229v-.32a4.433,4.433,0,0,0-.536-2.492,2,2,0,0,0-1.744-.751,1.726,1.726,0,0,0-1.53.834,4.447,4.447,0,0,0-.545,2.429,4.206,4.206,0,0,0,.55,2.39A1.8,1.8,0,0,0,97.134,1499.779Z" transform="translate(-52.8 -1486.906)"/>
    <path id="Trazado_24736" data-name="Trazado 24736" d="M104.53,1500.338a5.57,5.57,0,0,1-4.076-1.438,5.451,5.451,0,0,1-1.467-4.074,6,6,0,0,1,1.357-4.2,4.831,4.831,0,0,1,3.75-1.483,4.768,4.768,0,0,1,3.563,1.3,4.934,4.934,0,0,1,1.275,3.6v1.429h-6.961a2.823,2.823,0,0,0,.743,1.96,2.617,2.617,0,0,0,1.951.7,8.01,8.01,0,0,0,1.843-.2,9.2,9.2,0,0,0,1.816-.645v2.278a6.99,6.99,0,0,1-1.65.577A10.673,10.673,0,0,1,104.53,1500.338Zm-.417-9.094a1.865,1.865,0,0,0-1.467.593,2.737,2.737,0,0,0-.608,1.685h4.133a2.46,2.46,0,0,0-.57-1.685A1.928,1.928,0,0,0,104.113,1491.244Z" transform="translate(-47.246 -1485.119)"/>
    <path id="Trazado_24737" data-name="Trazado 24737" d="M105.62,1490.789a1.618,1.618,0,0,1,.435-1.228,1.77,1.77,0,0,1,1.266-.415,1.7,1.7,0,0,1,1.239.426,1.886,1.886,0,0,1-.009,2.429,1.711,1.711,0,0,1-1.23.43,1.736,1.736,0,0,1-1.257-.426A1.6,1.6,0,0,1,105.62,1490.789Zm0,7.975a1.613,1.613,0,0,1,.435-1.226,1.762,1.762,0,0,1,1.266-.415,1.712,1.712,0,0,1,1.239.424,1.879,1.879,0,0,1,0,2.418,1.673,1.673,0,0,1-1.235.441,1.731,1.731,0,0,1-1.257-.43A1.6,1.6,0,0,1,105.62,1498.765Z" transform="translate(-41.953 -1485.119)"/>
    <path id="Trazado_24738" data-name="Trazado 24738" d="M109.064,1507.741l-3.477-5.282h3.34l2.1,3.437,2.113-3.437h3.344l-3.515,5.282,3.678,5.516H113.29l-2.267-3.7-2.28,3.7H105.4Z" transform="translate(-42.126 -1474.497)"/>
    <path id="Trazado_24739" data-name="Trazado 24739" d="M112.337,1503.989a1.616,1.616,0,0,1,.433-1.226,1.767,1.767,0,0,1,1.268-.415,1.714,1.714,0,0,1,1.239.424,1.886,1.886,0,0,1-.009,2.429,1.7,1.7,0,0,1-1.23.43,1.757,1.757,0,0,1-1.259-.424A1.613,1.613,0,0,1,112.337,1503.989Zm0,7.975a1.619,1.619,0,0,1,.433-1.226,1.767,1.767,0,0,1,1.268-.416,1.7,1.7,0,0,1,1.239.426,1.879,1.879,0,0,1,0,2.418,1.692,1.692,0,0,1-1.235.439,1.749,1.749,0,0,1-1.259-.428A1.617,1.617,0,0,1,112.337,1511.964Z" transform="translate(-36.594 -1474.586)"/>
    <path id="Trazado_24740" data-name="Trazado 24740" d="M123.74,1513.539a5.569,5.569,0,0,1-4.076-1.44,5.447,5.447,0,0,1-1.467-4.074,5.993,5.993,0,0,1,1.356-4.195,4.825,4.825,0,0,1,3.752-1.483,4.754,4.754,0,0,1,3.563,1.3,4.935,4.935,0,0,1,1.275,3.6v1.429h-6.961a2.83,2.83,0,0,0,.743,1.962,2.619,2.619,0,0,0,1.951.7,8.217,8.217,0,0,0,1.843-.2,9.315,9.315,0,0,0,1.816-.647v2.278a6.932,6.932,0,0,1-1.65.575A10.4,10.4,0,0,1,123.74,1513.539Zm-.417-9.1a1.875,1.875,0,0,0-1.467.593,2.746,2.746,0,0,0-.608,1.685h4.133a2.467,2.467,0,0,0-.57-1.685A1.941,1.941,0,0,0,123.323,1504.442Z" transform="translate(-31.918 -1474.586)"/>
    <path id="Trazado_24741" data-name="Trazado 24741" d="M132.884,1510.141a2.974,2.974,0,0,1-1.152,2.528,5.712,5.712,0,0,1-3.454.87,10.531,10.531,0,0,1-2.008-.162,7.45,7.45,0,0,1-1.555-.466v-2.434a10.273,10.273,0,0,0,1.85.647,7.452,7.452,0,0,0,1.81.261q1.6,0,1.6-.927a.771.771,0,0,0-.21-.563,3.07,3.07,0,0,0-.734-.494c-.349-.183-.811-.4-1.392-.642a8.649,8.649,0,0,1-1.83-.966,2.728,2.728,0,0,1-.85-1.019,3.348,3.348,0,0,1-.264-1.415,2.561,2.561,0,0,1,1.115-2.224,5.418,5.418,0,0,1,3.162-.787,8.979,8.979,0,0,1,3.8.849l-.888,2.125q-.812-.348-1.517-.57a4.776,4.776,0,0,0-1.438-.221q-1.3,0-1.3.7a.826.826,0,0,0,.421.685,11.439,11.439,0,0,0,1.839.861,8.6,8.6,0,0,1,1.855.955,2.816,2.816,0,0,1,.867,1.023A3.12,3.12,0,0,1,132.884,1510.141Z" transform="translate(-26.733 -1474.586)"/>
    <path id="Trazado_24742" data-name="Trazado 24742" d="M136.333,1515.134h-2.947v-15.027h2.947Z" transform="translate(-19.799 -1476.373)"/>
    <path id="Trazado_24743" data-name="Trazado 24743" d="M143.916,1513.355l-.57-1.469h-.077a4.373,4.373,0,0,1-1.53,1.3,4.992,4.992,0,0,1-2.053.361,3.319,3.319,0,0,1-2.447-.888,3.417,3.417,0,0,1-.894-2.531,2.851,2.851,0,0,1,1.2-2.535,6.985,6.985,0,0,1,3.626-.9l1.873-.056v-.475a1.468,1.468,0,0,0-1.681-1.641,7.675,7.675,0,0,0-3.042.78l-.974-1.987a8.767,8.767,0,0,1,4.132-.976,5.158,5.158,0,0,1,3.331.946,3.5,3.5,0,0,1,1.16,2.878v7.2Zm-.868-5-1.14.038a3.668,3.668,0,0,0-1.913.464,1.462,1.462,0,0,0-.627,1.3q0,1.243,1.429,1.244a2.272,2.272,0,0,0,1.638-.588,2.075,2.075,0,0,0,.613-1.566Z" transform="translate(-17.438 -1474.595)"/>
    <path id="Trazado_24744" data-name="Trazado 24744" d="M155.911,1513.346h-2.945v-6.307a3.175,3.175,0,0,0-.392-1.753,1.378,1.378,0,0,0-1.232-.584,1.783,1.783,0,0,0-1.641.831,5.47,5.47,0,0,0-.511,2.733v5.081h-2.947v-10.8h2.251l.4,1.382h.164a2.991,2.991,0,0,1,1.257-1.165,4.064,4.064,0,0,1,1.882-.419,3.392,3.392,0,0,1,3.283,1.584h.261a2.9,2.9,0,0,1,1.28-1.169,4.264,4.264,0,0,1,1.908-.415,3.756,3.756,0,0,1,2.776.942,4.128,4.128,0,0,1,.942,3.016v7.041h-2.956v-6.307a3.159,3.159,0,0,0-.392-1.753,1.375,1.375,0,0,0-1.23-.584,1.837,1.837,0,0,0-1.618.773,4.374,4.374,0,0,0-.536,2.452Z" transform="translate(-9.54 -1474.586)"/>
    <path id="Trazado_24745" data-name="Trazado 24745" d="M162.223,1513.539a5.569,5.569,0,0,1-4.076-1.44,5.447,5.447,0,0,1-1.467-4.074,5.985,5.985,0,0,1,1.357-4.195,4.822,4.822,0,0,1,3.752-1.483,4.75,4.75,0,0,1,3.562,1.3,4.927,4.927,0,0,1,1.275,3.6v1.429h-6.961a2.838,2.838,0,0,0,.743,1.962,2.619,2.619,0,0,0,1.951.7,8.233,8.233,0,0,0,1.845-.2,9.26,9.26,0,0,0,1.814-.647v2.278a6.9,6.9,0,0,1-1.65.575A10.391,10.391,0,0,1,162.223,1513.539Zm-.415-9.1a1.878,1.878,0,0,0-1.469.593,2.768,2.768,0,0,0-.608,1.685h4.133a2.467,2.467,0,0,0-.568-1.685A1.943,1.943,0,0,0,161.808,1504.442Z" transform="translate(-1.213 -1474.586)"/>
    <path id="Trazado_24746" data-name="Trazado 24746" d="M167.255,1515.326a3.509,3.509,0,0,1-2.99-1.478,8.275,8.275,0,0,1,.02-8.23,3.587,3.587,0,0,1,3.047-1.483,3.522,3.522,0,0,1,3.109,1.584h.1a12.134,12.134,0,0,1-.223-2.156v-3.455h2.956v15.027h-2.262l-.568-1.4h-.126A3.372,3.372,0,0,1,167.255,1515.326Zm1.034-2.346a2,2,0,0,0,1.656-.658,3.824,3.824,0,0,0,.574-2.231v-.318a4.422,4.422,0,0,0-.536-2.49,1.989,1.989,0,0,0-1.744-.753,1.73,1.73,0,0,0-1.53.834,4.464,4.464,0,0,0-.545,2.429,4.236,4.236,0,0,0,.55,2.391A1.8,1.8,0,0,0,168.289,1512.98Z" transform="translate(3.973 -1476.373)"/>
    <path id="Trazado_24747" data-name="Trazado 24747" d="M170.435,1501.545q0-1.44,1.6-1.438t1.6,1.438a1.394,1.394,0,0,1-.4,1.066,1.667,1.667,0,0,1-1.2.383Q170.437,1502.995,170.435,1501.545Zm3.073,13.589h-2.947v-10.8h2.947Z" transform="translate(9.762 -1476.373)"/>
    <path id="Trazado_24748" data-name="Trazado 24748" d="M181.035,1513.355l-.57-1.469h-.077a4.373,4.373,0,0,1-1.53,1.3,4.989,4.989,0,0,1-2.051.361,3.32,3.32,0,0,1-2.449-.888,3.417,3.417,0,0,1-.894-2.531,2.851,2.851,0,0,1,1.2-2.535,6.985,6.985,0,0,1,3.626-.9l1.873-.056v-.475a1.468,1.468,0,0,0-1.681-1.641,7.682,7.682,0,0,0-3.042.78l-.974-1.987a8.769,8.769,0,0,1,4.133-.976,5.156,5.156,0,0,1,3.33.946,3.5,3.5,0,0,1,1.16,2.878v7.2Zm-.868-5-1.14.038a3.668,3.668,0,0,0-1.913.464,1.462,1.462,0,0,0-.627,1.3q0,1.243,1.429,1.244a2.269,2.269,0,0,0,1.638-.588,2.075,2.075,0,0,0,.613-1.566Z" transform="translate(12.179 -1474.595)"/>
    <path id="Trazado_24749" data-name="Trazado 24749" d="M190.537,1513.355l-.57-1.469h-.077a4.373,4.373,0,0,1-1.53,1.3,4.988,4.988,0,0,1-2.051.361,3.32,3.32,0,0,1-2.449-.888,3.417,3.417,0,0,1-.894-2.531,2.851,2.851,0,0,1,1.2-2.535,6.985,6.985,0,0,1,3.626-.9l1.873-.056v-.475a1.468,1.468,0,0,0-1.681-1.641,7.682,7.682,0,0,0-3.042.78l-.974-1.987a8.769,8.769,0,0,1,4.133-.976,5.156,5.156,0,0,1,3.33.946,3.5,3.5,0,0,1,1.16,2.878v7.2Zm-.868-5-1.14.038a3.669,3.669,0,0,0-1.913.464,1.462,1.462,0,0,0-.627,1.3q0,1.243,1.429,1.244a2.269,2.269,0,0,0,1.638-.588,2.075,2.075,0,0,0,.613-1.566Z" transform="translate(19.76 -1474.595)"/>
    <path id="Trazado_24750" data-name="Trazado 24750" d="M196.035,1502.347a4.756,4.756,0,0,1,.992.086l-.221,2.763a3.348,3.348,0,0,0-.868-.1,3.128,3.128,0,0,0-2.2.725,2.618,2.618,0,0,0-.786,2.028v5.5h-2.947v-10.8h2.229l.437,1.816h.144a4.06,4.06,0,0,1,1.356-1.462A3.341,3.341,0,0,1,196.035,1502.347Z" transform="translate(25.379 -1474.586)"/>
    <path id="Trazado_24751" data-name="Trazado 24751" d="M194.933,1501.545q0-1.44,1.6-1.438t1.6,1.438a1.394,1.394,0,0,1-.4,1.066,1.667,1.667,0,0,1-1.2.383Q194.935,1502.995,194.933,1501.545Zm3.073,13.589h-2.947v-10.8h2.947Z" transform="translate(29.309 -1476.373)"/>
    <path id="Trazado_24752" data-name="Trazado 24752" d="M203.392,1512.122a6.339,6.339,0,0,0,1.854-.34v2.193a6.626,6.626,0,0,1-2.7.493,3.3,3.3,0,0,1-2.571-.9,3.88,3.88,0,0,1-.807-2.679v-5.205h-1.411v-1.246l1.624-.983.849-2.278h1.884v2.3h3.022v2.211h-3.022v5.205a1.155,1.155,0,0,0,.352.928A1.389,1.389,0,0,0,203.392,1512.122Z" transform="translate(31.558 -1475.516)"/>
    <path id="Trazado_24753" data-name="Trazado 24753" d="M212.8,1513.346h-2.947v-6.307a3.177,3.177,0,0,0-.39-1.753,1.378,1.378,0,0,0-1.232-.584,1.781,1.781,0,0,0-1.641.831,5.451,5.451,0,0,0-.511,2.733v5.081h-2.947v-10.8h2.251l.4,1.382h.164a2.991,2.991,0,0,1,1.257-1.165,4.059,4.059,0,0,1,1.882-.419,3.394,3.394,0,0,1,3.283,1.584h.259a2.912,2.912,0,0,1,1.28-1.169,4.272,4.272,0,0,1,1.909-.415,3.762,3.762,0,0,1,2.776.942,4.136,4.136,0,0,1,.94,3.016v7.041h-2.954v-6.307a3.175,3.175,0,0,0-.392-1.753,1.378,1.378,0,0,0-1.232-.584,1.836,1.836,0,0,0-1.616.773,4.375,4.375,0,0,0-.536,2.452Z" transform="translate(35.853 -1474.586)"/>
    <path id="Trazado_24754" data-name="Trazado 24754" d="M219.114,1515.382a5.569,5.569,0,0,1-4.076-1.44,5.447,5.447,0,0,1-1.467-4.074,5.993,5.993,0,0,1,1.356-4.195,4.825,4.825,0,0,1,3.752-1.483,4.755,4.755,0,0,1,3.563,1.3,4.927,4.927,0,0,1,1.275,3.6v1.43h-6.961a2.83,2.83,0,0,0,.743,1.962,2.619,2.619,0,0,0,1.951.7,8.21,8.21,0,0,0,1.843-.2,9.292,9.292,0,0,0,1.816-.647v2.278a6.944,6.944,0,0,1-1.65.575A10.4,10.4,0,0,1,219.114,1515.382Zm-.417-9.1a1.874,1.874,0,0,0-1.467.593,2.744,2.744,0,0,0-.608,1.685h4.133a2.466,2.466,0,0,0-.57-1.685A1.94,1.94,0,0,0,218.7,1506.285Zm-1.7-3.08v-.26a27.441,27.441,0,0,0,2.271-2.907h3.3v.2q-.5.5-1.713,1.492c-.807.66-1.44,1.149-1.9,1.473Z" transform="translate(44.18 -1476.429)"/>
    <path id="Trazado_24755" data-name="Trazado 24755" d="M225.467,1512.122a6.338,6.338,0,0,0,1.854-.34v2.193a6.623,6.623,0,0,1-2.7.493,3.3,3.3,0,0,1-2.573-.9,3.88,3.88,0,0,1-.805-2.679v-5.205h-1.413v-1.246l1.623-.983.849-2.278h1.884v2.3h3.022v2.211h-3.022v5.205a1.15,1.15,0,0,0,.354.928A1.381,1.381,0,0,0,225.467,1512.122Z" transform="translate(49.171 -1475.516)"/>
    <path id="Trazado_24756" data-name="Trazado 24756" d="M225.139,1501.545q0-1.44,1.605-1.438t1.6,1.438a1.4,1.4,0,0,1-.4,1.066,1.673,1.673,0,0,1-1.2.383Q225.14,1502.995,225.139,1501.545Zm3.073,13.589h-2.947v-10.8h2.947Z" transform="translate(53.41 -1476.373)"/>
    <path id="Trazado_24757" data-name="Trazado 24757" d="M233.242,1513.539q-5.04,0-5.041-5.534a5.9,5.9,0,0,1,1.372-4.207,5.151,5.151,0,0,1,3.932-1.451,7.482,7.482,0,0,1,3.36.733l-.872,2.278c-.462-.187-.894-.338-1.291-.457a4.153,4.153,0,0,0-1.2-.179q-2.3,0-2.3,3.263,0,3.168,2.3,3.168a5.253,5.253,0,0,0,1.573-.227,5.728,5.728,0,0,0,1.447-.708v2.519a4.713,4.713,0,0,1-1.442.628A8.178,8.178,0,0,1,233.242,1513.539Z" transform="translate(55.853 -1474.586)"/>
    <path id="Trazado_24758" data-name="Trazado 24758" d="M241.4,1513.355l-.57-1.469h-.077a4.357,4.357,0,0,1-1.53,1.3,4.982,4.982,0,0,1-2.051.361,3.319,3.319,0,0,1-2.447-.888,3.418,3.418,0,0,1-.9-2.531,2.851,2.851,0,0,1,1.2-2.535,7,7,0,0,1,3.626-.9l1.873-.056v-.475a1.468,1.468,0,0,0-1.681-1.641,7.69,7.69,0,0,0-3.042.78l-.974-1.987a8.769,8.769,0,0,1,4.133-.976,5.149,5.149,0,0,1,3.33.946,3.5,3.5,0,0,1,1.16,2.878v7.2Zm-.868-5-1.14.038a3.661,3.661,0,0,0-1.911.464,1.459,1.459,0,0,0-.629,1.3c0,.829.478,1.244,1.429,1.244a2.266,2.266,0,0,0,1.638-.588,2.069,2.069,0,0,0,.613-1.566Z" transform="translate(60.34 -1474.595)"/>
    <path id="Trazado_24759" data-name="Trazado 24759" d="M247.434,1515.326a3.506,3.506,0,0,1-2.988-1.478,8.275,8.275,0,0,1,.02-8.23,3.586,3.586,0,0,1,3.046-1.483,3.525,3.525,0,0,1,3.11,1.584h.1a12.135,12.135,0,0,1-.223-2.156v-3.455h2.958v15.027H251.19l-.568-1.4h-.128A3.37,3.37,0,0,1,247.434,1515.326Zm1.034-2.346a2,2,0,0,0,1.656-.658,3.809,3.809,0,0,0,.575-2.231v-.318a4.422,4.422,0,0,0-.536-2.49,1.991,1.991,0,0,0-1.744-.753,1.73,1.73,0,0,0-1.53.834,4.448,4.448,0,0,0-.545,2.429,4.237,4.237,0,0,0,.548,2.391A1.8,1.8,0,0,0,248.468,1512.98Z" transform="translate(67.948 -1476.373)"/>
    <path id="Trazado_24760" data-name="Trazado 24760" d="M255.864,1513.539a5.569,5.569,0,0,1-4.076-1.44,5.447,5.447,0,0,1-1.467-4.074,5.993,5.993,0,0,1,1.356-4.195,4.825,4.825,0,0,1,3.752-1.483,4.754,4.754,0,0,1,3.563,1.3,4.927,4.927,0,0,1,1.275,3.6v1.429h-6.961a2.83,2.83,0,0,0,.743,1.962,2.619,2.619,0,0,0,1.951.7,8.217,8.217,0,0,0,1.843-.2,9.315,9.315,0,0,0,1.816-.647v2.278a6.933,6.933,0,0,1-1.651.575A10.4,10.4,0,0,1,255.864,1513.539Zm-.417-9.1a1.875,1.875,0,0,0-1.467.593,2.746,2.746,0,0,0-.608,1.685h4.133a2.467,2.467,0,0,0-.57-1.685A1.94,1.94,0,0,0,255.447,1504.442Z" transform="translate(73.502 -1474.586)"/>
    <path id="Trazado_24761" data-name="Trazado 24761" d="M260.132,1515.134h-2.947v-15.027h2.947Z" transform="translate(78.979 -1476.373)"/>
    <path id="Trazado_24762" data-name="Trazado 24762" d="M268.074,1513.539q-5.04,0-5.041-5.534a5.9,5.9,0,0,1,1.372-4.207,5.151,5.151,0,0,1,3.932-1.451,7.482,7.482,0,0,1,3.36.733l-.872,2.278c-.462-.187-.894-.338-1.291-.457a4.153,4.153,0,0,0-1.2-.179q-2.3,0-2.3,3.263,0,3.168,2.3,3.168a5.253,5.253,0,0,0,1.573-.227,5.728,5.728,0,0,0,1.447-.708v2.519a4.711,4.711,0,0,1-1.442.628A8.177,8.177,0,0,1,268.074,1513.539Z" transform="translate(83.645 -1474.586)"/>
    <path id="Trazado_24763" data-name="Trazado 24763" d="M279.157,1507.927a5.8,5.8,0,0,1-1.39,4.123,5.043,5.043,0,0,1-3.874,1.489,5.429,5.429,0,0,1-2.742-.682,4.534,4.534,0,0,1-1.825-1.956,6.568,6.568,0,0,1-.637-2.974,5.779,5.779,0,0,1,1.379-4.114,5.08,5.08,0,0,1,3.883-1.467,5.468,5.468,0,0,1,2.744.676,4.52,4.52,0,0,1,1.825,1.942A6.5,6.5,0,0,1,279.157,1507.927Zm-7.465,0a4.516,4.516,0,0,0,.527,2.424,1.88,1.88,0,0,0,1.713.822,1.857,1.857,0,0,0,1.7-.815,4.6,4.6,0,0,0,.516-2.431,4.457,4.457,0,0,0-.521-2.405,2.217,2.217,0,0,0-3.407,0A4.445,4.445,0,0,0,271.692,1507.927Z" transform="translate(88.159 -1474.586)"/>
    <path id="Trazado_24764" data-name="Trazado 24764" d="M285.83,1513.346h-2.945v-6.307a3.014,3.014,0,0,0-.415-1.753,1.514,1.514,0,0,0-1.323-.584,1.989,1.989,0,0,0-1.785.827,5.114,5.114,0,0,0-.55,2.737v5.081h-2.945v-10.8h2.249l.4,1.382h.164a3.139,3.139,0,0,1,1.357-1.183,4.606,4.606,0,0,1,1.965-.4,3.768,3.768,0,0,1,2.859,1.019,4.08,4.08,0,0,1,.975,2.939Z" transform="translate(93.884 -1474.586)"/>
    <path id="Trazado_24765" data-name="Trazado 24765" d="M283.473,1519.884a6.824,6.824,0,0,1-1.94-.241v-2.318a5.231,5.231,0,0,0,1.379.182,1.334,1.334,0,0,0,1.088-.413,1.892,1.892,0,0,0,.342-1.226v-11.532h2.947V1516.3a3.451,3.451,0,0,1-1,2.65A3.967,3.967,0,0,1,283.473,1519.884Zm.743-18.339q0-1.44,1.6-1.438t1.6,1.438a1.394,1.394,0,0,1-.4,1.066,1.667,1.667,0,0,1-1.2.383Q284.217,1502.995,284.215,1501.545Z" transform="translate(98.406 -1476.373)"/>
    <path id="Trazado_24766" data-name="Trazado 24766" d="M294.125,1513.257l-.4-1.382h-.155a3.1,3.1,0,0,1-1.341,1.165,4.6,4.6,0,0,1-1.981.41,3.777,3.777,0,0,1-2.868-1.018,4.107,4.107,0,0,1-.965-2.932v-7.04h2.945v6.307a3.021,3.021,0,0,0,.415,1.751,1.514,1.514,0,0,0,1.323.586,1.99,1.99,0,0,0,1.787-.827,5.11,5.11,0,0,0,.552-2.736v-5.081h2.943v10.8Z" transform="translate(102.305 -1474.497)"/>
    <path id="Trazado_24767" data-name="Trazado 24767" d="M303.647,1513.346H300.7v-6.307a3.029,3.029,0,0,0-.413-1.753,1.519,1.519,0,0,0-1.325-.584,1.989,1.989,0,0,0-1.785.827,5.116,5.116,0,0,0-.548,2.737v5.081h-2.947v-10.8h2.251l.4,1.382h.162a3.14,3.14,0,0,1,1.357-1.183,4.618,4.618,0,0,1,1.965-.4,3.765,3.765,0,0,1,2.859,1.019,4.081,4.081,0,0,1,.976,2.939Z" transform="translate(108.099 -1474.586)"/>
    <path id="Trazado_24768" data-name="Trazado 24768" d="M305.943,1512.122a6.339,6.339,0,0,0,1.854-.34v2.193a6.626,6.626,0,0,1-2.7.493,3.306,3.306,0,0,1-2.573-.9,3.889,3.889,0,0,1-.805-2.679v-5.205H300.3v-1.246l1.622-.983.85-2.278h1.884v2.3h3.022v2.211h-3.022v5.205a1.149,1.149,0,0,0,.352.928A1.389,1.389,0,0,0,305.943,1512.122Z" transform="translate(113.382 -1475.516)"/>
    <path id="Trazado_24769" data-name="Trazado 24769" d="M315.788,1507.927a5.794,5.794,0,0,1-1.392,4.123,5.036,5.036,0,0,1-3.873,1.489,5.428,5.428,0,0,1-2.742-.682,4.524,4.524,0,0,1-1.825-1.956,6.57,6.57,0,0,1-.636-2.974,5.771,5.771,0,0,1,1.379-4.114,5.08,5.08,0,0,1,3.883-1.467,5.467,5.467,0,0,1,2.744.676,4.505,4.505,0,0,1,1.823,1.942A6.479,6.479,0,0,1,315.788,1507.927Zm-7.465,0a4.535,4.535,0,0,0,.525,2.424,1.885,1.885,0,0,0,1.715.822,1.857,1.857,0,0,0,1.7-.815,4.616,4.616,0,0,0,.516-2.431,4.474,4.474,0,0,0-.521-2.405,2.217,2.217,0,0,0-3.407,0A4.446,4.446,0,0,0,308.323,1507.927Z" transform="translate(117.386 -1474.586)"/>
    <path id="Trazado_24770" data-name="Trazado 24770" d="M319.063,1515.326a3.5,3.5,0,0,1-2.988-1.478,8.276,8.276,0,0,1,.02-8.23,3.583,3.583,0,0,1,3.046-1.483,3.525,3.525,0,0,1,3.11,1.584h.1a12.135,12.135,0,0,1-.223-2.156v-3.455h2.957v15.027h-2.262l-.568-1.4h-.128A3.37,3.37,0,0,1,319.063,1515.326Zm1.034-2.346a2,2,0,0,0,1.656-.658,3.809,3.809,0,0,0,.575-2.231v-.318a4.422,4.422,0,0,0-.536-2.49,1.991,1.991,0,0,0-1.744-.753,1.735,1.735,0,0,0-1.532.834,4.465,4.465,0,0,0-.543,2.429,4.237,4.237,0,0,0,.548,2.391A1.8,1.8,0,0,0,320.1,1512.98Z" transform="translate(125.1 -1476.373)"/>
    <path id="Trazado_24771" data-name="Trazado 24771" d="M327.493,1513.539a5.569,5.569,0,0,1-4.076-1.44,5.447,5.447,0,0,1-1.467-4.074,5.984,5.984,0,0,1,1.356-4.195,4.825,4.825,0,0,1,3.752-1.483,4.754,4.754,0,0,1,3.563,1.3,4.935,4.935,0,0,1,1.275,3.6v1.429h-6.961a2.83,2.83,0,0,0,.743,1.962,2.619,2.619,0,0,0,1.951.7,8.216,8.216,0,0,0,1.843-.2,9.317,9.317,0,0,0,1.816-.647v2.278a6.933,6.933,0,0,1-1.651.575A10.4,10.4,0,0,1,327.493,1513.539Zm-.417-9.1a1.875,1.875,0,0,0-1.467.593,2.746,2.746,0,0,0-.608,1.685h4.133a2.467,2.467,0,0,0-.57-1.685A1.941,1.941,0,0,0,327.076,1504.442Z" transform="translate(130.654 -1474.586)"/>
    <path id="Trazado_24772" data-name="Trazado 24772" d="M334.618,1515.134h-2.947v-15.027h2.947Z" transform="translate(138.411 -1476.373)"/>
    <path id="Trazado_24773" data-name="Trazado 24773" d="M345.131,1507.927a5.794,5.794,0,0,1-1.392,4.123,5.036,5.036,0,0,1-3.873,1.489,5.428,5.428,0,0,1-2.742-.682,4.524,4.524,0,0,1-1.825-1.956,6.57,6.57,0,0,1-.638-2.974,5.772,5.772,0,0,1,1.381-4.114,5.078,5.078,0,0,1,3.883-1.467,5.472,5.472,0,0,1,2.744.676,4.506,4.506,0,0,1,1.823,1.942A6.478,6.478,0,0,1,345.131,1507.927Zm-7.467,0a4.533,4.533,0,0,0,.527,2.424,1.884,1.884,0,0,0,1.713.822,1.86,1.86,0,0,0,1.7-.815,4.616,4.616,0,0,0,.516-2.431,4.474,4.474,0,0,0-.521-2.405,2.219,2.219,0,0,0-3.409,0A4.462,4.462,0,0,0,337.664,1507.927Z" transform="translate(140.797 -1474.586)"/>
    <path id="Trazado_24774" data-name="Trazado 24774" d="M349.662,1510.141a2.97,2.97,0,0,1-1.154,2.528,5.708,5.708,0,0,1-3.454.87,10.558,10.558,0,0,1-2.008-.162,7.4,7.4,0,0,1-1.553-.466v-2.434a10.2,10.2,0,0,0,1.848.647,7.466,7.466,0,0,0,1.812.261q1.6,0,1.6-.927a.771.771,0,0,0-.21-.563,3.069,3.069,0,0,0-.734-.494q-.521-.275-1.39-.642a8.671,8.671,0,0,1-1.832-.966,2.728,2.728,0,0,1-.85-1.019,3.377,3.377,0,0,1-.264-1.415,2.561,2.561,0,0,1,1.115-2.224,5.419,5.419,0,0,1,3.163-.787,8.973,8.973,0,0,1,3.8.849l-.888,2.125q-.812-.348-1.517-.57a4.768,4.768,0,0,0-1.438-.221q-1.3,0-1.3.7a.826.826,0,0,0,.421.685,11.484,11.484,0,0,0,1.841.861,8.621,8.621,0,0,1,1.854.955,2.8,2.8,0,0,1,.867,1.023A3.12,3.12,0,0,1,349.662,1510.141Z" transform="translate(146.232 -1474.586)"/>
    <path id="Trazado_24775" data-name="Trazado 24775" d="M353.874,1515.326a3.5,3.5,0,0,1-2.988-1.478,8.269,8.269,0,0,1,.018-8.23,3.589,3.589,0,0,1,3.047-1.483,3.52,3.52,0,0,1,3.109,1.584h.1a12.137,12.137,0,0,1-.223-2.156v-3.455h2.956v15.027h-2.26l-.57-1.4h-.126A3.372,3.372,0,0,1,353.874,1515.326Zm1.034-2.346a2,2,0,0,0,1.656-.658,3.811,3.811,0,0,0,.573-2.231v-.318a4.406,4.406,0,0,0-.536-2.49,1.988,1.988,0,0,0-1.742-.753,1.731,1.731,0,0,0-1.532.834,4.464,4.464,0,0,0-.545,2.429,4.236,4.236,0,0,0,.55,2.391A1.8,1.8,0,0,0,354.908,1512.98Z" transform="translate(152.874 -1476.373)"/>
    <path id="Trazado_24776" data-name="Trazado 24776" d="M364.3,1513.355l-.572-1.469h-.077a4.353,4.353,0,0,1-1.528,1.3,4.991,4.991,0,0,1-2.053.361,3.319,3.319,0,0,1-2.447-.888,3.417,3.417,0,0,1-.894-2.531,2.851,2.851,0,0,1,1.2-2.535,6.983,6.983,0,0,1,3.625-.9l1.873-.056v-.475a1.467,1.467,0,0,0-1.679-1.641,7.69,7.69,0,0,0-3.044.78l-.974-1.987a8.774,8.774,0,0,1,4.133-.976,5.158,5.158,0,0,1,3.331.946,3.5,3.5,0,0,1,1.158,2.878v7.2Zm-.87-5-1.138.038a3.669,3.669,0,0,0-1.913.464,1.462,1.462,0,0,0-.627,1.3q0,1.243,1.428,1.244a2.273,2.273,0,0,0,1.64-.588,2.074,2.074,0,0,0,.611-1.566Z" transform="translate(158.403 -1474.595)"/>
    <path id="Trazado_24777" data-name="Trazado 24777" d="M368.8,1512.122a6.339,6.339,0,0,0,1.854-.34v2.193a6.623,6.623,0,0,1-2.7.493,3.3,3.3,0,0,1-2.573-.9,3.88,3.88,0,0,1-.805-2.679v-5.205H363.16v-1.246l1.624-.983.849-2.278h1.884v2.3h3.022v2.211h-3.022v5.205a1.15,1.15,0,0,0,.354.928A1.381,1.381,0,0,0,368.8,1512.122Z" transform="translate(163.535 -1475.516)"/>
    <path id="Trazado_24778" data-name="Trazado 24778" d="M378.645,1507.927a5.8,5.8,0,0,1-1.39,4.123,5.041,5.041,0,0,1-3.873,1.489,5.435,5.435,0,0,1-2.744-.682,4.53,4.53,0,0,1-1.823-1.956,6.546,6.546,0,0,1-.638-2.974,5.772,5.772,0,0,1,1.381-4.114,5.075,5.075,0,0,1,3.883-1.467,5.461,5.461,0,0,1,2.742.676,4.511,4.511,0,0,1,1.825,1.942A6.5,6.5,0,0,1,378.645,1507.927Zm-7.465,0a4.534,4.534,0,0,0,.527,2.424,1.882,1.882,0,0,0,1.713.822,1.855,1.855,0,0,0,1.7-.815,4.6,4.6,0,0,0,.518-2.431,4.455,4.455,0,0,0-.523-2.405,2.217,2.217,0,0,0-3.407,0A4.462,4.462,0,0,0,371.181,1507.927Z" transform="translate(167.539 -1474.586)"/>
    <path id="Trazado_24779" data-name="Trazado 24779" d="M383.177,1510.141a2.974,2.974,0,0,1-1.152,2.528,5.712,5.712,0,0,1-3.454.87,10.532,10.532,0,0,1-2.008-.162,7.452,7.452,0,0,1-1.555-.466v-2.434a10.272,10.272,0,0,0,1.85.647,7.439,7.439,0,0,0,1.81.261q1.6,0,1.6-.927a.771.771,0,0,0-.21-.563,3.072,3.072,0,0,0-.734-.494c-.349-.183-.811-.4-1.392-.642a8.6,8.6,0,0,1-1.83-.966,2.728,2.728,0,0,1-.85-1.019,3.347,3.347,0,0,1-.264-1.415,2.561,2.561,0,0,1,1.115-2.224,5.416,5.416,0,0,1,3.161-.787,8.981,8.981,0,0,1,3.8.849l-.888,2.125q-.812-.348-1.517-.57a4.776,4.776,0,0,0-1.438-.221q-1.3,0-1.3.7a.826.826,0,0,0,.421.685,11.441,11.441,0,0,0,1.839.861,8.6,8.6,0,0,1,1.855.955,2.834,2.834,0,0,1,.867,1.023A3.12,3.12,0,0,1,383.177,1510.141Z" transform="translate(172.974 -1474.586)"/>
    <path id="Trazado_24780" data-name="Trazado 24780" d="M380.591,1508.425a1.62,1.62,0,0,1,.433-1.226,1.764,1.764,0,0,1,1.266-.416,1.7,1.7,0,0,1,1.241.426,1.88,1.88,0,0,1,0,2.418,1.693,1.693,0,0,1-1.237.439,1.748,1.748,0,0,1-1.257-.428A1.618,1.618,0,0,1,380.591,1508.425Z" transform="translate(177.443 -1471.046)"/>
    <path id="Trazado_24781" data-name="Trazado 24781" d="M109.064,1520.943l-3.477-5.284h3.34l2.1,3.438,2.113-3.437h3.344l-3.515,5.284,3.678,5.512H113.29l-2.267-3.7-2.28,3.7H105.4Z" transform="translate(-42.126 -1463.964)"/>
    <path id="Trazado_24782" data-name="Trazado 24782" d="M119.358,1527.929h-2.983v-8.17l.029-1.343.049-1.467q-.744.745-1.034.976l-1.623,1.3-1.437-1.794,4.547-3.621h2.452Z" transform="translate(-36.576 -1465.438)"/>
    <path id="Trazado_24783" data-name="Trazado 24783" d="M122.147,1520.609a29.775,29.775,0,0,1-1.7,4.624h-2.123q.628-2.57.974-4.847H122Z" transform="translate(-31.816 -1460.193)"/>
    <path id="Trazado_24784" data-name="Trazado 24784" d="M127.749,1520.943l-3.475-5.284h3.339l2.1,3.438,2.114-3.437h3.342l-3.515,5.284,3.678,5.512h-3.351l-2.269-3.7-2.278,3.7h-3.342Z" transform="translate(-27.218 -1463.964)"/>
    <path id="Trazado_24785" data-name="Trazado 24785" d="M140.721,1528.019h-9.87v-2.075l3.545-3.583q1.572-1.616,2.057-2.237a4.982,4.982,0,0,0,.694-1.154,2.919,2.919,0,0,0,.212-1.1,1.612,1.612,0,0,0-.467-1.268,1.829,1.829,0,0,0-1.251-.415,3.58,3.58,0,0,0-1.591.377,8.22,8.22,0,0,0-1.615,1.073l-1.622-1.923a10.684,10.684,0,0,1,1.73-1.255,6.3,6.3,0,0,1,1.5-.565,7.62,7.62,0,0,1,1.816-.2,5.37,5.37,0,0,1,2.335.482,3.724,3.724,0,0,1,1.575,1.352,3.6,3.6,0,0,1,.559,1.99,4.88,4.88,0,0,1-.343,1.83,7.073,7.073,0,0,1-1.061,1.751,25.956,25.956,0,0,1-2.537,2.56l-1.814,1.708v.137h6.152Z" transform="translate(-21.852 -1465.528)"/>
    <path id="Trazado_24786" data-name="Trazado 24786" d="M140.834,1520.609a29.966,29.966,0,0,1-1.7,4.624H137.01q.628-2.57.976-4.847h2.7Z" transform="translate(-16.907 -1460.193)"/>
    <path id="Trazado_24787" data-name="Trazado 24787" d="M146.434,1520.943l-3.477-5.284h3.34l2.1,3.438,2.113-3.437h3.344l-3.515,5.284,3.678,5.512h-3.353l-2.267-3.7-2.28,3.7h-3.34Z" transform="translate(-12.308 -1463.964)"/>
    <path id="Trazado_24788" data-name="Trazado 24788" d="M158.854,1517.059a3.317,3.317,0,0,1-.8,2.249,4.154,4.154,0,0,1-2.251,1.275v.059a4.489,4.489,0,0,1,2.589,1.037,2.907,2.907,0,0,1,.879,2.226,3.783,3.783,0,0,1-1.476,3.173,6.827,6.827,0,0,1-4.221,1.133,10.281,10.281,0,0,1-4.076-.76v-2.54a9.424,9.424,0,0,0,1.807.676,7.644,7.644,0,0,0,1.949.259,3.8,3.8,0,0,0,2.184-.5,1.844,1.844,0,0,0,.7-1.613,1.455,1.455,0,0,0-.813-1.41,6.024,6.024,0,0,0-2.587-.415H151.67v-2.289h1.093a5.07,5.07,0,0,0,2.4-.43,1.549,1.549,0,0,0,.757-1.471q0-1.6-2.01-1.605a4.589,4.589,0,0,0-1.413.232,6.9,6.9,0,0,0-1.6.8l-1.381-2.055a7.669,7.669,0,0,1,4.608-1.392,5.931,5.931,0,0,1,3.459.888A2.845,2.845,0,0,1,158.854,1517.059Z" transform="translate(-6.943 -1465.528)"/>
    <path id="Trazado_24789" data-name="Trazado 24789" d="M159.52,1520.609a29.806,29.806,0,0,1-1.7,4.624H155.7q.628-2.57.976-4.847h2.7Z" transform="translate(-1.998 -1460.193)"/>
    <path id="Trazado_24790" data-name="Trazado 24790" d="M162.034,1521.625a1.619,1.619,0,0,1,.435-1.226,1.77,1.77,0,0,1,1.266-.417,1.713,1.713,0,0,1,1.239.426,1.88,1.88,0,0,1,0,2.418,1.674,1.674,0,0,1-1.235.44,1.737,1.737,0,0,1-1.257-.43A1.614,1.614,0,0,1,162.034,1521.625Zm5.629,0a1.606,1.606,0,0,1,.437-1.226,1.779,1.779,0,0,1,1.275-.417,1.715,1.715,0,0,1,1.239.426,1.879,1.879,0,0,1,0,2.418,1.676,1.676,0,0,1-1.235.44,1.753,1.753,0,0,1-1.268-.43A1.607,1.607,0,0,1,167.663,1521.625Zm5.64,0a1.613,1.613,0,0,1,.435-1.226,1.768,1.768,0,0,1,1.264-.417,1.722,1.722,0,0,1,1.242.426,1.877,1.877,0,0,1-.005,2.418,1.675,1.675,0,0,1-1.237.44,1.736,1.736,0,0,1-1.255-.43A1.607,1.607,0,0,1,173.3,1521.625Z" transform="translate(3.059 -1460.515)"/>
    <path id="Trazado_24791" data-name="Trazado 24791" d="M174.526,1520.943l-3.477-5.284h3.34l2.1,3.438,2.113-3.437h3.344l-3.515,5.284,3.679,5.512h-3.353l-2.267-3.7-2.28,3.7h-3.34Z" transform="translate(10.105 -1463.964)"/>
    <path id="Trazado_24792" data-name="Trazado 24792" d="M184.058,1524.77h-1.875v-4.013a1.921,1.921,0,0,0-.263-1.115.961.961,0,0,0-.843-.372,1.266,1.266,0,0,0-1.136.525,3.278,3.278,0,0,0-.349,1.742v3.233h-1.875v-6.87h1.433l.252.879h.1a1.983,1.983,0,0,1,.865-.753,2.925,2.925,0,0,1,1.25-.255,2.4,2.4,0,0,1,1.819.649,2.6,2.6,0,0,1,.62,1.87Z" transform="translate(15.572 -1462.279)"/>
    <path id="Trazado_24793" data-name="Trazado 24793" d="M182.4,1517.187a1.621,1.621,0,0,1,.433-1.226,1.761,1.761,0,0,1,1.266-.413,1.7,1.7,0,0,1,1.239.424,1.883,1.883,0,0,1-.007,2.429,1.715,1.715,0,0,1-1.232.429,1.751,1.751,0,0,1-1.257-.424A1.614,1.614,0,0,1,182.4,1517.187Zm0,7.977a1.619,1.619,0,0,1,.433-1.226,1.77,1.77,0,0,1,1.266-.417,1.713,1.713,0,0,1,1.239.426,1.876,1.876,0,0,1,0,2.418,1.68,1.68,0,0,1-1.237.44,1.737,1.737,0,0,1-1.257-.43A1.613,1.613,0,0,1,182.4,1525.164Z" transform="translate(19.309 -1464.054)"/>
    <path id="Trazado_24794" data-name="Trazado 24794" d="M196.448,1523.339a2.973,2.973,0,0,1-1.154,2.53,5.707,5.707,0,0,1-3.454.869,10.873,10.873,0,0,1-2.008-.159,7.5,7.5,0,0,1-1.553-.469v-2.434a10.243,10.243,0,0,0,1.848.649,7.549,7.549,0,0,0,1.812.26q1.6,0,1.6-.926a.774.774,0,0,0-.212-.566,3.024,3.024,0,0,0-.734-.493q-.521-.275-1.39-.642a8.772,8.772,0,0,1-1.832-.965,2.7,2.7,0,0,1-.849-1.02,3.348,3.348,0,0,1-.266-1.413,2.565,2.565,0,0,1,1.115-2.227,5.434,5.434,0,0,1,3.163-.786,8.946,8.946,0,0,1,3.8.851l-.888,2.123c-.541-.232-1.046-.421-1.517-.57a4.7,4.7,0,0,0-1.437-.223q-1.305,0-1.305.7a.826.826,0,0,0,.421.685,11.243,11.243,0,0,0,1.841.861,8.569,8.569,0,0,1,1.854.955,2.841,2.841,0,0,1,.868,1.025A3.143,3.143,0,0,1,196.448,1523.339Z" transform="translate(23.984 -1464.054)"/>
    <path id="Trazado_24795" data-name="Trazado 24795" d="M204.194,1521.126a5.8,5.8,0,0,1-1.39,4.125,5.042,5.042,0,0,1-3.874,1.487,5.408,5.408,0,0,1-2.742-.68,4.555,4.555,0,0,1-1.825-1.956,6.581,6.581,0,0,1-.636-2.975,5.774,5.774,0,0,1,1.379-4.112,5.074,5.074,0,0,1,3.885-1.467,5.462,5.462,0,0,1,2.742.674,4.539,4.539,0,0,1,1.825,1.942A6.517,6.517,0,0,1,204.194,1521.126Zm-7.465,0a4.518,4.518,0,0,0,.527,2.425,1.882,1.882,0,0,0,1.713.82,1.85,1.85,0,0,0,1.7-.814,4.6,4.6,0,0,0,.516-2.431,4.455,4.455,0,0,0-.521-2.4,2.213,2.213,0,0,0-3.407,0A4.436,4.436,0,0,0,196.729,1521.126Z" transform="translate(28.347 -1464.054)"/>
    <path id="Trazado_24796" data-name="Trazado 24796" d="M210.869,1526.545h-2.947v-6.307a3.011,3.011,0,0,0-.415-1.751,1.508,1.508,0,0,0-1.323-.584,1.988,1.988,0,0,0-1.785.825,5.124,5.124,0,0,0-.55,2.738v5.079H200.9v-10.8h2.251l.394,1.383h.164a3.111,3.111,0,0,1,1.357-1.183,4.6,4.6,0,0,1,1.965-.4,3.772,3.772,0,0,1,2.859,1.018,4.083,4.083,0,0,1,.976,2.94Z" transform="translate(34.072 -1464.054)"/>
    <path id="Trazado_24797" data-name="Trazado 24797" d="M213.935,1528.332H210.99v-15.025h2.945Z" transform="translate(42.121 -1465.841)"/>
    <path id="Trazado_24798" data-name="Trazado 24798" d="M224.448,1521.126a5.8,5.8,0,0,1-1.39,4.125,5.042,5.042,0,0,1-3.874,1.487,5.408,5.408,0,0,1-2.742-.68,4.544,4.544,0,0,1-1.825-1.956,6.58,6.58,0,0,1-.636-2.975,5.774,5.774,0,0,1,1.379-4.112,5.073,5.073,0,0,1,3.883-1.467,5.469,5.469,0,0,1,2.744.674,4.539,4.539,0,0,1,1.825,1.942A6.517,6.517,0,0,1,224.448,1521.126Zm-7.465,0a4.518,4.518,0,0,0,.527,2.425,1.882,1.882,0,0,0,1.713.82,1.85,1.85,0,0,0,1.7-.814,4.6,4.6,0,0,0,.516-2.431,4.456,4.456,0,0,0-.521-2.4,2.213,2.213,0,0,0-3.407,0A4.436,4.436,0,0,0,216.983,1521.126Z" transform="translate(44.507 -1464.054)"/>
    <path id="Trazado_24799" data-name="Trazado 24799" d="M228.98,1523.339a2.973,2.973,0,0,1-1.154,2.53,5.7,5.7,0,0,1-3.454.869,10.874,10.874,0,0,1-2.008-.159,7.568,7.568,0,0,1-1.553-.469v-2.434a10.292,10.292,0,0,0,1.848.649,7.549,7.549,0,0,0,1.812.26q1.6,0,1.6-.926a.78.78,0,0,0-.21-.566,3.042,3.042,0,0,0-.735-.493q-.521-.275-1.39-.642a8.772,8.772,0,0,1-1.832-.965,2.713,2.713,0,0,1-.849-1.02,3.348,3.348,0,0,1-.266-1.413,2.565,2.565,0,0,1,1.115-2.227,5.433,5.433,0,0,1,3.162-.786,8.959,8.959,0,0,1,3.8.851l-.89,2.123c-.539-.232-1.046-.421-1.516-.57a4.719,4.719,0,0,0-1.438-.223q-1.305,0-1.305.7a.824.824,0,0,0,.423.685,11.122,11.122,0,0,0,1.839.861,8.525,8.525,0,0,1,1.854.955,2.842,2.842,0,0,1,.868,1.025A3.143,3.143,0,0,1,228.98,1523.339Z" transform="translate(49.941 -1464.054)"/>
    <path id="Trazado_24800" data-name="Trazado 24800" d="M233.191,1528.525a3.5,3.5,0,0,1-2.988-1.478,8.276,8.276,0,0,1,.02-8.231,3.587,3.587,0,0,1,3.046-1.481,3.521,3.521,0,0,1,3.11,1.584h.1a12.151,12.151,0,0,1-.223-2.156v-3.456h2.958v15.025h-2.262l-.568-1.4h-.128A3.362,3.362,0,0,1,233.191,1528.525Zm1.034-2.344a2,2,0,0,0,1.656-.656,3.826,3.826,0,0,0,.575-2.233v-.316a4.431,4.431,0,0,0-.536-2.494,2,2,0,0,0-1.744-.751,1.73,1.73,0,0,0-1.532.834,4.461,4.461,0,0,0-.543,2.427,4.224,4.224,0,0,0,.548,2.391A1.8,1.8,0,0,0,234.225,1526.18Z" transform="translate(56.584 -1465.841)"/>
    <path id="Trazado_24801" data-name="Trazado 24801" d="M243.616,1526.554l-.57-1.467h-.077a4.345,4.345,0,0,1-1.53,1.3,4.954,4.954,0,0,1-2.051.362,3.312,3.312,0,0,1-2.449-.888,3.413,3.413,0,0,1-.894-2.53,2.848,2.848,0,0,1,1.2-2.535,6.963,6.963,0,0,1,3.626-.9l1.873-.057v-.475a1.468,1.468,0,0,0-1.681-1.64,7.664,7.664,0,0,0-3.042.782l-.974-1.99a8.791,8.791,0,0,1,4.133-.976,5.134,5.134,0,0,1,3.33.949,3.488,3.488,0,0,1,1.16,2.875v7.2Zm-.868-5-1.14.038a3.673,3.673,0,0,0-1.913.464,1.459,1.459,0,0,0-.628,1.294c0,.831.478,1.246,1.429,1.246a2.262,2.262,0,0,0,1.638-.59,2.071,2.071,0,0,0,.613-1.564Z" transform="translate(62.112 -1464.063)"/>
    <path id="Trazado_24802" data-name="Trazado 24802" d="M248.119,1525.323a6.337,6.337,0,0,0,1.854-.34v2.194a6.628,6.628,0,0,1-2.7.491,3.313,3.313,0,0,1-2.573-.893,3.883,3.883,0,0,1-.805-2.679v-5.2h-1.411v-1.246l1.622-.986.85-2.278h1.884v2.3h3.02v2.211h-3.02v5.2a1.147,1.147,0,0,0,.352.928A1.4,1.4,0,0,0,248.119,1525.323Z" transform="translate(67.245 -1464.984)"/>
    <path id="Trazado_24803" data-name="Trazado 24803" d="M257.965,1521.126a5.8,5.8,0,0,1-1.392,4.125,5.035,5.035,0,0,1-3.873,1.487,5.408,5.408,0,0,1-2.742-.68,4.534,4.534,0,0,1-1.825-1.956,6.581,6.581,0,0,1-.638-2.975,5.767,5.767,0,0,1,1.381-4.112,5.07,5.07,0,0,1,3.883-1.467,5.474,5.474,0,0,1,2.744.674,4.525,4.525,0,0,1,1.823,1.942A6.517,6.517,0,0,1,257.965,1521.126Zm-7.467,0a4.535,4.535,0,0,0,.527,2.425,1.886,1.886,0,0,0,1.713.82,1.853,1.853,0,0,0,1.7-.814,4.614,4.614,0,0,0,.516-2.431,4.472,4.472,0,0,0-.521-2.4,2.215,2.215,0,0,0-3.409,0A4.453,4.453,0,0,0,250.5,1521.126Z" transform="translate(71.248 -1464.054)"/>
    <path id="Trazado_24804" data-name="Trazado 24804" d="M262.5,1523.339a2.973,2.973,0,0,1-1.154,2.53,5.708,5.708,0,0,1-3.454.869,10.873,10.873,0,0,1-2.008-.159,7.5,7.5,0,0,1-1.553-.469v-2.434a10.2,10.2,0,0,0,1.848.649,7.549,7.549,0,0,0,1.812.26q1.6,0,1.6-.926a.78.78,0,0,0-.21-.566,3.06,3.06,0,0,0-.734-.493q-.52-.275-1.39-.642a8.773,8.773,0,0,1-1.832-.965,2.718,2.718,0,0,1-.85-1.02,3.377,3.377,0,0,1-.264-1.413,2.565,2.565,0,0,1,1.115-2.227,5.433,5.433,0,0,1,3.162-.786,8.952,8.952,0,0,1,3.8.851l-.888,2.123c-.541-.232-1.046-.421-1.517-.57a4.7,4.7,0,0,0-1.438-.223q-1.3,0-1.3.7a.826.826,0,0,0,.421.685,11.171,11.171,0,0,0,1.841.861,8.617,8.617,0,0,1,1.854.955,2.817,2.817,0,0,1,.866,1.025A3.117,3.117,0,0,1,262.5,1523.339Z" transform="translate(76.683 -1464.054)"/>
    <path id="Trazado_24805" data-name="Trazado 24805" d="M266.708,1528.525a3.5,3.5,0,0,1-2.988-1.478,8.27,8.27,0,0,1,.018-8.231,3.592,3.592,0,0,1,3.047-1.481,3.515,3.515,0,0,1,3.109,1.584h.1a12.149,12.149,0,0,1-.223-2.156v-3.456h2.956v15.025h-2.26l-.57-1.4h-.126A3.364,3.364,0,0,1,266.708,1528.525Zm1.034-2.344a2,2,0,0,0,1.656-.656,3.828,3.828,0,0,0,.574-2.233v-.316a4.415,4.415,0,0,0-.536-2.494,1.991,1.991,0,0,0-1.742-.751,1.726,1.726,0,0,0-1.532.834,4.46,4.46,0,0,0-.545,2.427,4.223,4.223,0,0,0,.55,2.391A1.8,1.8,0,0,0,267.742,1526.18Z" transform="translate(83.325 -1465.841)"/>
    <path id="Trazado_24806" data-name="Trazado 24806" d="M275.136,1526.737a5.568,5.568,0,0,1-4.076-1.439,5.453,5.453,0,0,1-1.467-4.074,5.991,5.991,0,0,1,1.357-4.2,4.827,4.827,0,0,1,3.752-1.481,4.753,4.753,0,0,1,3.562,1.3,4.934,4.934,0,0,1,1.275,3.6v1.429h-6.961a2.835,2.835,0,0,0,.743,1.96,2.612,2.612,0,0,0,1.951.707,8.011,8.011,0,0,0,1.845-.205,9.257,9.257,0,0,0,1.814-.645v2.28a6.962,6.962,0,0,1-1.651.574A10.522,10.522,0,0,1,275.136,1526.737Zm-.415-9.1a1.873,1.873,0,0,0-1.469.593,2.763,2.763,0,0,0-.608,1.685h4.133a2.463,2.463,0,0,0-.568-1.685A1.937,1.937,0,0,0,274.721,1517.641Z" transform="translate(88.879 -1464.054)"/>
    <path id="Trazado_24807" data-name="Trazado 24807" d="M279.4,1528.332h-2.947v-15.025H279.4Z" transform="translate(94.356 -1465.841)"/>
    <path id="Trazado_24808" data-name="Trazado 24808" d="M287.348,1526.737q-5.04,0-5.041-5.534a5.905,5.905,0,0,1,1.372-4.205,5.148,5.148,0,0,1,3.93-1.451,7.494,7.494,0,0,1,3.36.733l-.87,2.28c-.464-.188-.893-.341-1.293-.46a4.119,4.119,0,0,0-1.2-.18q-2.3,0-2.3,3.267,0,3.164,2.3,3.166a5.247,5.247,0,0,0,1.573-.228,5.616,5.616,0,0,0,1.449-.709v2.521a4.781,4.781,0,0,1-1.444.627A8.175,8.175,0,0,1,287.348,1526.737Z" transform="translate(99.024 -1464.054)"/>
    <path id="Trazado_24809" data-name="Trazado 24809" d="M298.43,1521.126a5.8,5.8,0,0,1-1.39,4.125,5.038,5.038,0,0,1-3.873,1.487,5.419,5.419,0,0,1-2.744-.68,4.541,4.541,0,0,1-1.823-1.956,6.558,6.558,0,0,1-.638-2.975,5.767,5.767,0,0,1,1.381-4.112,5.067,5.067,0,0,1,3.883-1.467,5.462,5.462,0,0,1,2.742.674,4.519,4.519,0,0,1,1.825,1.942A6.518,6.518,0,0,1,298.43,1521.126Zm-7.465,0a4.535,4.535,0,0,0,.527,2.425,1.884,1.884,0,0,0,1.713.82,1.853,1.853,0,0,0,1.7-.814,4.613,4.613,0,0,0,.516-2.431,4.472,4.472,0,0,0-.521-2.4,2.215,2.215,0,0,0-3.409,0A4.452,4.452,0,0,0,290.965,1521.126Z" transform="translate(103.537 -1464.054)"/>
    <path id="Trazado_24810" data-name="Trazado 24810" d="M305.1,1526.545h-2.947v-6.307a3.025,3.025,0,0,0-.414-1.751,1.513,1.513,0,0,0-1.325-.584,1.987,1.987,0,0,0-1.785.825,5.126,5.126,0,0,0-.548,2.738v5.079h-2.947v-10.8h2.251l.4,1.383h.162a3.111,3.111,0,0,1,1.357-1.183,4.607,4.607,0,0,1,1.965-.4,3.77,3.77,0,0,1,2.859,1.018,4.083,4.083,0,0,1,.976,2.94Z" transform="translate(109.262 -1464.054)"/>
    <path id="Trazado_24811" data-name="Trazado 24811" d="M302.746,1533.084a6.818,6.818,0,0,1-1.94-.243v-2.317a5.235,5.235,0,0,0,1.381.183,1.33,1.33,0,0,0,1.086-.415,1.887,1.887,0,0,0,.342-1.226v-11.53h2.947V1529.5a3.445,3.445,0,0,1-1,2.65A3.961,3.961,0,0,1,302.746,1533.084Zm.742-18.339q0-1.44,1.606-1.439t1.6,1.439a1.4,1.4,0,0,1-.4,1.066,1.679,1.679,0,0,1-1.2.381C304.024,1516.193,303.488,1515.713,303.488,1514.745Z" transform="translate(113.784 -1465.841)"/>
    <path id="Trazado_24812" data-name="Trazado 24812" d="M313.4,1526.455l-.4-1.381h-.155a3.091,3.091,0,0,1-1.341,1.163,4.585,4.585,0,0,1-1.979.41,3.771,3.771,0,0,1-2.868-1.018,4.1,4.1,0,0,1-.966-2.932v-7.038h2.943v6.305a3.033,3.033,0,0,0,.417,1.755,1.516,1.516,0,0,0,1.321.584,1.99,1.99,0,0,0,1.787-.827,5.121,5.121,0,0,0,.552-2.738v-5.079h2.945v10.8Z" transform="translate(117.683 -1463.964)"/>
    <path id="Trazado_24813" data-name="Trazado 24813" d="M322.92,1526.545h-2.945v-6.307a3.011,3.011,0,0,0-.415-1.751,1.508,1.508,0,0,0-1.323-.584,1.988,1.988,0,0,0-1.785.825,5.124,5.124,0,0,0-.55,2.738v5.079h-2.947v-10.8H315.2l.4,1.383h.164a3.091,3.091,0,0,1,1.357-1.183,4.6,4.6,0,0,1,1.965-.4,3.765,3.765,0,0,1,2.857,1.018,4.075,4.075,0,0,1,.976,2.94Z" transform="translate(123.477 -1464.054)"/>
    <path id="Trazado_24814" data-name="Trazado 24814" d="M325.216,1525.323a6.327,6.327,0,0,0,1.854-.34v2.194a6.624,6.624,0,0,1-2.7.491,3.311,3.311,0,0,1-2.573-.893,3.883,3.883,0,0,1-.805-2.679v-5.2h-1.413v-1.246l1.624-.986.849-2.278h1.884v2.3h3.022v2.211h-3.022v5.2a1.148,1.148,0,0,0,.354.928A1.392,1.392,0,0,0,325.216,1525.323Z" transform="translate(128.76 -1464.984)"/>
    <path id="Trazado_24815" data-name="Trazado 24815" d="M335.061,1521.126a5.8,5.8,0,0,1-1.39,4.125,5.041,5.041,0,0,1-3.873,1.487,5.414,5.414,0,0,1-2.744-.68,4.54,4.54,0,0,1-1.823-1.956,6.557,6.557,0,0,1-.638-2.975,5.767,5.767,0,0,1,1.381-4.112,5.067,5.067,0,0,1,3.883-1.467,5.463,5.463,0,0,1,2.742.674,4.529,4.529,0,0,1,1.825,1.942A6.517,6.517,0,0,1,335.061,1521.126Zm-7.465,0a4.535,4.535,0,0,0,.527,2.425,1.884,1.884,0,0,0,1.713.82,1.848,1.848,0,0,0,1.7-.814,4.6,4.6,0,0,0,.518-2.431,4.454,4.454,0,0,0-.523-2.4,2.213,2.213,0,0,0-3.407,0A4.453,4.453,0,0,0,327.6,1521.126Z" transform="translate(132.764 -1464.054)"/>
    <path id="Trazado_24816" data-name="Trazado 24816" d="M331.539,1521.625a1.612,1.612,0,0,1,.435-1.226,1.77,1.77,0,0,1,1.266-.417,1.713,1.713,0,0,1,1.239.426,1.88,1.88,0,0,1,0,2.418,1.673,1.673,0,0,1-1.235.44,1.742,1.742,0,0,1-1.258-.43A1.613,1.613,0,0,1,331.539,1521.625Z" transform="translate(138.305 -1460.515)"/>
    <path id="Trazado_24817" data-name="Trazado 24817" d="M109.064,1534.141l-3.477-5.282h3.34l2.1,3.438,2.113-3.437h3.344l-3.515,5.282,3.678,5.514H113.29l-2.267-3.7-2.28,3.7H105.4Z" transform="translate(-42.126 -1453.432)"/>
    <path id="Trazado_24818" data-name="Trazado 24818" d="M112.21,1530.461q0-.914,1.023-.915c.68,0,1.018.306,1.018.915a.89.89,0,0,1-.255.679,1.067,1.067,0,0,1-.762.243C112.552,1531.384,112.21,1531.074,112.21,1530.461Zm1.956,8.646h-1.875v-6.87h1.875Z" transform="translate(-36.695 -1452.884)"/>
    <path id="Trazado_24819" data-name="Trazado 24819" d="M114.473,1530.389a1.615,1.615,0,0,1,.433-1.226,1.763,1.763,0,0,1,1.266-.417,1.715,1.715,0,0,1,1.241.424,1.888,1.888,0,0,1-.009,2.431,1.715,1.715,0,0,1-1.232.428,1.744,1.744,0,0,1-1.257-.424A1.606,1.606,0,0,1,114.473,1530.389Zm0,7.975a1.619,1.619,0,0,1,.433-1.226,1.764,1.764,0,0,1,1.266-.414,1.708,1.708,0,0,1,1.241.425,1.88,1.88,0,0,1,0,2.418,1.686,1.686,0,0,1-1.237.44,1.737,1.737,0,0,1-1.257-.43A1.615,1.615,0,0,1,114.473,1538.365Z" transform="translate(-34.889 -1453.523)"/>
    <path id="Trazado_24820" data-name="Trazado 24820" d="M125.373,1539.94q-5.04,0-5.041-5.532a5.9,5.9,0,0,1,1.372-4.207,5.145,5.145,0,0,1,3.932-1.455,7.529,7.529,0,0,1,3.36.733l-.872,2.28q-.7-.281-1.291-.458a4.263,4.263,0,0,0-1.2-.178q-2.3,0-2.3,3.263,0,3.169,2.3,3.168a5.2,5.2,0,0,0,1.573-.227,5.66,5.66,0,0,0,1.447-.71v2.519a4.672,4.672,0,0,1-1.444.629A8.149,8.149,0,0,1,125.373,1539.94Z" transform="translate(-30.215 -1453.523)"/>
    <path id="Trazado_24821" data-name="Trazado 24821" d="M133.527,1539.754l-.57-1.467h-.077a4.362,4.362,0,0,1-1.53,1.3,4.992,4.992,0,0,1-2.051.361,3.324,3.324,0,0,1-2.449-.888,3.415,3.415,0,0,1-.894-2.532,2.852,2.852,0,0,1,1.2-2.535,6.958,6.958,0,0,1,3.626-.9l1.873-.057v-.473a1.47,1.47,0,0,0-1.681-1.643,7.67,7.67,0,0,0-3.042.784l-.974-1.99a8.765,8.765,0,0,1,4.133-.975,5.141,5.141,0,0,1,3.33.946,3.5,3.5,0,0,1,1.16,2.878v7.193Zm-.868-5-1.14.04a3.611,3.611,0,0,0-1.911.462,1.46,1.46,0,0,0-.629,1.295c0,.83.478,1.244,1.429,1.244a2.268,2.268,0,0,0,1.638-.588,2.061,2.061,0,0,0,.613-1.564Z" transform="translate(-25.727 -1453.53)"/>
    <path id="Trazado_24822" data-name="Trazado 24822" d="M136.709,1541.726a3.508,3.508,0,0,1-2.988-1.478,8.273,8.273,0,0,1,.018-8.233,3.592,3.592,0,0,1,3.047-1.483,3.519,3.519,0,0,1,3.109,1.584h.1a12.08,12.08,0,0,1-.223-2.152v-3.457h2.956v15.025h-2.26l-.57-1.4h-.126A3.372,3.372,0,0,1,136.709,1541.726Zm1.034-2.348a2,2,0,0,0,1.656-.656,3.8,3.8,0,0,0,.574-2.229v-.32a4.4,4.4,0,0,0-.536-2.49,1.993,1.993,0,0,0-1.742-.755,1.729,1.729,0,0,0-1.532.836,4.471,4.471,0,0,0-.545,2.431,4.233,4.233,0,0,0,.55,2.39A1.8,1.8,0,0,0,137.743,1539.378Z" transform="translate(-20.4 -1455.309)"/>
    <path id="Trazado_24823" data-name="Trazado 24823" d="M147.133,1539.754l-.572-1.467h-.077a4.358,4.358,0,0,1-1.528,1.3,5,5,0,0,1-2.053.361,3.32,3.32,0,0,1-2.447-.888,3.415,3.415,0,0,1-.894-2.532,2.848,2.848,0,0,1,1.2-2.535,6.95,6.95,0,0,1,3.624-.9l1.873-.057v-.473a1.469,1.469,0,0,0-1.679-1.643,7.677,7.677,0,0,0-3.044.784l-.974-1.99a8.77,8.77,0,0,1,4.133-.975,5.147,5.147,0,0,1,3.331.946,3.5,3.5,0,0,1,1.158,2.878v7.193Zm-.87-5-1.138.04a3.618,3.618,0,0,0-1.913.462,1.465,1.465,0,0,0-.629,1.295c0,.83.478,1.244,1.429,1.244a2.275,2.275,0,0,0,1.64-.588,2.066,2.066,0,0,0,.611-1.564Z" transform="translate(-14.871 -1453.53)"/>
    <path id="Trazado_24824" data-name="Trazado 24824" d="M157.135,1539.655l-.4-1.381h-.155a3.069,3.069,0,0,1-1.341,1.163,4.557,4.557,0,0,1-1.979.412,3.771,3.771,0,0,1-2.868-1.019,4.1,4.1,0,0,1-.965-2.931v-7.041h2.945v6.307a3.032,3.032,0,0,0,.415,1.753,1.509,1.509,0,0,0,1.321.582,1.988,1.988,0,0,0,1.789-.825,5.117,5.117,0,0,0,.55-2.736v-5.081h2.945v10.8Z" transform="translate(-6.998 -1453.432)"/>
    <path id="Trazado_24825" data-name="Trazado 24825" d="M166.657,1539.746H163.71v-6.305a3.033,3.033,0,0,0-.414-1.753,1.519,1.519,0,0,0-1.325-.584,1.984,1.984,0,0,0-1.785.827,5.113,5.113,0,0,0-.55,2.736v5.079h-2.945v-10.8h2.251l.394,1.381h.164a3.135,3.135,0,0,1,1.357-1.181,4.58,4.58,0,0,1,1.965-.4,3.781,3.781,0,0,1,2.859,1.019,4.087,4.087,0,0,1,.976,2.941Z" transform="translate(-1.204 -1453.523)"/>
    <path id="Trazado_24826" data-name="Trazado 24826" d="M174.022,1534.33a5.807,5.807,0,0,1-1.39,4.123,5.054,5.054,0,0,1-3.873,1.487,5.418,5.418,0,0,1-2.744-.682,4.542,4.542,0,0,1-1.825-1.954,6.585,6.585,0,0,1-.636-2.974,5.771,5.771,0,0,1,1.381-4.115,5.076,5.076,0,0,1,3.883-1.469,5.442,5.442,0,0,1,2.742.678,4.5,4.5,0,0,1,1.825,1.94A6.525,6.525,0,0,1,174.022,1534.33Zm-7.465,0a4.53,4.53,0,0,0,.527,2.422,1.882,1.882,0,0,0,1.713.822,1.854,1.854,0,0,0,1.7-.816,4.589,4.589,0,0,0,.516-2.427,4.448,4.448,0,0,0-.521-2.405,2.215,2.215,0,0,0-3.407-.006A4.465,4.465,0,0,0,166.557,1534.33Z" transform="translate(4.273 -1453.523)"/>
    <path id="Trazado_24827" data-name="Trazado 24827" d="M177.3,1541.726a3.512,3.512,0,0,1-2.99-1.478,8.279,8.279,0,0,1,.02-8.233,3.591,3.591,0,0,1,3.047-1.483,3.521,3.521,0,0,1,3.109,1.584h.1a12.086,12.086,0,0,1-.223-2.152v-3.457h2.956v15.025h-2.262l-.568-1.4h-.126A3.372,3.372,0,0,1,177.3,1541.726Zm1.034-2.348a2,2,0,0,0,1.656-.656,3.816,3.816,0,0,0,.574-2.229v-.32a4.419,4.419,0,0,0-.536-2.49,2,2,0,0,0-1.744-.755,1.728,1.728,0,0,0-1.53.836,4.471,4.471,0,0,0-.545,2.431,4.233,4.233,0,0,0,.55,2.39A1.8,1.8,0,0,0,178.333,1539.378Z" transform="translate(11.987 -1455.309)"/>
    <path id="Trazado_24828" data-name="Trazado 24828" d="M185.727,1539.94a5.577,5.577,0,0,1-4.076-1.438,5.452,5.452,0,0,1-1.467-4.078,5.99,5.99,0,0,1,1.357-4.194,4.828,4.828,0,0,1,3.752-1.483,4.754,4.754,0,0,1,3.562,1.305,4.927,4.927,0,0,1,1.275,3.6v1.429h-6.961a2.83,2.83,0,0,0,.743,1.96,2.619,2.619,0,0,0,1.951.7,8.113,8.113,0,0,0,1.843-.2,9.253,9.253,0,0,0,1.816-.649v2.28a6.932,6.932,0,0,1-1.65.575A10.363,10.363,0,0,1,185.727,1539.94Zm-.417-9.1a1.871,1.871,0,0,0-1.467.593,2.759,2.759,0,0,0-.608,1.687h4.133a2.469,2.469,0,0,0-.568-1.687A1.941,1.941,0,0,0,185.31,1530.842Z" transform="translate(17.541 -1453.523)"/>
    <path id="Trazado_24829" data-name="Trazado 24829" d="M192.851,1541.532h-2.945v-15.025h2.945Z" transform="translate(25.298 -1455.309)"/>
    <path id="Trazado_24830" data-name="Trazado 24830" d="M203.364,1534.33a5.807,5.807,0,0,1-1.39,4.123,5.056,5.056,0,0,1-3.874,1.487,5.411,5.411,0,0,1-2.742-.682,4.531,4.531,0,0,1-1.825-1.954,6.584,6.584,0,0,1-.636-2.974,5.778,5.778,0,0,1,1.379-4.115,5.083,5.083,0,0,1,3.885-1.469,5.447,5.447,0,0,1,2.742.678,4.514,4.514,0,0,1,1.825,1.94A6.525,6.525,0,0,1,203.364,1534.33Zm-7.465,0a4.514,4.514,0,0,0,.527,2.422,1.88,1.88,0,0,0,1.713.822,1.854,1.854,0,0,0,1.7-.816,4.589,4.589,0,0,0,.516-2.427,4.449,4.449,0,0,0-.521-2.405,2.215,2.215,0,0,0-3.407-.006A4.448,4.448,0,0,0,195.9,1534.33Z" transform="translate(27.684 -1453.523)"/>
    <path id="Trazado_24831" data-name="Trazado 24831" d="M207.9,1536.54a2.97,2.97,0,0,1-1.154,2.529,5.689,5.689,0,0,1-3.452.87,10.89,10.89,0,0,1-2.01-.16,7.7,7.7,0,0,1-1.553-.468v-2.432a10.6,10.6,0,0,0,1.848.645,7.459,7.459,0,0,0,1.812.259c1.068,0,1.6-.307,1.6-.926a.777.777,0,0,0-.21-.565,3.059,3.059,0,0,0-.735-.492q-.521-.275-1.39-.642a8.754,8.754,0,0,1-1.832-.967,2.707,2.707,0,0,1-.849-1.018,3.346,3.346,0,0,1-.266-1.415,2.565,2.565,0,0,1,1.115-2.224,5.435,5.435,0,0,1,3.163-.789,8.985,8.985,0,0,1,3.8.85l-.89,2.123a15.978,15.978,0,0,0-1.516-.568,4.773,4.773,0,0,0-1.438-.221q-1.305,0-1.305.7a.825.825,0,0,0,.423.685,11.334,11.334,0,0,0,1.839.859,8.5,8.5,0,0,1,1.854.957,2.817,2.817,0,0,1,.868,1.023A3.131,3.131,0,0,1,207.9,1536.54Z" transform="translate(33.118 -1453.523)"/>
    <path id="Trazado_24832" data-name="Trazado 24832" d="M212.107,1541.726a3.508,3.508,0,0,1-2.988-1.478,8.279,8.279,0,0,1,.02-8.233,3.588,3.588,0,0,1,3.046-1.483,3.524,3.524,0,0,1,3.11,1.584h.1a12.082,12.082,0,0,1-.223-2.152v-3.457h2.958v15.025h-2.262l-.568-1.4h-.128A3.37,3.37,0,0,1,212.107,1541.726Zm1.034-2.348a1.994,1.994,0,0,0,1.656-.656,3.8,3.8,0,0,0,.575-2.229v-.32a4.419,4.419,0,0,0-.536-2.49,2,2,0,0,0-1.744-.755,1.733,1.733,0,0,0-1.532.836,4.472,4.472,0,0,0-.543,2.431,4.234,4.234,0,0,0,.548,2.39A1.8,1.8,0,0,0,213.141,1539.378Z" transform="translate(39.761 -1455.309)"/>
    <path id="Trazado_24833" data-name="Trazado 24833" d="M222.532,1539.754l-.57-1.467h-.077a4.378,4.378,0,0,1-1.53,1.3,4.993,4.993,0,0,1-2.051.361,3.321,3.321,0,0,1-2.449-.888,3.416,3.416,0,0,1-.894-2.532,2.852,2.852,0,0,1,1.2-2.535,6.952,6.952,0,0,1,3.626-.9l1.873-.057v-.473a1.47,1.47,0,0,0-1.681-1.643,7.67,7.67,0,0,0-3.042.784l-.974-1.99a8.765,8.765,0,0,1,4.133-.975,5.141,5.141,0,0,1,3.33.946,3.5,3.5,0,0,1,1.16,2.878v7.193Zm-.868-5-1.14.04a3.606,3.606,0,0,0-1.911.462,1.46,1.46,0,0,0-.629,1.295c0,.83.478,1.244,1.429,1.244a2.271,2.271,0,0,0,1.638-.588,2.067,2.067,0,0,0,.613-1.564Z" transform="translate(45.289 -1453.53)"/>
    <path id="Trazado_24834" data-name="Trazado 24834" d="M227.035,1538.521a6.382,6.382,0,0,0,1.854-.336v2.19a6.569,6.569,0,0,1-2.7.494,3.3,3.3,0,0,1-2.573-.894,3.891,3.891,0,0,1-.805-2.681v-5.2H221.4v-1.248l1.622-.983.85-2.28h1.884v2.3h3.02v2.213h-3.02v5.2a1.149,1.149,0,0,0,.352.928A1.39,1.39,0,0,0,227.035,1538.521Z" transform="translate(50.423 -1454.452)"/>
    <path id="Trazado_24835" data-name="Trazado 24835" d="M236.881,1534.33a5.8,5.8,0,0,1-1.392,4.123,5.049,5.049,0,0,1-3.873,1.487,5.411,5.411,0,0,1-2.742-.682,4.521,4.521,0,0,1-1.825-1.954,6.585,6.585,0,0,1-.638-2.974,5.771,5.771,0,0,1,1.381-4.115,5.079,5.079,0,0,1,3.883-1.469,5.453,5.453,0,0,1,2.744.678,4.5,4.5,0,0,1,1.823,1.94A6.5,6.5,0,0,1,236.881,1534.33Zm-7.467,0a4.53,4.53,0,0,0,.527,2.422,1.884,1.884,0,0,0,1.713.822,1.857,1.857,0,0,0,1.7-.816,4.607,4.607,0,0,0,.516-2.427,4.465,4.465,0,0,0-.521-2.405,2.217,2.217,0,0,0-3.409-.006A4.465,4.465,0,0,0,229.414,1534.33Z" transform="translate(54.426 -1453.523)"/>
    <path id="Trazado_24836" data-name="Trazado 24836" d="M241.412,1536.54a2.97,2.97,0,0,1-1.154,2.529,5.7,5.7,0,0,1-3.454.87,10.883,10.883,0,0,1-2.008-.16,7.636,7.636,0,0,1-1.553-.468v-2.432a10.494,10.494,0,0,0,1.848.645,7.459,7.459,0,0,0,1.812.259c1.068,0,1.6-.307,1.6-.926a.777.777,0,0,0-.21-.565,3.079,3.079,0,0,0-.734-.492q-.52-.275-1.39-.642a8.754,8.754,0,0,1-1.832-.967,2.712,2.712,0,0,1-.85-1.018,3.375,3.375,0,0,1-.264-1.415,2.565,2.565,0,0,1,1.115-2.224,5.431,5.431,0,0,1,3.162-.789,8.977,8.977,0,0,1,3.8.85l-.888,2.123a16,16,0,0,0-1.517-.568,4.756,4.756,0,0,0-1.438-.221q-1.3,0-1.3.7a.827.827,0,0,0,.421.685,11.377,11.377,0,0,0,1.841.859,8.586,8.586,0,0,1,1.854.957,2.793,2.793,0,0,1,.867,1.023A3.106,3.106,0,0,1,241.412,1536.54Z" transform="translate(59.86 -1453.523)"/>
    <path id="Trazado_24837" data-name="Trazado 24837" d="M238.825,1534.824a1.619,1.619,0,0,1,.435-1.226,1.76,1.76,0,0,1,1.266-.414,1.7,1.7,0,0,1,1.239.425,1.88,1.88,0,0,1,0,2.418,1.682,1.682,0,0,1-1.235.441,1.737,1.737,0,0,1-1.257-.43A1.616,1.616,0,0,1,238.825,1534.824Z" transform="translate(64.33 -1449.981)"/>
    <path id="Trazado_24838" data-name="Trazado 24838" d="M116.174,1552.945h-2.945v-6.305a3.032,3.032,0,0,0-.415-1.753,1.507,1.507,0,0,0-1.323-.582,1.983,1.983,0,0,0-1.785.825,5.111,5.111,0,0,0-.55,2.736v5.079h-2.947V1542.15h2.251l.4,1.381h.164a3.1,3.1,0,0,1,1.357-1.183,4.6,4.6,0,0,1,1.963-.4,3.767,3.767,0,0,1,2.859,1.019,4.073,4.073,0,0,1,.976,2.938Z" transform="translate(-41.484 -1442.99)"/>
    <path id="Trazado_24839" data-name="Trazado 24839" d="M113.207,1543.587a1.611,1.611,0,0,1,.435-1.224,1.752,1.752,0,0,1,1.266-.415,1.7,1.7,0,0,1,1.239.426,1.884,1.884,0,0,1-.009,2.427,1.71,1.71,0,0,1-1.23.429,1.757,1.757,0,0,1-1.259-.424A1.615,1.615,0,0,1,113.207,1543.587Zm0,7.979a1.616,1.616,0,0,1,.435-1.228,1.768,1.768,0,0,1,1.266-.415,1.711,1.711,0,0,1,1.239.424,1.882,1.882,0,0,1,0,2.42,1.68,1.68,0,0,1-1.235.439,1.741,1.741,0,0,1-1.259-.428A1.615,1.615,0,0,1,113.207,1551.566Z" transform="translate(-35.9 -1442.99)"/>
    <path id="Trazado_24840" data-name="Trazado 24840" d="M129.4,1552.945h-2.947v-6.305a3.033,3.033,0,0,0-.413-1.753,1.513,1.513,0,0,0-1.325-.582,1.983,1.983,0,0,0-1.785.825,5.114,5.114,0,0,0-.548,2.736v5.079h-2.947V1542.15h2.251l.4,1.381h.162a3.115,3.115,0,0,1,1.357-1.183,4.612,4.612,0,0,1,1.965-.4,3.77,3.77,0,0,1,2.859,1.019,4.081,4.081,0,0,1,.976,2.938Z" transform="translate(-30.933 -1442.99)"/>
    <path id="Trazado_24841" data-name="Trazado 24841" d="M134.335,1554.788l-.4-1.379h-.155a3.1,3.1,0,0,1-1.341,1.161,4.573,4.573,0,0,1-1.981.412,3.778,3.778,0,0,1-2.868-1.02,4.1,4.1,0,0,1-.965-2.931v-7.038h2.945v6.3a3.035,3.035,0,0,0,.415,1.755,1.517,1.517,0,0,0,1.323.584,1.986,1.986,0,0,0,1.787-.827,5.112,5.112,0,0,0,.55-2.736v-5.079h2.945v10.794Zm-4.383-11.985v-.259a27.625,27.625,0,0,0,2.271-2.907h3.3v.2q-.5.5-1.713,1.492t-1.895,1.471Z" transform="translate(-25.19 -1444.832)"/>
    <path id="Trazado_24842" data-name="Trazado 24842" d="M143.558,1552.945h-2.947v-6.305a3.164,3.164,0,0,0-.392-1.753,1.369,1.369,0,0,0-1.23-.582,1.78,1.78,0,0,0-1.641.828,5.444,5.444,0,0,0-.511,2.733v5.079h-2.947V1542.15h2.251l.4,1.381h.162a3,3,0,0,1,1.259-1.163,4.04,4.04,0,0,1,1.882-.42,3.391,3.391,0,0,1,3.283,1.584h.259a2.936,2.936,0,0,1,1.28-1.169,4.249,4.249,0,0,1,1.909-.415,3.763,3.763,0,0,1,2.776.942,4.135,4.135,0,0,1,.94,3.015v7.04h-2.956v-6.305a3.181,3.181,0,0,0-.39-1.753,1.372,1.372,0,0,0-1.232-.582,1.828,1.828,0,0,0-1.616.773,4.368,4.368,0,0,0-.536,2.45Z" transform="translate(-19.396 -1442.99)"/>
    <path id="Trazado_24843" data-name="Trazado 24843" d="M149.869,1553.139a5.568,5.568,0,0,1-4.074-1.44,5.448,5.448,0,0,1-1.469-4.074,5.991,5.991,0,0,1,1.357-4.2,4.836,4.836,0,0,1,3.752-1.481,4.754,4.754,0,0,1,3.563,1.3,4.935,4.935,0,0,1,1.275,3.6v1.429h-6.961a2.826,2.826,0,0,0,.743,1.96,2.617,2.617,0,0,0,1.951.7,8.1,8.1,0,0,0,1.843-.2,9.18,9.18,0,0,0,1.816-.647v2.28a6.9,6.9,0,0,1-1.65.573A10.383,10.383,0,0,1,149.869,1553.139Zm-.415-9.1a1.874,1.874,0,0,0-1.467.593,2.745,2.745,0,0,0-.608,1.686h4.133a2.467,2.467,0,0,0-.57-1.686A1.94,1.94,0,0,0,149.454,1544.042Z" transform="translate(-11.07 -1442.99)"/>
    <path id="Trazado_24844" data-name="Trazado 24844" d="M157.216,1541.947a4.765,4.765,0,0,1,.994.086l-.221,2.762a3.443,3.443,0,0,0-.868-.1,3.111,3.111,0,0,0-2.2.724,2.611,2.611,0,0,0-.787,2.026v5.494h-2.945V1542.15h2.229l.435,1.814H154a4.07,4.07,0,0,1,1.357-1.462A3.349,3.349,0,0,1,157.216,1541.947Z" transform="translate(-5.592 -1442.99)"/>
    <path id="Trazado_24845" data-name="Trazado 24845" d="M166.288,1547.528a5.8,5.8,0,0,1-1.392,4.124,5.041,5.041,0,0,1-3.873,1.487,5.41,5.41,0,0,1-2.742-.681,4.524,4.524,0,0,1-1.825-1.956,6.572,6.572,0,0,1-.636-2.974,5.763,5.763,0,0,1,1.379-4.111,5.074,5.074,0,0,1,3.883-1.469,5.471,5.471,0,0,1,2.744.674,4.536,4.536,0,0,1,1.823,1.942A6.5,6.5,0,0,1,166.288,1547.528Zm-7.465,0a4.525,4.525,0,0,0,.525,2.423,1.887,1.887,0,0,0,1.715.82,1.849,1.849,0,0,0,1.7-.814,4.605,4.605,0,0,0,.516-2.429,4.468,4.468,0,0,0-.521-2.4,2.215,2.215,0,0,0-3.407-.005A4.443,4.443,0,0,0,158.823,1547.528Z" transform="translate(-1.898 -1442.99)"/>
    <path id="Trazado_24846" data-name="Trazado 24846" d="M169.563,1554.926a3.5,3.5,0,0,1-2.988-1.478,8.279,8.279,0,0,1,.02-8.232,3.591,3.591,0,0,1,3.046-1.482,3.521,3.521,0,0,1,3.11,1.584h.1a12.135,12.135,0,0,1-.223-2.154v-3.457h2.958v15.025h-2.262l-.568-1.4h-.128A3.364,3.364,0,0,1,169.563,1554.926Zm1.034-2.346a2,2,0,0,0,1.656-.656,3.814,3.814,0,0,0,.575-2.231v-.318a4.435,4.435,0,0,0-.536-2.494,2,2,0,0,0-1.744-.751,1.734,1.734,0,0,0-1.532.834,4.468,4.468,0,0,0-.543,2.429,4.227,4.227,0,0,0,.548,2.391A1.8,1.8,0,0,0,170.6,1552.58Z" transform="translate(5.816 -1444.777)"/>
    <path id="Trazado_24847" data-name="Trazado 24847" d="M177.993,1553.139a5.569,5.569,0,0,1-4.076-1.44,5.447,5.447,0,0,1-1.467-4.074,5.991,5.991,0,0,1,1.356-4.2,4.836,4.836,0,0,1,3.752-1.481,4.754,4.754,0,0,1,3.563,1.3,4.935,4.935,0,0,1,1.275,3.6v1.429h-6.961a2.826,2.826,0,0,0,.743,1.96,2.617,2.617,0,0,0,1.951.7,8.1,8.1,0,0,0,1.843-.2,9.181,9.181,0,0,0,1.816-.647v2.28a6.9,6.9,0,0,1-1.65.573A10.376,10.376,0,0,1,177.993,1553.139Zm-.417-9.1a1.874,1.874,0,0,0-1.467.593,2.745,2.745,0,0,0-.608,1.686h4.133a2.467,2.467,0,0,0-.57-1.686A1.94,1.94,0,0,0,177.576,1544.042Z" transform="translate(11.37 -1442.99)"/>
    <path id="Trazado_24848" data-name="Trazado 24848" d="M185.882,1554.926a3.507,3.507,0,0,1-2.99-1.478,8.279,8.279,0,0,1,.02-8.232,3.594,3.594,0,0,1,3.047-1.482,3.518,3.518,0,0,1,3.109,1.584h.1a12.134,12.134,0,0,1-.223-2.154v-3.457H191.9v15.025h-2.262l-.568-1.4h-.126A3.366,3.366,0,0,1,185.882,1554.926Zm1.034-2.346a2,2,0,0,0,1.656-.656,3.829,3.829,0,0,0,.574-2.231v-.318a4.435,4.435,0,0,0-.536-2.494,1.993,1.993,0,0,0-1.744-.751,1.729,1.729,0,0,0-1.53.834,4.467,4.467,0,0,0-.545,2.429,4.225,4.225,0,0,0,.55,2.391A1.8,1.8,0,0,0,186.916,1552.58Z" transform="translate(18.835 -1444.777)"/>
    <path id="Trazado_24849" data-name="Trazado 24849" d="M196.306,1552.953l-.572-1.467h-.077a4.332,4.332,0,0,1-1.528,1.3,4.988,4.988,0,0,1-2.053.362,3.311,3.311,0,0,1-2.447-.888,3.416,3.416,0,0,1-.894-2.53,2.848,2.848,0,0,1,1.2-2.537,7,7,0,0,1,3.625-.9l1.873-.058v-.473a1.467,1.467,0,0,0-1.679-1.642,7.672,7.672,0,0,0-3.044.782l-.974-1.988a8.771,8.771,0,0,1,4.133-.976,5.136,5.136,0,0,1,3.332.948,3.5,3.5,0,0,1,1.158,2.876v7.193Zm-.87-5-1.14.039a3.633,3.633,0,0,0-1.911.464,1.457,1.457,0,0,0-.629,1.293c0,.831.478,1.248,1.429,1.248a2.26,2.26,0,0,0,1.638-.591,2.059,2.059,0,0,0,.613-1.564Z" transform="translate(24.363 -1442.998)"/>
    <path id="Trazado_24850" data-name="Trazado 24850" d="M200.808,1551.723a6.319,6.319,0,0,0,1.854-.338v2.192a6.628,6.628,0,0,1-2.7.493,3.306,3.306,0,0,1-2.571-.893,3.884,3.884,0,0,1-.807-2.679v-5.207h-1.411v-1.244l1.624-.985.849-2.28h1.884v2.3h3.022v2.209h-3.022v5.207a1.148,1.148,0,0,0,.352.926A1.389,1.389,0,0,0,200.808,1551.723Z" transform="translate(29.496 -1443.92)"/>
    <path id="Trazado_24851" data-name="Trazado 24851" d="M210.653,1547.528a5.808,5.808,0,0,1-1.39,4.124,5.048,5.048,0,0,1-3.874,1.487,5.41,5.41,0,0,1-2.742-.681,4.545,4.545,0,0,1-1.825-1.956,6.572,6.572,0,0,1-.636-2.974,5.77,5.77,0,0,1,1.379-4.111,5.075,5.075,0,0,1,3.885-1.469,5.464,5.464,0,0,1,2.742.674,4.551,4.551,0,0,1,1.825,1.942A6.519,6.519,0,0,1,210.653,1547.528Zm-7.465,0a4.507,4.507,0,0,0,.527,2.423,1.882,1.882,0,0,0,1.713.82,1.849,1.849,0,0,0,1.7-.814,4.588,4.588,0,0,0,.516-2.429,4.452,4.452,0,0,0-.521-2.4,2.215,2.215,0,0,0-3.407-.005A4.443,4.443,0,0,0,203.188,1547.528Z" transform="translate(33.5 -1442.99)"/>
    <path id="Trazado_24852" data-name="Trazado 24852" d="M215.185,1549.739a2.972,2.972,0,0,1-1.154,2.53,5.687,5.687,0,0,1-3.452.87,10.733,10.733,0,0,1-2.01-.16,7.45,7.45,0,0,1-1.553-.469v-2.432a10.438,10.438,0,0,0,1.848.647,7.481,7.481,0,0,0,1.812.262q1.6,0,1.6-.928a.774.774,0,0,0-.21-.564,3.047,3.047,0,0,0-.735-.494c-.347-.182-.811-.4-1.39-.64a8.823,8.823,0,0,1-1.83-.965,2.7,2.7,0,0,1-.85-1.021,3.343,3.343,0,0,1-.266-1.413,2.561,2.561,0,0,1,1.117-2.226,5.432,5.432,0,0,1,3.161-.787,8.957,8.957,0,0,1,3.8.85l-.89,2.125c-.539-.232-1.046-.423-1.516-.572a4.722,4.722,0,0,0-1.438-.223c-.868,0-1.305.235-1.305.706a.829.829,0,0,0,.423.685,11.3,11.3,0,0,0,1.839.859,8.626,8.626,0,0,1,1.854.954,2.849,2.849,0,0,1,.868,1.027A3.135,3.135,0,0,1,215.185,1549.739Z" transform="translate(38.934 -1442.99)"/>
    <path id="Trazado_24853" data-name="Trazado 24853" d="M212.6,1548.026a1.622,1.622,0,0,1,.433-1.228,1.772,1.772,0,0,1,1.266-.415,1.716,1.716,0,0,1,1.24.424,1.882,1.882,0,0,1,0,2.42,1.685,1.685,0,0,1-1.237.439,1.735,1.735,0,0,1-1.257-.428A1.615,1.615,0,0,1,212.6,1548.026Z" transform="translate(43.404 -1439.45)"/>
    <path id="Trazado_24854" data-name="Trazado 24854" d="M107.792,1552.939h2.116V1572.4h-2.116Z" transform="translate(-40.22 -1434.219)"/>
    <path id="Trazado_24855" data-name="Trazado 24855" d="M116.708,1552.939h2.116V1572.4h-2.116Z" transform="translate(-33.106 -1434.219)"/>
    <path id="Trazado_24856" data-name="Trazado 24856" d="M120.952,1556.789a1.624,1.624,0,0,1,.435-1.228,1.77,1.77,0,0,1,1.266-.415,1.7,1.7,0,0,1,1.239.426,1.886,1.886,0,0,1-.009,2.429,1.712,1.712,0,0,1-1.23.43A1.736,1.736,0,0,1,121.4,1558,1.6,1.6,0,0,1,120.952,1556.789Zm0,7.975a1.619,1.619,0,0,1,.435-1.226,1.761,1.761,0,0,1,1.266-.415,1.712,1.712,0,0,1,1.239.424,1.879,1.879,0,0,1,0,2.418,1.673,1.673,0,0,1-1.235.441,1.731,1.731,0,0,1-1.257-.43A1.6,1.6,0,0,1,120.952,1564.765Z" transform="translate(-29.72 -1432.458)"/>
    <path id="Trazado_24857" data-name="Trazado 24857" d="M133.184,1556.933a3.494,3.494,0,0,1,2.993,1.494,6.834,6.834,0,0,1,1.081,4.088,6.736,6.736,0,0,1-1.115,4.143,3.9,3.9,0,0,1-6.019.088h-.2l-.491,1.187h-2.251v-15.027h2.947v3.5c0,.442-.04,1.154-.117,2.132h.117A3.4,3.4,0,0,1,133.184,1556.933Zm-.946,2.357a1.865,1.865,0,0,0-1.595.67,3.859,3.859,0,0,0-.52,2.217v.318a4.541,4.541,0,0,0,.516,2.492,1.844,1.844,0,0,0,1.636.753,1.638,1.638,0,0,0,1.444-.836,4.511,4.511,0,0,0,.538-2.429,4.291,4.291,0,0,0-.541-2.39A1.7,1.7,0,0,0,132.238,1559.29Z" transform="translate(-24.753 -1434.245)"/>
    <path id="Trazado_24858" data-name="Trazado 24858" d="M141.31,1566.154l-.57-1.469h-.077a4.333,4.333,0,0,1-1.528,1.3,4.934,4.934,0,0,1-2.053.361,3.313,3.313,0,0,1-2.447-.888,3.41,3.41,0,0,1-.894-2.528,2.845,2.845,0,0,1,1.2-2.535,6.945,6.945,0,0,1,3.626-.9l1.873-.061v-.471a1.468,1.468,0,0,0-1.681-1.641,7.642,7.642,0,0,0-3.042.782l-.974-1.99a8.773,8.773,0,0,1,4.133-.974,5.138,5.138,0,0,1,3.33.946,3.5,3.5,0,0,1,1.16,2.878v7.193Zm-.868-5-1.14.04a3.625,3.625,0,0,0-1.911.464,1.449,1.449,0,0,0-.629,1.291c0,.832.478,1.247,1.429,1.247a2.267,2.267,0,0,0,1.638-.589,2.061,2.061,0,0,0,.613-1.562Z" transform="translate(-19.516 -1432.466)"/>
    <path id="Trazado_24859" data-name="Trazado 24859" d="M146.807,1555.146a4.648,4.648,0,0,1,.994.088l-.221,2.76a3.443,3.443,0,0,0-.87-.094,3.126,3.126,0,0,0-2.2.723,2.62,2.62,0,0,0-.787,2.028v5.495h-2.945v-10.795h2.229l.435,1.816h.144a4.091,4.091,0,0,1,1.357-1.465A3.36,3.36,0,0,1,146.807,1555.146Z" transform="translate(-13.898 -1432.458)"/>
    <path id="Trazado_24860" data-name="Trazado 24860" d="M151.8,1555.146a4.648,4.648,0,0,1,.994.088l-.221,2.76a3.438,3.438,0,0,0-.868-.094,3.128,3.128,0,0,0-2.2.723,2.62,2.62,0,0,0-.787,2.028v5.495h-2.945v-10.795h2.229l.435,1.816h.144a4.09,4.09,0,0,1,1.357-1.465A3.36,3.36,0,0,1,151.8,1555.146Z" transform="translate(-9.912 -1432.458)"/>
    <path id="Trazado_24861" data-name="Trazado 24861" d="M157.945,1566.154l-.57-1.469H157.3a4.337,4.337,0,0,1-1.53,1.3,4.931,4.931,0,0,1-2.051.361,3.317,3.317,0,0,1-2.449-.888,3.41,3.41,0,0,1-.894-2.528,2.846,2.846,0,0,1,1.2-2.535,6.94,6.94,0,0,1,3.626-.9l1.873-.061v-.471a1.469,1.469,0,0,0-1.681-1.641,7.635,7.635,0,0,0-3.042.782l-.975-1.99a8.768,8.768,0,0,1,4.133-.974,5.141,5.141,0,0,1,3.33.946,3.5,3.5,0,0,1,1.16,2.878v7.193Zm-.868-5-1.14.04a3.625,3.625,0,0,0-1.911.464,1.449,1.449,0,0,0-.629,1.291c0,.832.478,1.247,1.429,1.247a2.27,2.27,0,0,0,1.638-.589,2.061,2.061,0,0,0,.613-1.562Z" transform="translate(-6.244 -1432.466)"/>
    <path id="Trazado_24862" data-name="Trazado 24862" d="M165.24,1562.938a2.977,2.977,0,0,1-1.154,2.533,5.709,5.709,0,0,1-3.454.866,10.876,10.876,0,0,1-2.008-.158,7.385,7.385,0,0,1-1.553-.469v-2.433a10.235,10.235,0,0,0,1.848.647,7.556,7.556,0,0,0,1.812.26q1.6,0,1.6-.927a.768.768,0,0,0-.212-.564,3.09,3.09,0,0,0-.734-.493q-.52-.272-1.39-.641a8.757,8.757,0,0,1-1.832-.966,2.693,2.693,0,0,1-.849-1.019,3.346,3.346,0,0,1-.266-1.415,2.567,2.567,0,0,1,1.115-2.226,5.444,5.444,0,0,1,3.162-.787,9,9,0,0,1,3.8.85l-.888,2.125a16,16,0,0,0-1.517-.57,4.7,4.7,0,0,0-1.437-.223q-1.305,0-1.305.7a.831.831,0,0,0,.421.687,11.421,11.421,0,0,0,1.841.858,8.612,8.612,0,0,1,1.854.958,2.836,2.836,0,0,1,.868,1.023A3.139,3.139,0,0,1,165.24,1562.938Z" transform="translate(-0.917 -1432.458)"/>
    <path id="Trazado_24863" data-name="Trazado 24863" d="M169,1566.055l-4.114-10.795h3.08l2.086,6.151a10.89,10.89,0,0,1,.435,2.21h.059a9.505,9.505,0,0,1,.433-2.21l2.077-6.151h3.082l-4.115,10.795Z" transform="translate(5.331 -1432.367)"/>
    <path id="Trazado_24864" data-name="Trazado 24864" d="M177.176,1566.338a5.562,5.562,0,0,1-4.074-1.438,5.451,5.451,0,0,1-1.469-4.074,6,6,0,0,1,1.357-4.2,4.834,4.834,0,0,1,3.752-1.483,4.761,4.761,0,0,1,3.562,1.3,4.934,4.934,0,0,1,1.275,3.6v1.429h-6.961a2.841,2.841,0,0,0,.743,1.96,2.618,2.618,0,0,0,1.951.7,8.019,8.019,0,0,0,1.845-.2,9.123,9.123,0,0,0,1.814-.645v2.278a7,7,0,0,1-1.65.577A10.661,10.661,0,0,1,177.176,1566.338Zm-.415-9.094a1.869,1.869,0,0,0-1.469.593,2.759,2.759,0,0,0-.608,1.685h4.133a2.46,2.46,0,0,0-.568-1.685A1.931,1.931,0,0,0,176.761,1557.244Z" transform="translate(10.718 -1432.458)"/>
    <path id="Trazado_24865" data-name="Trazado 24865" d="M184.524,1555.146a4.648,4.648,0,0,1,.994.088l-.221,2.76a3.443,3.443,0,0,0-.87-.094,3.126,3.126,0,0,0-2.2.723,2.62,2.62,0,0,0-.787,2.028v5.495H178.5v-10.795h2.231l.435,1.816h.144a4.059,4.059,0,0,1,1.357-1.465A3.36,3.36,0,0,1,184.524,1555.146Z" transform="translate(16.195 -1432.458)"/>
    <path id="Trazado_24866" data-name="Trazado 24866" d="M188.525,1564.922a6.379,6.379,0,0,0,1.854-.336v2.192a6.625,6.625,0,0,1-2.7.491,3.311,3.311,0,0,1-2.573-.892,3.9,3.9,0,0,1-.805-2.678v-5.207h-1.411v-1.244l1.622-.987.85-2.28h1.884v2.3h3.022v2.21h-3.022v5.207a1.148,1.148,0,0,0,.352.926A1.39,1.39,0,0,0,188.525,1564.922Z" transform="translate(19.696 -1433.388)"/>
    <path id="Trazado_24867" data-name="Trazado 24867" d="M188.2,1554.346c0-.958.534-1.441,1.6-1.441s1.6.482,1.6,1.441a1.4,1.4,0,0,1-.4,1.068,1.692,1.692,0,0,1-1.2.381Q188.2,1555.8,188.2,1554.346Zm3.073,13.586h-2.947v-10.794h2.947Z" transform="translate(23.935 -1434.245)"/>
    <path id="Trazado_24868" data-name="Trazado 24868" d="M196.3,1566.338q-5.04,0-5.041-5.532a5.9,5.9,0,0,1,1.372-4.205,5.146,5.146,0,0,1,3.93-1.454,7.491,7.491,0,0,1,3.36.735l-.87,2.278c-.464-.185-.894-.339-1.293-.46a4.242,4.242,0,0,0-1.2-.176q-2.3,0-2.3,3.263,0,3.166,2.3,3.168a5.174,5.174,0,0,0,1.573-.229,5.618,5.618,0,0,0,1.449-.71v2.522a4.724,4.724,0,0,1-1.444.627A8.049,8.049,0,0,1,196.3,1566.338Z" transform="translate(26.378 -1432.458)"/>
    <path id="Trazado_24869" data-name="Trazado 24869" d="M204.455,1566.154l-.57-1.469h-.077a4.353,4.353,0,0,1-1.53,1.3,4.934,4.934,0,0,1-2.053.361,3.313,3.313,0,0,1-2.447-.888,3.41,3.41,0,0,1-.894-2.528,2.846,2.846,0,0,1,1.2-2.535,6.935,6.935,0,0,1,3.626-.9l1.873-.061v-.471a1.469,1.469,0,0,0-1.681-1.641,7.635,7.635,0,0,0-3.042.782l-.974-1.99a8.768,8.768,0,0,1,4.133-.974,5.145,5.145,0,0,1,3.33.946,3.5,3.5,0,0,1,1.16,2.878v7.193Zm-.868-5-1.14.04a3.632,3.632,0,0,0-1.913.464,1.452,1.452,0,0,0-.627,1.291q0,1.248,1.429,1.247a2.27,2.27,0,0,0,1.638-.589,2.067,2.067,0,0,0,.613-1.562Z" transform="translate(30.866 -1432.466)"/>
    <path id="Trazado_24870" data-name="Trazado 24870" d="M206.873,1567.933h-2.947v-15.027h2.947Z" transform="translate(36.484 -1434.245)"/>
    <path id="Trazado_24871" data-name="Trazado 24871" d="M212.461,1566.338a5.565,5.565,0,0,1-4.074-1.438,5.451,5.451,0,0,1-1.469-4.074,6,6,0,0,1,1.357-4.2,4.834,4.834,0,0,1,3.752-1.483,4.768,4.768,0,0,1,3.563,1.3,4.941,4.941,0,0,1,1.273,3.6v1.429H209.9a2.833,2.833,0,0,0,.744,1.96,2.613,2.613,0,0,0,1.949.7,8.008,8.008,0,0,0,1.845-.2,9.177,9.177,0,0,0,1.816-.645v2.278a7.051,7.051,0,0,1-1.65.577A10.692,10.692,0,0,1,212.461,1566.338Zm-.415-9.094a1.869,1.869,0,0,0-1.469.593,2.747,2.747,0,0,0-.606,1.685H214.1a2.451,2.451,0,0,0-.568-1.685A1.931,1.931,0,0,0,212.046,1557.244Z" transform="translate(38.872 -1432.458)"/>
    <path id="Trazado_24872" data-name="Trazado 24872" d="M221.606,1562.938a2.977,2.977,0,0,1-1.154,2.533,5.705,5.705,0,0,1-3.454.866,10.875,10.875,0,0,1-2.008-.158,7.449,7.449,0,0,1-1.553-.469v-2.433a10.235,10.235,0,0,0,1.848.647,7.556,7.556,0,0,0,1.812.26q1.6,0,1.6-.927a.774.774,0,0,0-.21-.564,3.148,3.148,0,0,0-.735-.493q-.52-.272-1.39-.641a8.758,8.758,0,0,1-1.832-.966,2.709,2.709,0,0,1-.849-1.019,3.346,3.346,0,0,1-.266-1.415,2.567,2.567,0,0,1,1.115-2.226,5.444,5.444,0,0,1,3.162-.787,9.013,9.013,0,0,1,3.8.85l-.89,2.125a15.984,15.984,0,0,0-1.516-.57,4.714,4.714,0,0,0-1.438-.223q-1.305,0-1.305.7a.829.829,0,0,0,.423.687,11.376,11.376,0,0,0,1.839.858,8.567,8.567,0,0,1,1.854.958,2.836,2.836,0,0,1,.868,1.023A3.138,3.138,0,0,1,221.606,1562.938Z" transform="translate(44.057 -1432.458)"/>
    <path id="Trazado_24873" data-name="Trazado 24873" d="M225.818,1566.338a3.506,3.506,0,0,1-2.993-1.471,8.285,8.285,0,0,1,.025-8.232,3.563,3.563,0,0,1,3.026-1.489,3.94,3.94,0,0,1,1.787.386,3.75,3.75,0,0,1,1.343,1.2h.077l.259-1.379h2.494V1570.9h-2.958v-4.527a14.265,14.265,0,0,1,.128-1.624h-.128a3.133,3.133,0,0,1-1.253,1.188A3.861,3.861,0,0,1,225.818,1566.338Zm1.052-2.307a1.988,1.988,0,0,0,1.643-.644,3.834,3.834,0,0,0,.57-2.244v-.358a4.432,4.432,0,0,0-.536-2.492,1.973,1.973,0,0,0-1.724-.752q-2.077,0-2.078,3.263a4.555,4.555,0,0,0,.518,2.425A1.781,1.781,0,0,0,226.87,1564.031Z" transform="translate(50.699 -1432.458)"/>
    <path id="Trazado_24874" data-name="Trazado 24874" d="M236.744,1566.055l-.4-1.381h-.155a3.1,3.1,0,0,1-1.341,1.163,4.59,4.59,0,0,1-1.981.41,3.764,3.764,0,0,1-2.866-1.017,4.09,4.09,0,0,1-.967-2.931v-7.039h2.945v6.305a3.019,3.019,0,0,0,.417,1.753,1.511,1.511,0,0,0,1.321.583,1.985,1.985,0,0,0,1.787-.825,5.123,5.123,0,0,0,.552-2.738v-5.077H239v10.795Z" transform="translate(56.519 -1432.367)"/>
    <path id="Trazado_24875" data-name="Trazado 24875" d="M241.476,1566.338a5.569,5.569,0,0,1-4.076-1.438,5.45,5.45,0,0,1-1.467-4.074,6,6,0,0,1,1.357-4.2,4.834,4.834,0,0,1,3.752-1.483,4.766,4.766,0,0,1,3.562,1.3,4.934,4.934,0,0,1,1.275,3.6v1.429h-6.961a2.832,2.832,0,0,0,.743,1.96,2.618,2.618,0,0,0,1.951.7,8.03,8.03,0,0,0,1.845-.2,9.123,9.123,0,0,0,1.814-.645v2.278a7.024,7.024,0,0,1-1.65.577A10.66,10.66,0,0,1,241.476,1566.338Zm-.417-9.094a1.866,1.866,0,0,0-1.467.593,2.748,2.748,0,0,0-.608,1.685h4.133a2.46,2.46,0,0,0-.568-1.685A1.932,1.932,0,0,0,241.059,1557.244Z" transform="translate(62.022 -1432.458)"/>
    <path id="Trazado_24876" data-name="Trazado 24876" d="M245.584,1554.346c0-.958.536-1.441,1.606-1.441s1.6.482,1.6,1.441a1.411,1.411,0,0,1-.4,1.068,1.7,1.7,0,0,1-1.2.381Q245.585,1555.8,245.584,1554.346Zm3.073,13.586h-2.945v-10.794h2.945Z" transform="translate(69.723 -1434.245)"/>
    <path id="Trazado_24877" data-name="Trazado 24877" d="M258.978,1566.146h-2.947v-6.305a3.039,3.039,0,0,0-.414-1.755,1.514,1.514,0,0,0-1.323-.583,1.987,1.987,0,0,0-1.787.825,5.132,5.132,0,0,0-.548,2.738v5.079h-2.947v-10.795h2.251l.4,1.379h.164a3.124,3.124,0,0,1,1.356-1.183,4.636,4.636,0,0,1,1.965-.4,3.778,3.778,0,0,1,2.859,1.019,4.09,4.09,0,0,1,.976,2.941Z" transform="translate(72.458 -1432.458)"/>
    <path id="Trazado_24878" data-name="Trazado 24878" d="M259.952,1568.125a3.5,3.5,0,0,1-2.988-1.476,8.268,8.268,0,0,1,.02-8.233,3.593,3.593,0,0,1,3.046-1.483,3.515,3.515,0,0,1,3.109,1.584h.1a12.084,12.084,0,0,1-.223-2.152v-3.459h2.958v15.027h-2.262l-.57-1.4h-.126A3.366,3.366,0,0,1,259.952,1568.125Zm1.034-2.346a2,2,0,0,0,1.656-.656,3.811,3.811,0,0,0,.574-2.229v-.32a4.417,4.417,0,0,0-.536-2.492,1.991,1.991,0,0,0-1.742-.752,1.727,1.727,0,0,0-1.532.834,4.464,4.464,0,0,0-.545,2.429,4.221,4.221,0,0,0,.55,2.39A1.8,1.8,0,0,0,260.986,1565.779Z" transform="translate(77.935 -1434.245)"/>
    <path id="Trazado_24879" data-name="Trazado 24879" d="M263.132,1554.346c0-.958.536-1.441,1.606-1.441s1.6.482,1.6,1.441a1.41,1.41,0,0,1-.4,1.068,1.7,1.7,0,0,1-1.2.381Q263.133,1555.8,263.132,1554.346Zm3.073,13.586h-2.947v-10.794H266.2Z" transform="translate(83.724 -1434.245)"/>
    <path id="Trazado_24880" data-name="Trazado 24880" d="M271.234,1566.338q-5.04,0-5.04-5.532a5.9,5.9,0,0,1,1.37-4.205,5.15,5.15,0,0,1,3.932-1.454,7.5,7.5,0,0,1,3.36.735l-.87,2.278c-.464-.185-.894-.339-1.293-.46a4.251,4.251,0,0,0-1.2-.176q-2.3,0-2.3,3.263,0,3.166,2.3,3.168a5.191,5.191,0,0,0,1.573-.229,5.648,5.648,0,0,0,1.449-.71v2.522a4.743,4.743,0,0,1-1.444.627A8.077,8.077,0,0,1,271.234,1566.338Z" transform="translate(86.167 -1432.458)"/>
    <path id="Trazado_24881" data-name="Trazado 24881" d="M279.389,1566.154l-.572-1.469h-.077a4.333,4.333,0,0,1-1.528,1.3,4.934,4.934,0,0,1-2.053.361,3.313,3.313,0,0,1-2.447-.888,3.41,3.41,0,0,1-.894-2.528,2.842,2.842,0,0,1,1.2-2.535,6.933,6.933,0,0,1,3.625-.9l1.873-.061v-.471a1.467,1.467,0,0,0-1.679-1.641,7.643,7.643,0,0,0-3.044.782l-.974-1.99a8.773,8.773,0,0,1,4.133-.974,5.147,5.147,0,0,1,3.331.946,3.5,3.5,0,0,1,1.158,2.878v7.193Zm-.87-5-1.14.04a3.625,3.625,0,0,0-1.911.464,1.453,1.453,0,0,0-.629,1.291c0,.832.478,1.247,1.429,1.247a2.267,2.267,0,0,0,1.638-.589,2.061,2.061,0,0,0,.613-1.562Z" transform="translate(90.655 -1432.466)"/>
    <path id="Trazado_24882" data-name="Trazado 24882" d="M288.826,1566.146h-2.947v-6.305a3.024,3.024,0,0,0-.415-1.755,1.512,1.512,0,0,0-1.323-.583,1.984,1.984,0,0,0-1.785.825,5.13,5.13,0,0,0-.55,2.738v5.079H278.86v-10.795h2.251l.394,1.379h.164a3.139,3.139,0,0,1,1.357-1.183,4.631,4.631,0,0,1,1.965-.4,3.781,3.781,0,0,1,2.859,1.019,4.09,4.09,0,0,1,.976,2.941Z" transform="translate(96.273 -1432.458)"/>
    <path id="Trazado_24883" data-name="Trazado 24883" d="M294.124,1566.338a5.568,5.568,0,0,1-4.074-1.438,5.451,5.451,0,0,1-1.469-4.074,6,6,0,0,1,1.357-4.2,4.834,4.834,0,0,1,3.752-1.483,4.768,4.768,0,0,1,3.563,1.3,4.941,4.941,0,0,1,1.275,3.6v1.429h-6.961a2.825,2.825,0,0,0,.743,1.96,2.615,2.615,0,0,0,1.951.7,8,8,0,0,0,1.843-.2,9.176,9.176,0,0,0,1.816-.645v2.278a7.022,7.022,0,0,1-1.65.577A10.679,10.679,0,0,1,294.124,1566.338Zm-.415-9.094a1.863,1.863,0,0,0-1.467.593,2.737,2.737,0,0,0-.608,1.685h4.132a2.451,2.451,0,0,0-.568-1.685A1.928,1.928,0,0,0,293.709,1557.244Z" transform="translate(104.03 -1432.458)"/>
    <path id="Trazado_24884" data-name="Trazado 24884" d="M298.391,1567.933h-2.945v-15.027h2.945Z" transform="translate(109.507 -1434.245)"/>
    <path id="Trazado_24885" data-name="Trazado 24885" d="M304.915,1566.055,300.8,1555.26h3.08l2.086,6.151a10.887,10.887,0,0,1,.435,2.21h.059a9.5,9.5,0,0,1,.433-2.21l2.077-6.151h3.082l-4.115,10.795Z" transform="translate(113.78 -1432.367)"/>
    <path id="Trazado_24886" data-name="Trazado 24886" d="M315.092,1566.154l-.572-1.469h-.077a4.333,4.333,0,0,1-1.528,1.3,4.934,4.934,0,0,1-2.053.361,3.313,3.313,0,0,1-2.447-.888,3.41,3.41,0,0,1-.894-2.528,2.842,2.842,0,0,1,1.2-2.535,6.933,6.933,0,0,1,3.625-.9l1.873-.061v-.471a1.467,1.467,0,0,0-1.679-1.641,7.642,7.642,0,0,0-3.044.782l-.974-1.99a8.773,8.773,0,0,1,4.133-.974,5.147,5.147,0,0,1,3.332.946,3.5,3.5,0,0,1,1.158,2.878v7.193Zm-.87-5-1.138.04a3.627,3.627,0,0,0-1.913.464,1.453,1.453,0,0,0-.629,1.291c0,.832.478,1.247,1.429,1.247a2.274,2.274,0,0,0,1.64-.589,2.066,2.066,0,0,0,.611-1.562Z" transform="translate(119.142 -1432.466)"/>
    <path id="Trazado_24887" data-name="Trazado 24887" d="M317.508,1567.933h-2.945v-15.027h2.945Z" transform="translate(124.76 -1434.245)"/>
    <path id="Trazado_24888" data-name="Trazado 24888" d="M328.022,1560.729a5.81,5.81,0,0,1-1.39,4.125,5.047,5.047,0,0,1-3.873,1.485,5.4,5.4,0,0,1-2.744-.682,4.54,4.54,0,0,1-1.825-1.954,6.574,6.574,0,0,1-.637-2.974,5.772,5.772,0,0,1,1.381-4.114,5.069,5.069,0,0,1,3.883-1.469,5.444,5.444,0,0,1,2.742.676,4.53,4.53,0,0,1,1.825,1.942A6.518,6.518,0,0,1,328.022,1560.729Zm-7.465,0a4.539,4.539,0,0,0,.527,2.425,1.889,1.889,0,0,0,1.713.82,1.854,1.854,0,0,0,1.7-.817,4.588,4.588,0,0,0,.516-2.429,4.444,4.444,0,0,0-.521-2.4,2.217,2.217,0,0,0-3.407-.007A4.469,4.469,0,0,0,320.557,1560.729Z" transform="translate(127.148 -1432.458)"/>
    <path id="Trazado_24889" data-name="Trazado 24889" d="M330.756,1555.146a4.637,4.637,0,0,1,.994.088l-.221,2.76a3.438,3.438,0,0,0-.868-.094,3.128,3.128,0,0,0-2.2.723,2.62,2.62,0,0,0-.788,2.028v5.495h-2.945v-10.795h2.229l.435,1.816h.144a4.091,4.091,0,0,1,1.357-1.465A3.365,3.365,0,0,1,330.756,1555.146Z" transform="translate(132.873 -1432.458)"/>
    <path id="Trazado_24890" data-name="Trazado 24890" d="M339.757,1566.154l-.572-1.469h-.077a4.334,4.334,0,0,1-1.528,1.3,4.934,4.934,0,0,1-2.053.361,3.313,3.313,0,0,1-2.447-.888,3.409,3.409,0,0,1-.894-2.528,2.842,2.842,0,0,1,1.2-2.535,6.933,6.933,0,0,1,3.625-.9l1.873-.061v-.471a1.467,1.467,0,0,0-1.679-1.641,7.642,7.642,0,0,0-3.044.782l-.974-1.99a8.773,8.773,0,0,1,4.133-.974,5.147,5.147,0,0,1,3.331.946,3.5,3.5,0,0,1,1.158,2.878v7.193Zm-.87-5-1.138.04a3.632,3.632,0,0,0-1.913.464,1.452,1.452,0,0,0-.628,1.291q0,1.248,1.428,1.247a2.274,2.274,0,0,0,1.64-.589,2.066,2.066,0,0,0,.611-1.562Z" transform="translate(138.822 -1432.466)"/>
    <path id="Trazado_24891" data-name="Trazado 24891" d="M345.234,1556.933a3.5,3.5,0,0,1,2.994,1.494,6.835,6.835,0,0,1,1.08,4.088,6.735,6.735,0,0,1-1.115,4.143,3.9,3.9,0,0,1-6.019.088h-.2l-.491,1.187h-2.251v-15.027h2.947v3.5c0,.442-.04,1.154-.117,2.132h.117A3.4,3.4,0,0,1,345.234,1556.933Zm-.948,2.357a1.864,1.864,0,0,0-1.593.67,3.844,3.844,0,0,0-.52,2.217v.318a4.54,4.54,0,0,0,.516,2.492,1.844,1.844,0,0,0,1.636.753,1.638,1.638,0,0,0,1.444-.836,4.513,4.513,0,0,0,.536-2.429,4.292,4.292,0,0,0-.539-2.39A1.7,1.7,0,0,0,344.286,1559.29Z" transform="translate(144.439 -1434.245)"/>
    <path id="Trazado_24892" data-name="Trazado 24892" d="M354.011,1562.938a2.981,2.981,0,0,1-1.153,2.533,5.713,5.713,0,0,1-3.454.866,10.847,10.847,0,0,1-2.008-.158,7.432,7.432,0,0,1-1.555-.469v-2.433a10.251,10.251,0,0,0,1.85.647,7.531,7.531,0,0,0,1.811.26q1.6,0,1.6-.927a.774.774,0,0,0-.21-.564,3.128,3.128,0,0,0-.733-.493q-.523-.272-1.392-.641a8.689,8.689,0,0,1-1.83-.966,2.716,2.716,0,0,1-.85-1.019,3.347,3.347,0,0,1-.264-1.415,2.568,2.568,0,0,1,1.115-2.226,5.442,5.442,0,0,1,3.161-.787,9.012,9.012,0,0,1,3.8.85l-.888,2.125a16,16,0,0,0-1.517-.57,4.707,4.707,0,0,0-1.438-.223q-1.3,0-1.3.7a.831.831,0,0,0,.421.687,11.38,11.38,0,0,0,1.839.858,8.636,8.636,0,0,1,1.855.958,2.848,2.848,0,0,1,.867,1.023A3.139,3.139,0,0,1,354.011,1562.938Z" transform="translate(149.702 -1432.458)"/>
    <path id="Trazado_24893" data-name="Trazado 24893" d="M361.759,1560.729a5.8,5.8,0,0,1-1.392,4.125,5.042,5.042,0,0,1-3.873,1.485,5.4,5.4,0,0,1-2.744-.682,4.526,4.526,0,0,1-1.823-1.954,6.551,6.551,0,0,1-.638-2.974,5.772,5.772,0,0,1,1.381-4.114,5.072,5.072,0,0,1,3.883-1.469,5.445,5.445,0,0,1,2.742.676,4.52,4.52,0,0,1,1.825,1.942A6.519,6.519,0,0,1,361.759,1560.729Zm-7.467,0a4.54,4.54,0,0,0,.527,2.425,1.891,1.891,0,0,0,1.713.82,1.857,1.857,0,0,0,1.7-.817,4.605,4.605,0,0,0,.516-2.429,4.46,4.46,0,0,0-.521-2.4,2.219,2.219,0,0,0-3.409-.007A4.47,4.47,0,0,0,354.292,1560.729Z" transform="translate(154.064 -1432.458)"/>
    <path id="Trazado_24894" data-name="Trazado 24894" d="M361.413,1567.933h-2.947v-15.027h2.947Z" transform="translate(159.79 -1434.245)"/>
    <path id="Trazado_24895" data-name="Trazado 24895" d="M369.5,1566.055l-.4-1.381h-.155a3.1,3.1,0,0,1-1.341,1.163,4.6,4.6,0,0,1-1.981.41,3.771,3.771,0,0,1-2.868-1.017,4.1,4.1,0,0,1-.965-2.931v-7.039h2.945v6.305a3.034,3.034,0,0,0,.415,1.753,1.516,1.516,0,0,0,1.323.583,1.985,1.985,0,0,0,1.787-.825,5.123,5.123,0,0,0,.552-2.738v-5.077h2.943v10.795Z" transform="translate(162.442 -1432.367)"/>
    <path id="Trazado_24896" data-name="Trazado 24896" d="M374.083,1564.922a6.4,6.4,0,0,0,1.855-.336v2.192a6.637,6.637,0,0,1-2.7.491,3.308,3.308,0,0,1-2.573-.892,3.888,3.888,0,0,1-.805-2.678v-5.207h-1.411v-1.244l1.622-.987.85-2.28H372.8v2.3h3.022v2.21H372.8v5.207a1.149,1.149,0,0,0,.354.926A1.389,1.389,0,0,0,374.083,1564.922Z" transform="translate(167.752 -1433.388)"/>
    <path id="Trazado_24897" data-name="Trazado 24897" d="M383.928,1560.729a5.8,5.8,0,0,1-1.39,4.125,5.044,5.044,0,0,1-3.873,1.485,5.4,5.4,0,0,1-2.744-.682,4.526,4.526,0,0,1-1.823-1.954,6.553,6.553,0,0,1-.638-2.974,5.772,5.772,0,0,1,1.381-4.114,5.072,5.072,0,0,1,3.883-1.469,5.445,5.445,0,0,1,2.742.676,4.52,4.52,0,0,1,1.825,1.942A6.518,6.518,0,0,1,383.928,1560.729Zm-7.465,0a4.539,4.539,0,0,0,.527,2.425,1.888,1.888,0,0,0,1.713.82,1.857,1.857,0,0,0,1.7-.817,4.605,4.605,0,0,0,.516-2.429,4.459,4.459,0,0,0-.521-2.4,2.219,2.219,0,0,0-3.409-.007A4.47,4.47,0,0,0,376.464,1560.729Z" transform="translate(171.755 -1432.458)"/>
    <path id="Trazado_24898" data-name="Trazado 24898" d="M387.2,1568.125a3.5,3.5,0,0,1-2.988-1.476,8.274,8.274,0,0,1,.018-8.233,3.6,3.6,0,0,1,3.047-1.483,3.515,3.515,0,0,1,3.108,1.584h.1a12.092,12.092,0,0,1-.223-2.152v-3.459h2.956v15.027h-2.26l-.57-1.4h-.126A3.368,3.368,0,0,1,387.2,1568.125Zm1.034-2.346a2,2,0,0,0,1.656-.656,3.812,3.812,0,0,0,.574-2.229v-.32a4.417,4.417,0,0,0-.536-2.492,1.991,1.991,0,0,0-1.742-.752,1.727,1.727,0,0,0-1.532.834,4.465,4.465,0,0,0-.545,2.429,4.221,4.221,0,0,0,.55,2.39A1.8,1.8,0,0,0,388.239,1565.779Z" transform="translate(179.469 -1434.245)"/>
    <path id="Trazado_24899" data-name="Trazado 24899" d="M395.633,1566.338a5.562,5.562,0,0,1-4.074-1.438,5.451,5.451,0,0,1-1.469-4.074,6,6,0,0,1,1.357-4.2,4.835,4.835,0,0,1,3.752-1.483,4.761,4.761,0,0,1,3.562,1.3,4.934,4.934,0,0,1,1.275,3.6v1.429h-6.961a2.841,2.841,0,0,0,.742,1.96,2.621,2.621,0,0,0,1.951.7,8.018,8.018,0,0,0,1.845-.2,9.123,9.123,0,0,0,1.814-.645v2.278a7.009,7.009,0,0,1-1.649.577A10.693,10.693,0,0,1,395.633,1566.338Zm-.415-9.094a1.869,1.869,0,0,0-1.469.593,2.759,2.759,0,0,0-.608,1.685h4.133a2.459,2.459,0,0,0-.568-1.685A1.931,1.931,0,0,0,395.218,1557.244Z" transform="translate(185.023 -1432.458)"/>
    <path id="Trazado_24900" data-name="Trazado 24900" d="M399.9,1567.933h-2.947v-15.027H399.9Z" transform="translate(190.499 -1434.245)"/>
    <path id="Trazado_24901" data-name="Trazado 24901" d="M80.174,1579.347H77.229v-6.307a3.028,3.028,0,0,0-.415-1.753,1.513,1.513,0,0,0-1.323-.584,1.989,1.989,0,0,0-1.785.827,5.114,5.114,0,0,0-.55,2.737v5.081H70.208v-10.8h2.251l.4,1.383h.164a3.119,3.119,0,0,1,1.357-1.183,4.6,4.6,0,0,1,1.963-.4,3.762,3.762,0,0,1,2.859,1.019,4.073,4.073,0,0,1,.976,2.94Z" transform="translate(-70.208 -1421.925)"/>
    <path id="Trazado_24902" data-name="Trazado 24902" d="M85.112,1581.19l-.4-1.383H84.56a3.109,3.109,0,0,1-1.341,1.165,4.586,4.586,0,0,1-1.981.41,3.77,3.77,0,0,1-2.866-1.018,4.1,4.1,0,0,1-.965-2.932v-7.041h2.943v6.307a3.008,3.008,0,0,0,.417,1.751,1.509,1.509,0,0,0,1.321.586,1.99,1.99,0,0,0,1.787-.827,5.11,5.11,0,0,0,.552-2.736v-5.081h2.945v10.8ZM80.727,1569.2v-.26A27.72,27.72,0,0,0,83,1566.037h3.3v.2q-.5.5-1.713,1.492c-.807.66-1.44,1.149-1.9,1.473Z" transform="translate(-64.465 -1423.768)"/>
    <path id="Trazado_24903" data-name="Trazado 24903" d="M94.334,1579.347H91.389v-6.307a3.176,3.176,0,0,0-.392-1.753,1.377,1.377,0,0,0-1.232-.584,1.783,1.783,0,0,0-1.641.831,5.47,5.47,0,0,0-.511,2.733v5.081H84.667v-10.8h2.251l.4,1.383h.164a2.99,2.99,0,0,1,1.257-1.165,4.064,4.064,0,0,1,1.882-.419,3.392,3.392,0,0,1,3.283,1.584h.261a2.906,2.906,0,0,1,1.278-1.169,4.269,4.269,0,0,1,1.909-.415,3.761,3.761,0,0,1,2.776.942,4.13,4.13,0,0,1,.94,3.017v7.041H98.11v-6.307a3.16,3.16,0,0,0-.392-1.753,1.374,1.374,0,0,0-1.23-.584,1.837,1.837,0,0,0-1.618.773,4.376,4.376,0,0,0-.536,2.452Z" transform="translate(-58.671 -1421.925)"/>
    <path id="Trazado_24904" data-name="Trazado 24904" d="M100.647,1579.539a5.569,5.569,0,0,1-4.076-1.44,5.446,5.446,0,0,1-1.467-4.074,5.986,5.986,0,0,1,1.357-4.195,4.822,4.822,0,0,1,3.752-1.483,4.753,4.753,0,0,1,3.562,1.3,4.927,4.927,0,0,1,1.275,3.6v1.43H98.088a2.838,2.838,0,0,0,.743,1.962,2.619,2.619,0,0,0,1.951.7,8.21,8.21,0,0,0,1.843-.2,9.21,9.21,0,0,0,1.816-.647v2.278a6.922,6.922,0,0,1-1.65.575A10.373,10.373,0,0,1,100.647,1579.539Zm-.417-9.1a1.877,1.877,0,0,0-1.467.593,2.756,2.756,0,0,0-.608,1.684h4.133a2.458,2.458,0,0,0-.57-1.684A1.94,1.94,0,0,0,100.23,1570.442Z" transform="translate(-50.344 -1421.925)"/>
    <path id="Trazado_24905" data-name="Trazado 24905" d="M107.995,1568.347a4.756,4.756,0,0,1,.992.086l-.221,2.763a3.341,3.341,0,0,0-.868-.1,3.127,3.127,0,0,0-2.2.725,2.619,2.619,0,0,0-.786,2.028v5.5h-2.947v-10.8H104.2l.435,1.816h.146a4.054,4.054,0,0,1,1.356-1.462A3.34,3.34,0,0,1,107.995,1568.347Z" transform="translate(-44.867 -1421.925)"/>
    <path id="Trazado_24906" data-name="Trazado 24906" d="M117.065,1573.928a5.8,5.8,0,0,1-1.39,4.123,5.043,5.043,0,0,1-3.874,1.489,5.43,5.43,0,0,1-2.742-.681,4.545,4.545,0,0,1-1.825-1.956,6.569,6.569,0,0,1-.636-2.974,5.772,5.772,0,0,1,1.381-4.114,5.075,5.075,0,0,1,3.883-1.467,5.462,5.462,0,0,1,2.742.676,4.511,4.511,0,0,1,1.825,1.942A6.5,6.5,0,0,1,117.065,1573.928Zm-7.465,0a4.532,4.532,0,0,0,.527,2.424,1.881,1.881,0,0,0,1.713.822,1.857,1.857,0,0,0,1.7-.814,4.6,4.6,0,0,0,.516-2.431,4.457,4.457,0,0,0-.521-2.405,2.217,2.217,0,0,0-3.407,0A4.461,4.461,0,0,0,109.6,1573.928Z" transform="translate(-41.173 -1421.925)"/>
    <path id="Trazado_24907" data-name="Trazado 24907" d="M113.543,1574.425a1.621,1.621,0,0,1,.433-1.226,1.767,1.767,0,0,1,1.268-.416,1.7,1.7,0,0,1,1.239.427,1.879,1.879,0,0,1,0,2.418,1.688,1.688,0,0,1-1.235.439,1.749,1.749,0,0,1-1.259-.428A1.617,1.617,0,0,1,113.543,1574.425Z" transform="translate(-35.631 -1418.385)"/>
  </g>
</svg>
