<svg id="Grupo_14597" data-name="Grupo 14597" xmlns="http://www.w3.org/2000/svg" width="582.54" height="42.445" viewBox="0 0 582.54 42.445">
  <g id="Grupo_14584" data-name="Grupo 14584" transform="translate(36.963 0.02)">
    <g id="Grupo_14583" data-name="Grupo 14583">
      <path id="Trazado_24908" data-name="Trazado 24908" d="M124.492,1624.072h-9.869v-2.078l3.544-3.581q1.572-1.613,2.057-2.235a4.91,4.91,0,0,0,.7-1.156,2.917,2.917,0,0,0,.212-1.1,1.6,1.6,0,0,0-.469-1.264,1.815,1.815,0,0,0-1.25-.415,3.581,3.581,0,0,0-1.593.378,8.083,8.083,0,0,0-1.613,1.07l-1.624-1.92a10.359,10.359,0,0,1,1.73-1.255,6.212,6.212,0,0,1,1.5-.566,7.713,7.713,0,0,1,1.816-.2,5.41,5.41,0,0,1,2.337.482,3.751,3.751,0,0,1,1.575,1.352,3.607,3.607,0,0,1,.557,1.99,4.875,4.875,0,0,1-.342,1.831,7,7,0,0,1-1.063,1.753,25.72,25.72,0,0,1-2.535,2.559l-1.816,1.71v.135h6.152Z" transform="translate(-114.584 -1609.75)"/>
      <path id="Trazado_24909" data-name="Trazado 24909" d="M126.41,1617.04h-3.736v-2.116h3.736v-3.767h2.116v3.767h3.738v2.116h-3.738v3.716H126.41Z" transform="translate(-108.129 -1608.627)"/>
      <path id="Trazado_24910" data-name="Trazado 24910" d="M141.068,1621.055h-1.7v2.927h-2.918v-2.927h-6.027v-2.077l6.19-9.115h2.754v8.874h1.7Zm-4.617-2.318v-2.395q0-.6.049-1.739c.032-.759.058-1.2.077-1.323H136.5a10.786,10.786,0,0,1-.861,1.546l-2.587,3.91Z" transform="translate(-101.945 -1609.66)"/>
      <path id="Trazado_24911" data-name="Trazado 24911" d="M142.484,1617.04h-3.738v-2.116h3.738v-3.767H144.6v3.767h3.738v2.116H144.6v3.716h-2.114Z" transform="translate(-95.305 -1608.627)"/>
      <path id="Trazado_24912" data-name="Trazado 24912" d="M146.7,1618.058q0-4.191,1.771-6.239a6.642,6.642,0,0,1,5.307-2.048,9.717,9.717,0,0,1,1.893.146v2.386a7.734,7.734,0,0,0-1.7-.194,5.831,5.831,0,0,0-2.508.464,3.144,3.144,0,0,0-1.454,1.372,6.321,6.321,0,0,0-.568,2.578h.126a3.275,3.275,0,0,1,3.06-1.641,3.8,3.8,0,0,1,2.966,1.187,4.739,4.739,0,0,1,1.072,3.283,4.938,4.938,0,0,1-1.275,3.58,4.687,4.687,0,0,1-3.535,1.318,5.073,5.073,0,0,1-2.729-.724,4.715,4.715,0,0,1-1.8-2.115A8.071,8.071,0,0,1,146.7,1618.058Zm5.1,3.8a1.768,1.768,0,0,0,1.467-.642,2.885,2.885,0,0,0,.512-1.831,2.509,2.509,0,0,0-.48-1.625,1.732,1.732,0,0,0-1.442-.6,2.213,2.213,0,0,0-1.552.59,1.8,1.8,0,0,0-.642,1.37,3.1,3.1,0,0,0,.6,1.94A1.85,1.85,0,0,0,151.8,1621.862Z" transform="translate(-88.961 -1609.734)"/>
      <path id="Trazado_24913" data-name="Trazado 24913" d="M158.556,1617.04H154.82v-2.116h3.736v-3.767h2.116v3.767h3.738v2.116h-3.738v3.716h-2.116Z" transform="translate(-82.48 -1608.627)"/>
      <path id="Trazado_24914" data-name="Trazado 24914" d="M167.734,1609.761a5.333,5.333,0,0,1,3.269.923,2.938,2.938,0,0,1,1.241,2.486,3.238,3.238,0,0,1-.6,1.926,5.073,5.073,0,0,1-1.931,1.512,6.843,6.843,0,0,1,2.276,1.773,3.293,3.293,0,0,1,.69,2.022,3.371,3.371,0,0,1-1.361,2.8,5.689,5.689,0,0,1-3.583,1.057,5.978,5.978,0,0,1-3.641-.985,3.274,3.274,0,0,1-1.323-2.792,3.706,3.706,0,0,1,.642-2.143,1.666,1.666,0,1,0,.324-3.283,3.576,3.576,0,0,1-.53-1.9,2.92,2.92,0,0,1,1.253-2.453A5.337,5.337,0,0,1,167.734,1609.761Zm-2.2,10.545a1.564,1.564,0,0,0,.579,1.294,3.039,3.039,0,0,0,3.245-.014,1.588,1.588,0,0,0,.55-1.26,1.726,1.726,0,0,0-.545-1.211,7.012,7.012,0,0,0-1.773-1.2Q165.533,1618.858,165.532,1620.306Zm2.183-8.364a1.868,1.868,0,0,0-1.232.392,1.293,1.293,0,0,0-.467,1.048,1.6,1.6,0,0,0,.372,1.038,4.061,4.061,0,0,0,1.347.942,3.748,3.748,0,0,0,1.321-.908,1.636,1.636,0,0,0,.378-1.072,1.28,1.28,0,0,0-.484-1.053A1.925,1.925,0,0,0,167.714,1611.942Z" transform="translate(-76.137 -1609.741)"/>
    </g>
  </g>
  <g id="Grupo_14586" data-name="Grupo 14586" transform="translate(204.909)">
    <g id="Grupo_14585" data-name="Grupo 14585">
      <path id="Trazado_24915" data-name="Trazado 24915" d="M217.907,1624.072h-9.87v-2.078l3.547-3.581c1.046-1.075,1.733-1.821,2.053-2.235a4.792,4.792,0,0,0,.7-1.156,2.884,2.884,0,0,0,.214-1.1,1.6,1.6,0,0,0-.471-1.264,1.812,1.812,0,0,0-1.25-.415,3.567,3.567,0,0,0-1.591.378,8.143,8.143,0,0,0-1.615,1.07l-1.623-1.92a10.282,10.282,0,0,1,1.731-1.255,6.24,6.24,0,0,1,1.5-.566,7.7,7.7,0,0,1,1.816-.2,5.4,5.4,0,0,1,2.335.482,3.756,3.756,0,0,1,1.577,1.352,3.607,3.607,0,0,1,.557,1.99,4.875,4.875,0,0,1-.343,1.831,7.045,7.045,0,0,1-1.061,1.753,25.724,25.724,0,0,1-2.535,2.559l-1.816,1.71v.135h6.152Z" transform="translate(-207.997 -1609.73)"/>
      <path id="Trazado_24916" data-name="Trazado 24916" d="M223.576,1617.021a9.849,9.849,0,0,1-1.212,5.476,4.211,4.211,0,0,1-3.732,1.776,4.156,4.156,0,0,1-3.684-1.834,9.692,9.692,0,0,1-1.244-5.419,9.939,9.939,0,0,1,1.208-5.509,4.695,4.695,0,0,1,7.413.081A9.737,9.737,0,0,1,223.576,1617.021Zm-6.9,0a11.029,11.029,0,0,0,.446,3.723,1.574,1.574,0,0,0,3.02-.016,15.085,15.085,0,0,0-.007-7.438,1.562,1.562,0,0,0-3.006,0A10.967,10.967,0,0,0,216.672,1617.021Z" transform="translate(-203.443 -1609.739)"/>
    </g>
  </g>
  <g id="Grupo_14588" data-name="Grupo 14588" transform="translate(0 18.851)">
    <g id="Grupo_14587" data-name="Grupo 14587">
      <path id="Trazado_24917" data-name="Trazado 24917" d="M97.684,1625.508l-3.477-5.284h3.34l2.1,3.439,2.113-3.439H105.1l-3.515,5.284,3.68,5.515h-3.355l-2.267-3.7-2.28,3.7H94.025Z" transform="translate(-94.025 -1620.224)"/>
      <path id="Trazado_24918" data-name="Trazado 24918" d="M102.56,1622.844v-2.114h9.59v2.114Zm0,3.736v-2.115h9.59v2.115Z" transform="translate(-87.215 -1619.82)"/>
    </g>
  </g>
  <g id="Grupo_14590" data-name="Grupo 14590" transform="translate(75.941 28.328)">
    <g id="Grupo_14589" data-name="Grupo 14589">
      <path id="Trazado_24919" data-name="Trazado 24919" d="M146.908,1636.689h-1.7v2.924h-2.918v-2.924h-6.027v-2.078l6.19-9.115h2.754v8.874h1.7Zm-4.617-2.319v-2.395q0-.6.049-1.737c.031-.761.058-1.2.077-1.325h-.077a10.79,10.79,0,0,1-.861,1.546l-2.587,3.91Z" transform="translate(-136.264 -1625.495)"/>
    </g>
  </g>
  <line id="Línea_599" data-name="Línea 599" x2="104.135" transform="translate(29.521 25.914)" fill="#fff" stroke="#000" stroke-miterlimit="10" stroke-width="0.5"/>
  <g id="Grupo_14592" data-name="Grupo 14592" transform="translate(210.396 28.328)">
    <g id="Grupo_14591" data-name="Grupo 14591">
      <path id="Trazado_24920" data-name="Trazado 24920" d="M221.693,1636.689h-1.7v2.924h-2.918v-2.924h-6.027v-2.078l6.19-9.115h2.754v8.874h1.7Zm-4.617-2.319v-2.395q0-.6.049-1.737c.032-.761.058-1.2.077-1.325h-.077a10.948,10.948,0,0,1-.859,1.546l-2.589,3.91Z" transform="translate(-211.049 -1625.495)"/>
    </g>
  </g>
  <line id="Línea_600" data-name="Línea 600" x2="45.35" transform="translate(192.24 25.914)" fill="#fff" stroke="#000" stroke-miterlimit="10" stroke-width="0.5"/>
  <line id="Línea_601" data-name="Línea 601" x2="10.005" transform="translate(0.568 15.556)" fill="none" stroke="#000" stroke-miterlimit="10" stroke-width="0.5"/>
  <g id="Grupo_14594" data-name="Grupo 14594" transform="translate(144.75 18.65)">
    <g id="Grupo_14593" data-name="Grupo 14593">
      <path id="Trazado_24921" data-name="Trazado 24921" d="M178.216,1628.812l.144.223a29.649,29.649,0,0,1-1.7,4.626h-2.125q.631-2.57.976-4.849Zm-3.157-7.059a1.612,1.612,0,0,1,.435-1.224,1.753,1.753,0,0,1,1.266-.417,1.712,1.712,0,0,1,1.239.424,1.618,1.618,0,0,1,.439,1.217,1.6,1.6,0,0,1-.448,1.212,1.7,1.7,0,0,1-1.23.43,1.752,1.752,0,0,1-1.257-.424A1.6,1.6,0,0,1,175.059,1621.754Z" transform="translate(-174.536 -1620.112)"/>
      <path id="Trazado_24922" data-name="Trazado 24922" d="M187.475,1625.508,184,1620.224h3.34l2.1,3.439,2.114-3.439h3.342l-3.515,5.284,3.678,5.515H191.7l-2.267-3.7-2.28,3.7h-3.34Z" transform="translate(-167.132 -1620.023)"/>
      <path id="Trazado_24923" data-name="Trazado 24923" d="M192.351,1622.844v-2.114h9.59v2.114Zm0,3.736v-2.115h9.59v2.115Z" transform="translate(-160.322 -1619.619)"/>
    </g>
  </g>
  <line id="Línea_602" data-name="Línea 602" x2="10.005" transform="translate(160.976 15.556)" fill="none" stroke="#000" stroke-miterlimit="10" stroke-width="0.5"/>
  <g id="Grupo_14596" data-name="Grupo 14596" transform="translate(250.282 14.498)">
    <g id="Grupo_14595" data-name="Grupo 14595">
      <path id="Trazado_24924" data-name="Trazado 24924" d="M236.914,1628.812l.144.223a29.5,29.5,0,0,1-1.7,4.626h-2.123q.631-2.57.976-4.849Zm-3.157-7.059a1.606,1.606,0,0,1,.435-1.224,1.745,1.745,0,0,1,1.264-.417,1.709,1.709,0,0,1,1.239.424,1.885,1.885,0,0,1-.005,2.429,1.715,1.715,0,0,1-1.233.43,1.755,1.755,0,0,1-1.257-.424A1.61,1.61,0,0,1,233.757,1621.754Z" transform="translate(-233.234 -1615.961)"/>
      <path id="Trazado_24925" data-name="Trazado 24925" d="M246.172,1625.508l-3.475-5.284h3.339l2.1,3.439,2.114-3.439h3.342l-3.515,5.284,3.68,5.515H250.4l-2.269-3.7-2.28,3.7h-3.339Z" transform="translate(-225.83 -1615.871)"/>
      <path id="Trazado_24926" data-name="Trazado 24926" d="M253.357,1622.844v-2.114h9.59v2.114Zm0,3.736v-2.115h9.59v2.115Z" transform="translate(-217.178 -1615.468)"/>
      <path id="Trazado_24927" data-name="Trazado 24927" d="M268.729,1623.476a4.542,4.542,0,0,1,3.258,1.149,4.136,4.136,0,0,1,1.212,3.148,4.575,4.575,0,0,1-1.458,3.643,6.154,6.154,0,0,1-4.171,1.275,8.188,8.188,0,0,1-3.806-.764v-2.58a8.527,8.527,0,0,0,3.7.919q2.732,0,2.735-2.24,0-2.136-2.83-2.134a6.761,6.761,0,0,0-1.131.1,8.21,8.21,0,0,0-1.005.216l-1.187-.637.53-7.2h7.659v2.531H267.19l-.259,2.771.336-.067A6.583,6.583,0,0,1,268.729,1623.476Z" transform="translate(-208.875 -1617.345)"/>
      <path id="Trazado_24928" data-name="Trazado 24928" d="M272.974,1628.812l.144.223a29.834,29.834,0,0,1-1.7,4.626h-2.125q.628-2.57.976-4.849Zm-3.157-7.059a1.618,1.618,0,0,1,.432-1.224,1.768,1.768,0,0,1,1.269-.417,1.717,1.717,0,0,1,1.239.424,1.625,1.625,0,0,1,.439,1.217,1.6,1.6,0,0,1-.449,1.212,1.7,1.7,0,0,1-1.228.43,1.753,1.753,0,0,1-1.259-.424A1.61,1.61,0,0,1,269.817,1621.754Z" transform="translate(-204.462 -1615.961)"/>
      <path id="Trazado_24929" data-name="Trazado 24929" d="M280.325,1631.022l-4.115-10.8h3.08l2.086,6.152a10.848,10.848,0,0,1,.435,2.213h.061a9.547,9.547,0,0,1,.431-2.213l2.078-6.152h3.08l-4.115,10.8Z" transform="translate(-198.944 -1615.871)"/>
      <path id="Trazado_24930" data-name="Trazado 24930" d="M289.951,1631.12l-.572-1.467H289.3a4.387,4.387,0,0,1-1.528,1.3,5.032,5.032,0,0,1-2.053.362,3.325,3.325,0,0,1-2.449-.888,3.426,3.426,0,0,1-.892-2.533,2.856,2.856,0,0,1,1.2-2.535,6.994,6.994,0,0,1,3.628-.9l1.872-.056v-.475a1.467,1.467,0,0,0-1.679-1.642,7.7,7.7,0,0,0-3.044.782l-.973-1.988a8.769,8.769,0,0,1,4.133-.976,5.142,5.142,0,0,1,3.328.948,3.492,3.492,0,0,1,1.16,2.876v7.2Zm-.87-5-1.138.039a3.665,3.665,0,0,0-1.915.462,1.467,1.467,0,0,0-.627,1.3q0,1.243,1.429,1.244a2.273,2.273,0,0,0,1.64-.588,2.075,2.075,0,0,0,.611-1.566Z" transform="translate(-194.021 -1615.969)"/>
      <path id="Trazado_24931" data-name="Trazado 24931" d="M291.819,1632.9h-2.947v-15.025h2.947Z" transform="translate(-188.841 -1617.747)"/>
      <path id="Trazado_24932" data-name="Trazado 24932" d="M301.781,1625.695a5.8,5.8,0,0,1-1.39,4.123,5.052,5.052,0,0,1-3.875,1.489,5.426,5.426,0,0,1-2.742-.681,4.54,4.54,0,0,1-1.827-1.956,6.578,6.578,0,0,1-.635-2.973,5.774,5.774,0,0,1,1.379-4.114,5.079,5.079,0,0,1,3.885-1.469,5.468,5.468,0,0,1,2.742.676,4.518,4.518,0,0,1,1.823,1.941A6.517,6.517,0,0,1,301.781,1625.695Zm-7.465,0a4.509,4.509,0,0,0,.527,2.422,1.879,1.879,0,0,0,1.713.821,1.853,1.853,0,0,0,1.7-.814,4.6,4.6,0,0,0,.516-2.429,4.457,4.457,0,0,0-.523-2.406,2.212,2.212,0,0,0-3.405,0A4.442,4.442,0,0,0,294.317,1625.695Z" transform="translate(-186.893 -1615.961)"/>
      <path id="Trazado_24933" data-name="Trazado 24933" d="M303.964,1620.112a4.86,4.86,0,0,1,.994.086l-.221,2.763a3.349,3.349,0,0,0-.867-.1,3.125,3.125,0,0,0-2.2.726,2.621,2.621,0,0,0-.787,2.028v5.495h-2.945v-10.8h2.229l.435,1.816h.144a4.093,4.093,0,0,1,1.359-1.46A3.332,3.332,0,0,1,303.964,1620.112Z" transform="translate(-181.607 -1615.961)"/>
      <path id="Trazado_24934" data-name="Trazado 24934" d="M308.4,1633.092a3.506,3.506,0,0,1-2.988-1.48,8.258,8.258,0,0,1,.018-8.231,3.588,3.588,0,0,1,3.047-1.483,3.52,3.52,0,0,1,3.109,1.584h.1a12.128,12.128,0,0,1-.225-2.154v-3.456h2.958V1632.9h-2.262l-.568-1.4h-.128A3.365,3.365,0,0,1,308.4,1633.092Zm1.032-2.348a2,2,0,0,0,1.658-.656,3.821,3.821,0,0,0,.574-2.231v-.318a4.441,4.441,0,0,0-.534-2.492,2,2,0,0,0-1.746-.753,1.737,1.737,0,0,0-1.532.834,4.494,4.494,0,0,0-.543,2.431,4.222,4.222,0,0,0,.55,2.391A1.8,1.8,0,0,0,309.435,1630.744Z" transform="translate(-176.511 -1617.747)"/>
      <path id="Trazado_24935" data-name="Trazado 24935" d="M316.279,1631.306a5.57,5.57,0,0,1-4.074-1.44,5.441,5.441,0,0,1-1.467-4.076,6,6,0,0,1,1.356-4.194,4.83,4.83,0,0,1,3.752-1.483,4.744,4.744,0,0,1,3.562,1.305,4.921,4.921,0,0,1,1.275,3.6v1.429h-6.96a2.825,2.825,0,0,0,.741,1.96,2.619,2.619,0,0,0,1.952.7,8.225,8.225,0,0,0,1.843-.2,9.368,9.368,0,0,0,1.816-.649v2.28a6.945,6.945,0,0,1-1.65.573A10.264,10.264,0,0,1,316.279,1631.306Zm-.415-9.1a1.88,1.88,0,0,0-1.467.594,2.725,2.725,0,0,0-.608,1.686h4.133a2.477,2.477,0,0,0-.57-1.686A1.946,1.946,0,0,0,315.864,1622.207Z" transform="translate(-171.394 -1615.961)"/>
      <path id="Trazado_24936" data-name="Trazado 24936" d="M322.3,1632.9h-2.945v-15.025H322.3Z" transform="translate(-164.516 -1617.747)"/>
      <path id="Trazado_24937" data-name="Trazado 24937" d="M329.34,1631.12l-.574-1.467h-.077a4.367,4.367,0,0,1-1.526,1.3,5.035,5.035,0,0,1-2.055.362,3.323,3.323,0,0,1-2.447-.888,3.426,3.426,0,0,1-.892-2.533,2.856,2.856,0,0,1,1.2-2.535,6.992,6.992,0,0,1,3.626-.9l1.872-.056v-.475a1.466,1.466,0,0,0-1.677-1.642,7.7,7.7,0,0,0-3.046.782l-.973-1.988a8.774,8.774,0,0,1,4.133-.976,5.144,5.144,0,0,1,3.33.948,3.491,3.491,0,0,1,1.158,2.876v7.2Zm-.872-5-1.136.039a3.664,3.664,0,0,0-1.915.462,1.467,1.467,0,0,0-.627,1.3q0,1.243,1.428,1.244a2.278,2.278,0,0,0,1.641-.588,2.074,2.074,0,0,0,.609-1.566Z" transform="translate(-162.593 -1615.969)"/>
      <path id="Trazado_24938" data-name="Trazado 24938" d="M340.235,1631.112h-2.947V1624.8a3.14,3.14,0,0,0-.394-1.751,1.369,1.369,0,0,0-1.228-.584,1.779,1.779,0,0,0-1.643.831,5.441,5.441,0,0,0-.511,2.731v5.081h-2.945v-10.8h2.251l.392,1.383h.165a3.009,3.009,0,0,1,1.257-1.163,4.039,4.039,0,0,1,1.882-.421,3.39,3.39,0,0,1,3.283,1.584h.261a2.916,2.916,0,0,1,1.278-1.167,4.255,4.255,0,0,1,1.909-.417,3.756,3.756,0,0,1,2.774.944,4.118,4.118,0,0,1,.942,3.015v7.041h-2.954V1624.8a3.14,3.14,0,0,0-.394-1.751,1.369,1.369,0,0,0-1.228-.584,1.837,1.837,0,0,0-1.618.772,4.373,4.373,0,0,0-.534,2.454Z" transform="translate(-155.572 -1615.961)"/>
      <path id="Trazado_24939" data-name="Trazado 24939" d="M346,1631.306a5.569,5.569,0,0,1-4.072-1.44,5.442,5.442,0,0,1-1.469-4.076,6,6,0,0,1,1.356-4.194,4.837,4.837,0,0,1,3.754-1.483,4.744,4.744,0,0,1,3.562,1.305,4.929,4.929,0,0,1,1.275,3.6v1.429h-6.96a2.824,2.824,0,0,0,.741,1.96,2.616,2.616,0,0,0,1.953.7,8.225,8.225,0,0,0,1.843-.2,9.369,9.369,0,0,0,1.816-.649v2.28a6.947,6.947,0,0,1-1.65.573A10.271,10.271,0,0,1,346,1631.306Zm-.414-9.1a1.878,1.878,0,0,0-1.467.594,2.724,2.724,0,0,0-.608,1.686h4.132a2.467,2.467,0,0,0-.568-1.686A1.946,1.946,0,0,0,345.582,1622.207Z" transform="translate(-147.684 -1615.961)"/>
      <path id="Trazado_24940" data-name="Trazado 24940" d="M350.478,1633.092a3.506,3.506,0,0,1-2.988-1.48,8.27,8.27,0,0,1,.018-8.231,3.591,3.591,0,0,1,3.047-1.483,3.52,3.52,0,0,1,3.109,1.584h.1a12.137,12.137,0,0,1-.225-2.154v-3.456h2.958V1632.9h-2.262l-.568-1.4h-.128A3.365,3.365,0,0,1,350.478,1633.092Zm1.032-2.348a2,2,0,0,0,1.658-.656,3.809,3.809,0,0,0,.574-2.231v-.318a4.441,4.441,0,0,0-.534-2.492,2,2,0,0,0-1.746-.753,1.732,1.732,0,0,0-1.53.834,4.476,4.476,0,0,0-.545,2.431,4.222,4.222,0,0,0,.55,2.391A1.8,1.8,0,0,0,351.51,1630.744Z" transform="translate(-142.938 -1617.747)"/>
      <path id="Trazado_24941" data-name="Trazado 24941" d="M353.109,1619.311q0-1.44,1.6-1.438t1.6,1.438a1.388,1.388,0,0,1-.4,1.064,1.668,1.668,0,0,1-1.2.383Q353.108,1620.759,353.109,1619.311Zm3.073,13.587h-2.947v-10.8h2.947Z" transform="translate(-137.587 -1617.747)"/>
      <path id="Trazado_24942" data-name="Trazado 24942" d="M363.16,1631.12l-.572-1.467h-.077a4.386,4.386,0,0,1-1.528,1.3,5.032,5.032,0,0,1-2.053.362,3.325,3.325,0,0,1-2.449-.888,3.426,3.426,0,0,1-.892-2.533,2.856,2.856,0,0,1,1.2-2.535,7,7,0,0,1,3.628-.9l1.872-.056v-.475a1.467,1.467,0,0,0-1.679-1.642,7.7,7.7,0,0,0-3.044.782l-.973-1.988a8.769,8.769,0,0,1,4.133-.976,5.142,5.142,0,0,1,3.328.948,3.492,3.492,0,0,1,1.16,2.876v7.2Zm-.87-5-1.138.039a3.664,3.664,0,0,0-1.915.462,1.467,1.467,0,0,0-.627,1.3q0,1.243,1.429,1.244a2.273,2.273,0,0,0,1.64-.588,2.075,2.075,0,0,0,.611-1.566Z" transform="translate(-135.608 -1615.969)"/>
      <path id="Trazado_24943" data-name="Trazado 24943" d="M371.559,1631.12l-.568-1.467h-.077a4.343,4.343,0,0,1-1.53,1.3,5,5,0,0,1-2.051.362,3.317,3.317,0,0,1-2.447-.888,3.413,3.413,0,0,1-.9-2.533,2.849,2.849,0,0,1,1.2-2.535,6.99,6.99,0,0,1,3.624-.9l1.875-.056v-.475a1.469,1.469,0,0,0-1.681-1.642,7.7,7.7,0,0,0-3.042.782l-.976-1.988a8.774,8.774,0,0,1,4.133-.976,5.139,5.139,0,0,1,3.331.948,3.492,3.492,0,0,1,1.16,2.876v7.2Zm-.867-5-1.142.039a3.642,3.642,0,0,0-1.909.462,1.464,1.464,0,0,0-.629,1.3c0,.829.478,1.244,1.429,1.244a2.262,2.262,0,0,0,1.636-.588,2.058,2.058,0,0,0,.615-1.566Z" transform="translate(-128.905 -1615.969)"/>
      <path id="Trazado_24944" data-name="Trazado 24944" d="M376.507,1620.112a4.884,4.884,0,0,1,.994.086l-.221,2.763a3.377,3.377,0,0,0-.87-.1,3.116,3.116,0,0,0-2.2.726,2.608,2.608,0,0,0-.788,2.028v5.495h-2.945v-10.8h2.229l.435,1.816h.144a4.05,4.05,0,0,1,1.356-1.46A3.344,3.344,0,0,1,376.507,1620.112Z" transform="translate(-123.725 -1615.961)"/>
      <path id="Trazado_24945" data-name="Trazado 24945" d="M374.857,1619.311q0-1.44,1.6-1.438t1.6,1.438a1.388,1.388,0,0,1-.4,1.064,1.668,1.668,0,0,1-1.2.383Q374.856,1620.759,374.857,1619.311Zm3.073,13.587h-2.947v-10.8h2.947Z" transform="translate(-120.234 -1617.747)"/>
      <path id="Trazado_24946" data-name="Trazado 24946" d="M382.766,1629.887a6.325,6.325,0,0,0,1.854-.338v2.192a6.6,6.6,0,0,1-2.7.495,3.307,3.307,0,0,1-2.573-.9,3.882,3.882,0,0,1-.805-2.681v-5.2h-1.411v-1.246l1.624-.983.849-2.28h1.882v2.3H384.5v2.213h-3.024v5.2a1.15,1.15,0,0,0,.354.928A1.389,1.389,0,0,0,382.766,1629.887Z" transform="translate(-118.424 -1616.89)"/>
      <path id="Trazado_24947" data-name="Trazado 24947" d="M391.625,1631.112H388.68V1624.8a3.156,3.156,0,0,0-.394-1.751,1.372,1.372,0,0,0-1.23-.584,1.781,1.781,0,0,0-1.643.831,5.464,5.464,0,0,0-.509,2.731v5.081h-2.947v-10.8h2.251l.394,1.383h.165a3,3,0,0,1,1.257-1.163,4.034,4.034,0,0,1,1.882-.421,3.392,3.392,0,0,1,3.283,1.584h.261a2.915,2.915,0,0,1,1.278-1.167,4.255,4.255,0,0,1,1.909-.417,3.758,3.758,0,0,1,2.774.944,4.118,4.118,0,0,1,.94,3.015v7.041H395.4V1624.8a3.14,3.14,0,0,0-.394-1.751,1.369,1.369,0,0,0-1.228-.584,1.839,1.839,0,0,0-1.62.772,4.389,4.389,0,0,0-.534,2.454Z" transform="translate(-114.569 -1615.961)"/>
      <path id="Trazado_24948" data-name="Trazado 24948" d="M397.386,1633.148a5.571,5.571,0,0,1-4.074-1.44,5.448,5.448,0,0,1-1.467-4.076,6,6,0,0,1,1.356-4.194,4.834,4.834,0,0,1,3.754-1.483,4.74,4.74,0,0,1,3.56,1.305,4.921,4.921,0,0,1,1.275,3.6v1.429h-6.96a2.831,2.831,0,0,0,.741,1.96,2.619,2.619,0,0,0,1.953.7,8.241,8.241,0,0,0,1.845-.2,9.3,9.3,0,0,0,1.814-.649v2.28a6.906,6.906,0,0,1-1.65.573A10.245,10.245,0,0,1,397.386,1633.148Zm-.414-9.1a1.881,1.881,0,0,0-1.469.593,2.746,2.746,0,0,0-.608,1.686h4.133a2.476,2.476,0,0,0-.568-1.686A1.949,1.949,0,0,0,396.973,1624.049Zm-1.7-3.08v-.259a27.256,27.256,0,0,0,2.269-2.907h3.3v.2c-.338.332-.906.833-1.713,1.492s-1.444,1.149-1.9,1.471Z" transform="translate(-106.68 -1617.803)"/>
      <path id="Trazado_24949" data-name="Trazado 24949" d="M403.19,1629.887a6.325,6.325,0,0,0,1.854-.338v2.192a6.588,6.588,0,0,1-2.7.495,3.3,3.3,0,0,1-2.571-.9,3.891,3.891,0,0,1-.807-2.681v-5.2H397.55v-1.246l1.622-.983.85-2.28h1.886v2.3h3.02v2.213h-3.02v5.2a1.142,1.142,0,0,0,.351.928A1.389,1.389,0,0,0,403.19,1629.887Z" transform="translate(-102.128 -1616.89)"/>
      <path id="Trazado_24950" data-name="Trazado 24950" d="M402.314,1619.311q0-1.44,1.6-1.438t1.6,1.438a1.388,1.388,0,0,1-.4,1.064,1.668,1.668,0,0,1-1.2.383Q402.313,1620.759,402.314,1619.311Zm3.073,13.587H402.44v-10.8h2.947Z" transform="translate(-98.327 -1617.747)"/>
      <path id="Trazado_24951" data-name="Trazado 24951" d="M409.865,1631.306q-5.04,0-5.04-5.534a5.908,5.908,0,0,1,1.37-4.207,5.159,5.159,0,0,1,3.934-1.453,7.514,7.514,0,0,1,3.36.734l-.872,2.28c-.462-.189-.9-.34-1.291-.459a4.223,4.223,0,0,0-1.2-.18q-2.3,0-2.3,3.265,0,3.169,2.3,3.168a5.27,5.27,0,0,0,1.573-.226,5.671,5.671,0,0,0,1.445-.71v2.519a4.631,4.631,0,0,1-1.442.627A8.041,8.041,0,0,1,409.865,1631.306Z" transform="translate(-96.323 -1615.961)"/>
      <path id="Trazado_24952" data-name="Trazado 24952" d="M417.469,1631.12l-.57-1.467h-.077a4.343,4.343,0,0,1-1.53,1.3,5,5,0,0,1-2.051.362,3.318,3.318,0,0,1-2.447-.888,3.413,3.413,0,0,1-.9-2.533,2.846,2.846,0,0,1,1.2-2.535,6.978,6.978,0,0,1,3.623-.9l1.875-.056v-.475a1.469,1.469,0,0,0-1.681-1.642,7.7,7.7,0,0,0-3.042.782l-.976-1.988a8.774,8.774,0,0,1,4.133-.976,5.148,5.148,0,0,1,3.333.948,3.5,3.5,0,0,1,1.158,2.876v7.2Zm-.868-5-1.14.039a3.645,3.645,0,0,0-1.911.462,1.468,1.468,0,0,0-.629,1.3c0,.829.478,1.244,1.429,1.244a2.261,2.261,0,0,0,1.636-.588,2.058,2.058,0,0,0,.615-1.566Z" transform="translate(-92.276 -1615.969)"/>
      <path id="Trazado_24953" data-name="Trazado 24953" d="M416.159,1626.191a1.616,1.616,0,0,1,.437-1.228,1.759,1.759,0,0,1,1.264-.414,1.7,1.7,0,0,1,1.239.425,1.882,1.882,0,0,1,0,2.42,1.685,1.685,0,0,1-1.235.439,1.747,1.747,0,0,1-1.257-.428A1.621,1.621,0,0,1,416.159,1626.191Z" transform="translate(-87.28 -1612.421)"/>
    </g>
  </g>
  <line id="Línea_603" data-name="Línea 603" x2="10.005" transform="translate(267.432 15.556)" fill="none" stroke="#000" stroke-miterlimit="10" stroke-width="0.5"/>
</svg>
