<svg id="Grupo_14625" data-name="Grupo 14625" xmlns="http://www.w3.org/2000/svg" width="670.747" height="43.072" viewBox="0 0 670.747 43.072">
  <g id="Grupo_14614" data-name="Grupo 14614" transform="translate(61.206)">
    <g id="Grupo_14613" data-name="Grupo 14613">
      <path id="Trazado_24979" data-name="Trazado 24979" d="M120.5,1656.273h2.116v19.459H120.5Z" transform="translate(-120.498 -1656.273)"/>
      <path id="Trazado_24980" data-name="Trazado 24980" d="M136.2,1670.953H126.33v-2.077l3.544-3.583q1.575-1.61,2.057-2.235a4.971,4.971,0,0,0,.7-1.152,2.946,2.946,0,0,0,.212-1.1,1.6,1.6,0,0,0-.469-1.266,1.821,1.821,0,0,0-1.25-.414,3.58,3.58,0,0,0-1.593.376,8.173,8.173,0,0,0-1.613,1.072l-1.623-1.922a10.581,10.581,0,0,1,1.73-1.255,6.456,6.456,0,0,1,1.5-.567,7.724,7.724,0,0,1,1.816-.2,5.383,5.383,0,0,1,2.337.482,3.739,3.739,0,0,1,1.575,1.352,3.6,3.6,0,0,1,.557,1.99,4.87,4.87,0,0,1-.342,1.828,7,7,0,0,1-1.063,1.753,25.656,25.656,0,0,1-2.535,2.561l-1.816,1.708v.135H136.2Z" transform="translate(-115.877 -1655.986)"/>
      <path id="Trazado_24981" data-name="Trazado 24981" d="M134.236,1663.391v-2.412h5.183v2.412Z" transform="translate(-109.537 -1652.519)"/>
      <path id="Trazado_24982" data-name="Trazado 24982" d="M144.7,1661.844a4.535,4.535,0,0,1,3.26,1.151,4.134,4.134,0,0,1,1.214,3.148,4.571,4.571,0,0,1-1.46,3.639,6.143,6.143,0,0,1-4.171,1.275,8.165,8.165,0,0,1-3.8-.762v-2.578a7.959,7.959,0,0,0,1.776.661,7.842,7.842,0,0,0,1.92.257q2.735,0,2.735-2.242,0-2.136-2.83-2.134a6.76,6.76,0,0,0-1.129.1,7.926,7.926,0,0,0-1.005.218l-1.187-.639.53-7.195h7.657v2.53h-5.041l-.261,2.772.338-.068A6.779,6.779,0,0,1,144.7,1661.844Z" transform="translate(-105.143 -1655.896)"/>
      <path id="Trazado_24983" data-name="Trazado 24983" d="M149.684,1656.273H151.8v19.459h-2.116Z" transform="translate(-97.211 -1656.273)"/>
      <path id="Trazado_24984" data-name="Trazado 24984" d="M161.572,1663.921h-3.736v-2.115h3.736v-3.766h2.116v3.766h3.738v2.115h-3.738v3.718h-2.116Z" transform="translate(-90.706 -1654.863)"/>
      <path id="Trazado_24985" data-name="Trazado 24985" d="M167.843,1656.273h2.116v19.459h-2.116Z" transform="translate(-82.722 -1656.273)"/>
      <path id="Trazado_24986" data-name="Trazado 24986" d="M184.048,1667.939h-1.7v2.925h-2.918v-2.925H173.4v-2.076l6.19-9.117h2.753v8.876h1.7Zm-4.619-2.317v-2.395c0-.4.018-.98.05-1.738s.058-1.2.076-1.323h-.076a10.641,10.641,0,0,1-.861,1.544l-2.587,3.912Z" transform="translate(-78.285 -1655.896)"/>
      <path id="Trazado_24987" data-name="Trazado 24987" d="M181.58,1663.391v-2.412h5.185v2.412Z" transform="translate(-71.761 -1652.519)"/>
      <path id="Trazado_24988" data-name="Trazado 24988" d="M192.05,1661.844a4.531,4.531,0,0,1,3.258,1.151,4.128,4.128,0,0,1,1.214,3.148,4.57,4.57,0,0,1-1.458,3.639,6.148,6.148,0,0,1-4.173,1.275,8.165,8.165,0,0,1-3.8-.762v-2.578a7.974,7.974,0,0,0,1.778.661,7.83,7.83,0,0,0,1.92.257q2.735,0,2.733-2.242,0-2.136-2.828-2.134a6.8,6.8,0,0,0-1.131.1,7.961,7.961,0,0,0-1,.218l-1.188-.639.53-7.195h7.659v2.53h-5.043l-.259,2.772.336-.068A6.809,6.809,0,0,1,192.05,1661.844Z" transform="translate(-67.368 -1655.896)"/>
      <path id="Trazado_24989" data-name="Trazado 24989" d="M197.029,1656.273h2.114v19.459h-2.114Z" transform="translate(-59.435 -1656.273)"/>
      <path id="Trazado_24990" data-name="Trazado 24990" d="M206.61,1663.921h-3.736v-2.115h3.736v-3.766h2.116v3.766h3.738v2.115h-3.738v3.718H206.61Z" transform="translate(-54.771 -1654.863)"/>
      <path id="Trazado_24991" data-name="Trazado 24991" d="M212.881,1656.273H215v19.459h-2.116Z" transform="translate(-46.787 -1656.273)"/>
      <path id="Trazado_24992" data-name="Trazado 24992" d="M218.641,1664.94q0-4.193,1.771-6.238a6.636,6.636,0,0,1,5.307-2.048,9.75,9.75,0,0,1,1.893.144v2.388a7.6,7.6,0,0,0-1.7-.194,5.841,5.841,0,0,0-2.508.464,3.119,3.119,0,0,0-1.453,1.372,6.308,6.308,0,0,0-.57,2.576h.128a3.275,3.275,0,0,1,3.06-1.641,3.794,3.794,0,0,1,2.965,1.188,4.73,4.73,0,0,1,1.072,3.285,4.922,4.922,0,0,1-1.275,3.576,4.686,4.686,0,0,1-3.535,1.318,5.06,5.06,0,0,1-2.727-.723,4.711,4.711,0,0,1-1.8-2.116A8.07,8.07,0,0,1,218.641,1664.94Zm5.1,3.8a1.765,1.765,0,0,0,1.467-.642,2.876,2.876,0,0,0,.512-1.83,2.511,2.511,0,0,0-.478-1.627,1.738,1.738,0,0,0-1.444-.593,2.212,2.212,0,0,0-1.55.588,1.8,1.8,0,0,0-.644,1.372,3.121,3.121,0,0,0,.6,1.942A1.853,1.853,0,0,0,223.74,1668.745Z" transform="translate(-42.191 -1655.969)"/>
      <path id="Trazado_24993" data-name="Trazado 24993" d="M226.618,1663.391v-2.412H231.8v2.412Z" transform="translate(-35.826 -1652.519)"/>
      <path id="Trazado_24994" data-name="Trazado 24994" d="M237.088,1661.844a4.538,4.538,0,0,1,3.26,1.151,4.133,4.133,0,0,1,1.212,3.148,4.57,4.57,0,0,1-1.458,3.639,6.146,6.146,0,0,1-4.171,1.275,8.173,8.173,0,0,1-3.806-.762v-2.578a8.008,8.008,0,0,0,1.778.661,7.841,7.841,0,0,0,1.92.257q2.735,0,2.733-2.242,0-2.136-2.828-2.134a6.8,6.8,0,0,0-1.131.1,7.963,7.963,0,0,0-1,.218l-1.187-.639.529-7.195h7.659v2.53h-5.041l-.261,2.772.338-.068A6.779,6.779,0,0,1,237.088,1661.844Z" transform="translate(-31.433 -1655.896)"/>
      <path id="Trazado_24995" data-name="Trazado 24995" d="M242.067,1656.273h2.114v19.459h-2.114Z" transform="translate(-23.499 -1656.273)"/>
      <path id="Trazado_24996" data-name="Trazado 24996" d="M251.65,1663.921h-3.738v-2.115h3.738v-3.766h2.114v3.766H257.5v2.115h-3.738v3.718H251.65Z" transform="translate(-18.836 -1654.863)"/>
      <path id="Trazado_24997" data-name="Trazado 24997" d="M257.919,1656.273h2.116v19.459h-2.116Z" transform="translate(-10.851 -1656.273)"/>
      <path id="Trazado_24998" data-name="Trazado 24998" d="M268.642,1656.644a5.356,5.356,0,0,1,3.269.921,2.94,2.94,0,0,1,1.242,2.486,3.241,3.241,0,0,1-.6,1.926,5.1,5.1,0,0,1-1.933,1.512,6.858,6.858,0,0,1,2.276,1.773,3.3,3.3,0,0,1,.69,2.024,3.368,3.368,0,0,1-1.361,2.794,5.686,5.686,0,0,1-3.583,1.057,5.968,5.968,0,0,1-3.641-.985,3.268,3.268,0,0,1-1.323-2.788,3.7,3.7,0,0,1,.642-2.145,5.379,5.379,0,0,1,2.062-1.652,5.286,5.286,0,0,1-1.738-1.631,3.579,3.579,0,0,1-.53-1.9,2.929,2.929,0,0,1,1.253-2.452A5.349,5.349,0,0,1,268.642,1656.644Zm-2.2,10.545a1.569,1.569,0,0,0,.579,1.295,3.036,3.036,0,0,0,3.245-.016,1.584,1.584,0,0,0,.55-1.259,1.728,1.728,0,0,0-.545-1.214,7,7,0,0,0-1.773-1.2Q266.441,1665.738,266.44,1667.189Zm2.183-8.362a1.868,1.868,0,0,0-1.232.388,1.3,1.3,0,0,0-.467,1.048,1.6,1.6,0,0,0,.372,1.037,4.06,4.06,0,0,0,1.347.944,3.777,3.777,0,0,0,1.322-.908,1.641,1.641,0,0,0,.377-1.073,1.278,1.278,0,0,0-.482-1.052A1.921,1.921,0,0,0,268.622,1658.827Z" transform="translate(-6.256 -1655.977)"/>
      <path id="Trazado_24999" data-name="Trazado 24999" d="M271.656,1663.391v-2.412h5.183v2.412Z" transform="translate(0.109 -1652.519)"/>
      <path id="Trazado_25000" data-name="Trazado 25000" d="M282.125,1661.844a4.538,4.538,0,0,1,3.26,1.151,4.133,4.133,0,0,1,1.212,3.148,4.57,4.57,0,0,1-1.458,3.639,6.146,6.146,0,0,1-4.171,1.275,8.178,8.178,0,0,1-3.806-.762v-2.578a8.007,8.007,0,0,0,1.778.661,7.84,7.84,0,0,0,1.92.257q2.735,0,2.735-2.242,0-2.136-2.83-2.134a6.8,6.8,0,0,0-1.131.1,7.965,7.965,0,0,0-1,.218l-1.187-.639.53-7.195h7.657v2.53H280.59l-.261,2.772.338-.068A6.78,6.78,0,0,1,282.125,1661.844Z" transform="translate(4.502 -1655.896)"/>
      <path id="Trazado_25001" data-name="Trazado 25001" d="M287.1,1656.273h2.116v19.459H287.1Z" transform="translate(12.435 -1656.273)"/>
    </g>
  </g>
  <g id="Grupo_14616" data-name="Grupo 14616" transform="translate(444.744)">
    <g id="Grupo_14615" data-name="Grupo 14615">
      <path id="Trazado_25002" data-name="Trazado 25002" d="M333.825,1656.273h2.114v19.459h-2.114Z" transform="translate(-333.825 -1656.273)"/>
      <path id="Trazado_25003" data-name="Trazado 25003" d="M339.526,1663.391v-2.412h5.183v2.412Z" transform="translate(-329.276 -1652.519)"/>
      <path id="Trazado_25004" data-name="Trazado 25004" d="M351.962,1659.993a3.333,3.333,0,0,1-.8,2.249,4.158,4.158,0,0,1-2.251,1.275v.057a4.5,4.5,0,0,1,2.587,1.038,2.913,2.913,0,0,1,.879,2.227,3.773,3.773,0,0,1-1.476,3.172,6.816,6.816,0,0,1-4.221,1.134,10.24,10.24,0,0,1-4.074-.762v-2.541a8.99,8.99,0,0,0,1.807.676,7.567,7.567,0,0,0,1.949.262,3.793,3.793,0,0,0,2.183-.5,1.843,1.843,0,0,0,.7-1.613,1.457,1.457,0,0,0-.811-1.41,6.033,6.033,0,0,0-2.589-.415h-1.072v-2.289h1.091a5.063,5.063,0,0,0,2.4-.43,1.552,1.552,0,0,0,.757-1.473q0-1.6-2.008-1.6a4.579,4.579,0,0,0-1.413.232,6.933,6.933,0,0,0-1.6.8l-1.379-2.057a7.674,7.674,0,0,1,4.606-1.39,5.937,5.937,0,0,1,3.461.888A2.846,2.846,0,0,1,351.962,1659.993Z" transform="translate(-326.819 -1655.986)"/>
      <path id="Trazado_25005" data-name="Trazado 25005" d="M352.666,1656.273h2.116v19.459h-2.116Z" transform="translate(-318.792 -1656.273)"/>
      <path id="Trazado_25006" data-name="Trazado 25006" d="M364.555,1663.921h-3.736v-2.115h3.736v-3.766h2.116v3.766h3.738v2.115h-3.738v3.718h-2.116Z" transform="translate(-312.287 -1654.863)"/>
      <path id="Trazado_25007" data-name="Trazado 25007" d="M370.826,1656.273h2.116v19.459h-2.116Z" transform="translate(-304.302 -1656.273)"/>
      <path id="Trazado_25008" data-name="Trazado 25008" d="M376.527,1663.391v-2.412h5.183v2.412Z" transform="translate(-299.754 -1652.519)"/>
      <path id="Trazado_25009" data-name="Trazado 25009" d="M386.839,1670.864h-2.983v-8.17l.027-1.341.05-1.469c-.5.5-.841.82-1.036.974l-1.622,1.305-1.438-1.8,4.547-3.623h2.454Z" transform="translate(-297.112 -1655.896)"/>
      <path id="Trazado_25010" data-name="Trazado 25010" d="M389.668,1656.273h2.116v19.459h-2.116Z" transform="translate(-289.268 -1656.273)"/>
      <path id="Trazado_25011" data-name="Trazado 25011" d="M399.249,1663.921h-3.736v-2.115h3.736v-3.766h2.116v3.766H405.1v2.115h-3.738v3.718h-2.116Z" transform="translate(-284.605 -1654.863)"/>
      <path id="Trazado_25012" data-name="Trazado 25012" d="M405.52,1656.273h2.116v19.459H405.52Z" transform="translate(-276.62 -1656.273)"/>
      <path id="Trazado_25013" data-name="Trazado 25013" d="M418.544,1670.864h-2.983v-8.17l.027-1.341.05-1.469c-.5.5-.841.82-1.036.974l-1.622,1.305-1.438-1.8,4.549-3.623h2.452Z" transform="translate(-271.815 -1655.896)"/>
      <path id="Trazado_25014" data-name="Trazado 25014" d="M421.372,1656.273h2.116v19.459h-2.116Z" transform="translate(-263.972 -1656.273)"/>
      <path id="Trazado_25015" data-name="Trazado 25015" d="M430.953,1663.921h-3.736v-2.115h3.736v-3.766h2.116v3.766h3.738v2.115h-3.738v3.718h-2.116Z" transform="translate(-259.309 -1654.863)"/>
      <path id="Trazado_25016" data-name="Trazado 25016" d="M437.225,1656.273h2.116v19.459h-2.116Z" transform="translate(-251.323 -1656.273)"/>
      <path id="Trazado_25017" data-name="Trazado 25017" d="M452.372,1659.993a3.325,3.325,0,0,1-.8,2.249,4.158,4.158,0,0,1-2.251,1.275v.057a4.5,4.5,0,0,1,2.587,1.038,2.914,2.914,0,0,1,.879,2.227,3.773,3.773,0,0,1-1.476,3.172,6.814,6.814,0,0,1-4.22,1.134,10.243,10.243,0,0,1-4.076-.762v-2.541a9.075,9.075,0,0,0,1.807.676,7.565,7.565,0,0,0,1.949.262,3.8,3.8,0,0,0,2.184-.5,1.847,1.847,0,0,0,.7-1.613,1.457,1.457,0,0,0-.811-1.41,6.029,6.029,0,0,0-2.587-.415h-1.073v-2.289h1.091a5.063,5.063,0,0,0,2.4-.43,1.548,1.548,0,0,0,.757-1.473q0-1.6-2.008-1.6a4.579,4.579,0,0,0-1.413.232,6.935,6.935,0,0,0-1.6.8l-1.379-2.057a7.674,7.674,0,0,1,4.606-1.39,5.937,5.937,0,0,1,3.461.888A2.846,2.846,0,0,1,452.372,1659.993Z" transform="translate(-246.703 -1655.986)"/>
      <path id="Trazado_25018" data-name="Trazado 25018" d="M453.076,1656.273h2.116v19.459h-2.116Z" transform="translate(-238.676 -1656.273)"/>
    </g>
  </g>
  <g id="Grupo_14618" data-name="Grupo 14618" transform="translate(0 16.158)">
    <g id="Grupo_14617" data-name="Grupo 14617">
      <path id="Trazado_25019" data-name="Trazado 25019" d="M98.17,1672.182a6.954,6.954,0,0,1-1.985,5.342,8.088,8.088,0,0,1-5.732,1.854h-4V1665.26h4.432a7.465,7.465,0,0,1,5.37,1.825A6.71,6.71,0,0,1,98.17,1672.182Zm-3.11.077q0-4.547-4.018-4.547H89.449v9.193h1.284Q95.061,1676.905,95.06,1672.259Z" transform="translate(-86.455 -1665.26)"/>
      <path id="Trazado_25020" data-name="Trazado 25020" d="M93.689,1673.072a1.618,1.618,0,0,1,.433-1.226,1.759,1.759,0,0,1,1.266-.415,1.719,1.719,0,0,1,1.241.424,1.882,1.882,0,0,1,0,2.42,1.684,1.684,0,0,1-1.237.439,1.737,1.737,0,0,1-1.257-.428A1.617,1.617,0,0,1,93.689,1673.072Z" transform="translate(-80.683 -1660.336)"/>
      <path id="Trazado_25021" data-name="Trazado 25021" d="M102.611,1679.377l-3.4-11.077h-.086q.183,3.381.183,4.511v6.566H96.635V1665.26h4.076l3.34,10.8h.058l3.545-10.8h4.074v14.117h-2.79V1672.7c0-.317.005-.68.014-1.093s.054-1.507.131-3.283H109l-3.641,11.057Z" transform="translate(-78.332 -1665.26)"/>
      <path id="Trazado_25022" data-name="Trazado 25022" d="M108.248,1669.726v-2.114h9.59v2.114Zm0,3.738v-2.114h9.59v2.114Z" transform="translate(-69.067 -1663.383)"/>
    </g>
  </g>
  <g id="Grupo_14620" data-name="Grupo 14620" transform="translate(205.441 28.953)">
    <g id="Grupo_14619" data-name="Grupo 14619">
      <path id="Trazado_25023" data-name="Trazado 25023" d="M211.367,1683.569h-1.7v2.927H206.75v-2.927h-6.027v-2.077l6.19-9.115h2.754v8.874h1.7Zm-4.617-2.318v-2.395q0-.6.049-1.738c.031-.759.058-1.2.077-1.323H206.8a10.676,10.676,0,0,1-.861,1.546l-2.587,3.91Z" transform="translate(-200.723 -1672.377)"/>
    </g>
  </g>
  <line id="Línea_606" data-name="Línea 606" x2="307.567" transform="translate(56.811 26.54)" fill="#fff" stroke="#000" stroke-miterlimit="10" stroke-width="0.58"/>
  <g id="Grupo_14622" data-name="Grupo 14622" transform="translate(544.604 28.953)">
    <g id="Grupo_14621" data-name="Grupo 14621">
      <path id="Trazado_25024" data-name="Trazado 25024" d="M400.012,1683.569h-1.7v2.927h-2.918v-2.927h-6.026v-2.077l6.192-9.115h2.753v8.874h1.7Zm-4.617-2.318v-2.395c0-.4.018-.978.049-1.738s.059-1.2.077-1.323h-.077a10.672,10.672,0,0,1-.859,1.546l-2.589,3.91Z" transform="translate(-389.368 -1672.377)"/>
    </g>
  </g>
  <line id="Línea_607" data-name="Línea 607" x2="218.818" transform="translate(440.35 26.54)" fill="#fff" stroke="#000" stroke-miterlimit="10" stroke-width="0.58"/>
  <g id="Grupo_14624" data-name="Grupo 14624" transform="translate(372.25 16.158)">
    <g id="Grupo_14623" data-name="Grupo 14623" transform="translate(0)">
      <path id="Trazado_25025" data-name="Trazado 25025" d="M297.183,1675.7l.144.221a29.477,29.477,0,0,1-1.7,4.626H293.5c.423-1.714.744-3.328.976-4.847Zm-3.157-7.06a1.608,1.608,0,0,1,.435-1.224,1.753,1.753,0,0,1,1.266-.417,1.7,1.7,0,0,1,1.239.426,1.888,1.888,0,0,1-.007,2.429,1.717,1.717,0,0,1-1.232.428,1.752,1.752,0,0,1-1.259-.424A1.607,1.607,0,0,1,294.026,1668.635Z" transform="translate(-293.503 -1663.876)"/>
      <path id="Trazado_25026" data-name="Trazado 25026" d="M313.124,1672.182a6.954,6.954,0,0,1-1.987,5.342,8.082,8.082,0,0,1-5.732,1.854h-4V1665.26h4.432a7.465,7.465,0,0,1,5.37,1.825A6.71,6.71,0,0,1,313.124,1672.182Zm-3.11.077q0-4.547-4.018-4.547H304.4v9.193h1.284Q310.012,1676.905,310.014,1672.259Z" transform="translate(-287.195 -1665.26)"/>
      <path id="Trazado_25027" data-name="Trazado 25027" d="M308.642,1673.072a1.611,1.611,0,0,1,.435-1.226,1.755,1.755,0,0,1,1.264-.415,1.713,1.713,0,0,1,1.24.424,1.882,1.882,0,0,1,0,2.42,1.682,1.682,0,0,1-1.237.439,1.74,1.74,0,0,1-1.257-.428A1.617,1.617,0,0,1,308.642,1673.072Z" transform="translate(-281.424 -1660.336)"/>
      <path id="Trazado_25028" data-name="Trazado 25028" d="M317.565,1679.377l-3.4-11.077h-.088q.183,3.381.185,4.511v6.566h-2.675V1665.26h4.074l3.342,10.8h.056l3.547-10.8h4.074v14.117H323.89V1672.7c0-.317.007-.68.014-1.093s.056-1.507.133-3.283h-.088l-3.641,11.057Z" transform="translate(-279.072 -1665.26)"/>
      <path id="Trazado_25029" data-name="Trazado 25029" d="M323.2,1669.726v-2.114h9.59v2.114Zm0,3.738v-2.114h9.59v2.114Z" transform="translate(-269.806 -1663.383)"/>
    </g>
  </g>
  <text id="_" data-name="; " transform="translate(665.747 24.892)" font-size="12" font-family="MyriadPro-Regular, Myriad Pro" letter-spacing="-0.05em"><tspan x="0" y="0">; </tspan></text>
</svg>
