<svg xmlns="http://www.w3.org/2000/svg" width="506.786" height="57.589" viewBox="0 0 506.786 57.589">
  <g id="Grupo_14718" data-name="Grupo 14718" transform="translate(-409.971 -638.517)">
    <rect id="Rectángulo_3717" data-name="Rectángulo 3717" width="506.786" height="57.589" transform="translate(409.971 638.517)" fill="#d5f4fc"/>
    <path id="Trazado_25625" data-name="Trazado 25625" d="M-398.2,916.243v1.152h276.429v-1.152H-398.2" transform="translate(1011.509 -249.508)" fill="#010201" fill-rule="evenodd"/>
    <g id="Grupo_14691" data-name="Grupo 14691" transform="translate(620.952 648.441)">
      <path id="Trazado_25626" data-name="Trazado 25626" d="M-376.6,916.346l1.126-6.009c.215-1.037.34-1.949.447-2.7h1.841l-.177,1.575h.034a3.728,3.728,0,0,1,3.13-1.772,2.128,2.128,0,0,1,2.217,2.4,8.382,8.382,0,0,1-.163,1.448l-.964,5.061h-2.076l.931-4.918a6.572,6.572,0,0,0,.106-1.037c0-.715-.268-1.251-1.091-1.251-.948,0-2.163,1.144-2.537,3.182l-.753,4.024Z" transform="translate(404.06 -903.453)" fill="#272525"/>
      <path id="Trazado_25627" data-name="Trazado 25627" d="M-361.777,908.985l-1.144,6.01c-.2,1.035-.323,1.949-.429,2.7h-1.843l.179-1.521h-.036a3.836,3.836,0,0,1-3.021,1.718c-1.269,0-2.271-.679-2.271-2.469a7.513,7.513,0,0,1,.177-1.555l.931-4.882h2.074l-.894,4.757a6.194,6.194,0,0,0-.143,1.2c0,.715.286,1.234,1.108,1.234.965,0,2.092-1.144,2.431-2.95l.8-4.239Zm-.717-3.7-2.34,2.648h-1.575l1.718-2.648Z" transform="translate(407.974 -904.801)" fill="#272525"/>
      <path id="Trazado_25628" data-name="Trazado 25628" d="M-364.622,916.346l1.108-6.009c.2-1.037.34-1.949.429-2.7h1.806l-.179,1.521h.018a3.678,3.678,0,0,1,3.021-1.718,1.882,1.882,0,0,1,2.058,1.789,3.639,3.639,0,0,1,3.073-1.789,2.068,2.068,0,0,1,2.129,2.326,11.817,11.817,0,0,1-.143,1.484l-.965,5.1h-2.02l.912-4.863a7.844,7.844,0,0,0,.125-1.11c0-.733-.306-1.234-1.073-1.234-.948,0-2,1.2-2.344,3.039l-.785,4.167h-2l.93-4.936a5.2,5.2,0,0,0,.106-1.019c0-.663-.2-1.251-1.035-1.251-.967,0-2.076,1.305-2.4,3.075l-.751,4.131Z" transform="translate(411.551 -903.453)" fill="#272525"/>
      <path id="Trazado_25629" data-name="Trazado 25629" d="M-348.83,915.844a6.967,6.967,0,0,1-3.075.679,3.268,3.268,0,0,1-3.577-3.594c0-2.628,1.932-5.49,4.938-5.49,1.715,0,2.805,1,2.805,2.451,0,2.235-2.342,2.95-5.7,2.88A2.4,2.4,0,0,0-353.21,914a1.922,1.922,0,0,0,1.789.894,5.146,5.146,0,0,0,2.394-.57ZM-350.813,909a2.681,2.681,0,0,0-2.415,2.217c2.147.036,3.522-.268,3.522-1.305C-349.706,909.337-350.153,909-350.813,909Z" transform="translate(417.266 -903.453)" fill="#272525"/>
      <path id="Trazado_25630" data-name="Trazado 25630" d="M-350.322,916.346l1.019-5.365c.232-1.234.34-2.557.447-3.345h1.806c-.054.592-.107,1.2-.2,1.843h.054a3.2,3.2,0,0,1,2.735-2.04,3.751,3.751,0,0,1,.447.037l-.41,2.038a2.5,2.5,0,0,0-.395-.036c-1.484,0-2.431,1.5-2.771,3.361l-.661,3.506Z" transform="translate(420.493 -903.453)" fill="#272525"/>
      <path id="Trazado_25631" data-name="Trazado 25631" d="M-337.816,911.053a5.213,5.213,0,0,1-5.043,5.49,3.388,3.388,0,0,1-3.558-3.6c0-2.951,2.056-5.508,5.024-5.508A3.413,3.413,0,0,1-337.816,911.053Zm-6.456,1.841c0,1.2.644,2.04,1.7,2.04,1.555,0,2.592-2.147,2.592-3.881,0-.894-.392-2-1.663-2C-343.306,909.049-344.272,911.267-344.272,912.895Z" transform="translate(422.934 -903.453)" fill="#272525"/>
      <path id="Trazado_25632" data-name="Trazado 25632" d="M-328.845,905.108l-1.824,9.6a24.042,24.042,0,0,0-.393,3.094h-1.913l.179-1.555h-.036A3.531,3.531,0,0,1-335.817,918c-1.555,0-2.648-1.269-2.648-3.236a5.648,5.648,0,0,1,5.437-5.867,3.644,3.644,0,0,1,1.341.252l.77-4.042Zm-3.147,5.739a2.132,2.132,0,0,0-1.2-.34c-1.788,0-3.111,1.986-3.111,3.935,0,1.055.411,1.879,1.395,1.879.93,0,2.038-1.019,2.4-2.826Z" transform="translate(427.907 -904.911)" fill="#272525"/>
      <path id="Trazado_25633" data-name="Trazado 25633" d="M-325.818,915.844a6.969,6.969,0,0,1-3.077.679,3.267,3.267,0,0,1-3.576-3.594c0-2.628,1.932-5.49,4.936-5.49,1.716,0,2.807,1,2.807,2.451,0,2.235-2.344,2.95-5.7,2.88A2.4,2.4,0,0,0-330.2,914a1.919,1.919,0,0,0,1.788.894,5.148,5.148,0,0,0,2.4-.57ZM-327.8,909a2.679,2.679,0,0,0-2.414,2.217c2.145.036,3.522-.268,3.522-1.305C-326.694,909.337-327.141,909-327.8,909Z" transform="translate(431.655 -903.453)" fill="#272525"/>
      <path id="Trazado_25634" data-name="Trazado 25634" d="M-319.15,916.041a5.892,5.892,0,0,1-2.5.483,3.27,3.27,0,0,1-3.522-3.468,5.507,5.507,0,0,1,5.542-5.615,4.684,4.684,0,0,1,1.772.341l-.536,1.627a3.1,3.1,0,0,0-1.307-.268,3.492,3.492,0,0,0-3.29,3.665,1.821,1.821,0,0,0,1.915,2.038,4.462,4.462,0,0,0,1.858-.411Z" transform="translate(436.216 -903.453)" fill="#272525"/>
      <path id="Trazado_25635" data-name="Trazado 25635" d="M-315.044,916.346c.018-.52.089-1.216.161-1.966h-.054a3.493,3.493,0,0,1-3.111,2.163c-1.555,0-2.574-1.216-2.574-2.968a5.963,5.963,0,0,1,6.132-6.136,9.307,9.307,0,0,1,2.628.393l-.892,4.543a20.182,20.182,0,0,0-.359,3.97Zm.858-7.206a3.484,3.484,0,0,0-.858-.091c-1.931,0-3.415,2.165-3.415,4.149,0,.913.34,1.664,1.25,1.664.967,0,2.147-1.216,2.558-3.434Z" transform="translate(439.064 -903.453)" fill="#272525"/>
      <path id="Trazado_25636" data-name="Trazado 25636" d="M-314.433,914.4a4.744,4.744,0,0,0,2.092.592c.842-.02,1.342-.5,1.342-1.073s-.286-.9-1.146-1.342a2.674,2.674,0,0,1-1.715-2.271c0-1.681,1.466-2.862,3.522-2.862a4.323,4.323,0,0,1,2.056.449l-.536,1.5a3.505,3.505,0,0,0-1.629-.392c-.785,0-1.321.429-1.321,1.019,0,.483.393.822,1.126,1.2a2.831,2.831,0,0,1,1.806,2.342c0,1.915-1.611,2.968-3.7,2.968a4.506,4.506,0,0,1-2.431-.626Z" transform="translate(442.599 -903.453)" fill="#272525"/>
      <path id="Trazado_25637" data-name="Trazado 25637" d="M-301.671,911.053a5.213,5.213,0,0,1-5.042,5.49,3.389,3.389,0,0,1-3.559-3.6c0-2.951,2.056-5.508,5.024-5.508A3.413,3.413,0,0,1-301.671,911.053Zm-6.454,1.841c0,1.2.642,2.04,1.7,2.04,1.555,0,2.591-2.147,2.591-3.881,0-.894-.392-2-1.661-2C-307.161,909.049-308.125,911.267-308.125,912.895Z" transform="translate(445.536 -903.453)" fill="#272525"/>
      <path id="Trazado_25638" data-name="Trazado 25638" d="M-304.093,914.4a4.737,4.737,0,0,0,2.092.592c.842-.02,1.341-.5,1.341-1.073s-.284-.9-1.144-1.342a2.674,2.674,0,0,1-1.715-2.271c0-1.681,1.466-2.862,3.522-2.862a4.322,4.322,0,0,1,2.056.449l-.536,1.5a3.506,3.506,0,0,0-1.629-.392c-.785,0-1.321.429-1.321,1.019,0,.483.393.822,1.126,1.2a2.829,2.829,0,0,1,1.8,2.342c0,1.915-1.609,2.968-3.7,2.968a4.507,4.507,0,0,1-2.431-.626Z" transform="translate(449.064 -903.453)" fill="#272525"/>
      <path id="Trazado_25639" data-name="Trazado 25639" d="M-297.9,917.88l1.342-7.1h-1.128l.3-1.611h1.126l.091-.445a4.988,4.988,0,0,1,1.447-2.934,3.519,3.519,0,0,1,2.29-.8,2.9,2.9,0,0,1,1.287.234l-.395,1.643a2.236,2.236,0,0,0-.839-.143c-.985,0-1.538.913-1.736,2.038l-.07.411h1.806l-.306,1.611h-1.8l-1.341,7.1Z" transform="translate(453.274 -904.987)" fill="#272525"/>
      <path id="Trazado_25640" data-name="Trazado 25640" d="M-289.085,916.346c.018-.52.089-1.216.161-1.966h-.052a3.493,3.493,0,0,1-3.112,2.163c-1.555,0-2.574-1.216-2.574-2.968a5.963,5.963,0,0,1,6.132-6.136,9.3,9.3,0,0,1,2.628.393l-.892,4.543a20.041,20.041,0,0,0-.358,3.97Zm.86-7.206a3.488,3.488,0,0,0-.86-.091c-1.931,0-3.415,2.165-3.415,4.149,0,.913.34,1.664,1.251,1.664.965,0,2.147-1.216,2.558-3.434Z" transform="translate(455.296 -903.453)" fill="#272525"/>
      <path id="Trazado_25641" data-name="Trazado 25641" d="M-286.358,907.561l.554,4.328c.109,1.037.215,1.7.25,2.27h.055c.213-.554.465-1.18.948-2.217l2.163-4.382h2.306l-4.847,8.71h-2.092l-1.484-8.71Z" transform="translate(459.148 -903.378)" fill="#272525"/>
      <path id="Trazado_25642" data-name="Trazado 25642" d="M-274.831,911.053a5.213,5.213,0,0,1-5.042,5.49,3.389,3.389,0,0,1-3.559-3.6c0-2.951,2.056-5.508,5.024-5.508A3.413,3.413,0,0,1-274.831,911.053Zm-6.454,1.841c0,1.2.642,2.04,1.7,2.04,1.555,0,2.591-2.147,2.591-3.881,0-.894-.392-2-1.661-2C-280.321,909.049-281.285,911.267-281.285,912.895Z" transform="translate(462.319 -903.453)" fill="#272525"/>
      <path id="Trazado_25643" data-name="Trazado 25643" d="M-277.591,916.346l1.019-5.365c.234-1.234.34-2.557.447-3.345h1.807c-.054.592-.109,1.2-.2,1.843h.054a3.2,3.2,0,0,1,2.734-2.04,3.806,3.806,0,0,1,.449.037l-.411,2.038a2.458,2.458,0,0,0-.393-.036c-1.484,0-2.431,1.5-2.771,3.361l-.663,3.506Z" transform="translate(465.971 -903.453)" fill="#272525"/>
      <path id="Trazado_25644" data-name="Trazado 25644" d="M-268.24,916.346c.018-.52.089-1.216.161-1.966h-.052a3.5,3.5,0,0,1-3.112,2.163c-1.555,0-2.574-1.216-2.574-2.968a5.963,5.963,0,0,1,6.132-6.136,9.3,9.3,0,0,1,2.628.393l-.894,4.543a20.149,20.149,0,0,0-.356,3.97Zm.858-7.206a3.465,3.465,0,0,0-.858-.091c-1.931,0-3.415,2.165-3.415,4.149,0,.913.34,1.664,1.251,1.664.965,0,2.145-1.216,2.557-3.434Z" transform="translate(468.33 -903.453)" fill="#272525"/>
      <path id="Trazado_25645" data-name="Trazado 25645" d="M-263.659,905.108l-1.091,5.276h.036a3.525,3.525,0,0,1,2.862-1.486c1.858,0,2.628,1.521,2.628,3.077,0,2.753-1.9,6.027-5.615,6.027-1.824,0-2.914-.77-2.9-2.344a8.352,8.352,0,0,1,.161-1.5l1.824-9.05Zm-1.841,9.155a4.484,4.484,0,0,0-.089,1.038,1.024,1.024,0,0,0,1.162,1.107c1.824,0,3.021-2.342,3.021-4.04,0-.965-.411-1.77-1.377-1.77-1.073,0-2.181,1.109-2.539,2.86Z" transform="translate(472.134 -904.911)" fill="#272525"/>
      <path id="Trazado_25646" data-name="Trazado 25646" d="M-261.971,917.8l2.431-12.7h2.076l-2.415,12.7Z" transform="translate(475.738 -904.911)" fill="#272525"/>
      <path id="Trazado_25647" data-name="Trazado 25647" d="M-252.47,915.844a6.979,6.979,0,0,1-3.077.679,3.267,3.267,0,0,1-3.576-3.594c0-2.628,1.929-5.49,4.934-5.49,1.718,0,2.808,1,2.808,2.451,0,2.235-2.344,2.95-5.7,2.88a2.4,2.4,0,0,0,.231,1.232,1.926,1.926,0,0,0,1.789.894,5.16,5.16,0,0,0,2.4-.57ZM-254.456,909a2.681,2.681,0,0,0-2.414,2.217c2.145.036,3.524-.268,3.524-1.305C-253.346,909.337-253.794,909-254.456,909Z" transform="translate(477.52 -903.453)" fill="#272525"/>
      <path id="Trazado_25648" data-name="Trazado 25648" d="M-253.625,914.4a4.724,4.724,0,0,0,2.092.592c.84-.02,1.341-.5,1.341-1.073s-.286-.9-1.144-1.342a2.677,2.677,0,0,1-1.718-2.271c0-1.681,1.468-2.862,3.524-2.862a4.323,4.323,0,0,1,2.056.449l-.536,1.5a3.5,3.5,0,0,0-1.627-.392c-.787,0-1.323.429-1.323,1.019,0,.483.393.822,1.126,1.2a2.831,2.831,0,0,1,1.806,2.342c0,1.915-1.609,2.968-3.7,2.968a4.507,4.507,0,0,1-2.431-.626Z" transform="translate(480.622 -903.453)" fill="#272525"/>
      <path id="Trazado_25649" data-name="Trazado 25649" d="M-393.5,929.547l1.125-6.007c.215-1.039.34-1.95.449-2.7h1.84l-.177,1.573h.036a3.729,3.729,0,0,1,3.129-1.772,2.129,2.129,0,0,1,2.219,2.4,8.419,8.419,0,0,1-.163,1.45l-.965,5.06h-2.074l.93-4.917a6.616,6.616,0,0,0,.107-1.039c0-.715-.27-1.252-1.091-1.252-.947,0-2.163,1.144-2.539,3.182l-.753,4.024Z" transform="translate(393.496 -895.199)" fill="#272525"/>
      <path id="Trazado_25650" data-name="Trazado 25650" d="M-378.673,922.186l-1.144,6.009c-.2,1.035-.322,1.949-.429,2.7h-1.841l.179-1.521h-.037a3.832,3.832,0,0,1-3.022,1.718c-1.268,0-2.269-.679-2.269-2.469a7.522,7.522,0,0,1,.177-1.555l.93-4.881h2.076l-.894,4.756a6.091,6.091,0,0,0-.143,1.2c0,.713.286,1.232,1.108,1.232.964,0,2.092-1.144,2.431-2.95l.8-4.237Zm-.715-3.7-2.342,2.648H-383.3l1.716-2.648Z" transform="translate(397.41 -896.547)" fill="#272525"/>
      <path id="Trazado_25651" data-name="Trazado 25651" d="M-381.518,929.547l1.11-6.007c.2-1.039.34-1.95.429-2.7h1.806l-.179,1.52h.016a3.679,3.679,0,0,1,3.023-1.718,1.88,1.88,0,0,1,2.056,1.789,3.645,3.645,0,0,1,3.075-1.789,2.069,2.069,0,0,1,2.129,2.326,11.786,11.786,0,0,1-.143,1.484l-.965,5.1h-2.02l.91-4.863a7.848,7.848,0,0,0,.125-1.11c0-.733-.3-1.234-1.073-1.234-.948,0-2,1.2-2.342,3.039l-.787,4.167h-2l.93-4.936a5.2,5.2,0,0,0,.107-1.019c0-.661-.2-1.252-1.037-1.252-.967,0-2.074,1.305-2.4,3.075l-.749,4.131Z" transform="translate(400.986 -895.199)" fill="#272525"/>
      <path id="Trazado_25652" data-name="Trazado 25652" d="M-365.725,929.044a6.974,6.974,0,0,1-3.077.679,3.267,3.267,0,0,1-3.576-3.594c0-2.628,1.931-5.49,4.936-5.49,1.716,0,2.807,1,2.807,2.451,0,2.235-2.344,2.951-5.7,2.88a2.381,2.381,0,0,0,.231,1.232,1.922,1.922,0,0,0,1.789.894,5.145,5.145,0,0,0,2.4-.57Zm-1.985-6.847a2.678,2.678,0,0,0-2.414,2.219c2.145.034,3.522-.268,3.522-1.307C-366.6,922.537-367.049,922.2-367.709,922.2Z" transform="translate(406.702 -895.199)" fill="#272525"/>
      <path id="Trazado_25653" data-name="Trazado 25653" d="M-367.218,929.547l1.019-5.365c.234-1.234.34-2.557.447-3.343h1.807c-.054.59-.109,1.2-.2,1.841h.054a3.2,3.2,0,0,1,2.735-2.04,3.78,3.78,0,0,1,.447.037l-.411,2.038a2.473,2.473,0,0,0-.393-.036c-1.484,0-2.431,1.5-2.771,3.363l-.661,3.5Z" transform="translate(409.928 -895.199)" fill="#272525"/>
      <path id="Trazado_25654" data-name="Trazado 25654" d="M-354.712,924.253a5.213,5.213,0,0,1-5.042,5.49,3.389,3.389,0,0,1-3.559-3.6c0-2.95,2.056-5.508,5.024-5.508A3.413,3.413,0,0,1-354.712,924.253Zm-6.454,1.841c0,1.2.642,2.04,1.7,2.04,1.555,0,2.591-2.147,2.591-3.881,0-.894-.392-2-1.661-2C-360.2,922.251-361.166,924.468-361.166,926.094Z" transform="translate(412.369 -895.199)" fill="#272525"/>
      <path id="Trazado_25655" data-name="Trazado 25655" d="M-351.193,919.288l-.445,2.4h1.967l-.323,1.609h-1.949l-.7,3.524a7.664,7.664,0,0,0-.143,1.232.68.68,0,0,0,.767.769,4.8,4.8,0,0,0,.717-.034l-.2,1.627a4.735,4.735,0,0,1-1.359.179c-1.432,0-2.076-.787-2.076-1.79a7.181,7.181,0,0,1,.2-1.627l.751-3.88h-1.18l.3-1.609h1.18l.359-1.877Z" transform="translate(417.466 -896.045)" fill="#272525"/>
      <path id="Trazado_25656" data-name="Trazado 25656" d="M-343.118,924.253a5.213,5.213,0,0,1-5.042,5.49,3.389,3.389,0,0,1-3.559-3.6c0-2.95,2.056-5.508,5.024-5.508A3.414,3.414,0,0,1-343.118,924.253Zm-6.456,1.841c0,1.2.644,2.04,1.7,2.04,1.555,0,2.592-2.147,2.592-3.881,0-.894-.392-2-1.661-2C-348.608,922.251-349.574,924.468-349.574,926.094Z" transform="translate(419.619 -895.199)" fill="#272525"/>
      <path id="Trazado_25657" data-name="Trazado 25657" d="M-341.612,919.288l-.445,2.4h1.967l-.322,1.609h-1.95l-.7,3.524a7.667,7.667,0,0,0-.143,1.232.68.68,0,0,0,.767.769,4.8,4.8,0,0,0,.717-.034l-.2,1.627a4.734,4.734,0,0,1-1.359.179c-1.432,0-2.075-.787-2.075-1.79a7.1,7.1,0,0,1,.2-1.627l.749-3.88h-1.18l.3-1.609h1.18l.359-1.877Z" transform="translate(423.457 -896.045)" fill="#272525"/>
      <path id="Trazado_25658" data-name="Trazado 25658" d="M-336.547,929.547c.016-.518.088-1.216.159-1.967h-.052a3.492,3.492,0,0,1-3.112,2.163c-1.555,0-2.574-1.216-2.574-2.968a5.964,5.964,0,0,1,6.132-6.135,9.259,9.259,0,0,1,2.63.395l-.894,4.543a20.137,20.137,0,0,0-.358,3.969Zm.858-7.207a3.494,3.494,0,0,0-.858-.089c-1.932,0-3.416,2.165-3.416,4.148,0,.913.34,1.664,1.253,1.664.964,0,2.145-1.216,2.557-3.433Z" transform="translate(425.617 -895.199)" fill="#272525"/>
      <path id="Trazado_25659" data-name="Trazado 25659" d="M-336.274,931l2.431-12.7h2.074l-2.413,12.7Z" transform="translate(429.277 -896.657)" fill="#272525"/>
      <path id="Trazado_25660" data-name="Trazado 25660" d="M-321.8,918.308l-1.824,9.6a24,24,0,0,0-.393,3.093h-1.913l.179-1.555h-.036a3.531,3.531,0,0,1-2.986,1.752c-1.555,0-2.648-1.269-2.648-3.236a5.648,5.648,0,0,1,5.437-5.867,3.644,3.644,0,0,1,1.341.252l.77-4.042Zm-3.145,5.741a2.126,2.126,0,0,0-1.2-.34c-1.788,0-3.111,1.984-3.111,3.935,0,1.053.411,1.877,1.395,1.877.93,0,2.038-1.019,2.4-2.825Z" transform="translate(432.309 -896.657)" fill="#272525"/>
      <path id="Trazado_25661" data-name="Trazado 25661" d="M-318.778,929.044a6.969,6.969,0,0,1-3.077.679,3.267,3.267,0,0,1-3.576-3.594c0-2.628,1.932-5.49,4.936-5.49,1.716,0,2.807,1,2.807,2.451,0,2.235-2.344,2.951-5.7,2.88a2.4,2.4,0,0,0,.232,1.232,1.92,1.92,0,0,0,1.788.894,5.145,5.145,0,0,0,2.4-.57Zm-1.984-6.847a2.679,2.679,0,0,0-2.414,2.219c2.145.034,3.522-.268,3.522-1.307C-319.654,922.537-320.1,922.2-320.762,922.2Z" transform="translate(436.058 -895.199)" fill="#272525"/>
      <path id="Trazado_25662" data-name="Trazado 25662" d="M-318.257,929.547l1.019-5.365c.232-1.234.34-2.557.445-3.343h1.807c-.054.59-.107,1.2-.2,1.841h.054a3.2,3.2,0,0,1,2.735-2.04,3.754,3.754,0,0,1,.447.037l-.411,2.038a2.435,2.435,0,0,0-.393-.036c-1.484,0-2.431,1.5-2.771,3.363l-.663,3.5Z" transform="translate(440.543 -895.199)" fill="#272525"/>
      <path id="Trazado_25663" data-name="Trazado 25663" d="M-307.722,929.044a6.974,6.974,0,0,1-3.077.679,3.267,3.267,0,0,1-3.576-3.594c0-2.628,1.929-5.49,4.934-5.49,1.718,0,2.809,1,2.809,2.451,0,2.235-2.344,2.951-5.7,2.88a2.4,2.4,0,0,0,.231,1.232,1.926,1.926,0,0,0,1.789.894,5.158,5.158,0,0,0,2.4-.57Zm-1.986-6.847a2.681,2.681,0,0,0-2.414,2.219c2.145.034,3.524-.268,3.524-1.307C-308.6,922.537-309.046,922.2-309.708,922.2Z" transform="translate(442.971 -895.199)" fill="#272525"/>
      <path id="Trazado_25664" data-name="Trazado 25664" d="M-308.878,927.6a4.759,4.759,0,0,0,2.092.59c.842-.02,1.341-.5,1.341-1.073s-.286-.9-1.144-1.341a2.679,2.679,0,0,1-1.716-2.272c0-1.681,1.468-2.862,3.522-2.862a4.324,4.324,0,0,1,2.058.449l-.536,1.5a3.486,3.486,0,0,0-1.629-.393c-.785,0-1.321.429-1.321,1.019,0,.483.393.822,1.126,1.2a2.825,2.825,0,0,1,1.8,2.341c0,1.914-1.609,2.968-3.7,2.968a4.522,4.522,0,0,1-2.431-.624Z" transform="translate(446.072 -895.199)" fill="#272525"/>
      <path id="Trazado_25665" data-name="Trazado 25665" d="M-296.009,920.762l-1.144,6.009c-.2,1.035-.322,1.949-.429,2.7h-1.841l.179-1.521h-.036a3.837,3.837,0,0,1-3.023,1.718c-1.268,0-2.269-.679-2.269-2.469a7.52,7.52,0,0,1,.177-1.555l.93-4.881h2.076l-.894,4.756a6.09,6.09,0,0,0-.143,1.2c0,.713.286,1.232,1.108,1.232.964,0,2.092-1.144,2.431-2.95l.8-4.237Z" transform="translate(449.099 -895.123)" fill="#272525"/>
      <path id="Trazado_25666" data-name="Trazado 25666" d="M-298.854,931l2.431-12.7h2.076l-2.414,12.7Z" transform="translate(452.675 -896.657)" fill="#272525"/>
      <path id="Trazado_25667" data-name="Trazado 25667" d="M-291.848,919.288l-.447,2.4h1.965l-.32,1.609H-292.6l-.7,3.524a7.671,7.671,0,0,0-.143,1.232.681.681,0,0,0,.769.769,4.8,4.8,0,0,0,.717-.034l-.2,1.627a4.709,4.709,0,0,1-1.359.179c-1.429,0-2.074-.787-2.074-1.79a7.178,7.178,0,0,1,.2-1.627l.751-3.88h-1.178l.3-1.609h1.182l.356-1.877Z" transform="translate(454.574 -896.045)" fill="#272525"/>
      <path id="Trazado_25668" data-name="Trazado 25668" d="M-286.786,929.547c.018-.518.089-1.216.161-1.967h-.052a3.5,3.5,0,0,1-3.112,2.163c-1.555,0-2.574-1.216-2.574-2.968a5.964,5.964,0,0,1,6.132-6.135,9.237,9.237,0,0,1,2.628.395l-.894,4.543a20.129,20.129,0,0,0-.356,3.969Zm.86-7.207a3.5,3.5,0,0,0-.86-.089c-1.931,0-3.415,2.165-3.415,4.148,0,.913.34,1.664,1.251,1.664.965,0,2.147-1.216,2.557-3.433Z" transform="translate(456.734 -895.199)" fill="#272525"/>
      <path id="Trazado_25669" data-name="Trazado 25669" d="M-276.793,918.308l-1.824,9.6A24,24,0,0,0-279.01,931h-1.913l.177-1.555h-.034a3.536,3.536,0,0,1-2.987,1.752c-1.555,0-2.646-1.269-2.646-3.236a5.647,5.647,0,0,1,5.437-5.867,3.663,3.663,0,0,1,1.341.252l.767-4.042Zm-3.148,5.741a2.121,2.121,0,0,0-1.2-.34c-1.788,0-3.111,1.984-3.111,3.935,0,1.053.411,1.877,1.395,1.877.931,0,2.038-1.019,2.4-2.825Z" transform="translate(460.455 -896.657)" fill="#272525"/>
      <path id="Trazado_25670" data-name="Trazado 25670" d="M-271.8,924.253a5.213,5.213,0,0,1-5.042,5.49,3.389,3.389,0,0,1-3.559-3.6,5.216,5.216,0,0,1,5.025-5.508A3.412,3.412,0,0,1-271.8,924.253Zm-6.454,1.841c0,1.2.644,2.04,1.7,2.04,1.555,0,2.592-2.147,2.592-3.881,0-.894-.393-2-1.663-2C-277.286,922.251-278.25,924.468-278.25,926.094Z" transform="translate(464.217 -895.199)" fill="#272525"/>
      <path id="Trazado_25671" data-name="Trazado 25671" d="M-274.217,927.6a4.746,4.746,0,0,0,2.092.59c.84-.02,1.341-.5,1.341-1.073s-.284-.9-1.144-1.341a2.679,2.679,0,0,1-1.716-2.272c0-1.681,1.466-2.862,3.524-2.862a4.32,4.32,0,0,1,2.054.449l-.536,1.5a3.472,3.472,0,0,0-1.627-.393c-.787,0-1.323.429-1.323,1.019,0,.483.393.822,1.126,1.2a2.827,2.827,0,0,1,1.806,2.341c0,1.914-1.609,2.968-3.7,2.968a4.522,4.522,0,0,1-2.431-.624Z" transform="translate(467.746 -895.199)" fill="#272525"/>
      <path id="Trazado_25672" data-name="Trazado 25672" d="M-268.626,933.086l1.7-9.012c.2-1.037.393-2.342.5-3.236h1.879l-.2,1.43h.036a3.675,3.675,0,0,1,2.952-1.629c1.877,0,2.753,1.539,2.753,3.239,0,3.039-2.111,5.864-5.079,5.864a3.507,3.507,0,0,1-1.734-.375h-.036l-.7,3.719Zm3.111-5.383a2.129,2.129,0,0,0,1.394.431c1.611,0,2.932-2.147,2.932-4.1,0-.8-.358-1.7-1.377-1.7-1.055,0-2.2,1.2-2.576,3.238Z" transform="translate(471.577 -895.199)" fill="#272525"/>
      <path id="Trazado_25673" data-name="Trazado 25673" d="M-253.4,924.253a5.213,5.213,0,0,1-5.043,5.49,3.388,3.388,0,0,1-3.558-3.6c0-2.95,2.056-5.508,5.024-5.508A3.414,3.414,0,0,1-253.4,924.253Zm-6.456,1.841c0,1.2.644,2.04,1.7,2.04,1.555,0,2.592-2.147,2.592-3.881,0-.894-.392-2-1.661-2C-258.893,922.251-259.859,924.468-259.859,926.094Z" transform="translate(475.718 -895.199)" fill="#272525"/>
      <path id="Trazado_25674" data-name="Trazado 25674" d="M-255.825,927.6a4.739,4.739,0,0,0,2.092.59c.839-.02,1.341-.5,1.341-1.073s-.286-.9-1.144-1.341a2.681,2.681,0,0,1-1.718-2.272c0-1.681,1.468-2.862,3.524-2.862a4.322,4.322,0,0,1,2.056.449l-.536,1.5a3.478,3.478,0,0,0-1.627-.393c-.788,0-1.325.429-1.325,1.019,0,.483.395.822,1.128,1.2a2.827,2.827,0,0,1,1.806,2.341c0,1.914-1.609,2.968-3.7,2.968a4.523,4.523,0,0,1-2.431-.624Z" transform="translate(479.246 -895.199)" fill="#272525"/>
      <path id="Trazado_25675" data-name="Trazado 25675" d="M-251.8,930.867l1.645-8.708h2.092l-1.664,8.708Zm1.985-11.07a1.237,1.237,0,0,1,1.251-1.269,1.075,1.075,0,0,1,1.108,1.126,1.241,1.241,0,0,1-1.287,1.253A1.032,1.032,0,0,1-249.812,919.8Z" transform="translate(482.101 -896.52)" fill="#272525"/>
      <path id="Trazado_25676" data-name="Trazado 25676" d="M-244.75,918.308l-1.091,5.276h.036a3.524,3.524,0,0,1,2.861-1.485c1.859,0,2.628,1.521,2.628,3.077,0,2.753-1.9,6.027-5.614,6.027-1.824,0-2.916-.77-2.9-2.342a8.525,8.525,0,0,1,.159-1.5l1.824-9.05Zm-1.841,9.155a4.405,4.405,0,0,0-.089,1.039,1.025,1.025,0,0,0,1.162,1.108c1.824,0,3.021-2.344,3.021-4.042,0-.965-.411-1.77-1.377-1.77-1.074,0-2.181,1.108-2.539,2.861Z" transform="translate(483.958 -896.657)" fill="#272525"/>
      <path id="Trazado_25677" data-name="Trazado 25677" d="M-243.063,931l2.433-12.7h2.074L-240.97,931Z" transform="translate(487.561 -896.657)" fill="#272525"/>
      <path id="Trazado_25678" data-name="Trazado 25678" d="M-233.562,929.044a6.969,6.969,0,0,1-3.077.679,3.267,3.267,0,0,1-3.576-3.594c0-2.628,1.932-5.49,4.936-5.49,1.716,0,2.807,1,2.807,2.451,0,2.235-2.344,2.951-5.7,2.88a2.366,2.366,0,0,0,.232,1.232,1.918,1.918,0,0,0,1.788.894,5.145,5.145,0,0,0,2.4-.57Zm-1.984-6.847a2.678,2.678,0,0,0-2.414,2.219c2.145.034,3.522-.268,3.522-1.307C-234.438,922.537-234.886,922.2-235.546,922.2Z" transform="translate(489.343 -895.199)" fill="#272525"/>
      <path id="Trazado_25679" data-name="Trazado 25679" d="M-234.717,927.6a4.759,4.759,0,0,0,2.092.59c.842-.02,1.341-.5,1.341-1.073s-.284-.9-1.144-1.341a2.677,2.677,0,0,1-1.715-2.272c0-1.681,1.466-2.862,3.522-2.862a4.322,4.322,0,0,1,2.056.449l-.536,1.5a3.48,3.48,0,0,0-1.629-.393c-.785,0-1.321.429-1.321,1.019,0,.483.393.822,1.126,1.2a2.825,2.825,0,0,1,1.8,2.341c0,1.914-1.609,2.968-3.7,2.968a4.523,4.523,0,0,1-2.431-.624Z" transform="translate(492.445 -895.199)" fill="#272525"/>
    </g>
    <g id="Grupo_14692" data-name="Grupo 14692" transform="translate(438.738 658.217)">
      <path id="Trazado_25680" data-name="Trazado 25680" d="M-495.988,915.894a4.26,4.26,0,0,1-1.4,3.439,6.008,6.008,0,0,1-3.995,1.19h-1.266v4.952h-2.953V911.553h4.448a5.917,5.917,0,0,1,3.852,1.089A3.978,3.978,0,0,1-495.988,915.894Zm-6.665,2.21h.972a3.239,3.239,0,0,0,2.036-.538,1.881,1.881,0,0,0,.676-1.567,1.937,1.937,0,0,0-.566-1.534,2.66,2.66,0,0,0-1.776-.494h-1.343Z" transform="translate(505.607 -910.657)" fill="#272525"/>
      <path id="Trazado_25681" data-name="Trazado 25681" d="M-498.669,920.133a14.742,14.742,0,0,1,.738-4.723,11.71,11.71,0,0,1,2.129-3.857h2.379a13.76,13.76,0,0,0-2.028,4.037,15.123,15.123,0,0,0-.684,4.523,14.647,14.647,0,0,0,.7,4.51,13.655,13.655,0,0,0,2,3.937H-495.8a11.205,11.205,0,0,1-2.134-3.781A14.366,14.366,0,0,1-498.669,920.133Z" transform="translate(509.945 -910.657)" fill="#272525"/>
      <path id="Trazado_25682" data-name="Trazado 25682" d="M-484.318,924.292h-2.9v-6.218a2.991,2.991,0,0,0-.41-1.729,1.49,1.49,0,0,0-1.305-.575,1.957,1.957,0,0,0-1.76.814,5.041,5.041,0,0,0-.543,2.7v5.009h-2.906V913.645h2.22l.39,1.362h.161a3.079,3.079,0,0,1,1.339-1.167,4.555,4.555,0,0,1,1.937-.395,3.72,3.72,0,0,1,2.818,1,4.028,4.028,0,0,1,.962,2.9Z" transform="translate(512.774 -909.474)" fill="#272525"/>
      <path id="Trazado_25683" data-name="Trazado 25683" d="M-476.335,918.95a5.727,5.727,0,0,1-1.37,4.067,4.978,4.978,0,0,1-3.819,1.466,5.345,5.345,0,0,1-2.7-.671,4.467,4.467,0,0,1-1.8-1.927,6.5,6.5,0,0,1-.627-2.934,5.686,5.686,0,0,1,1.362-4.057,5,5,0,0,1,3.828-1.448,5.377,5.377,0,0,1,2.7.666,4.453,4.453,0,0,1,1.8,1.915A6.437,6.437,0,0,1-476.335,918.95Zm-7.361,0a4.475,4.475,0,0,0,.518,2.391,1.857,1.857,0,0,0,1.69.81,1.826,1.826,0,0,0,1.673-.806,4.531,4.531,0,0,0,.509-2.394,4.394,4.394,0,0,0-.514-2.371,1.86,1.86,0,0,0-1.685-.79,1.855,1.855,0,0,0-1.677.785A4.391,4.391,0,0,0-483.7,918.95Z" transform="translate(517.456 -909.474)" fill="#272525"/>
      <path id="Trazado_25684" data-name="Trazado 25684" d="M-468.035,921.131a2.933,2.933,0,0,1-1.138,2.495,5.631,5.631,0,0,1-3.4.857,10.605,10.605,0,0,1-1.98-.158,7.454,7.454,0,0,1-1.534-.462v-2.4a10.1,10.1,0,0,0,1.824.637,7.341,7.341,0,0,0,1.786.257q1.58,0,1.581-.913a.763.763,0,0,0-.21-.557,3.078,3.078,0,0,0-.725-.486q-.514-.271-1.37-.632a8.707,8.707,0,0,1-1.806-.953,2.684,2.684,0,0,1-.837-1,3.308,3.308,0,0,1-.262-1.4,2.527,2.527,0,0,1,1.1-2.194,5.35,5.35,0,0,1,3.119-.777,8.85,8.85,0,0,1,3.743.839l-.876,2.095q-.8-.344-1.5-.562a4.686,4.686,0,0,0-1.419-.219q-1.285,0-1.286.7a.817.817,0,0,0,.414.676,11.377,11.377,0,0,0,1.814.848,8.373,8.373,0,0,1,1.828.943,2.768,2.768,0,0,1,.856,1.009A3.08,3.08,0,0,1-468.035,921.131Z" transform="translate(524.051 -909.474)" fill="#272525"/>
      <path id="Trazado_25685" data-name="Trazado 25685" d="M-462.714,924.3l-.562-1.448h-.076a4.27,4.27,0,0,1-1.508,1.281,4.867,4.867,0,0,1-2.023.358,3.279,3.279,0,0,1-2.415-.876,3.366,3.366,0,0,1-.881-2.495,2.808,2.808,0,0,1,1.187-2.5,6.863,6.863,0,0,1,3.576-.891l1.848-.057v-.466a1.448,1.448,0,0,0-1.658-1.619,7.563,7.563,0,0,0-3,.77l-.961-1.962a8.66,8.66,0,0,1,4.075-.962,5.078,5.078,0,0,1,3.286.935,3.444,3.444,0,0,1,1.143,2.838V924.3Zm-.857-4.933-1.125.037a3.619,3.619,0,0,0-1.885.457,1.437,1.437,0,0,0-.619,1.277q0,1.229,1.409,1.227a2.237,2.237,0,0,0,1.616-.58,2.041,2.041,0,0,0,.6-1.542Z" transform="translate(527.759 -909.482)" fill="#272525"/>
      <path id="Trazado_25686" data-name="Trazado 25686" d="M-459.595,925.82h-2.9V911h2.9Z" transform="translate(532.562 -911.002)" fill="#272525"/>
      <path id="Trazado_25687" data-name="Trazado 25687" d="M-449.007,913.645v1.476l-1.666.429a2.911,2.911,0,0,1,.457,1.6,3.231,3.231,0,0,1-1.195,2.672,5.175,5.175,0,0,1-3.319.957l-.525-.029-.427-.047a.967.967,0,0,0-.449.762q0,.629,1.6.627h1.809a4.135,4.135,0,0,1,2.672.753,2.691,2.691,0,0,1,.918,2.21,3.276,3.276,0,0,1-1.557,2.895,8.109,8.109,0,0,1-4.471,1.029,6.185,6.185,0,0,1-3.4-.777,2.463,2.463,0,0,1-1.175-2.176,2.28,2.28,0,0,1,.6-1.609,3.4,3.4,0,0,1,1.762-.923,1.939,1.939,0,0,1-.782-.624,1.488,1.488,0,0,1-.333-.918,1.5,1.5,0,0,1,.353-1.016,4.1,4.1,0,0,1,1.019-.795,2.843,2.843,0,0,1-1.328-1.162,3.52,3.52,0,0,1-.491-1.885,3.324,3.324,0,0,1,1.133-2.695,4.9,4.9,0,0,1,3.238-.952,8.349,8.349,0,0,1,1.063.081c.41.054.671.094.785.119Zm-8.217,12.152a1.053,1.053,0,0,0,.575.943,3.177,3.177,0,0,0,1.614.343,5.709,5.709,0,0,0,2.448-.429,1.307,1.307,0,0,0,.886-1.172.826.826,0,0,0-.523-.827,4.281,4.281,0,0,0-1.619-.229h-1.5a2.279,2.279,0,0,0-1.338.375A1.162,1.162,0,0,0-457.225,925.8Zm1.056-8.666a2.167,2.167,0,0,0,.395,1.37,1.435,1.435,0,0,0,1.2.505,1.41,1.41,0,0,0,1.2-.505,2.226,2.226,0,0,0,.38-1.37q0-1.924-1.581-1.924Q-456.168,915.207-456.168,917.131Z" transform="translate(534.288 -909.474)" fill="#272525"/>
      <path id="Trazado_25688" data-name="Trazado 25688" d="M-445.026,924.3l-.561-1.448h-.076a4.274,4.274,0,0,1-1.51,1.281,4.857,4.857,0,0,1-2.024.358,3.272,3.272,0,0,1-2.414-.876,3.359,3.359,0,0,1-.881-2.495,2.81,2.81,0,0,1,1.185-2.5,6.872,6.872,0,0,1,3.576-.891l1.848-.057v-.466a1.448,1.448,0,0,0-1.656-1.619,7.557,7.557,0,0,0-3,.77l-.962-1.962a8.667,8.667,0,0,1,4.076-.962,5.07,5.07,0,0,1,3.285.935A3.445,3.445,0,0,1-443,917.205V924.3Zm-.857-4.933-1.123.037a3.61,3.61,0,0,0-1.885.457,1.437,1.437,0,0,0-.619,1.277q0,1.229,1.409,1.227a2.233,2.233,0,0,0,1.614-.58,2.041,2.041,0,0,0,.6-1.542Z" transform="translate(538.82 -909.482)" fill="#272525"/>
      <path id="Trazado_25689" data-name="Trazado 25689" d="M-438.072,926.01a3.462,3.462,0,0,1-2.948-1.456,6.707,6.707,0,0,1-1.071-4.039,6.7,6.7,0,0,1,1.091-4.08A3.54,3.54,0,0,1-438,914.973a3.47,3.47,0,0,1,3.065,1.562h.1a11.854,11.854,0,0,1-.219-2.124V911h2.914V925.82h-2.228l-.562-1.382h-.123A3.321,3.321,0,0,1-438.072,926.01Zm1.019-2.314a1.972,1.972,0,0,0,1.633-.647,3.776,3.776,0,0,0,.566-2.2v-.314a4.354,4.354,0,0,0-.528-2.457,1.966,1.966,0,0,0-1.72-.743,1.7,1.7,0,0,0-1.508.824,4.391,4.391,0,0,0-.538,2.4,4.16,4.16,0,0,0,.543,2.357A1.772,1.772,0,0,0-437.053,923.7Z" transform="translate(545.323 -911.002)" fill="#272525"/>
      <path id="Trazado_25690" data-name="Trazado 25690" d="M-429.031,924.482a5.5,5.5,0,0,1-4.019-1.419,5.377,5.377,0,0,1-1.447-4.019,5.9,5.9,0,0,1,1.338-4.137,4.764,4.764,0,0,1,3.7-1.463,4.7,4.7,0,0,1,3.516,1.286,4.868,4.868,0,0,1,1.256,3.553v1.409h-6.867a2.792,2.792,0,0,0,.735,1.932,2.578,2.578,0,0,0,1.923.7,7.978,7.978,0,0,0,1.819-.2,9.065,9.065,0,0,0,1.791-.639v2.248a6.848,6.848,0,0,1-1.629.567A10.3,10.3,0,0,1-429.031,924.482Zm-.41-8.97a1.839,1.839,0,0,0-1.447.585,2.715,2.715,0,0,0-.6,1.661h4.076a2.426,2.426,0,0,0-.561-1.661A1.906,1.906,0,0,0-429.441,915.512Z" transform="translate(550.072 -909.474)" fill="#272525"/>
      <path id="Trazado_25691" data-name="Trazado 25691" d="M-414.6,925.553h-9.734V923.5l3.5-3.533q1.551-1.589,2.028-2.2a4.866,4.866,0,0,0,.686-1.138,2.9,2.9,0,0,0,.21-1.086,1.581,1.581,0,0,0-.463-1.248,1.787,1.787,0,0,0-1.232-.41,3.533,3.533,0,0,0-1.572.372,8.091,8.091,0,0,0-1.591,1.056l-1.6-1.9a10.5,10.5,0,0,1,1.7-1.238,6.276,6.276,0,0,1,1.476-.556,7.561,7.561,0,0,1,1.789-.2,5.3,5.3,0,0,1,2.3.476,3.668,3.668,0,0,1,1.552,1.334,3.534,3.534,0,0,1,.553,1.962,4.794,4.794,0,0,1-.338,1.8,6.907,6.907,0,0,1-1.047,1.729,25.75,25.75,0,0,1-2.5,2.522l-1.791,1.685v.133h6.067Z" transform="translate(556.403 -910.735)" fill="#272525"/>
      <path id="Trazado_25692" data-name="Trazado 25692" d="M-412.376,920.133a14.346,14.346,0,0,1-.738,4.666,11.139,11.139,0,0,1-2.128,3.761H-417.6a13.736,13.736,0,0,0,1.989-3.929,14.57,14.57,0,0,0,.705-4.518,15.123,15.123,0,0,0-.686-4.523,13.682,13.682,0,0,0-2.028-4.037h2.381a11.682,11.682,0,0,1,2.132,3.87A14.823,14.823,0,0,1-412.376,920.133Z" transform="translate(560.624 -910.657)" fill="#272525"/>
      <path id="Trazado_25693" data-name="Trazado 25693" d="M-410.28,916.2v-2.085h9.456V916.2Zm0,3.686v-2.085h9.456v2.085Z" transform="translate(565.215 -909.053)" fill="#272525"/>
    </g>
  </g>
</svg>
