<svg id="Grupo_14708" data-name="Grupo 14708" xmlns="http://www.w3.org/2000/svg" width="460.714" height="46.071" viewBox="0 0 460.714 46.071">
  <rect id="Rectángulo_3718" data-name="Rectángulo 3718" width="460.714" height="46.071" fill="#efc355"/>
  <g id="Grupo_14707" data-name="Grupo 14707" transform="translate(95.153 14.48)">
    <path id="Trazado_25907" data-name="Trazado 25907" d="M-441.772,1041.479a3.9,3.9,0,0,1-1.287,3.15,5.5,5.5,0,0,1-3.663,1.092h-1.161v4.539h-2.706V1037.5h4.076a5.423,5.423,0,0,1,3.532,1A3.639,3.639,0,0,1-441.772,1041.479Zm-6.111,2.025h.891a2.966,2.966,0,0,0,1.867-.494,1.729,1.729,0,0,0,.621-1.437,1.77,1.77,0,0,0-.52-1.4,2.437,2.437,0,0,0-1.629-.453h-1.23Z" transform="translate(450.589 -1037.445)" fill="#272525"/>
    <path id="Trazado_25908" data-name="Trazado 25908" d="M-441.372,1045.364a13.517,13.517,0,0,1,.676-4.331,10.762,10.762,0,0,1,1.95-3.533h2.184a12.514,12.514,0,0,0-1.861,3.7,13.846,13.846,0,0,0-.629,4.146,13.431,13.431,0,0,0,.642,4.135,12.614,12.614,0,0,0,1.828,3.608h-2.165a10.33,10.33,0,0,1-1.955-3.465A13.17,13.17,0,0,1-441.372,1045.364Z" transform="translate(456.352 -1037.445)" fill="#272525"/>
    <path id="Trazado_25909" data-name="Trazado 25909" d="M-428.666,1050.281l-.925-3.037h-4.653l-.925,3.037h-2.916l4.5-12.816h3.309l4.523,12.816Zm-1.572-5.307q-1.28-4.133-1.445-4.671c-.107-.361-.184-.647-.231-.857q-.285,1.119-1.65,5.528Z" transform="translate(458.408 -1037.466)" fill="#272525"/>
    <path id="Trazado_25910" data-name="Trazado 25910" d="M-417.68,1044.28a5.241,5.241,0,0,1-1.258,3.727,4.558,4.558,0,0,1-3.5,1.346,4.9,4.9,0,0,1-2.48-.616,4.1,4.1,0,0,1-1.648-1.768,5.925,5.925,0,0,1-.577-2.688,5.223,5.223,0,0,1,1.248-3.72,4.59,4.59,0,0,1,3.511-1.326,4.937,4.937,0,0,1,2.479.611,4.074,4.074,0,0,1,1.65,1.755A5.893,5.893,0,0,1-417.68,1044.28Zm-6.75,0a4.1,4.1,0,0,0,.476,2.191,1.706,1.706,0,0,0,1.549.741,1.678,1.678,0,0,0,1.534-.736,4.166,4.166,0,0,0,.466-2.2,4.032,4.032,0,0,0-.471-2.173,1.7,1.7,0,0,0-1.544-.726,1.7,1.7,0,0,0-1.538.722A4.033,4.033,0,0,0-424.43,1044.28Z" transform="translate(465.249 -1036.361)" fill="#272525"/>
    <path id="Trazado_25911" data-name="Trazado 25911" d="M-416.982,1037.5h3.972a7.658,7.658,0,0,1,3.943.772,2.691,2.691,0,0,1,1.224,2.457,3.085,3.085,0,0,1-.536,1.876,2.137,2.137,0,0,1-1.427.882v.088a2.807,2.807,0,0,1,1.752,1.012,3.307,3.307,0,0,1,.536,1.973,3.253,3.253,0,0,1-1.263,2.724,5.461,5.461,0,0,1-3.426.977h-4.775Zm2.706,5.053h1.572a2.874,2.874,0,0,0,1.594-.34,1.272,1.272,0,0,0,.492-1.126,1.123,1.123,0,0,0-.538-1.052,3.435,3.435,0,0,0-1.7-.319h-1.424Zm0,2.147v3.327h1.763a2.629,2.629,0,0,0,1.651-.427,1.579,1.579,0,0,0,.531-1.31q0-1.59-2.269-1.59Z" transform="translate(471.603 -1037.445)" fill="#272525"/>
    <path id="Trazado_25912" data-name="Trazado 25912" d="M-405.442,1045.364a13.159,13.159,0,0,1-.676,4.276,10.188,10.188,0,0,1-1.952,3.449h-2.165a12.581,12.581,0,0,0,1.825-3.6,13.417,13.417,0,0,0,.645-4.143,13.847,13.847,0,0,0-.629-4.146,12.544,12.544,0,0,0-1.858-3.7h2.181a10.682,10.682,0,0,1,1.955,3.548A13.57,13.57,0,0,1-405.442,1045.364Z" transform="translate(475.812 -1037.445)" fill="#272525"/>
    <path id="Trazado_25913" data-name="Trazado 25913" d="M-403.523,1041.762v-1.911h8.669v1.911Zm0,3.379v-1.913h8.669v1.913Z" transform="translate(480.019 -1035.975)" fill="#272525"/>
    <path id="Trazado_25914" data-name="Trazado 25914" d="M-385.053,1041.479a3.9,3.9,0,0,1-1.287,3.15,5.5,5.5,0,0,1-3.663,1.092h-1.16v4.539h-2.706V1037.5h4.076a5.419,5.419,0,0,1,3.53,1A3.64,3.64,0,0,1-385.053,1041.479Zm-6.111,2.025h.891a2.969,2.969,0,0,0,1.868-.494,1.729,1.729,0,0,0,.621-1.437,1.776,1.776,0,0,0-.52-1.4,2.437,2.437,0,0,0-1.629-.453h-1.23Z" transform="translate(486.055 -1037.445)" fill="#272525"/>
    <path id="Trazado_25915" data-name="Trazado 25915" d="M-387.511,1045.364a13.563,13.563,0,0,1,.676-4.331,10.762,10.762,0,0,1,1.95-3.533h2.184a12.473,12.473,0,0,0-1.859,3.7,13.848,13.848,0,0,0-.629,4.146,13.479,13.479,0,0,0,.64,4.135,12.611,12.611,0,0,0,1.828,3.608h-2.165a10.357,10.357,0,0,1-1.955-3.465A13.212,13.212,0,0,1-387.511,1045.364Z" transform="translate(490.032 -1037.445)" fill="#272525"/>
    <path id="Trazado_25916" data-name="Trazado 25916" d="M-374.805,1050.281l-.923-3.037h-4.653l-.926,3.037h-2.916l4.505-12.816h3.307l4.523,12.816Zm-1.572-5.307q-1.28-4.133-1.443-4.671c-.109-.361-.185-.647-.232-.857q-.285,1.119-1.65,5.528Z" transform="translate(492.087 -1037.466)" fill="#272525"/>
    <path id="Trazado_25917" data-name="Trazado 25917" d="M-371.5,1045.364a13.116,13.116,0,0,1-.676,4.276,10.19,10.19,0,0,1-1.952,3.449h-2.165a12.582,12.582,0,0,0,1.825-3.6,13.368,13.368,0,0,0,.645-4.143,13.844,13.844,0,0,0-.627-4.146,12.587,12.587,0,0,0-1.859-3.7h2.181a10.655,10.655,0,0,1,1.955,3.548A13.57,13.57,0,0,1-371.5,1045.364Z" transform="translate(497.038 -1037.445)" fill="#272525"/>
    <path id="Trazado_25918" data-name="Trazado 25918" d="M-366.2,1044.109h-3.377V1042.2h3.377v-3.4h1.913v3.4h3.379v1.913h-3.379v3.36H-366.2Z" transform="translate(501.246 -1036.636)" fill="#272525"/>
    <path id="Trazado_25919" data-name="Trazado 25919" d="M-351.108,1041.479a3.9,3.9,0,0,1-1.287,3.15,5.5,5.5,0,0,1-3.663,1.092h-1.16v4.539h-2.706V1037.5h4.076a5.424,5.424,0,0,1,3.532,1A3.639,3.639,0,0,1-351.108,1041.479Zm-6.111,2.025h.891a2.966,2.966,0,0,0,1.867-.494,1.729,1.729,0,0,0,.621-1.437,1.77,1.77,0,0,0-.52-1.4,2.437,2.437,0,0,0-1.629-.453h-1.23Z" transform="translate(507.281 -1037.445)" fill="#272525"/>
    <path id="Trazado_25920" data-name="Trazado 25920" d="M-353.566,1045.364a13.562,13.562,0,0,1,.676-4.331,10.765,10.765,0,0,1,1.952-3.533h2.183a12.55,12.55,0,0,0-1.859,3.7,13.848,13.848,0,0,0-.629,4.146,13.431,13.431,0,0,0,.642,4.135,12.532,12.532,0,0,0,1.828,3.608h-2.165a10.3,10.3,0,0,1-1.955-3.465A13.17,13.17,0,0,1-353.566,1045.364Z" transform="translate(511.257 -1037.445)" fill="#272525"/>
    <path id="Trazado_25921" data-name="Trazado 25921" d="M-349.29,1037.5h3.971a7.659,7.659,0,0,1,3.943.772,2.689,2.689,0,0,1,1.225,2.457,3.1,3.1,0,0,1-.536,1.876,2.144,2.144,0,0,1-1.427.882v.088a2.8,2.8,0,0,1,1.75,1.012,3.3,3.3,0,0,1,.536,1.973,3.256,3.256,0,0,1-1.261,2.724,5.469,5.469,0,0,1-3.428.977h-4.774Zm2.706,5.053h1.572a2.868,2.868,0,0,0,1.593-.34,1.273,1.273,0,0,0,.494-1.126,1.126,1.126,0,0,0-.538-1.052,3.443,3.443,0,0,0-1.7-.319h-1.424Zm0,2.147v3.327h1.763a2.62,2.62,0,0,0,1.65-.427,1.58,1.58,0,0,0,.533-1.31q0-1.59-2.271-1.59Z" transform="translate(513.931 -1037.445)" fill="#272525"/>
    <path id="Trazado_25922" data-name="Trazado 25922" d="M-337.751,1045.364a13.117,13.117,0,0,1-.676,4.276,10.163,10.163,0,0,1-1.952,3.449h-2.165a12.582,12.582,0,0,0,1.825-3.6,13.369,13.369,0,0,0,.647-4.143,13.846,13.846,0,0,0-.629-4.146,12.589,12.589,0,0,0-1.859-3.7h2.181a10.654,10.654,0,0,1,1.955,3.548A13.523,13.523,0,0,1-337.751,1045.364Z" transform="translate(518.139 -1037.445)" fill="#272525"/>
    <path id="Trazado_25923" data-name="Trazado 25923" d="M-335.862,1043.781v-2.007h7.507v2.007Z" transform="translate(522.328 -1034.772)" fill="#272525"/>
    <path id="Trazado_25924" data-name="Trazado 25924" d="M-318.14,1041.479a3.9,3.9,0,0,1-1.287,3.15,5.5,5.5,0,0,1-3.663,1.092h-1.16v4.539h-2.706V1037.5h4.076a5.419,5.419,0,0,1,3.53,1A3.635,3.635,0,0,1-318.14,1041.479Zm-6.111,2.025h.891a2.969,2.969,0,0,0,1.867-.494,1.729,1.729,0,0,0,.621-1.437,1.771,1.771,0,0,0-.52-1.4,2.437,2.437,0,0,0-1.629-.453h-1.23Z" transform="translate(527.896 -1037.445)" fill="#272525"/>
    <path id="Trazado_25925" data-name="Trazado 25925" d="M-317.74,1045.364a13.519,13.519,0,0,1,.676-4.331,10.733,10.733,0,0,1,1.95-3.533h2.184a12.514,12.514,0,0,0-1.861,3.7,13.845,13.845,0,0,0-.629,4.146,13.431,13.431,0,0,0,.642,4.135,12.611,12.611,0,0,0,1.828,3.608h-2.165a10.3,10.3,0,0,1-1.955-3.465A13.169,13.169,0,0,1-317.74,1045.364Z" transform="translate(533.659 -1037.445)" fill="#272525"/>
    <path id="Trazado_25926" data-name="Trazado 25926" d="M-305.034,1050.281l-.925-3.037h-4.653l-.925,3.037h-2.916l4.5-12.816h3.308l4.525,12.816Zm-1.572-5.307q-1.282-4.133-1.445-4.671c-.107-.361-.184-.647-.231-.857q-.288,1.119-1.65,5.528Z" transform="translate(535.715 -1037.466)" fill="#272525"/>
    <path id="Trazado_25927" data-name="Trazado 25927" d="M-304.007,1039.346h2.916l1.843,5.49a7.826,7.826,0,0,1,.322,1.693h.052a7.432,7.432,0,0,1,.375-1.693l1.807-5.49h2.856l-4.13,11.008a4.774,4.774,0,0,1-1.619,2.287,4.086,4.086,0,0,1-2.457.76,6.166,6.166,0,0,1-1.354-.15v-2.113a4.522,4.522,0,0,0,1.048.114,1.889,1.889,0,0,0,1.234-.431,2.805,2.805,0,0,0,.826-1.307l.158-.48Z" transform="translate(542.246 -1036.29)" fill="#272525"/>
    <path id="Trazado_25928" data-name="Trazado 25928" d="M-293.9,1037.5h3.971a7.659,7.659,0,0,1,3.943.772,2.689,2.689,0,0,1,1.225,2.457,3.1,3.1,0,0,1-.536,1.876,2.144,2.144,0,0,1-1.427.882v.088a2.8,2.8,0,0,1,1.75,1.012,3.307,3.307,0,0,1,.536,1.973,3.253,3.253,0,0,1-1.263,2.724,5.461,5.461,0,0,1-3.426.977H-293.9Zm2.706,5.053h1.57a2.871,2.871,0,0,0,1.594-.34,1.273,1.273,0,0,0,.494-1.126,1.124,1.124,0,0,0-.54-1.052,3.432,3.432,0,0,0-1.7-.319H-291.2Zm0,2.147v3.327h1.763a2.623,2.623,0,0,0,1.65-.427,1.579,1.579,0,0,0,.531-1.31q0-1.59-2.269-1.59Z" transform="translate(548.564 -1037.445)" fill="#272525"/>
    <path id="Trazado_25929" data-name="Trazado 25929" d="M-282.364,1045.364a13.16,13.16,0,0,1-.676,4.276,10.19,10.19,0,0,1-1.952,3.449h-2.165a12.581,12.581,0,0,0,1.825-3.6,13.417,13.417,0,0,0,.645-4.143,13.9,13.9,0,0,0-.627-4.146,12.589,12.589,0,0,0-1.859-3.7h2.181a10.655,10.655,0,0,1,1.955,3.548A13.569,13.569,0,0,1-282.364,1045.364Z" transform="translate(552.773 -1037.445)" fill="#272525"/>
  </g>
</svg>
