<svg xmlns="http://www.w3.org/2000/svg" width="779.65" height="35.326" viewBox="0 0 779.65 35.326">
  <g id="Grupo_14719" data-name="Grupo 14719" transform="translate(-289.049 -953.672)">
    <path id="Trazado_25694" data-name="Trazado 25694" d="M-561.169,1104.538v1.152h345.536v-1.152H-561.169" transform="translate(909.603 -131.767)" fill-rule="evenodd"/>
    <g id="Grupo_14693" data-name="Grupo 14693" transform="translate(346.791 953.672)">
      <path id="Trazado_25695" data-name="Trazado 25695" d="M-556.331,1104.964l1.292-6.041a7.884,7.884,0,0,0,.174-1.258,1.239,1.239,0,0,0-.31-.882,1.306,1.306,0,0,0-.991-.332,2.589,2.589,0,0,0-1.513.525,4.654,4.654,0,0,0-1.3,1.494,7.9,7.9,0,0,0-.85,2.347l-.881,4.148h-1.468l2.043-9.568h1.213l-.19,1.771h.086a5.8,5.8,0,0,1,1.619-1.5,3.241,3.241,0,0,1,1.62-.442,2.448,2.448,0,0,1,1.75.608,2.217,2.217,0,0,1,.642,1.7,7.2,7.2,0,0,1-.2,1.572l-1.25,5.867Z" transform="translate(562.18 -1091.266)"/>
      <path id="Trazado_25696" data-name="Trazado 25696" d="M-552.591,1096.917l-1.308,6.066a6.5,6.5,0,0,0-.158,1.214,1.119,1.119,0,0,0,1.282,1.248,2.6,2.6,0,0,0,1.512-.523,4.669,4.669,0,0,0,1.308-1.5,8.006,8.006,0,0,0,.866-2.357l.873-4.146h1.447l-2.015,9.568H-550l.19-1.773h-.1a5.7,5.7,0,0,1-1.632,1.518,3.282,3.282,0,0,1-1.606.429,2.445,2.445,0,0,1-1.755-.606,2.281,2.281,0,0,1-.637-1.732,8.271,8.271,0,0,1,.192-1.5l1.274-5.9Zm1.615-1.5q.49-.525,1.1-1.322c.4-.535.715-.969.931-1.307h1.656v.184a16.789,16.789,0,0,1-1.222,1.318,13.255,13.255,0,0,1-1.544,1.362h-.917Z" transform="translate(566.331 -1092.787)"/>
      <path id="Trazado_25697" data-name="Trazado 25697" d="M-543.923,1104.964l1.292-6.041a7.149,7.149,0,0,0,.159-1.18,1.5,1.5,0,0,0-.271-.951,1.118,1.118,0,0,0-.925-.341,2.35,2.35,0,0,0-1.429.525,4.588,4.588,0,0,0-1.222,1.5,8.715,8.715,0,0,0-.816,2.344l-.881,4.148h-1.468l2.043-9.568h1.213l-.19,1.771h.086a5.466,5.466,0,0,1,1.515-1.492,2.974,2.974,0,0,1,1.559-.455,1.989,1.989,0,0,1,1.52.567,2.611,2.611,0,0,1,.629,1.582h.07a5.561,5.561,0,0,1,1.6-1.619,3.2,3.2,0,0,1,1.711-.53,2.342,2.342,0,0,1,1.715.595,2.3,2.3,0,0,1,.608,1.728,8.418,8.418,0,0,1-.192,1.554l-1.258,5.867h-1.484l1.292-6.041a8.049,8.049,0,0,0,.174-1.274,1.235,1.235,0,0,0-.3-.87,1.24,1.24,0,0,0-.949-.328,2.364,2.364,0,0,0-1.4.507,4.465,4.465,0,0,0-1.209,1.437,7.778,7.778,0,0,0-.788,2.2l-.935,4.365Z" transform="translate(570.12 -1091.266)"/>
      <path id="Trazado_25698" data-name="Trazado 25698" d="M-536.24,1105.138a3.334,3.334,0,0,1-2.523-.953,3.642,3.642,0,0,1-.918-2.636,7.852,7.852,0,0,1,.652-3.147,5.844,5.844,0,0,1,1.723-2.344,3.762,3.762,0,0,1,2.366-.839,3,3,0,0,1,2.009.582,2.024,2.024,0,0,1,.673,1.619,2.77,2.77,0,0,1-1.451,2.467,7.949,7.949,0,0,1-4.146.892h-.288l-.036.7a2.712,2.712,0,0,0,.536,1.786,2.054,2.054,0,0,0,1.664.64,4.325,4.325,0,0,0,1.13-.156,8.755,8.755,0,0,0,1.447-.577v1.274a7.907,7.907,0,0,1-1.45.538A5.855,5.855,0,0,1-536.24,1105.138Zm1.214-8.67a2.337,2.337,0,0,0-1.69.821,5.365,5.365,0,0,0-1.209,2.279h.106a7.139,7.139,0,0,0,3.051-.518,1.633,1.633,0,0,0,1.06-1.507,1.013,1.013,0,0,0-.317-.767A1.4,1.4,0,0,0-535.026,1096.468Z" transform="translate(576.249 -1091.266)"/>
      <path id="Trazado_25699" data-name="Trazado 25699" d="M-528.416,1095.22a3.888,3.888,0,0,1,1.047.124l-.314,1.308a3.8,3.8,0,0,0-.917-.114,2.418,2.418,0,0,0-1.487.523,4.617,4.617,0,0,0-1.216,1.455,7.353,7.353,0,0,0-.761,2.064l-.936,4.383h-1.466l2.043-9.568h1.213l-.19,1.771h.086a8.475,8.475,0,0,1,1.038-1.191,3.269,3.269,0,0,1,.86-.557A2.464,2.464,0,0,1-528.416,1095.22Z" transform="translate(579.51 -1091.266)"/>
      <path id="Trazado_25700" data-name="Trazado 25700" d="M-525.142,1095.253a3.5,3.5,0,0,1,2.62.982,3.7,3.7,0,0,1,.957,2.7,7.74,7.74,0,0,1-.627,3.1,5.353,5.353,0,0,1-1.7,2.251,3.979,3.979,0,0,1-2.427.8,3.478,3.478,0,0,1-2.628-.988,3.723,3.723,0,0,1-.951-2.7,7.706,7.706,0,0,1,.637-3.121,5.257,5.257,0,0,1,1.72-2.244A4.008,4.008,0,0,1-525.142,1095.253Zm2.061,3.481a2.381,2.381,0,0,0-.546-1.627,1.861,1.861,0,0,0-1.479-.624,2.556,2.556,0,0,0-1.708.645,4.176,4.176,0,0,0-1.17,1.8,7.465,7.465,0,0,0-.414,2.552,2.576,2.576,0,0,0,.554,1.768,2.02,2.02,0,0,0,1.594.622,2.415,2.415,0,0,0,1.633-.636,4.193,4.193,0,0,0,1.13-1.81A8.238,8.238,0,0,0-523.081,1098.734Z" transform="translate(582.365 -1091.245)"/>
      <path id="Trazado_25701" data-name="Trazado 25701" d="M-516.149,1096.715a2.546,2.546,0,0,1,2.453,1.659h.089a19.561,19.561,0,0,1,.392-2.392l.681-3.125h1.448l-2.88,13.584h-1.212l.19-1.825h-.07a6.525,6.525,0,0,1-1.65,1.546,3.1,3.1,0,0,1-1.588.454,2.29,2.29,0,0,1-1.9-.855,3.717,3.717,0,0,1-.679-2.375,9.035,9.035,0,0,1,.629-3.423,5.689,5.689,0,0,1,1.7-2.4A3.763,3.763,0,0,1-516.149,1096.715Zm-1.658,8.686a2.546,2.546,0,0,0,1.694-.816,5.732,5.732,0,0,0,1.381-2.085,6.853,6.853,0,0,0,.512-2.589,2.1,2.1,0,0,0-.47-1.476,1.79,1.79,0,0,0-1.372-.507,2.345,2.345,0,0,0-1.638.722,5.063,5.063,0,0,0-1.212,2.025,8.218,8.218,0,0,0-.457,2.745Q-519.368,1105.4-517.806,1105.4Z" transform="translate(588.011 -1092.743)"/>
      <path id="Trazado_25702" data-name="Trazado 25702" d="M-511.081,1105.138a3.336,3.336,0,0,1-2.524-.953,3.643,3.643,0,0,1-.918-2.636,7.852,7.852,0,0,1,.652-3.147,5.845,5.845,0,0,1,1.723-2.344,3.762,3.762,0,0,1,2.367-.839,3,3,0,0,1,2.009.582,2.024,2.024,0,0,1,.673,1.619,2.77,2.77,0,0,1-1.451,2.467,7.943,7.943,0,0,1-4.145.892h-.289l-.036.7a2.721,2.721,0,0,0,.536,1.786,2.054,2.054,0,0,0,1.664.64,4.326,4.326,0,0,0,1.13-.156,8.762,8.762,0,0,0,1.447-.577v1.274a7.909,7.909,0,0,1-1.45.538A5.851,5.851,0,0,1-511.081,1105.138Zm1.213-8.67a2.334,2.334,0,0,0-1.689.821,5.331,5.331,0,0,0-1.209,2.279h.1a7.138,7.138,0,0,0,3.051-.518,1.633,1.633,0,0,0,1.06-1.507,1.013,1.013,0,0,0-.317-.767A1.4,1.4,0,0,0-509.868,1096.468Z" transform="translate(591.98 -1091.266)"/>
      <path id="Trazado_25703" data-name="Trazado 25703" d="M-502.8,1105.138a3.337,3.337,0,0,1-2.523-.953,3.641,3.641,0,0,1-.915-2.636,7.823,7.823,0,0,1,.65-3.147,5.788,5.788,0,0,1,1.724-2.344,3.748,3.748,0,0,1,2.365-.839,3,3,0,0,1,2.007.582,2.018,2.018,0,0,1,.671,1.619,2.77,2.77,0,0,1-1.448,2.467,7.953,7.953,0,0,1-4.146.892h-.288l-.036.7a2.7,2.7,0,0,0,.538,1.786,2.044,2.044,0,0,0,1.663.64,4.345,4.345,0,0,0,1.13-.156,8.7,8.7,0,0,0,1.445-.577v1.274a7.863,7.863,0,0,1-1.45.538A5.836,5.836,0,0,1-502.8,1105.138Zm1.214-8.67a2.34,2.34,0,0,0-1.69.821,5.382,5.382,0,0,0-1.208,2.279h.1a7.137,7.137,0,0,0,3.052-.518,1.635,1.635,0,0,0,1.06-1.507,1.015,1.015,0,0,0-.32-.767A1.392,1.392,0,0,0-501.587,1096.468Z" transform="translate(597.16 -1091.266)"/>
      <path id="Trazado_25704" data-name="Trazado 25704" d="M-494.953,1102.248a2.559,2.559,0,0,1-.964,2.126,4.29,4.29,0,0,1-2.719.764,5.8,5.8,0,0,1-2.662-.6v-1.38a5.427,5.427,0,0,0,1.318.569,4.828,4.828,0,0,0,1.308.2,2.655,2.655,0,0,0,1.659-.437,1.36,1.36,0,0,0,.559-1.117,1.214,1.214,0,0,0-.306-.838,6.207,6.207,0,0,0-1.318-.933,5.332,5.332,0,0,1-1.607-1.249,2.305,2.305,0,0,1-.471-1.45,2.4,2.4,0,0,1,.883-1.941,3.493,3.493,0,0,1,2.321-.74,6.73,6.73,0,0,1,2.882.647l-.473,1.194-.488-.216a4.825,4.825,0,0,0-1.921-.377,1.945,1.945,0,0,0-1.273.38,1.206,1.206,0,0,0-.463.982,1.213,1.213,0,0,0,.31.839,5.452,5.452,0,0,0,1.278.9,7.586,7.586,0,0,1,1.341.9,2.629,2.629,0,0,1,.606.808A2.3,2.3,0,0,1-494.953,1102.248Z" transform="translate(600.249 -1091.266)"/>
      <path id="Trazado_25705" data-name="Trazado 25705" d="M-493.484,1104.721a4.7,4.7,0,0,0,1.258-.228v1.127a4.121,4.121,0,0,1-.735.209,3.868,3.868,0,0,1-.7.088,2.433,2.433,0,0,1-1.674-.518,1.979,1.979,0,0,1-.58-1.551,6.276,6.276,0,0,1,.159-1.31l1.107-5.255h-1.5l.124-.637,1.614-.681,1.092-1.991h.855l-.481,2.2h2.394l-.229,1.108h-2.383l-1.125,5.273a6.31,6.31,0,0,0-.159,1.152,1.038,1.038,0,0,0,.255.751A.939.939,0,0,0-493.484,1104.721Z" transform="translate(603.47 -1092.045)"/>
      <path id="Trazado_25706" data-name="Trazado 25706" d="M-489.507,1095.328l-1.31,6.066a6.482,6.482,0,0,0-.156,1.214,1.119,1.119,0,0,0,1.282,1.248,2.6,2.6,0,0,0,1.512-.523,4.668,4.668,0,0,0,1.307-1.5,8,8,0,0,0,.866-2.357l.873-4.146h1.448l-2.015,9.568h-1.214l.192-1.773h-.1a5.719,5.719,0,0,1-1.632,1.518,3.285,3.285,0,0,1-1.606.429,2.452,2.452,0,0,1-1.757-.606,2.281,2.281,0,0,1-.637-1.732,8.153,8.153,0,0,1,.193-1.5l1.273-5.9Z" transform="translate(605.777 -1091.198)"/>
      <path id="Trazado_25707" data-name="Trazado 25707" d="M-481.467,1096.715a2.548,2.548,0,0,1,2.454,1.659h.086a20.913,20.913,0,0,1,.392-2.392l.683-3.125h1.448l-2.88,13.584H-480.5l.193-1.825h-.07a6.581,6.581,0,0,1-1.651,1.546,3.1,3.1,0,0,1-1.588.454,2.292,2.292,0,0,1-1.9-.855,3.726,3.726,0,0,1-.681-2.375,9.035,9.035,0,0,1,.629-3.423,5.72,5.72,0,0,1,1.7-2.4A3.766,3.766,0,0,1-481.467,1096.715Zm-1.658,8.686a2.536,2.536,0,0,0,1.692-.816,5.715,5.715,0,0,0,1.385-2.085,6.879,6.879,0,0,0,.51-2.589,2.089,2.089,0,0,0-.471-1.476,1.784,1.784,0,0,0-1.37-.507,2.338,2.338,0,0,0-1.637.722,5.047,5.047,0,0,0-1.212,2.025,8.181,8.181,0,0,0-.46,2.745Q-484.688,1105.4-483.125,1105.4Z" transform="translate(609.696 -1092.743)"/>
      <path id="Trazado_25708" data-name="Trazado 25708" d="M-478.584,1106.264h-1.466l2.041-9.568h1.466Zm.987-12.013a1.148,1.148,0,0,1,.28-.8.923.923,0,0,1,.725-.312.688.688,0,0,1,.769.787,1.189,1.189,0,0,1-.294.813.882.882,0,0,1-.676.332.8.8,0,0,1-.575-.215A.788.788,0,0,1-477.6,1094.251Z" transform="translate(613.536 -1092.566)"/>
      <path id="Trazado_25709" data-name="Trazado 25709" d="M-472.325,1095.22a2.474,2.474,0,0,1,1.432.432,2.824,2.824,0,0,1,.978,1.245h.094l.585-1.5h1.108l-2.033,9.568h-1.16l.226-1.825h-.07a4.3,4.3,0,0,1-3.29,2,2.306,2.306,0,0,1-1.9-.865,3.7,3.7,0,0,1-.689-2.365,9.009,9.009,0,0,1,.619-3.369,5.846,5.846,0,0,1,1.711-2.438A3.73,3.73,0,0,1-472.325,1095.22Zm-1.659,8.7a2.46,2.46,0,0,0,1.685-.806,6,6,0,0,0,1.362-2.1,6.876,6.876,0,0,0,.523-2.6,2.03,2.03,0,0,0-.489-1.432,1.664,1.664,0,0,0-1.282-.533,2.414,2.414,0,0,0-1.69.751,5.119,5.119,0,0,0-1.227,2.035,8.266,8.266,0,0,0-.444,2.706,2.3,2.3,0,0,0,.41,1.489A1.419,1.419,0,0,0-473.984,1103.924Z" transform="translate(615.413 -1091.266)"/>
      <path id="Trazado_25710" data-name="Trazado 25710" d="M-465.194,1104.964l1.292-6.041a7.893,7.893,0,0,0,.174-1.258,1.246,1.246,0,0,0-.31-.882,1.308,1.308,0,0,0-.991-.332,2.584,2.584,0,0,0-1.513.525,4.654,4.654,0,0,0-1.3,1.494,7.867,7.867,0,0,0-.852,2.347l-.881,4.148h-1.466L-469,1095.4h1.212l-.19,1.771h.085a5.827,5.827,0,0,1,1.62-1.5,3.241,3.241,0,0,1,1.62-.442,2.448,2.448,0,0,1,1.75.608,2.222,2.222,0,0,1,.64,1.7,7.2,7.2,0,0,1-.2,1.572l-1.248,5.867Z" transform="translate(619.168 -1091.266)"/>
      <path id="Trazado_25711" data-name="Trazado 25711" d="M-461.866,1104.721a4.666,4.666,0,0,0,1.258-.228v1.127a4.021,4.021,0,0,1-.733.209,3.9,3.9,0,0,1-.7.088,2.432,2.432,0,0,1-1.672-.518,1.979,1.979,0,0,1-.58-1.551,6.262,6.262,0,0,1,.158-1.31l1.107-5.255h-1.5l.124-.637,1.614-.681,1.091-1.991h.857l-.481,2.2h2.392l-.228,1.108h-2.383l-1.126,5.273a6.273,6.273,0,0,0-.158,1.152,1.037,1.037,0,0,0,.253.751A.944.944,0,0,0-461.866,1104.721Z" transform="translate(623.242 -1092.045)"/>
      <path id="Trazado_25712" data-name="Trazado 25712" d="M-457.478,1105.138a3.338,3.338,0,0,1-2.524-.953,3.642,3.642,0,0,1-.917-2.636,7.879,7.879,0,0,1,.65-3.147,5.848,5.848,0,0,1,1.724-2.344,3.758,3.758,0,0,1,2.366-.839,3,3,0,0,1,2.007.582,2.019,2.019,0,0,1,.673,1.619,2.768,2.768,0,0,1-1.45,2.467,7.953,7.953,0,0,1-4.146.892h-.289l-.034.7a2.712,2.712,0,0,0,.536,1.786,2.05,2.05,0,0,0,1.663.64,4.338,4.338,0,0,0,1.131-.156,8.7,8.7,0,0,0,1.445-.577v1.274a7.939,7.939,0,0,1-1.448.538A5.854,5.854,0,0,1-457.478,1105.138Zm1.212-8.67a2.334,2.334,0,0,0-1.689.821,5.366,5.366,0,0,0-1.209,2.279h.106a7.125,7.125,0,0,0,3.049-.518,1.632,1.632,0,0,0,1.061-1.507,1.014,1.014,0,0,0-.319-.767A1.394,1.394,0,0,0-456.266,1096.468Z" transform="translate(625.498 -1091.266)"/>
      <path id="Trazado_25713" data-name="Trazado 25713" d="M-449.63,1102.248a2.568,2.568,0,0,1-.964,2.126,4.3,4.3,0,0,1-2.721.764,5.816,5.816,0,0,1-2.664-.6v-1.38a5.464,5.464,0,0,0,1.32.569,4.829,4.829,0,0,0,1.31.2,2.65,2.65,0,0,0,1.658-.437,1.351,1.351,0,0,0,.559-1.117,1.208,1.208,0,0,0-.307-.838,6.1,6.1,0,0,0-1.316-.933,5.321,5.321,0,0,1-1.606-1.249,2.3,2.3,0,0,1-.473-1.45,2.4,2.4,0,0,1,.881-1.941,3.5,3.5,0,0,1,2.324-.74,6.729,6.729,0,0,1,2.88.647l-.47,1.194-.489-.216a4.836,4.836,0,0,0-1.921-.377,1.951,1.951,0,0,0-1.276.38,1.214,1.214,0,0,0-.462.982,1.219,1.219,0,0,0,.309.839,5.47,5.47,0,0,0,1.279.9,7.525,7.525,0,0,1,1.341.9,2.6,2.6,0,0,1,.606.808A2.273,2.273,0,0,1-449.63,1102.248Z" transform="translate(628.588 -1091.266)"/>
      <path id="Trazado_25714" data-name="Trazado 25714" d="M-443.185,1095.22a2.432,2.432,0,0,1,1.445.442,2.716,2.716,0,0,1,.946,1.235h.114l.585-1.5H-439l-2.932,13.862h-1.45l.881-4.19q.08-.393.5-1.929h-.07a6.251,6.251,0,0,1-1.616,1.528,3.123,3.123,0,0,1-1.622.471,2.344,2.344,0,0,1-1.918-.85,3.679,3.679,0,0,1-.694-2.38,9.066,9.066,0,0,1,.634-3.423,5.7,5.7,0,0,1,1.711-2.418A3.783,3.783,0,0,1-443.185,1095.22Zm-1.676,8.7a2.476,2.476,0,0,0,1.656-.8,5.9,5.9,0,0,0,1.385-2.069,6.724,6.724,0,0,0,.528-2.618,2.09,2.09,0,0,0-.476-1.45,1.692,1.692,0,0,0-1.331-.533,2.361,2.361,0,0,0-1.65.738,5.123,5.123,0,0,0-1.222,2.035,8.173,8.173,0,0,0-.453,2.719Q-446.424,1103.924-444.861,1103.924Z" transform="translate(633.623 -1091.266)"/>
      <path id="Trazado_25715" data-name="Trazado 25715" d="M-438.545,1095.328l-1.31,6.066a6.477,6.477,0,0,0-.156,1.214,1.118,1.118,0,0,0,1.282,1.248,2.6,2.6,0,0,0,1.512-.523,4.668,4.668,0,0,0,1.307-1.5,8,8,0,0,0,.866-2.357l.873-4.146h1.448l-2.015,9.568h-1.214l.192-1.773h-.1a5.719,5.719,0,0,1-1.632,1.518,3.29,3.29,0,0,1-1.606.429,2.452,2.452,0,0,1-1.757-.606,2.281,2.281,0,0,1-.637-1.732,8.149,8.149,0,0,1,.193-1.5l1.273-5.9Z" transform="translate(637.643 -1091.198)"/>
      <path id="Trazado_25716" data-name="Trazado 25716" d="M-431.788,1105.138a3.341,3.341,0,0,1-2.524-.953,3.649,3.649,0,0,1-.917-2.636,7.852,7.852,0,0,1,.652-3.147,5.815,5.815,0,0,1,1.723-2.344,3.759,3.759,0,0,1,2.366-.839,3,3,0,0,1,2.007.582,2.019,2.019,0,0,1,.673,1.619,2.768,2.768,0,0,1-1.45,2.467,7.951,7.951,0,0,1-4.148.892h-.286l-.036.7a2.712,2.712,0,0,0,.536,1.786,2.052,2.052,0,0,0,1.664.64,4.336,4.336,0,0,0,1.13-.156,8.815,8.815,0,0,0,1.447-.577v1.274a7.917,7.917,0,0,1-1.451.538A5.841,5.841,0,0,1-431.788,1105.138Zm1.212-8.67a2.337,2.337,0,0,0-1.689.821,5.331,5.331,0,0,0-1.209,2.279h.1a7.147,7.147,0,0,0,3.052-.518,1.635,1.635,0,0,0,1.06-1.507,1.014,1.014,0,0,0-.319-.767A1.4,1.4,0,0,0-430.576,1096.468Z" transform="translate(641.562 -1091.266)"/>
      <path id="Trazado_25717" data-name="Trazado 25717" d="M-427.612,1110.772a3.09,3.09,0,0,1-1.091-.184v-1.23a3.1,3.1,0,0,0,.977.191,1.153,1.153,0,0,0,1.021-.541,4.6,4.6,0,0,0,.577-1.546l1.981-9.445h-1.685l.114-.585,1.8-.575.2-.873a5.16,5.16,0,0,1,1.113-2.467,2.843,2.843,0,0,1,2.11-.72,4.42,4.42,0,0,1,.853.1,3.886,3.886,0,0,1,.787.223l-.375,1.125a3.432,3.432,0,0,0-1.195-.252,1.538,1.538,0,0,0-1.167.424,3.35,3.35,0,0,0-.658,1.549l-.219.943h2.079l-.219,1.109h-2.069l-2.025,9.584a4.967,4.967,0,0,1-1.048,2.409A2.415,2.415,0,0,1-427.612,1110.772Z" transform="translate(645.644 -1092.78)"/>
      <path id="Trazado_25718" data-name="Trazado 25718" d="M-420.473,1095.328l-1.308,6.066a6.512,6.512,0,0,0-.158,1.214,1.119,1.119,0,0,0,1.284,1.248,2.592,2.592,0,0,0,1.51-.523,4.676,4.676,0,0,0,1.31-1.5,8.05,8.05,0,0,0,.863-2.357l.873-4.146h1.451l-2.019,9.568h-1.214l.193-1.773h-.1a5.7,5.7,0,0,1-1.633,1.518,3.276,3.276,0,0,1-1.606.429,2.441,2.441,0,0,1-1.754-.606,2.276,2.276,0,0,1-.639-1.732,8.122,8.122,0,0,1,.192-1.5l1.274-5.9Z" transform="translate(648.944 -1091.198)"/>
      <path id="Trazado_25719" data-name="Trazado 25719" d="M-413.714,1105.138a3.338,3.338,0,0,1-2.524-.953,3.642,3.642,0,0,1-.917-2.636,7.851,7.851,0,0,1,.65-3.147,5.848,5.848,0,0,1,1.724-2.344,3.755,3.755,0,0,1,2.366-.839,3,3,0,0,1,2.007.582,2.024,2.024,0,0,1,.673,1.619,2.77,2.77,0,0,1-1.451,2.467,7.943,7.943,0,0,1-4.145.892h-.289l-.036.7a2.713,2.713,0,0,0,.538,1.786,2.048,2.048,0,0,0,1.663.64,4.316,4.316,0,0,0,1.13-.156,8.7,8.7,0,0,0,1.447-.577v1.274a7.906,7.906,0,0,1-1.45.538A5.841,5.841,0,0,1-413.714,1105.138Zm1.212-8.67a2.334,2.334,0,0,0-1.689.821,5.366,5.366,0,0,0-1.209,2.279h.1a7.129,7.129,0,0,0,3.051-.518,1.631,1.631,0,0,0,1.06-1.507,1.013,1.013,0,0,0-.317-.767A1.4,1.4,0,0,0-412.5,1096.468Z" transform="translate(652.864 -1091.266)"/>
      <path id="Trazado_25720" data-name="Trazado 25720" d="M-405.891,1095.22a3.909,3.909,0,0,1,1.048.124l-.315,1.308a3.781,3.781,0,0,0-.915-.114,2.414,2.414,0,0,0-1.487.523,4.616,4.616,0,0,0-1.216,1.455,7.407,7.407,0,0,0-.762,2.064l-.935,4.383h-1.468l2.043-9.568h1.212l-.19,1.771h.086a8.56,8.56,0,0,1,1.04-1.191,3.259,3.259,0,0,1,.858-.557A2.471,2.471,0,0,1-405.891,1095.22Z" transform="translate(656.125 -1091.266)"/>
      <path id="Trazado_25721" data-name="Trazado 25721" d="M-402.615,1095.253a3.5,3.5,0,0,1,2.618.982,3.7,3.7,0,0,1,.959,2.7,7.741,7.741,0,0,1-.629,3.1,5.34,5.34,0,0,1-1.7,2.251,3.972,3.972,0,0,1-2.427.8,3.474,3.474,0,0,1-2.626-.988,3.716,3.716,0,0,1-.952-2.7,7.734,7.734,0,0,1,.637-3.121,5.269,5.269,0,0,1,1.72-2.244A4.013,4.013,0,0,1-402.615,1095.253Zm2.059,3.481a2.381,2.381,0,0,0-.546-1.627,1.858,1.858,0,0,0-1.479-.624,2.559,2.559,0,0,0-1.708.645,4.188,4.188,0,0,0-1.169,1.8,7.465,7.465,0,0,0-.414,2.552,2.569,2.569,0,0,0,.554,1.768,2.014,2.014,0,0,0,1.593.622,2.415,2.415,0,0,0,1.633-.636,4.18,4.18,0,0,0,1.13-1.81A8.24,8.24,0,0,0-400.556,1098.734Z" transform="translate(658.98 -1091.245)"/>
      <path id="Trazado_25722" data-name="Trazado 25722" d="M-395.564,1104.964l1.292-6.041a7.758,7.758,0,0,0,.176-1.258,1.24,1.24,0,0,0-.312-.882,1.3,1.3,0,0,0-.99-.332,2.593,2.593,0,0,0-1.515.525,4.669,4.669,0,0,0-1.3,1.494,7.866,7.866,0,0,0-.852,2.347l-.881,4.148h-1.466l2.043-9.568h1.212l-.19,1.771h.085a5.845,5.845,0,0,1,1.619-1.5,3.25,3.25,0,0,1,1.62-.442,2.449,2.449,0,0,1,1.752.608,2.222,2.222,0,0,1,.64,1.7,7.2,7.2,0,0,1-.2,1.572l-1.248,5.867Z" transform="translate(662.708 -1091.266)"/>
      <path id="Trazado_25723" data-name="Trazado 25723" d="M-387.274,1095.22a2.47,2.47,0,0,1,1.432.432,2.813,2.813,0,0,1,.978,1.245h.094l.585-1.5h1.11l-2.035,9.568h-1.162l.229-1.825h-.07a4.309,4.309,0,0,1-3.291,2,2.3,2.3,0,0,1-1.9-.865,3.694,3.694,0,0,1-.691-2.365,8.978,8.978,0,0,1,.621-3.369,5.844,5.844,0,0,1,1.71-2.438A3.736,3.736,0,0,1-387.274,1095.22Zm-1.658,8.7a2.459,2.459,0,0,0,1.684-.806,6.017,6.017,0,0,0,1.362-2.1,6.908,6.908,0,0,0,.523-2.6,2.03,2.03,0,0,0-.489-1.432,1.659,1.659,0,0,0-1.282-.533,2.4,2.4,0,0,0-1.689.751,5.1,5.1,0,0,0-1.227,2.035,8.183,8.183,0,0,0-.445,2.706,2.285,2.285,0,0,0,.411,1.489A1.419,1.419,0,0,0-388.932,1103.924Z" transform="translate(668.595 -1091.266)"/>
      <path id="Trazado_25724" data-name="Trazado 25724" d="M-384.537,1106.441H-386l2.9-13.584h1.468Z" transform="translate(672.343 -1092.743)"/>
      <path id="Trazado_25725" data-name="Trazado 25725" d="M-374.781,1104.964l1.292-6.041a7.279,7.279,0,0,0,.158-1.18,1.5,1.5,0,0,0-.27-.951,1.125,1.125,0,0,0-.928-.341,2.346,2.346,0,0,0-1.427.525,4.567,4.567,0,0,0-1.222,1.5,8.769,8.769,0,0,0-.816,2.344l-.881,4.148h-1.466l2.041-9.568h1.214l-.192,1.771h.088a5.442,5.442,0,0,1,1.513-1.492,2.979,2.979,0,0,1,1.559-.455,1.989,1.989,0,0,1,1.52.567,2.591,2.591,0,0,1,.627,1.582h.07a5.6,5.6,0,0,1,1.6-1.619,3.206,3.206,0,0,1,1.711-.53,2.345,2.345,0,0,1,1.715.595,2.306,2.306,0,0,1,.608,1.728,8.3,8.3,0,0,1-.193,1.554l-1.256,5.867H-369.2l1.292-6.041a8.056,8.056,0,0,0,.174-1.274,1.237,1.237,0,0,0-.3-.87,1.234,1.234,0,0,0-.948-.328,2.349,2.349,0,0,0-1.4.507,4.467,4.467,0,0,0-1.209,1.437,7.779,7.779,0,0,0-.788,2.2l-.936,4.365Z" transform="translate(675.884 -1091.266)"/>
      <path id="Trazado_25726" data-name="Trazado 25726" d="M-367.51,1095.328l-1.307,6.066a6.538,6.538,0,0,0-.159,1.214,1.12,1.12,0,0,0,1.284,1.248,2.592,2.592,0,0,0,1.51-.523,4.675,4.675,0,0,0,1.31-1.5,8,8,0,0,0,.865-2.357l.873-4.146h1.448l-2.017,9.568h-1.212l.192-1.773h-.1a5.68,5.68,0,0,1-1.633,1.518,3.276,3.276,0,0,1-1.606.429,2.441,2.441,0,0,1-1.754-.606,2.281,2.281,0,0,1-.637-1.732,8.233,8.233,0,0,1,.19-1.5l1.276-5.9Z" transform="translate(682.063 -1091.198)"/>
      <path id="Trazado_25727" data-name="Trazado 25727" d="M-358.327,1102.248a2.563,2.563,0,0,1-.964,2.126,4.3,4.3,0,0,1-2.721.764,5.8,5.8,0,0,1-2.662-.6v-1.38a5.437,5.437,0,0,0,1.32.569,4.816,4.816,0,0,0,1.307.2,2.663,2.663,0,0,0,1.661-.437,1.36,1.36,0,0,0,.559-1.117,1.208,1.208,0,0,0-.307-.838,6.161,6.161,0,0,0-1.318-.933,5.352,5.352,0,0,1-1.607-1.249,2.3,2.3,0,0,1-.47-1.45,2.4,2.4,0,0,1,.881-1.941,3.5,3.5,0,0,1,2.323-.74,6.723,6.723,0,0,1,2.88.647l-.471,1.194-.488-.216a4.831,4.831,0,0,0-1.921-.377,1.949,1.949,0,0,0-1.274.38,1.2,1.2,0,0,0-.462.982,1.212,1.212,0,0,0,.309.839,5.486,5.486,0,0,0,1.277.9,7.526,7.526,0,0,1,1.341.9,2.629,2.629,0,0,1,.606.808A2.274,2.274,0,0,1-358.327,1102.248Z" transform="translate(685.68 -1091.266)"/>
      <path id="Trazado_25728" data-name="Trazado 25728" d="M-356.041,1105.138a3.334,3.334,0,0,1-2.522-.953,3.642,3.642,0,0,1-.917-2.636,7.825,7.825,0,0,1,.652-3.147,5.786,5.786,0,0,1,1.723-2.344,3.754,3.754,0,0,1,2.365-.839,3,3,0,0,1,2.007.582,2.014,2.014,0,0,1,.673,1.619,2.77,2.77,0,0,1-1.448,2.467,7.957,7.957,0,0,1-4.146.892h-.288l-.036.7a2.7,2.7,0,0,0,.536,1.786,2.049,2.049,0,0,0,1.664.64,4.355,4.355,0,0,0,1.13-.156,8.808,8.808,0,0,0,1.445-.577v1.274a7.873,7.873,0,0,1-1.451.538A5.832,5.832,0,0,1-356.041,1105.138Zm1.212-8.67a2.34,2.34,0,0,0-1.689.821,5.329,5.329,0,0,0-1.206,2.279h.1a7.149,7.149,0,0,0,3.051-.518,1.635,1.635,0,0,0,1.06-1.507,1.015,1.015,0,0,0-.32-.767A1.4,1.4,0,0,0-354.828,1096.468Z" transform="translate(688.928 -1091.266)"/>
      <path id="Trazado_25729" data-name="Trazado 25729" d="M-349.3,1095.253a3.492,3.492,0,0,1,2.618.982,3.69,3.69,0,0,1,.962,2.7,7.74,7.74,0,0,1-.629,3.1,5.33,5.33,0,0,1-1.7,2.251,3.976,3.976,0,0,1-2.427.8,3.482,3.482,0,0,1-2.628-.988,3.723,3.723,0,0,1-.952-2.7,7.709,7.709,0,0,1,.639-3.121,5.27,5.27,0,0,1,1.72-2.244A4.009,4.009,0,0,1-349.3,1095.253Zm2.061,3.481a2.381,2.381,0,0,0-.546-1.627,1.859,1.859,0,0,0-1.481-.624,2.556,2.556,0,0,0-1.707.645,4.172,4.172,0,0,0-1.169,1.8,7.464,7.464,0,0,0-.416,2.552,2.561,2.561,0,0,0,.556,1.768,2.016,2.016,0,0,0,1.593.622,2.411,2.411,0,0,0,1.632-.636,4.167,4.167,0,0,0,1.131-1.81A8.24,8.24,0,0,0-347.236,1098.734Z" transform="translate(692.319 -1091.245)"/>
      <path id="Trazado_25730" data-name="Trazado 25730" d="M-546.95,1118.163l1.292-6.041a7.909,7.909,0,0,0,.174-1.256,1.234,1.234,0,0,0-.311-.883,1.3,1.3,0,0,0-.991-.332,2.583,2.583,0,0,0-1.513.523,4.673,4.673,0,0,0-1.3,1.494,7.927,7.927,0,0,0-.852,2.347l-.881,4.148H-552.8l2.043-9.568h1.212l-.19,1.772h.086a5.8,5.8,0,0,1,1.619-1.505,3.253,3.253,0,0,1,1.62-.44,2.448,2.448,0,0,1,1.75.606,2.217,2.217,0,0,1,.64,1.7,7.207,7.207,0,0,1-.2,1.57l-1.248,5.867Z" transform="translate(568.046 -1083.011)"/>
      <path id="Trazado_25731" data-name="Trazado 25731" d="M-543.21,1110.117l-1.308,6.067a6.472,6.472,0,0,0-.158,1.214,1.119,1.119,0,0,0,1.282,1.246,2.6,2.6,0,0,0,1.512-.523,4.664,4.664,0,0,0,1.308-1.5,7.987,7.987,0,0,0,.865-2.357l.874-4.146h1.447l-2.015,9.568h-1.213l.19-1.773h-.1a5.732,5.732,0,0,1-1.632,1.52,3.3,3.3,0,0,1-1.607.427,2.449,2.449,0,0,1-1.755-.606,2.287,2.287,0,0,1-.635-1.733,8.274,8.274,0,0,1,.192-1.5l1.274-5.9Zm1.615-1.5q.49-.524,1.1-1.321c.4-.533.715-.969.93-1.307h1.658v.184a16.435,16.435,0,0,1-1.222,1.318,13.434,13.434,0,0,1-1.544,1.362h-.917Z" transform="translate(572.197 -1084.533)"/>
      <path id="Trazado_25732" data-name="Trazado 25732" d="M-534.542,1118.163l1.292-6.041a7.146,7.146,0,0,0,.159-1.18,1.5,1.5,0,0,0-.271-.951,1.12,1.12,0,0,0-.925-.34,2.349,2.349,0,0,0-1.429.523,4.556,4.556,0,0,0-1.222,1.5,8.7,8.7,0,0,0-.816,2.342l-.881,4.148H-540.1l2.043-9.568h1.212l-.19,1.772h.086a5.509,5.509,0,0,1,1.513-1.492,2.983,2.983,0,0,1,1.559-.453,1.989,1.989,0,0,1,1.521.566,2.61,2.61,0,0,1,.629,1.581h.07a5.544,5.544,0,0,1,1.6-1.619,3.2,3.2,0,0,1,1.711-.528,2.344,2.344,0,0,1,1.715.593,2.3,2.3,0,0,1,.608,1.728,8.278,8.278,0,0,1-.193,1.554l-1.256,5.867h-1.484l1.292-6.041a8.066,8.066,0,0,0,.174-1.274,1.227,1.227,0,0,0-.3-.868,1.233,1.233,0,0,0-.949-.328,2.358,2.358,0,0,0-1.4.505,4.457,4.457,0,0,0-1.209,1.437,7.8,7.8,0,0,0-.788,2.2l-.934,4.365Z" transform="translate(575.985 -1083.011)"/>
      <path id="Trazado_25733" data-name="Trazado 25733" d="M-526.859,1118.337a3.334,3.334,0,0,1-2.522-.952,3.638,3.638,0,0,1-.918-2.636,7.839,7.839,0,0,1,.652-3.145,5.849,5.849,0,0,1,1.723-2.345,3.767,3.767,0,0,1,2.366-.837,3,3,0,0,1,2.007.58,2.021,2.021,0,0,1,.675,1.619,2.768,2.768,0,0,1-1.451,2.467,7.948,7.948,0,0,1-4.146.894h-.289l-.034.7a2.711,2.711,0,0,0,.536,1.786,2.047,2.047,0,0,0,1.663.64,4.333,4.333,0,0,0,1.131-.156,8.7,8.7,0,0,0,1.445-.577v1.275a7.773,7.773,0,0,1-1.448.538A5.855,5.855,0,0,1-526.859,1118.337Zm1.212-8.669a2.338,2.338,0,0,0-1.689.821,5.368,5.368,0,0,0-1.209,2.279h.106a7.134,7.134,0,0,0,3.051-.519,1.631,1.631,0,0,0,1.06-1.507,1.019,1.019,0,0,0-.317-.767A1.4,1.4,0,0,0-525.647,1109.668Z" transform="translate(582.115 -1083.011)"/>
      <path id="Trazado_25734" data-name="Trazado 25734" d="M-519.035,1108.421a3.889,3.889,0,0,1,1.047.122l-.314,1.31a3.8,3.8,0,0,0-.917-.115,2.427,2.427,0,0,0-1.487.523,4.616,4.616,0,0,0-1.216,1.455,7.4,7.4,0,0,0-.762,2.066l-.935,4.382h-1.466l2.043-9.568h1.213l-.19,1.772h.085a8.444,8.444,0,0,1,1.04-1.19,3.264,3.264,0,0,1,.858-.559A2.482,2.482,0,0,1-519.035,1108.421Z" transform="translate(585.376 -1083.011)"/>
      <path id="Trazado_25735" data-name="Trazado 25735" d="M-515.76,1108.453a3.494,3.494,0,0,1,2.618.982,3.7,3.7,0,0,1,.959,2.7,7.766,7.766,0,0,1-.627,3.1,5.369,5.369,0,0,1-1.7,2.253,3.976,3.976,0,0,1-2.426.795,3.472,3.472,0,0,1-2.628-.988,3.722,3.722,0,0,1-.952-2.7,7.7,7.7,0,0,1,.639-3.121,5.278,5.278,0,0,1,1.719-2.244A4.01,4.01,0,0,1-515.76,1108.453Zm2.061,3.481a2.383,2.383,0,0,0-.546-1.625,1.865,1.865,0,0,0-1.479-.626,2.565,2.565,0,0,0-1.708.645,4.175,4.175,0,0,0-1.17,1.8,7.464,7.464,0,0,0-.414,2.552,2.569,2.569,0,0,0,.554,1.768,2.02,2.02,0,0,0,1.593.624,2.41,2.41,0,0,0,1.633-.637,4.183,4.183,0,0,0,1.131-1.811A8.229,8.229,0,0,0-513.7,1111.934Z" transform="translate(588.231 -1082.991)"/>
      <path id="Trazado_25736" data-name="Trazado 25736" d="M-508.871,1117.92a4.686,4.686,0,0,0,1.258-.228v1.128a4.4,4.4,0,0,1-.733.21,3.861,3.861,0,0,1-.7.086,2.423,2.423,0,0,1-1.671-.518,1.971,1.971,0,0,1-.582-1.55,6.267,6.267,0,0,1,.158-1.31l1.11-5.255h-1.5l.12-.637,1.616-.681,1.092-1.989h.853l-.479,2.2h2.392l-.228,1.109h-2.383l-1.126,5.272a6.243,6.243,0,0,0-.156,1.152,1.03,1.03,0,0,0,.253.751A.934.934,0,0,0-508.871,1117.92Z" transform="translate(593.85 -1083.79)"/>
      <path id="Trazado_25737" data-name="Trazado 25737" d="M-503.166,1108.453a3.491,3.491,0,0,1,2.618.982,3.7,3.7,0,0,1,.961,2.7,7.741,7.741,0,0,1-.629,3.1,5.369,5.369,0,0,1-1.7,2.253,3.978,3.978,0,0,1-2.428.795,3.471,3.471,0,0,1-2.627-.988,3.722,3.722,0,0,1-.951-2.7,7.733,7.733,0,0,1,.637-3.121,5.288,5.288,0,0,1,1.718-2.244A4.022,4.022,0,0,1-503.166,1108.453Zm2.059,3.481a2.382,2.382,0,0,0-.544-1.625,1.862,1.862,0,0,0-1.481-.626,2.56,2.56,0,0,0-1.7.645,4.161,4.161,0,0,0-1.172,1.8,7.463,7.463,0,0,0-.413,2.552,2.577,2.577,0,0,0,.553,1.768,2.02,2.02,0,0,0,1.593.624,2.413,2.413,0,0,0,1.633-.637,4.183,4.183,0,0,0,1.131-1.811A8.232,8.232,0,0,0-501.107,1111.934Z" transform="translate(596.107 -1082.991)"/>
      <path id="Trazado_25738" data-name="Trazado 25738" d="M-499.133,1117.92a4.655,4.655,0,0,0,1.256-.228v1.128a4.27,4.27,0,0,1-.733.21,3.846,3.846,0,0,1-.7.086,2.426,2.426,0,0,1-1.671-.518,1.981,1.981,0,0,1-.579-1.55,6.349,6.349,0,0,1,.154-1.31l1.11-5.255h-1.5l.122-.637,1.615-.681,1.091-1.989h.856l-.479,2.2h2.389l-.224,1.109h-2.384l-1.126,5.272a6.1,6.1,0,0,0-.156,1.152,1.036,1.036,0,0,0,.252.751A.943.943,0,0,0-499.133,1117.92Z" transform="translate(599.939 -1083.79)"/>
      <path id="Trazado_25739" data-name="Trazado 25739" d="M-493.463,1108.421a2.479,2.479,0,0,1,1.432.431,2.822,2.822,0,0,1,.977,1.245h.1l.585-1.5h1.108l-2.035,9.568h-1.16l.226-1.825h-.07a4.3,4.3,0,0,1-3.291,2,2.3,2.3,0,0,1-1.9-.865,3.69,3.69,0,0,1-.691-2.365,8.975,8.975,0,0,1,.621-3.369,5.81,5.81,0,0,1,1.711-2.436A3.712,3.712,0,0,1-493.463,1108.421Zm-1.658,8.7a2.457,2.457,0,0,0,1.684-.806,6,6,0,0,0,1.362-2.1,6.871,6.871,0,0,0,.523-2.6,2.032,2.032,0,0,0-.488-1.432,1.66,1.66,0,0,0-1.284-.533,2.407,2.407,0,0,0-1.689.749,5.046,5.046,0,0,0-1.225,2.035,8.144,8.144,0,0,0-.447,2.706,2.282,2.282,0,0,0,.411,1.489A1.41,1.41,0,0,0-495.121,1117.123Z" transform="translate(602.195 -1083.011)"/>
      <path id="Trazado_25740" data-name="Trazado 25740" d="M-490.725,1119.641h-1.466l2.9-13.584h1.466Z" transform="translate(605.944 -1084.49)"/>
      <path id="Trazado_25741" data-name="Trazado 25741" d="M-481.6,1109.916a2.549,2.549,0,0,1,2.454,1.659h.085a20.515,20.515,0,0,1,.395-2.393l.681-3.125h1.448l-2.88,13.584h-1.214l.193-1.825h-.07a6.619,6.619,0,0,1-1.651,1.546,3.092,3.092,0,0,1-1.588.453,2.288,2.288,0,0,1-1.893-.855,3.716,3.716,0,0,1-.683-2.375,9.07,9.07,0,0,1,.627-3.423,5.73,5.73,0,0,1,1.7-2.4A3.77,3.77,0,0,1-481.6,1109.916Zm-1.659,8.686a2.535,2.535,0,0,0,1.694-.816,5.721,5.721,0,0,0,1.385-2.085,6.907,6.907,0,0,0,.51-2.589,2.088,2.088,0,0,0-.473-1.476,1.781,1.781,0,0,0-1.368-.505,2.332,2.332,0,0,0-1.637.72,5.033,5.033,0,0,0-1.212,2.025,8.151,8.151,0,0,0-.462,2.746Q-484.821,1118.6-483.257,1118.6Z" transform="translate(609.615 -1084.49)"/>
      <path id="Trazado_25742" data-name="Trazado 25742" d="M-476.535,1118.337a3.333,3.333,0,0,1-2.521-.952,3.637,3.637,0,0,1-.917-2.636,7.811,7.811,0,0,1,.652-3.145,5.789,5.789,0,0,1,1.723-2.345,3.762,3.762,0,0,1,2.365-.837,3.009,3.009,0,0,1,2.009.58,2.019,2.019,0,0,1,.671,1.619,2.768,2.768,0,0,1-1.448,2.467,7.958,7.958,0,0,1-4.148.894h-.286l-.036.7a2.693,2.693,0,0,0,.536,1.786,2.043,2.043,0,0,0,1.664.64,4.349,4.349,0,0,0,1.13-.156,8.756,8.756,0,0,0,1.445-.577v1.275a7.783,7.783,0,0,1-1.45.538A5.85,5.85,0,0,1-476.535,1118.337Zm1.216-8.669a2.338,2.338,0,0,0-1.69.821,5.368,5.368,0,0,0-1.209,2.279h.106a7.142,7.142,0,0,0,3.052-.519,1.636,1.636,0,0,0,1.06-1.507,1.016,1.016,0,0,0-.32-.767A1.392,1.392,0,0,0-475.319,1109.668Z" transform="translate(613.584 -1083.011)"/>
      <path id="Trazado_25743" data-name="Trazado 25743" d="M-470.444,1119.641h-1.466l2.9-13.584h1.466Z" transform="translate(618.626 -1084.49)"/>
      <path id="Trazado_25744" data-name="Trazado 25744" d="M-464.173,1108.421a2.479,2.479,0,0,1,1.432.431,2.809,2.809,0,0,1,.977,1.245h.1l.585-1.5h1.11l-2.035,9.568h-1.162l.229-1.825h-.07a4.31,4.31,0,0,1-3.293,2,2.3,2.3,0,0,1-1.9-.865,3.7,3.7,0,0,1-.691-2.365,8.975,8.975,0,0,1,.621-3.369,5.826,5.826,0,0,1,1.711-2.436A3.723,3.723,0,0,1-464.173,1108.421Zm-1.659,8.7a2.454,2.454,0,0,0,1.684-.806,6,6,0,0,0,1.362-2.1,6.872,6.872,0,0,0,.523-2.6,2.025,2.025,0,0,0-.488-1.432,1.654,1.654,0,0,0-1.282-.533,2.4,2.4,0,0,0-1.689.749,5.066,5.066,0,0,0-1.227,2.035,8.186,8.186,0,0,0-.447,2.706,2.283,2.283,0,0,0,.411,1.489A1.414,1.414,0,0,0-465.833,1117.123Z" transform="translate(620.509 -1083.011)"/>
      <path id="Trazado_25745" data-name="Trazado 25745" d="M-454.474,1118.163l1.292-6.041a7.227,7.227,0,0,0,.156-1.18,1.5,1.5,0,0,0-.27-.951,1.122,1.122,0,0,0-.926-.34,2.344,2.344,0,0,0-1.427.523,4.575,4.575,0,0,0-1.222,1.5,8.647,8.647,0,0,0-.816,2.342l-.881,4.148h-1.466l2.041-9.568h1.214l-.192,1.772h.086a5.469,5.469,0,0,1,1.515-1.492,2.975,2.975,0,0,1,1.559-.453,1.981,1.981,0,0,1,1.518.566,2.592,2.592,0,0,1,.629,1.581h.07a5.607,5.607,0,0,1,1.6-1.619,3.2,3.2,0,0,1,1.71-.528,2.348,2.348,0,0,1,1.716.593,2.309,2.309,0,0,1,.608,1.728,8.284,8.284,0,0,1-.193,1.554l-1.258,5.867H-448.9l1.292-6.041a8.115,8.115,0,0,0,.175-1.274,1.229,1.229,0,0,0-.3-.868,1.227,1.227,0,0,0-.948-.328,2.346,2.346,0,0,0-1.4.505,4.418,4.418,0,0,0-1.209,1.437,7.849,7.849,0,0,0-.79,2.2l-.935,4.365Z" transform="translate(626.052 -1083.011)"/>
      <path id="Trazado_25746" data-name="Trazado 25746" d="M-447.2,1108.528l-1.308,6.067a6.617,6.617,0,0,0-.158,1.214,1.118,1.118,0,0,0,1.284,1.246,2.583,2.583,0,0,0,1.508-.523,4.655,4.655,0,0,0,1.312-1.5,8.028,8.028,0,0,0,.863-2.357l.873-4.146h1.45l-2.017,9.568h-1.212l.192-1.773h-.106a5.688,5.688,0,0,1-1.632,1.52,3.3,3.3,0,0,1-1.607.427,2.445,2.445,0,0,1-1.754-.606,2.281,2.281,0,0,1-.635-1.733,8.248,8.248,0,0,1,.19-1.5l1.276-5.9Z" transform="translate(632.232 -1082.944)"/>
      <path id="Trazado_25747" data-name="Trazado 25747" d="M-440.445,1118.337a3.328,3.328,0,0,1-2.521-.952,3.631,3.631,0,0,1-.918-2.636,7.81,7.81,0,0,1,.652-3.145,5.818,5.818,0,0,1,1.723-2.345,3.763,3.763,0,0,1,2.365-.837,3,3,0,0,1,2.009.58,2.02,2.02,0,0,1,.673,1.619,2.77,2.77,0,0,1-1.45,2.467,7.952,7.952,0,0,1-4.146.894h-.289l-.034.7a2.7,2.7,0,0,0,.536,1.786,2.044,2.044,0,0,0,1.663.64,4.342,4.342,0,0,0,1.131-.156,8.633,8.633,0,0,0,1.443-.577v1.275a7.72,7.72,0,0,1-1.447.538A5.859,5.859,0,0,1-440.445,1118.337Zm1.214-8.669a2.341,2.341,0,0,0-1.69.821,5.383,5.383,0,0,0-1.208,2.279h.106a7.135,7.135,0,0,0,3.051-.519,1.634,1.634,0,0,0,1.06-1.507,1.014,1.014,0,0,0-.319-.767A1.394,1.394,0,0,0-439.231,1109.668Z" transform="translate(636.15 -1083.011)"/>
      <path id="Trazado_25748" data-name="Trazado 25748" d="M-432.6,1115.447a2.561,2.561,0,0,1-.964,2.127,4.3,4.3,0,0,1-2.719.762,5.8,5.8,0,0,1-2.662-.6v-1.378a5.506,5.506,0,0,0,1.317.567,4.854,4.854,0,0,0,1.312.2,2.65,2.65,0,0,0,1.656-.435,1.356,1.356,0,0,0,.559-1.119,1.214,1.214,0,0,0-.3-.839,6.193,6.193,0,0,0-1.318-.933,5.273,5.273,0,0,1-1.606-1.248,2.3,2.3,0,0,1-.473-1.45,2.4,2.4,0,0,1,.883-1.941,3.493,3.493,0,0,1,2.321-.738,6.754,6.754,0,0,1,2.882.645l-.471,1.194-.489-.216a4.823,4.823,0,0,0-1.921-.377,1.942,1.942,0,0,0-1.274.382,1.211,1.211,0,0,0-.463.98,1.219,1.219,0,0,0,.31.838,5.4,5.4,0,0,0,1.281.9,7.634,7.634,0,0,1,1.339.9,2.641,2.641,0,0,1,.606.808A2.3,2.3,0,0,1-432.6,1115.447Z" transform="translate(639.241 -1083.011)"/>
      <path id="Trazado_25749" data-name="Trazado 25749" d="M-431.128,1117.92a4.654,4.654,0,0,0,1.256-.228v1.128a4.268,4.268,0,0,1-.733.21,3.861,3.861,0,0,1-.7.086,2.431,2.431,0,0,1-1.672-.518,1.982,1.982,0,0,1-.58-1.55,6.377,6.377,0,0,1,.158-1.31l1.108-5.255h-1.5l.124-.637,1.614-.681,1.091-1.989h.858l-.481,2.2h2.391l-.226,1.109H-430.8l-1.128,5.272a6.25,6.25,0,0,0-.156,1.152,1.043,1.043,0,0,0,.252.751A.947.947,0,0,0-431.128,1117.92Z" transform="translate(642.461 -1083.79)"/>
      <path id="Trazado_25750" data-name="Trazado 25750" d="M-424.341,1108.421a3.943,3.943,0,0,1,1.048.122l-.315,1.31a3.823,3.823,0,0,0-.917-.115,2.435,2.435,0,0,0-1.489.523,4.567,4.567,0,0,0-1.212,1.455,7.4,7.4,0,0,0-.766,2.066l-.933,4.382h-1.468l2.043-9.568h1.214l-.193,1.772h.089a8.58,8.58,0,0,1,1.037-1.19,3.2,3.2,0,0,1,.861-.559A2.446,2.446,0,0,1-424.341,1108.421Z" transform="translate(644.587 -1083.011)"/>
      <path id="Trazado_25751" data-name="Trazado 25751" d="M-421.1,1108.421a2.479,2.479,0,0,1,1.432.431,2.8,2.8,0,0,1,.977,1.245h.1l.585-1.5h1.108l-2.035,9.568h-1.16l.228-1.825h-.07a4.307,4.307,0,0,1-3.293,2,2.292,2.292,0,0,1-1.9-.865,3.681,3.681,0,0,1-.691-2.365,8.976,8.976,0,0,1,.621-3.369,5.793,5.793,0,0,1,1.71-2.436A3.718,3.718,0,0,1-421.1,1108.421Zm-1.658,8.7a2.461,2.461,0,0,0,1.685-.806,6.019,6.019,0,0,0,1.362-2.1,6.9,6.9,0,0,0,.523-2.6,2.033,2.033,0,0,0-.489-1.432,1.657,1.657,0,0,0-1.284-.533,2.407,2.407,0,0,0-1.689.749,5.081,5.081,0,0,0-1.225,2.035,8.142,8.142,0,0,0-.445,2.706,2.283,2.283,0,0,0,.411,1.489A1.406,1.406,0,0,0-422.762,1117.123Z" transform="translate(647.442 -1083.011)"/>
      <path id="Trazado_25752" data-name="Trazado 25752" d="M-410.892,1115.447a2.558,2.558,0,0,1-.965,2.127,4.293,4.293,0,0,1-2.719.762,5.794,5.794,0,0,1-2.661-.6v-1.378a5.477,5.477,0,0,0,1.317.567,4.844,4.844,0,0,0,1.31.2,2.655,2.655,0,0,0,1.658-.435,1.36,1.36,0,0,0,.559-1.119,1.214,1.214,0,0,0-.3-.839,6.258,6.258,0,0,0-1.32-.933,5.273,5.273,0,0,1-1.606-1.248,2.3,2.3,0,0,1-.471-1.45,2.4,2.4,0,0,1,.883-1.941,3.491,3.491,0,0,1,2.319-.738,6.756,6.756,0,0,1,2.883.645l-.473,1.194-.489-.216a4.817,4.817,0,0,0-1.921-.377,1.94,1.94,0,0,0-1.273.382,1.206,1.206,0,0,0-.463.98,1.22,1.22,0,0,0,.31.838,5.421,5.421,0,0,0,1.279.9,7.659,7.659,0,0,1,1.341.9,2.667,2.667,0,0,1,.606.808A2.3,2.3,0,0,1-410.892,1115.447Z" transform="translate(652.813 -1083.011)"/>
      <path id="Trazado_25753" data-name="Trazado 25753" d="M-408.6,1118.337a3.332,3.332,0,0,1-2.522-.952,3.63,3.63,0,0,1-.917-2.636,7.837,7.837,0,0,1,.65-3.145,5.822,5.822,0,0,1,1.724-2.345,3.762,3.762,0,0,1,2.365-.837,3,3,0,0,1,2.009.58,2.018,2.018,0,0,1,.671,1.619,2.768,2.768,0,0,1-1.448,2.467,7.955,7.955,0,0,1-4.146.894h-.289l-.034.7a2.7,2.7,0,0,0,.536,1.786,2.042,2.042,0,0,0,1.663.64,4.352,4.352,0,0,0,1.131-.156,8.635,8.635,0,0,0,1.443-.577v1.275a7.8,7.8,0,0,1-1.446.538A5.86,5.86,0,0,1-408.6,1118.337Zm1.214-8.669a2.338,2.338,0,0,0-1.69.821,5.384,5.384,0,0,0-1.208,2.279h.106a7.121,7.121,0,0,0,3.049-.519,1.633,1.633,0,0,0,1.061-1.507,1.02,1.02,0,0,0-.319-.767A1.394,1.394,0,0,0-407.391,1109.668Z" transform="translate(656.06 -1083.011)"/>
      <path id="Trazado_25754" data-name="Trazado 25754" d="M-405.373,1119.641h-1.466l2.9-13.584h1.468Z" transform="translate(659.314 -1084.49)"/>
      <path id="Trazado_25755" data-name="Trazado 25755" d="M-400.387,1118.337a3.343,3.343,0,0,1-2.524-.952,3.643,3.643,0,0,1-.915-2.636,7.863,7.863,0,0,1,.65-3.145,5.821,5.821,0,0,1,1.724-2.345,3.76,3.76,0,0,1,2.366-.837,3,3,0,0,1,2.006.58,2.02,2.02,0,0,1,.673,1.619,2.768,2.768,0,0,1-1.448,2.467,7.958,7.958,0,0,1-4.148.894h-.288l-.034.7a2.7,2.7,0,0,0,.536,1.786,2.04,2.04,0,0,0,1.663.64,4.321,4.321,0,0,0,1.13-.156,8.707,8.707,0,0,0,1.447-.577v1.275a7.835,7.835,0,0,1-1.451.538A5.832,5.832,0,0,1-400.387,1118.337Zm1.212-8.669a2.338,2.338,0,0,0-1.689.821,5.367,5.367,0,0,0-1.209,2.279h.1a7.133,7.133,0,0,0,3.052-.519,1.633,1.633,0,0,0,1.061-1.507,1.016,1.016,0,0,0-.32-.767A1.4,1.4,0,0,0-399.174,1109.668Z" transform="translate(661.198 -1083.011)"/>
      <path id="Trazado_25756" data-name="Trazado 25756" d="M-394.84,1118.337a3.55,3.55,0,0,1-2.628-.934,3.566,3.566,0,0,1-.933-2.636,7.928,7.928,0,0,1,.645-3.22,5.453,5.453,0,0,1,1.786-2.3,4.257,4.257,0,0,1,2.561-.824,6.41,6.41,0,0,1,2.339.443l-.41,1.232a4.924,4.924,0,0,0-1.911-.445,2.737,2.737,0,0,0-1.786.668,4.384,4.384,0,0,0-1.265,1.859,7.112,7.112,0,0,0-.46,2.587,2.446,2.446,0,0,0,.582,1.738,2.087,2.087,0,0,0,1.6.619,3.951,3.951,0,0,0,1.188-.174,11.338,11.338,0,0,0,1.1-.41v1.247A5.221,5.221,0,0,1-394.84,1118.337Z" transform="translate(664.591 -1083.011)"/>
      <path id="Trazado_25757" data-name="Trazado 25757" d="M-389.888,1118.337a3.546,3.546,0,0,1-2.627-.934,3.561,3.561,0,0,1-.935-2.636,7.928,7.928,0,0,1,.645-3.22,5.467,5.467,0,0,1,1.786-2.3,4.264,4.264,0,0,1,2.561-.824,6.41,6.41,0,0,1,2.339.443l-.411,1.232a4.916,4.916,0,0,0-1.91-.445,2.737,2.737,0,0,0-1.786.668,4.384,4.384,0,0,0-1.265,1.859,7.111,7.111,0,0,0-.458,2.587,2.445,2.445,0,0,0,.58,1.738,2.085,2.085,0,0,0,1.6.619,3.944,3.944,0,0,0,1.188-.174,11.531,11.531,0,0,0,1.1-.41v1.247A5.243,5.243,0,0,1-389.888,1118.337Z" transform="translate(667.687 -1083.011)"/>
      <path id="Trazado_25758" data-name="Trazado 25758" d="M-387.24,1119.463h-1.466l2.041-9.568h1.466Zm.986-12.012a1.141,1.141,0,0,1,.28-.8.922.922,0,0,1,.725-.31.686.686,0,0,1,.767.785,1.188,1.188,0,0,1-.293.813.881.881,0,0,1-.676.332.807.807,0,0,1-.577-.215A.794.794,0,0,1-386.253,1107.45Z" transform="translate(670.653 -1084.311)"/>
      <path id="Trazado_25759" data-name="Trazado 25759" d="M-380.945,1108.453a3.5,3.5,0,0,1,2.618.982,3.7,3.7,0,0,1,.959,2.7,7.74,7.74,0,0,1-.629,3.1,5.356,5.356,0,0,1-1.7,2.253,3.97,3.97,0,0,1-2.427.795,3.466,3.466,0,0,1-2.626-.988,3.715,3.715,0,0,1-.952-2.7,7.733,7.733,0,0,1,.637-3.121,5.291,5.291,0,0,1,1.72-2.244A4.015,4.015,0,0,1-380.945,1108.453Zm2.059,3.481a2.375,2.375,0,0,0-.546-1.625,1.86,1.86,0,0,0-1.479-.626,2.568,2.568,0,0,0-1.708.645,4.171,4.171,0,0,0-1.169,1.8,7.462,7.462,0,0,0-.414,2.552,2.577,2.577,0,0,0,.553,1.768,2.021,2.021,0,0,0,1.594.624,2.416,2.416,0,0,0,1.633-.637,4.182,4.182,0,0,0,1.13-1.811A8.23,8.23,0,0,0-378.886,1111.934Z" transform="translate(672.53 -1082.991)"/>
      <path id="Trazado_25760" data-name="Trazado 25760" d="M-373.894,1118.163l1.292-6.041a7.769,7.769,0,0,0,.176-1.256,1.235,1.235,0,0,0-.312-.883,1.3,1.3,0,0,0-.99-.332,2.591,2.591,0,0,0-1.515.523,4.688,4.688,0,0,0-1.3,1.494,7.885,7.885,0,0,0-.852,2.347l-.881,4.148h-1.466l2.043-9.568h1.212l-.192,1.772h.086a5.84,5.84,0,0,1,1.619-1.505,3.262,3.262,0,0,1,1.62-.44,2.452,2.452,0,0,1,1.752.606,2.223,2.223,0,0,1,.64,1.7,7.2,7.2,0,0,1-.2,1.57l-1.25,5.867Z" transform="translate(676.258 -1083.011)"/>
      <path id="Trazado_25761" data-name="Trazado 25761" d="M-368.46,1108.421a2.47,2.47,0,0,1,1.43.431,2.814,2.814,0,0,1,.979,1.245h.1l.585-1.5h1.11l-2.035,9.568h-1.162l.228-1.825h-.07a4.3,4.3,0,0,1-3.291,2,2.3,2.3,0,0,1-1.9-.865,3.7,3.7,0,0,1-.691-2.365,8.975,8.975,0,0,1,.621-3.369,5.825,5.825,0,0,1,1.711-2.436A3.719,3.719,0,0,1-368.46,1108.421Zm-1.659,8.7a2.457,2.457,0,0,0,1.684-.806,6,6,0,0,0,1.362-2.1,6.872,6.872,0,0,0,.523-2.6,2.024,2.024,0,0,0-.488-1.432,1.656,1.656,0,0,0-1.282-.533,2.407,2.407,0,0,0-1.69.749,5.082,5.082,0,0,0-1.225,2.035,8.186,8.186,0,0,0-.447,2.706,2.282,2.282,0,0,0,.411,1.489A1.414,1.414,0,0,0-370.12,1117.123Z" transform="translate(680.358 -1083.011)"/>
      <path id="Trazado_25762" data-name="Trazado 25762" d="M-362.247,1109.916a2.544,2.544,0,0,1,2.453,1.659h.088a19.851,19.851,0,0,1,.393-2.393l.679-3.125h1.451l-2.883,13.584h-1.212l.192-1.825h-.07a6.613,6.613,0,0,1-1.648,1.546,3.112,3.112,0,0,1-1.591.453,2.288,2.288,0,0,1-1.894-.855,3.726,3.726,0,0,1-.681-2.375,9.036,9.036,0,0,1,.629-3.423,5.7,5.7,0,0,1,1.7-2.4A3.763,3.763,0,0,1-362.247,1109.916Zm-1.659,8.686a2.542,2.542,0,0,0,1.7-.816,5.738,5.738,0,0,0,1.383-2.085,6.9,6.9,0,0,0,.51-2.589,2.1,2.1,0,0,0-.471-1.476,1.786,1.786,0,0,0-1.372-.505,2.34,2.34,0,0,0-1.637.72,5.087,5.087,0,0,0-1.212,2.025,8.23,8.23,0,0,0-.458,2.746Q-365.468,1118.6-363.906,1118.6Z" transform="translate(684.244 -1084.49)"/>
      <path id="Trazado_25763" data-name="Trazado 25763" d="M-355.9,1108.421a2.479,2.479,0,0,1,1.432.431,2.813,2.813,0,0,1,.978,1.245h.1l.584-1.5h1.108l-2.035,9.568h-1.159l.226-1.825h-.07a4.3,4.3,0,0,1-3.291,2,2.293,2.293,0,0,1-1.9-.865,3.681,3.681,0,0,1-.691-2.365,8.977,8.977,0,0,1,.621-3.369,5.808,5.808,0,0,1,1.71-2.436A3.718,3.718,0,0,1-355.9,1108.421Zm-1.656,8.7a2.461,2.461,0,0,0,1.685-.806,6.019,6.019,0,0,0,1.362-2.1,6.9,6.9,0,0,0,.523-2.6,2.04,2.04,0,0,0-.489-1.432,1.663,1.663,0,0,0-1.286-.533,2.41,2.41,0,0,0-1.689.749,5.081,5.081,0,0,0-1.225,2.035,8.143,8.143,0,0,0-.445,2.706,2.282,2.282,0,0,0,.411,1.489A1.409,1.409,0,0,0-357.556,1117.123Z" transform="translate(688.214 -1083.011)"/>
    </g>
    <path id="Trazado_25764" data-name="Trazado 25764" d="M-296.52,1104.538v1.152h46.071v-1.152H-296.52" transform="translate(1075.087 -131.767)" fill-rule="evenodd"/>
    <g id="Grupo_14694" data-name="Grupo 14694" transform="translate(788.313 954.405)">
      <path id="Trazado_25765" data-name="Trazado 25765" d="M-286.474,1106.125h-1.5l1.711-7.972q.514-2.277.769-3.132a6.781,6.781,0,0,1-1.214.967l-1.554.96-.7-1.108,3.92-2.479h1.3Z" transform="translate(291.501 -1093.161)"/>
      <path id="Trazado_25766" data-name="Trazado 25766" d="M-276.619,1106.2h-7.847l.27-1.284,4.06-3.667q.89-.812,1.541-1.427a10.387,10.387,0,0,0,1.074-1.16,4.324,4.324,0,0,0,.627-1.083,3.326,3.326,0,0,0,.2-1.192,1.819,1.819,0,0,0-.523-1.372,1.967,1.967,0,0,0-1.422-.507,3.618,3.618,0,0,0-1.315.25,6.016,6.016,0,0,0-1.419.842l-.715-1a5.639,5.639,0,0,1,3.607-1.344,3.6,3.6,0,0,1,2.431.772,2.669,2.669,0,0,1,.894,2.126,4.527,4.527,0,0,1-.345,1.781,6.62,6.62,0,0,1-1.143,1.719,29.735,29.735,0,0,1-2.573,2.453l-3.072,2.682v.068h5.918Z" transform="translate(294.312 -1093.231)"/>
      <path id="Trazado_25767" data-name="Trazado 25767" d="M-269.346,1097.35a15.305,15.305,0,0,1-.684,4.705,7.392,7.392,0,0,1-1.869,3.226,3.917,3.917,0,0,1-2.745,1.1,2.748,2.748,0,0,1-2.357-1.114,5.388,5.388,0,0,1-.821-3.226,14.05,14.05,0,0,1,.715-4.491,7.606,7.606,0,0,1,1.89-3.221,3.847,3.847,0,0,1,2.685-1.087Q-269.345,1093.238-269.346,1097.35Zm-3.273-2.854a2.381,2.381,0,0,0-1.824,1.01,7.7,7.7,0,0,0-1.357,2.818,13.3,13.3,0,0,0-.522,3.7,4.906,4.906,0,0,0,.437,2.3,1.483,1.483,0,0,0,1.406.8,2.354,2.354,0,0,0,1.824-.995,7.478,7.478,0,0,0,1.315-2.864,15.438,15.438,0,0,0,.494-3.953Q-270.846,1094.5-272.619,1094.5Z" transform="translate(298.467 -1093.238)"/>
      <path id="Trazado_25768" data-name="Trazado 25768" d="M-282.677,1119.4h-7.847l.27-1.284,4.06-3.667c.593-.541,1.105-1.016,1.541-1.427a10.51,10.51,0,0,0,1.073-1.16,4.256,4.256,0,0,0,.629-1.083,3.325,3.325,0,0,0,.2-1.191,1.818,1.818,0,0,0-.525-1.372,1.96,1.96,0,0,0-1.422-.507,3.606,3.606,0,0,0-1.313.25,5.956,5.956,0,0,0-1.419.842l-.717-1a5.641,5.641,0,0,1,3.607-1.344,3.6,3.6,0,0,1,2.431.774,2.664,2.664,0,0,1,.894,2.124,4.493,4.493,0,0,1-.345,1.781,6.653,6.653,0,0,1-1.143,1.721,29.437,29.437,0,0,1-2.571,2.451l-3.073,2.682v.07h5.919Z" transform="translate(290.524 -1084.977)"/>
      <path id="Trazado_25769" data-name="Trazado 25769" d="M-275.4,1110.552a15.3,15.3,0,0,1-.686,4.7,7.4,7.4,0,0,1-1.867,3.226,3.915,3.915,0,0,1-2.747,1.1,2.752,2.752,0,0,1-2.357-1.112,5.391,5.391,0,0,1-.821-3.228,14.092,14.092,0,0,1,.715-4.489,7.6,7.6,0,0,1,1.892-3.223,3.843,3.843,0,0,1,2.683-1.087Q-275.4,1106.438-275.4,1110.552Zm-3.275-2.856a2.38,2.38,0,0,0-1.824,1.009,7.7,7.7,0,0,0-1.357,2.818,13.286,13.286,0,0,0-.52,3.7,4.937,4.937,0,0,0,.436,2.3,1.485,1.485,0,0,0,1.408.8,2.351,2.351,0,0,0,1.824-1,7.481,7.481,0,0,0,1.313-2.862,15.452,15.452,0,0,0,.494-3.954Q-276.905,1107.7-278.678,1107.7Z" transform="translate(294.678 -1084.984)"/>
      <path id="Trazado_25770" data-name="Trazado 25770" d="M-269.346,1110.552a15.3,15.3,0,0,1-.684,4.7,7.4,7.4,0,0,1-1.869,3.226,3.911,3.911,0,0,1-2.745,1.1,2.75,2.75,0,0,1-2.357-1.112,5.391,5.391,0,0,1-.821-3.228,14.047,14.047,0,0,1,.715-4.489,7.612,7.612,0,0,1,1.89-3.223,3.847,3.847,0,0,1,2.685-1.087Q-269.345,1106.438-269.346,1110.552Zm-3.273-2.856a2.381,2.381,0,0,0-1.824,1.009,7.7,7.7,0,0,0-1.357,2.818,13.293,13.293,0,0,0-.522,3.7,4.915,4.915,0,0,0,.437,2.3,1.484,1.484,0,0,0,1.406.8,2.351,2.351,0,0,0,1.824-1,7.48,7.48,0,0,0,1.315-2.862,15.449,15.449,0,0,0,.494-3.954Q-270.846,1107.7-272.619,1107.7Z" transform="translate(298.467 -1084.984)"/>
    </g>
    <g id="Grupo_14695" data-name="Grupo 14695" transform="translate(289.049 965.091)">
      <path id="Trazado_25771" data-name="Trazado 25771" d="M-588.089,1104.191a4.26,4.26,0,0,1-1.4,3.439,6.013,6.013,0,0,1-4,1.19h-1.268v4.952h-2.952v-13.924h4.447a5.917,5.917,0,0,1,3.852,1.091A3.979,3.979,0,0,1-588.089,1104.191Zm-6.667,2.21h.972a3.239,3.239,0,0,0,2.038-.538,1.886,1.886,0,0,0,.676-1.567,1.932,1.932,0,0,0-.567-1.534,2.653,2.653,0,0,0-1.776-.494h-1.342Z" transform="translate(597.707 -1099.791)"/>
      <path id="Trazado_25772" data-name="Trazado 25772" d="M-590.77,1108.43a14.8,14.8,0,0,1,.738-4.725,11.771,11.771,0,0,1,2.129-3.857h2.381a13.69,13.69,0,0,0-2.028,4.039,15.119,15.119,0,0,0-.686,4.523,14.633,14.633,0,0,0,.7,4.509,13.642,13.642,0,0,0,1.994,3.938H-587.9a11.2,11.2,0,0,1-2.132-3.781A14.366,14.366,0,0,1-590.77,1108.43Z" transform="translate(602.045 -1099.791)"/>
      <path id="Trazado_25773" data-name="Trazado 25773" d="M-576.907,1113.794l-1.011-3.314h-5.076l-1.009,3.314h-3.181l4.915-13.981h3.608l4.934,13.981Zm-1.715-5.791q-1.4-4.5-1.576-5.094c-.117-.395-.2-.705-.252-.934q-.314,1.219-1.8,6.028Z" transform="translate(604.287 -1099.813)"/>
      <path id="Trazado_25774" data-name="Trazado 25774" d="M-573.3,1108.43a14.339,14.339,0,0,1-.74,4.666,11.137,11.137,0,0,1-2.127,3.761h-2.362a13.731,13.731,0,0,0,1.989-3.928,14.567,14.567,0,0,0,.705-4.518,15.123,15.123,0,0,0-.686-4.523,13.69,13.69,0,0,0-2.028-4.039h2.381a11.676,11.676,0,0,1,2.132,3.871A14.824,14.824,0,0,1-573.3,1108.43Z" transform="translate(609.688 -1099.791)"/>
      <path id="Trazado_25775" data-name="Trazado 25775" d="M-571.205,1104.5v-2.085h9.456v2.085Zm0,3.686V1106.1h9.456v2.087Z" transform="translate(614.279 -1098.186)"/>
    </g>
    <g id="Grupo_14696" data-name="Grupo 14696" transform="translate(708.335 965.091)">
      <path id="Trazado_25776" data-name="Trazado 25776" d="M-336.1,1110.321l.143.219a29.567,29.567,0,0,1-1.676,4.562h-2.1q.619-2.533.962-4.782Zm-3.114-6.961a1.6,1.6,0,0,1,.429-1.209,1.732,1.732,0,0,1,1.247-.41,1.689,1.689,0,0,1,1.224.419,1.591,1.591,0,0,1,.434,1.2,1.572,1.572,0,0,1-.444,1.194,1.679,1.679,0,0,1-1.214.424,1.721,1.721,0,0,1-1.238-.419A1.586,1.586,0,0,1-339.217,1103.36Z" transform="translate(339.732 -1098.608)"/>
      <path id="Trazado_25777" data-name="Trazado 25777" d="M-322.806,1104.191a4.26,4.26,0,0,1-1.4,3.439,6.01,6.01,0,0,1-4,1.19h-1.266v4.952h-2.953v-13.924h4.447a5.919,5.919,0,0,1,3.854,1.091A3.978,3.978,0,0,1-322.806,1104.191Zm-6.665,2.21h.97a3.239,3.239,0,0,0,2.038-.538,1.886,1.886,0,0,0,.676-1.567,1.932,1.932,0,0,0-.567-1.534,2.651,2.651,0,0,0-1.775-.494h-1.343Z" transform="translate(344.301 -1099.791)"/>
      <path id="Trazado_25778" data-name="Trazado 25778" d="M-325.487,1108.43a14.76,14.76,0,0,1,.738-4.725,11.741,11.741,0,0,1,2.127-3.857h2.381a13.688,13.688,0,0,0-2.028,4.039,15.12,15.12,0,0,0-.686,4.523,14.633,14.633,0,0,0,.7,4.509,13.639,13.639,0,0,0,1.994,3.938h-2.362a11.227,11.227,0,0,1-2.132-3.781A14.369,14.369,0,0,1-325.487,1108.43Z" transform="translate(348.639 -1099.791)"/>
      <path id="Trazado_25779" data-name="Trazado 25779" d="M-311.626,1113.794l-1.009-3.314h-5.076l-1.009,3.314H-321.9l4.913-13.981h3.61l4.933,13.981Zm-1.715-5.791q-1.4-4.5-1.577-5.094c-.117-.395-.2-.705-.252-.934q-.315,1.219-1.8,6.028Z" transform="translate(350.882 -1099.813)"/>
      <path id="Trazado_25780" data-name="Trazado 25780" d="M-308.017,1108.43a14.386,14.386,0,0,1-.738,4.666,11.171,11.171,0,0,1-2.129,3.761h-2.362a13.738,13.738,0,0,0,1.991-3.928,14.569,14.569,0,0,0,.7-4.518,15.07,15.07,0,0,0-.686-4.523,13.691,13.691,0,0,0-2.028-4.039h2.381a11.711,11.711,0,0,1,2.134,3.871A14.871,14.871,0,0,1-308.017,1108.43Z" transform="translate(356.282 -1099.791)"/>
      <path id="Trazado_25781" data-name="Trazado 25781" d="M-305.923,1104.5v-2.085h9.456v2.085Zm0,3.686V1106.1h9.456v2.087Z" transform="translate(360.873 -1098.186)"/>
    </g>
    <path id="Trazado_25782" data-name="Trazado 25782" d="M-218.59,1104.538v1.152h46.071v-1.152H-218.59" transform="translate(1123.816 -131.767)" fill-rule="evenodd"/>
    <g id="Grupo_14697" data-name="Grupo 14697" transform="translate(925.122 954.423)">
      <path id="Trazado_25783" data-name="Trazado 25783" d="M-197.39,1096.077a3.271,3.271,0,0,1-.883,2.309,4.243,4.243,0,0,1-2.444,1.227v.078a2.834,2.834,0,0,1,1.7.93,2.706,2.706,0,0,1,.621,1.82,3.854,3.854,0,0,1-.541,2.048,3.636,3.636,0,0,1-1.581,1.381,5.639,5.639,0,0,1-2.469.5,8.08,8.08,0,0,1-3.363-.691v-1.432a8.033,8.033,0,0,0,1.739.662,6.891,6.891,0,0,0,1.658.229,3.2,3.2,0,0,0,2.2-.694,2.4,2.4,0,0,0,.785-1.9,2.155,2.155,0,0,0-.691-1.734,2.865,2.865,0,0,0-1.919-.588h-1.144l.27-1.25h1.216a3.709,3.709,0,0,0,2.391-.759,2.411,2.411,0,0,0,.952-1.981,1.656,1.656,0,0,0-.507-1.274,1.926,1.926,0,0,0-1.37-.471,4.109,4.109,0,0,0-1.37.236,6.95,6.95,0,0,0-1.528.811l-.7-1.03a6.107,6.107,0,0,1,3.7-1.256,3.516,3.516,0,0,1,2.418.761A2.622,2.622,0,0,1-197.39,1096.077Z" transform="translate(206.349 -1093.249)"/>
      <path id="Trazado_25784" data-name="Trazado 25784" d="M-201.649,1111.529a3.472,3.472,0,0,1,2.527.912,3.274,3.274,0,0,1,.938,2.467,4.726,4.726,0,0,1-.637,2.47,3.941,3.941,0,0,1-1.78,1.593,6.36,6.36,0,0,1-2.69.528,5.657,5.657,0,0,1-2.88-.691v-1.43a5.471,5.471,0,0,0,2.916.889,3.755,3.755,0,0,0,2.6-.837,2.987,2.987,0,0,0,.933-2.341,2.348,2.348,0,0,0-.642-1.74,2.408,2.408,0,0,0-1.783-.641,6.241,6.241,0,0,0-.848.057,9.865,9.865,0,0,0-1.212.265l-.647-.5,1.72-5.971h5.832l-.289,1.336h-4.554l-1.11,3.832A6.225,6.225,0,0,1-201.649,1111.529Z" transform="translate(206.46 -1084.924)"/>
    </g>
    <g id="Grupo_14698" data-name="Grupo 14698" transform="translate(834.645 965.091)">
      <path id="Trazado_25785" data-name="Trazado 25785" d="M-258.388,1110.321l.143.219a29.418,29.418,0,0,1-1.677,4.562h-2.1q.619-2.533.962-4.782Zm-3.114-6.961a1.6,1.6,0,0,1,.427-1.209,1.739,1.739,0,0,1,1.248-.41,1.689,1.689,0,0,1,1.224.419,1.591,1.591,0,0,1,.434,1.2,1.572,1.572,0,0,1-.444,1.194,1.685,1.685,0,0,1-1.214.424,1.721,1.721,0,0,1-1.238-.419A1.586,1.586,0,0,1-261.5,1103.36Z" transform="translate(262.017 -1098.608)"/>
      <path id="Trazado_25786" data-name="Trazado 25786" d="M-245.091,1104.191a4.26,4.26,0,0,1-1.4,3.439,6.013,6.013,0,0,1-3.995,1.19h-1.268v4.952h-2.952v-13.924h4.447a5.917,5.917,0,0,1,3.852,1.091A3.979,3.979,0,0,1-245.091,1104.191Zm-6.667,2.21h.972a3.239,3.239,0,0,0,2.038-.538,1.886,1.886,0,0,0,.676-1.567,1.932,1.932,0,0,0-.567-1.534,2.651,2.651,0,0,0-1.775-.494h-1.344Z" transform="translate(266.586 -1099.791)"/>
      <path id="Trazado_25787" data-name="Trazado 25787" d="M-247.773,1108.43a14.76,14.76,0,0,1,.74-4.725,11.741,11.741,0,0,1,2.127-3.857h2.381a13.691,13.691,0,0,0-2.028,4.039,15.122,15.122,0,0,0-.686,4.523,14.633,14.633,0,0,0,.7,4.509,13.64,13.64,0,0,0,1.994,3.938h-2.362a11.2,11.2,0,0,1-2.132-3.781A14.368,14.368,0,0,1-247.773,1108.43Z" transform="translate(270.924 -1099.791)"/>
      <path id="Trazado_25788" data-name="Trazado 25788" d="M-233.91,1113.794l-1.009-3.314H-240l-1.011,3.314h-3.181l4.915-13.981h3.61l4.933,13.981Zm-1.715-5.791q-1.4-4.5-1.577-5.094c-.117-.395-.2-.705-.252-.934q-.314,1.219-1.8,6.028Z" transform="translate(273.166 -1099.813)"/>
      <path id="Trazado_25789" data-name="Trazado 25789" d="M-230.3,1108.43a14.386,14.386,0,0,1-.738,4.666,11.17,11.17,0,0,1-2.129,3.761h-2.362a13.736,13.736,0,0,0,1.989-3.928,14.524,14.524,0,0,0,.705-4.518,15.122,15.122,0,0,0-.686-4.523,13.69,13.69,0,0,0-2.028-4.039h2.381a11.678,11.678,0,0,1,2.132,3.871A14.825,14.825,0,0,1-230.3,1108.43Z" transform="translate(278.567 -1099.791)"/>
      <path id="Trazado_25790" data-name="Trazado 25790" d="M-228.208,1104.5v-2.085h9.456v2.085Zm0,3.686V1106.1h9.456v2.087Z" transform="translate(283.158 -1098.186)"/>
    </g>
    <g id="Grupo_14699" data-name="Grupo 14699" transform="translate(960.953 964.93)">
      <path id="Trazado_25791" data-name="Trazado 25791" d="M-180.674,1110.321l.141.219a29.4,29.4,0,0,1-1.676,4.562H-184.3q.619-2.533.962-4.782Zm-3.114-6.961a1.594,1.594,0,0,1,.427-1.209,1.739,1.739,0,0,1,1.248-.41,1.689,1.689,0,0,1,1.224.419,1.59,1.59,0,0,1,.432,1.2,1.571,1.571,0,0,1-.442,1.194,1.685,1.685,0,0,1-1.214.424,1.721,1.721,0,0,1-1.238-.419A1.58,1.58,0,0,1-183.788,1103.36Z" transform="translate(184.303 -1098.447)"/>
      <path id="Trazado_25792" data-name="Trazado 25792" d="M-167.377,1104.191a4.26,4.26,0,0,1-1.4,3.439,6.013,6.013,0,0,1-3.995,1.19h-1.268v4.952H-177v-13.924h4.447a5.917,5.917,0,0,1,3.852,1.091A3.979,3.979,0,0,1-167.377,1104.191Zm-6.667,2.21h.972a3.245,3.245,0,0,0,2.038-.538,1.886,1.886,0,0,0,.676-1.567,1.932,1.932,0,0,0-.567-1.534,2.656,2.656,0,0,0-1.776-.494h-1.342Z" transform="translate(188.872 -1099.63)"/>
      <path id="Trazado_25793" data-name="Trazado 25793" d="M-170.059,1108.43a14.806,14.806,0,0,1,.738-4.725,11.773,11.773,0,0,1,2.129-3.857h2.381a13.691,13.691,0,0,0-2.028,4.039,15.122,15.122,0,0,0-.686,4.523,14.584,14.584,0,0,0,.7,4.509,13.639,13.639,0,0,0,1.994,3.938h-2.362a11.228,11.228,0,0,1-2.134-3.781A14.411,14.411,0,0,1-170.059,1108.43Z" transform="translate(193.21 -1099.63)"/>
      <path id="Trazado_25794" data-name="Trazado 25794" d="M-156.2,1113.794l-1.011-3.314h-5.076l-1.009,3.314h-3.181l4.915-13.981h3.608l4.934,13.981Zm-1.715-5.791q-1.4-4.5-1.577-5.094c-.117-.395-.2-.705-.252-.934q-.314,1.219-1.8,6.028Z" transform="translate(195.452 -1099.652)"/>
      <path id="Trazado_25795" data-name="Trazado 25795" d="M-152.59,1108.43a14.343,14.343,0,0,1-.738,4.666,11.139,11.139,0,0,1-2.128,3.761h-2.362a13.735,13.735,0,0,0,1.989-3.928,14.571,14.571,0,0,0,.705-4.518,15.123,15.123,0,0,0-.686-4.523,13.691,13.691,0,0,0-2.028-4.039h2.381a11.678,11.678,0,0,1,2.132,3.871A14.825,14.825,0,0,1-152.59,1108.43Z" transform="translate(200.853 -1099.63)"/>
      <path id="Trazado_25796" data-name="Trazado 25796" d="M-150.494,1104.5v-2.085h9.456v2.085Zm0,3.686V1106.1h9.456v2.087Z" transform="translate(205.444 -1098.025)"/>
      <path id="Trazado_25797" data-name="Trazado 25797" d="M-124.643,1106.895a9.708,9.708,0,0,1-1.195,5.4,4.146,4.146,0,0,1-3.681,1.752,4.1,4.1,0,0,1-3.633-1.809,9.566,9.566,0,0,1-1.224-5.342,9.8,9.8,0,0,1,1.19-5.433,4.131,4.131,0,0,1,3.667-1.747,4.108,4.108,0,0,1,3.642,1.828A9.583,9.583,0,0,1-124.643,1106.895Zm-6.808,0a10.859,10.859,0,0,0,.442,3.67,1.536,1.536,0,0,0,1.49,1.11,1.547,1.547,0,0,0,1.486-1.123,10.507,10.507,0,0,0,.458-3.657,10.478,10.478,0,0,0-.463-3.681,1.551,1.551,0,0,0-1.481-1.12,1.538,1.538,0,0,0-1.486,1.12A10.847,10.847,0,0,0-131.451,1106.895Z" transform="translate(215.523 -1099.714)"/>
      <path id="Trazado_25798" data-name="Trazado 25798" d="M-123.819,1107.24a29.4,29.4,0,0,1-1.676,4.562h-2.095q.619-2.533.962-4.782h2.665Z" transform="translate(219.766 -1095.146)"/>
      <path id="Trazado_25799" data-name="Trazado 25799" d="M-124.057,1107.919q0-4.132,1.747-6.152a6.55,6.55,0,0,1,5.233-2.019,9.448,9.448,0,0,1,1.867.143v2.352a7.663,7.663,0,0,0-1.677-.19,5.76,5.76,0,0,0-2.47.457,3.074,3.074,0,0,0-1.434,1.352,6.214,6.214,0,0,0-.562,2.543h.125a3.228,3.228,0,0,1,3.018-1.62,3.742,3.742,0,0,1,2.924,1.172,4.665,4.665,0,0,1,1.056,3.238,4.865,4.865,0,0,1-1.256,3.528,4.627,4.627,0,0,1-3.486,1.3,4.985,4.985,0,0,1-2.69-.713,4.638,4.638,0,0,1-1.772-2.087A7.933,7.933,0,0,1-124.057,1107.919Zm5.029,3.753a1.743,1.743,0,0,0,1.448-.634,2.834,2.834,0,0,0,.5-1.8,2.49,2.49,0,0,0-.471-1.606,1.718,1.718,0,0,0-1.424-.585,2.176,2.176,0,0,0-1.528.582,1.781,1.781,0,0,0-.634,1.352,3.065,3.065,0,0,0,.595,1.913A1.822,1.822,0,0,0-119.028,1111.672Z" transform="translate(221.975 -1099.692)"/>
    </g>
  </g>
</svg>
