<svg xmlns="http://www.w3.org/2000/svg" width="746.348" height="35.324" viewBox="0 0 746.348 35.324">
  <g id="Grupo_14721" data-name="Grupo 14721" transform="translate(-284.582 -1132.603)">
    <g id="Grupo_14716" data-name="Grupo 14716" transform="translate(284.582 1132.603)">
      <path id="Trazado_25941" data-name="Trazado 25941" d="M-542.25,1214.629v1.152h345.536v-1.152H-542.25" transform="translate(636.851 -1195.53)" fill-rule="evenodd"/>
      <g id="Grupo_14710" data-name="Grupo 14710" transform="translate(96.908)">
        <path id="Trazado_25942" data-name="Trazado 25942" d="M-534.982,1215.052l1.292-6.04a7.716,7.716,0,0,0,.176-1.258,1.241,1.241,0,0,0-.31-.881,1.3,1.3,0,0,0-.99-.331,2.594,2.594,0,0,0-1.515.523,4.681,4.681,0,0,0-1.3,1.492,7.853,7.853,0,0,0-.852,2.35l-.883,4.144h-1.466l2.043-9.566h1.214l-.192,1.773h.086a5.8,5.8,0,0,1,1.619-1.507,3.256,3.256,0,0,1,1.619-.442,2.451,2.451,0,0,1,1.752.606,2.227,2.227,0,0,1,.64,1.7,7.177,7.177,0,0,1-.2,1.572l-1.248,5.866Z" transform="translate(540.83 -1201.357)"/>
        <path id="Trazado_25943" data-name="Trazado 25943" d="M-531.241,1207.006l-1.31,6.067a6.605,6.605,0,0,0-.156,1.213,1.12,1.12,0,0,0,1.284,1.25,2.6,2.6,0,0,0,1.508-.524,4.653,4.653,0,0,0,1.31-1.5,8.085,8.085,0,0,0,.865-2.357l.873-4.148h1.45l-2.017,9.567h-1.212l.192-1.77h-.106a5.733,5.733,0,0,1-1.633,1.518,3.289,3.289,0,0,1-1.606.427,2.437,2.437,0,0,1-1.754-.606,2.278,2.278,0,0,1-.637-1.734,8.294,8.294,0,0,1,.192-1.5l1.274-5.9Zm1.615-1.5q.488-.524,1.1-1.323t.93-1.3h1.659v.182a16.737,16.737,0,0,1-1.222,1.32,13.364,13.364,0,0,1-1.546,1.36h-.917Z" transform="translate(544.981 -1202.878)"/>
        <path id="Trazado_25944" data-name="Trazado 25944" d="M-522.571,1215.052l1.292-6.04a7.265,7.265,0,0,0,.158-1.178,1.5,1.5,0,0,0-.272-.953,1.116,1.116,0,0,0-.926-.339,2.354,2.354,0,0,0-1.427.523,4.585,4.585,0,0,0-1.222,1.5,8.727,8.727,0,0,0-.816,2.345l-.883,4.144h-1.466l2.043-9.566h1.214l-.192,1.773h.088a5.454,5.454,0,0,1,1.513-1.494,2.991,2.991,0,0,1,1.559-.455,1.986,1.986,0,0,1,1.52.569,2.6,2.6,0,0,1,.627,1.58h.07a5.6,5.6,0,0,1,1.6-1.619,3.2,3.2,0,0,1,1.711-.53,2.345,2.345,0,0,1,1.715.595,2.311,2.311,0,0,1,.606,1.728,8.245,8.245,0,0,1-.192,1.554l-1.256,5.866h-1.484l1.292-6.04a7.827,7.827,0,0,0,.174-1.276,1.237,1.237,0,0,0-.3-.868,1.233,1.233,0,0,0-.948-.327,2.337,2.337,0,0,0-1.4.507,4.409,4.409,0,0,0-1.209,1.433,7.863,7.863,0,0,0-.79,2.206l-.935,4.364Z" transform="translate(548.769 -1201.357)"/>
        <path id="Trazado_25945" data-name="Trazado 25945" d="M-514.891,1215.228a3.342,3.342,0,0,1-2.524-.951,3.646,3.646,0,0,1-.915-2.636,7.851,7.851,0,0,1,.65-3.148,5.818,5.818,0,0,1,1.724-2.344,3.756,3.756,0,0,1,2.365-.839,2.988,2.988,0,0,1,2.007.582,2.018,2.018,0,0,1,.673,1.619,2.771,2.771,0,0,1-1.448,2.466,7.932,7.932,0,0,1-4.148.9h-.288l-.034.7a2.7,2.7,0,0,0,.536,1.785,2.046,2.046,0,0,0,1.663.642,4.265,4.265,0,0,0,1.13-.158,8.5,8.5,0,0,0,1.445-.575v1.274a7.878,7.878,0,0,1-1.448.536A5.845,5.845,0,0,1-514.891,1215.228Zm1.212-8.668a2.331,2.331,0,0,0-1.689.821,5.351,5.351,0,0,0-1.209,2.277h.1a7.135,7.135,0,0,0,3.052-.518,1.632,1.632,0,0,0,1.061-1.507,1.024,1.024,0,0,0-.32-.769A1.4,1.4,0,0,0-513.678,1206.56Z" transform="translate(554.899 -1201.357)"/>
        <path id="Trazado_25946" data-name="Trazado 25946" d="M-507.066,1205.31a4,4,0,0,1,1.048.124l-.314,1.308a3.9,3.9,0,0,0-.918-.112,2.42,2.42,0,0,0-1.487.524,4.585,4.585,0,0,0-1.214,1.453,7.405,7.405,0,0,0-.764,2.064l-.935,4.382h-1.466l2.043-9.566h1.214l-.193,1.773h.088a8.611,8.611,0,0,1,1.039-1.193,3.376,3.376,0,0,1,.86-.559A2.466,2.466,0,0,1-507.066,1205.31Z" transform="translate(558.16 -1201.357)"/>
        <path id="Trazado_25947" data-name="Trazado 25947" d="M-503.791,1205.343a3.493,3.493,0,0,1,2.618.982,3.7,3.7,0,0,1,.96,2.7,7.735,7.735,0,0,1-.629,3.1,5.359,5.359,0,0,1-1.7,2.253,3.979,3.979,0,0,1-2.427.793,3.48,3.48,0,0,1-2.626-.985,3.72,3.72,0,0,1-.952-2.7,7.709,7.709,0,0,1,.639-3.121,5.288,5.288,0,0,1,1.718-2.244A4.018,4.018,0,0,1-503.791,1205.343Zm2.059,3.483a2.382,2.382,0,0,0-.546-1.628,1.862,1.862,0,0,0-1.479-.624,2.549,2.549,0,0,0-1.707.647,4.163,4.163,0,0,0-1.17,1.792,7.478,7.478,0,0,0-.414,2.555,2.577,2.577,0,0,0,.554,1.767,2.017,2.017,0,0,0,1.593.624,2.414,2.414,0,0,0,1.633-.638,4.166,4.166,0,0,0,1.13-1.812A8.211,8.211,0,0,0-501.732,1208.826Z" transform="translate(561.015 -1201.337)"/>
        <path id="Trazado_25948" data-name="Trazado 25948" d="M-494.8,1206.806a2.547,2.547,0,0,1,2.453,1.66h.088a20.669,20.669,0,0,1,.392-2.393l.681-3.125h1.45l-2.882,13.583h-1.212l.193-1.824h-.07a6.582,6.582,0,0,1-1.651,1.546,3.086,3.086,0,0,1-1.59.453,2.286,2.286,0,0,1-1.893-.855,3.723,3.723,0,0,1-.681-2.375,9.049,9.049,0,0,1,.629-3.423,5.69,5.69,0,0,1,1.7-2.4A3.759,3.759,0,0,1-494.8,1206.806Zm-1.659,8.687a2.538,2.538,0,0,0,1.694-.818,5.7,5.7,0,0,0,1.385-2.085,6.874,6.874,0,0,0,.51-2.589,2.078,2.078,0,0,0-.471-1.474,1.779,1.779,0,0,0-1.372-.507,2.333,2.333,0,0,0-1.635.72,5.047,5.047,0,0,0-1.214,2.025,8.226,8.226,0,0,0-.458,2.745Q-498.019,1215.494-496.457,1215.493Z" transform="translate(566.661 -1202.835)"/>
        <path id="Trazado_25949" data-name="Trazado 25949" d="M-489.733,1215.228a3.336,3.336,0,0,1-2.522-.951,3.647,3.647,0,0,1-.917-2.636,7.853,7.853,0,0,1,.65-3.148,5.834,5.834,0,0,1,1.724-2.344,3.756,3.756,0,0,1,2.365-.839,2.988,2.988,0,0,1,2.007.582,2.018,2.018,0,0,1,.673,1.619,2.768,2.768,0,0,1-1.448,2.466,7.928,7.928,0,0,1-4.148.9h-.288l-.034.7a2.7,2.7,0,0,0,.536,1.785,2.049,2.049,0,0,0,1.663.642,4.284,4.284,0,0,0,1.131-.158,8.537,8.537,0,0,0,1.443-.575v1.274a7.834,7.834,0,0,1-1.448.536A5.844,5.844,0,0,1-489.733,1215.228Zm1.212-8.668a2.334,2.334,0,0,0-1.689.821,5.351,5.351,0,0,0-1.209,2.277h.106a7.145,7.145,0,0,0,3.052-.518,1.633,1.633,0,0,0,1.06-1.507,1.029,1.029,0,0,0-.319-.769A1.409,1.409,0,0,0-488.52,1206.56Z" transform="translate(570.63 -1201.357)"/>
        <path id="Trazado_25950" data-name="Trazado 25950" d="M-481.451,1215.228a3.338,3.338,0,0,1-2.522-.951,3.647,3.647,0,0,1-.917-2.636,7.827,7.827,0,0,1,.652-3.148,5.815,5.815,0,0,1,1.723-2.344,3.759,3.759,0,0,1,2.365-.839,3,3,0,0,1,2.009.582,2.023,2.023,0,0,1,.673,1.619,2.769,2.769,0,0,1-1.45,2.466,7.928,7.928,0,0,1-4.148.9h-.286l-.036.7a2.7,2.7,0,0,0,.536,1.785,2.052,2.052,0,0,0,1.664.642,4.273,4.273,0,0,0,1.13-.158,8.6,8.6,0,0,0,1.445-.575v1.274a7.843,7.843,0,0,1-1.45.536A5.845,5.845,0,0,1-481.451,1215.228Zm1.214-8.668a2.328,2.328,0,0,0-1.689.821,5.335,5.335,0,0,0-1.211,2.277h.106a7.145,7.145,0,0,0,3.052-.518,1.632,1.632,0,0,0,1.06-1.507,1.023,1.023,0,0,0-.319-.769A1.407,1.407,0,0,0-480.237,1206.56Z" transform="translate(575.809 -1201.357)"/>
        <path id="Trazado_25951" data-name="Trazado 25951" d="M-473.6,1212.34a2.555,2.555,0,0,1-.964,2.124,4.281,4.281,0,0,1-2.721.764,5.8,5.8,0,0,1-2.661-.6v-1.38a5.347,5.347,0,0,0,1.316.567,4.779,4.779,0,0,0,1.31.2,2.655,2.655,0,0,0,1.658-.437,1.353,1.353,0,0,0,.559-1.116,1.213,1.213,0,0,0-.3-.839,6.184,6.184,0,0,0-1.32-.935,5.316,5.316,0,0,1-1.606-1.248,2.3,2.3,0,0,1-.471-1.448,2.407,2.407,0,0,1,.883-1.944,3.5,3.5,0,0,1,2.321-.738,6.748,6.748,0,0,1,2.882.647l-.471,1.2-.489-.219a4.885,4.885,0,0,0-1.921-.374,1.95,1.95,0,0,0-1.274.379,1.215,1.215,0,0,0-.463.983,1.213,1.213,0,0,0,.312.837,5.421,5.421,0,0,0,1.277.9,7.5,7.5,0,0,1,1.341.9,2.609,2.609,0,0,1,.606.806A2.3,2.3,0,0,1-473.6,1212.34Z" transform="translate(578.899 -1201.357)"/>
        <path id="Trazado_25952" data-name="Trazado 25952" d="M-472.134,1214.812a4.745,4.745,0,0,0,1.256-.228v1.125a3.823,3.823,0,0,1-.733.21,3.74,3.74,0,0,1-.7.088,2.436,2.436,0,0,1-1.672-.519,1.981,1.981,0,0,1-.579-1.55,6.364,6.364,0,0,1,.156-1.308l1.108-5.256h-1.5l.122-.637,1.616-.681,1.091-1.991h.857l-.479,2.2h2.391l-.226,1.108h-2.384l-1.125,5.274a6.127,6.127,0,0,0-.158,1.151,1.041,1.041,0,0,0,.252.751A.94.94,0,0,0-472.134,1214.812Z" transform="translate(582.12 -1202.136)"/>
        <path id="Trazado_25953" data-name="Trazado 25953" d="M-468.156,1205.418l-1.31,6.067a6.6,6.6,0,0,0-.156,1.213,1.118,1.118,0,0,0,1.282,1.25,2.6,2.6,0,0,0,1.51-.524,4.69,4.69,0,0,0,1.31-1.5,8.085,8.085,0,0,0,.863-2.357l.873-4.148h1.45l-2.015,9.566h-1.214l.192-1.77h-.106a5.727,5.727,0,0,1-1.632,1.518,3.3,3.3,0,0,1-1.606.427,2.441,2.441,0,0,1-1.755-.606,2.284,2.284,0,0,1-.637-1.734,8.185,8.185,0,0,1,.193-1.5l1.274-5.9Z" transform="translate(584.427 -1201.29)"/>
        <path id="Trazado_25954" data-name="Trazado 25954" d="M-460.117,1206.806a2.546,2.546,0,0,1,2.453,1.66h.088a19.979,19.979,0,0,1,.393-2.393l.681-3.125h1.45l-2.882,13.583h-1.214l.192-1.824h-.07a6.548,6.548,0,0,1-1.648,1.546,3.094,3.094,0,0,1-1.589.453,2.285,2.285,0,0,1-1.9-.855,3.723,3.723,0,0,1-.681-2.375,9.049,9.049,0,0,1,.629-3.423,5.69,5.69,0,0,1,1.7-2.4A3.752,3.752,0,0,1-460.117,1206.806Zm-1.658,8.687a2.548,2.548,0,0,0,1.694-.818,5.738,5.738,0,0,0,1.382-2.085,6.875,6.875,0,0,0,.512-2.589,2.086,2.086,0,0,0-.471-1.474,1.782,1.782,0,0,0-1.37-.507,2.343,2.343,0,0,0-1.638.72,5.064,5.064,0,0,0-1.212,2.025,8.227,8.227,0,0,0-.458,2.745Q-463.338,1215.494-461.775,1215.493Z" transform="translate(588.346 -1202.835)"/>
        <path id="Trazado_25955" data-name="Trazado 25955" d="M-457.234,1216.351H-458.7l2.043-9.566h1.466Zm.987-12.011a1.151,1.151,0,0,1,.278-.8.938.938,0,0,1,.727-.31.687.687,0,0,1,.767.787,1.183,1.183,0,0,1-.293.811.876.876,0,0,1-.676.332.81.81,0,0,1-.577-.214A.791.791,0,0,1-456.247,1204.34Z" transform="translate(592.186 -1202.657)"/>
        <path id="Trazado_25956" data-name="Trazado 25956" d="M-450.975,1205.31a2.473,2.473,0,0,1,1.432.432,2.813,2.813,0,0,1,.977,1.245h.1l.585-1.5h1.108l-2.033,9.566h-1.162l.227-1.823h-.07a4.306,4.306,0,0,1-3.291,2,2.3,2.3,0,0,1-1.9-.863A3.7,3.7,0,0,1-455.7,1212a9,9,0,0,1,.621-3.371,5.809,5.809,0,0,1,1.71-2.435A3.721,3.721,0,0,1-450.975,1205.31Zm-1.659,8.705a2.463,2.463,0,0,0,1.685-.808,5.977,5.977,0,0,0,1.36-2.1,6.876,6.876,0,0,0,.525-2.6,2.036,2.036,0,0,0-.489-1.432,1.666,1.666,0,0,0-1.282-.531,2.4,2.4,0,0,0-1.69.751,5.082,5.082,0,0,0-1.226,2.033,8.183,8.183,0,0,0-.445,2.706,2.282,2.282,0,0,0,.41,1.489A1.419,1.419,0,0,0-452.634,1214.015Z" transform="translate(594.063 -1201.357)"/>
        <path id="Trazado_25957" data-name="Trazado 25957" d="M-443.845,1215.052l1.292-6.04a7.905,7.905,0,0,0,.175-1.258,1.241,1.241,0,0,0-.31-.881,1.3,1.3,0,0,0-.99-.331,2.59,2.59,0,0,0-1.515.523,4.684,4.684,0,0,0-1.3,1.492,7.9,7.9,0,0,0-.85,2.35l-.883,4.144h-1.466l2.041-9.566h1.214l-.192,1.773h.088a5.8,5.8,0,0,1,1.619-1.507,3.247,3.247,0,0,1,1.619-.442,2.447,2.447,0,0,1,1.75.606,2.222,2.222,0,0,1,.642,1.7,7.174,7.174,0,0,1-.2,1.572l-1.25,5.866Z" transform="translate(597.818 -1201.357)"/>
        <path id="Trazado_25958" data-name="Trazado 25958" d="M-440.516,1214.812a4.723,4.723,0,0,0,1.256-.228v1.125a3.757,3.757,0,0,1-.733.21,3.725,3.725,0,0,1-.7.088,2.434,2.434,0,0,1-1.671-.519,1.976,1.976,0,0,1-.58-1.55,6.363,6.363,0,0,1,.156-1.308l1.11-5.256h-1.5l.122-.637,1.616-.681,1.091-1.991h.856l-.481,2.2h2.392l-.228,1.108h-2.383l-1.126,5.274a6.12,6.12,0,0,0-.158,1.151,1.034,1.034,0,0,0,.254.751A.936.936,0,0,0-440.516,1214.812Z" transform="translate(601.892 -1202.136)"/>
        <path id="Trazado_25959" data-name="Trazado 25959" d="M-436.129,1215.228a3.342,3.342,0,0,1-2.524-.951,3.646,3.646,0,0,1-.915-2.636,7.825,7.825,0,0,1,.65-3.148,5.83,5.83,0,0,1,1.723-2.344,3.76,3.76,0,0,1,2.366-.839,2.991,2.991,0,0,1,2.007.582,2.023,2.023,0,0,1,.673,1.619,2.77,2.77,0,0,1-1.45,2.466,7.922,7.922,0,0,1-4.146.9h-.288l-.036.7a2.711,2.711,0,0,0,.536,1.785,2.052,2.052,0,0,0,1.664.642,4.273,4.273,0,0,0,1.13-.158,8.6,8.6,0,0,0,1.445-.575v1.274a7.846,7.846,0,0,1-1.45.536A5.841,5.841,0,0,1-436.129,1215.228Zm1.212-8.668a2.331,2.331,0,0,0-1.689.821,5.351,5.351,0,0,0-1.209,2.277h.1a7.14,7.14,0,0,0,3.052-.518,1.63,1.63,0,0,0,1.06-1.507,1.023,1.023,0,0,0-.319-.769A1.407,1.407,0,0,0-434.916,1206.56Z" transform="translate(604.149 -1201.357)"/>
        <path id="Trazado_25960" data-name="Trazado 25960" d="M-428.282,1212.34a2.555,2.555,0,0,1-.964,2.124,4.28,4.28,0,0,1-2.719.764,5.8,5.8,0,0,1-2.662-.6v-1.38a5.334,5.334,0,0,0,1.318.567,4.769,4.769,0,0,0,1.308.2,2.663,2.663,0,0,0,1.659-.437,1.355,1.355,0,0,0,.557-1.116,1.213,1.213,0,0,0-.3-.839,6.182,6.182,0,0,0-1.32-.935,5.337,5.337,0,0,1-1.606-1.248,2.307,2.307,0,0,1-.471-1.448,2.412,2.412,0,0,1,.883-1.944,3.5,3.5,0,0,1,2.323-.738,6.747,6.747,0,0,1,2.88.647l-.471,1.2-.489-.219a4.876,4.876,0,0,0-1.919-.374,1.947,1.947,0,0,0-1.274.379,1.211,1.211,0,0,0-.465.983,1.213,1.213,0,0,0,.312.837,5.456,5.456,0,0,0,1.277.9,7.439,7.439,0,0,1,1.341.9,2.608,2.608,0,0,1,.606.806A2.3,2.3,0,0,1-428.282,1212.34Z" transform="translate(607.239 -1201.357)"/>
        <path id="Trazado_25961" data-name="Trazado 25961" d="M-421.835,1205.31a2.434,2.434,0,0,1,1.443.442,2.709,2.709,0,0,1,.948,1.235h.114l.585-1.5h1.091l-2.934,13.862h-1.448l.883-4.19q.078-.393.5-1.929h-.07a6.244,6.244,0,0,1-1.614,1.528,3.119,3.119,0,0,1-1.624.471,2.337,2.337,0,0,1-1.916-.852,3.659,3.659,0,0,1-.694-2.378,9.1,9.1,0,0,1,.632-3.423,5.69,5.69,0,0,1,1.711-2.417A3.785,3.785,0,0,1-421.835,1205.31Zm-1.677,8.705a2.493,2.493,0,0,0,1.659-.8,5.9,5.9,0,0,0,1.383-2.071,6.741,6.741,0,0,0,.528-2.618,2.1,2.1,0,0,0-.476-1.45,1.7,1.7,0,0,0-1.331-.531,2.359,2.359,0,0,0-1.65.736,5.1,5.1,0,0,0-1.222,2.035,8.175,8.175,0,0,0-.453,2.719Q-425.074,1214.017-423.512,1214.015Z" transform="translate(612.273 -1201.357)"/>
        <path id="Trazado_25962" data-name="Trazado 25962" d="M-417.2,1205.418l-1.31,6.067a6.608,6.608,0,0,0-.156,1.213,1.119,1.119,0,0,0,1.282,1.25,2.6,2.6,0,0,0,1.51-.524,4.69,4.69,0,0,0,1.31-1.5,8.085,8.085,0,0,0,.863-2.357l.873-4.148h1.45l-2.015,9.566H-414.6l.192-1.77h-.106a5.728,5.728,0,0,1-1.632,1.518,3.3,3.3,0,0,1-1.606.427,2.441,2.441,0,0,1-1.755-.606,2.284,2.284,0,0,1-.637-1.734,8.047,8.047,0,0,1,.193-1.5l1.274-5.9Z" transform="translate(616.293 -1201.29)"/>
        <path id="Trazado_25963" data-name="Trazado 25963" d="M-410.44,1215.228a3.34,3.34,0,0,1-2.522-.951,3.647,3.647,0,0,1-.917-2.636,7.881,7.881,0,0,1,.65-3.148,5.833,5.833,0,0,1,1.724-2.344,3.757,3.757,0,0,1,2.366-.839,2.991,2.991,0,0,1,2.007.582,2.022,2.022,0,0,1,.671,1.619,2.765,2.765,0,0,1-1.448,2.466,7.918,7.918,0,0,1-4.146.9h-.289l-.034.7a2.7,2.7,0,0,0,.536,1.785,2.049,2.049,0,0,0,1.663.642,4.276,4.276,0,0,0,1.131-.158,8.548,8.548,0,0,0,1.445-.575v1.274a7.877,7.877,0,0,1-1.448.536A5.859,5.859,0,0,1-410.44,1215.228Zm1.214-8.668a2.331,2.331,0,0,0-1.69.821,5.367,5.367,0,0,0-1.208,2.277h.106a7.123,7.123,0,0,0,3.049-.518,1.632,1.632,0,0,0,1.061-1.507,1.029,1.029,0,0,0-.319-.769A1.4,1.4,0,0,0-409.226,1206.56Z" transform="translate(620.212 -1201.357)"/>
        <path id="Trazado_25964" data-name="Trazado 25964" d="M-406.262,1220.862a3.091,3.091,0,0,1-1.091-.182v-1.232a3.065,3.065,0,0,0,.978.191,1.151,1.151,0,0,0,1.021-.541,4.607,4.607,0,0,0,.575-1.544l1.983-9.446h-1.685l.114-.585,1.8-.575.2-.874a5.2,5.2,0,0,1,1.112-2.465,2.845,2.845,0,0,1,2.11-.72,4.588,4.588,0,0,1,.856.1,3.993,3.993,0,0,1,.785.223l-.375,1.126a3.4,3.4,0,0,0-1.2-.254,1.544,1.544,0,0,0-1.167.424,3.385,3.385,0,0,0-.658,1.549l-.218.943h2.079l-.219,1.108h-2.069l-2.025,9.586a4.983,4.983,0,0,1-1.047,2.408A2.421,2.421,0,0,1-406.262,1220.862Z" transform="translate(624.293 -1202.872)"/>
        <path id="Trazado_25965" data-name="Trazado 25965" d="M-399.123,1205.418l-1.31,6.067a6.606,6.606,0,0,0-.156,1.213,1.12,1.12,0,0,0,1.284,1.25,2.607,2.607,0,0,0,1.51-.524,4.667,4.667,0,0,0,1.308-1.5,8.04,8.04,0,0,0,.865-2.357l.874-4.148h1.448l-2.017,9.566h-1.212l.192-1.77h-.1a5.773,5.773,0,0,1-1.633,1.518,3.3,3.3,0,0,1-1.607.427,2.437,2.437,0,0,1-1.754-.606,2.284,2.284,0,0,1-.637-1.734,8.3,8.3,0,0,1,.192-1.5l1.274-5.9Z" transform="translate(627.595 -1201.29)"/>
        <path id="Trazado_25966" data-name="Trazado 25966" d="M-392.366,1215.228a3.338,3.338,0,0,1-2.522-.951,3.647,3.647,0,0,1-.917-2.636,7.828,7.828,0,0,1,.652-3.148,5.815,5.815,0,0,1,1.723-2.344,3.759,3.759,0,0,1,2.365-.839,3,3,0,0,1,2.009.582,2.023,2.023,0,0,1,.673,1.619,2.769,2.769,0,0,1-1.45,2.466,7.928,7.928,0,0,1-4.148.9h-.286l-.036.7a2.7,2.7,0,0,0,.536,1.785,2.052,2.052,0,0,0,1.664.642,4.272,4.272,0,0,0,1.13-.158,8.6,8.6,0,0,0,1.445-.575v1.274a7.846,7.846,0,0,1-1.45.536A5.846,5.846,0,0,1-392.366,1215.228Zm1.214-8.668a2.334,2.334,0,0,0-1.69.821,5.351,5.351,0,0,0-1.209,2.277h.106a7.145,7.145,0,0,0,3.052-.518,1.633,1.633,0,0,0,1.06-1.507,1.023,1.023,0,0,0-.319-.769A1.407,1.407,0,0,0-391.152,1206.56Z" transform="translate(631.514 -1201.357)"/>
        <path id="Trazado_25967" data-name="Trazado 25967" d="M-384.539,1205.31a3.981,3.981,0,0,1,1.047.124l-.314,1.308a3.9,3.9,0,0,0-.918-.112,2.424,2.424,0,0,0-1.487.524,4.586,4.586,0,0,0-1.214,1.453,7.353,7.353,0,0,0-.762,2.064l-.936,4.382h-1.466l2.043-9.566h1.214l-.192,1.773h.088a8.508,8.508,0,0,1,1.037-1.193,3.378,3.378,0,0,1,.86-.559A2.469,2.469,0,0,1-384.539,1205.31Z" transform="translate(634.775 -1201.357)"/>
        <path id="Trazado_25968" data-name="Trazado 25968" d="M-381.267,1205.343a3.5,3.5,0,0,1,2.62.982,3.7,3.7,0,0,1,.959,2.7,7.761,7.761,0,0,1-.627,3.1,5.373,5.373,0,0,1-1.7,2.253,3.986,3.986,0,0,1-2.427.793,3.482,3.482,0,0,1-2.628-.985,3.726,3.726,0,0,1-.951-2.7,7.706,7.706,0,0,1,.637-3.121,5.29,5.29,0,0,1,1.72-2.244A4.01,4.01,0,0,1-381.267,1205.343Zm2.061,3.483a2.383,2.383,0,0,0-.546-1.628,1.864,1.864,0,0,0-1.479-.624,2.55,2.55,0,0,0-1.708.647,4.163,4.163,0,0,0-1.17,1.792,7.48,7.48,0,0,0-.414,2.555,2.585,2.585,0,0,0,.554,1.767,2.023,2.023,0,0,0,1.594.624,2.414,2.414,0,0,0,1.633-.638,4.181,4.181,0,0,0,1.13-1.812A8.21,8.21,0,0,0-379.206,1208.826Z" transform="translate(637.63 -1201.337)"/>
        <path id="Trazado_25969" data-name="Trazado 25969" d="M-374.214,1215.052l1.292-6.04a7.833,7.833,0,0,0,.174-1.258,1.24,1.24,0,0,0-.309-.881,1.3,1.3,0,0,0-.99-.331,2.59,2.59,0,0,0-1.515.523,4.683,4.683,0,0,0-1.3,1.492,7.9,7.9,0,0,0-.85,2.35l-.883,4.144h-1.468l2.043-9.566h1.214l-.192,1.773h.088a5.8,5.8,0,0,1,1.619-1.507,3.247,3.247,0,0,1,1.619-.442,2.447,2.447,0,0,1,1.75.606,2.223,2.223,0,0,1,.642,1.7,7.178,7.178,0,0,1-.2,1.572l-1.25,5.866Z" transform="translate(641.357 -1201.357)"/>
        <path id="Trazado_25970" data-name="Trazado 25970" d="M-365.924,1205.31a2.47,2.47,0,0,1,1.432.432,2.813,2.813,0,0,1,.977,1.245h.1l.584-1.5h1.11l-2.035,9.566h-1.16l.228-1.823h-.07a4.311,4.311,0,0,1-3.293,2,2.3,2.3,0,0,1-1.9-.863,3.7,3.7,0,0,1-.689-2.366,9.029,9.029,0,0,1,.619-3.371,5.854,5.854,0,0,1,1.711-2.435A3.724,3.724,0,0,1-365.924,1205.31Zm-1.659,8.705a2.457,2.457,0,0,0,1.685-.808,5.979,5.979,0,0,0,1.362-2.1,6.874,6.874,0,0,0,.523-2.6,2.042,2.042,0,0,0-.488-1.432,1.669,1.669,0,0,0-1.284-.531,2.4,2.4,0,0,0-1.689.751,5.047,5.047,0,0,0-1.227,2.033,8.183,8.183,0,0,0-.445,2.706,2.292,2.292,0,0,0,.41,1.489A1.421,1.421,0,0,0-367.583,1214.015Z" transform="translate(647.245 -1201.357)"/>
        <path id="Trazado_25971" data-name="Trazado 25971" d="M-356.852,1205.31a2.474,2.474,0,0,1,1.432.432,2.813,2.813,0,0,1,.977,1.245h.1l.585-1.5h1.108l-2.033,9.566h-1.162l.228-1.823h-.07a4.306,4.306,0,0,1-3.291,2,2.3,2.3,0,0,1-1.9-.863,3.686,3.686,0,0,1-.691-2.366,9,9,0,0,1,.621-3.371,5.808,5.808,0,0,1,1.71-2.435A3.721,3.721,0,0,1-356.852,1205.31Zm-1.659,8.705a2.463,2.463,0,0,0,1.685-.808,5.976,5.976,0,0,0,1.36-2.1,6.875,6.875,0,0,0,.525-2.6,2.035,2.035,0,0,0-.489-1.432,1.665,1.665,0,0,0-1.282-.531,2.4,2.4,0,0,0-1.69.751,5.081,5.081,0,0,0-1.226,2.033,8.184,8.184,0,0,0-.445,2.706,2.292,2.292,0,0,0,.41,1.489A1.419,1.419,0,0,0-358.511,1214.015Z" transform="translate(652.918 -1201.357)"/>
        <path id="Trazado_25972" data-name="Trazado 25972" d="M-350.01,1215.052l1.292-6.04a7.079,7.079,0,0,0,.158-1.178,1.5,1.5,0,0,0-.271-.953,1.113,1.113,0,0,0-.925-.339,2.354,2.354,0,0,0-1.427.523,4.584,4.584,0,0,0-1.222,1.5,8.615,8.615,0,0,0-.816,2.345l-.883,4.144h-1.466l2.041-9.566h1.216l-.193,1.773h.088a5.456,5.456,0,0,1,1.515-1.494,2.987,2.987,0,0,1,1.559-.455,1.979,1.979,0,0,1,1.518.569,2.6,2.6,0,0,1,.629,1.58h.07a5.613,5.613,0,0,1,1.6-1.619,3.209,3.209,0,0,1,1.711-.53,2.349,2.349,0,0,1,1.716.595,2.311,2.311,0,0,1,.606,1.728,8.247,8.247,0,0,1-.192,1.554l-1.258,5.866h-1.484l1.292-6.04a7.83,7.83,0,0,0,.174-1.276,1.236,1.236,0,0,0-.3-.868,1.233,1.233,0,0,0-.948-.327,2.337,2.337,0,0,0-1.4.507,4.392,4.392,0,0,0-1.211,1.433,7.863,7.863,0,0,0-.79,2.206l-.933,4.364Z" transform="translate(656.673 -1201.357)"/>
        <path id="Trazado_25973" data-name="Trazado 25973" d="M-341.734,1216.705a2.533,2.533,0,0,1-1.487-.445,2.7,2.7,0,0,1-.965-1.214h-.088l-.611,1.484h-1.092l2.882-13.583h1.466q-.444,2.114-.684,3.234t-.66,2.625h.08a6.373,6.373,0,0,1,1.6-1.516,3.086,3.086,0,0,1,1.629-.484,2.323,2.323,0,0,1,1.921.865,3.715,3.715,0,0,1,.689,2.374,9.253,9.253,0,0,1-.6,3.373,5.668,5.668,0,0,1-1.668,2.42A3.728,3.728,0,0,1-341.734,1216.705Zm1.624-8.686a2.523,2.523,0,0,0-1.707.829,5.939,5.939,0,0,0-1.38,2.087,6.8,6.8,0,0,0-.51,2.574,2.046,2.046,0,0,0,.486,1.471,1.837,1.837,0,0,0,1.4.512,2.305,2.305,0,0,0,1.611-.709,4.939,4.939,0,0,0,1.2-2.012,8.384,8.384,0,0,0,.453-2.771Q-338.557,1208.019-340.111,1208.02Z" transform="translate(662.671 -1202.835)"/>
        <path id="Trazado_25974" data-name="Trazado 25974" d="M-334.662,1205.343a3.49,3.49,0,0,1,2.618.982,3.69,3.69,0,0,1,.962,2.7,7.735,7.735,0,0,1-.629,3.1,5.359,5.359,0,0,1-1.7,2.253,3.983,3.983,0,0,1-2.427.793,3.487,3.487,0,0,1-2.628-.985,3.726,3.726,0,0,1-.951-2.7,7.735,7.735,0,0,1,.637-3.121,5.29,5.29,0,0,1,1.72-2.244A4.017,4.017,0,0,1-334.662,1205.343Zm2.059,3.483a2.382,2.382,0,0,0-.544-1.628,1.863,1.863,0,0,0-1.481-.624,2.552,2.552,0,0,0-1.707.647,4.161,4.161,0,0,0-1.169,1.792,7.477,7.477,0,0,0-.414,2.555,2.569,2.569,0,0,0,.554,1.767,2.017,2.017,0,0,0,1.593.624,2.41,2.41,0,0,0,1.632-.638,4.153,4.153,0,0,0,1.131-1.812A8.213,8.213,0,0,0-332.6,1208.826Z" transform="translate(666.772 -1201.337)"/>
        <path id="Trazado_25975" data-name="Trazado 25975" d="M-327.384,1212.34a2.559,2.559,0,0,1-.964,2.124,4.279,4.279,0,0,1-2.719.764,5.815,5.815,0,0,1-2.664-.6v-1.38a5.413,5.413,0,0,0,1.318.567,4.791,4.791,0,0,0,1.312.2,2.65,2.65,0,0,0,1.656-.437,1.353,1.353,0,0,0,.559-1.116,1.214,1.214,0,0,0-.306-.839,6.14,6.14,0,0,0-1.317-.935,5.3,5.3,0,0,1-1.606-1.248,2.3,2.3,0,0,1-.473-1.448,2.412,2.412,0,0,1,.883-1.944,3.5,3.5,0,0,1,2.321-.738,6.754,6.754,0,0,1,2.882.647l-.471,1.2-.489-.219a4.879,4.879,0,0,0-1.921-.374,1.95,1.95,0,0,0-1.274.379,1.219,1.219,0,0,0-.463.983,1.219,1.219,0,0,0,.31.837,5.439,5.439,0,0,0,1.279.9,7.5,7.5,0,0,1,1.341.9,2.584,2.584,0,0,1,.606.806A2.3,2.3,0,0,1-327.384,1212.34Z" transform="translate(670.329 -1201.357)"/>
        <path id="Trazado_25976" data-name="Trazado 25976" d="M-528.031,1228.253l1.292-6.041a7.827,7.827,0,0,0,.174-1.258,1.239,1.239,0,0,0-.309-.881,1.3,1.3,0,0,0-.991-.332,2.576,2.576,0,0,0-1.513.525,4.627,4.627,0,0,0-1.3,1.492,7.86,7.86,0,0,0-.852,2.348l-.883,4.146h-1.466l2.043-9.568h1.214l-.192,1.773h.086a5.8,5.8,0,0,1,1.62-1.507,3.242,3.242,0,0,1,1.619-.44,2.45,2.45,0,0,1,1.751.606,2.224,2.224,0,0,1,.64,1.7,7.178,7.178,0,0,1-.2,1.572l-1.248,5.867Z" transform="translate(545.176 -1193.103)"/>
        <path id="Trazado_25977" data-name="Trazado 25977" d="M-524.291,1220.206l-1.31,6.067a6.606,6.606,0,0,0-.156,1.213,1.12,1.12,0,0,0,1.284,1.25,2.593,2.593,0,0,0,1.51-.523,4.666,4.666,0,0,0,1.308-1.5,8.02,8.02,0,0,0,.865-2.357l.874-4.148h1.448l-2.017,9.568H-521.7l.192-1.771h-.1a5.747,5.747,0,0,1-1.633,1.518,3.3,3.3,0,0,1-1.607.427,2.437,2.437,0,0,1-1.754-.606,2.281,2.281,0,0,1-.637-1.733,8.3,8.3,0,0,1,.192-1.5l1.274-5.9Zm1.616-1.5q.488-.524,1.1-1.321t.93-1.305h1.659v.182a16.4,16.4,0,0,1-1.222,1.32,13.41,13.41,0,0,1-1.546,1.362h-.917Z" transform="translate(549.327 -1194.624)"/>
        <path id="Trazado_25978" data-name="Trazado 25978" d="M-515.621,1228.253l1.292-6.041a7.079,7.079,0,0,0,.158-1.178,1.494,1.494,0,0,0-.271-.952,1.121,1.121,0,0,0-.926-.34,2.344,2.344,0,0,0-1.425.525,4.514,4.514,0,0,0-1.222,1.5,8.581,8.581,0,0,0-.816,2.344l-.883,4.146h-1.467l2.043-9.568h1.214l-.192,1.773h.088a5.449,5.449,0,0,1,1.513-1.494,2.987,2.987,0,0,1,1.559-.453,1.983,1.983,0,0,1,1.52.567,2.606,2.606,0,0,1,.629,1.58h.07a5.608,5.608,0,0,1,1.6-1.619,3.2,3.2,0,0,1,1.711-.528,2.351,2.351,0,0,1,1.715.593,2.311,2.311,0,0,1,.608,1.728,8.276,8.276,0,0,1-.193,1.554l-1.256,5.867h-1.484l1.292-6.041a7.829,7.829,0,0,0,.174-1.274,1.231,1.231,0,0,0-.3-.868,1.229,1.229,0,0,0-.947-.328,2.342,2.342,0,0,0-1.4.507,4.4,4.4,0,0,0-1.209,1.435,7.869,7.869,0,0,0-.79,2.2l-.933,4.365Z" transform="translate(553.115 -1193.103)"/>
        <path id="Trazado_25979" data-name="Trazado 25979" d="M-507.941,1228.427a3.336,3.336,0,0,1-2.522-.951,3.644,3.644,0,0,1-.917-2.636,7.839,7.839,0,0,1,.65-3.147,5.825,5.825,0,0,1,1.724-2.345,3.753,3.753,0,0,1,2.365-.837,3,3,0,0,1,2.007.58,2.018,2.018,0,0,1,.673,1.619,2.769,2.769,0,0,1-1.448,2.467,7.94,7.94,0,0,1-4.148.894h-.288l-.034.7a2.7,2.7,0,0,0,.536,1.784,2.048,2.048,0,0,0,1.663.642,4.361,4.361,0,0,0,1.131-.156,8.73,8.73,0,0,0,1.443-.577v1.274a7.876,7.876,0,0,1-1.448.536A5.839,5.839,0,0,1-507.941,1228.427Zm1.212-8.668a2.331,2.331,0,0,0-1.689.821,5.359,5.359,0,0,0-1.209,2.277h.106a7.143,7.143,0,0,0,3.052-.519,1.631,1.631,0,0,0,1.06-1.507,1.025,1.025,0,0,0-.319-.767A1.409,1.409,0,0,0-506.728,1219.759Z" transform="translate(559.245 -1193.103)"/>
        <path id="Trazado_25980" data-name="Trazado 25980" d="M-500.114,1218.511a3.978,3.978,0,0,1,1.047.122l-.314,1.308a3.9,3.9,0,0,0-.918-.112,2.418,2.418,0,0,0-1.487.523,4.582,4.582,0,0,0-1.214,1.453,7.428,7.428,0,0,0-.764,2.064l-.935,4.384h-1.466l2.043-9.568h1.214l-.192,1.773h.086a8.652,8.652,0,0,1,1.039-1.193,3.326,3.326,0,0,1,.86-.557A2.471,2.471,0,0,1-500.114,1218.511Z" transform="translate(562.506 -1193.103)"/>
        <path id="Trazado_25981" data-name="Trazado 25981" d="M-496.841,1218.543a3.493,3.493,0,0,1,2.618.982,3.7,3.7,0,0,1,.961,2.7,7.749,7.749,0,0,1-.629,3.1,5.363,5.363,0,0,1-1.7,2.251,3.98,3.98,0,0,1-2.428.795,3.482,3.482,0,0,1-2.626-.986,3.727,3.727,0,0,1-.952-2.7,7.712,7.712,0,0,1,.639-3.12,5.3,5.3,0,0,1,1.72-2.245A4.01,4.01,0,0,1-496.841,1218.543Zm2.061,3.483a2.391,2.391,0,0,0-.546-1.629,1.865,1.865,0,0,0-1.479-.622,2.549,2.549,0,0,0-1.708.645,4.169,4.169,0,0,0-1.17,1.794,7.466,7.466,0,0,0-.414,2.553,2.574,2.574,0,0,0,.554,1.766,2.014,2.014,0,0,0,1.593.626,2.408,2.408,0,0,0,1.633-.639,4.174,4.174,0,0,0,1.131-1.811A8.231,8.231,0,0,0-494.78,1222.026Z" transform="translate(565.36 -1193.083)"/>
        <path id="Trazado_25982" data-name="Trazado 25982" d="M-489.952,1228.012a4.741,4.741,0,0,0,1.258-.227v1.125a3.8,3.8,0,0,1-.733.21,3.63,3.63,0,0,1-.7.088,2.425,2.425,0,0,1-1.671-.519,1.968,1.968,0,0,1-.582-1.549,6.264,6.264,0,0,1,.158-1.31l1.108-5.255h-1.5l.122-.639,1.614-.681,1.092-1.991h.855l-.481,2.2h2.393l-.228,1.11h-2.381l-1.128,5.272a6.247,6.247,0,0,0-.156,1.152,1.031,1.031,0,0,0,.254.751A.936.936,0,0,0-489.952,1228.012Z" transform="translate(570.98 -1193.883)"/>
        <path id="Trazado_25983" data-name="Trazado 25983" d="M-484.247,1218.543a3.49,3.49,0,0,1,2.618.982,3.692,3.692,0,0,1,.961,2.7,7.749,7.749,0,0,1-.629,3.1,5.363,5.363,0,0,1-1.7,2.251,3.975,3.975,0,0,1-2.427.795,3.488,3.488,0,0,1-2.628-.986,3.727,3.727,0,0,1-.951-2.7,7.738,7.738,0,0,1,.637-3.12,5.3,5.3,0,0,1,1.72-2.245A4.013,4.013,0,0,1-484.247,1218.543Zm2.059,3.483a2.383,2.383,0,0,0-.544-1.629,1.864,1.864,0,0,0-1.481-.622,2.551,2.551,0,0,0-1.707.645,4.166,4.166,0,0,0-1.169,1.794,7.469,7.469,0,0,0-.414,2.553,2.566,2.566,0,0,0,.554,1.766,2.01,2.01,0,0,0,1.593.626,2.4,2.4,0,0,0,1.632-.639,4.159,4.159,0,0,0,1.131-1.811A8.231,8.231,0,0,0-482.188,1222.026Z" transform="translate(573.237 -1193.083)"/>
        <path id="Trazado_25984" data-name="Trazado 25984" d="M-480.212,1228.012a4.752,4.752,0,0,0,1.256-.227v1.125a3.831,3.831,0,0,1-.733.21,3.629,3.629,0,0,1-.7.088,2.427,2.427,0,0,1-1.672-.519,1.978,1.978,0,0,1-.58-1.549,6.377,6.377,0,0,1,.158-1.31l1.108-5.255h-1.5l.122-.639,1.616-.681,1.091-1.991h.857l-.479,2.2h2.391l-.226,1.11h-2.384l-1.126,5.272a6.247,6.247,0,0,0-.156,1.152,1.045,1.045,0,0,0,.252.751A.944.944,0,0,0-480.212,1228.012Z" transform="translate(577.069 -1193.883)"/>
        <path id="Trazado_25985" data-name="Trazado 25985" d="M-474.542,1218.511a2.461,2.461,0,0,1,1.43.431,2.824,2.824,0,0,1,.978,1.245h.1l.585-1.5h1.108l-2.033,9.568h-1.162l.226-1.823h-.07a4.3,4.3,0,0,1-3.29,2,2.3,2.3,0,0,1-1.9-.863,3.7,3.7,0,0,1-.691-2.367,8.988,8.988,0,0,1,.621-3.369,5.823,5.823,0,0,1,1.711-2.436A3.713,3.713,0,0,1-474.542,1218.511Zm-1.659,8.7a2.46,2.46,0,0,0,1.684-.808,5.982,5.982,0,0,0,1.362-2.1,6.869,6.869,0,0,0,.523-2.6,2.035,2.035,0,0,0-.488-1.432,1.669,1.669,0,0,0-1.282-.531,2.409,2.409,0,0,0-1.692.751,5.06,5.06,0,0,0-1.224,2.033,8.19,8.19,0,0,0-.447,2.706,2.283,2.283,0,0,0,.411,1.489A1.416,1.416,0,0,0-476.2,1227.214Z" transform="translate(579.325 -1193.103)"/>
        <path id="Trazado_25986" data-name="Trazado 25986" d="M-471.805,1229.731h-1.468l2.9-13.584h1.466Z" transform="translate(583.073 -1194.581)"/>
        <path id="Trazado_25987" data-name="Trazado 25987" d="M-462.68,1220.005a2.55,2.55,0,0,1,2.454,1.66h.086a20.3,20.3,0,0,1,.393-2.393l.679-3.125h1.45l-2.88,13.584h-1.212l.192-1.824h-.07a6.576,6.576,0,0,1-1.651,1.544,3.08,3.08,0,0,1-1.588.453,2.287,2.287,0,0,1-1.9-.855,3.723,3.723,0,0,1-.679-2.375,9.047,9.047,0,0,1,.627-3.423,5.7,5.7,0,0,1,1.7-2.4A3.758,3.758,0,0,1-462.68,1220.005Zm-1.659,8.687a2.538,2.538,0,0,0,1.694-.817,5.7,5.7,0,0,0,1.385-2.085,6.872,6.872,0,0,0,.51-2.589,2.081,2.081,0,0,0-.471-1.474,1.777,1.777,0,0,0-1.37-.507,2.334,2.334,0,0,0-1.637.72,5.047,5.047,0,0,0-1.212,2.025,8.188,8.188,0,0,0-.46,2.745Q-465.9,1228.694-464.339,1228.693Z" transform="translate(586.745 -1194.581)"/>
        <path id="Trazado_25988" data-name="Trazado 25988" d="M-457.614,1228.427a3.338,3.338,0,0,1-2.522-.951,3.644,3.644,0,0,1-.917-2.636,7.813,7.813,0,0,1,.652-3.147,5.808,5.808,0,0,1,1.723-2.345,3.756,3.756,0,0,1,2.365-.837,3,3,0,0,1,2.009.58,2.023,2.023,0,0,1,.673,1.619,2.771,2.771,0,0,1-1.45,2.467,7.94,7.94,0,0,1-4.148.894h-.288l-.034.7a2.7,2.7,0,0,0,.536,1.784,2.052,2.052,0,0,0,1.664.642,4.35,4.35,0,0,0,1.13-.156,8.8,8.8,0,0,0,1.445-.577v1.274a7.886,7.886,0,0,1-1.45.536A5.839,5.839,0,0,1-457.614,1228.427Zm1.212-8.668a2.334,2.334,0,0,0-1.689.821,5.359,5.359,0,0,0-1.209,2.277h.106a7.142,7.142,0,0,0,3.052-.519,1.63,1.63,0,0,0,1.06-1.507,1.02,1.02,0,0,0-.319-.767A1.409,1.409,0,0,0-456.4,1219.759Z" transform="translate(590.714 -1193.103)"/>
        <path id="Trazado_25989" data-name="Trazado 25989" d="M-451.525,1229.731h-1.466l2.9-13.584h1.466Z" transform="translate(595.756 -1194.581)"/>
        <path id="Trazado_25990" data-name="Trazado 25990" d="M-445.255,1218.511a2.467,2.467,0,0,1,1.432.431,2.821,2.821,0,0,1,.977,1.245h.1l.584-1.5h1.11l-2.035,9.568h-1.16l.226-1.823h-.07a4.308,4.308,0,0,1-3.291,2,2.3,2.3,0,0,1-1.9-.863,3.706,3.706,0,0,1-.689-2.367,9.018,9.018,0,0,1,.619-3.369,5.85,5.85,0,0,1,1.711-2.436A3.719,3.719,0,0,1-445.255,1218.511Zm-1.659,8.7a2.457,2.457,0,0,0,1.685-.808,5.982,5.982,0,0,0,1.362-2.1,6.868,6.868,0,0,0,.523-2.6,2.043,2.043,0,0,0-.488-1.432,1.673,1.673,0,0,0-1.284-.531,2.4,2.4,0,0,0-1.689.751,5.046,5.046,0,0,0-1.227,2.033,8.19,8.19,0,0,0-.445,2.706,2.293,2.293,0,0,0,.41,1.489A1.42,1.42,0,0,0-446.914,1227.214Z" transform="translate(597.64 -1193.103)"/>
        <path id="Trazado_25991" data-name="Trazado 25991" d="M-435.555,1228.253l1.292-6.041a7.211,7.211,0,0,0,.156-1.178,1.5,1.5,0,0,0-.27-.952,1.119,1.119,0,0,0-.925-.34,2.35,2.35,0,0,0-1.429.525,4.555,4.555,0,0,0-1.222,1.5,8.635,8.635,0,0,0-.816,2.344l-.881,4.146h-1.466l2.043-9.568h1.212l-.193,1.773h.088a5.45,5.45,0,0,1,1.515-1.494,2.991,2.991,0,0,1,1.559-.453,1.974,1.974,0,0,1,1.518.567,2.587,2.587,0,0,1,.629,1.58h.07a5.654,5.654,0,0,1,1.6-1.619,3.2,3.2,0,0,1,1.711-.528,2.352,2.352,0,0,1,1.715.593,2.311,2.311,0,0,1,.608,1.728,8.387,8.387,0,0,1-.192,1.554l-1.258,5.867h-1.484l1.292-6.041a8.08,8.08,0,0,0,.176-1.274,1.232,1.232,0,0,0-.3-.868,1.225,1.225,0,0,0-.948-.328,2.341,2.341,0,0,0-1.4.507,4.418,4.418,0,0,0-1.211,1.435,7.867,7.867,0,0,0-.788,2.2l-.935,4.365Z" transform="translate(603.182 -1193.103)"/>
        <path id="Trazado_25992" data-name="Trazado 25992" d="M-428.281,1218.618l-1.31,6.067a6.606,6.606,0,0,0-.156,1.213,1.118,1.118,0,0,0,1.282,1.25,2.589,2.589,0,0,0,1.51-.523,4.689,4.689,0,0,0,1.31-1.5,8.068,8.068,0,0,0,.863-2.357l.873-4.148h1.45l-2.015,9.568h-1.214l.192-1.772h-.106a5.7,5.7,0,0,1-1.632,1.518,3.3,3.3,0,0,1-1.606.427,2.441,2.441,0,0,1-1.755-.606,2.281,2.281,0,0,1-.637-1.733,8.183,8.183,0,0,1,.193-1.5l1.274-5.9Z" transform="translate(609.361 -1193.036)"/>
        <path id="Trazado_25993" data-name="Trazado 25993" d="M-421.526,1228.427a3.337,3.337,0,0,1-2.521-.951,3.645,3.645,0,0,1-.918-2.636,7.867,7.867,0,0,1,.65-3.147,5.825,5.825,0,0,1,1.724-2.345,3.753,3.753,0,0,1,2.366-.837,3,3,0,0,1,2.007.58,2.023,2.023,0,0,1,.673,1.619,2.768,2.768,0,0,1-1.45,2.467,7.93,7.93,0,0,1-4.146.894h-.289l-.034.7a2.7,2.7,0,0,0,.536,1.784,2.051,2.051,0,0,0,1.663.642,4.352,4.352,0,0,0,1.131-.156,8.739,8.739,0,0,0,1.445-.577v1.274a7.92,7.92,0,0,1-1.448.536A5.854,5.854,0,0,1-421.526,1228.427Zm1.214-8.668a2.334,2.334,0,0,0-1.69.821,5.376,5.376,0,0,0-1.208,2.277h.106a7.134,7.134,0,0,0,3.051-.519,1.631,1.631,0,0,0,1.06-1.507,1.025,1.025,0,0,0-.319-.767A1.4,1.4,0,0,0-420.312,1219.759Z" transform="translate(613.28 -1193.103)"/>
        <path id="Trazado_25994" data-name="Trazado 25994" d="M-413.676,1225.539a2.557,2.557,0,0,1-.965,2.124,4.277,4.277,0,0,1-2.719.764,5.809,5.809,0,0,1-2.664-.6v-1.38a5.382,5.382,0,0,0,1.32.567,4.788,4.788,0,0,0,1.31.2,2.659,2.659,0,0,0,1.658-.437,1.358,1.358,0,0,0,.559-1.117,1.208,1.208,0,0,0-.307-.839,6.185,6.185,0,0,0-1.316-.935,5.294,5.294,0,0,1-1.606-1.247,2.3,2.3,0,0,1-.471-1.45,2.4,2.4,0,0,1,.881-1.943,3.492,3.492,0,0,1,2.321-.738,6.753,6.753,0,0,1,2.882.645l-.471,1.2-.489-.218a4.844,4.844,0,0,0-1.921-.375,1.953,1.953,0,0,0-1.274.379,1.218,1.218,0,0,0-.462.983,1.224,1.224,0,0,0,.309.839,5.525,5.525,0,0,0,1.279.9,7.494,7.494,0,0,1,1.341.9,2.578,2.578,0,0,1,.606.806A2.274,2.274,0,0,1-413.676,1225.539Z" transform="translate(616.37 -1193.103)"/>
        <path id="Trazado_25995" data-name="Trazado 25995" d="M-412.21,1228.012a4.73,4.73,0,0,0,1.256-.227v1.125a3.8,3.8,0,0,1-.733.21,3.616,3.616,0,0,1-.7.088,2.425,2.425,0,0,1-1.671-.519,1.973,1.973,0,0,1-.582-1.549,6.377,6.377,0,0,1,.158-1.31l1.11-5.255h-1.5l.122-.639,1.614-.681,1.092-1.991h.855l-.479,2.2h2.391l-.226,1.11h-2.383l-1.128,5.272a6.247,6.247,0,0,0-.156,1.152,1.032,1.032,0,0,0,.254.751A.938.938,0,0,0-412.21,1228.012Z" transform="translate(619.591 -1193.883)"/>
        <path id="Trazado_25996" data-name="Trazado 25996" d="M-405.422,1218.511a3.97,3.97,0,0,1,1.047.122l-.314,1.308a3.882,3.882,0,0,0-.917-.112,2.415,2.415,0,0,0-1.487.523,4.541,4.541,0,0,0-1.214,1.453,7.376,7.376,0,0,0-.764,2.064l-.935,4.384h-1.468l2.043-9.568h1.214l-.192,1.773h.088a8.656,8.656,0,0,1,1.037-1.193,3.306,3.306,0,0,1,.861-.557A2.457,2.457,0,0,1-405.422,1218.511Z" transform="translate(621.717 -1193.103)"/>
        <path id="Trazado_25997" data-name="Trazado 25997" d="M-402.184,1218.511a2.47,2.47,0,0,1,1.432.431,2.809,2.809,0,0,1,.977,1.245h.1l.585-1.5h1.108l-2.033,9.568h-1.162l.228-1.823h-.07a4.308,4.308,0,0,1-3.291,2,2.3,2.3,0,0,1-1.9-.863,3.7,3.7,0,0,1-.689-2.367,8.989,8.989,0,0,1,.621-3.369,5.805,5.805,0,0,1,1.71-2.436A3.719,3.719,0,0,1-402.184,1218.511Zm-1.659,8.7a2.464,2.464,0,0,0,1.685-.808,5.98,5.98,0,0,0,1.36-2.1,6.872,6.872,0,0,0,.525-2.6,2.036,2.036,0,0,0-.489-1.432,1.667,1.667,0,0,0-1.282-.531,2.4,2.4,0,0,0-1.69.751,5.08,5.08,0,0,0-1.226,2.033,8.191,8.191,0,0,0-.445,2.706,2.293,2.293,0,0,0,.41,1.489A1.418,1.418,0,0,0-403.843,1227.214Z" transform="translate(624.572 -1193.103)"/>
        <path id="Trazado_25998" data-name="Trazado 25998" d="M-391.973,1225.539a2.555,2.555,0,0,1-.964,2.124,4.281,4.281,0,0,1-2.721.764,5.79,5.79,0,0,1-2.661-.6v-1.38a5.334,5.334,0,0,0,1.316.567,4.788,4.788,0,0,0,1.31.2,2.656,2.656,0,0,0,1.658-.437,1.354,1.354,0,0,0,.559-1.117,1.213,1.213,0,0,0-.3-.839,6.236,6.236,0,0,0-1.32-.935,5.316,5.316,0,0,1-1.606-1.247,2.3,2.3,0,0,1-.471-1.45,2.4,2.4,0,0,1,.883-1.943,3.492,3.492,0,0,1,2.321-.738,6.753,6.753,0,0,1,2.882.645l-.471,1.2-.489-.218a4.855,4.855,0,0,0-1.921-.375,1.95,1.95,0,0,0-1.274.379,1.214,1.214,0,0,0-.463.983,1.226,1.226,0,0,0,.31.839,5.492,5.492,0,0,0,1.279.9,7.489,7.489,0,0,1,1.341.9,2.6,2.6,0,0,1,.606.806A2.3,2.3,0,0,1-391.973,1225.539Z" transform="translate(629.942 -1193.103)"/>
        <path id="Trazado_25999" data-name="Trazado 25999" d="M-389.686,1228.427a3.341,3.341,0,0,1-2.522-.951,3.644,3.644,0,0,1-.917-2.636,7.866,7.866,0,0,1,.65-3.147,5.81,5.81,0,0,1,1.724-2.345,3.754,3.754,0,0,1,2.366-.837,3,3,0,0,1,2.007.58,2.022,2.022,0,0,1,.671,1.619,2.769,2.769,0,0,1-1.448,2.467,7.934,7.934,0,0,1-4.146.894h-.289l-.034.7a2.7,2.7,0,0,0,.536,1.784,2.048,2.048,0,0,0,1.663.642,4.352,4.352,0,0,0,1.131-.156,8.737,8.737,0,0,0,1.445-.577v1.274a7.963,7.963,0,0,1-1.448.536A5.853,5.853,0,0,1-389.686,1228.427Zm1.214-8.668a2.331,2.331,0,0,0-1.69.821,5.376,5.376,0,0,0-1.208,2.277h.1a7.124,7.124,0,0,0,3.051-.519,1.63,1.63,0,0,0,1.061-1.507,1.021,1.021,0,0,0-.32-.767A1.4,1.4,0,0,0-388.472,1219.759Z" transform="translate(633.19 -1193.103)"/>
        <path id="Trazado_26000" data-name="Trazado 26000" d="M-386.454,1229.731h-1.466l2.9-13.584h1.468Z" transform="translate(636.444 -1194.581)"/>
        <path id="Trazado_26001" data-name="Trazado 26001" d="M-381.468,1228.427a3.341,3.341,0,0,1-2.522-.951,3.644,3.644,0,0,1-.917-2.636,7.838,7.838,0,0,1,.65-3.147,5.81,5.81,0,0,1,1.724-2.345,3.75,3.75,0,0,1,2.366-.837,3,3,0,0,1,2.007.58,2.027,2.027,0,0,1,.671,1.619,2.769,2.769,0,0,1-1.448,2.467,7.934,7.934,0,0,1-4.146.894h-.289l-.034.7a2.7,2.7,0,0,0,.536,1.784,2.046,2.046,0,0,0,1.663.642,4.331,4.331,0,0,0,1.13-.156,8.693,8.693,0,0,0,1.447-.577v1.274a7.931,7.931,0,0,1-1.45.536A5.84,5.84,0,0,1-381.468,1228.427Zm1.214-8.668a2.331,2.331,0,0,0-1.69.821,5.375,5.375,0,0,0-1.208,2.277h.1a7.125,7.125,0,0,0,3.051-.519,1.63,1.63,0,0,0,1.061-1.507,1.021,1.021,0,0,0-.32-.767A1.4,1.4,0,0,0-380.254,1219.759Z" transform="translate(638.328 -1193.103)"/>
        <path id="Trazado_26002" data-name="Trazado 26002" d="M-375.92,1228.427a3.551,3.551,0,0,1-2.627-.933,3.562,3.562,0,0,1-.936-2.636,7.949,7.949,0,0,1,.647-3.223,5.481,5.481,0,0,1,1.786-2.3,4.251,4.251,0,0,1,2.561-.824,6.379,6.379,0,0,1,2.339.445l-.41,1.23a4.924,4.924,0,0,0-1.911-.445,2.749,2.749,0,0,0-1.786.666,4.4,4.4,0,0,0-1.264,1.861,7.114,7.114,0,0,0-.46,2.589,2.434,2.434,0,0,0,.582,1.736,2.081,2.081,0,0,0,1.6.621,4,4,0,0,0,1.188-.174,11.581,11.581,0,0,0,1.1-.411v1.249A5.224,5.224,0,0,1-375.92,1228.427Z" transform="translate(641.72 -1193.103)"/>
        <path id="Trazado_26003" data-name="Trazado 26003" d="M-370.969,1228.427a3.551,3.551,0,0,1-2.626-.933,3.561,3.561,0,0,1-.935-2.636,7.948,7.948,0,0,1,.645-3.223,5.48,5.48,0,0,1,1.786-2.3,4.254,4.254,0,0,1,2.561-.824,6.372,6.372,0,0,1,2.339.445l-.41,1.23a4.924,4.924,0,0,0-1.911-.445,2.749,2.749,0,0,0-1.786.666,4.4,4.4,0,0,0-1.264,1.861,7.115,7.115,0,0,0-.46,2.589,2.441,2.441,0,0,0,.582,1.736,2.082,2.082,0,0,0,1.6.621,4,4,0,0,0,1.188-.174,11.585,11.585,0,0,0,1.1-.411v1.249A5.223,5.223,0,0,1-370.969,1228.427Z" transform="translate(644.817 -1193.103)"/>
        <path id="Trazado_26004" data-name="Trazado 26004" d="M-368.321,1229.553h-1.466l2.043-9.568h1.466Zm.987-12.012a1.15,1.15,0,0,1,.278-.8.937.937,0,0,1,.726-.31.688.688,0,0,1,.767.787,1.184,1.184,0,0,1-.293.811.871.871,0,0,1-.676.331.811.811,0,0,1-.577-.214A.791.791,0,0,1-367.334,1217.541Z" transform="translate(647.783 -1194.403)"/>
        <path id="Trazado_26005" data-name="Trazado 26005" d="M-362.028,1218.543a3.5,3.5,0,0,1,2.62.982,3.705,3.705,0,0,1,.961,2.7,7.749,7.749,0,0,1-.629,3.1,5.366,5.366,0,0,1-1.7,2.251,3.972,3.972,0,0,1-2.427.795,3.477,3.477,0,0,1-2.627-.986,3.72,3.72,0,0,1-.952-2.7,7.74,7.74,0,0,1,.637-3.12,5.313,5.313,0,0,1,1.72-2.245A4.01,4.01,0,0,1-362.028,1218.543Zm2.061,3.483a2.383,2.383,0,0,0-.546-1.629,1.86,1.86,0,0,0-1.479-.622,2.552,2.552,0,0,0-1.708.645,4.183,4.183,0,0,0-1.17,1.794,7.5,7.5,0,0,0-.413,2.553,2.582,2.582,0,0,0,.553,1.766,2.018,2.018,0,0,0,1.594.626,2.408,2.408,0,0,0,1.633-.639,4.171,4.171,0,0,0,1.13-1.811A8.231,8.231,0,0,0-359.967,1222.026Z" transform="translate(649.66 -1193.083)"/>
        <path id="Trazado_26006" data-name="Trazado 26006" d="M-354.975,1228.253l1.292-6.041a7.906,7.906,0,0,0,.176-1.258,1.239,1.239,0,0,0-.31-.881,1.3,1.3,0,0,0-.99-.332,2.584,2.584,0,0,0-1.515.525,4.649,4.649,0,0,0-1.3,1.492,7.861,7.861,0,0,0-.85,2.348l-.883,4.146h-1.466l2.043-9.568h1.214l-.193,1.773h.088a5.824,5.824,0,0,1,1.619-1.507,3.252,3.252,0,0,1,1.619-.44,2.447,2.447,0,0,1,1.75.606,2.219,2.219,0,0,1,.642,1.7,7.175,7.175,0,0,1-.2,1.572l-1.25,5.867Z" transform="translate(653.388 -1193.103)"/>
        <path id="Trazado_26007" data-name="Trazado 26007" d="M-349.542,1218.511a2.458,2.458,0,0,1,1.43.431,2.813,2.813,0,0,1,.978,1.245h.1l.583-1.5h1.11l-2.035,9.568h-1.16l.226-1.823h-.07a4.308,4.308,0,0,1-3.291,2,2.3,2.3,0,0,1-1.9-.863,3.706,3.706,0,0,1-.689-2.367,9.019,9.019,0,0,1,.619-3.369,5.852,5.852,0,0,1,1.711-2.436A3.719,3.719,0,0,1-349.542,1218.511Zm-1.659,8.7a2.46,2.46,0,0,0,1.685-.808,5.982,5.982,0,0,0,1.362-2.1,6.869,6.869,0,0,0,.523-2.6,2.043,2.043,0,0,0-.487-1.432,1.674,1.674,0,0,0-1.286-.531,2.4,2.4,0,0,0-1.689.751,5.061,5.061,0,0,0-1.225,2.033,8.19,8.19,0,0,0-.445,2.706,2.293,2.293,0,0,0,.41,1.489A1.42,1.42,0,0,0-351.2,1227.214Z" transform="translate(657.489 -1193.103)"/>
        <path id="Trazado_26008" data-name="Trazado 26008" d="M-343.328,1220.005a2.547,2.547,0,0,1,2.453,1.66h.088a19.965,19.965,0,0,1,.393-2.393l.681-3.125h1.45l-2.882,13.584h-1.214l.192-1.824h-.07a6.571,6.571,0,0,1-1.648,1.544,3.094,3.094,0,0,1-1.59.453,2.285,2.285,0,0,1-1.9-.855,3.723,3.723,0,0,1-.681-2.375,9.048,9.048,0,0,1,.629-3.423,5.7,5.7,0,0,1,1.7-2.4A3.752,3.752,0,0,1-343.328,1220.005Zm-1.658,8.687a2.548,2.548,0,0,0,1.694-.817,5.736,5.736,0,0,0,1.382-2.085,6.874,6.874,0,0,0,.512-2.589,2.089,2.089,0,0,0-.471-1.474,1.78,1.78,0,0,0-1.37-.507,2.343,2.343,0,0,0-1.638.72,5.085,5.085,0,0,0-1.212,2.025,8.229,8.229,0,0,0-.458,2.745Q-346.549,1228.694-344.986,1228.693Z" transform="translate(661.374 -1194.581)"/>
        <path id="Trazado_26009" data-name="Trazado 26009" d="M-336.981,1218.511a2.467,2.467,0,0,1,1.432.431,2.8,2.8,0,0,1,.977,1.245h.1l.583-1.5h1.108l-2.035,9.568h-1.159l.226-1.823h-.07a4.308,4.308,0,0,1-3.291,2,2.3,2.3,0,0,1-1.9-.863,3.687,3.687,0,0,1-.691-2.367,8.988,8.988,0,0,1,.621-3.369,5.82,5.82,0,0,1,1.71-2.436A3.718,3.718,0,0,1-336.981,1218.511Zm-1.656,8.7a2.464,2.464,0,0,0,1.685-.808,6,6,0,0,0,1.362-2.1,6.9,6.9,0,0,0,.523-2.6,2.051,2.051,0,0,0-.489-1.432,1.674,1.674,0,0,0-1.286-.531,2.408,2.408,0,0,0-1.689.751,5.08,5.08,0,0,0-1.225,2.033,8.19,8.19,0,0,0-.445,2.706,2.283,2.283,0,0,0,.411,1.489A1.414,1.414,0,0,0-338.637,1227.214Z" transform="translate(665.344 -1193.103)"/>
      </g>
      <path id="Trazado_26010" data-name="Trazado 26010" d="M-261.482,1214.629v1.152h46.071v-1.152h-46.071" transform="translate(812.414 -1195.53)" fill-rule="evenodd"/>
      <g id="Grupo_14711" data-name="Grupo 14711" transform="translate(560.677 0.733)">
        <path id="Trazado_26011" data-name="Trazado 26011" d="M-251.808,1212.583a12.822,12.822,0,0,1,.528-3.621,10.325,10.325,0,0,1,1.427-3.07,5.99,5.99,0,0,1,2.149-1.911,6.138,6.138,0,0,1,2.856-.641,5.455,5.455,0,0,1,1.606.2l-.307,1.266a4.863,4.863,0,0,0-1.484-.192,4.157,4.157,0,0,0-3.111,1.3,8.076,8.076,0,0,0-1.854,3.867h.07a3.828,3.828,0,0,1,1.279-1.1,3.492,3.492,0,0,1,1.689-.411,2.745,2.745,0,0,1,2.129.859,3.365,3.365,0,0,1,.787,2.362,5.66,5.66,0,0,1-.582,2.57,4.255,4.255,0,0,1-1.575,1.781,4.235,4.235,0,0,1-2.279.616,3.076,3.076,0,0,1-2.457-1A4.266,4.266,0,0,1-251.808,1212.583Zm3.485,2.646a2.406,2.406,0,0,0,1.461-.471,3.042,3.042,0,0,0,1-1.3,4.577,4.577,0,0,0,.353-1.815q0-2.165-1.929-2.165a2.663,2.663,0,0,0-1.118.248,3.337,3.337,0,0,0-.959.665,2.8,2.8,0,0,0-.629.912,3.562,3.562,0,0,0-.21,1.352,3.022,3.022,0,0,0,.528,1.885A1.785,1.785,0,0,0-248.323,1215.229Z" transform="translate(257.786 -1203.322)"/>
        <path id="Trazado_26012" data-name="Trazado 26012" d="M-237.336,1207.44a15.265,15.265,0,0,1-.686,4.707,7.386,7.386,0,0,1-1.867,3.224,3.917,3.917,0,0,1-2.745,1.1,2.756,2.756,0,0,1-2.358-1.113,5.387,5.387,0,0,1-.821-3.224,14.059,14.059,0,0,1,.717-4.492,7.608,7.608,0,0,1,1.89-3.222,3.843,3.843,0,0,1,2.683-1.086Q-237.335,1203.329-237.336,1207.44Zm-3.273-2.854a2.373,2.373,0,0,0-1.824,1.008,7.7,7.7,0,0,0-1.357,2.82,13.3,13.3,0,0,0-.522,3.7,4.92,4.92,0,0,0,.437,2.3,1.486,1.486,0,0,0,1.406.8,2.354,2.354,0,0,0,1.824-.995,7.487,7.487,0,0,0,1.315-2.864,15.451,15.451,0,0,0,.492-3.954Q-238.838,1204.585-240.61,1204.586Z" transform="translate(261.534 -1203.329)"/>
        <path id="Trazado_26013" data-name="Trazado 26013" d="M-247.639,1229.485h-7.847l.27-1.282,4.06-3.667q.89-.812,1.541-1.429a10.534,10.534,0,0,0,1.073-1.16,4.262,4.262,0,0,0,.629-1.083,3.327,3.327,0,0,0,.2-1.191,1.814,1.814,0,0,0-.525-1.37,1.954,1.954,0,0,0-1.422-.507,3.61,3.61,0,0,0-1.313.249,6,6,0,0,0-1.419.842l-.717-1a5.632,5.632,0,0,1,3.607-1.344,3.6,3.6,0,0,1,2.431.77,2.669,2.669,0,0,1,.894,2.128,4.5,4.5,0,0,1-.345,1.781,6.545,6.545,0,0,1-1.143,1.718,29.085,29.085,0,0,1-2.571,2.454l-3.073,2.68v.07h5.919Z" transform="translate(255.486 -1195.068)"/>
        <path id="Trazado_26014" data-name="Trazado 26014" d="M-240.365,1220.639a15.313,15.313,0,0,1-.686,4.707,7.385,7.385,0,0,1-1.868,3.225,3.921,3.921,0,0,1-2.747,1.1,2.752,2.752,0,0,1-2.357-1.112,5.4,5.4,0,0,1-.821-3.226,14.058,14.058,0,0,1,.717-4.492,7.589,7.589,0,0,1,1.89-3.221,3.841,3.841,0,0,1,2.683-1.085Q-240.364,1216.529-240.365,1220.639Zm-3.275-2.852a2.379,2.379,0,0,0-1.824,1.008,7.713,7.713,0,0,0-1.357,2.818,13.3,13.3,0,0,0-.52,3.7,4.914,4.914,0,0,0,.437,2.3,1.485,1.485,0,0,0,1.406.8,2.356,2.356,0,0,0,1.824-1,7.493,7.493,0,0,0,1.313-2.864,15.381,15.381,0,0,0,.494-3.954Q-241.867,1217.787-243.64,1217.787Z" transform="translate(259.64 -1195.075)"/>
        <path id="Trazado_26015" data-name="Trazado 26015" d="M-234.306,1220.639a15.312,15.312,0,0,1-.686,4.707,7.386,7.386,0,0,1-1.869,3.225,3.918,3.918,0,0,1-2.745,1.1,2.752,2.752,0,0,1-2.357-1.112,5.4,5.4,0,0,1-.821-3.226,14.059,14.059,0,0,1,.715-4.492,7.605,7.605,0,0,1,1.89-3.221,3.845,3.845,0,0,1,2.685-1.085Q-234.307,1216.529-234.306,1220.639Zm-3.275-2.852a2.379,2.379,0,0,0-1.824,1.008,7.713,7.713,0,0,0-1.357,2.818,13.3,13.3,0,0,0-.52,3.7,4.916,4.916,0,0,0,.436,2.3,1.488,1.488,0,0,0,1.406.8,2.356,2.356,0,0,0,1.824-1,7.492,7.492,0,0,0,1.315-2.864,15.451,15.451,0,0,0,.494-3.954Q-235.808,1217.787-237.581,1217.787Z" transform="translate(263.428 -1195.075)"/>
      </g>
      <g id="Grupo_14712" data-name="Grupo 14712" transform="translate(0 11.418)">
        <path id="Trazado_26016" data-name="Trazado 26016" d="M-590.837,1214.281a4.254,4.254,0,0,1-1.4,3.438,6,6,0,0,1-3.995,1.192H-597.5v4.952h-2.952v-13.924h4.447a5.917,5.917,0,0,1,3.852,1.091A3.974,3.974,0,0,1-590.837,1214.281Zm-6.667,2.21h.972a3.235,3.235,0,0,0,2.038-.54,1.882,1.882,0,0,0,.676-1.565,1.93,1.93,0,0,0-.567-1.534,2.654,2.654,0,0,0-1.776-.494H-597.5Z" transform="translate(600.455 -1209.881)"/>
        <path id="Trazado_26017" data-name="Trazado 26017" d="M-593.518,1218.52a14.8,14.8,0,0,1,.738-4.725,11.778,11.778,0,0,1,2.129-3.857h2.381a13.689,13.689,0,0,0-2.028,4.039,15.122,15.122,0,0,0-.686,4.523,14.587,14.587,0,0,0,.7,4.508,13.657,13.657,0,0,0,1.994,3.938h-2.362a11.2,11.2,0,0,1-2.132-3.781A14.365,14.365,0,0,1-593.518,1218.52Z" transform="translate(604.793 -1209.881)"/>
        <path id="Trazado_26018" data-name="Trazado 26018" d="M-579.655,1223.884l-1.011-3.314h-5.076l-1.009,3.314h-3.181l4.915-13.981h3.608l4.934,13.981Zm-1.715-5.791q-1.4-4.5-1.576-5.1c-.117-.393-.2-.7-.252-.933q-.314,1.219-1.8,6.028Z" transform="translate(607.035 -1209.903)"/>
        <path id="Trazado_26019" data-name="Trazado 26019" d="M-578.535,1211.954h3.181l2.009,5.989a8.274,8.274,0,0,1,.353,1.848h.057a8.186,8.186,0,0,1,.41-1.848l1.971-5.989h3.114l-4.505,12.01a5.2,5.2,0,0,1-1.765,2.495,4.46,4.46,0,0,1-2.682.827,6.776,6.776,0,0,1-1.476-.161v-2.3a4.938,4.938,0,0,0,1.143.124,2.066,2.066,0,0,0,1.347-.472,3.056,3.056,0,0,0,.9-1.424l.171-.523Z" transform="translate(614.162 -1208.62)"/>
        <path id="Trazado_26020" data-name="Trazado 26020" d="M-567.514,1209.938h4.333a8.347,8.347,0,0,1,4.3.844,2.932,2.932,0,0,1,1.338,2.68,3.38,3.38,0,0,1-.585,2.048,2.349,2.349,0,0,1-1.557.962v.094a3.063,3.063,0,0,1,1.908,1.105,3.586,3.586,0,0,1,.587,2.152,3.542,3.542,0,0,1-1.377,2.971,5.947,5.947,0,0,1-3.738,1.068h-5.209Zm2.953,5.515h1.713a3.126,3.126,0,0,0,1.739-.372,1.387,1.387,0,0,0,.538-1.229,1.228,1.228,0,0,0-.587-1.147,3.772,3.772,0,0,0-1.851-.346h-1.552Zm0,2.342v3.629h1.923a2.861,2.861,0,0,0,1.8-.467,1.726,1.726,0,0,0,.58-1.429q0-1.733-2.475-1.734Z" transform="translate(621.053 -1209.881)"/>
        <path id="Trazado_26021" data-name="Trazado 26021" d="M-554.924,1218.52a14.342,14.342,0,0,1-.74,4.666,11.156,11.156,0,0,1-2.127,3.761h-2.362a13.755,13.755,0,0,0,1.989-3.928,14.57,14.57,0,0,0,.705-4.518,15.122,15.122,0,0,0-.686-4.523,13.689,13.689,0,0,0-2.028-4.039h2.381a11.679,11.679,0,0,1,2.132,3.871A14.816,14.816,0,0,1-554.924,1218.52Z" transform="translate(625.644 -1209.881)"/>
        <path id="Trazado_26022" data-name="Trazado 26022" d="M-552.83,1214.59V1212.5h9.456v2.085Zm0,3.685v-2.085h9.456v2.085Z" transform="translate(630.235 -1208.276)"/>
      </g>
      <g id="Grupo_14713" data-name="Grupo 14713" transform="translate(450.346 11.93)">
        <path id="Trazado_26023" data-name="Trazado 26023" d="M-323.37,1224.535a34.941,34.941,0,0,0,1.422-5.534l2.982-.195a27.088,27.088,0,0,1-2.456,5.555Zm2.768-8.4a1.674,1.674,0,0,1-1.716-1.771,1.684,1.684,0,0,1,1.736-1.795,1.685,1.685,0,0,1,1.734,1.795,1.677,1.677,0,0,1-1.734,1.771Z" transform="translate(323.37 -1208.748)"/>
        <path id="Trazado_26024" data-name="Trazado 26024" d="M-317.059,1210.634a24.327,24.327,0,0,1,4.016-.273,6.3,6.3,0,0,1,4.016,1.053,3.845,3.845,0,0,1,1.4,3.041,4.2,4.2,0,0,1-1.208,3.119,6.092,6.092,0,0,1-4.27,1.383,7.5,7.5,0,0,1-1.014-.058v4.7h-2.943Zm2.943,5.965a4.536,4.536,0,0,0,.995.078c1.578,0,2.552-.8,2.552-2.144,0-1.209-.837-1.931-2.318-1.931a5.058,5.058,0,0,0-1.229.117Z" transform="translate(327.316 -1210.129)"/>
        <path id="Trazado_26025" data-name="Trazado 26025" d="M-305.871,1210.218a14.879,14.879,0,0,0-1.968,7.894,15.052,15.052,0,0,0,1.968,7.835h-2.066a13.552,13.552,0,0,1-2.222-7.857,13.752,13.752,0,0,1,2.222-7.873Z" transform="translate(331.631 -1210.218)"/>
        <path id="Trazado_26026" data-name="Trazado 26026" d="M-303.119,1220.185l-.936,3.374h-3.08l4.016-13.137h3.9l4.075,13.137h-3.2l-1.014-3.374Zm3.333-2.222-.819-2.787c-.234-.779-.466-1.754-.661-2.534h-.041c-.2.78-.388,1.775-.6,2.534l-.779,2.787Z" transform="translate(333.522 -1210.091)"/>
        <path id="Trazado_26027" data-name="Trazado 26027" d="M-293.677,1212.639l1.424,4.679c.154.566.349,1.268.468,1.775h.059c.136-.507.291-1.229.427-1.775l1.17-4.679h3.177l-2.223,6.278c-1.364,3.782-2.279,5.3-3.351,6.256a5.466,5.466,0,0,1-2.865,1.307l-.624-2.514a3.749,3.749,0,0,0,1.286-.505,3.424,3.424,0,0,0,1.229-1.191.768.768,0,0,0,.156-.427,1.076,1.076,0,0,0-.137-.488l-3.49-8.715Z" transform="translate(339.877 -1208.704)"/>
        <path id="Trazado_26028" data-name="Trazado 26028" d="M-287.552,1210.634a23.678,23.678,0,0,1,3.841-.273,7.269,7.269,0,0,1,3.88.741,2.859,2.859,0,0,1,1.578,2.573,2.967,2.967,0,0,1-2.163,2.807v.039a3.286,3.286,0,0,1,2.612,3.236,3.5,3.5,0,0,1-1.365,2.787c-.956.761-2.553,1.19-5.164,1.19a23.024,23.024,0,0,1-3.218-.195Zm2.945,5.03h.974c1.559,0,2.4-.645,2.4-1.619,0-.995-.761-1.521-2.1-1.521a8.3,8.3,0,0,0-1.266.078Zm0,5.828a9.683,9.683,0,0,0,1.149.038c1.346,0,2.534-.525,2.534-1.89,0-1.324-1.188-1.853-2.67-1.853h-1.013Z" transform="translate(345.767 -1210.129)"/>
        <path id="Trazado_26029" data-name="Trazado 26029" d="M-280.675,1225.948a15.281,15.281,0,0,0,1.968-7.875,15.067,15.067,0,0,0-1.968-7.855h2.066a13.606,13.606,0,0,1,2.222,7.855,13.885,13.885,0,0,1-2.222,7.875Z" transform="translate(350.067 -1210.218)"/>
        <path id="Trazado_26030" data-name="Trazado 26030" d="M-274.423,1215.3v-1.814h10.059v1.814Zm0,4.036v-1.814h10.059v1.814Z" transform="translate(353.976 -1208.172)"/>
      </g>
      <g id="Grupo_14714" data-name="Grupo 14714" transform="translate(606.015 11.93)">
        <path id="Trazado_26031" data-name="Trazado 26031" d="M-227.591,1224.535a34.947,34.947,0,0,0,1.424-5.534l2.982-.195a26.911,26.911,0,0,1-2.457,5.555Zm2.768-8.4a1.672,1.672,0,0,1-1.715-1.771,1.684,1.684,0,0,1,1.736-1.795,1.685,1.685,0,0,1,1.734,1.795,1.677,1.677,0,0,1-1.734,1.771Z" transform="translate(227.591 -1208.748)"/>
        <path id="Trazado_26032" data-name="Trazado 26032" d="M-221.279,1210.634a24.3,24.3,0,0,1,4.014-.273,6.3,6.3,0,0,1,4.016,1.053,3.84,3.84,0,0,1,1.4,3.041,4.2,4.2,0,0,1-1.208,3.119,6.089,6.089,0,0,1-4.27,1.383,7.49,7.49,0,0,1-1.013-.058v4.7h-2.943Zm2.943,5.965a4.521,4.521,0,0,0,.993.078c1.58,0,2.555-.8,2.555-2.144,0-1.209-.839-1.931-2.321-1.931a5.053,5.053,0,0,0-1.227.117Z" transform="translate(231.538 -1210.129)"/>
        <path id="Trazado_26033" data-name="Trazado 26033" d="M-210.091,1210.218a14.865,14.865,0,0,0-1.968,7.894,15.052,15.052,0,0,0,1.968,7.835h-2.066a13.552,13.552,0,0,1-2.222-7.857,13.765,13.765,0,0,1,2.222-7.873Z" transform="translate(235.852 -1210.218)"/>
        <path id="Trazado_26034" data-name="Trazado 26034" d="M-207.341,1220.185l-.935,3.374h-3.08l4.014-13.137h3.9l4.071,13.137h-3.2l-1.013-3.374Zm3.335-2.222-.819-2.787c-.236-.779-.468-1.754-.663-2.534h-.039c-.2.78-.39,1.775-.6,2.534l-.779,2.787Z" transform="translate(237.743 -1210.091)"/>
        <path id="Trazado_26035" data-name="Trazado 26035" d="M-197.9,1212.639l1.422,4.679c.158.566.353,1.268.468,1.775h.059c.137-.507.293-1.229.429-1.775l1.169-4.679h3.179l-2.223,6.278c-1.364,3.782-2.28,5.3-3.351,6.256a5.465,5.465,0,0,1-2.867,1.307l-.624-2.514a3.755,3.755,0,0,0,1.287-.505,3.407,3.407,0,0,0,1.227-1.191.759.759,0,0,0,.158-.427,1.1,1.1,0,0,0-.137-.488l-3.489-8.715Z" transform="translate(244.099 -1208.704)"/>
        <path id="Trazado_26036" data-name="Trazado 26036" d="M-191.772,1210.634a23.679,23.679,0,0,1,3.841-.273,7.262,7.262,0,0,1,3.878.741,2.86,2.86,0,0,1,1.58,2.573,2.969,2.969,0,0,1-2.163,2.807v.039a3.288,3.288,0,0,1,2.612,3.236,3.5,3.5,0,0,1-1.364,2.787c-.956.761-2.555,1.19-5.167,1.19a23.016,23.016,0,0,1-3.216-.195Zm2.943,5.03h.975c1.56,0,2.4-.645,2.4-1.619,0-.995-.761-1.521-2.1-1.521a8.341,8.341,0,0,0-1.268.078Zm0,5.828a9.728,9.728,0,0,0,1.151.038c1.344,0,2.534-.525,2.534-1.89,0-1.324-1.19-1.853-2.67-1.853h-1.014Z" transform="translate(249.989 -1210.129)"/>
        <path id="Trazado_26037" data-name="Trazado 26037" d="M-184.9,1225.948a15.249,15.249,0,0,0,1.968-7.875,15.051,15.051,0,0,0-1.968-7.855h2.067a13.594,13.594,0,0,1,2.222,7.855,13.873,13.873,0,0,1-2.222,7.875Z" transform="translate(254.288 -1210.218)"/>
        <path id="Trazado_26038" data-name="Trazado 26038" d="M-178.644,1215.3v-1.814h10.059v1.814Zm0,4.036v-1.814h10.059v1.814Z" transform="translate(258.197 -1208.172)"/>
      </g>
      <path id="Trazado_26039" data-name="Trazado 26039" d="M-169.595,1214.629v1.152h46.071v-1.152h-46.071" transform="translate(869.871 -1195.53)" fill-rule="evenodd"/>
      <g id="Grupo_14715" data-name="Grupo 14715" transform="translate(717.485 0.751)">
        <path id="Trazado_26040" data-name="Trazado 26040" d="M-148.4,1206.168a3.261,3.261,0,0,1-.883,2.308,4.249,4.249,0,0,1-2.444,1.227v.078a2.834,2.834,0,0,1,1.7.93,2.719,2.719,0,0,1,.619,1.82,3.84,3.84,0,0,1-.541,2.048,3.635,3.635,0,0,1-1.58,1.383,5.663,5.663,0,0,1-2.47.5,8.1,8.1,0,0,1-3.361-.689v-1.432a7.9,7.9,0,0,0,1.737.658,6.835,6.835,0,0,0,1.658.233,3.216,3.216,0,0,0,2.2-.7,2.4,2.4,0,0,0,.785-1.9,2.154,2.154,0,0,0-.689-1.732,2.868,2.868,0,0,0-1.919-.588h-1.144l.271-1.248h1.212a3.705,3.705,0,0,0,2.391-.761,2.409,2.409,0,0,0,.952-1.98,1.661,1.661,0,0,0-.505-1.276,1.936,1.936,0,0,0-1.372-.471,4.108,4.108,0,0,0-1.37.235,6.98,6.98,0,0,0-1.528.813l-.7-1.03a6.1,6.1,0,0,1,3.7-1.257,3.532,3.532,0,0,1,2.42.758A2.635,2.635,0,0,1-148.4,1206.168Z" transform="translate(160.041 -1203.34)"/>
        <path id="Trazado_26041" data-name="Trazado 26041" d="M-156.52,1229.416h-1.5l1.71-7.971q.517-2.277.769-3.134a6.753,6.753,0,0,1-1.212.969l-1.554.96-.7-1.108,3.919-2.48h1.3Z" transform="translate(159.007 -1195.016)"/>
        <path id="Trazado_26042" data-name="Trazado 26042" d="M-145.45,1220.639a15.313,15.313,0,0,1-.686,4.707,7.369,7.369,0,0,1-1.867,3.225,3.918,3.918,0,0,1-2.745,1.1,2.748,2.748,0,0,1-2.357-1.112,5.384,5.384,0,0,1-.821-3.226,14.013,14.013,0,0,1,.717-4.492,7.571,7.571,0,0,1,1.889-3.221,3.845,3.845,0,0,1,2.685-1.085Q-145.449,1216.529-145.45,1220.639Zm-3.273-2.852a2.379,2.379,0,0,0-1.825,1.008,7.739,7.739,0,0,0-1.357,2.818,13.356,13.356,0,0,0-.518,3.7,4.894,4.894,0,0,0,.437,2.3,1.481,1.481,0,0,0,1.4.8,2.359,2.359,0,0,0,1.825-1,7.516,7.516,0,0,0,1.312-2.864,15.31,15.31,0,0,0,.494-3.954Q-146.952,1217.787-148.723,1217.787Z" transform="translate(162.184 -1195.093)"/>
      </g>
    </g>
  </g>
</svg>
