<svg id="Grupo_14668" data-name="Grupo 14668" xmlns="http://www.w3.org/2000/svg" width="276.429" height="46.071" viewBox="0 0 276.429 46.071">
  <rect id="Rectángulo_3714" data-name="Rectángulo 3714" width="276.429" height="46.071" fill="#efc355"/>
  <g id="Grupo_14667" data-name="Grupo 14667" transform="translate(44.502 14.699)">
    <path id="Trazado_25225" data-name="Trazado 25225" d="M-409.514,1415.785a3.9,3.9,0,0,1-1.287,3.151,5.51,5.51,0,0,1-3.663,1.091h-1.16v4.539h-2.706v-12.762h4.076a5.425,5.425,0,0,1,3.532,1A3.643,3.643,0,0,1-409.514,1415.785Zm-6.111,2.025h.891a2.949,2.949,0,0,0,1.867-.494,1.724,1.724,0,0,0,.621-1.434,1.775,1.775,0,0,0-.52-1.407,2.445,2.445,0,0,0-1.629-.453h-1.23Z" transform="translate(418.331 -1410.984)" fill="#272525"/>
    <path id="Trazado_25226" data-name="Trazado 25226" d="M-409.114,1419.672a13.5,13.5,0,0,1,.676-4.33,10.734,10.734,0,0,1,1.95-3.536h2.184a12.537,12.537,0,0,0-1.861,3.7,13.849,13.849,0,0,0-.629,4.148,13.432,13.432,0,0,0,.642,4.133,12.6,12.6,0,0,0,1.828,3.609h-2.165a10.317,10.317,0,0,1-1.955-3.465A13.173,13.173,0,0,1-409.114,1419.672Z" transform="translate(424.094 -1410.984)" fill="#272525"/>
    <path id="Trazado_25227" data-name="Trazado 25227" d="M-396.408,1424.587l-.925-3.038h-4.653l-.925,3.038h-2.916l4.5-12.814h3.308l4.525,12.814Zm-1.572-5.307q-1.28-4.13-1.445-4.669c-.107-.362-.184-.647-.231-.857q-.288,1.117-1.65,5.526Z" transform="translate(426.15 -1411.004)" fill="#272525"/>
    <path id="Trazado_25228" data-name="Trazado 25228" d="M-395.38,1413.652h2.916l1.843,5.492a7.792,7.792,0,0,1,.322,1.694h.052a7.412,7.412,0,0,1,.375-1.694l1.807-5.492h2.856l-4.13,11.01a4.773,4.773,0,0,1-1.619,2.287,4.085,4.085,0,0,1-2.457.759,6.158,6.158,0,0,1-1.354-.148v-2.113a4.609,4.609,0,0,0,1.048.114,1.888,1.888,0,0,0,1.234-.432,2.808,2.808,0,0,0,.826-1.305l.158-.481Z" transform="translate(432.682 -1409.829)" fill="#272525"/>
    <path id="Trazado_25229" data-name="Trazado 25229" d="M-385.277,1411.805h3.971a7.658,7.658,0,0,1,3.943.772,2.691,2.691,0,0,1,1.225,2.457,3.1,3.1,0,0,1-.536,1.877,2.136,2.136,0,0,1-1.427.881v.088a2.819,2.819,0,0,1,1.75,1.012,3.312,3.312,0,0,1,.536,1.973,3.248,3.248,0,0,1-1.263,2.724,5.451,5.451,0,0,1-3.426.977h-4.774Zm2.706,5.055H-381a2.869,2.869,0,0,0,1.594-.341,1.269,1.269,0,0,0,.494-1.125,1.13,1.13,0,0,0-.538-1.053,3.442,3.442,0,0,0-1.7-.319h-1.424Zm0,2.147v3.325h1.763a2.633,2.633,0,0,0,1.65-.426,1.584,1.584,0,0,0,.531-1.31q0-1.589-2.269-1.589Z" transform="translate(439 -1410.984)" fill="#272525"/>
    <path id="Trazado_25230" data-name="Trazado 25230" d="M-373.738,1419.672a13.173,13.173,0,0,1-.676,4.276,10.218,10.218,0,0,1-1.952,3.449h-2.165a12.589,12.589,0,0,0,1.825-3.6,13.351,13.351,0,0,0,.645-4.141,13.9,13.9,0,0,0-.627-4.148,12.608,12.608,0,0,0-1.859-3.7h2.181a10.669,10.669,0,0,1,1.955,3.548A13.577,13.577,0,0,1-373.738,1419.672Z" transform="translate(443.208 -1410.984)" fill="#272525"/>
    <path id="Trazado_25231" data-name="Trazado 25231" d="M-371.817,1416.07v-1.913h8.669v1.913Zm0,3.377v-1.911h8.669v1.911Z" transform="translate(447.416 -1409.514)" fill="#272525"/>
    <path id="Trazado_25232" data-name="Trazado 25232" d="M-353.348,1415.785a3.9,3.9,0,0,1-1.287,3.151,5.51,5.51,0,0,1-3.663,1.091h-1.16v4.539h-2.706v-12.762h4.076a5.425,5.425,0,0,1,3.532,1A3.643,3.643,0,0,1-353.348,1415.785Zm-6.111,2.025h.891a2.949,2.949,0,0,0,1.867-.494,1.725,1.725,0,0,0,.621-1.434,1.775,1.775,0,0,0-.52-1.407,2.445,2.445,0,0,0-1.629-.453h-1.23Z" transform="translate(453.452 -1410.984)" fill="#272525"/>
    <path id="Trazado_25233" data-name="Trazado 25233" d="M-352.949,1419.672a13.5,13.5,0,0,1,.676-4.33,10.735,10.735,0,0,1,1.95-3.536h2.184a12.536,12.536,0,0,0-1.861,3.7,13.848,13.848,0,0,0-.629,4.148,13.43,13.43,0,0,0,.642,4.133,12.6,12.6,0,0,0,1.828,3.609h-2.165a10.346,10.346,0,0,1-1.955-3.465A13.173,13.173,0,0,1-352.949,1419.672Z" transform="translate(459.214 -1410.984)" fill="#272525"/>
    <path id="Trazado_25234" data-name="Trazado 25234" d="M-340.242,1424.587l-.925-3.038h-4.653l-.925,3.038h-2.916l4.5-12.814h3.307l4.525,12.814Zm-1.572-5.307q-1.28-4.13-1.445-4.669c-.107-.362-.184-.647-.231-.857q-.288,1.117-1.65,5.526Z" transform="translate(461.27 -1411.004)" fill="#272525"/>
    <path id="Trazado_25235" data-name="Trazado 25235" d="M-336.935,1419.672a13.174,13.174,0,0,1-.676,4.276,10.247,10.247,0,0,1-1.952,3.449h-2.165a12.59,12.59,0,0,0,1.825-3.6,13.4,13.4,0,0,0,.645-4.141,13.846,13.846,0,0,0-.629-4.148,12.565,12.565,0,0,0-1.858-3.7h2.181a10.7,10.7,0,0,1,1.955,3.548A13.58,13.58,0,0,1-336.935,1419.672Z" transform="translate(466.221 -1410.984)" fill="#272525"/>
    <path id="Trazado_25236" data-name="Trazado 25236" d="M-329.693,1411.3l-.359,3.211,3.257-.907.289,2.2-2.968.21,1.946,2.594-1.981,1.055-1.362-2.73-1.2,2.714-2.061-1.039,1.931-2.594-2.951-.226.34-2.183,3.186.907-.356-3.211Z" transform="translate(470.345 -1411.3)" fill="#272525"/>
    <path id="Trazado_25237" data-name="Trazado 25237" d="M-316.831,1415.785a3.9,3.9,0,0,1-1.287,3.151,5.5,5.5,0,0,1-3.663,1.091h-1.16v4.539h-2.706v-12.762h4.076a5.422,5.422,0,0,1,3.532,1A3.643,3.643,0,0,1-316.831,1415.785Zm-6.111,2.025h.891a2.951,2.951,0,0,0,1.869-.494,1.725,1.725,0,0,0,.621-1.434,1.776,1.776,0,0,0-.522-1.407,2.445,2.445,0,0,0-1.629-.453h-1.23Z" transform="translate(476.285 -1410.984)" fill="#272525"/>
    <path id="Trazado_25238" data-name="Trazado 25238" d="M-316.431,1419.672a13.545,13.545,0,0,1,.676-4.33,10.793,10.793,0,0,1,1.95-3.536h2.184a12.49,12.49,0,0,0-1.859,3.7,13.848,13.848,0,0,0-.629,4.148,13.48,13.48,0,0,0,.64,4.133,12.6,12.6,0,0,0,1.828,3.609H-313.8a10.373,10.373,0,0,1-1.955-3.465A13.217,13.217,0,0,1-316.431,1419.672Z" transform="translate(482.049 -1410.984)" fill="#272525"/>
    <path id="Trazado_25239" data-name="Trazado 25239" d="M-312.155,1411.805h3.971a7.657,7.657,0,0,1,3.943.772,2.691,2.691,0,0,1,1.225,2.457,3.1,3.1,0,0,1-.536,1.877,2.136,2.136,0,0,1-1.427.881v.088a2.819,2.819,0,0,1,1.75,1.012,3.3,3.3,0,0,1,.536,1.973,3.251,3.251,0,0,1-1.261,2.724,5.459,5.459,0,0,1-3.428.977h-4.774Zm2.706,5.055h1.57a2.869,2.869,0,0,0,1.594-.341,1.268,1.268,0,0,0,.494-1.125,1.13,1.13,0,0,0-.538-1.053,3.442,3.442,0,0,0-1.7-.319h-1.424Zm0,2.147v3.325h1.763a2.63,2.63,0,0,0,1.65-.426,1.584,1.584,0,0,0,.532-1.31q0-1.589-2.269-1.589Z" transform="translate(484.723 -1410.984)" fill="#272525"/>
    <path id="Trazado_25240" data-name="Trazado 25240" d="M-300.616,1419.672a13.173,13.173,0,0,1-.676,4.276,10.219,10.219,0,0,1-1.952,3.449h-2.165a12.59,12.59,0,0,0,1.825-3.6,13.352,13.352,0,0,0,.645-4.141,13.9,13.9,0,0,0-.627-4.148,12.608,12.608,0,0,0-1.859-3.7h2.181a10.668,10.668,0,0,1,1.955,3.548A13.58,13.58,0,0,1-300.616,1419.672Z" transform="translate(488.931 -1410.984)" fill="#272525"/>
  </g>
</svg>
