<svg id="Grupo_14672" data-name="Grupo 14672" xmlns="http://www.w3.org/2000/svg" width="219.787" height="17.878" viewBox="0 0 219.787 17.878">
  <path id="Trazado_25319" data-name="Trazado 25319" d="M-587.284,1526.318a3.894,3.894,0,0,1-1.287,3.15,5.5,5.5,0,0,1-3.663,1.092h-1.159v4.539H-596.1v-12.763h4.076a5.423,5.423,0,0,1,3.532,1A3.639,3.639,0,0,1-587.284,1526.318Zm-6.109,2.025h.889a2.971,2.971,0,0,0,1.869-.494,1.728,1.728,0,0,0,.621-1.437,1.771,1.771,0,0,0-.522-1.4,2.427,2.427,0,0,0-1.629-.453h-1.229Z" transform="translate(596.101 -1521.517)"/>
  <path id="Trazado_25320" data-name="Trazado 25320" d="M-586.884,1530.2a13.556,13.556,0,0,1,.676-4.33,10.8,10.8,0,0,1,1.95-3.535h2.184a12.532,12.532,0,0,0-1.859,3.7,13.853,13.853,0,0,0-.629,4.146,13.425,13.425,0,0,0,.642,4.133,12.527,12.527,0,0,0,1.828,3.61h-2.166a10.354,10.354,0,0,1-1.955-3.467A13.2,13.2,0,0,1-586.884,1530.2Z" transform="translate(601.864 -1521.517)"/>
  <path id="Trazado_25321" data-name="Trazado 25321" d="M-574.178,1535.119l-.923-3.037h-4.653l-.926,3.037H-583.6l4.505-12.815h3.308l4.523,12.815Zm-1.57-5.308q-1.282-4.13-1.445-4.671c-.109-.359-.184-.645-.232-.855q-.285,1.119-1.648,5.526Z" transform="translate(603.92 -1521.537)"/>
  <path id="Trazado_25322" data-name="Trazado 25322" d="M-573.149,1524.184h2.916l1.841,5.49a7.813,7.813,0,0,1,.323,1.693h.052a7.509,7.509,0,0,1,.374-1.693l1.809-5.49h2.854l-4.13,11.008a4.758,4.758,0,0,1-1.619,2.287,4.088,4.088,0,0,1-2.456.761,6.17,6.17,0,0,1-1.354-.15v-2.113a4.5,4.5,0,0,0,1.047.114,1.9,1.9,0,0,0,1.235-.431,2.812,2.812,0,0,0,.826-1.307l.156-.479Z" transform="translate(610.453 -1520.361)"/>
  <path id="Trazado_25323" data-name="Trazado 25323" d="M-563.047,1522.336h3.972a7.648,7.648,0,0,1,3.941.774,2.685,2.685,0,0,1,1.225,2.457,3.088,3.088,0,0,1-.536,1.875,2.151,2.151,0,0,1-1.427.883v.088a2.8,2.8,0,0,1,1.75,1.013,3.291,3.291,0,0,1,.536,1.973,3.248,3.248,0,0,1-1.261,2.723,5.454,5.454,0,0,1-3.426.978h-4.775Zm2.706,5.055h1.572a2.883,2.883,0,0,0,1.593-.34,1.271,1.271,0,0,0,.494-1.128,1.123,1.123,0,0,0-.538-1.05,3.441,3.441,0,0,0-1.7-.318h-1.424Zm0,2.147v3.327h1.763a2.617,2.617,0,0,0,1.651-.429,1.577,1.577,0,0,0,.531-1.308q0-1.589-2.271-1.589Z" transform="translate(616.77 -1521.517)"/>
  <path id="Trazado_25324" data-name="Trazado 25324" d="M-551.507,1530.2a13.161,13.161,0,0,1-.676,4.278,10.2,10.2,0,0,1-1.954,3.449H-556.3a12.489,12.489,0,0,0,1.825-3.6,13.357,13.357,0,0,0,.647-4.141,13.849,13.849,0,0,0-.629-4.146,12.613,12.613,0,0,0-1.858-3.7h2.18a10.668,10.668,0,0,1,1.957,3.55A13.568,13.568,0,0,1-551.507,1530.2Z" transform="translate(620.978 -1521.517)"/>
  <path id="Trazado_25325" data-name="Trazado 25325" d="M-549.587,1526.6v-1.911h8.669v1.911Zm0,3.379v-1.913h8.669v1.913Z" transform="translate(625.186 -1520.046)"/>
  <path id="Trazado_25326" data-name="Trazado 25326" d="M-531.118,1526.318a3.894,3.894,0,0,1-1.287,3.15,5.5,5.5,0,0,1-3.663,1.092h-1.159v4.539h-2.708v-12.763h4.076a5.423,5.423,0,0,1,3.532,1A3.639,3.639,0,0,1-531.118,1526.318Zm-6.109,2.025h.889a2.971,2.971,0,0,0,1.869-.494,1.728,1.728,0,0,0,.621-1.437,1.771,1.771,0,0,0-.522-1.4,2.427,2.427,0,0,0-1.629-.453h-1.229Z" transform="translate(631.221 -1521.517)"/>
  <path id="Trazado_25327" data-name="Trazado 25327" d="M-530.719,1530.2a13.558,13.558,0,0,1,.676-4.33,10.768,10.768,0,0,1,1.952-3.535h2.183a12.534,12.534,0,0,0-1.859,3.7,13.847,13.847,0,0,0-.629,4.146,13.423,13.423,0,0,0,.642,4.133,12.526,12.526,0,0,0,1.828,3.61h-2.165a10.332,10.332,0,0,1-1.957-3.467A13.2,13.2,0,0,1-530.719,1530.2Z" transform="translate(636.984 -1521.517)"/>
  <path id="Trazado_25328" data-name="Trazado 25328" d="M-518.012,1535.119l-.923-3.037h-4.653l-.927,3.037h-2.916l4.505-12.815h3.307l4.523,12.815Zm-1.57-5.308q-1.282-4.13-1.445-4.671c-.109-.359-.184-.645-.232-.855q-.285,1.119-1.648,5.526Z" transform="translate(639.04 -1521.537)"/>
  <path id="Trazado_25329" data-name="Trazado 25329" d="M-514.7,1530.2a13.12,13.12,0,0,1-.676,4.278,10.164,10.164,0,0,1-1.952,3.449H-519.5a12.49,12.49,0,0,0,1.825-3.6,13.359,13.359,0,0,0,.647-4.141,13.849,13.849,0,0,0-.629-4.146,12.613,12.613,0,0,0-1.859-3.7h2.181a10.633,10.633,0,0,1,1.955,3.55A13.523,13.523,0,0,1-514.7,1530.2Z" transform="translate(643.991 -1521.517)"/>
  <path id="Trazado_25330" data-name="Trazado 25330" d="M-507.461,1521.832l-.359,3.212,3.257-.907.288,2.2-2.968.21,1.947,2.592-1.981,1.057-1.362-2.734-1.2,2.716-2.061-1.038,1.931-2.592-2.953-.228.341-2.181,3.186.907-.358-3.212Z" transform="translate(648.115 -1521.832)"/>
  <path id="Trazado_25331" data-name="Trazado 25331" d="M-494.6,1526.318a3.9,3.9,0,0,1-1.287,3.15,5.5,5.5,0,0,1-3.663,1.092h-1.16v4.539h-2.706v-12.763h4.076a5.423,5.423,0,0,1,3.532,1A3.639,3.639,0,0,1-494.6,1526.318Zm-6.111,2.025h.891a2.966,2.966,0,0,0,1.867-.494,1.728,1.728,0,0,0,.621-1.437,1.77,1.77,0,0,0-.52-1.4,2.426,2.426,0,0,0-1.629-.453h-1.23Z" transform="translate(654.056 -1521.517)"/>
  <path id="Trazado_25332" data-name="Trazado 25332" d="M-494.2,1530.2a13.557,13.557,0,0,1,.676-4.33,10.769,10.769,0,0,1,1.95-3.535h2.184a12.539,12.539,0,0,0-1.861,3.7,13.848,13.848,0,0,0-.627,4.146,13.422,13.422,0,0,0,.64,4.133,12.608,12.608,0,0,0,1.828,3.61h-2.165a10.327,10.327,0,0,1-1.955-3.467A13.2,13.2,0,0,1-494.2,1530.2Z" transform="translate(659.82 -1521.517)"/>
  <path id="Trazado_25333" data-name="Trazado 25333" d="M-489.925,1522.336h3.972a7.647,7.647,0,0,1,3.941.774,2.686,2.686,0,0,1,1.226,2.457,3.087,3.087,0,0,1-.536,1.875,2.143,2.143,0,0,1-1.427.883v.088a2.8,2.8,0,0,1,1.75,1.013,3.291,3.291,0,0,1,.538,1.973,3.25,3.25,0,0,1-1.263,2.723,5.454,5.454,0,0,1-3.426.978h-4.775Zm2.706,5.055h1.572a2.893,2.893,0,0,0,1.594-.34,1.274,1.274,0,0,0,.492-1.128,1.122,1.122,0,0,0-.538-1.05,3.441,3.441,0,0,0-1.7-.318h-1.424Zm0,2.147v3.327h1.763a2.617,2.617,0,0,0,1.651-.429,1.577,1.577,0,0,0,.531-1.308q0-1.589-2.269-1.589Z" transform="translate(662.493 -1521.517)"/>
  <path id="Trazado_25334" data-name="Trazado 25334" d="M-478.222,1521.864h1.913v17.589h-1.913Z" transform="translate(669.811 -1521.812)"/>
  <path id="Trazado_25335" data-name="Trazado 25335" d="M-462.33,1535.119l-.923-3.037h-4.655l-.925,3.037h-2.916l4.505-12.815h3.307l4.523,12.815Zm-1.572-5.308q-1.28-4.13-1.445-4.671c-.107-.359-.184-.645-.231-.855q-.285,1.119-1.65,5.526Z" transform="translate(673.858 -1521.537)"/>
  <path id="Trazado_25336" data-name="Trazado 25336" d="M-459.022,1530.2a13.162,13.162,0,0,1-.676,4.278,10.189,10.189,0,0,1-1.952,3.449h-2.165a12.573,12.573,0,0,0,1.825-3.6,13.4,13.4,0,0,0,.645-4.141,13.9,13.9,0,0,0-.627-4.146,12.612,12.612,0,0,0-1.859-3.7h2.181a10.662,10.662,0,0,1,1.955,3.55A13.567,13.567,0,0,1-459.022,1530.2Z" transform="translate(678.809 -1521.517)"/>
</svg>
