<svg xmlns="http://www.w3.org/2000/svg" width="488.05" height="35.326" viewBox="0 0 488.05 35.326">
  <g id="Grupo_14722" data-name="Grupo 14722" transform="translate(-290.874 -1706.096)">
    <g id="Grupo_14673" data-name="Grupo 14673" transform="translate(450.308 1706.096)">
      <path id="Trazado_25337" data-name="Trazado 25337" d="M-492.641,1567.908l1.292-6.041a7.945,7.945,0,0,0,.176-1.258,1.24,1.24,0,0,0-.312-.882,1.3,1.3,0,0,0-.99-.332,2.593,2.593,0,0,0-1.515.525,4.651,4.651,0,0,0-1.3,1.494,7.824,7.824,0,0,0-.852,2.347l-.881,4.148h-1.466l2.043-9.568h1.212l-.192,1.772h.086a5.842,5.842,0,0,1,1.619-1.505,3.245,3.245,0,0,1,1.62-.44,2.442,2.442,0,0,1,1.751.606,2.223,2.223,0,0,1,.642,1.7,7.116,7.116,0,0,1-.2,1.572l-1.247,5.867Z" transform="translate(498.489 -1554.21)"/>
      <path id="Trazado_25338" data-name="Trazado 25338" d="M-488.9,1559.862l-1.31,6.066a6.622,6.622,0,0,0-.156,1.214,1.118,1.118,0,0,0,1.282,1.248,2.593,2.593,0,0,0,1.51-.523,4.673,4.673,0,0,0,1.31-1.5,8.029,8.029,0,0,0,.863-2.357l.873-4.146h1.45l-2.015,9.568h-1.214l.192-1.773h-.106a5.66,5.66,0,0,1-1.632,1.518,3.283,3.283,0,0,1-1.606.429,2.449,2.449,0,0,1-1.755-.606,2.282,2.282,0,0,1-.637-1.733,8.147,8.147,0,0,1,.193-1.5l1.274-5.9Zm1.614-1.5a17.026,17.026,0,0,0,1.1-1.321q.607-.8.93-1.307h1.659v.183a16.4,16.4,0,0,1-1.222,1.318,13.579,13.579,0,0,1-1.544,1.362h-.918Z" transform="translate(502.64 -1555.732)"/>
      <path id="Trazado_25339" data-name="Trazado 25339" d="M-480.232,1567.908l1.292-6.041a7.28,7.28,0,0,0,.158-1.18,1.5,1.5,0,0,0-.27-.951,1.125,1.125,0,0,0-.926-.341,2.35,2.35,0,0,0-1.429.525,4.558,4.558,0,0,0-1.222,1.5,8.735,8.735,0,0,0-.816,2.342l-.881,4.148h-1.466l2.043-9.568h1.212l-.192,1.772h.088a5.442,5.442,0,0,1,1.513-1.492,2.985,2.985,0,0,1,1.559-.453,1.985,1.985,0,0,1,1.52.565,2.6,2.6,0,0,1,.627,1.581h.07a5.594,5.594,0,0,1,1.6-1.619,3.2,3.2,0,0,1,1.711-.528,2.34,2.34,0,0,1,1.713.593,2.306,2.306,0,0,1,.608,1.728,8.422,8.422,0,0,1-.192,1.554l-1.256,5.867h-1.484l1.292-6.041a8.054,8.054,0,0,0,.174-1.274,1.229,1.229,0,0,0-.3-.868,1.225,1.225,0,0,0-.948-.33,2.351,2.351,0,0,0-1.4.507,4.459,4.459,0,0,0-1.209,1.437,7.8,7.8,0,0,0-.788,2.2l-.936,4.366Z" transform="translate(506.428 -1554.21)"/>
      <path id="Trazado_25340" data-name="Trazado 25340" d="M-472.551,1568.082a3.336,3.336,0,0,1-2.522-.952,3.639,3.639,0,0,1-.917-2.636,7.862,7.862,0,0,1,.65-3.145,5.812,5.812,0,0,1,1.724-2.345,3.754,3.754,0,0,1,2.366-.837,3,3,0,0,1,2.007.58,2.018,2.018,0,0,1,.671,1.619,2.77,2.77,0,0,1-1.448,2.467,7.952,7.952,0,0,1-4.146.892h-.289l-.034.7a2.7,2.7,0,0,0,.536,1.786,2.045,2.045,0,0,0,1.663.641,4.321,4.321,0,0,0,1.13-.156,8.68,8.68,0,0,0,1.447-.577v1.274a7.965,7.965,0,0,1-1.448.538A5.866,5.866,0,0,1-472.551,1568.082Zm1.214-8.669a2.338,2.338,0,0,0-1.69.821,5.383,5.383,0,0,0-1.208,2.279h.1a7.125,7.125,0,0,0,3.051-.518,1.633,1.633,0,0,0,1.061-1.507,1.015,1.015,0,0,0-.32-.767A1.391,1.391,0,0,0-471.337,1559.413Z" transform="translate(512.558 -1554.21)"/>
      <path id="Trazado_25341" data-name="Trazado 25341" d="M-464.726,1558.166a3.936,3.936,0,0,1,1.048.122l-.314,1.308a3.891,3.891,0,0,0-.917-.114,2.421,2.421,0,0,0-1.489.523,4.61,4.61,0,0,0-1.214,1.455,7.463,7.463,0,0,0-.764,2.064l-.933,4.384h-1.466l2.041-9.568h1.214l-.193,1.772h.088a8.569,8.569,0,0,1,1.04-1.192,3.265,3.265,0,0,1,.858-.557A2.468,2.468,0,0,1-464.726,1558.166Z" transform="translate(515.819 -1554.21)"/>
      <path id="Trazado_25342" data-name="Trazado 25342" d="M-461.452,1558.2a3.488,3.488,0,0,1,2.618.982,3.689,3.689,0,0,1,.961,2.7,7.744,7.744,0,0,1-.629,3.1,5.342,5.342,0,0,1-1.7,2.251,3.966,3.966,0,0,1-2.427.8,3.482,3.482,0,0,1-2.628-.988,3.721,3.721,0,0,1-.951-2.7,7.732,7.732,0,0,1,.637-3.12,5.283,5.283,0,0,1,1.72-2.245A4.015,4.015,0,0,1-461.452,1558.2Zm2.059,3.481a2.381,2.381,0,0,0-.544-1.627,1.866,1.866,0,0,0-1.481-.624,2.552,2.552,0,0,0-1.7.646,4.161,4.161,0,0,0-1.17,1.8,7.465,7.465,0,0,0-.414,2.552,2.569,2.569,0,0,0,.554,1.768,2.015,2.015,0,0,0,1.593.624,2.41,2.41,0,0,0,1.632-.637,4.17,4.17,0,0,0,1.131-1.811A8.241,8.241,0,0,0-459.393,1561.679Z" transform="translate(518.674 -1554.19)"/>
      <path id="Trazado_25343" data-name="Trazado 25343" d="M-452.456,1559.661a2.543,2.543,0,0,1,2.451,1.659h.088a20.511,20.511,0,0,1,.393-2.393l.681-3.125h1.45l-2.882,13.584h-1.214l.193-1.825h-.07a6.619,6.619,0,0,1-1.65,1.546,3.112,3.112,0,0,1-1.59.453,2.292,2.292,0,0,1-1.9-.855,3.726,3.726,0,0,1-.681-2.375,9.038,9.038,0,0,1,.629-3.423,5.719,5.719,0,0,1,1.7-2.4A3.767,3.767,0,0,1-452.456,1559.661Zm-1.659,8.685a2.542,2.542,0,0,0,1.694-.816,5.733,5.733,0,0,0,1.383-2.085,6.881,6.881,0,0,0,.51-2.589,2.1,2.1,0,0,0-.471-1.476,1.783,1.783,0,0,0-1.37-.507,2.34,2.34,0,0,0-1.637.721,5.07,5.07,0,0,0-1.214,2.025,8.221,8.221,0,0,0-.458,2.745Q-455.679,1568.347-454.116,1568.346Z" transform="translate(524.319 -1555.688)"/>
      <path id="Trazado_25344" data-name="Trazado 25344" d="M-447.393,1568.082a3.336,3.336,0,0,1-2.522-.952,3.646,3.646,0,0,1-.917-2.636,7.862,7.862,0,0,1,.65-3.145,5.827,5.827,0,0,1,1.724-2.345,3.753,3.753,0,0,1,2.366-.837,3,3,0,0,1,2.007.58,2.018,2.018,0,0,1,.671,1.619,2.767,2.767,0,0,1-1.448,2.467,7.949,7.949,0,0,1-4.146.892h-.289l-.034.7a2.7,2.7,0,0,0,.536,1.786,2.047,2.047,0,0,0,1.663.641,4.342,4.342,0,0,0,1.131-.156,8.73,8.73,0,0,0,1.445-.577v1.274a7.923,7.923,0,0,1-1.448.538A5.866,5.866,0,0,1-447.393,1568.082Zm1.214-8.669a2.338,2.338,0,0,0-1.69.821,5.383,5.383,0,0,0-1.208,2.279h.106a7.135,7.135,0,0,0,3.051-.518,1.634,1.634,0,0,0,1.06-1.507,1.02,1.02,0,0,0-.319-.767A1.393,1.393,0,0,0-446.179,1559.413Z" transform="translate(528.289 -1554.21)"/>
      <path id="Trazado_25345" data-name="Trazado 25345" d="M-438.515,1569.56a2.548,2.548,0,0,1-1.489-.445,2.734,2.734,0,0,1-.965-1.213h-.088l-.611,1.484h-1.091l2.882-13.584h1.466q-.446,2.111-.686,3.234t-.658,2.624h.078a6.416,6.416,0,0,1,1.6-1.515,3.087,3.087,0,0,1,1.629-.484,2.316,2.316,0,0,1,1.921.865,3.7,3.7,0,0,1,.691,2.373,9.311,9.311,0,0,1-.6,3.376,5.66,5.66,0,0,1-1.668,2.419A3.738,3.738,0,0,1-438.515,1569.56Zm1.624-8.687a2.523,2.523,0,0,0-1.708.831,5.935,5.935,0,0,0-1.38,2.085,6.8,6.8,0,0,0-.509,2.577,2.052,2.052,0,0,0,.484,1.472,1.84,1.84,0,0,0,1.4.509,2.306,2.306,0,0,0,1.609-.707,4.946,4.946,0,0,0,1.2-2.012,8.375,8.375,0,0,0,.455-2.771C-435.338,1561.535-435.858,1560.873-436.892,1560.873Z" transform="translate(533.337 -1555.688)"/>
      <path id="Trazado_25346" data-name="Trazado 25346" d="M-431.478,1558.166a2.47,2.47,0,0,1,1.432.431,2.824,2.824,0,0,1,.978,1.245h.094l.587-1.5h1.107l-2.033,9.568h-1.162l.228-1.825h-.07a4.3,4.3,0,0,1-3.29,2,2.3,2.3,0,0,1-1.9-.865,3.684,3.684,0,0,1-.691-2.365,8.975,8.975,0,0,1,.621-3.369,5.809,5.809,0,0,1,1.71-2.436A3.719,3.719,0,0,1-431.478,1558.166Zm-1.658,8.7a2.459,2.459,0,0,0,1.684-.806,6,6,0,0,0,1.362-2.1,6.875,6.875,0,0,0,.523-2.6,2.03,2.03,0,0,0-.489-1.432,1.661,1.661,0,0,0-1.282-.533,2.412,2.412,0,0,0-1.69.751,5.1,5.1,0,0,0-1.225,2.035,8.226,8.226,0,0,0-.445,2.706,2.286,2.286,0,0,0,.411,1.489A1.415,1.415,0,0,0-433.136,1566.868Z" transform="translate(537.438 -1554.21)"/>
      <path id="Trazado_25347" data-name="Trazado 25347" d="M-428.741,1569.386h-1.466l2.9-13.584h1.468Z" transform="translate(541.186 -1555.688)"/>
      <path id="Trazado_25348" data-name="Trazado 25348" d="M-422.437,1558.2a3.494,3.494,0,0,1,2.62.982,3.7,3.7,0,0,1,.961,2.7,7.744,7.744,0,0,1-.629,3.1,5.355,5.355,0,0,1-1.7,2.251,3.966,3.966,0,0,1-2.427.8,3.477,3.477,0,0,1-2.628-.988,3.721,3.721,0,0,1-.951-2.7,7.758,7.758,0,0,1,.635-3.12,5.3,5.3,0,0,1,1.721-2.245A4.006,4.006,0,0,1-422.437,1558.2Zm2.061,3.481a2.381,2.381,0,0,0-.545-1.627,1.868,1.868,0,0,0-1.481-.624,2.557,2.557,0,0,0-1.707.646,4.175,4.175,0,0,0-1.17,1.8,7.466,7.466,0,0,0-.413,2.552,2.576,2.576,0,0,0,.553,1.768,2.021,2.021,0,0,0,1.594.624,2.409,2.409,0,0,0,1.632-.637,4.17,4.17,0,0,0,1.131-1.811A8.243,8.243,0,0,0-420.376,1561.679Z" transform="translate(543.07 -1554.19)"/>
      <path id="Trazado_25349" data-name="Trazado 25349" d="M-415.383,1567.908l1.292-6.041a8.157,8.157,0,0,0,.176-1.258,1.241,1.241,0,0,0-.312-.882,1.305,1.305,0,0,0-.99-.332,2.589,2.589,0,0,0-1.515.525,4.655,4.655,0,0,0-1.3,1.494,7.871,7.871,0,0,0-.85,2.347l-.881,4.148h-1.466l2.041-9.568h1.214l-.193,1.772h.088a5.841,5.841,0,0,1,1.619-1.505,3.241,3.241,0,0,1,1.62-.44,2.438,2.438,0,0,1,1.749.606,2.218,2.218,0,0,1,.644,1.7,7.116,7.116,0,0,1-.2,1.572l-1.248,5.867Z" transform="translate(546.798 -1554.21)"/>
      <path id="Trazado_25350" data-name="Trazado 25350" d="M-411.235,1568.082a3.333,3.333,0,0,1-2.521-.952,3.64,3.64,0,0,1-.918-2.636,7.835,7.835,0,0,1,.652-3.145A5.808,5.808,0,0,1-412.3,1559a3.757,3.757,0,0,1,2.366-.837,3.009,3.009,0,0,1,2.009.58,2.023,2.023,0,0,1,.671,1.619,2.768,2.768,0,0,1-1.45,2.467,7.949,7.949,0,0,1-4.146.892h-.288l-.036.7a2.7,2.7,0,0,0,.536,1.786,2.051,2.051,0,0,0,1.664.641,4.33,4.33,0,0,0,1.13-.156,8.793,8.793,0,0,0,1.447-.577v1.274a7.932,7.932,0,0,1-1.45.538A5.866,5.866,0,0,1-411.235,1568.082Zm1.216-8.669a2.342,2.342,0,0,0-1.692.821,5.382,5.382,0,0,0-1.208,2.279h.106a7.135,7.135,0,0,0,3.051-.518,1.634,1.634,0,0,0,1.06-1.507,1.014,1.014,0,0,0-.319-.767A1.391,1.391,0,0,0-410.019,1559.413Z" transform="translate(550.898 -1554.21)"/>
      <path id="Trazado_25351" data-name="Trazado 25351" d="M-403.385,1565.192a2.56,2.56,0,0,1-.965,2.126,4.283,4.283,0,0,1-2.719.764,5.8,5.8,0,0,1-2.662-.6v-1.38a5.453,5.453,0,0,0,1.318.569,4.843,4.843,0,0,0,1.31.2,2.647,2.647,0,0,0,1.658-.437,1.355,1.355,0,0,0,.559-1.117,1.207,1.207,0,0,0-.306-.839,6.187,6.187,0,0,0-1.318-.933,5.292,5.292,0,0,1-1.606-1.248,2.3,2.3,0,0,1-.471-1.45,2.4,2.4,0,0,1,.881-1.941,3.5,3.5,0,0,1,2.321-.738,6.727,6.727,0,0,1,2.882.645l-.471,1.195-.489-.216a4.817,4.817,0,0,0-1.921-.377,1.954,1.954,0,0,0-1.274.38,1.215,1.215,0,0,0-.462.982,1.22,1.22,0,0,0,.31.839,5.387,5.387,0,0,0,1.279.9,7.645,7.645,0,0,1,1.339.9,2.6,2.6,0,0,1,.606.808A2.273,2.273,0,0,1-403.385,1565.192Z" transform="translate(553.989 -1554.21)"/>
      <path id="Trazado_25352" data-name="Trazado 25352" d="M-396.958,1558.166a2.467,2.467,0,0,1,1.432.431,2.81,2.81,0,0,1,.977,1.245h.1l.584-1.5h1.11l-2.035,9.568h-1.16l.226-1.825h-.068a4.31,4.31,0,0,1-3.293,2,2.305,2.305,0,0,1-1.9-.865,3.7,3.7,0,0,1-.689-2.365,9.006,9.006,0,0,1,.619-3.369,5.84,5.84,0,0,1,1.711-2.436A3.719,3.719,0,0,1-396.958,1558.166Zm-1.659,8.7a2.454,2.454,0,0,0,1.685-.806,6,6,0,0,0,1.362-2.1,6.874,6.874,0,0,0,.523-2.6,2.037,2.037,0,0,0-.488-1.432,1.667,1.667,0,0,0-1.284-.533,2.409,2.409,0,0,0-1.689.751,5.066,5.066,0,0,0-1.227,2.035,8.184,8.184,0,0,0-.445,2.706,2.3,2.3,0,0,0,.41,1.489A1.42,1.42,0,0,0-398.617,1566.868Z" transform="translate(559.023 -1554.21)"/>
      <path id="Trazado_25353" data-name="Trazado 25353" d="M-389.873,1567.841h-6.275l.2-1.022,6.057-7.455h-4.18l.234-1.091h5.737l-.253,1.222-5.937,7.254h4.637Z" transform="translate(562.483 -1554.143)"/>
      <path id="Trazado_25354" data-name="Trazado 25354" d="M-387.552,1558.273l-1.31,6.066a6.5,6.5,0,0,0-.158,1.214,1.12,1.12,0,0,0,1.284,1.248,2.592,2.592,0,0,0,1.51-.523,4.654,4.654,0,0,0,1.31-1.5,8.031,8.031,0,0,0,.865-2.357l.873-4.146h1.45l-2.019,9.568h-1.212l.192-1.773h-.1a5.7,5.7,0,0,1-1.633,1.518,3.274,3.274,0,0,1-1.606.429,2.442,2.442,0,0,1-1.754-.606,2.276,2.276,0,0,1-.639-1.733,8.259,8.259,0,0,1,.192-1.5l1.276-5.9Z" transform="translate(566.012 -1554.143)"/>
      <path id="Trazado_25355" data-name="Trazado 25355" d="M-382.99,1569.386h-1.466l2.9-13.584h1.468Z" transform="translate(569.794 -1555.688)"/>
      <path id="Trazado_25356" data-name="Trazado 25356" d="M-378,1568.082a3.338,3.338,0,0,1-2.524-.952,3.639,3.639,0,0,1-.915-2.636,7.807,7.807,0,0,1,.65-3.145,5.811,5.811,0,0,1,1.724-2.345,3.749,3.749,0,0,1,2.365-.837,3,3,0,0,1,2.007.58,2.019,2.019,0,0,1,.673,1.619,2.773,2.773,0,0,1-1.448,2.467,7.963,7.963,0,0,1-4.148.892h-.288l-.034.7a2.7,2.7,0,0,0,.536,1.786,2.045,2.045,0,0,0,1.663.641,4.331,4.331,0,0,0,1.13-.156,8.676,8.676,0,0,0,1.445-.577v1.274a7.893,7.893,0,0,1-1.45.538A5.839,5.839,0,0,1-378,1568.082Zm1.212-8.669a2.338,2.338,0,0,0-1.689.821,5.366,5.366,0,0,0-1.209,2.279h.1a7.133,7.133,0,0,0,3.052-.518,1.633,1.633,0,0,0,1.061-1.507,1.016,1.016,0,0,0-.32-.767A1.4,1.4,0,0,0-376.79,1559.413Z" transform="translate(571.678 -1554.21)"/>
      <path id="Trazado_25357" data-name="Trazado 25357" d="M-370.156,1565.192a2.562,2.562,0,0,1-.962,2.126,4.294,4.294,0,0,1-2.721.764,5.8,5.8,0,0,1-2.662-.6v-1.38a5.424,5.424,0,0,0,1.318.569,4.833,4.833,0,0,0,1.308.2,2.652,2.652,0,0,0,1.659-.437,1.355,1.355,0,0,0,.559-1.117,1.215,1.215,0,0,0-.306-.839,6.19,6.19,0,0,0-1.318-.933,5.345,5.345,0,0,1-1.607-1.248,2.306,2.306,0,0,1-.471-1.45,2.4,2.4,0,0,1,.883-1.941,3.5,3.5,0,0,1,2.323-.738,6.725,6.725,0,0,1,2.88.645l-.471,1.195-.488-.216a4.834,4.834,0,0,0-1.921-.377,1.948,1.948,0,0,0-1.274.38,1.207,1.207,0,0,0-.463.982,1.212,1.212,0,0,0,.31.839,5.443,5.443,0,0,0,1.277.9,7.549,7.549,0,0,1,1.341.9,2.628,2.628,0,0,1,.606.808A2.3,2.3,0,0,1-370.156,1565.192Z" transform="translate(574.768 -1554.21)"/>
      <path id="Trazado_25358" data-name="Trazado 25358" d="M-488.61,1581.108l1.292-6.041a7.9,7.9,0,0,0,.174-1.256,1.24,1.24,0,0,0-.309-.882,1.3,1.3,0,0,0-.991-.332,2.575,2.575,0,0,0-1.513.523,4.655,4.655,0,0,0-1.3,1.494,7.889,7.889,0,0,0-.852,2.347l-.883,4.148h-1.466l2.043-9.568h1.214l-.192,1.771h.088a5.8,5.8,0,0,1,1.619-1.505,3.245,3.245,0,0,1,1.619-.44,2.441,2.441,0,0,1,1.75.606,2.216,2.216,0,0,1,.64,1.7,7.2,7.2,0,0,1-.2,1.57l-1.248,5.867Z" transform="translate(501.009 -1545.956)"/>
      <path id="Trazado_25359" data-name="Trazado 25359" d="M-484.87,1573.062l-1.308,6.067a6.476,6.476,0,0,0-.158,1.214,1.119,1.119,0,0,0,1.284,1.247,2.6,2.6,0,0,0,1.51-.523,4.65,4.65,0,0,0,1.308-1.5,7.987,7.987,0,0,0,.865-2.357l.874-4.146h1.448l-2.017,9.568h-1.212l.192-1.773h-.1a5.731,5.731,0,0,1-1.633,1.519,3.3,3.3,0,0,1-1.607.428,2.444,2.444,0,0,1-1.754-.607,2.281,2.281,0,0,1-.637-1.733,8.284,8.284,0,0,1,.192-1.5l1.274-5.9Zm1.616-1.5q.49-.524,1.1-1.321t.93-1.307h1.66v.184a16.846,16.846,0,0,1-1.222,1.318,13.431,13.431,0,0,1-1.546,1.362h-.917Z" transform="translate(505.16 -1547.478)"/>
      <path id="Trazado_25360" data-name="Trazado 25360" d="M-476.2,1581.108l1.292-6.041a7.1,7.1,0,0,0,.158-1.18,1.485,1.485,0,0,0-.271-.949,1.116,1.116,0,0,0-.926-.341,2.343,2.343,0,0,0-1.425.523,4.539,4.539,0,0,0-1.222,1.5,8.59,8.59,0,0,0-.816,2.342l-.883,4.148h-1.468l2.043-9.568h1.214l-.192,1.771h.088a5.465,5.465,0,0,1,1.513-1.492,2.973,2.973,0,0,1,1.559-.454,1.987,1.987,0,0,1,1.52.566,2.61,2.61,0,0,1,.629,1.581h.07a5.567,5.567,0,0,1,1.6-1.619,3.2,3.2,0,0,1,1.711-.528,2.352,2.352,0,0,1,1.716.593,2.308,2.308,0,0,1,.606,1.728,8.3,8.3,0,0,1-.193,1.554l-1.256,5.867h-1.484l1.292-6.041a7.856,7.856,0,0,0,.174-1.274,1.228,1.228,0,0,0-.3-.868,1.23,1.23,0,0,0-.948-.328,2.35,2.35,0,0,0-1.4.505,4.422,4.422,0,0,0-1.209,1.437,7.851,7.851,0,0,0-.79,2.2l-.933,4.366Z" transform="translate(508.948 -1545.956)"/>
      <path id="Trazado_25361" data-name="Trazado 25361" d="M-468.52,1581.282a3.334,3.334,0,0,1-2.522-.953,3.636,3.636,0,0,1-.917-2.636,7.837,7.837,0,0,1,.65-3.145,5.841,5.841,0,0,1,1.724-2.345,3.762,3.762,0,0,1,2.365-.837,3,3,0,0,1,2.007.58,2.014,2.014,0,0,1,.675,1.619,2.77,2.77,0,0,1-1.45,2.467,7.958,7.958,0,0,1-4.148.894h-.288l-.034.7a2.7,2.7,0,0,0,.536,1.786,2.045,2.045,0,0,0,1.663.641,4.358,4.358,0,0,0,1.131-.156,8.711,8.711,0,0,0,1.443-.577v1.274a7.865,7.865,0,0,1-1.448.54A5.938,5.938,0,0,1-468.52,1581.282Zm1.212-8.67a2.34,2.34,0,0,0-1.689.821,5.366,5.366,0,0,0-1.209,2.28h.106a7.135,7.135,0,0,0,3.052-.52,1.634,1.634,0,0,0,1.06-1.507,1.02,1.02,0,0,0-.319-.767A1.4,1.4,0,0,0-467.307,1572.613Z" transform="translate(515.078 -1545.956)"/>
      <path id="Trazado_25362" data-name="Trazado 25362" d="M-460.693,1571.366a3.922,3.922,0,0,1,1.047.122l-.314,1.31a3.82,3.82,0,0,0-.918-.115,2.422,2.422,0,0,0-1.487.525,4.565,4.565,0,0,0-1.214,1.453,7.4,7.4,0,0,0-.764,2.066l-.935,4.382h-1.466l2.043-9.568h1.214l-.192,1.771h.086a8.533,8.533,0,0,1,1.039-1.189,3.236,3.236,0,0,1,.86-.559A2.465,2.465,0,0,1-460.693,1571.366Z" transform="translate(518.339 -1545.956)"/>
      <path id="Trazado_25363" data-name="Trazado 25363" d="M-457.42,1571.4a3.494,3.494,0,0,1,2.618.982,3.7,3.7,0,0,1,.961,2.7,7.769,7.769,0,0,1-.627,3.1,5.375,5.375,0,0,1-1.7,2.253,3.978,3.978,0,0,1-2.427.795,3.471,3.471,0,0,1-2.628-.988,3.722,3.722,0,0,1-.952-2.7,7.713,7.713,0,0,1,.639-3.12,5.293,5.293,0,0,1,1.72-2.245A4.012,4.012,0,0,1-457.42,1571.4Zm2.061,3.483a2.384,2.384,0,0,0-.546-1.627,1.862,1.862,0,0,0-1.479-.626,2.565,2.565,0,0,0-1.708.645,4.174,4.174,0,0,0-1.17,1.8,7.466,7.466,0,0,0-.414,2.552,2.577,2.577,0,0,0,.554,1.768,2.022,2.022,0,0,0,1.593.624,2.407,2.407,0,0,0,1.633-.637,4.183,4.183,0,0,0,1.131-1.811A8.227,8.227,0,0,0-455.359,1574.881Z" transform="translate(521.194 -1545.936)"/>
      <path id="Trazado_25364" data-name="Trazado 25364" d="M-450.531,1580.865a4.659,4.659,0,0,0,1.258-.228v1.128a4.325,4.325,0,0,1-.733.209,3.857,3.857,0,0,1-.7.086,2.427,2.427,0,0,1-1.671-.519,1.972,1.972,0,0,1-.582-1.55,6.279,6.279,0,0,1,.158-1.31l1.11-5.255h-1.5l.122-.637,1.614-.681,1.092-1.99h.855l-.481,2.2h2.392l-.228,1.109h-2.381l-1.128,5.272a6.241,6.241,0,0,0-.156,1.152,1.03,1.03,0,0,0,.254.751A.937.937,0,0,0-450.531,1580.865Z" transform="translate(526.813 -1546.735)"/>
      <path id="Trazado_25365" data-name="Trazado 25365" d="M-444.826,1571.4a3.491,3.491,0,0,1,2.618.982,3.691,3.691,0,0,1,.961,2.7,7.742,7.742,0,0,1-.629,3.1,5.359,5.359,0,0,1-1.7,2.253,3.975,3.975,0,0,1-2.427.795,3.476,3.476,0,0,1-2.628-.988,3.721,3.721,0,0,1-.951-2.7,7.74,7.74,0,0,1,.637-3.12,5.293,5.293,0,0,1,1.72-2.245A4.015,4.015,0,0,1-444.826,1571.4Zm2.059,3.483a2.375,2.375,0,0,0-.544-1.627,1.861,1.861,0,0,0-1.481-.626,2.567,2.567,0,0,0-1.707.645,4.173,4.173,0,0,0-1.169,1.8,7.465,7.465,0,0,0-.414,2.552,2.569,2.569,0,0,0,.554,1.768,2.015,2.015,0,0,0,1.593.624,2.409,2.409,0,0,0,1.632-.637,4.169,4.169,0,0,0,1.131-1.811A8.228,8.228,0,0,0-442.767,1574.881Z" transform="translate(529.07 -1545.936)"/>
      <path id="Trazado_25366" data-name="Trazado 25366" d="M-440.791,1580.865a4.67,4.67,0,0,0,1.256-.228v1.128a4.371,4.371,0,0,1-.733.209,3.857,3.857,0,0,1-.7.086,2.429,2.429,0,0,1-1.672-.519,1.982,1.982,0,0,1-.58-1.55,6.389,6.389,0,0,1,.158-1.31l1.108-5.255h-1.5l.122-.637,1.616-.681,1.091-1.99h.857l-.479,2.2h2.391l-.226,1.109h-2.384l-1.125,5.272a6.136,6.136,0,0,0-.158,1.152,1.043,1.043,0,0,0,.252.751A.945.945,0,0,0-440.791,1580.865Z" transform="translate(532.902 -1546.735)"/>
      <path id="Trazado_25367" data-name="Trazado 25367" d="M-435.121,1571.366a2.475,2.475,0,0,1,1.43.431,2.826,2.826,0,0,1,.978,1.245h.1l.585-1.5h1.108l-2.033,9.568h-1.162l.226-1.825h-.07a4.3,4.3,0,0,1-3.29,2,2.3,2.3,0,0,1-1.9-.865,3.692,3.692,0,0,1-.691-2.365,8.974,8.974,0,0,1,.621-3.369,5.814,5.814,0,0,1,1.711-2.437A3.714,3.714,0,0,1-435.121,1571.366Zm-1.659,8.7a2.456,2.456,0,0,0,1.684-.806,5.99,5.99,0,0,0,1.362-2.1,6.87,6.87,0,0,0,.523-2.6,2.023,2.023,0,0,0-.488-1.432,1.658,1.658,0,0,0-1.282-.533,2.41,2.41,0,0,0-1.69.749,5.063,5.063,0,0,0-1.225,2.035,8.186,8.186,0,0,0-.447,2.706,2.282,2.282,0,0,0,.411,1.489A1.41,1.41,0,0,0-436.781,1580.068Z" transform="translate(535.158 -1545.956)"/>
      <path id="Trazado_25368" data-name="Trazado 25368" d="M-432.385,1582.586h-1.466l2.9-13.584h1.466Z" transform="translate(538.907 -1547.434)"/>
      <path id="Trazado_25369" data-name="Trazado 25369" d="M-423.259,1572.86a2.548,2.548,0,0,1,2.454,1.659h.086a20.176,20.176,0,0,1,.393-2.392l.681-3.126h1.448l-2.88,13.584h-1.212l.192-1.825h-.07a6.58,6.58,0,0,1-1.651,1.546,3.08,3.08,0,0,1-1.588.454,2.284,2.284,0,0,1-1.893-.855,3.717,3.717,0,0,1-.681-2.375,9.052,9.052,0,0,1,.627-3.421,5.713,5.713,0,0,1,1.7-2.4A3.767,3.767,0,0,1-423.259,1572.86Zm-1.659,8.686a2.536,2.536,0,0,0,1.694-.816,5.7,5.7,0,0,0,1.385-2.085,6.874,6.874,0,0,0,.51-2.589,2.088,2.088,0,0,0-.471-1.476,1.783,1.783,0,0,0-1.37-.505,2.335,2.335,0,0,0-1.637.72,5.049,5.049,0,0,0-1.212,2.025,8.184,8.184,0,0,0-.46,2.745Q-426.48,1581.547-424.918,1581.546Z" transform="translate(542.578 -1547.434)"/>
      <path id="Trazado_25370" data-name="Trazado 25370" d="M-418.193,1581.282a3.334,3.334,0,0,1-2.522-.953,3.636,3.636,0,0,1-.917-2.636,7.81,7.81,0,0,1,.652-3.145,5.823,5.823,0,0,1,1.723-2.345,3.765,3.765,0,0,1,2.365-.837,3,3,0,0,1,2.009.58,2.018,2.018,0,0,1,.673,1.619,2.77,2.77,0,0,1-1.45,2.467,7.958,7.958,0,0,1-4.148.894h-.286l-.036.7a2.7,2.7,0,0,0,.536,1.786,2.046,2.046,0,0,0,1.664.641,4.345,4.345,0,0,0,1.13-.156,8.771,8.771,0,0,0,1.445-.577v1.274a7.876,7.876,0,0,1-1.45.54A5.939,5.939,0,0,1-418.193,1581.282Zm1.214-8.67a2.341,2.341,0,0,0-1.69.821,5.365,5.365,0,0,0-1.209,2.28h.106a7.136,7.136,0,0,0,3.052-.52,1.633,1.633,0,0,0,1.06-1.507,1.013,1.013,0,0,0-.319-.767A1.4,1.4,0,0,0-416.979,1572.613Z" transform="translate(546.548 -1545.956)"/>
      <path id="Trazado_25371" data-name="Trazado 25371" d="M-409.316,1582.76a2.549,2.549,0,0,1-1.487-.446,2.719,2.719,0,0,1-.965-1.212h-.088l-.611,1.484h-1.092l2.882-13.584h1.466q-.444,2.114-.684,3.236t-.66,2.621h.08a6.422,6.422,0,0,1,1.6-1.515,3.094,3.094,0,0,1,1.629-.484,2.319,2.319,0,0,1,1.921.865,3.718,3.718,0,0,1,.689,2.375,9.3,9.3,0,0,1-.6,3.374,5.668,5.668,0,0,1-1.669,2.419A3.726,3.726,0,0,1-409.316,1582.76Zm1.624-8.686a2.519,2.519,0,0,0-1.707.829,5.928,5.928,0,0,0-1.38,2.087,6.789,6.789,0,0,0-.51,2.574,2.061,2.061,0,0,0,.486,1.473,1.837,1.837,0,0,0,1.4.509,2.3,2.3,0,0,0,1.611-.705,4.946,4.946,0,0,0,1.2-2.014,8.377,8.377,0,0,0,.453-2.771Q-406.139,1574.074-407.693,1574.075Z" transform="translate(551.595 -1547.434)"/>
      <path id="Trazado_25372" data-name="Trazado 25372" d="M-402.28,1571.366a2.48,2.48,0,0,1,1.432.431,2.815,2.815,0,0,1,.978,1.245h.1l.585-1.5h1.108l-2.035,9.568h-1.159l.226-1.825h-.07a4.305,4.305,0,0,1-3.291,2,2.3,2.3,0,0,1-1.9-.865,3.7,3.7,0,0,1-.689-2.365,9.006,9.006,0,0,1,.619-3.369,5.829,5.829,0,0,1,1.711-2.437A3.719,3.719,0,0,1-402.28,1571.366Zm-1.658,8.7a2.456,2.456,0,0,0,1.685-.806,5.991,5.991,0,0,0,1.362-2.1,6.871,6.871,0,0,0,.523-2.6,2.024,2.024,0,0,0-.489-1.432,1.659,1.659,0,0,0-1.284-.533,2.41,2.41,0,0,0-1.689.749,5.1,5.1,0,0,0-1.227,2.035,8.224,8.224,0,0,0-.444,2.706,2.292,2.292,0,0,0,.41,1.489A1.414,1.414,0,0,0-403.937,1580.068Z" transform="translate(555.696 -1545.956)"/>
      <path id="Trazado_25373" data-name="Trazado 25373" d="M-399.539,1582.586h-1.468l2.9-13.584h1.468Z" transform="translate(559.444 -1547.434)"/>
      <path id="Trazado_25374" data-name="Trazado 25374" d="M-393.235,1571.4a3.5,3.5,0,0,1,2.618.982,3.7,3.7,0,0,1,.96,2.7,7.742,7.742,0,0,1-.629,3.1,5.361,5.361,0,0,1-1.7,2.253,3.971,3.971,0,0,1-2.427.795,3.469,3.469,0,0,1-2.626-.988,3.715,3.715,0,0,1-.952-2.7,7.712,7.712,0,0,1,.639-3.12,5.29,5.29,0,0,1,1.718-2.245A4.017,4.017,0,0,1-393.235,1571.4Zm2.059,3.483a2.376,2.376,0,0,0-.546-1.627,1.858,1.858,0,0,0-1.479-.626,2.571,2.571,0,0,0-1.708.645,4.187,4.187,0,0,0-1.169,1.8,7.465,7.465,0,0,0-.414,2.552,2.577,2.577,0,0,0,.554,1.768,2.017,2.017,0,0,0,1.593.624,2.413,2.413,0,0,0,1.633-.637,4.181,4.181,0,0,0,1.13-1.811A8.227,8.227,0,0,0-391.176,1574.881Z" transform="translate(561.328 -1545.936)"/>
      <path id="Trazado_25375" data-name="Trazado 25375" d="M-386.184,1581.108l1.292-6.041a7.772,7.772,0,0,0,.176-1.256,1.241,1.241,0,0,0-.31-.882,1.3,1.3,0,0,0-.99-.332,2.583,2.583,0,0,0-1.515.523,4.671,4.671,0,0,0-1.3,1.494,7.845,7.845,0,0,0-.852,2.347l-.883,4.148h-1.466l2.043-9.568h1.214l-.192,1.771h.086a5.843,5.843,0,0,1,1.619-1.505,3.254,3.254,0,0,1,1.619-.44,2.443,2.443,0,0,1,1.752.606,2.222,2.222,0,0,1,.64,1.7,7.194,7.194,0,0,1-.2,1.57l-1.248,5.867Z" transform="translate(565.056 -1545.956)"/>
      <path id="Trazado_25376" data-name="Trazado 25376" d="M-382.033,1581.282a3.336,3.336,0,0,1-2.524-.953,3.636,3.636,0,0,1-.917-2.636,7.81,7.81,0,0,1,.652-3.145,5.823,5.823,0,0,1,1.723-2.345,3.765,3.765,0,0,1,2.365-.837,3,3,0,0,1,2.009.58,2.018,2.018,0,0,1,.673,1.619,2.77,2.77,0,0,1-1.45,2.467,7.952,7.952,0,0,1-4.146.894h-.288l-.036.7a2.712,2.712,0,0,0,.536,1.786,2.047,2.047,0,0,0,1.664.641,4.345,4.345,0,0,0,1.13-.156,8.77,8.77,0,0,0,1.445-.577v1.274a7.876,7.876,0,0,1-1.45.54A5.934,5.934,0,0,1-382.033,1581.282Zm1.212-8.67a2.338,2.338,0,0,0-1.689.821,5.331,5.331,0,0,0-1.209,2.28h.1a7.136,7.136,0,0,0,3.052-.52,1.634,1.634,0,0,0,1.06-1.507,1.013,1.013,0,0,0-.319-.767A1.4,1.4,0,0,0-380.821,1572.613Z" transform="translate(569.157 -1545.956)"/>
      <path id="Trazado_25377" data-name="Trazado 25377" d="M-374.187,1578.392a2.562,2.562,0,0,1-.964,2.128,4.3,4.3,0,0,1-2.719.762,5.8,5.8,0,0,1-2.662-.6V1579.3a5.483,5.483,0,0,0,1.317.567,4.848,4.848,0,0,0,1.31.2,2.665,2.665,0,0,0,1.659-.436,1.359,1.359,0,0,0,.558-1.118,1.206,1.206,0,0,0-.3-.837,6.132,6.132,0,0,0-1.32-.935,5.289,5.289,0,0,1-1.606-1.248,2.3,2.3,0,0,1-.471-1.45,2.4,2.4,0,0,1,.883-1.941,3.5,3.5,0,0,1,2.323-.738,6.753,6.753,0,0,1,2.88.645l-.471,1.2-.489-.218a4.822,4.822,0,0,0-1.919-.377,1.946,1.946,0,0,0-1.276.382,1.205,1.205,0,0,0-.463.98,1.215,1.215,0,0,0,.312.839,5.462,5.462,0,0,0,1.278.9,7.434,7.434,0,0,1,1.341.9,2.667,2.667,0,0,1,.606.808A2.3,2.3,0,0,1-374.187,1578.392Z" transform="translate(572.247 -1545.956)"/>
    </g>
    <path id="Trazado_25378" data-name="Trazado 25378" d="M-324.647,1567.483v1.152h46.071v-1.152h-46.071" transform="translate(1057.5 157.711)" fill-rule="evenodd"/>
    <path id="Trazado_25379" data-name="Trazado 25379" d="M-499.1,1567.483v1.152h207.322v-1.152H-499.1" transform="translate(948.415 157.711)" fill-rule="evenodd"/>
    <g id="Grupo_14674" data-name="Grupo 14674" transform="translate(752.444 1706.846)">
      <path id="Trazado_25380" data-name="Trazado 25380" d="M-304.746,1569.141h-7.847l.27-1.284,4.06-3.667c.595-.541,1.107-1.016,1.542-1.427a10.507,10.507,0,0,0,1.073-1.16,4.28,4.28,0,0,0,.627-1.083,3.327,3.327,0,0,0,.2-1.191,1.818,1.818,0,0,0-.523-1.372,1.965,1.965,0,0,0-1.422-.507,3.605,3.605,0,0,0-1.313.25,5.948,5.948,0,0,0-1.419.842l-.717-1a5.641,5.641,0,0,1,3.607-1.344,3.6,3.6,0,0,1,2.431.772,2.668,2.668,0,0,1,.894,2.126,4.52,4.52,0,0,1-.345,1.781,6.614,6.614,0,0,1-1.143,1.719,29.633,29.633,0,0,1-2.571,2.453l-3.073,2.682v.07h5.919Z" transform="translate(312.593 -1556.194)"/>
      <path id="Trazado_25381" data-name="Trazado 25381" d="M-307.705,1574.474a3.462,3.462,0,0,1,2.526.913,3.278,3.278,0,0,1,.939,2.465,4.727,4.727,0,0,1-.637,2.471,3.97,3.97,0,0,1-1.781,1.593,6.347,6.347,0,0,1-2.688.528,5.651,5.651,0,0,1-2.88-.691v-1.43a5.454,5.454,0,0,0,2.914.889,3.761,3.761,0,0,0,2.6-.837,2.981,2.981,0,0,0,.933-2.34,2.355,2.355,0,0,0-.64-1.741,2.413,2.413,0,0,0-1.786-.64,6.218,6.218,0,0,0-.845.057,9.823,9.823,0,0,0-1.214.265l-.647-.5,1.721-5.972h5.832l-.289,1.336H-308.2l-1.108,3.833A6.217,6.217,0,0,1-307.705,1574.474Z" transform="translate(312.822 -1547.869)"/>
    </g>
    <g id="Grupo_14675" data-name="Grupo 14675" transform="translate(290.874 1717.911)">
      <path id="Trazado_25382" data-name="Trazado 25382" d="M-588.264,1572.8a3.3,3.3,0,0,1-1.243,2.724,5.409,5.409,0,0,1-3.462.995,8.132,8.132,0,0,1-3.615-.767v-2.514a15.237,15.237,0,0,0,2.188.813,6.6,6.6,0,0,0,1.637.234,2.334,2.334,0,0,0,1.365-.34,1.162,1.162,0,0,0,.476-1.013,1.128,1.128,0,0,0-.208-.668,2.4,2.4,0,0,0-.616-.564,15.889,15.889,0,0,0-1.655-.863,7.844,7.844,0,0,1-1.755-1.056,3.948,3.948,0,0,1-.933-1.179,3.347,3.347,0,0,1-.349-1.571,3.3,3.3,0,0,1,1.147-2.662,4.767,4.767,0,0,1,3.173-.97,7.461,7.461,0,0,1,1.9.237,12.746,12.746,0,0,1,1.89.663l-.873,2.105a13.147,13.147,0,0,0-1.689-.587,5.441,5.441,0,0,0-1.315-.166,1.744,1.744,0,0,0-1.177.358,1.178,1.178,0,0,0-.411.935,1.154,1.154,0,0,0,.166.624,1.8,1.8,0,0,0,.528.515,16.5,16.5,0,0,0,1.715.9,6.816,6.816,0,0,1,2.454,1.715A3.35,3.35,0,0,1-588.264,1572.8Z" transform="translate(596.584 -1562.757)"/>
      <path id="Trazado_25383" data-name="Trazado 25383" d="M-585.525,1575.359a5.037,5.037,0,0,1-3.684-1.3,4.93,4.93,0,0,1-1.326-3.683,5.417,5.417,0,0,1,1.227-3.793,4.364,4.364,0,0,1,3.392-1.339,4.3,4.3,0,0,1,3.22,1.177,4.46,4.46,0,0,1,1.152,3.257v1.292h-6.293a2.564,2.564,0,0,0,.671,1.772,2.364,2.364,0,0,0,1.763.639,7.346,7.346,0,0,0,1.669-.186,8.383,8.383,0,0,0,1.64-.583v2.059a6.366,6.366,0,0,1-1.494.52A9.477,9.477,0,0,1-585.525,1575.359Zm-.375-8.222a1.686,1.686,0,0,0-1.326.536,2.488,2.488,0,0,0-.551,1.523h3.737a2.218,2.218,0,0,0-.514-1.523A1.747,1.747,0,0,0-585.9,1567.136Z" transform="translate(600.366 -1561.601)"/>
      <path id="Trazado_25384" data-name="Trazado 25384" d="M-576.623,1575.359q-4.557,0-4.557-5a5.343,5.343,0,0,1,1.24-3.8,4.651,4.651,0,0,1,3.555-1.312,6.762,6.762,0,0,1,3.038.663l-.786,2.059c-.418-.169-.81-.307-1.169-.415a3.74,3.74,0,0,0-1.082-.162q-2.08,0-2.079,2.952,0,2.862,2.079,2.863a4.746,4.746,0,0,0,1.422-.206,5.165,5.165,0,0,0,1.308-.64v2.279a4.31,4.31,0,0,1-1.3.567A7.393,7.393,0,0,1-576.623,1575.359Z" transform="translate(606.216 -1561.601)"/>
      <path id="Trazado_25385" data-name="Trazado 25385" d="M-568.712,1575.193l-.515-1.328h-.07a3.934,3.934,0,0,1-1.383,1.175,4.476,4.476,0,0,1-1.854.327,3.005,3.005,0,0,1-2.214-.8,3.08,3.08,0,0,1-.808-2.287,2.573,2.573,0,0,1,1.087-2.292,6.288,6.288,0,0,1,3.278-.816l1.694-.052v-.429a1.327,1.327,0,0,0-1.52-1.482,6.914,6.914,0,0,0-2.75.705l-.881-1.8a7.942,7.942,0,0,1,3.737-.883,4.648,4.648,0,0,1,3.01.857,3.159,3.159,0,0,1,1.048,2.6v6.5Zm-.785-4.522-1.03.034a3.307,3.307,0,0,0-1.728.419,1.311,1.311,0,0,0-.569,1.17c0,.751.432,1.126,1.292,1.126a2.043,2.043,0,0,0,1.481-.533,1.875,1.875,0,0,0,.554-1.414Z" transform="translate(609.733 -1561.608)"/>
      <path id="Trazado_25386" data-name="Trazado 25386" d="M-565.851,1576.586h-2.664V1563h2.664Z" transform="translate(614.135 -1563.002)"/>
      <path id="Trazado_25387" data-name="Trazado 25387" d="M-560.966,1575.359q-4.557,0-4.556-5a5.342,5.342,0,0,1,1.238-3.8,4.649,4.649,0,0,1,3.553-1.312,6.752,6.752,0,0,1,3.038.663l-.785,2.059c-.419-.169-.808-.307-1.17-.415a3.716,3.716,0,0,0-1.082-.162q-2.077,0-2.077,2.952,0,2.862,2.077,2.863a4.747,4.747,0,0,0,1.424-.206,5.164,5.164,0,0,0,1.308-.64v2.279a4.345,4.345,0,0,1-1.3.567A7.4,7.4,0,0,1-560.966,1575.359Z" transform="translate(616.007 -1561.601)"/>
      <path id="Trazado_25388" data-name="Trazado 25388" d="M-552.568,1575.115l-.358-1.248h-.14a2.8,2.8,0,0,1-1.214,1.051,4.141,4.141,0,0,1-1.788.37,3.407,3.407,0,0,1-2.594-.92,3.717,3.717,0,0,1-.873-2.651v-6.363h2.664v5.7a2.752,2.752,0,0,0,.374,1.585,1.365,1.365,0,0,0,1.2.53,1.8,1.8,0,0,0,1.616-.748,4.634,4.634,0,0,0,.5-2.475v-4.592h2.662v9.76Z" transform="translate(619.751 -1561.531)"/>
      <path id="Trazado_25389" data-name="Trazado 25389" d="M-549.61,1576.586h-2.662V1563h2.662Z" transform="translate(624.292 -1563.002)"/>
      <path id="Trazado_25390" data-name="Trazado 25390" d="M-542.468,1575.193l-.517-1.328h-.07a3.931,3.931,0,0,1-1.382,1.175,4.484,4.484,0,0,1-1.856.327,3,3,0,0,1-2.212-.8,3.079,3.079,0,0,1-.808-2.287,2.57,2.57,0,0,1,1.087-2.292,6.277,6.277,0,0,1,3.277-.816l1.694-.052v-.429a1.326,1.326,0,0,0-1.518-1.482,6.92,6.92,0,0,0-2.752.705l-.881-1.8a7.947,7.947,0,0,1,3.737-.883,4.653,4.653,0,0,1,3.012.857,3.162,3.162,0,0,1,1.047,2.6v6.5Zm-.787-4.522-1.03.034a3.307,3.307,0,0,0-1.728.419,1.311,1.311,0,0,0-.569,1.17c0,.751.432,1.126,1.292,1.126a2.043,2.043,0,0,0,1.481-.533,1.875,1.875,0,0,0,.554-1.414Z" transform="translate(626.143 -1561.608)"/>
      <path id="Trazado_25391" data-name="Trazado 25391" d="M-530.468,1567.489a3.9,3.9,0,0,1-1.287,3.15,5.507,5.507,0,0,1-3.662,1.092h-1.162v4.539h-2.706v-12.763h4.078a5.411,5.411,0,0,1,3.53,1A3.644,3.644,0,0,1-530.468,1567.489Zm-6.111,2.025h.891a2.966,2.966,0,0,0,1.868-.494,1.721,1.721,0,0,0,.621-1.435,1.763,1.763,0,0,0-.52-1.406,2.424,2.424,0,0,0-1.627-.454h-1.232Z" transform="translate(632.413 -1562.686)"/>
      <path id="Trazado_25392" data-name="Trazado 25392" d="M-530.068,1571.372a13.517,13.517,0,0,1,.676-4.33,10.759,10.759,0,0,1,1.952-3.535h2.183a12.582,12.582,0,0,0-1.861,3.7,13.841,13.841,0,0,0-.629,4.146,13.422,13.422,0,0,0,.642,4.133,12.524,12.524,0,0,0,1.83,3.61h-2.165a10.256,10.256,0,0,1-1.955-3.467A13.1,13.1,0,0,1-530.068,1571.372Z" transform="translate(638.176 -1562.686)"/>
      <path id="Trazado_25393" data-name="Trazado 25393" d="M-517.361,1576.291l-.926-3.038h-4.653l-.925,3.038h-2.916l4.5-12.816h3.309l4.523,12.816Zm-1.572-5.308q-1.282-4.127-1.446-4.67c-.106-.361-.184-.647-.229-.856q-.288,1.119-1.651,5.526Z" transform="translate(640.232 -1562.706)"/>
      <path id="Trazado_25394" data-name="Trazado 25394" d="M-511.2,1571.372a13.137,13.137,0,0,1-.676,4.28,10.228,10.228,0,0,1-1.952,3.447h-2.165a12.656,12.656,0,0,0,1.825-3.6,13.351,13.351,0,0,0,.645-4.141,13.839,13.839,0,0,0-.627-4.146,12.583,12.583,0,0,0-1.861-3.7h2.183a10.7,10.7,0,0,1,1.955,3.55A13.573,13.573,0,0,1-511.2,1571.372Z" transform="translate(646.969 -1562.686)"/>
      <path id="Trazado_25395" data-name="Trazado 25395" d="M-508.974,1567.445v-2.085h9.458v2.085Zm0,3.687v-2.087h9.458v2.087Z" transform="translate(651.366 -1561.528)"/>
    </g>
    <g id="Grupo_14676" data-name="Grupo 14676" transform="translate(669.067 1718.025)">
      <path id="Trazado_25396" data-name="Trazado 25396" d="M-363.892,1577.392a34.664,34.664,0,0,0,1.422-5.536l2.982-.2a26.958,26.958,0,0,1-2.454,5.555Zm2.77-8.4a1.674,1.674,0,0,1-1.716-1.773,1.683,1.683,0,0,1,1.734-1.794,1.685,1.685,0,0,1,1.736,1.794,1.679,1.679,0,0,1-1.736,1.773Z" transform="translate(363.892 -1561.602)"/>
      <path id="Trazado_25397" data-name="Trazado 25397" d="M-357.58,1563.489a24.249,24.249,0,0,1,4.016-.273,6.3,6.3,0,0,1,4.014,1.053,3.842,3.842,0,0,1,1.4,3.041,4.2,4.2,0,0,1-1.208,3.119,6.1,6.1,0,0,1-4.27,1.383,7.212,7.212,0,0,1-1.014-.058v4.7h-2.943Zm2.943,5.964a4.527,4.527,0,0,0,.995.078c1.578,0,2.552-.8,2.552-2.144,0-1.207-.837-1.931-2.319-1.931a5.047,5.047,0,0,0-1.227.117Z" transform="translate(367.839 -1562.982)"/>
      <path id="Trazado_25398" data-name="Trazado 25398" d="M-346.392,1563.072a14.875,14.875,0,0,0-1.968,7.9,15.032,15.032,0,0,0,1.968,7.835h-2.066a13.547,13.547,0,0,1-2.223-7.857,13.77,13.77,0,0,1,2.223-7.875Z" transform="translate(372.153 -1563.072)"/>
      <path id="Trazado_25399" data-name="Trazado 25399" d="M-343.64,1573.042l-.938,3.372h-3.078l4.016-13.139h3.9l4.075,13.139h-3.2l-1.014-3.372Zm3.332-2.224-.819-2.786c-.232-.78-.466-1.754-.661-2.536h-.039c-.2.782-.39,1.775-.6,2.536l-.78,2.786Z" transform="translate(374.044 -1562.944)"/>
      <path id="Trazado_25400" data-name="Trazado 25400" d="M-339.784,1578.8a15.264,15.264,0,0,0,1.97-7.875,15.061,15.061,0,0,0-1.97-7.857h2.066a13.6,13.6,0,0,1,2.223,7.857,13.868,13.868,0,0,1-2.223,7.875Z" transform="translate(378.967 -1563.072)"/>
      <path id="Trazado_25401" data-name="Trazado 25401" d="M-333.532,1568.16v-1.814h10.057v1.814Zm0,4.035v-1.812h10.057v1.812Z" transform="translate(382.876 -1561.025)"/>
    </g>
  </g>
</svg>
