<svg xmlns="http://www.w3.org/2000/svg" width="736.836" height="39.448" viewBox="0 0 736.836 39.448">
  <g id="Grupo_14723" data-name="Grupo 14723" transform="translate(-290.874 -1775.202)">
    <g id="Grupo_14677" data-name="Grupo 14677" transform="translate(475.217 1775.202)">
      <path id="Trazado_25402" data-name="Trazado 25402" d="M-446.541,1610.427l1.292-6.041a8.082,8.082,0,0,0,.174-1.257,1.243,1.243,0,0,0-.309-.882,1.3,1.3,0,0,0-.99-.332,2.579,2.579,0,0,0-1.515.523,4.667,4.667,0,0,0-1.3,1.494,7.858,7.858,0,0,0-.85,2.347l-.883,4.148h-1.468l2.043-9.568h1.214l-.193,1.771h.089a5.834,5.834,0,0,1,1.619-1.5,3.23,3.23,0,0,1,1.619-.442,2.432,2.432,0,0,1,1.749.606,2.221,2.221,0,0,1,.644,1.7,7.124,7.124,0,0,1-.2,1.571l-1.248,5.866Z" transform="translate(502.405 -1596.729)"/>
      <path id="Trazado_25403" data-name="Trazado 25403" d="M-442.8,1602.381l-1.31,6.068a6.478,6.478,0,0,0-.158,1.214,1.119,1.119,0,0,0,1.284,1.248,2.6,2.6,0,0,0,1.51-.525,4.661,4.661,0,0,0,1.31-1.5,8.015,8.015,0,0,0,.863-2.357l.873-4.146h1.451l-2.019,9.568h-1.214l.193-1.773h-.1a5.707,5.707,0,0,1-1.633,1.52,3.276,3.276,0,0,1-1.606.429,2.441,2.441,0,0,1-1.754-.606,2.279,2.279,0,0,1-.639-1.734,8.144,8.144,0,0,1,.192-1.5l1.274-5.9Zm1.614-1.5q.49-.524,1.1-1.323t.93-1.307h1.659v.185a16.159,16.159,0,0,1-1.222,1.317,13,13,0,0,1-1.546,1.362h-.917Z" transform="translate(506.557 -1598.251)"/>
      <path id="Trazado_25404" data-name="Trazado 25404" d="M-434.13,1610.427l1.29-6.041a7.054,7.054,0,0,0,.156-1.178,1.494,1.494,0,0,0-.27-.951,1.115,1.115,0,0,0-.925-.341,2.343,2.343,0,0,0-1.427.523,4.568,4.568,0,0,0-1.222,1.5,8.538,8.538,0,0,0-.816,2.342l-.883,4.148h-1.466l2.043-9.568h1.214l-.2,1.771h.089a5.445,5.445,0,0,1,1.515-1.492,2.984,2.984,0,0,1,1.559-.453,1.973,1.973,0,0,1,1.516.567,2.583,2.583,0,0,1,.629,1.58h.07a5.629,5.629,0,0,1,1.6-1.619,3.2,3.2,0,0,1,1.711-.528,2.351,2.351,0,0,1,1.716.593,2.315,2.315,0,0,1,.606,1.729,8.288,8.288,0,0,1-.192,1.554l-1.258,5.866h-1.484l1.292-6.041a7.889,7.889,0,0,0,.176-1.274,1.234,1.234,0,0,0-.3-.868,1.221,1.221,0,0,0-.946-.328,2.341,2.341,0,0,0-1.4.505,4.4,4.4,0,0,0-1.211,1.437,7.9,7.9,0,0,0-.79,2.206l-.933,4.364Z" transform="translate(510.345 -1596.729)"/>
      <path id="Trazado_25405" data-name="Trazado 25405" d="M-426.451,1610.6a3.34,3.34,0,0,1-2.522-.952,3.641,3.641,0,0,1-.917-2.636,7.819,7.819,0,0,1,.652-3.147,5.774,5.774,0,0,1,1.723-2.344,3.754,3.754,0,0,1,2.365-.839,3.007,3.007,0,0,1,2.009.58,2.023,2.023,0,0,1,.671,1.62,2.767,2.767,0,0,1-1.448,2.466,7.954,7.954,0,0,1-4.148.894h-.286l-.036.7a2.7,2.7,0,0,0,.536,1.784,2.045,2.045,0,0,0,1.664.642,4.287,4.287,0,0,0,1.13-.158,8.58,8.58,0,0,0,1.445-.575v1.274a8.015,8.015,0,0,1-1.45.538A5.929,5.929,0,0,1-426.451,1610.6Zm1.214-8.669a2.34,2.34,0,0,0-1.69.821,5.327,5.327,0,0,0-1.208,2.279h.1a7.169,7.169,0,0,0,3.052-.518,1.638,1.638,0,0,0,1.06-1.507,1.016,1.016,0,0,0-.32-.769A1.391,1.391,0,0,0-425.237,1601.933Z" transform="translate(516.474 -1596.729)"/>
      <path id="Trazado_25406" data-name="Trazado 25406" d="M-418.624,1600.685a3.937,3.937,0,0,1,1.047.122l-.314,1.31a3.815,3.815,0,0,0-.917-.114,2.421,2.421,0,0,0-1.489.523,4.556,4.556,0,0,0-1.212,1.453,7.4,7.4,0,0,0-.766,2.066l-.933,4.382h-1.468l2.043-9.568h1.214l-.193,1.771h.089a8.567,8.567,0,0,1,1.037-1.19,3.2,3.2,0,0,1,.861-.559A2.442,2.442,0,0,1-418.624,1600.685Z" transform="translate(519.735 -1596.729)"/>
      <path id="Trazado_25407" data-name="Trazado 25407" d="M-415.353,1600.717a3.489,3.489,0,0,1,2.62.983,3.693,3.693,0,0,1,.962,2.7,7.735,7.735,0,0,1-.629,3.1,5.354,5.354,0,0,1-1.7,2.253,3.975,3.975,0,0,1-2.427.795,3.477,3.477,0,0,1-2.628-.987,3.724,3.724,0,0,1-.951-2.7,7.753,7.753,0,0,1,.635-3.12,5.3,5.3,0,0,1,1.721-2.245A4,4,0,0,1-415.353,1600.717Zm2.061,3.483a2.381,2.381,0,0,0-.544-1.627,1.861,1.861,0,0,0-1.481-.626,2.559,2.559,0,0,0-1.707.647,4.161,4.161,0,0,0-1.17,1.794,7.472,7.472,0,0,0-.413,2.552,2.584,2.584,0,0,0,.553,1.768,2.024,2.024,0,0,0,1.594.624,2.406,2.406,0,0,0,1.632-.637,4.147,4.147,0,0,0,1.131-1.811A8.22,8.22,0,0,0-413.293,1604.2Z" transform="translate(522.591 -1596.709)"/>
      <path id="Trazado_25408" data-name="Trazado 25408" d="M-406.358,1602.181a2.547,2.547,0,0,1,2.454,1.658h.086a20.146,20.146,0,0,1,.393-2.391l.681-3.125h1.448l-2.88,13.583h-1.214l.193-1.825h-.07a6.575,6.575,0,0,1-1.65,1.546,3.087,3.087,0,0,1-1.59.455,2.285,2.285,0,0,1-1.894-.856,3.723,3.723,0,0,1-.683-2.375,9.036,9.036,0,0,1,.629-3.421,5.711,5.711,0,0,1,1.7-2.4A3.771,3.771,0,0,1-406.358,1602.181Zm-1.658,8.686a2.539,2.539,0,0,0,1.694-.816,5.747,5.747,0,0,0,1.383-2.087,6.9,6.9,0,0,0,.512-2.588,2.1,2.1,0,0,0-.473-1.477,1.788,1.788,0,0,0-1.37-.505,2.337,2.337,0,0,0-1.637.72,5.064,5.064,0,0,0-1.212,2.025,8.2,8.2,0,0,0-.46,2.747Q-409.579,1610.865-408.016,1610.866Z" transform="translate(528.236 -1598.207)"/>
      <path id="Trazado_25409" data-name="Trazado 25409" d="M-401.294,1610.6a3.342,3.342,0,0,1-2.522-.952,3.64,3.64,0,0,1-.915-2.636,7.817,7.817,0,0,1,.65-3.147,5.776,5.776,0,0,1,1.724-2.344,3.748,3.748,0,0,1,2.365-.839,3,3,0,0,1,2.007.58,2.023,2.023,0,0,1,.671,1.62,2.767,2.767,0,0,1-1.448,2.466,7.952,7.952,0,0,1-4.146.894h-.288l-.036.7a2.689,2.689,0,0,0,.538,1.784,2.039,2.039,0,0,0,1.663.642,4.277,4.277,0,0,0,1.13-.158,8.529,8.529,0,0,0,1.445-.575v1.274a8.016,8.016,0,0,1-1.45.538A5.92,5.92,0,0,1-401.294,1610.6Zm1.214-8.669a2.34,2.34,0,0,0-1.69.821,5.362,5.362,0,0,0-1.208,2.279h.1a7.159,7.159,0,0,0,3.052-.518,1.636,1.636,0,0,0,1.06-1.507,1.016,1.016,0,0,0-.32-.769A1.391,1.391,0,0,0-400.079,1601.933Z" transform="translate(532.206 -1596.729)"/>
      <path id="Trazado_25410" data-name="Trazado 25410" d="M-392.417,1612.08a2.541,2.541,0,0,1-1.487-.447,2.716,2.716,0,0,1-.965-1.212h-.088l-.609,1.484h-1.092l2.88-13.583h1.468q-.446,2.111-.684,3.234t-.66,2.622h.078a6.378,6.378,0,0,1,1.6-1.513,3.072,3.072,0,0,1,1.629-.484,2.314,2.314,0,0,1,1.919.863,3.7,3.7,0,0,1,.691,2.374,9.269,9.269,0,0,1-.6,3.374,5.649,5.649,0,0,1-1.666,2.418A3.738,3.738,0,0,1-392.417,1612.08Zm1.624-8.687a2.533,2.533,0,0,0-1.708.831,5.894,5.894,0,0,0-1.377,2.085,6.8,6.8,0,0,0-.512,2.576,2.058,2.058,0,0,0,.486,1.471,1.838,1.838,0,0,0,1.4.51,2.3,2.3,0,0,0,1.609-.707,4.983,4.983,0,0,0,1.2-2.012,8.342,8.342,0,0,0,.453-2.771Q-389.24,1603.392-390.793,1603.393Z" transform="translate(537.254 -1598.207)"/>
      <path id="Trazado_25411" data-name="Trazado 25411" d="M-385.378,1600.685a2.471,2.471,0,0,1,1.432.432,2.807,2.807,0,0,1,.977,1.243h.1l.584-1.5h1.108l-2.033,9.568h-1.16l.226-1.825h-.07a4.308,4.308,0,0,1-3.291,2,2.3,2.3,0,0,1-1.9-.866,3.687,3.687,0,0,1-.689-2.365,9.016,9.016,0,0,1,.619-3.37,5.828,5.828,0,0,1,1.711-2.436A3.725,3.725,0,0,1-385.378,1600.685Zm-1.659,8.7a2.449,2.449,0,0,0,1.685-.808,5.983,5.983,0,0,0,1.362-2.1,6.887,6.887,0,0,0,.525-2.6,2.038,2.038,0,0,0-.489-1.432,1.662,1.662,0,0,0-1.284-.533,2.408,2.408,0,0,0-1.69.751,5.041,5.041,0,0,0-1.225,2.035,8.177,8.177,0,0,0-.445,2.706,2.3,2.3,0,0,0,.41,1.489A1.417,1.417,0,0,0-387.037,1609.389Z" transform="translate(541.354 -1596.729)"/>
      <path id="Trazado_25412" data-name="Trazado 25412" d="M-382.64,1611.9h-1.466l2.9-13.583h1.466Z" transform="translate(545.103 -1598.207)"/>
      <path id="Trazado_25413" data-name="Trazado 25413" d="M-376.337,1600.717a3.482,3.482,0,0,1,2.618.983,3.687,3.687,0,0,1,.962,2.7,7.735,7.735,0,0,1-.629,3.1,5.338,5.338,0,0,1-1.7,2.253,3.983,3.983,0,0,1-2.428.795,3.482,3.482,0,0,1-2.628-.987,3.731,3.731,0,0,1-.951-2.7,7.726,7.726,0,0,1,.637-3.12,5.287,5.287,0,0,1,1.721-2.245A4,4,0,0,1-376.337,1600.717Zm2.061,3.483a2.389,2.389,0,0,0-.545-1.627,1.863,1.863,0,0,0-1.481-.626,2.556,2.556,0,0,0-1.707.647,4.147,4.147,0,0,0-1.17,1.794,7.474,7.474,0,0,0-.414,2.552,2.576,2.576,0,0,0,.554,1.768,2.022,2.022,0,0,0,1.593.624,2.406,2.406,0,0,0,1.632-.637,4.149,4.149,0,0,0,1.133-1.811A8.221,8.221,0,0,0-374.276,1604.2Z" transform="translate(546.987 -1596.709)"/>
      <path id="Trazado_25414" data-name="Trazado 25414" d="M-369.283,1610.427l1.292-6.041a8.074,8.074,0,0,0,.174-1.257,1.243,1.243,0,0,0-.309-.882,1.3,1.3,0,0,0-.991-.332,2.578,2.578,0,0,0-1.513.523,4.647,4.647,0,0,0-1.3,1.494,7.857,7.857,0,0,0-.85,2.347l-.883,4.148h-1.468l2.043-9.568h1.214l-.193,1.771h.089a5.789,5.789,0,0,1,1.619-1.5,3.23,3.23,0,0,1,1.619-.442,2.435,2.435,0,0,1,1.749.606,2.221,2.221,0,0,1,.644,1.7,7.122,7.122,0,0,1-.2,1.571l-1.248,5.866Z" transform="translate(550.715 -1596.729)"/>
      <path id="Trazado_25415" data-name="Trazado 25415" d="M-365.136,1610.6a3.342,3.342,0,0,1-2.522-.952,3.64,3.64,0,0,1-.915-2.636,7.845,7.845,0,0,1,.65-3.147,5.777,5.777,0,0,1,1.724-2.344,3.751,3.751,0,0,1,2.365-.839,3,3,0,0,1,2.007.58,2.018,2.018,0,0,1,.671,1.62,2.769,2.769,0,0,1-1.446,2.466,7.962,7.962,0,0,1-4.148.894h-.288l-.034.7a2.688,2.688,0,0,0,.536,1.784,2.039,2.039,0,0,0,1.663.642,4.277,4.277,0,0,0,1.13-.158,8.478,8.478,0,0,0,1.445-.575v1.274a8.053,8.053,0,0,1-1.448.538A5.934,5.934,0,0,1-365.136,1610.6Zm1.214-8.669a2.34,2.34,0,0,0-1.69.821,5.363,5.363,0,0,0-1.208,2.279h.1a7.159,7.159,0,0,0,3.052-.518,1.637,1.637,0,0,0,1.061-1.507,1.018,1.018,0,0,0-.322-.769A1.389,1.389,0,0,0-363.921,1601.933Z" transform="translate(554.816 -1596.729)"/>
      <path id="Trazado_25416" data-name="Trazado 25416" d="M-357.285,1607.711a2.563,2.563,0,0,1-.965,2.128,4.3,4.3,0,0,1-2.719.764,5.8,5.8,0,0,1-2.662-.6v-1.38a5.556,5.556,0,0,0,1.318.569,4.833,4.833,0,0,0,1.308.2,2.65,2.65,0,0,0,1.659-.437,1.362,1.362,0,0,0,.559-1.118,1.211,1.211,0,0,0-.306-.837,6.172,6.172,0,0,0-1.318-.933,5.328,5.328,0,0,1-1.607-1.25,2.305,2.305,0,0,1-.471-1.45,2.4,2.4,0,0,1,.883-1.941,3.5,3.5,0,0,1,2.321-.738,6.732,6.732,0,0,1,2.882.647l-.473,1.194-.488-.218a4.854,4.854,0,0,0-1.921-.375,1.946,1.946,0,0,0-1.273.38,1.2,1.2,0,0,0-.463.982,1.207,1.207,0,0,0,.31.837,5.445,5.445,0,0,0,1.277.9,7.494,7.494,0,0,1,1.341.9,2.63,2.63,0,0,1,.606.808A2.265,2.265,0,0,1-357.285,1607.711Z" transform="translate(557.905 -1596.729)"/>
      <path id="Trazado_25417" data-name="Trazado 25417" d="M-350.858,1600.685a2.471,2.471,0,0,1,1.432.432,2.81,2.81,0,0,1,.978,1.243h.094l.585-1.5h1.108l-2.033,9.568h-1.162l.228-1.825h-.07a4.306,4.306,0,0,1-3.29,2,2.3,2.3,0,0,1-1.9-.866,3.7,3.7,0,0,1-.689-2.365,9.016,9.016,0,0,1,.619-3.37,5.829,5.829,0,0,1,1.711-2.436A3.729,3.729,0,0,1-350.858,1600.685Zm-1.659,8.7a2.455,2.455,0,0,0,1.685-.808,5.983,5.983,0,0,0,1.362-2.1,6.884,6.884,0,0,0,.523-2.6,2.03,2.03,0,0,0-.489-1.432,1.658,1.658,0,0,0-1.282-.533,2.4,2.4,0,0,0-1.69.751,5.1,5.1,0,0,0-1.227,2.035,8.261,8.261,0,0,0-.444,2.706,2.3,2.3,0,0,0,.41,1.489A1.419,1.419,0,0,0-352.517,1609.389Z" transform="translate(562.94 -1596.729)"/>
      <path id="Trazado_25418" data-name="Trazado 25418" d="M-343.771,1610.36h-6.279l.2-1.022,6.057-7.456h-4.18l.234-1.09H-342l-.254,1.222-5.936,7.254h4.635Z" transform="translate(566.399 -1596.662)"/>
      <path id="Trazado_25419" data-name="Trazado 25419" d="M-341.455,1600.792l-1.307,6.067a6.507,6.507,0,0,0-.159,1.214,1.12,1.12,0,0,0,1.284,1.248,2.593,2.593,0,0,0,1.51-.525,4.66,4.66,0,0,0,1.31-1.5,7.968,7.968,0,0,0,.863-2.357l.874-4.146h1.448l-2.017,9.568h-1.212l.192-1.773h-.1a5.685,5.685,0,0,1-1.633,1.52,3.282,3.282,0,0,1-1.607.429,2.443,2.443,0,0,1-1.754-.606,2.289,2.289,0,0,1-.636-1.734,8.257,8.257,0,0,1,.19-1.5l1.276-5.9Z" transform="translate(569.929 -1596.662)"/>
      <path id="Trazado_25420" data-name="Trazado 25420" d="M-336.89,1611.9h-1.466l2.9-13.583h1.466Z" transform="translate(573.711 -1598.207)"/>
      <path id="Trazado_25421" data-name="Trazado 25421" d="M-331.9,1610.6a3.335,3.335,0,0,1-2.523-.952,3.635,3.635,0,0,1-.918-2.636,7.818,7.818,0,0,1,.652-3.147,5.8,5.8,0,0,1,1.723-2.344,3.758,3.758,0,0,1,2.365-.839,3.009,3.009,0,0,1,2.01.58,2.029,2.029,0,0,1,.671,1.62,2.769,2.769,0,0,1-1.45,2.466,7.952,7.952,0,0,1-4.146.894h-.288l-.036.7a2.7,2.7,0,0,0,.536,1.784,2.047,2.047,0,0,0,1.664.642,4.277,4.277,0,0,0,1.13-.158,8.531,8.531,0,0,0,1.445-.575v1.274a8.006,8.006,0,0,1-1.448.538A5.939,5.939,0,0,1-331.9,1610.6Zm1.214-8.669a2.335,2.335,0,0,0-1.69.821,5.347,5.347,0,0,0-1.209,2.279h.106a7.161,7.161,0,0,0,3.051-.518,1.636,1.636,0,0,0,1.06-1.507,1.015,1.015,0,0,0-.319-.769A1.391,1.391,0,0,0-330.688,1601.933Z" transform="translate(575.595 -1596.729)"/>
      <path id="Trazado_25422" data-name="Trazado 25422" d="M-324.056,1607.711a2.562,2.562,0,0,1-.964,2.128,4.3,4.3,0,0,1-2.719.764,5.8,5.8,0,0,1-2.662-.6v-1.38a5.572,5.572,0,0,0,1.317.569,4.854,4.854,0,0,0,1.312.2,2.64,2.64,0,0,0,1.656-.437,1.354,1.354,0,0,0,.559-1.118,1.21,1.21,0,0,0-.3-.837,6.126,6.126,0,0,0-1.318-.933,5.3,5.3,0,0,1-1.606-1.25,2.3,2.3,0,0,1-.473-1.45,2.4,2.4,0,0,1,.883-1.941,3.5,3.5,0,0,1,2.322-.738,6.725,6.725,0,0,1,2.88.647l-.471,1.194-.489-.218a4.851,4.851,0,0,0-1.919-.375,1.952,1.952,0,0,0-1.276.38,1.211,1.211,0,0,0-.463.982,1.216,1.216,0,0,0,.312.837,5.392,5.392,0,0,0,1.279.9,7.531,7.531,0,0,1,1.339.9,2.6,2.6,0,0,1,.606.808A2.29,2.29,0,0,1-324.056,1607.711Z" transform="translate(578.685 -1596.729)"/>
      <path id="Trazado_25423" data-name="Trazado 25423" d="M-317.61,1600.685a2.436,2.436,0,0,1,1.447.442,2.713,2.713,0,0,1,.946,1.234h.114l.585-1.5h1.092l-2.934,13.864h-1.451l.883-4.19q.08-.392.5-1.931h-.07a6.29,6.29,0,0,1-1.616,1.529,3.12,3.12,0,0,1-1.624.471,2.339,2.339,0,0,1-1.916-.852,3.667,3.667,0,0,1-.7-2.379,9.059,9.059,0,0,1,.636-3.421,5.649,5.649,0,0,1,1.711-2.418A3.781,3.781,0,0,1-317.61,1600.685Zm-1.676,8.7a2.491,2.491,0,0,0,1.659-.8,5.9,5.9,0,0,0,1.383-2.068,6.733,6.733,0,0,0,.528-2.618,2.1,2.1,0,0,0-.476-1.45,1.687,1.687,0,0,0-1.331-.533,2.351,2.351,0,0,0-1.65.738,5.1,5.1,0,0,0-1.222,2.035,8.169,8.169,0,0,0-.455,2.719Q-320.849,1609.387-319.286,1609.389Z" transform="translate(583.718 -1596.729)"/>
      <path id="Trazado_25424" data-name="Trazado 25424" d="M-312.969,1600.792l-1.31,6.067a6.481,6.481,0,0,0-.158,1.214,1.119,1.119,0,0,0,1.284,1.248,2.593,2.593,0,0,0,1.51-.525,4.661,4.661,0,0,0,1.31-1.5,8.016,8.016,0,0,0,.863-2.357l.873-4.146h1.451l-2.019,9.568h-1.214l.193-1.773h-.1a5.707,5.707,0,0,1-1.633,1.52,3.277,3.277,0,0,1-1.606.429,2.441,2.441,0,0,1-1.754-.606,2.279,2.279,0,0,1-.639-1.734,8.145,8.145,0,0,1,.192-1.5l1.276-5.9Z" transform="translate(587.739 -1596.662)"/>
      <path id="Trazado_25425" data-name="Trazado 25425" d="M-306.212,1610.6a3.344,3.344,0,0,1-2.524-.952,3.641,3.641,0,0,1-.917-2.636,7.872,7.872,0,0,1,.65-3.147,5.836,5.836,0,0,1,1.724-2.344,3.755,3.755,0,0,1,2.366-.839,3,3,0,0,1,2.007.58,2.03,2.03,0,0,1,.673,1.62,2.769,2.769,0,0,1-1.45,2.466,7.952,7.952,0,0,1-4.146.894h-.289l-.034.7a2.707,2.707,0,0,0,.536,1.784,2.044,2.044,0,0,0,1.663.642,4.25,4.25,0,0,0,1.13-.158,8.486,8.486,0,0,0,1.447-.575v1.274a8.062,8.062,0,0,1-1.45.538A5.925,5.925,0,0,1-306.212,1610.6Zm1.212-8.669a2.334,2.334,0,0,0-1.689.821,5.346,5.346,0,0,0-1.209,2.279h.1a7.151,7.151,0,0,0,3.051-.518,1.633,1.633,0,0,0,1.061-1.507,1.015,1.015,0,0,0-.319-.769A1.4,1.4,0,0,0-305,1601.933Z" transform="translate(591.658 -1596.729)"/>
      <path id="Trazado_25426" data-name="Trazado 25426" d="M-296.631,1600.685a2.431,2.431,0,0,1,1.445.442,2.715,2.715,0,0,1,.948,1.234h.112l.585-1.5h1.091l-2.932,13.864h-1.448l.881-4.19q.078-.392.5-1.931h-.07a6.238,6.238,0,0,1-1.616,1.529,3.12,3.12,0,0,1-1.624.471,2.337,2.337,0,0,1-1.916-.852,3.685,3.685,0,0,1-.692-2.379,9.058,9.058,0,0,1,.632-3.421,5.688,5.688,0,0,1,1.71-2.418A3.793,3.793,0,0,1-296.631,1600.685Zm-1.676,8.7a2.478,2.478,0,0,0,1.658-.8,5.881,5.881,0,0,0,1.383-2.068,6.735,6.735,0,0,0,.53-2.618,2.1,2.1,0,0,0-.476-1.45,1.691,1.691,0,0,0-1.331-.533,2.343,2.343,0,0,0-1.65.738,5.1,5.1,0,0,0-1.222,2.035,8.169,8.169,0,0,0-.453,2.719Q-299.868,1609.387-298.306,1609.389Z" transform="translate(596.838 -1596.729)"/>
      <path id="Trazado_25427" data-name="Trazado 25427" d="M-291.991,1600.792l-1.31,6.067a6.59,6.59,0,0,0-.156,1.214,1.119,1.119,0,0,0,1.282,1.248,2.593,2.593,0,0,0,1.51-.525,4.642,4.642,0,0,0,1.31-1.5,7.968,7.968,0,0,0,.865-2.357l.873-4.146h1.448l-2.015,9.568H-289.4l.19-1.773h-.1a5.705,5.705,0,0,1-1.632,1.52,3.287,3.287,0,0,1-1.607.429,2.448,2.448,0,0,1-1.755-.606,2.289,2.289,0,0,1-.635-1.734,8.292,8.292,0,0,1,.192-1.5l1.274-5.9Z" transform="translate(600.858 -1596.662)"/>
      <path id="Trazado_25428" data-name="Trazado 25428" d="M-285.236,1610.6a3.338,3.338,0,0,1-2.521-.952,3.641,3.641,0,0,1-.917-2.636,7.818,7.818,0,0,1,.652-3.147,5.774,5.774,0,0,1,1.723-2.344,3.754,3.754,0,0,1,2.365-.839,3.007,3.007,0,0,1,2.009.58,2.023,2.023,0,0,1,.671,1.62,2.767,2.767,0,0,1-1.448,2.466,7.959,7.959,0,0,1-4.148.894h-.286l-.036.7a2.689,2.689,0,0,0,.536,1.784,2.045,2.045,0,0,0,1.664.642,4.286,4.286,0,0,0,1.13-.158,8.583,8.583,0,0,0,1.445-.575v1.274a8.015,8.015,0,0,1-1.45.538A5.933,5.933,0,0,1-285.236,1610.6Zm1.216-8.669a2.343,2.343,0,0,0-1.692.821,5.362,5.362,0,0,0-1.208,2.279h.106a7.17,7.17,0,0,0,3.052-.518,1.638,1.638,0,0,0,1.06-1.507,1.016,1.016,0,0,0-.32-.769A1.391,1.391,0,0,0-284.02,1601.933Z" transform="translate(604.777 -1596.729)"/>
      <path id="Trazado_25429" data-name="Trazado 25429" d="M-278.526,1602.181a2.547,2.547,0,0,1,2.454,1.658h.086a20.152,20.152,0,0,1,.393-2.391l.681-3.125h1.45l-2.882,13.583h-1.214l.193-1.825h-.07a6.577,6.577,0,0,1-1.65,1.546,3.087,3.087,0,0,1-1.59.455,2.285,2.285,0,0,1-1.893-.856,3.723,3.723,0,0,1-.683-2.375,9.036,9.036,0,0,1,.629-3.421,5.711,5.711,0,0,1,1.7-2.4A3.771,3.771,0,0,1-278.526,1602.181Zm-1.658,8.686a2.539,2.539,0,0,0,1.694-.816,5.746,5.746,0,0,0,1.383-2.087,6.9,6.9,0,0,0,.512-2.588,2.1,2.1,0,0,0-.473-1.477,1.788,1.788,0,0,0-1.37-.505,2.337,2.337,0,0,0-1.637.72,5.065,5.065,0,0,0-1.212,2.025,8.2,8.2,0,0,0-.46,2.747Q-281.747,1610.865-280.184,1610.866Z" transform="translate(608.169 -1598.207)"/>
      <path id="Trazado_25430" data-name="Trazado 25430" d="M-272.178,1600.685a2.471,2.471,0,0,1,1.432.432,2.8,2.8,0,0,1,.977,1.243h.1l.583-1.5h1.108l-2.033,9.568h-1.16l.226-1.825h-.07a4.308,4.308,0,0,1-3.291,2,2.3,2.3,0,0,1-1.9-.866,3.687,3.687,0,0,1-.687-2.365,9.016,9.016,0,0,1,.619-3.37,5.811,5.811,0,0,1,1.71-2.436A3.728,3.728,0,0,1-272.178,1600.685Zm-1.659,8.7a2.455,2.455,0,0,0,1.687-.808,5.98,5.98,0,0,0,1.36-2.1,6.886,6.886,0,0,0,.525-2.6,2.038,2.038,0,0,0-.489-1.432,1.662,1.662,0,0,0-1.284-.533,2.408,2.408,0,0,0-1.69.751,5.077,5.077,0,0,0-1.225,2.035,8.177,8.177,0,0,0-.445,2.706,2.3,2.3,0,0,0,.41,1.489A1.417,1.417,0,0,0-273.837,1609.389Z" transform="translate(612.14 -1596.729)"/>
      <path id="Trazado_25431" data-name="Trazado 25431" d="M-265.046,1610.427l1.292-6.041a8.148,8.148,0,0,0,.176-1.257,1.245,1.245,0,0,0-.312-.882,1.3,1.3,0,0,0-.99-.332,2.586,2.586,0,0,0-1.515.523,4.688,4.688,0,0,0-1.3,1.494,7.9,7.9,0,0,0-.85,2.347l-.883,4.148h-1.466l2.043-9.568h1.212l-.192,1.771h.088a5.833,5.833,0,0,1,1.619-1.5,3.229,3.229,0,0,1,1.619-.442,2.439,2.439,0,0,1,1.75.606,2.221,2.221,0,0,1,.644,1.7,7.122,7.122,0,0,1-.2,1.571l-1.25,5.866Z" transform="translate(615.894 -1596.729)"/>
      <path id="Trazado_25432" data-name="Trazado 25432" d="M-477.315,1623.627l1.292-6.04a7.887,7.887,0,0,0,.174-1.258,1.247,1.247,0,0,0-.309-.883,1.3,1.3,0,0,0-.991-.332,2.586,2.586,0,0,0-1.513.524,4.669,4.669,0,0,0-1.3,1.494,7.852,7.852,0,0,0-.852,2.349l-.881,4.146h-1.466l2.041-9.566h1.214l-.192,1.771h.086a5.8,5.8,0,0,1,1.62-1.505,3.241,3.241,0,0,1,1.62-.442,2.44,2.44,0,0,1,1.749.606,2.224,2.224,0,0,1,.64,1.7,7.213,7.213,0,0,1-.2,1.572l-1.247,5.866Z" transform="translate(483.163 -1588.475)"/>
      <path id="Trazado_25433" data-name="Trazado 25433" d="M-473.576,1615.582l-1.308,6.066a6.614,6.614,0,0,0-.158,1.214,1.119,1.119,0,0,0,1.284,1.248,2.594,2.594,0,0,0,1.51-.525,4.648,4.648,0,0,0,1.31-1.5,8,8,0,0,0,.863-2.359l.874-4.145h1.448l-2.017,9.567h-1.212l.192-1.772h-.1a5.7,5.7,0,0,1-1.633,1.518,3.283,3.283,0,0,1-1.607.429,2.444,2.444,0,0,1-1.754-.606,2.29,2.29,0,0,1-.635-1.734,8.233,8.233,0,0,1,.19-1.5l1.276-5.9Zm1.616-1.5a16.72,16.72,0,0,0,1.1-1.323q.607-.8.93-1.3h1.659v.184a16.506,16.506,0,0,1-1.222,1.317,13.258,13.258,0,0,1-1.544,1.362h-.918Z" transform="translate(487.314 -1589.996)"/>
      <path id="Trazado_25434" data-name="Trazado 25434" d="M-464.906,1623.627l1.292-6.04a7.107,7.107,0,0,0,.158-1.18,1.5,1.5,0,0,0-.27-.951,1.12,1.12,0,0,0-.928-.341,2.361,2.361,0,0,0-1.427.524,4.565,4.565,0,0,0-1.221,1.5,8.659,8.659,0,0,0-.816,2.344l-.881,4.146h-1.468l2.041-9.566h1.214l-.192,1.771h.088a5.438,5.438,0,0,1,1.513-1.492,2.98,2.98,0,0,1,1.559-.455,1.98,1.98,0,0,1,1.52.567,2.588,2.588,0,0,1,.629,1.581h.07a5.581,5.581,0,0,1,1.6-1.621,3.22,3.22,0,0,1,1.711-.528,2.344,2.344,0,0,1,1.715.593,2.313,2.313,0,0,1,.608,1.729,8.315,8.315,0,0,1-.193,1.554l-1.256,5.866h-1.482l1.292-6.04a8.04,8.04,0,0,0,.174-1.276,1.234,1.234,0,0,0-.3-.868,1.23,1.23,0,0,0-.948-.328,2.352,2.352,0,0,0-1.4.507,4.474,4.474,0,0,0-1.209,1.435,7.792,7.792,0,0,0-.788,2.205l-.936,4.364Z" transform="translate(491.102 -1588.475)"/>
      <path id="Trazado_25435" data-name="Trazado 25435" d="M-457.225,1623.8a3.343,3.343,0,0,1-2.524-.953,3.647,3.647,0,0,1-.915-2.636,7.872,7.872,0,0,1,.65-3.147,5.834,5.834,0,0,1,1.724-2.344,3.755,3.755,0,0,1,2.366-.839,2.988,2.988,0,0,1,2.006.582,2.013,2.013,0,0,1,.673,1.619,2.764,2.764,0,0,1-1.448,2.466,7.941,7.941,0,0,1-4.148.894h-.288l-.034.7a2.7,2.7,0,0,0,.536,1.785,2.044,2.044,0,0,0,1.663.642,4.27,4.27,0,0,0,1.131-.158,8.579,8.579,0,0,0,1.445-.575v1.274a7.923,7.923,0,0,1-1.45.538A5.839,5.839,0,0,1-457.225,1623.8Zm1.212-8.669a2.337,2.337,0,0,0-1.689.821,5.361,5.361,0,0,0-1.209,2.279h.106a7.127,7.127,0,0,0,3.051-.519,1.635,1.635,0,0,0,1.061-1.507,1.024,1.024,0,0,0-.319-.769A1.4,1.4,0,0,0-456.012,1615.133Z" transform="translate(497.232 -1588.475)"/>
      <path id="Trazado_25436" data-name="Trazado 25436" d="M-449.4,1613.885a3.994,3.994,0,0,1,1.047.122l-.314,1.31a3.814,3.814,0,0,0-.917-.114,2.422,2.422,0,0,0-1.489.523,4.615,4.615,0,0,0-1.214,1.455,7.369,7.369,0,0,0-.764,2.064l-.933,4.382h-1.466l2.041-9.566h1.214l-.192,1.771h.086a8.565,8.565,0,0,1,1.04-1.191,3.253,3.253,0,0,1,.858-.559A2.471,2.471,0,0,1-449.4,1613.885Z" transform="translate(500.493 -1588.475)"/>
      <path id="Trazado_25437" data-name="Trazado 25437" d="M-446.125,1613.917a3.5,3.5,0,0,1,2.618.983,3.686,3.686,0,0,1,.961,2.7,7.728,7.728,0,0,1-.629,3.1,5.326,5.326,0,0,1-1.7,2.253,3.975,3.975,0,0,1-2.427.795,3.482,3.482,0,0,1-2.628-.987,3.722,3.722,0,0,1-.952-2.7,7.7,7.7,0,0,1,.639-3.12,5.282,5.282,0,0,1,1.72-2.245A4.012,4.012,0,0,1-446.125,1613.917Zm2.061,3.483a2.384,2.384,0,0,0-.546-1.627,1.864,1.864,0,0,0-1.481-.625,2.559,2.559,0,0,0-1.707.647,4.166,4.166,0,0,0-1.169,1.795,7.471,7.471,0,0,0-.416,2.553,2.565,2.565,0,0,0,.556,1.767,2.016,2.016,0,0,0,1.593.624,2.415,2.415,0,0,0,1.632-.635,4.166,4.166,0,0,0,1.131-1.812A8.219,8.219,0,0,0-444.064,1617.4Z" transform="translate(503.347 -1588.455)"/>
      <path id="Trazado_25438" data-name="Trazado 25438" d="M-439.235,1623.384a4.672,4.672,0,0,0,1.258-.226v1.126a4.1,4.1,0,0,1-.733.21,3.91,3.91,0,0,1-.7.088,2.428,2.428,0,0,1-1.672-.52,1.969,1.969,0,0,1-.582-1.55,6.262,6.262,0,0,1,.159-1.308l1.107-5.256h-1.5l.122-.635,1.614-.681,1.092-1.991h.855l-.481,2.2h2.394l-.229,1.107h-2.381l-1.126,5.273a6.328,6.328,0,0,0-.159,1.152,1.032,1.032,0,0,0,.255.751A.932.932,0,0,0-439.235,1623.384Z" transform="translate(508.966 -1589.254)"/>
      <path id="Trazado_25439" data-name="Trazado 25439" d="M-433.529,1613.917a3.5,3.5,0,0,1,2.618.983,3.692,3.692,0,0,1,.959,2.7,7.728,7.728,0,0,1-.629,3.1,5.338,5.338,0,0,1-1.7,2.253,3.972,3.972,0,0,1-2.427.795,3.476,3.476,0,0,1-2.626-.987,3.715,3.715,0,0,1-.952-2.7,7.7,7.7,0,0,1,.639-3.12,5.254,5.254,0,0,1,1.718-2.245A4.021,4.021,0,0,1-433.529,1613.917Zm2.059,3.483a2.384,2.384,0,0,0-.546-1.627,1.861,1.861,0,0,0-1.479-.625,2.566,2.566,0,0,0-1.708.647,4.182,4.182,0,0,0-1.169,1.795,7.471,7.471,0,0,0-.414,2.553,2.564,2.564,0,0,0,.554,1.767,2.015,2.015,0,0,0,1.593.624,2.422,2.422,0,0,0,1.633-.635,4.179,4.179,0,0,0,1.13-1.812A8.22,8.22,0,0,0-431.47,1617.4Z" transform="translate(511.223 -1588.455)"/>
      <path id="Trazado_25440" data-name="Trazado 25440" d="M-429.5,1623.384a4.663,4.663,0,0,0,1.256-.226v1.126a4.056,4.056,0,0,1-.733.21,3.875,3.875,0,0,1-.7.088,2.424,2.424,0,0,1-1.671-.52,1.975,1.975,0,0,1-.582-1.55,6.367,6.367,0,0,1,.158-1.308l1.11-5.256h-1.5l.12-.635,1.615-.681,1.092-1.991h.855l-.479,2.2h2.391l-.226,1.107h-2.384l-1.126,5.273a6.262,6.262,0,0,0-.156,1.152,1.032,1.032,0,0,0,.254.751A.932.932,0,0,0-429.5,1623.384Z" transform="translate(515.056 -1589.254)"/>
      <path id="Trazado_25441" data-name="Trazado 25441" d="M-423.827,1613.885a2.464,2.464,0,0,1,1.43.432,2.817,2.817,0,0,1,.978,1.245h.1l.583-1.5h1.108l-2.033,9.566h-1.16l.224-1.825h-.07a4.3,4.3,0,0,1-3.29,2,2.306,2.306,0,0,1-1.9-.865,3.693,3.693,0,0,1-.689-2.365,9.016,9.016,0,0,1,.619-3.371,5.847,5.847,0,0,1,1.711-2.436A3.722,3.722,0,0,1-423.827,1613.885Zm-1.659,8.7a2.457,2.457,0,0,0,1.685-.806,6,6,0,0,0,1.362-2.1,6.886,6.886,0,0,0,.523-2.6,2.037,2.037,0,0,0-.488-1.432,1.666,1.666,0,0,0-1.286-.533,2.411,2.411,0,0,0-1.69.751,5.074,5.074,0,0,0-1.224,2.035,8.174,8.174,0,0,0-.445,2.706,2.3,2.3,0,0,0,.41,1.489A1.414,1.414,0,0,0-425.486,1622.589Z" transform="translate(517.312 -1588.475)"/>
      <path id="Trazado_25442" data-name="Trazado 25442" d="M-421.088,1625.1h-1.468l2.9-13.583h1.466Z" transform="translate(521.06 -1589.953)"/>
      <path id="Trazado_25443" data-name="Trazado 25443" d="M-411.964,1615.38a2.548,2.548,0,0,1,2.454,1.659h.086a20.921,20.921,0,0,1,.392-2.392l.683-3.125h1.448l-2.878,13.583h-1.216l.193-1.825h-.07a6.565,6.565,0,0,1-1.651,1.547,3.1,3.1,0,0,1-1.588.454,2.289,2.289,0,0,1-1.9-.857,3.719,3.719,0,0,1-.679-2.373,9.036,9.036,0,0,1,.627-3.423,5.708,5.708,0,0,1,1.7-2.4A3.766,3.766,0,0,1-411.964,1615.38Zm-1.658,8.686a2.535,2.535,0,0,0,1.692-.816,5.716,5.716,0,0,0,1.385-2.085,6.879,6.879,0,0,0,.51-2.589,2.085,2.085,0,0,0-.471-1.476,1.783,1.783,0,0,0-1.37-.507,2.345,2.345,0,0,0-1.637.72,5.045,5.045,0,0,0-1.212,2.027,8.179,8.179,0,0,0-.46,2.745Q-415.185,1624.065-413.621,1624.066Z" transform="translate(524.732 -1589.953)"/>
      <path id="Trazado_25444" data-name="Trazado 25444" d="M-406.9,1623.8a3.328,3.328,0,0,1-2.521-.953,3.635,3.635,0,0,1-.918-2.636,7.818,7.818,0,0,1,.652-3.147,5.815,5.815,0,0,1,1.723-2.344,3.758,3.758,0,0,1,2.365-.839,2.994,2.994,0,0,1,2.009.582,2.018,2.018,0,0,1,.673,1.619,2.769,2.769,0,0,1-1.45,2.466,7.935,7.935,0,0,1-4.146.894h-.289l-.034.7a2.7,2.7,0,0,0,.536,1.785,2.046,2.046,0,0,0,1.663.642,4.27,4.27,0,0,0,1.131-.158,8.465,8.465,0,0,0,1.443-.575v1.274a7.816,7.816,0,0,1-1.447.538A5.852,5.852,0,0,1-406.9,1623.8Zm1.214-8.669a2.341,2.341,0,0,0-1.69.821,5.376,5.376,0,0,0-1.208,2.279h.106a7.132,7.132,0,0,0,3.051-.519,1.635,1.635,0,0,0,1.06-1.507,1.018,1.018,0,0,0-.319-.769A1.4,1.4,0,0,0-405.684,1615.133Z" transform="translate(528.701 -1588.475)"/>
      <path id="Trazado_25445" data-name="Trazado 25445" d="M-398.02,1625.281a2.537,2.537,0,0,1-1.489-.447,2.713,2.713,0,0,1-.965-1.213h-.088l-.611,1.484h-1.092l2.883-13.583h1.466q-.446,2.111-.686,3.234t-.66,2.621h.08a6.435,6.435,0,0,1,1.6-1.513,3.085,3.085,0,0,1,1.629-.484,2.32,2.32,0,0,1,1.921.863,3.719,3.719,0,0,1,.691,2.374,9.263,9.263,0,0,1-.6,3.374,5.639,5.639,0,0,1-1.668,2.42A3.733,3.733,0,0,1-398.02,1625.281Zm1.622-8.688a2.52,2.52,0,0,0-1.707.831,5.922,5.922,0,0,0-1.38,2.085,6.8,6.8,0,0,0-.51,2.576,2.056,2.056,0,0,0,.486,1.471,1.839,1.839,0,0,0,1.4.51,2.3,2.3,0,0,0,1.611-.707,4.97,4.97,0,0,0,1.2-2.012,8.427,8.427,0,0,0,.453-2.771Q-394.842,1616.591-396.4,1616.593Z" transform="translate(533.748 -1589.953)"/>
      <path id="Trazado_25446" data-name="Trazado 25446" d="M-390.983,1613.885a2.472,2.472,0,0,1,1.432.432,2.816,2.816,0,0,1,.978,1.245h.094l.585-1.5h1.108l-2.033,9.566h-1.162l.228-1.825h-.07a4.3,4.3,0,0,1-3.29,2,2.307,2.307,0,0,1-1.9-.865,3.7,3.7,0,0,1-.689-2.365,9.016,9.016,0,0,1,.619-3.371,5.847,5.847,0,0,1,1.711-2.436A3.729,3.729,0,0,1-390.983,1613.885Zm-1.659,8.7a2.461,2.461,0,0,0,1.685-.806,6,6,0,0,0,1.362-2.1,6.885,6.885,0,0,0,.523-2.6,2.03,2.03,0,0,0-.489-1.432,1.659,1.659,0,0,0-1.282-.533,2.406,2.406,0,0,0-1.69.751,5.116,5.116,0,0,0-1.227,2.035,8.26,8.26,0,0,0-.444,2.706,2.3,2.3,0,0,0,.41,1.489A1.419,1.419,0,0,0-392.642,1622.589Z" transform="translate(537.85 -1588.475)"/>
      <path id="Trazado_25447" data-name="Trazado 25447" d="M-388.246,1625.1h-1.466l2.9-13.583h1.468Z" transform="translate(541.598 -1589.953)"/>
      <path id="Trazado_25448" data-name="Trazado 25448" d="M-381.941,1613.917a3.5,3.5,0,0,1,2.618.983,3.7,3.7,0,0,1,.961,2.7,7.728,7.728,0,0,1-.629,3.1,5.352,5.352,0,0,1-1.7,2.253,3.98,3.98,0,0,1-2.428.795,3.471,3.471,0,0,1-2.626-.987,3.721,3.721,0,0,1-.951-2.7,7.753,7.753,0,0,1,.635-3.12,5.282,5.282,0,0,1,1.72-2.245A4.021,4.021,0,0,1-381.941,1613.917Zm2.059,3.483a2.391,2.391,0,0,0-.544-1.627,1.862,1.862,0,0,0-1.481-.625,2.559,2.559,0,0,0-1.707.647,4.154,4.154,0,0,0-1.17,1.795,7.47,7.47,0,0,0-.413,2.553,2.58,2.58,0,0,0,.551,1.767,2.026,2.026,0,0,0,1.594.624,2.419,2.419,0,0,0,1.633-.635,4.181,4.181,0,0,0,1.131-1.812A8.221,8.221,0,0,0-379.882,1617.4Z" transform="translate(543.482 -1588.455)"/>
      <path id="Trazado_25449" data-name="Trazado 25449" d="M-374.888,1623.627l1.292-6.04a7.953,7.953,0,0,0,.176-1.258,1.249,1.249,0,0,0-.312-.883,1.3,1.3,0,0,0-.99-.332,2.6,2.6,0,0,0-1.515.524,4.685,4.685,0,0,0-1.3,1.494,7.849,7.849,0,0,0-.852,2.349l-.883,4.146h-1.466l2.045-9.566h1.212l-.192,1.771h.086a5.821,5.821,0,0,1,1.619-1.505,3.24,3.24,0,0,1,1.619-.442,2.446,2.446,0,0,1,1.752.606,2.225,2.225,0,0,1,.642,1.7,7.12,7.12,0,0,1-.2,1.572l-1.25,5.866Z" transform="translate(547.21 -1588.475)"/>
      <path id="Trazado_25450" data-name="Trazado 25450" d="M-370.738,1623.8a3.329,3.329,0,0,1-2.522-.953,3.635,3.635,0,0,1-.918-2.636,7.818,7.818,0,0,1,.652-3.147,5.816,5.816,0,0,1,1.723-2.344,3.758,3.758,0,0,1,2.365-.839,3,3,0,0,1,2.01.582,2.023,2.023,0,0,1,.671,1.619,2.769,2.769,0,0,1-1.45,2.466,7.935,7.935,0,0,1-4.146.894h-.288l-.036.7a2.7,2.7,0,0,0,.536,1.785,2.047,2.047,0,0,0,1.664.642,4.268,4.268,0,0,0,1.13-.158,8.527,8.527,0,0,0,1.445-.575v1.274a7.872,7.872,0,0,1-1.448.538A5.848,5.848,0,0,1-370.738,1623.8Zm1.214-8.669a2.335,2.335,0,0,0-1.69.821,5.361,5.361,0,0,0-1.209,2.279h.106a7.132,7.132,0,0,0,3.051-.519,1.635,1.635,0,0,0,1.06-1.507,1.018,1.018,0,0,0-.319-.769A1.393,1.393,0,0,0-369.524,1615.133Z" transform="translate(551.31 -1588.475)"/>
      <path id="Trazado_25451" data-name="Trazado 25451" d="M-362.892,1620.911a2.559,2.559,0,0,1-.964,2.127,4.286,4.286,0,0,1-2.719.764,5.8,5.8,0,0,1-2.662-.6v-1.38a5.5,5.5,0,0,0,1.316.569,4.85,4.85,0,0,0,1.312.2,2.639,2.639,0,0,0,1.656-.437,1.353,1.353,0,0,0,.559-1.116,1.213,1.213,0,0,0-.3-.839,6.122,6.122,0,0,0-1.318-.933,5.3,5.3,0,0,1-1.606-1.25,2.306,2.306,0,0,1-.473-1.448,2.411,2.411,0,0,1,.883-1.942,3.5,3.5,0,0,1,2.322-.738,6.725,6.725,0,0,1,2.88.647l-.471,1.195-.489-.218a4.843,4.843,0,0,0-1.92-.376,1.954,1.954,0,0,0-1.276.38,1.214,1.214,0,0,0-.463.982,1.214,1.214,0,0,0,.312.837,5.392,5.392,0,0,0,1.279.9,7.449,7.449,0,0,1,1.339.9,2.6,2.6,0,0,1,.606.808A2.294,2.294,0,0,1-362.892,1620.911Z" transform="translate(554.401 -1588.475)"/>
      <path id="Trazado_25452" data-name="Trazado 25452" d="M-356.463,1615.38a2.549,2.549,0,0,1,2.454,1.659h.085a20.869,20.869,0,0,1,.393-2.392l.681-3.125h1.45l-2.88,13.583H-355.5l.2-1.825h-.07a6.62,6.62,0,0,1-1.651,1.547,3.1,3.1,0,0,1-1.588.454,2.288,2.288,0,0,1-1.9-.857,3.719,3.719,0,0,1-.681-2.373,9.036,9.036,0,0,1,.627-3.423,5.708,5.708,0,0,1,1.7-2.4A3.77,3.77,0,0,1-356.463,1615.38Zm-1.659,8.686a2.535,2.535,0,0,0,1.694-.816,5.737,5.737,0,0,0,1.385-2.085,6.912,6.912,0,0,0,.51-2.589,2.086,2.086,0,0,0-.473-1.476,1.781,1.781,0,0,0-1.369-.507,2.339,2.339,0,0,0-1.637.72,5.027,5.027,0,0,0-1.212,2.027,8.139,8.139,0,0,0-.462,2.745Q-359.686,1624.065-358.122,1624.066Z" transform="translate(559.435 -1589.953)"/>
      <path id="Trazado_25453" data-name="Trazado 25453" d="M-351.4,1623.8a3.333,3.333,0,0,1-2.521-.953,3.641,3.641,0,0,1-.917-2.636,7.817,7.817,0,0,1,.652-3.147,5.787,5.787,0,0,1,1.723-2.344,3.755,3.755,0,0,1,2.365-.839,3,3,0,0,1,2.009.582,2.017,2.017,0,0,1,.671,1.619,2.767,2.767,0,0,1-1.448,2.466,7.941,7.941,0,0,1-4.148.894h-.288l-.034.7a2.687,2.687,0,0,0,.536,1.785,2.044,2.044,0,0,0,1.663.642,4.279,4.279,0,0,0,1.131-.158,8.516,8.516,0,0,0,1.443-.575v1.274a7.828,7.828,0,0,1-1.448.538A5.843,5.843,0,0,1-351.4,1623.8Zm1.214-8.669a2.343,2.343,0,0,0-1.69.821,5.376,5.376,0,0,0-1.208,2.279h.106a7.141,7.141,0,0,0,3.052-.519,1.638,1.638,0,0,0,1.06-1.507,1.02,1.02,0,0,0-.32-.769A1.4,1.4,0,0,0-350.185,1615.133Z" transform="translate(563.405 -1588.475)"/>
      <path id="Trazado_25454" data-name="Trazado 25454" d="M-343.55,1620.911a2.556,2.556,0,0,1-.965,2.127,4.283,4.283,0,0,1-2.719.764,5.794,5.794,0,0,1-2.661-.6v-1.38a5.471,5.471,0,0,0,1.316.569,4.839,4.839,0,0,0,1.31.2,2.645,2.645,0,0,0,1.658-.437,1.357,1.357,0,0,0,.559-1.116,1.213,1.213,0,0,0-.3-.839,6.19,6.19,0,0,0-1.32-.933,5.3,5.3,0,0,1-1.606-1.25,2.3,2.3,0,0,1-.471-1.448,2.4,2.4,0,0,1,.883-1.942,3.5,3.5,0,0,1,2.319-.738,6.734,6.734,0,0,1,2.883.647l-.473,1.195-.489-.218a4.84,4.84,0,0,0-1.921-.376,1.948,1.948,0,0,0-1.273.38,1.209,1.209,0,0,0-.463.982,1.213,1.213,0,0,0,.31.837,5.43,5.43,0,0,0,1.279.9,7.534,7.534,0,0,1,1.341.9,2.626,2.626,0,0,1,.606.808A2.3,2.3,0,0,1-343.55,1620.911Z" transform="translate(566.495 -1588.475)"/>
      <path id="Trazado_25455" data-name="Trazado 25455" d="M-340.327,1623.8a2.562,2.562,0,0,1-1.482-.437,2.808,2.808,0,0,1-.987-1.222h-.088l-.034.332c-.018.145-.049.349-.093.611s-.377,1.874-1,4.837h-1.451l2.934-13.862h1.214l-.228,1.824h.07a4.286,4.286,0,0,1,3.247-1.981,2.3,2.3,0,0,1,1.885.85,3.691,3.691,0,0,1,.689,2.387,9.279,9.279,0,0,1-.6,3.4,5.637,5.637,0,0,1-1.668,2.405A3.741,3.741,0,0,1-340.327,1623.8Zm1.625-8.688a2.523,2.523,0,0,0-1.707.831,5.921,5.921,0,0,0-1.38,2.085,6.8,6.8,0,0,0-.51,2.576,2.056,2.056,0,0,0,.484,1.471,1.845,1.845,0,0,0,1.4.51,2.31,2.31,0,0,0,1.609-.707,4.948,4.948,0,0,0,1.2-2.012,8.341,8.341,0,0,0,.454-2.771Q-337.15,1615.107-338.7,1615.108Z" transform="translate(569.268 -1588.468)"/>
      <path id="Trazado_25456" data-name="Trazado 25456" d="M-335.324,1613.993l-1.308,6.066a6.615,6.615,0,0,0-.158,1.214,1.119,1.119,0,0,0,1.284,1.248A2.585,2.585,0,0,0-334,1622a4.632,4.632,0,0,0,1.312-1.5,8,8,0,0,0,.863-2.359l.873-4.144h1.45l-2.017,9.567h-1.212l.192-1.772h-.106a5.681,5.681,0,0,1-1.632,1.518,3.284,3.284,0,0,1-1.607.429,2.444,2.444,0,0,1-1.754-.606,2.284,2.284,0,0,1-.635-1.734,8.232,8.232,0,0,1,.19-1.5l1.276-5.9Z" transform="translate(573.763 -1588.407)"/>
      <path id="Trazado_25457" data-name="Trazado 25457" d="M-328.566,1625.324a3.328,3.328,0,0,1-2.521-.953,3.636,3.636,0,0,1-.918-2.636,7.817,7.817,0,0,1,.652-3.147,5.815,5.815,0,0,1,1.723-2.344,3.758,3.758,0,0,1,2.365-.839,3,3,0,0,1,2.01.582,2.023,2.023,0,0,1,.671,1.619,2.769,2.769,0,0,1-1.45,2.466,7.935,7.935,0,0,1-4.146.894h-.289l-.034.7a2.7,2.7,0,0,0,.536,1.785,2.047,2.047,0,0,0,1.664.642,4.273,4.273,0,0,0,1.13-.158,8.528,8.528,0,0,0,1.445-.575v1.274a7.877,7.877,0,0,1-1.448.538A5.852,5.852,0,0,1-328.566,1625.324Zm1.214-8.67a2.341,2.341,0,0,0-1.69.821,5.375,5.375,0,0,0-1.208,2.279h.106a7.131,7.131,0,0,0,3.051-.519,1.635,1.635,0,0,0,1.06-1.507,1.018,1.018,0,0,0-.319-.769A1.394,1.394,0,0,0-327.352,1616.655Zm-.4-2.574a16.694,16.694,0,0,0,1.1-1.323q.607-.8.93-1.3h1.659v.184a16.828,16.828,0,0,1-1.222,1.317,13.118,13.118,0,0,1-1.546,1.362h-.918Z" transform="translate(577.682 -1589.996)"/>
      <path id="Trazado_25458" data-name="Trazado 25458" d="M-320.718,1620.911a2.559,2.559,0,0,1-.964,2.127,4.286,4.286,0,0,1-2.719.764,5.8,5.8,0,0,1-2.662-.6v-1.38a5.5,5.5,0,0,0,1.317.569,4.85,4.85,0,0,0,1.312.2,2.64,2.64,0,0,0,1.656-.437,1.353,1.353,0,0,0,.559-1.116,1.213,1.213,0,0,0-.3-.839,6.12,6.12,0,0,0-1.318-.933,5.3,5.3,0,0,1-1.606-1.25,2.3,2.3,0,0,1-.473-1.448,2.406,2.406,0,0,1,.883-1.942,3.5,3.5,0,0,1,2.321-.738,6.727,6.727,0,0,1,2.882.647l-.471,1.195-.489-.218a4.845,4.845,0,0,0-1.921-.376,1.949,1.949,0,0,0-1.274.38,1.213,1.213,0,0,0-.463.982,1.22,1.22,0,0,0,.31.837,5.41,5.41,0,0,0,1.281.9,7.509,7.509,0,0,1,1.339.9,2.6,2.6,0,0,1,.606.808A2.294,2.294,0,0,1-320.718,1620.911Z" transform="translate(580.772 -1588.475)"/>
      <path id="Trazado_25459" data-name="Trazado 25459" d="M-314.288,1615.38a2.546,2.546,0,0,1,2.453,1.659h.086a20.875,20.875,0,0,1,.393-2.392l.681-3.125h1.45l-2.882,13.583h-1.214l.193-1.825h-.07a6.589,6.589,0,0,1-1.65,1.547,3.1,3.1,0,0,1-1.59.454,2.288,2.288,0,0,1-1.893-.857,3.719,3.719,0,0,1-.683-2.373,9.037,9.037,0,0,1,.629-3.423,5.708,5.708,0,0,1,1.7-2.4A3.767,3.767,0,0,1-314.288,1615.38Zm-1.659,8.686a2.535,2.535,0,0,0,1.694-.816,5.737,5.737,0,0,0,1.385-2.085,6.911,6.911,0,0,0,.51-2.589,2.093,2.093,0,0,0-.473-1.476,1.785,1.785,0,0,0-1.37-.507,2.345,2.345,0,0,0-1.637.72,5.063,5.063,0,0,0-1.212,2.027,8.179,8.179,0,0,0-.46,2.745Q-317.511,1624.065-315.948,1624.066Z" transform="translate(585.806 -1589.953)"/>
      <path id="Trazado_25460" data-name="Trazado 25460" d="M-309.226,1623.8a3.337,3.337,0,0,1-2.522-.953,3.64,3.64,0,0,1-.915-2.636,7.843,7.843,0,0,1,.65-3.147,5.8,5.8,0,0,1,1.724-2.344,3.751,3.751,0,0,1,2.365-.839,2.993,2.993,0,0,1,2.007.582,2.012,2.012,0,0,1,.671,1.619,2.766,2.766,0,0,1-1.447,2.466,7.945,7.945,0,0,1-4.148.894h-.288l-.034.7a2.687,2.687,0,0,0,.536,1.785,2.042,2.042,0,0,0,1.663.642,4.289,4.289,0,0,0,1.131-.158,8.516,8.516,0,0,0,1.443-.575v1.274a7.871,7.871,0,0,1-1.448.538A5.844,5.844,0,0,1-309.226,1623.8Zm1.214-8.669a2.341,2.341,0,0,0-1.69.821,5.378,5.378,0,0,0-1.208,2.279h.106a7.127,7.127,0,0,0,3.051-.519,1.637,1.637,0,0,0,1.061-1.507,1.025,1.025,0,0,0-.32-.769A1.4,1.4,0,0,0-308.011,1615.133Z" transform="translate(589.776 -1588.475)"/>
      <path id="Trazado_25461" data-name="Trazado 25461" d="M-303.135,1625.1H-304.6l2.9-13.583h1.466Z" transform="translate(594.817 -1589.953)"/>
      <path id="Trazado_25462" data-name="Trazado 25462" d="M-296.866,1613.885a2.465,2.465,0,0,1,1.432.432,2.8,2.8,0,0,1,.978,1.245h.094l.587-1.5h1.108l-2.035,9.566h-1.16l.228-1.825h-.07a4.3,4.3,0,0,1-3.291,2,2.3,2.3,0,0,1-1.9-.865,3.7,3.7,0,0,1-.691-2.365,8.987,8.987,0,0,1,.621-3.371,5.848,5.848,0,0,1,1.711-2.436A3.728,3.728,0,0,1-296.866,1613.885Zm-1.658,8.7a2.457,2.457,0,0,0,1.684-.806,6,6,0,0,0,1.362-2.1,6.886,6.886,0,0,0,.523-2.6,2.022,2.022,0,0,0-.489-1.432,1.652,1.652,0,0,0-1.282-.533,2.4,2.4,0,0,0-1.689.751,5.1,5.1,0,0,0-1.227,2.035,8.218,8.218,0,0,0-.445,2.706,2.285,2.285,0,0,0,.411,1.489A1.419,1.419,0,0,0-298.524,1622.589Z" transform="translate(596.701 -1588.475)"/>
      <path id="Trazado_25463" data-name="Trazado 25463" d="M-289.076,1623.8a3.329,3.329,0,0,1-2.522-.953,3.635,3.635,0,0,1-.918-2.636,7.818,7.818,0,0,1,.652-3.147,5.815,5.815,0,0,1,1.723-2.344,3.758,3.758,0,0,1,2.365-.839,3,3,0,0,1,2.01.582,2.022,2.022,0,0,1,.671,1.619,2.769,2.769,0,0,1-1.45,2.466,7.928,7.928,0,0,1-4.145.894h-.289l-.036.7a2.7,2.7,0,0,0,.536,1.785,2.048,2.048,0,0,0,1.664.642,4.268,4.268,0,0,0,1.13-.158,8.527,8.527,0,0,0,1.445-.575v1.274a7.87,7.87,0,0,1-1.448.538A5.848,5.848,0,0,1-289.076,1623.8Zm1.214-8.669a2.338,2.338,0,0,0-1.69.821,5.341,5.341,0,0,0-1.208,2.279h.1a7.133,7.133,0,0,0,3.051-.519,1.633,1.633,0,0,0,1.06-1.507,1.018,1.018,0,0,0-.319-.769A1.393,1.393,0,0,0-287.862,1615.133Z" transform="translate(602.374 -1588.475)"/>
      <path id="Trazado_25464" data-name="Trazado 25464" d="M-283.293,1619.771l-3.02,3.789h-1.7l4.148-4.933-2.087-4.634h1.484l1.52,3.6,2.88-3.6h1.694l-3.972,4.7,2.2,4.863h-1.466Z" transform="translate(605.188 -1588.407)"/>
      <path id="Trazado_25465" data-name="Trazado 25465" d="M-279.214,1623.384a4.662,4.662,0,0,0,1.256-.226v1.126a4.057,4.057,0,0,1-.733.21,3.877,3.877,0,0,1-.7.088,2.424,2.424,0,0,1-1.671-.52,1.974,1.974,0,0,1-.58-1.55,6.353,6.353,0,0,1,.156-1.308l1.11-5.256h-1.5l.12-.635,1.616-.681,1.092-1.991h.855l-.479,2.2h2.391l-.226,1.107h-2.384l-1.125,5.273a6.153,6.153,0,0,0-.158,1.152,1.032,1.032,0,0,0,.254.751A.932.932,0,0,0-279.214,1623.384Z" transform="translate(609.027 -1589.254)"/>
      <path id="Trazado_25466" data-name="Trazado 25466" d="M-272.428,1613.885a3.99,3.99,0,0,1,1.048.122l-.315,1.31a3.781,3.781,0,0,0-.915-.114,2.417,2.417,0,0,0-1.487.523,4.618,4.618,0,0,0-1.216,1.455,7.367,7.367,0,0,0-.762,2.064l-.935,4.382h-1.466l2.041-9.566h1.212l-.19,1.771h.086a8.572,8.572,0,0,1,1.04-1.191,3.28,3.28,0,0,1,.858-.559A2.474,2.474,0,0,1-272.428,1613.885Z" transform="translate(611.153 -1588.475)"/>
      <path id="Trazado_25467" data-name="Trazado 25467" d="M-269.188,1613.885a2.472,2.472,0,0,1,1.432.432,2.816,2.816,0,0,1,.978,1.245h.094l.585-1.5h1.108l-2.033,9.566h-1.162l.228-1.825h-.07a4.3,4.3,0,0,1-3.29,2,2.306,2.306,0,0,1-1.9-.865,3.7,3.7,0,0,1-.689-2.365,9.017,9.017,0,0,1,.619-3.371,5.847,5.847,0,0,1,1.711-2.436A3.729,3.729,0,0,1-269.188,1613.885Zm-1.659,8.7a2.461,2.461,0,0,0,1.685-.806,5.994,5.994,0,0,0,1.362-2.1,6.886,6.886,0,0,0,.523-2.6,2.03,2.03,0,0,0-.489-1.432,1.659,1.659,0,0,0-1.282-.533,2.406,2.406,0,0,0-1.69.751,5.116,5.116,0,0,0-1.227,2.035,8.258,8.258,0,0,0-.444,2.706,2.294,2.294,0,0,0,.41,1.489A1.419,1.419,0,0,0-270.847,1622.589Z" transform="translate(614.008 -1588.475)"/>
      <path id="Trazado_25468" data-name="Trazado 25468" d="M-264.135,1623.8a3.553,3.553,0,0,1-2.628-.935,3.565,3.565,0,0,1-.933-2.636,7.969,7.969,0,0,1,.644-3.222,5.462,5.462,0,0,1,1.788-2.3,4.253,4.253,0,0,1,2.562-.826,6.375,6.375,0,0,1,2.339.446l-.411,1.232a4.925,4.925,0,0,0-1.911-.447,2.743,2.743,0,0,0-1.785.668,4.376,4.376,0,0,0-1.266,1.861,7.142,7.142,0,0,0-.457,2.588,2.445,2.445,0,0,0,.58,1.737,2.082,2.082,0,0,0,1.6.619,3.883,3.883,0,0,0,1.188-.176,10.6,10.6,0,0,0,1.1-.409v1.248A5.242,5.242,0,0,1-264.135,1623.8Z" transform="translate(617.894 -1588.475)"/>
      <path id="Trazado_25469" data-name="Trazado 25469" d="M-259.184,1623.8a3.551,3.551,0,0,1-2.625-.935,3.554,3.554,0,0,1-.936-2.636,7.944,7.944,0,0,1,.647-3.222,5.456,5.456,0,0,1,1.785-2.3,4.252,4.252,0,0,1,2.561-.826,6.384,6.384,0,0,1,2.34.446l-.41,1.232a4.944,4.944,0,0,0-1.911-.447,2.751,2.751,0,0,0-1.788.668,4.4,4.4,0,0,0-1.263,1.861,7.108,7.108,0,0,0-.46,2.588,2.445,2.445,0,0,0,.58,1.737,2.091,2.091,0,0,0,1.6.619,3.888,3.888,0,0,0,1.186-.176,10.286,10.286,0,0,0,1.1-.409v1.248A5.233,5.233,0,0,1-259.184,1623.8Z" transform="translate(620.99 -1588.475)"/>
      <path id="Trazado_25470" data-name="Trazado 25470" d="M-256.537,1624.927H-258l2.045-9.567h1.466Zm.988-12.011a1.148,1.148,0,0,1,.28-.8.927.927,0,0,1,.723-.312.687.687,0,0,1,.769.787,1.181,1.181,0,0,1-.293.813.881.881,0,0,1-.676.332.8.8,0,0,1-.574-.214A.79.79,0,0,1-255.549,1612.916Z" transform="translate(623.955 -1589.775)"/>
      <path id="Trazado_25471" data-name="Trazado 25471" d="M-250.243,1615.458a3.487,3.487,0,0,1,2.618.983,3.687,3.687,0,0,1,.962,2.7,7.727,7.727,0,0,1-.629,3.1,5.349,5.349,0,0,1-1.7,2.253,3.981,3.981,0,0,1-2.428.795,3.482,3.482,0,0,1-2.628-.987,3.727,3.727,0,0,1-.949-2.7,7.752,7.752,0,0,1,.635-3.12,5.283,5.283,0,0,1,1.72-2.245A4.027,4.027,0,0,1-250.243,1615.458Zm2.059,3.483a2.389,2.389,0,0,0-.543-1.627,1.863,1.863,0,0,0-1.482-.626,2.557,2.557,0,0,0-1.7.647,4.154,4.154,0,0,0-1.17,1.795,7.471,7.471,0,0,0-.413,2.553,2.572,2.572,0,0,0,.553,1.767,2.019,2.019,0,0,0,1.593.624,2.412,2.412,0,0,0,1.632-.635,4.167,4.167,0,0,0,1.133-1.812A8.222,8.222,0,0,0-248.184,1618.942Zm-2.529-4.861a16.707,16.707,0,0,0,1.1-1.323c.406-.533.714-.967.93-1.3h1.656v.184a15.6,15.6,0,0,1-1.222,1.317,13.122,13.122,0,0,1-1.542,1.362h-.917Z" transform="translate(625.833 -1589.996)"/>
      <path id="Trazado_25472" data-name="Trazado 25472" d="M-243.187,1623.627l1.292-6.04a7.883,7.883,0,0,0,.174-1.258,1.255,1.255,0,0,0-.31-.883,1.3,1.3,0,0,0-.991-.332,2.594,2.594,0,0,0-1.513.524,4.688,4.688,0,0,0-1.3,1.494,7.894,7.894,0,0,0-.852,2.349l-.883,4.146h-1.466l2.045-9.566h1.212l-.19,1.771h.085a5.8,5.8,0,0,1,1.62-1.505,3.231,3.231,0,0,1,1.619-.442,2.449,2.449,0,0,1,1.752.606,2.224,2.224,0,0,1,.64,1.7,7.211,7.211,0,0,1-.2,1.572l-1.25,5.866Z" transform="translate(629.561 -1588.475)"/>
      <path id="Trazado_25473" data-name="Trazado 25473" d="M-238.892,1624.789h-1.5l1.71-7.971q.514-2.277.769-3.133a6.613,6.613,0,0,1-1.212.969l-1.555.961-.7-1.108,3.92-2.479h1.3Z" transform="translate(634.349 -1589.637)"/>
    </g>
    <path id="Trazado_25474" data-name="Trazado 25474" d="M-171.576,1610v1.152H-125.5V1610h-46.072" transform="translate(1153.215 184.299)" fill-rule="evenodd"/>
    <path id="Trazado_25475" data-name="Trazado 25475" d="M-483.236,1610v1.152H-84.729V1610H-483.236" transform="translate(958.334 184.299)" fill-rule="evenodd"/>
    <g id="Grupo_14678" data-name="Grupo 14678" transform="translate(1001.263 1776.138)">
      <path id="Trazado_25476" data-name="Trazado 25476" d="M-155.473,1611.589h-1.5l1.71-7.97q.517-2.28.769-3.134a6.693,6.693,0,0,1-1.212.969l-1.554.96-.7-1.108,3.919-2.479h1.3Z" transform="translate(160.466 -1598.827)"/>
      <path id="Trazado_25477" data-name="Trazado 25477" d="M-150.326,1621.9h-2.035l-.629,2.916h-1.432l.647-2.916H-159.5l.254-1.378,7.281-8.538h1.711l-1.809,8.58h2.025Zm-3.161-1.336q.4-1.919.681-3.255t1.013-3.885h-.07q-.149.253-.58.842c-.289.393-.5.673-.634.844l-4.652,5.455Z" transform="translate(159.502 -1590.6)"/>
    </g>
    <g id="Grupo_14680" data-name="Grupo 14680" transform="translate(290.874 1787.019)">
      <path id="Trazado_25481" data-name="Trazado 25481" d="M-588.264,1615.316a3.307,3.307,0,0,1-1.243,2.724,5.409,5.409,0,0,1-3.462.995,8.114,8.114,0,0,1-3.615-.769v-2.514a14.864,14.864,0,0,0,2.188.813,6.535,6.535,0,0,0,1.637.236,2.331,2.331,0,0,0,1.365-.34,1.165,1.165,0,0,0,.476-1.012,1.124,1.124,0,0,0-.208-.668,2.37,2.37,0,0,0-.616-.564,15.882,15.882,0,0,0-1.655-.863,7.89,7.89,0,0,1-1.755-1.058,3.962,3.962,0,0,1-.933-1.177,3.357,3.357,0,0,1-.349-1.571,3.3,3.3,0,0,1,1.147-2.664,4.775,4.775,0,0,1,3.173-.969,7.472,7.472,0,0,1,1.9.236,13.124,13.124,0,0,1,1.89.663l-.873,2.1a12.85,12.85,0,0,0-1.689-.585,5.367,5.367,0,0,0-1.315-.167,1.744,1.744,0,0,0-1.177.359,1.176,1.176,0,0,0-.411.933,1.157,1.157,0,0,0,.166.626,1.8,1.8,0,0,0,.528.514,15.924,15.924,0,0,0,1.715.9,6.813,6.813,0,0,1,2.454,1.716A3.347,3.347,0,0,1-588.264,1615.316Z" transform="translate(596.584 -1605.277)"/>
      <path id="Trazado_25482" data-name="Trazado 25482" d="M-585.525,1617.88a5.038,5.038,0,0,1-3.684-1.3,4.925,4.925,0,0,1-1.326-3.683,5.42,5.42,0,0,1,1.227-3.793,4.369,4.369,0,0,1,3.392-1.339,4.29,4.29,0,0,1,3.22,1.179,4.454,4.454,0,0,1,1.152,3.257v1.292h-6.293a2.559,2.559,0,0,0,.671,1.77,2.364,2.364,0,0,0,1.763.639,7.348,7.348,0,0,0,1.669-.184,8.433,8.433,0,0,0,1.64-.585v2.061a6.286,6.286,0,0,1-1.494.518A9.346,9.346,0,0,1-585.525,1617.88Zm-.375-8.224a1.693,1.693,0,0,0-1.326.536,2.5,2.5,0,0,0-.551,1.525h3.737a2.226,2.226,0,0,0-.514-1.525A1.754,1.754,0,0,0-585.9,1609.656Z" transform="translate(600.366 -1604.121)"/>
      <path id="Trazado_25483" data-name="Trazado 25483" d="M-576.623,1617.88q-4.557,0-4.557-5a5.341,5.341,0,0,1,1.24-3.8,4.652,4.652,0,0,1,3.555-1.313,6.778,6.778,0,0,1,3.038.663l-.786,2.061c-.418-.171-.81-.307-1.169-.416a3.792,3.792,0,0,0-1.082-.161q-2.08,0-2.079,2.952,0,2.862,2.079,2.864a4.75,4.75,0,0,0,1.422-.206,5.124,5.124,0,0,0,1.308-.642v2.28a4.3,4.3,0,0,1-1.3.566A7.3,7.3,0,0,1-576.623,1617.88Z" transform="translate(606.216 -1604.121)"/>
      <path id="Trazado_25484" data-name="Trazado 25484" d="M-568.712,1617.711l-.515-1.326h-.07a3.936,3.936,0,0,1-1.383,1.175,4.506,4.506,0,0,1-1.854.327,3.006,3.006,0,0,1-2.214-.8,3.082,3.082,0,0,1-.808-2.289,2.577,2.577,0,0,1,1.087-2.292,6.322,6.322,0,0,1,3.278-.816l1.694-.052v-.429a1.327,1.327,0,0,0-1.52-1.482,6.92,6.92,0,0,0-2.75.707l-.881-1.8a7.942,7.942,0,0,1,3.737-.882,4.641,4.641,0,0,1,3.01.858,3.156,3.156,0,0,1,1.048,2.6v6.5Zm-.785-4.521-1.03.036a3.3,3.3,0,0,0-1.728.417,1.315,1.315,0,0,0-.569,1.17c0,.751.432,1.128,1.292,1.128a2.044,2.044,0,0,0,1.481-.535,1.871,1.871,0,0,0,.554-1.414Z" transform="translate(609.733 -1604.129)"/>
      <path id="Trazado_25485" data-name="Trazado 25485" d="M-565.851,1619.1h-2.664v-13.583h2.664Z" transform="translate(614.135 -1605.522)"/>
      <path id="Trazado_25486" data-name="Trazado 25486" d="M-560.966,1617.88q-4.557,0-4.556-5a5.341,5.341,0,0,1,1.238-3.8,4.65,4.65,0,0,1,3.553-1.313,6.769,6.769,0,0,1,3.038.663l-.785,2.061c-.419-.171-.808-.307-1.17-.416a3.768,3.768,0,0,0-1.082-.161q-2.077,0-2.077,2.952,0,2.862,2.077,2.864a4.751,4.751,0,0,0,1.424-.206,5.124,5.124,0,0,0,1.308-.642v2.28a4.33,4.33,0,0,1-1.3.566A7.306,7.306,0,0,1-560.966,1617.88Z" transform="translate(616.007 -1604.121)"/>
      <path id="Trazado_25487" data-name="Trazado 25487" d="M-552.568,1617.633l-.358-1.247h-.14a2.8,2.8,0,0,1-1.214,1.05,4.117,4.117,0,0,1-1.788.372,3.409,3.409,0,0,1-2.594-.922,3.713,3.713,0,0,1-.873-2.649v-6.363h2.664v5.7a2.758,2.758,0,0,0,.374,1.586,1.364,1.364,0,0,0,1.2.528,1.8,1.8,0,0,0,1.616-.748,4.624,4.624,0,0,0,.5-2.474v-4.591h2.662v9.758Z" transform="translate(619.751 -1604.051)"/>
      <path id="Trazado_25488" data-name="Trazado 25488" d="M-549.61,1619.1h-2.662v-13.583h2.662Z" transform="translate(624.292 -1605.522)"/>
      <path id="Trazado_25489" data-name="Trazado 25489" d="M-542.468,1617.711l-.517-1.326h-.07a3.933,3.933,0,0,1-1.382,1.175,4.514,4.514,0,0,1-1.856.327,3,3,0,0,1-2.212-.8,3.081,3.081,0,0,1-.808-2.289,2.573,2.573,0,0,1,1.087-2.292,6.311,6.311,0,0,1,3.277-.816l1.694-.052v-.429a1.326,1.326,0,0,0-1.518-1.482,6.927,6.927,0,0,0-2.752.707l-.881-1.8a7.947,7.947,0,0,1,3.737-.882,4.646,4.646,0,0,1,3.012.858,3.16,3.16,0,0,1,1.047,2.6v6.5Zm-.787-4.521-1.03.036a3.3,3.3,0,0,0-1.728.417,1.315,1.315,0,0,0-.569,1.17c0,.751.432,1.128,1.292,1.128a2.043,2.043,0,0,0,1.481-.535,1.87,1.87,0,0,0,.554-1.414Z" transform="translate(626.143 -1604.129)"/>
      <path id="Trazado_25490" data-name="Trazado 25490" d="M-530.468,1610.007a3.9,3.9,0,0,1-1.287,3.152,5.508,5.508,0,0,1-3.662,1.091h-1.162v4.539h-2.706v-12.762h4.078a5.422,5.422,0,0,1,3.53,1A3.646,3.646,0,0,1-530.468,1610.007Zm-6.111,2.025h.891a2.956,2.956,0,0,0,1.868-.494,1.719,1.719,0,0,0,.621-1.433,1.77,1.77,0,0,0-.52-1.407,2.433,2.433,0,0,0-1.627-.454h-1.232Z" transform="translate(632.413 -1605.206)"/>
      <path id="Trazado_25491" data-name="Trazado 25491" d="M-530.068,1613.892a13.509,13.509,0,0,1,.676-4.33,10.743,10.743,0,0,1,1.952-3.535h2.183a12.553,12.553,0,0,0-1.861,3.7,13.851,13.851,0,0,0-.629,4.148,13.425,13.425,0,0,0,.642,4.133,12.545,12.545,0,0,0,1.83,3.61h-2.165a10.284,10.284,0,0,1-1.955-3.467A13.117,13.117,0,0,1-530.068,1613.892Z" transform="translate(638.176 -1605.206)"/>
      <path id="Trazado_25492" data-name="Trazado 25492" d="M-525.793,1606.027h3.972a7.652,7.652,0,0,1,3.941.772,2.691,2.691,0,0,1,1.227,2.458,3.08,3.08,0,0,1-.538,1.875,2.14,2.14,0,0,1-1.427.883v.088a2.8,2.8,0,0,1,1.75,1.012,3.3,3.3,0,0,1,.536,1.973,3.251,3.251,0,0,1-1.261,2.724,5.451,5.451,0,0,1-3.424.977h-4.777Zm2.706,5.055h1.572a2.864,2.864,0,0,0,1.593-.341,1.264,1.264,0,0,0,.494-1.125,1.127,1.127,0,0,0-.538-1.053,3.461,3.461,0,0,0-1.7-.319h-1.424Zm0,2.147v3.325h1.763a2.615,2.615,0,0,0,1.651-.427,1.583,1.583,0,0,0,.531-1.308q0-1.59-2.271-1.59Z" transform="translate(640.849 -1605.206)"/>
      <path id="Trazado_25493" data-name="Trazado 25493" d="M-514.089,1605.554h1.911v17.591h-1.911Z" transform="translate(648.168 -1605.502)"/>
      <path id="Trazado_25494" data-name="Trazado 25494" d="M-498.2,1618.809l-.926-3.038h-4.653l-.925,3.038h-2.916l4.5-12.814h3.309l4.523,12.814Zm-1.572-5.307q-1.282-4.13-1.447-4.67c-.106-.363-.184-.648-.229-.858q-.288,1.119-1.651,5.528Z" transform="translate(652.215 -1605.226)"/>
      <path id="Trazado_25495" data-name="Trazado 25495" d="M-494.889,1613.892a13.194,13.194,0,0,1-.676,4.28,10.283,10.283,0,0,1-1.952,3.447h-2.165a12.7,12.7,0,0,0,1.825-3.6,13.4,13.4,0,0,0,.645-4.141,13.851,13.851,0,0,0-.629-4.148,12.512,12.512,0,0,0-1.859-3.7h2.183a10.715,10.715,0,0,1,1.955,3.548A13.584,13.584,0,0,1-494.889,1613.892Z" transform="translate(657.165 -1605.206)"/>
      <path id="Trazado_25496" data-name="Trazado 25496" d="M-492.97,1610.291v-1.911h8.668v1.911Zm0,3.379v-1.911h8.668v1.911Z" transform="translate(661.374 -1603.736)"/>
    </g>
    <g id="Grupo_14681" data-name="Grupo 14681" transform="translate(885.603 1787.191)">
      <path id="Trazado_25497" data-name="Trazado 25497" d="M-230.664,1619.91a34.959,34.959,0,0,0,1.424-5.534l2.981-.2a27.038,27.038,0,0,1-2.456,5.555Zm2.768-8.4a1.675,1.675,0,0,1-1.716-1.773,1.684,1.684,0,0,1,1.737-1.793,1.681,1.681,0,0,1,1.733,1.793,1.678,1.678,0,0,1-1.733,1.773Z" transform="translate(230.664 -1604.181)"/>
      <path id="Trazado_25498" data-name="Trazado 25498" d="M-224.418,1606.659a22.313,22.313,0,0,1,3.685-.25,5.775,5.775,0,0,1,3.681.965,3.521,3.521,0,0,1,1.289,2.789,3.852,3.852,0,0,1-1.108,2.862,5.588,5.588,0,0,1-3.917,1.269,6.9,6.9,0,0,1-.93-.053v4.309h-2.7Zm2.7,5.473a4.288,4.288,0,0,0,.912.071c1.448,0,2.342-.733,2.342-1.968,0-1.107-.767-1.77-2.126-1.77a4.616,4.616,0,0,0-1.128.109Z" transform="translate(234.57 -1605.14)"/>
      <path id="Trazado_25499" data-name="Trazado 25499" d="M-211.936,1606.277a13.635,13.635,0,0,0-1.806,7.242,13.788,13.788,0,0,0,1.806,7.189h-1.9a12.444,12.444,0,0,1-2.038-7.207,12.639,12.639,0,0,1,2.038-7.224Z" transform="translate(239.914 -1605.222)"/>
      <path id="Trazado_25500" data-name="Trazado 25500" d="M-212.351,1606.659a21.709,21.709,0,0,1,3.522-.25,6.639,6.639,0,0,1,3.558.681,2.62,2.62,0,0,1,1.45,2.36,2.723,2.723,0,0,1-1.984,2.574v.036a3.014,3.014,0,0,1,2.394,2.968,3.212,3.212,0,0,1-1.25,2.558c-.876.7-2.342,1.091-4.739,1.091a20.772,20.772,0,0,1-2.95-.181Zm2.7,4.614h.894c1.43,0,2.2-.59,2.2-1.484,0-.913-.7-1.4-1.932-1.4a7.691,7.691,0,0,0-1.162.071Zm0,5.346a8.653,8.653,0,0,0,1.056.036c1.232,0,2.324-.481,2.324-1.734,0-1.216-1.092-1.7-2.451-1.7h-.93Z" transform="translate(242.115 -1605.14)"/>
      <path id="Trazado_25501" data-name="Trazado 25501" d="M-201.348,1605.628v17.88h-1.9v-17.88Z" transform="translate(247.81 -1605.628)"/>
      <path id="Trazado_25502" data-name="Trazado 25502" d="M-195.006,1615.423l-.858,3.093h-2.825l3.683-12.052h3.576l3.738,12.052h-2.932l-.931-3.093Zm3.057-2.038-.751-2.557c-.215-.717-.429-1.609-.608-2.326h-.034c-.18.717-.359,1.627-.556,2.326l-.715,2.557Z" transform="translate(250.658 -1605.105)"/>
      <path id="Trazado_25503" data-name="Trazado 25503" d="M-191.474,1620.708a14,14,0,0,0,1.807-7.224,13.8,13.8,0,0,0-1.807-7.207h1.9a12.474,12.474,0,0,1,2.038,7.207,12.7,12.7,0,0,1-2.038,7.224Z" transform="translate(255.169 -1605.222)"/>
      <path id="Trazado_25504" data-name="Trazado 25504" d="M-185.743,1610.944v-1.663h9.228v1.663Zm0,3.7v-1.664h9.228v1.664Z" transform="translate(258.753 -1603.344)"/>
    </g>
  </g>
</svg>
