<svg id="Grupo_14688" data-name="Grupo 14688" xmlns="http://www.w3.org/2000/svg" width="205.582" height="17.878" viewBox="0 0 205.582 17.878">
  <path id="Trazado_25531" data-name="Trazado 25531" d="M-588.264,1680.513a3.3,3.3,0,0,1-1.243,2.724,5.408,5.408,0,0,1-3.462.995,8.114,8.114,0,0,1-3.615-.769v-2.513a15.224,15.224,0,0,0,2.188.813,6.589,6.589,0,0,0,1.637.234,2.332,2.332,0,0,0,1.365-.34,1.165,1.165,0,0,0,.476-1.012,1.127,1.127,0,0,0-.208-.668,2.391,2.391,0,0,0-.616-.564,15.826,15.826,0,0,0-1.655-.863,7.9,7.9,0,0,1-1.755-1.056,3.974,3.974,0,0,1-.933-1.178,3.354,3.354,0,0,1-.349-1.572,3.3,3.3,0,0,1,1.147-2.662,4.767,4.767,0,0,1,3.173-.97,7.544,7.544,0,0,1,1.9.235,12.993,12.993,0,0,1,1.89.665l-.873,2.1a13.083,13.083,0,0,0-1.689-.585,5.43,5.43,0,0,0-1.315-.166,1.744,1.744,0,0,0-1.177.358,1.178,1.178,0,0,0-.411.935,1.156,1.156,0,0,0,.166.624,1.8,1.8,0,0,0,.528.515,16.283,16.283,0,0,0,1.715.894,6.832,6.832,0,0,1,2.454,1.716A3.35,3.35,0,0,1-588.264,1680.513Z" transform="translate(596.584 -1670.474)"/>
  <path id="Trazado_25532" data-name="Trazado 25532" d="M-585.525,1683.076a5.038,5.038,0,0,1-3.684-1.3,4.923,4.923,0,0,1-1.326-3.681,5.414,5.414,0,0,1,1.227-3.793,4.364,4.364,0,0,1,3.392-1.341,4.3,4.3,0,0,1,3.22,1.178,4.456,4.456,0,0,1,1.152,3.257v1.292h-6.293a2.564,2.564,0,0,0,.671,1.772,2.369,2.369,0,0,0,1.763.637,7.362,7.362,0,0,0,1.669-.183,8.416,8.416,0,0,0,1.64-.583v2.059a6.377,6.377,0,0,1-1.494.52A9.478,9.478,0,0,1-585.525,1683.076Zm-.375-8.222a1.687,1.687,0,0,0-1.326.536,2.489,2.489,0,0,0-.551,1.523h3.737a2.219,2.219,0,0,0-.514-1.523A1.748,1.748,0,0,0-585.9,1674.854Z" transform="translate(600.366 -1669.318)"/>
  <path id="Trazado_25533" data-name="Trazado 25533" d="M-576.623,1683.076q-4.557,0-4.557-5a5.341,5.341,0,0,1,1.24-3.8,4.652,4.652,0,0,1,3.555-1.313,6.756,6.756,0,0,1,3.038.665l-.786,2.059c-.418-.169-.81-.307-1.169-.416a3.8,3.8,0,0,0-1.082-.161q-2.08,0-2.079,2.952,0,2.862,2.079,2.864a4.757,4.757,0,0,0,1.422-.207,5.131,5.131,0,0,0,1.308-.642v2.28a4.269,4.269,0,0,1-1.3.566A7.321,7.321,0,0,1-576.623,1683.076Z" transform="translate(606.216 -1669.318)"/>
  <path id="Trazado_25534" data-name="Trazado 25534" d="M-568.712,1682.909l-.515-1.328h-.07a3.938,3.938,0,0,1-1.383,1.175,4.484,4.484,0,0,1-1.854.327,3,3,0,0,1-2.214-.8,3.079,3.079,0,0,1-.808-2.287,2.573,2.573,0,0,1,1.087-2.292,6.289,6.289,0,0,1,3.278-.816l1.694-.053v-.428a1.326,1.326,0,0,0-1.52-1.482,6.914,6.914,0,0,0-2.75.705l-.881-1.8a7.922,7.922,0,0,1,3.737-.883,4.65,4.65,0,0,1,3.01.856,3.16,3.16,0,0,1,1.048,2.6v6.5Zm-.785-4.523-1.03.036a3.315,3.315,0,0,0-1.728.419,1.31,1.31,0,0,0-.569,1.169c0,.751.432,1.128,1.292,1.128a2.049,2.049,0,0,0,1.481-.533,1.876,1.876,0,0,0,.554-1.414Z" transform="translate(609.733 -1669.325)"/>
  <path id="Trazado_25535" data-name="Trazado 25535" d="M-565.851,1684.3h-2.664v-13.584h2.664Z" transform="translate(614.135 -1670.719)"/>
  <path id="Trazado_25536" data-name="Trazado 25536" d="M-560.966,1683.076q-4.557,0-4.556-5a5.34,5.34,0,0,1,1.238-3.8,4.651,4.651,0,0,1,3.553-1.313,6.747,6.747,0,0,1,3.038.665l-.785,2.059c-.419-.169-.808-.307-1.17-.416a3.776,3.776,0,0,0-1.082-.161q-2.077,0-2.077,2.952,0,2.862,2.077,2.864a4.758,4.758,0,0,0,1.424-.207,5.13,5.13,0,0,0,1.308-.642v2.28a4.3,4.3,0,0,1-1.3.566A7.33,7.33,0,0,1-560.966,1683.076Z" transform="translate(616.007 -1669.318)"/>
  <path id="Trazado_25537" data-name="Trazado 25537" d="M-552.568,1682.832l-.358-1.248h-.14a2.811,2.811,0,0,1-1.214,1.052,4.143,4.143,0,0,1-1.788.37,3.409,3.409,0,0,1-2.594-.92,3.718,3.718,0,0,1-.873-2.651v-6.363h2.664v5.7a2.753,2.753,0,0,0,.374,1.584,1.364,1.364,0,0,0,1.2.528,1.8,1.8,0,0,0,1.616-.748,4.623,4.623,0,0,0,.5-2.474v-4.591h2.662v9.76Z" transform="translate(619.751 -1669.248)"/>
  <path id="Trazado_25538" data-name="Trazado 25538" d="M-549.61,1684.3h-2.662v-13.584h2.662Z" transform="translate(624.292 -1670.719)"/>
  <path id="Trazado_25539" data-name="Trazado 25539" d="M-542.468,1682.909l-.517-1.328h-.07a3.935,3.935,0,0,1-1.382,1.175,4.492,4.492,0,0,1-1.856.327,3,3,0,0,1-2.212-.8,3.079,3.079,0,0,1-.808-2.287,2.569,2.569,0,0,1,1.087-2.292,6.277,6.277,0,0,1,3.277-.816l1.694-.053v-.428a1.325,1.325,0,0,0-1.518-1.482,6.921,6.921,0,0,0-2.752.705l-.881-1.8a7.927,7.927,0,0,1,3.737-.883,4.655,4.655,0,0,1,3.012.856,3.164,3.164,0,0,1,1.047,2.6v6.5Zm-.787-4.523-1.03.036a3.314,3.314,0,0,0-1.728.419,1.31,1.31,0,0,0-.569,1.169c0,.751.432,1.128,1.292,1.128a2.049,2.049,0,0,0,1.481-.533,1.875,1.875,0,0,0,.554-1.414Z" transform="translate(626.143 -1669.325)"/>
  <path id="Trazado_25540" data-name="Trazado 25540" d="M-530.468,1675.2a3.9,3.9,0,0,1-1.287,3.152,5.508,5.508,0,0,1-3.662,1.092h-1.162v4.539h-2.706v-12.763h4.078a5.421,5.421,0,0,1,3.53,1A3.647,3.647,0,0,1-530.468,1675.2Zm-6.111,2.025h.891a2.964,2.964,0,0,0,1.868-.493,1.72,1.72,0,0,0,.621-1.435,1.763,1.763,0,0,0-.52-1.406,2.424,2.424,0,0,0-1.627-.455h-1.232Z" transform="translate(632.413 -1670.403)"/>
  <path id="Trazado_25541" data-name="Trazado 25541" d="M-530.068,1679.089a13.518,13.518,0,0,1,.676-4.33,10.759,10.759,0,0,1,1.952-3.535h2.183a12.577,12.577,0,0,0-1.861,3.7,13.858,13.858,0,0,0-.629,4.148,13.421,13.421,0,0,0,.642,4.133,12.523,12.523,0,0,0,1.83,3.61h-2.165a10.266,10.266,0,0,1-1.955-3.467A13.1,13.1,0,0,1-530.068,1679.089Z" transform="translate(638.176 -1670.403)"/>
  <path id="Trazado_25542" data-name="Trazado 25542" d="M-525.793,1671.224h3.972a7.632,7.632,0,0,1,3.941.774,2.686,2.686,0,0,1,1.227,2.456,3.089,3.089,0,0,1-.538,1.877,2.145,2.145,0,0,1-1.427.883v.086a2.819,2.819,0,0,1,1.75,1.012,3.3,3.3,0,0,1,.536,1.973,3.249,3.249,0,0,1-1.261,2.724,5.451,5.451,0,0,1-3.424.978h-4.777Zm2.706,5.055h1.572a2.88,2.88,0,0,0,1.593-.34,1.269,1.269,0,0,0,.494-1.126,1.125,1.125,0,0,0-.538-1.052,3.44,3.44,0,0,0-1.7-.32h-1.424Zm0,2.147v3.327h1.763a2.613,2.613,0,0,0,1.651-.429,1.581,1.581,0,0,0,.531-1.308q0-1.59-2.271-1.59Z" transform="translate(640.849 -1670.403)"/>
  <path id="Trazado_25543" data-name="Trazado 25543" d="M-516.533,1673.072h2.916l1.843,5.49a7.615,7.615,0,0,1,.322,1.7h.052a7.432,7.432,0,0,1,.377-1.7l1.806-5.49h2.856l-4.13,11.006a4.779,4.779,0,0,1-1.619,2.288,4.1,4.1,0,0,1-2.457.759,6.072,6.072,0,0,1-1.354-.15v-2.109a4.607,4.607,0,0,0,1.047.112,1.892,1.892,0,0,0,1.235-.432,2.786,2.786,0,0,0,.826-1.3l.158-.479Z" transform="translate(646.64 -1669.248)"/>
  <path id="Trazado_25544" data-name="Trazado 25544" d="M-498,1684.007l-.925-3.038h-4.653l-.925,3.038h-2.916l4.505-12.816h3.307l4.522,12.816Zm-1.572-5.308q-1.282-4.127-1.443-4.67c-.109-.362-.185-.647-.232-.856q-.288,1.119-1.65,5.526Z" transform="translate(652.339 -1670.423)"/>
  <path id="Trazado_25545" data-name="Trazado 25545" d="M-494.692,1679.089a13.2,13.2,0,0,1-.676,4.279,10.253,10.253,0,0,1-1.95,3.447h-2.165a12.632,12.632,0,0,0,1.824-3.6,13.3,13.3,0,0,0,.645-4.141,13.908,13.908,0,0,0-.627-4.148,12.572,12.572,0,0,0-1.859-3.7h2.183a10.721,10.721,0,0,1,1.955,3.55A13.619,13.619,0,0,1-494.692,1679.089Z" transform="translate(657.29 -1670.403)"/>
  <path id="Trazado_25546" data-name="Trazado 25546" d="M-492.771,1675.487v-1.91h8.669v1.91Zm0,3.381v-1.913h8.669v1.913Z" transform="translate(661.498 -1668.932)"/>
  <path id="Trazado_25547" data-name="Trazado 25547" d="M-474.789,1677.684a8.9,8.9,0,0,1-1.094,4.949,3.806,3.806,0,0,1-3.376,1.606,3.753,3.753,0,0,1-3.329-1.658,8.759,8.759,0,0,1-1.123-4.9,8.994,8.994,0,0,1,1.091-4.981,3.787,3.787,0,0,1,3.361-1.6,3.771,3.771,0,0,1,3.34,1.676A8.809,8.809,0,0,1-474.789,1677.684Zm-6.241,0a9.941,9.941,0,0,0,.406,3.364,1.4,1.4,0,0,0,1.365,1.016,1.42,1.42,0,0,0,1.362-1.029,9.642,9.642,0,0,0,.419-3.351,9.609,9.609,0,0,0-.424-3.374,1.422,1.422,0,0,0-1.357-1.026,1.409,1.409,0,0,0-1.362,1.026A9.926,9.926,0,0,0-481.03,1677.684Z" transform="translate(667.164 -1670.481)"/>
  <path id="Trazado_25548" data-name="Trazado 25548" d="M-474.033,1678a27.312,27.312,0,0,1-1.538,4.182h-1.919q.566-2.324.881-4.384h2.444Z" transform="translate(671.053 -1666.293)"/>
  <path id="Trazado_25549" data-name="Trazado 25549" d="M-467.661,1683.987h-2.7V1676.6l.026-1.214.044-1.328c-.449.45-.761.743-.934.882l-1.466,1.179-1.3-1.622,4.11-3.275h2.217Z" transform="translate(673.243 -1670.403)"/>
</svg>
