<svg xmlns="http://www.w3.org/2000/svg" viewBox="0 0 531.08 369.51"><defs><style>.cls-1,.cls-15,.cls-6{font-size:14px;}.cls-1,.cls-22,.cls-32,.cls-4,.cls-6{font-family:MyriadPro-Bold, Myriad Pro;font-weight:700;}.cls-1{letter-spacing:-0.01em;}.cls-2{letter-spacing:-0.01em;}.cls-3{letter-spacing:0em;}.cls-22,.cls-32,.cls-4{font-size:9px;}.cls-5{letter-spacing:0em;}.cls-7{fill:#90be30;}.cls-8{fill:#84e3c4;}.cls-9{letter-spacing:-0.01em;}.cls-10{letter-spacing:0em;}.cls-11{letter-spacing:-0.01em;}.cls-12{fill:#784488;}.cls-13{fill:#df6117;}.cls-14,.cls-16,.cls-20,.cls-29,.cls-49{fill:none;}.cls-15{font-family:MyriadPro-SemiboldIt, Myriad Pro;font-weight:600;font-style:italic;}.cls-16{stroke:#0042ff;stroke-width:0.75px;}.cls-16,.cls-18,.cls-20,.cls-29,.cls-31,.cls-46,.cls-49{stroke-miterlimit:10;}.cls-17{fill:#7d75be;}.cls-18,.cls-19,.cls-46{fill:#cb2228;}.cls-18,.cls-20,.cls-46{stroke:#b2125f;}.cls-18,.cls-49{stroke-dasharray:3;}.cls-21{fill:#b2125f;}.cls-22,.cls-24{letter-spacing:0em;}.cls-23{letter-spacing:0em;}.cls-25{letter-spacing:-0.01em;}.cls-26{letter-spacing:-0.01em;}.cls-27{letter-spacing:-0.02em;}.cls-28{fill:#69f;}.cls-29,.cls-31,.cls-49{stroke:#999;}.cls-30{fill:#0042ff;}.cls-31{fill:#999;}.cls-32{fill:#fff;}.cls-33{letter-spacing:-0.01em;}.cls-34{letter-spacing:-0.02em;}.cls-35{letter-spacing:-0.01em;}.cls-36{letter-spacing:0em;}.cls-37{letter-spacing:0em;}.cls-38{letter-spacing:-0.05em;}.cls-39{letter-spacing:0em;}.cls-40{letter-spacing:0em;}.cls-41{letter-spacing:-0.01em;}.cls-42{letter-spacing:-0.02em;}.cls-43{letter-spacing:-0.01em;}.cls-44{letter-spacing:0.02em;}.cls-45{fill:#ffd100;}.cls-47{letter-spacing:0em;}.cls-48{fill:#9bd7f1;}.cls-49{stroke-width:0.25px;}.cls-50{letter-spacing:-0.01em;}.cls-51{letter-spacing:-0.02em;}</style></defs><g id="Capa_2" data-name="Capa 2"><g id="Capa_1-2" data-name="Capa 1"><text class="cls-1" transform="translate(430.79 235.29)">Á<tspan class="cls-2" x="9.1" y="0">r</tspan><tspan class="cls-3" x="14.31" y="0" xml:space="preserve">ea  = ∏ x r2</tspan></text><text class="cls-4" transform="translate(306.48 154.52) rotate(-77.07)"><tspan class="cls-5">L</tspan><tspan x="4.63" y="0">ado (L)</tspan></text><text class="cls-6" transform="translate(176.6 49.61)">A = L X L</text><text class="cls-6" transform="translate(176.13 142.44)">A = b x h</text><text class="cls-6" transform="translate(442.58 49.61)">A = b x h</text><text class="cls-4" transform="translate(110.34 54.66) rotate(-90)"><tspan class="cls-5">L</tspan><tspan x="4.63" y="0">ado (L)</tspan></text><text class="cls-4" transform="translate(52.41 80.57)"><tspan class="cls-5">L</tspan><tspan x="4.63" y="0">ado (L)</tspan></text><polygon class="cls-7" points="96.76 67 40.07 67 40.07 10.3 96.76 10.3 96.76 67 96.76 67"/><polygon class="cls-8" points="360.24 117.08 322.79 117.08 310.1 159.59 375.46 159.59 360.24 117.08 360.24 117.08"/><text class="cls-4" transform="translate(321.04 72.6)">base (<tspan class="cls-9" x="23.44" y="0">b</tspan><tspan class="cls-10" x="28.75" y="0">)</tspan></text><text class="cls-4" transform="translate(390 55.71) rotate(-90)">altu<tspan class="cls-11" x="15.78" y="0">r</tspan><tspan x="19.1" y="0">a (h)</tspan></text><text class="cls-4" transform="translate(390 156.63) rotate(-90)">altu<tspan class="cls-11" x="15.78" y="0">r</tspan><tspan x="19.1" y="0">a (h)</tspan></text><polygon class="cls-12" points="352.21 58.67 293.31 58.67 321.44 16.15 380.34 16.15 352.21 58.67 352.21 58.67"/><text class="cls-4" transform="translate(110.34 149.24) rotate(-90)">altu<tspan class="cls-11" x="15.78" y="0">r</tspan><tspan x="19.1" y="0">a (h)</tspan></text><text class="cls-4" transform="translate(52.63 164.03)">base (<tspan class="cls-9" x="23.44" y="0">b</tspan><tspan class="cls-10" x="28.75" y="0">)</tspan></text><polygon class="cls-13" points="96.76 150.78 40.07 150.78 40.07 111.1 96.76 111.1 96.76 150.78 96.76 150.78"/><line class="cls-14" x1="182.57" y1="191.76" x2="198.05" y2="191.76"/><text class="cls-6" transform="translate(175.37 328.11)">A = D x d</text><text class="cls-15" transform="translate(206.59 226.05)">b x h<tspan x="9.9" y="16.8">2</tspan></text><text class="cls-6" transform="translate(179.74 234.45)">A =</text><line class="cls-16" x1="205.94" y1="230.35" x2="234.29" y2="230.35"/><polygon class="cls-17" points="35.94 254.9 70.51 195.01 105.09 254.9 35.94 254.9 35.94 254.9"/><text class="cls-4" transform="translate(80.12 202.71)">altu<tspan class="cls-11" x="15.78" y="0">r</tspan><tspan x="19.1" y="0">a (h)</tspan></text><text class="cls-4" transform="translate(54.73 264.37)">base (<tspan class="cls-9" x="23.44" y="0">b</tspan><tspan class="cls-10" x="28.75" y="0">)</tspan></text><line class="cls-18" x1="70.51" y1="195.01" x2="70.51" y2="254.9"/><line class="cls-19" x1="100.79" y1="203.69" x2="72.11" y2="220.2"/><line class="cls-20" x1="100.79" y1="203.69" x2="73.1" y2="219.63"/><polygon class="cls-21" points="73.98 217.17 73.36 219.48 75.67 220.1 74.43 220.82 72.11 220.2 72.73 217.88 73.98 217.17"/><text class="cls-22" transform="translate(24.4 304.38)">L<tspan class="cls-23" x="4.63" y="0">ado (L)</tspan></text><text class="cls-4" transform="translate(93.89 292)"><tspan class="cls-24">D</tspan><tspan x="6.3" y="0">iagonal</tspan><tspan x="-1.37" y="10.8">menor (d)</tspan></text><text class="cls-4" transform="translate(22.17 350.5)"><tspan class="cls-24">D</tspan><tspan x="6.3" y="0">iagonal</tspan><tspan x="-1.33" y="10.8">m</tspan><tspan class="cls-25" x="6.41" y="10.8">a</tspan><tspan class="cls-26" x="11.06" y="10.8">y</tspan><tspan x="15.63" y="10.8">or (</tspan><tspan class="cls-27" x="28.89" y="10.8">D</tspan><tspan x="34.98" y="10.8">)</tspan></text><polygon class="cls-28" points="53.41 326.12 77.21 290.19 101.01 326.12 77.21 362.05 53.41 326.12 53.41 326.12"/><line class="cls-18" x1="77.21" y1="289.93" x2="77.21" y2="362.05"/><line class="cls-19" x1="40.97" y1="305.89" x2="56.56" y2="314.74"/><line class="cls-20" x1="40.97" y1="305.89" x2="55.56" y2="314.18"/><polygon class="cls-21" points="52.99 314.67 55.31 314.03 54.67 311.72 55.92 312.43 56.56 314.74 54.25 315.38 52.99 314.67"/><line class="cls-19" x1="110.08" y1="303.79" x2="88.44" y2="325.12"/><line class="cls-20" x1="110.08" y1="303.79" x2="89.25" y2="324.32"/><polygon class="cls-21" points="89.48 321.71 89.46 324.11 91.86 324.13 90.83 325.14 88.44 325.12 88.45 322.72 89.48 321.71"/><line class="cls-19" x1="60.24" y1="352.63" x2="75.82" y2="342.31"/><line class="cls-20" x1="60.24" y1="352.63" x2="74.87" y2="342.94"/><polygon class="cls-21" points="74.15 345.45 74.62 343.1 72.27 342.63 73.47 341.83 75.82 342.31 75.35 344.66 74.15 345.45"/><line class="cls-18" x1="100.52" y1="325.99" x2="53.41" y2="325.99"/><rect class="cls-29" x="14.67" y="0.5" width="123.31" height="90"/><rect class="cls-29" x="140.81" y="0.5" width="123.31" height="90"/><rect class="cls-29" x="281.13" y="0.5" width="123.31" height="90"/><rect class="cls-29" x="407.27" y="0.5" width="123.31" height="90"/><rect class="cls-29" x="14.67" y="93.34" width="123.31" height="90"/><rect class="cls-29" x="140.81" y="93.34" width="123.31" height="90"/><rect class="cls-29" x="281.13" y="93.34" width="123.31" height="90"/><rect class="cls-29" x="407.27" y="93.34" width="123.31" height="90"/><rect class="cls-29" x="14.67" y="186.17" width="123.31" height="90"/><rect class="cls-29" x="140.81" y="186.17" width="123.31" height="90"/><rect class="cls-29" x="281.13" y="186.17" width="123.31" height="90"/><rect class="cls-29" x="407.27" y="186.17" width="123.31" height="90"/><rect class="cls-29" x="14.67" y="279" width="123.31" height="90"/><rect class="cls-29" x="140.81" y="279" width="123.31" height="90"/><rect class="cls-29" x="281.13" y="279" width="123.31" height="90"/><rect class="cls-29" x="407.27" y="279" width="123.31" height="90"/><rect class="cls-30" x="140.81" y="0.5" width="123.31" height="14.17"/><rect class="cls-31" x="0.5" y="0.5" width="14.17" height="90"/><rect class="cls-31" x="0.5" y="93.34" width="14.17" height="90"/><rect class="cls-31" x="0.5" y="186.17" width="14.17" height="90"/><rect class="cls-31" x="0.5" y="279.01" width="14.17" height="90"/><text class="cls-32" transform="translate(191.49 10.23)"><tspan class="cls-33">Á</tspan><tspan class="cls-9" x="5.85" y="0">r</tspan><tspan x="9.2" y="0">ea</tspan></text><rect class="cls-30" x="140.81" y="93.34" width="123.31" height="14.17"/><rect class="cls-30" x="140.81" y="186.17" width="123.31" height="14.17"/><rect class="cls-30" x="140.81" y="279" width="123.31" height="14.17"/><text class="cls-32" transform="translate(10.23 65.09) rotate(-90)"><tspan class="cls-34">C</tspan><tspan x="5.17" y="0">uad</tspan><tspan class="cls-35" x="20.54" y="0">r</tspan><tspan class="cls-36" x="23.86" y="0">ado</tspan></text><rect class="cls-30" x="407.27" y="0.5" width="123.31" height="14.17"/><rect class="cls-31" x="266.96" y="0.5" width="14.17" height="90"/><rect class="cls-30" x="407.27" y="93.34" width="123.31" height="14.17"/><rect class="cls-30" x="407.27" y="186.17" width="123.31" height="14.17"/><rect class="cls-30" x="407.27" y="279" width="123.31" height="14.17"/><text class="cls-32" transform="translate(276.69 66.23) rotate(-90)">Rom<tspan class="cls-37" x="18.27" y="0">b</tspan><tspan class="cls-10" x="23.68" y="0">oide</tspan></text><rect class="cls-31" x="266.96" y="93.34" width="14.17" height="90"/><text class="cls-32" transform="translate(276.69 155.54) rotate(-90)"><tspan class="cls-38">T</tspan><tspan class="cls-35" x="4.45" y="0">r</tspan><tspan class="cls-36" x="7.77" y="0">a</tspan><tspan class="cls-39" x="12.52" y="0">p</tspan><tspan x="17.93" y="0">ecio</tspan></text><rect class="cls-31" x="266.96" y="186.17" width="14.17" height="90"/><text class="cls-32" transform="translate(276.69 245.23) rotate(-90)"><tspan class="cls-40">C</tspan><tspan x="5.32" y="0">í</tspan><tspan class="cls-41" x="7.79" y="0">r</tspan><tspan x="11.13" y="0">culo</tspan></text><rect class="cls-31" x="266.96" y="279.01" width="14.17" height="90"/><text class="cls-32" transform="translate(276.69 345.99) rotate(-90)"><tspan class="cls-42">P</tspan><tspan x="5.01" y="0">e</tspan><tspan class="cls-43" x="9.76" y="0">n</tspan><tspan x="14.99" y="0">tágono</tspan></text><text class="cls-32" transform="translate(10.23 338.44) rotate(-90)">Rom<tspan class="cls-37" x="18.27" y="0">b</tspan><tspan class="cls-10" x="23.68" y="0">o</tspan></text><text class="cls-32" transform="translate(10.23 250.44) rotate(-90)"><tspan class="cls-38">T</tspan><tspan x="4.45" y="0">riángulo</tspan></text><text class="cls-32" transform="translate(10.23 161.59) rotate(-90)">Re<tspan class="cls-44" x="10.09" y="0">c</tspan><tspan x="14.29" y="0">tángulo</tspan></text><text class="cls-4" transform="translate(397.27 245.91) rotate(-90)"><tspan class="cls-11">r</tspan><tspan x="3.32" y="0">adio (r)</tspan></text><path class="cls-45" d="M381.36,231.17A35.22,35.22,0,1,1,346.14,196a35.19,35.19,0,0,1,35.22,35.15Z"/><line class="cls-46" x1="346.14" y1="231.17" x2="372.05" y2="255.31"/><line class="cls-46" x1="320.29" y1="254.97" x2="372.05" y2="207.37"/><text class="cls-4" transform="translate(286.05 210.82)">diámet<tspan class="cls-41" x="28.38" y="0">r</tspan><tspan x="31.72" y="0">o (d)</tspan></text><line class="cls-19" x1="305.45" y1="213.02" x2="334.19" y2="242.18"/><line class="cls-20" x1="305.45" y1="213.02" x2="333.39" y2="241.37"/><polygon class="cls-21" points="330.78 241.14 333.18 241.16 333.2 238.76 334.21 239.78 334.19 242.18 331.8 242.16 330.78 241.14"/><line class="cls-19" x1="389.7" y1="233.15" x2="358.65" y2="242.82"/><line class="cls-20" x1="389.7" y1="233.15" x2="359.74" y2="242.48"/><polygon class="cls-21" points="361.14 240.27 360.02 242.39 362.15 243.51 360.77 243.94 358.65 242.82 359.76 240.7 361.14 240.27"/><text class="cls-4" transform="translate(317.15 359.74)"><tspan class="cls-5">L</tspan><tspan x="4.63" y="0">ado (L)</tspan></text><text class="cls-4" transform="translate(383.69 336.24) rotate(-90)">a<tspan class="cls-37" x="4.75" y="0">p</tspan><tspan class="cls-10" x="10.16" y="0">o</tspan><tspan class="cls-47" x="15.35" y="0">t</tspan><tspan class="cls-36" x="18.61" y="0">ema (a)</tspan></text><polygon class="cls-48" points="312.43 349.8 299.63 310.38 333.16 286.02 366.69 310.38 353.88 349.8 312.43 349.8 312.43 349.8"/><line class="cls-19" x1="376.93" y1="310.51" x2="340.01" y2="310.45"/><line class="cls-20" x1="376.93" y1="310.51" x2="341.16" y2="310.45"/><polygon class="cls-21" points="343.15 308.76 341.45 310.45 343.14 312.15 341.7 312.15 340.01 310.45 341.71 308.76 343.15 308.76"/><line class="cls-46" x1="331.7" y1="320.55" x2="350.03" y2="298.28"/><line class="cls-49" x1="352.21" y1="58.67" x2="380.34" y2="58.67"/><line class="cls-49" x1="380.34" y1="58.67" x2="380.34" y2="16.15"/><line class="cls-49" x1="360.12" y1="159.59" x2="360.12" y2="117.08"/><text class="cls-4" transform="translate(313.24 170.44)">base m<tspan class="cls-50" x="28.35" y="0">a</tspan><tspan class="cls-51" x="32.99" y="0">y</tspan><tspan x="37.57" y="0">or (B)</tspan></text><text class="cls-4" transform="translate(312.9 113.78)">base menor (<tspan class="cls-41" x="51.63" y="0">b</tspan><tspan x="56.94" y="0">)</tspan></text><text class="cls-15" transform="translate(454.34 134.04)">h (B x b)<tspan x="19.26" y="16.8">2</tspan></text><text class="cls-6" transform="translate(428.69 142.44)">A =</text><line class="cls-16" x1="454.68" y1="138.34" x2="500.04" y2="138.34"/><text class="cls-15" transform="translate(468.56 319.71)">p x a<tspan x="9.83" y="16.8">2</tspan></text><text class="cls-6" transform="translate(433.2 328.11)">A =</text><line class="cls-16" x1="459.2" y1="324" x2="504.55" y2="324"/><text class="cls-32" transform="translate(191.49 103.06)"><tspan class="cls-33">Á</tspan><tspan class="cls-9" x="5.85" y="0">r</tspan><tspan x="9.2" y="0">ea</tspan></text><text class="cls-32" transform="translate(191.65 195.9)"><tspan class="cls-33">Á</tspan><tspan class="cls-9" x="5.85" y="0">r</tspan><tspan x="9.2" y="0">ea</tspan></text><text class="cls-32" transform="translate(191.49 288.69)"><tspan class="cls-33">Á</tspan><tspan class="cls-9" x="5.85" y="0">r</tspan><tspan x="9.2" y="0">ea</tspan></text><text class="cls-32" transform="translate(457.95 10.33)"><tspan class="cls-33">Á</tspan><tspan class="cls-9" x="5.85" y="0">r</tspan><tspan x="9.2" y="0">ea</tspan></text><text class="cls-32" transform="translate(457.95 103.06)"><tspan class="cls-33">Á</tspan><tspan class="cls-9" x="5.85" y="0">r</tspan><tspan x="9.2" y="0">ea</tspan></text><text class="cls-32" transform="translate(458.11 195.9)"><tspan class="cls-33">Á</tspan><tspan class="cls-9" x="5.85" y="0">r</tspan><tspan x="9.2" y="0">ea</tspan></text><text class="cls-32" transform="translate(457.95 288.69)"><tspan class="cls-33">Á</tspan><tspan class="cls-9" x="5.85" y="0">r</tspan><tspan x="9.2" y="0">ea</tspan></text></g></g></svg>