<svg xmlns="http://www.w3.org/2000/svg" viewBox="0 0 152.14 155.63"><defs><style>.cls-1{fill:#9fffcd;}.cls-2{fill:#b2b2b2;}.cls-3{fill:#ff0007;}</style></defs><g id="Capa_2" data-name="Capa 2"><g id="Capa_1-2" data-name="Capa 1"><path class="cls-1" d="M28.6,42.5H13.92V27.82H28.6ZM14.42,42H28.1V28.32H14.42Z"/><path class="cls-1" d="M42.77,42.5H28.1V27.82H42.77ZM28.6,42H42.27V28.32H28.6Z"/><path class="cls-1" d="M56.94,42.5H42.27V27.82H56.94ZM42.77,42H56.44V28.32H42.77Z"/><path class="cls-1" d="M71.12,42.5H56.44V27.82H71.12ZM56.94,42H70.62V28.32H56.94Z"/><path class="cls-1" d="M85.29,42.5H70.62V27.82H85.29ZM71.12,42H84.79V28.32H71.12Z"/><path class="cls-1" d="M99.46,42.5H84.79V27.82H99.46ZM85.29,42H99V28.32H85.29Z"/><path class="cls-1" d="M113.64,42.5H99V27.82h14.68ZM99.46,42h13.68V28.32H99.46Z"/><path class="cls-1" d="M127.81,42.5H113.14V27.82h14.67ZM113.64,42h13.67V28.32H113.64Z"/><path class="cls-1" d="M28.6,56.67H13.92V42H28.6Zm-14.18-.5H28.1V42.5H14.42Z"/><path class="cls-1" d="M42.77,56.67H28.1V42H42.77Zm-14.17-.5H42.27V42.5H28.6Z"/><path class="cls-1" d="M56.94,56.67H42.27V42H56.94Zm-14.17-.5H56.44V42.5H42.77Z"/><path class="cls-1" d="M71.12,56.67H56.44V42H71.12Zm-14.18-.5H70.62V42.5H56.94Z"/><path class="cls-1" d="M85.29,56.67H70.62V42H85.29Zm-14.17-.5H84.79V42.5H71.12Z"/><path class="cls-1" d="M99.46,56.67H84.79V42H99.46Zm-14.17-.5H99V42.5H85.29Z"/><path class="cls-1" d="M113.64,56.67H99V42h14.68Zm-14.18-.5h13.68V42.5H99.46Z"/><path class="cls-1" d="M127.81,56.67H113.14V42h14.67Zm-14.17-.5h13.67V42.5H113.64Z"/><path class="cls-1" d="M28.6,70.84H13.92V56.17H28.6Zm-14.18-.5H28.1V56.67H14.42Z"/><path class="cls-1" d="M42.77,70.84H28.1V56.17H42.77Zm-14.17-.5H42.27V56.67H28.6Z"/><path class="cls-1" d="M56.94,70.84H42.27V56.17H56.94Zm-14.17-.5H56.44V56.67H42.77Z"/><path class="cls-1" d="M71.12,70.84H56.44V56.17H71.12Zm-14.18-.5H70.62V56.67H56.94Z"/><path class="cls-1" d="M85.29,70.84H70.62V56.17H85.29Zm-14.17-.5H84.79V56.67H71.12Z"/><path class="cls-1" d="M99.46,70.84H84.79V56.17H99.46Zm-14.17-.5H99V56.67H85.29Z"/><path class="cls-1" d="M113.64,70.84H99V56.17h14.68Zm-14.18-.5h13.68V56.67H99.46Z"/><path class="cls-1" d="M127.81,70.84H113.14V56.17h14.67Zm-14.17-.5h13.67V56.67H113.64Z"/><path class="cls-1" d="M28.6,85H13.92V70.34H28.6Zm-14.18-.5H28.1V70.84H14.42Z"/><path class="cls-1" d="M42.77,85H28.1V70.34H42.77Zm-14.17-.5H42.27V70.84H28.6Z"/><path class="cls-1" d="M56.94,85H42.27V70.34H56.94Zm-14.17-.5H56.44V70.84H42.77Z"/><path class="cls-1" d="M71.12,85H56.44V70.34H71.12Zm-14.18-.5H70.62V70.84H56.94Z"/><path class="cls-1" d="M85.29,85H70.62V70.34H85.29Zm-14.17-.5H84.79V70.84H71.12Z"/><path class="cls-1" d="M99.46,85H84.79V70.34H99.46Zm-14.17-.5H99V70.84H85.29Z"/><path class="cls-1" d="M113.64,85H99V70.34h14.68Zm-14.18-.5h13.68V70.84H99.46Z"/><path class="cls-1" d="M127.81,85H113.14V70.34h14.67Zm-14.17-.5h13.67V70.84H113.64Z"/><path class="cls-1" d="M28.6,99.19H13.92V84.52H28.6Zm-14.18-.5H28.1V85H14.42Z"/><path class="cls-1" d="M42.77,99.19H28.1V84.52H42.77Zm-14.17-.5H42.27V85H28.6Z"/><path class="cls-1" d="M56.94,99.19H42.27V84.52H56.94Zm-14.17-.5H56.44V85H42.77Z"/><path class="cls-1" d="M71.12,99.19H56.44V84.52H71.12Zm-14.18-.5H70.62V85H56.94Z"/><path class="cls-1" d="M85.29,99.19H70.62V84.52H85.29Zm-14.17-.5H84.79V85H71.12Z"/><path class="cls-1" d="M99.46,99.19H84.79V84.52H99.46Zm-14.17-.5H99V85H85.29Z"/><path class="cls-1" d="M113.64,99.19H99V84.52h14.68Zm-14.18-.5h13.68V85H99.46Z"/><path class="cls-1" d="M127.81,99.19H113.14V84.52h14.67Zm-14.17-.5h13.67V85H113.64Z"/><path class="cls-1" d="M28.6,113.36H13.92V98.69H28.6Zm-14.18-.5H28.1V99.19H14.42Z"/><path class="cls-1" d="M42.77,113.36H28.1V98.69H42.77Zm-14.17-.5H42.27V99.19H28.6Z"/><path class="cls-1" d="M56.94,113.36H42.27V98.69H56.94Zm-14.17-.5H56.44V99.19H42.77Z"/><path class="cls-1" d="M71.12,113.36H56.44V98.69H71.12Zm-14.18-.5H70.62V99.19H56.94Z"/><path class="cls-1" d="M85.29,113.36H70.62V98.69H85.29Zm-14.17-.5H84.79V99.19H71.12Z"/><path class="cls-1" d="M99.46,113.36H84.79V98.69H99.46Zm-14.17-.5H99V99.19H85.29Z"/><path class="cls-1" d="M113.64,113.36H99V98.69h14.68Zm-14.18-.5h13.68V99.19H99.46Z"/><path class="cls-1" d="M127.81,113.36H113.14V98.69h14.67Zm-14.17-.5h13.67V99.19H113.64Z"/><path class="cls-1" d="M28.6,127.54H13.92V112.86H28.6ZM14.42,127H28.1V113.36H14.42Z"/><path class="cls-1" d="M42.77,127.54H28.1V112.86H42.77ZM28.6,127H42.27V113.36H28.6Z"/><path class="cls-1" d="M56.94,127.54H42.27V112.86H56.94ZM42.77,127H56.44V113.36H42.77Z"/><path class="cls-1" d="M71.12,127.54H56.44V112.86H71.12ZM56.94,127H70.62V113.36H56.94Z"/><path class="cls-1" d="M85.29,127.54H70.62V112.86H85.29ZM71.12,127H84.79V113.36H71.12Z"/><path class="cls-1" d="M99.46,127.54H84.79V112.86H99.46ZM85.29,127H99V113.36H85.29Z"/><path class="cls-1" d="M113.64,127.54H99V112.86h14.68ZM99.46,127h13.68V113.36H99.46Z"/><path class="cls-1" d="M127.81,127.54H113.14V112.86h14.67Zm-14.17-.5h13.67V113.36H113.64Z"/><path class="cls-1" d="M28.6,141.71H13.92V127H28.6Zm-14.18-.5H28.1V127.54H14.42Z"/><path class="cls-1" d="M42.77,141.71H28.1V127H42.77Zm-14.17-.5H42.27V127.54H28.6Z"/><path class="cls-1" d="M56.94,141.71H42.27V127H56.94Zm-14.17-.5H56.44V127.54H42.77Z"/><path class="cls-1" d="M71.12,141.71H56.44V127H71.12Zm-14.18-.5H70.62V127.54H56.94Z"/><path class="cls-1" d="M85.29,141.71H70.62V127H85.29Zm-14.17-.5H84.79V127.54H71.12Z"/><path class="cls-1" d="M99.46,141.71H84.79V127H99.46Zm-14.17-.5H99V127.54H85.29Z"/><path class="cls-1" d="M113.64,141.71H99V127h14.68Zm-14.18-.5h13.68V127.54H99.46Z"/><path class="cls-1" d="M127.81,141.71H113.14V127h14.67Zm-14.17-.5h13.67V127.54H113.64Z"/><rect class="cls-2" x="41.77" y="15.53" width="1.5" height="138.48"/><polygon class="cls-2" points="48.66 149.04 47.56 148.01 42.52 153.43 37.48 148.01 36.39 149.04 42.52 155.63 48.66 149.04"/><polygon class="cls-2" points="48.66 20.5 47.56 21.52 42.52 16.1 37.48 21.52 36.39 20.5 42.52 13.9 48.66 20.5"/><rect class="cls-2" x="1.63" y="126.54" width="138.48" height="1.5"/><polygon class="cls-2" points="6.6 133.42 7.62 132.32 2.2 127.29 7.62 122.25 6.6 121.15 0 127.29 6.6 133.42"/><polygon class="cls-2" points="135.13 133.42 134.11 132.32 139.53 127.29 134.11 122.25 135.13 121.15 141.73 127.29 135.13 133.42"/><rect x="36.02" y="112.74" width="6.5" height="0.75"/><rect class="cls-2" x="36.02" y="98.57" width="6.5" height="0.75"/><rect class="cls-2" x="36.02" y="84.39" width="6.5" height="0.75"/><rect class="cls-2" x="36.02" y="70.22" width="6.5" height="0.75"/><rect class="cls-2" x="36.02" y="56.05" width="6.5" height="0.75"/><rect class="cls-2" x="36.02" y="41.87" width="6.5" height="0.75"/><rect class="cls-2" x="36.02" y="27.7" width="6.5" height="0.75"/><rect x="70.49" y="127.29" width="0.75" height="6.5"/><path d="M28.11,110.37h0L27,111l-.17-.67,1.42-.76H29v6.5h-.85Z"/><path d="M33.4,116.16c-1.26,0-2.13-1.19-2.15-3.34s1-3.38,2.27-3.38,2.14,1.22,2.14,3.29-.83,3.43-2.25,3.43Zm.05-.68c.89,0,1.32-1,1.32-2.71s-.4-2.65-1.32-2.65-1.31,1-1.31,2.65.5,2.71,1.3,2.71Z"/><path d="M34.8,137.9c-1.27,0-2.14-1.18-2.16-3.33s1-3.38,2.27-3.38,2.15,1.22,2.15,3.29-.83,3.42-2.25,3.42Zm.05-.67c.89,0,1.32-1,1.32-2.71s-.4-2.65-1.32-2.65-1.32,1-1.32,2.65.5,2.71,1.31,2.71Z"/><path d="M30.83,30.85a1.27,1.27,0,0,1,1.31,1.3,1.32,1.32,0,0,1-1.34,1.33,1.27,1.27,0,0,1-1.31-1.29,1.32,1.32,0,0,1,1.33-1.34Zm0,.47a.81.81,0,0,0-.77.87.78.78,0,0,0,.78.82.79.79,0,0,0,.79-.85.79.79,0,0,0-.79-.84Z"/><path d="M37.84,37.48a4.28,4.28,0,0,1-1.78.32,3.14,3.14,0,0,1-3.32-3.41,3.35,3.35,0,0,1,3.52-3.53,3.86,3.86,0,0,1,1.6.29l-.22.72a3.09,3.09,0,0,0-1.35-.28,2.5,2.5,0,0,0-2.63,2.77,2.44,2.44,0,0,0,2.58,2.7,3.5,3.5,0,0,0,1.43-.28Z"/><path d="M70.66,137.7h0l-1.13.61-.17-.67,1.42-.76h.75v6.5h-.85Z"/><path d="M88,137.38H86v-.74h5v.74H88.9v6H88Z"/><path d="M92,137.72a.52.52,0,0,1-.53-.54.55.55,0,1,1,.54.54Zm-.42,5.66v-4.84h.88v4.84Z"/><path d="M94.4,141.12a1.54,1.54,0,0,0,1.65,1.67,3.15,3.15,0,0,0,1.34-.25l.16.63a3.94,3.94,0,0,1-1.62.31A2.26,2.26,0,0,1,93.55,141a2.36,2.36,0,0,1,2.28-2.61,2,2,0,0,1,2,2.28,2.15,2.15,0,0,1,0,.41Zm2.57-.63a1.25,1.25,0,0,0-1.21-1.43,1.45,1.45,0,0,0-1.35,1.43Z"/><path d="M98.91,139.85c0-.51,0-.91,0-1.31h.77l0,.78h0a1.67,1.67,0,0,1,1.53-.89,1.43,1.43,0,0,1,1.36,1h0a1.91,1.91,0,0,1,.55-.63,1.62,1.62,0,0,1,1.06-.34c.65,0,1.6.42,1.6,2.1v2.85H105v-2.74c0-.94-.35-1.49-1-1.49a1.16,1.16,0,0,0-1,.79,1.56,1.56,0,0,0-.07.44v3h-.86v-2.91c0-.77-.34-1.32-1-1.32a1.31,1.31,0,0,0-1.16,1.31v2.92h-.86Z"/><path d="M107.25,140.12c0-.62,0-1.12,0-1.58H108l0,.83h0a1.87,1.87,0,0,1,1.71-.94,2.19,2.19,0,0,1,2.06,2.46,2.3,2.3,0,0,1-2.2,2.6,1.69,1.69,0,0,1-1.49-.76h0v2.63h-.88Zm.88,1.29a1.42,1.42,0,0,0,0,.36,1.35,1.35,0,0,0,1.31,1c.93,0,1.47-.76,1.47-1.87s-.5-1.8-1.43-1.8a1.4,1.4,0,0,0-1.34,1.09,2.11,2.11,0,0,0-.05.35Z"/><path d="M114.91,143.49a2.31,2.31,0,0,1-2.32-2.49,2.37,2.37,0,0,1,2.4-2.57,2.29,2.29,0,0,1,2.33,2.48,2.37,2.37,0,0,1-2.4,2.58Zm0-.66c.84,0,1.47-.79,1.47-1.89,0-.82-.41-1.85-1.45-1.85s-1.48,1-1.48,1.88.6,1.86,1.45,1.86Z"/><path d="M122.45,136.44a6.63,6.63,0,0,0-1.25,4.1,6.77,6.77,0,0,0,1.25,4.05h-.68a6.46,6.46,0,0,1-1.31-4.06,6.62,6.62,0,0,1,1.31-4.09Z"/><path d="M123.39,139.85c0-.51,0-.91,0-1.31h.77l0,.78h0a1.67,1.67,0,0,1,1.53-.89,1.43,1.43,0,0,1,1.36,1h0a1.91,1.91,0,0,1,.55-.63,1.62,1.62,0,0,1,1.06-.34c.65,0,1.6.42,1.6,2.1v2.85h-.86v-2.74c0-.94-.35-1.49-1-1.49a1.16,1.16,0,0,0-1.05.79,1.56,1.56,0,0,0-.07.44v3h-.86v-2.91c0-.77-.34-1.32-1-1.32a1.31,1.31,0,0,0-1.16,1.31v2.92h-.86Z"/><path d="M132.15,137.72a.52.52,0,0,1-.53-.54.55.55,0,1,1,.54.54Zm-.42,5.66v-4.84h.88v4.84Z"/><path d="M134.07,139.85c0-.51,0-.91,0-1.31h.78l.05.79h0a1.79,1.79,0,0,1,1.6-.9c.67,0,1.71.4,1.71,2.06v2.89h-.88v-2.79c0-.78-.29-1.44-1.12-1.44a1.27,1.27,0,0,0-1.18.9,1.31,1.31,0,0,0-.06.41v2.92h-.88Z"/><path d="M139.09,144.59a6.8,6.8,0,0,0,1.25-4.08,6.73,6.73,0,0,0-1.25-4.07h.68a6.45,6.45,0,0,1,1.31,4.07,6.61,6.61,0,0,1-1.31,4.08Z"/><path d="M42.88,0a2.54,2.54,0,0,1,.25.58,8.06,8.06,0,0,1,.14,1.07l.24,2.64c.21-.26.52-.66.93-1.22.2-.28.44-.65.73-1.11a3.33,3.33,0,0,0,.32-.61.33.33,0,0,0,0-.17.15.15,0,0,0,0-.1.46.46,0,0,0-.2-.09A.53.53,0,0,1,45,.8a.49.49,0,0,1-.11-.31.53.53,0,0,1,.13-.36A.44.44,0,0,1,45.38,0a.52.52,0,0,1,.4.2.81.81,0,0,1,.16.54,2.07,2.07,0,0,1-.29,1,15.37,15.37,0,0,1-1.11,1.67q-.82,1.13-2,2.46A6.84,6.84,0,0,1,41.33,7a1.31,1.31,0,0,1-.67.23.4.4,0,0,1-.29-.12.39.39,0,0,1-.13-.29.54.54,0,0,1,.18-.39.53.53,0,0,1,.37-.17.24.24,0,0,1,.27.2.57.57,0,0,0,.1.17l.06,0,.12,0A4.92,4.92,0,0,0,42,6a9.2,9.2,0,0,0,.77-.86l-.3-3.41a2.31,2.31,0,0,0-.23-1,.59.59,0,0,0-.5-.19,3,3,0,0,0-.41,0L41.3.39Z"/><path d="M149.24,124.19a2.66,2.66,0,0,1,.4.56,7.58,7.58,0,0,1,.31,1l.47-.71a3,3,0,0,1,.46-.49,1.7,1.7,0,0,1,.47-.32.68.68,0,0,1,.29-.06.52.52,0,0,1,.37.13.38.38,0,0,1,.13.3.36.36,0,0,1-.08.28.48.48,0,0,1-.34.13.52.52,0,0,1-.24,0,1.63,1.63,0,0,0-.34-.08.52.52,0,0,0-.31.15,4.14,4.14,0,0,0-.79,1.08l.44,1.85a1.53,1.53,0,0,0,.17.5c0,.06.09.09.14.09a.48.48,0,0,0,.26-.13,2.06,2.06,0,0,0,.51-.64l.19.09a3.48,3.48,0,0,1-.86,1.06.94.94,0,0,1-.5.23.54.54,0,0,1-.48-.33,13.16,13.16,0,0,1-.47-1.81,7.67,7.67,0,0,1-1.34,1.88,1.06,1.06,0,0,1-.63.26.6.6,0,0,1-.4-.15.44.44,0,0,1-.13-.32.37.37,0,0,1,.12-.29.4.4,0,0,1,.29-.12.54.54,0,0,1,.37.17.38.38,0,0,0,.21.12.32.32,0,0,0,.17-.08,4.13,4.13,0,0,0,.69-.88,9.7,9.7,0,0,0,.57-1q-.35-1.31-.36-1.38a1.07,1.07,0,0,0-.33-.5,1,1,0,0,0-.58-.14h-.29v-.19Z"/><rect class="cls-2" x="36.02" y="141.08" width="6.5" height="0.75"/><rect class="cls-3" x="35.81" y="87.81" width="98.45" height="1" transform="translate(-32.91 54.85) rotate(-30.24)"/></g></g></svg>