<?xml version="1.0" encoding="utf-8"?>
<!-- Generator: Adobe Illustrator 24.3.0, SVG Export Plug-In . SVG Version: 6.00 Build 0)  -->
<svg version="1.1" id="Capa_1" xmlns="http://www.w3.org/2000/svg" xmlns:xlink="http://www.w3.org/1999/xlink" x="0px" y="0px"
	 viewBox="0 0 632 380" style="enable-background:new 0 0 632 380;" xml:space="preserve">
<style type="text/css">
	.st0{fill:#FFFFFF;}
	.st1{fill:none;stroke:#000000;stroke-width:1.647;stroke-miterlimit:10;}
	.st2{fill:none;stroke:#000000;stroke-miterlimit:10;stroke-dasharray:2;}
	.st3{fill:none;stroke:#FF9600;stroke-miterlimit:10;}
</style>
<g id="Grupo_14478" transform="translate(-384 -3000)">
	<rect id="Rectángulo_3681" x="384" y="3000" class="st0" width="632" height="380"/>
	<g id="Grupo_14414" transform="translate(-355.38 2430.577)">
		<line id="Línea_477" class="st1" x1="1055.7" y1="605.4" x2="1055.7" y2="914.7"/>
		<line id="Línea_478" class="st1" x1="900.4" y1="762.2" x2="1210.9" y2="762.2"/>
		<line id="Línea_479" class="st1" x1="1050.5" y1="762.2" x2="1060.9" y2="762.2"/>
		<g id="Grupo_14409" transform="translate(1050.473 623.294)">
			<line id="Línea_480" class="st1" x1="0" y1="123.5" x2="10.4" y2="123.5"/>
			<line id="Línea_481" class="st1" x1="0" y1="108.1" x2="10.4" y2="108.1"/>
			<line id="Línea_482" class="st1" x1="0" y1="92.6" x2="10.4" y2="92.6"/>
			<line id="Línea_483" class="st1" x1="0" y1="77.2" x2="10.4" y2="77.2"/>
			<line id="Línea_484" class="st1" x1="0" y1="61.7" x2="10.4" y2="61.7"/>
			<line id="Línea_485" class="st1" x1="0" y1="46.3" x2="10.4" y2="46.3"/>
			<line id="Línea_486" class="st1" x1="0" y1="30.9" x2="10.4" y2="30.9"/>
			<line id="Línea_487" class="st1" x1="0" y1="15.4" x2="10.4" y2="15.4"/>
			<line id="Línea_488" class="st1" x1="0" y1="0" x2="10.4" y2="0"/>
		</g>
		<g id="Grupo_14410" transform="translate(1050.473 777.663)">
			<line id="Línea_489" class="st1" x1="0" y1="108.1" x2="10.4" y2="108.1"/>
			<line id="Línea_490" class="st1" x1="0" y1="92.6" x2="10.4" y2="92.6"/>
			<line id="Línea_491" class="st1" x1="0" y1="77.2" x2="10.4" y2="77.2"/>
			<line id="Línea_492" class="st1" x1="0" y1="61.7" x2="10.4" y2="61.7"/>
			<line id="Línea_493" class="st1" x1="0" y1="46.3" x2="10.4" y2="46.3"/>
			<line id="Línea_494" class="st1" x1="0" y1="30.9" x2="10.4" y2="30.9"/>
			<line id="Línea_495" class="st1" x1="0" y1="15.4" x2="10.4" y2="15.4"/>
			<line id="Línea_496" class="st1" x1="0" y1="0" x2="10.4" y2="0"/>
		</g>
		<path id="Trazado_24142" d="M1103.4,634.9v-6.5l5.1-9h-3.9l-1.6,3.7c-0.5,1.1-0.8,2-1.2,3h0c-0.4-1-0.7-1.8-1.2-3l-1.6-3.7h-4
			l4.9,9.2v6.3H1103.4z M1126.1,627.4v-2.1h-11.9v2.1H1126.1z M1126.1,632.2v-2.1h-11.9v2.1H1126.1z M1132.5,634.1
			c1.4,0.7,2.9,1.1,4.4,1.1c3.8,0,6.1-1.9,6.1-4.6c0-1.8-1.4-3.4-3.2-3.6v0c1.6-0.4,2.7-1.8,2.7-3.5c0-2-1.8-3.7-5-3.7
			c-1.6,0-3.2,0.4-4.6,1.1l0.7,2.5c1-0.5,2-0.9,3.1-0.9c1.5,0,2.2,0.7,2.2,1.6c0,1.3-1.5,1.7-2.7,1.7h-1.4v2.5h1.4
			c1.5,0,3,0.7,3,2.1c0,1.1-0.9,2-2.7,2c-1.2,0-2.4-0.4-3.5-0.9L1132.5,634.1z M1144.6,623.7l3.7,5.5l-3.8,5.7h3.8l1.1-2
			c0.3-0.6,0.6-1.1,0.9-1.7h0.1c0.3,0.6,0.6,1.1,0.9,1.7l1.1,2h4l-3.7-5.9l3.7-5.4h-3.8l-1,1.8c-0.3,0.6-0.6,1.1-0.9,1.7h0
			c-0.3-0.5-0.6-1.1-0.9-1.7l-1.1-1.9H1144.6z M1166.7,622.7v5h-4.8v2.2h4.8v5.1h2.3v-5.1h4.8v-2.2h-4.8v-5H1166.7z M1190.9,634.9
			V632h-5.6v0l1.4-1.2c2.2-1.9,4-3.9,4-6.4c0-2.7-1.9-4.7-5.2-4.7c-1.8,0-3.5,0.5-4.9,1.5l1,2.5c0.9-0.7,2-1.2,3.2-1.2
			c1.7,0,2.5,1,2.5,2.2c0,1.7-1.6,3.4-4.9,6.3l-1.9,1.7v2.1H1190.9z"/>
		<g id="Grupo_14413" transform="translate(916.732 757.035)">
			<g id="Grupo_14411" transform="translate(138.932)">
				<line id="Línea_497" class="st1" x1="15.4" y1="0" x2="15.4" y2="10.4"/>
				<line id="Línea_498" class="st1" x1="30.9" y1="0" x2="30.9" y2="10.4"/>
				<line id="Línea_499" class="st1" x1="0" y1="0" x2="0" y2="10.4"/>
				<line id="Línea_500" class="st1" x1="46.3" y1="0" x2="46.3" y2="10.4"/>
				<line id="Línea_501" class="st1" x1="61.7" y1="0" x2="61.7" y2="10.4"/>
				<line id="Línea_502" class="st1" x1="77.2" y1="0" x2="77.2" y2="10.4"/>
				<line id="Línea_503" class="st1" x1="92.6" y1="0" x2="92.6" y2="10.4"/>
				<line id="Línea_504" class="st1" x1="108.1" y1="0" x2="108.1" y2="10.4"/>
				<line id="Línea_505" class="st1" x1="123.5" y1="0" x2="123.5" y2="10.4"/>
				<line id="Línea_506" class="st1" x1="138.9" y1="0" x2="138.9" y2="10.4"/>
			</g>
			<g id="Grupo_14412">
				<line id="Línea_507" class="st1" x1="15.4" y1="0" x2="15.4" y2="10.4"/>
				<line id="Línea_508" class="st1" x1="30.9" y1="0" x2="30.9" y2="10.4"/>
				<line id="Línea_509" class="st1" x1="0" y1="0" x2="0" y2="10.4"/>
				<line id="Línea_510" class="st1" x1="46.3" y1="0" x2="46.3" y2="10.4"/>
				<line id="Línea_511" class="st1" x1="61.7" y1="0" x2="61.7" y2="10.4"/>
				<line id="Línea_512" class="st1" x1="77.2" y1="0" x2="77.2" y2="10.4"/>
				<line id="Línea_513" class="st1" x1="92.6" y1="0" x2="92.6" y2="10.4"/>
				<line id="Línea_514" class="st1" x1="108.1" y1="0" x2="108.1" y2="10.4"/>
				<line id="Línea_515" class="st1" x1="123.5" y1="0" x2="123.5" y2="10.4"/>
			</g>
		</g>
		<path id="Trazado_23860" class="st2" d="M1024.8,770.1V824h23.7"/>
		<line id="Línea_516" class="st3" x1="1003.6" y1="893.2" x2="1076.9" y2="654.2"/>
	</g>
</g>
</svg>
