<svg xmlns="http://www.w3.org/2000/svg" width="632" height="107" viewBox="0 0 632 107">
  <g id="Grupo_14483" data-name="Grupo 14483" transform="translate(-384 -1698)">
    <rect id="Rect치ngulo_3694" data-name="Rect치ngulo 3694" width="632" height="107" transform="translate(384 1698)" fill="#d5f4fc"/>
    <g id="Grupo_14458" data-name="Grupo 14458" transform="translate(0 1)">
      <g id="Grupo_14415" data-name="Grupo 14415" transform="translate(35 5)">
        <g id="Grupo_14482" data-name="Grupo 14482">
          <path id="Trazado_24154" data-name="Trazado 24154" d="M-87.252-11.476v2.432h9.386v-2.432Zm13.3,6.726c0,1.634-.038,3.5-.152,4.75h2.888l.19-3.04h.076A6.589,6.589,0,0,0-64.794.418c4.1,0,8.284-3.268,8.284-9.88,0-5.548-3.192-9.348-7.752-9.348a6.824,6.824,0,0,0-6.27,3.344h-.076V-26.98h-3.344Zm3.344-5.928a5.242,5.242,0,0,1,.19-1.406,5.3,5.3,0,0,1,5.054-4.1c3.572,0,5.472,3.154,5.472,6.878,0,4.218-2.052,7.068-5.586,7.068a5.192,5.192,0,0,1-5.016-3.914,6.289,6.289,0,0,1-.114-1.216ZM-45-21.7v7.372h-8.588v2.28H-45v7.6h2.432v-7.6h8.588v-2.28h-8.588V-21.7ZM-53.584-2.28V0h19.608V-2.28Zm43.092-29.146H-13L-20.03-2.28c-.228.836-.418,1.786-.532,2.432H-20.6a20.893,20.893,0,0,0-.722-2.432L-26-15.39l-5.244,2.166.722,1.786,2.812-1.178,6.08,16.226h2.394ZM-8.326-4.75c0,1.634-.038,3.5-.152,4.75H-5.59l.19-3.04h.076A6.589,6.589,0,0,0,.832.418c4.1,0,8.284-3.268,8.284-9.88,0-5.548-3.192-9.348-7.752-9.348a6.824,6.824,0,0,0-6.27,3.344h-.076V-26.98H-8.326Zm3.344-5.928a5.242,5.242,0,0,1,.19-1.406,5.3,5.3,0,0,1,5.054-4.1c3.572,0,5.472,3.154,5.472,6.878,0,4.218-2.052,7.068-5.586,7.068A5.192,5.192,0,0,1-4.868-6.156a6.289,6.289,0,0,1-.114-1.216ZM20.718-13v-1.618h-6.45v-.044l1.13-1.064c3.037-2.926,4.965-5.076,4.965-7.736a4.047,4.047,0,0,0-4.389-4.189A6.4,6.4,0,0,0,11.9-26.188l.621,1.374a4.906,4.906,0,0,1,3.059-1.219,2.553,2.553,0,0,1,2.837,2.815c0,2.172-1.685,4.034-5.364,7.536L11.519-14.2V-13Zm2.315,1.524v2.432h9.386v-2.432ZM48.758,0V-6.764h3.458V-9.348H48.758V-24.7h-3.61L34.128-8.93v2.166H45.6V0ZM37.51-9.348v-.076l6.042-8.4c.684-1.14,1.292-2.2,2.052-3.648h.114q-.114,1.938-.114,3.876v8.246Zm31.274-1.938c0-3.686-1.368-7.524-7.03-7.524a11.909,11.909,0,0,0-6.08,1.6l.76,2.242A8.863,8.863,0,0,1,61.26-16.34c3.762-.038,4.18,2.736,4.18,4.256v.38c-7.106-.038-11.058,2.394-11.058,6.84A5.24,5.24,0,0,0,60.006.418,6.8,6.8,0,0,0,65.63-2.318h.114L66.048,0h3a30.859,30.859,0,0,1-.266-4.408ZM65.516-6.194a3.433,3.433,0,0,1-.152,1.064,4.643,4.643,0,0,1-4.522,3.078,2.93,2.93,0,0,1-3.116-3.192c0-3.572,4.142-4.218,7.79-4.142Zm21.166,3a9.573,9.573,0,0,1-4.1.874c-3.648,0-6.384-2.622-6.384-6.878,0-3.8,2.28-6.954,6.5-6.954a8.189,8.189,0,0,1,3.876.874l.76-2.546a10.529,10.529,0,0,0-4.636-.988c-6,0-9.88,4.142-9.88,9.8,0,5.624,3.61,9.386,9.158,9.386A12.929,12.929,0,0,0,87.252-.684Z" transform="translate(700 1733)"/>
          <path id="Trazado_24155" data-name="Trazado 24155" d="M-1.425,0V-2.774H-12.483V-2.85l1.938-1.824c5.206-5.016,8.512-8.7,8.512-13.262,0-3.534-2.242-7.182-7.524-7.182a10.968,10.968,0,0,0-6.992,2.508l1.064,2.356a8.412,8.412,0,0,1,5.244-2.09c3.686,0,4.864,2.318,4.864,4.826,0,3.724-2.888,6.916-9.2,12.92l-2.622,2.546V0ZM16.321-11.286c0-3.686-1.368-7.524-7.03-7.524a11.909,11.909,0,0,0-6.08,1.6l.76,2.242A8.863,8.863,0,0,1,8.8-16.34c3.762-.038,4.18,2.736,4.18,4.256v.38C5.871-11.742,1.919-9.31,1.919-4.864A5.24,5.24,0,0,0,7.543.418a6.8,6.8,0,0,0,5.624-2.736h.114L13.585,0h3a30.86,30.86,0,0,1-.266-4.408ZM13.053-6.194A3.433,3.433,0,0,1,12.9-5.13,4.643,4.643,0,0,1,8.379-2.052,2.93,2.93,0,0,1,5.263-5.244c0-3.572,4.142-4.218,7.79-4.142Z" transform="translate(700 1782)"/>
          <path id="Trazado_24153" data-name="Trazado 24153" d="M-19.513-18.392l6.232,9.006L-19.817,0h3.686l2.66-4.142c.684-1.1,1.33-2.09,1.938-3.192h.076c.646,1.1,1.254,2.128,1.976,3.192L-6.783,0h3.8L-9.4-9.5l6.27-8.892H-6.783l-2.546,3.914c-.646.988-1.254,1.938-1.862,3.04h-.114c-.608-1.064-1.178-1.976-1.862-3l-2.622-3.952ZM18.6-12.806v-2.28H-1.007v2.28Zm0,7.448v-2.28H-1.007v2.28Z" transform="translate(545 1754)"/>
          <path id="Trazado_23861" data-name="Trazado 23861" d="M7099-4998h210" transform="translate(-6504 6742)" fill="none" stroke="#707070" stroke-width="2"/>
        </g>
      </g>
      <rect id="Rect치ngulo_3695" data-name="Rect치ngulo 3695" width="103" height="2" transform="translate(722 1705)"/>
    </g>
  </g>
</svg>
