<svg xmlns="http://www.w3.org/2000/svg" width="151.9" height="53" viewBox="0 0 151.9 53">
  <g id="Grupo_14486" data-name="Grupo 14486" transform="translate(-598.1 -3563)">
    <path id="Trazado_24168" data-name="Trazado 24168" d="M-1.74,0-6.96-7.24-2.08-14h-3.5L-8.74-9.46-11.96-14h-3.68l4.92,6.88L-15.9,0h3.72l3.32-4.86L-5.48,0ZM5.22-8.26h9.52V-10.7H5.22Zm0,4.96h9.52V-5.74H5.22Z" transform="translate(614 3598)" fill="#00223d"/>
    <path id="Trazado_24170" data-name="Trazado 24170" d="M-46.05-4.38h5.66v-2.5h-5.66Zm11.58,1.74,3.22-3.04c1.96-1.82,2.34-3.06,2.34-4.42,0-2.54-2.08-4.14-5.2-4.14a6.5,6.5,0,0,0-5.56,2.6l2.36,1.52a3.423,3.423,0,0,1,2.9-1.4c1.48,0,2.24.64,2.24,1.74,0,.68-.22,1.4-1.46,2.58l-5.4,5.1V0h10.58V-2.64ZM-20.61-9.8v-3.28h-2.58V-9.8h-3.46v2.36h3.46v3.28h2.58V-7.44h3.48V-9.8ZM-26.65,0h9.52V-2.44h-9.52ZM-2.23-14.84-7.07-.02l-2.68-8.2h-4.92V-5.8h2.62l3.36,9.68h3.22L.67-14.84ZM14.09-5.58H11.81V-8.2H8.75v2.62H4.99L11.11-14H7.71L1.11-5.12v2.18H8.65V0h3.16V-2.94h2.28Zm6.88,1.2h5.66v-2.5H20.97Zm25.94-1.2H44.63V-8.2H41.57v2.62H37.81L43.93-14h-3.4l-6.6,8.88v2.18h7.54V0h3.16V-2.94h2.28Z" transform="translate(688 3581)" fill="#00223d"/>
    <path id="Trazado_24169" data-name="Trazado 24169" d="M-55,1.8h10V0H-55Zm10,0h10V0H-45Zm10,0h10V0H-35Zm10,0h10V0H-25Zm10,0H-5V0H-15Zm10,0H5V0H-5Zm10,0H15V0H5Zm10,0H25V0H15Zm10,0H35V0H25Zm10,0H45V0H35Zm10,0H55V0H45ZM-.68,21.36l3.22-3.04C4.5,16.5,4.88,15.26,4.88,13.9c0-2.54-2.08-4.14-5.2-4.14a6.5,6.5,0,0,0-5.56,2.6l2.36,1.52a3.423,3.423,0,0,1,2.9-1.4c1.48,0,2.24.64,2.24,1.74,0,.68-.22,1.4-1.46,2.58l-5.4,5.1V24H5.34V21.36Z" transform="translate(695 3592)" fill="#00223d"/>
    <line id="Línea_561" data-name="Línea 561" x1="6" transform="translate(677.5 3567.5)" fill="none" stroke="#707070" stroke-width="0.1"/>
    <path id="Trazado_24132" data-name="Trazado 24132" d="M-1.138,0H62V2L1.106,1.968.683,3.154H-2.183Z" transform="translate(688 3563)" fill="#00223d"/>
  </g>
</svg>
