<?xml version="1.0" encoding="utf-8"?>
<!-- Generator: Adobe Illustrator 24.3.0, SVG Export Plug-In . SVG Version: 6.00 Build 0)  -->
<svg version="1.1" id="Capa_1" xmlns="http://www.w3.org/2000/svg" xmlns:xlink="http://www.w3.org/1999/xlink" x="0px" y="0px"
	 viewBox="0 0 644 387" style="enable-background:new 0 0 644 387;" xml:space="preserve">
<style type="text/css">
	.st0{fill:#FFFFFF;}
	.st1{fill:none;stroke:#000000;stroke-width:1.647;stroke-miterlimit:10;}
	.st2{fill:none;stroke:#FF0000;stroke-width:1.647;stroke-miterlimit:10;}
	.st3{font-family:'MyriadPro-Bold';}
	.st4{font-size:9px;}
</style>
<g id="Grupo_14421" transform="translate(-426 -2729)">
	<rect id="Rectángulo_3692" x="426" y="2729" class="st0" width="644" height="387"/>
	<g id="Grupo_14416" transform="translate(-412.931 2014.115)">
		<line id="Línea_517" class="st1" x1="1160.8" y1="766.9" x2="1160.8" y2="1067.6"/>
		<line id="Línea_518" class="st1" x1="1340.6" y1="917.2" x2="980.9" y2="917.2"/>
		<g id="Grupo_14417" transform="translate(1150.104 788.589)">
			<line id="Línea_519" class="st1" x1="0" y1="128.7" x2="21.8" y2="128.7"/>
			<line id="Línea_520" class="st1" x1="0" y1="111.4" x2="21.8" y2="111.4"/>
			<line id="Línea_521" class="st1" x1="0" y1="97.5" x2="21.8" y2="97.5"/>
			<line id="Línea_522" class="st1" x1="0" y1="83.6" x2="21.8" y2="83.6"/>
			<line id="Línea_523" class="st1" x1="0" y1="69.6" x2="21.8" y2="69.6"/>
			<line id="Línea_524" class="st1" x1="0" y1="55.7" x2="21.8" y2="55.7"/>
			<line id="Línea_525" class="st1" x1="0" y1="41.8" x2="21.8" y2="41.8"/>
			<line id="Línea_526" class="st1" x1="0" y1="27.9" x2="21.8" y2="27.9"/>
			<line id="Línea_527" class="st1" x1="0" y1="13.9" x2="21.8" y2="13.9"/>
			<line id="Línea_528" class="st1" x1="0" y1="0" x2="21.8" y2="0"/>
		</g>
		<g id="Grupo_14418" transform="translate(1150.104 917.249)">
			<line id="Línea_529" class="st1" x1="21.8" y1="0" x2="0" y2="0"/>
			<line id="Línea_530" class="st1" x1="21.8" y1="17.2" x2="0" y2="17.2"/>
			<line id="Línea_531" class="st1" x1="21.8" y1="31.2" x2="0" y2="31.2"/>
			<line id="Línea_532" class="st1" x1="21.8" y1="45.1" x2="0" y2="45.1"/>
			<line id="Línea_533" class="st1" x1="21.8" y1="59" x2="0" y2="59"/>
			<line id="Línea_534" class="st1" x1="21.8" y1="73" x2="0" y2="73"/>
			<line id="Línea_535" class="st1" x1="21.8" y1="86.9" x2="0" y2="86.9"/>
			<line id="Línea_536" class="st1" x1="21.8" y1="100.8" x2="0" y2="100.8"/>
			<line id="Línea_537" class="st1" x1="21.8" y1="114.7" x2="0" y2="114.7"/>
			<line id="Línea_538" class="st1" x1="21.8" y1="128.7" x2="0" y2="128.7"/>
		</g>
		<g id="Grupo_14419" transform="translate(1187.923 906.332)">
			<line id="Línea_539" class="st1" x1="0" y1="0" x2="0" y2="21.8"/>
			<line id="Línea_540" class="st1" x1="17.2" y1="0" x2="17.2" y2="21.8"/>
			<line id="Línea_541" class="st1" x1="31.2" y1="0" x2="31.2" y2="21.8"/>
			<line id="Línea_542" class="st1" x1="45.1" y1="0" x2="45.1" y2="21.8"/>
			<line id="Línea_543" class="st1" x1="59" y1="0" x2="59" y2="21.8"/>
			<line id="Línea_544" class="st1" x1="73" y1="0" x2="73" y2="21.8"/>
			<line id="Línea_545" class="st1" x1="86.9" y1="0" x2="86.9" y2="21.8"/>
			<line id="Línea_546" class="st1" x1="100.8" y1="0" x2="100.8" y2="21.8"/>
			<line id="Línea_547" class="st1" x1="114.7" y1="0" x2="114.7" y2="21.8"/>
			<line id="Línea_548" class="st1" x1="128.7" y1="0" x2="128.7" y2="21.8"/>
		</g>
		<g id="Grupo_14420" transform="translate(1004.945 906.332)">
			<line id="Línea_549" class="st1" x1="128.7" y1="21.8" x2="128.7" y2="0"/>
			<line id="Línea_550" class="st1" x1="111.4" y1="21.8" x2="111.4" y2="0"/>
			<line id="Línea_551" class="st1" x1="97.5" y1="21.8" x2="97.5" y2="0"/>
			<line id="Línea_552" class="st1" x1="83.6" y1="21.8" x2="83.6" y2="0"/>
			<line id="Línea_553" class="st1" x1="69.6" y1="21.8" x2="69.6" y2="0"/>
			<line id="Línea_554" class="st1" x1="55.7" y1="21.8" x2="55.7" y2="0"/>
			<line id="Línea_555" class="st1" x1="41.8" y1="21.8" x2="41.8" y2="0"/>
			<line id="Línea_556" class="st1" x1="27.9" y1="21.8" x2="27.9" y2="0"/>
			<line id="Línea_557" class="st1" x1="13.9" y1="21.8" x2="13.9" y2="0"/>
			<line id="Línea_558" class="st1" x1="0" y1="21.8" x2="0" y2="0"/>
		</g>
		<path id="Trazado_23862" class="st2" d="M1095.7,848c0,0,10.7,21.6,15.1,38.1s14.6,35.6,22.8,35.6c18.1,0,36.9-41,90.4-133.1"/>
		<path id="Trazado_24158" d="M1176.2,753.6h-3.2v-1.8h3.4v-1.6h-5.4v8.8h5.6v-1.6h-3.6v-2.1h3.2V753.6z M1176.7,761.7
			c0.9,0.1,1.8-0.2,2.5-0.8c0.7-0.8,1-1.8,0.9-2.8v-5.6h-2v5.1c0,1.3-0.1,1.8-0.4,2.1c-0.3,0.3-0.7,0.4-1.2,0.4L1176.7,761.7z
			 M1179,749.8c-0.5,0-1,0.4-1.1,0.9c0,0,0,0.1,0,0.1c0,0.5,0.4,1,1,1c0,0,0,0,0.1,0c0.5,0,1-0.4,1.1-0.9c0,0,0-0.1,0-0.1
			C1180.1,750.2,1179.7,749.8,1179,749.8C1179.1,749.8,1179.1,749.8,1179,749.8z M1187.2,756.3c0-0.3,0.1-0.5,0.1-0.8
			c0-1.6-0.8-3.2-2.8-3.2c-1.8,0-3.2,1.4-3.2,3.1c0,0.1,0,0.2,0,0.2c-0.1,1.7,1.2,3.1,2.8,3.3c0.2,0,0.4,0,0.5,0
			c0.8,0,1.6-0.1,2.3-0.4l-0.3-1.3c-0.6,0.2-1.2,0.3-1.8,0.3c-0.9,0-1.7-0.4-1.8-1.2L1187.2,756.3z M1183.1,755
			c0-0.7,0.5-1.2,1.2-1.3c0.6,0,1.1,0.5,1.1,1.2c0,0,0,0.1,0,0.1H1183.1z M1195.3,749.7v3.4h0c-0.4-0.5-1-0.8-1.7-0.7
			c-1.5,0-2.9,1.2-2.8,3.4c0,2,1.2,3.3,2.7,3.3c0.8,0,1.6-0.4,2-1.1h0l0.1,0.9h1.8c0-0.4-0.1-1.2-0.1-1.9v-7.3H1195.3z
			 M1195.3,756.1c0,0.2,0,0.3-0.1,0.5c-0.1,0.6-0.6,1-1.1,0.9c-0.8,0-1.4-0.7-1.4-1.8c0-1,0.5-1.8,1.4-1.8c0.6,0,1.1,0.4,1.2,1
			c0,0.1,0,0.2,0,0.4V756.1z M1204.4,756.3c0-0.3,0.1-0.5,0.1-0.8c0-1.6-0.8-3.2-2.8-3.2c-1.8,0-3.2,1.4-3.2,3.1c0,0.1,0,0.2,0,0.2
			c-0.1,1.7,1.2,3.1,2.8,3.3c0.2,0,0.4,0,0.5,0c0.8,0,1.6-0.1,2.3-0.4l-0.3-1.3c-0.6,0.2-1.2,0.3-1.8,0.3c-0.9,0-1.7-0.4-1.8-1.2
			L1204.4,756.3z M1200.3,755c0-0.7,0.5-1.2,1.2-1.3c0.6,0,1.1,0.5,1.1,1.2c0,0,0,0.1,0,0.1H1200.3z M1208.3,758.9h2v-9.2h-2V758.9z
			 M1217.2,755.1c0.2-1.4-0.8-2.6-2.2-2.7c-0.2,0-0.4,0-0.6,0c-0.9,0-1.7,0.2-2.5,0.6l0.4,1.3c0.5-0.3,1.1-0.5,1.8-0.5
			c1,0,1.2,0.5,1.2,0.8v0.1c-2.2,0-3.7,0.8-3.7,2.4c0,1.1,0.9,2,1.9,2c0,0,0.1,0,0.1,0c0.7,0,1.4-0.3,1.8-0.8h0l0.1,0.6h1.8
			c-0.1-0.5-0.1-1-0.1-1.5V755.1z M1215.3,756.6c0,0.1,0,0.2,0,0.3c-0.2,0.4-0.6,0.7-1,0.7c-0.4,0-0.7-0.2-0.8-0.6c0,0,0-0.1,0-0.1
			c0-0.8,0.8-1,1.8-1V756.6z M1218.4,758.6c0.6,0.3,1.3,0.5,2.1,0.5c1.8,0,2.8-0.9,2.8-2.1c0-0.9-0.5-1.5-1.7-2
			c-0.8-0.3-1-0.4-1-0.7c0-0.3,0.3-0.5,0.8-0.5c0.5,0,1,0.1,1.4,0.4l0.4-1.4c-0.6-0.2-1.2-0.4-1.8-0.4c-1.6,0-2.6,0.9-2.6,2.1
			c0,0.7,0.5,1.5,1.8,1.9c0.7,0.2,0.9,0.4,0.9,0.7c0,0.3-0.2,0.5-0.8,0.5c-0.6,0-1.2-0.2-1.7-0.5L1218.4,758.6z M1230,752.4
			c-1.7-0.1-3.3,1.2-3.4,2.9c0,0.1,0,0.3,0,0.4c-0.1,1.7,1.2,3.2,2.9,3.3c0.1,0,0.2,0,0.3,0c1.8,0.1,3.3-1.3,3.4-3
			c0-0.1,0-0.3,0-0.4c0.1-1.7-1.2-3.2-2.9-3.3C1230.3,752.4,1230.2,752.4,1230,752.4z M1230,753.8c0.9,0,1.3,1,1.3,1.9
			c0,1.1-0.5,1.9-1.3,1.9c-0.8,0-1.3-0.8-1.3-1.9C1228.7,754.8,1229,753.8,1230,753.8z M1234.5,758.9h2v-3.2c0-0.1,0-0.3,0-0.4
			c0.1-0.6,0.7-1.1,1.4-1c0.2,0,0.4,0,0.5,0.1v-1.9c-0.1,0-0.3,0-0.4,0c-0.8,0-1.5,0.6-1.7,1.3h-0.1l-0.1-1.2h-1.7
			c0,0.5,0.1,1.2,0.1,2.1L1234.5,758.9z M1243.5,749.7v3.4h0c-0.4-0.5-1-0.8-1.7-0.7c-1.5,0-2.9,1.2-2.8,3.4c0,2,1.2,3.3,2.7,3.3
			c0.8,0,1.6-0.4,2-1.1h0l0.1,0.9h1.8c0-0.4-0.1-1.2-0.1-1.9v-7.3H1243.5z M1243.5,756.1c0,0.2,0,0.3-0.1,0.5
			c-0.1,0.6-0.6,1-1.1,0.9c-0.8,0-1.4-0.7-1.4-1.8c0-1,0.5-1.8,1.4-1.8c0.6,0,1.1,0.4,1.2,1c0,0.1,0,0.2,0,0.4V756.1z M1252.7,756.3
			c0-0.3,0.1-0.5,0.1-0.8c0-1.6-0.8-3.2-2.8-3.2c-1.8,0-3.2,1.4-3.2,3.1c0,0.1,0,0.2,0,0.2c-0.1,1.7,1.2,3.1,2.8,3.3
			c0.2,0,0.4,0,0.5,0c0.8,0,1.6-0.1,2.3-0.4l-0.3-1.3c-0.6,0.2-1.2,0.3-1.8,0.3c-0.9,0-1.7-0.4-1.8-1.2L1252.7,756.3z M1248.6,755
			c0-0.7,0.5-1.2,1.2-1.3c0.6,0,1.1,0.5,1.1,1.2c0,0,0,0.1,0,0.1H1248.6z M1254,758.9h2v-3.7c0-0.2,0-0.3,0.1-0.5
			c0.1-0.4,0.5-0.7,1-0.7c0.7,0,1,0.6,1,1.4v3.5h2v-3.8c0-1.9-1-2.7-2.3-2.7c-0.8,0-1.5,0.4-2,1h0l-0.1-0.9h-1.7
			c0,0.6,0.1,1.2,0.1,2V758.9z M1266.9,755.1c0.2-1.4-0.8-2.6-2.2-2.7c-0.2,0-0.4,0-0.6,0c-0.9,0-1.7,0.2-2.5,0.6l0.4,1.3
			c0.5-0.3,1.1-0.5,1.8-0.5c1,0,1.2,0.5,1.2,0.8v0.1c-2.2,0-3.7,0.8-3.7,2.4c0,1.1,0.9,2,1.9,2c0,0,0.1,0,0.1,0
			c0.7,0,1.4-0.3,1.8-0.8h0l0.1,0.6h1.8c-0.1-0.5-0.1-1-0.1-1.5V755.1z M1265,756.6c0,0.1,0,0.2,0,0.3c-0.2,0.4-0.6,0.7-1,0.7
			c-0.4,0-0.7-0.2-0.8-0.6c0,0,0-0.1,0-0.1c0-0.8,0.8-1,1.8-1V756.6z M1272.6,749.7v3.4h0c-0.4-0.5-1-0.8-1.7-0.7
			c-1.5,0-2.9,1.2-2.8,3.4c0,2,1.2,3.3,2.7,3.3c0.8,0,1.6-0.4,2-1.1h0l0.1,0.9h1.8c0-0.4-0.1-1.2-0.1-1.9v-7.3H1272.6z
			 M1272.6,756.1c0,0.2,0,0.3-0.1,0.5c-0.1,0.6-0.6,1-1.1,0.9c-0.8,0-1.4-0.7-1.4-1.8c0-1,0.5-1.8,1.4-1.8c0.6,0,1.1,0.4,1.2,1
			c0,0.1,0,0.2,0,0.4V756.1z M1281.5,755.1c0.2-1.4-0.8-2.6-2.2-2.8c-0.2,0-0.4,0-0.6,0c-0.9,0-1.7,0.2-2.5,0.6l0.4,1.3
			c0.5-0.3,1.1-0.5,1.8-0.5c1,0,1.2,0.5,1.2,0.8v0.1c-2.2,0-3.7,0.8-3.7,2.4c0,1.1,0.9,2,1.9,2c0,0,0.1,0,0.1,0
			c0.7,0,1.4-0.3,1.8-0.8h0l0.1,0.6h1.8c-0.1-0.5-0.1-1-0.1-1.5L1281.5,755.1z M1279.6,756.6c0,0.1,0,0.2,0,0.3
			c-0.2,0.4-0.6,0.7-1,0.7c-0.4,0-0.7-0.2-0.8-0.6c0,0,0-0.1,0-0.1c0-0.8,0.8-1,1.8-1L1279.6,756.6z M1282.7,758.6
			c0.6,0.3,1.3,0.5,2.1,0.5c1.8,0,2.8-0.9,2.8-2.1c0-0.9-0.5-1.5-1.7-2c-0.8-0.3-1-0.4-1-0.7c0-0.3,0.3-0.5,0.8-0.5
			c0.5,0,1,0.1,1.4,0.4l0.4-1.4c-0.6-0.2-1.2-0.4-1.8-0.4c-1.6,0-2.6,0.9-2.6,2.1c0,0.7,0.5,1.5,1.8,1.9c0.7,0.2,0.9,0.4,0.9,0.7
			c0,0.3-0.2,0.5-0.8,0.5c-0.6,0-1.2-0.2-1.7-0.5L1282.7,758.6z"/>
		<path id="Trazado_24159" d="M1198.4,971h-3.2v-1.8h3.4v-1.6h-5.4v8.8h5.6v-1.6h-3.6v-2.1h3.2V971z M1198.9,979.1
			c0.9,0.1,1.8-0.2,2.5-0.8c0.7-0.8,1-1.8,0.9-2.8V970h-2v5.1c0,1.3-0.1,1.8-0.4,2.1c-0.3,0.3-0.7,0.4-1.2,0.4L1198.9,979.1z
			 M1201.2,967.2c-0.5,0-1,0.4-1.1,0.9c0,0,0,0.1,0,0.1c0,0.5,0.4,1,1,1c0,0,0,0,0.1,0c0.5,0,1-0.4,1.1-0.9c0,0,0-0.1,0-0.1
			C1202.3,967.7,1201.9,967.2,1201.2,967.2C1201.3,967.2,1201.3,967.2,1201.2,967.2z M1209.4,973.8c0-0.3,0.1-0.5,0.1-0.8
			c0-1.6-0.8-3.2-2.8-3.2c-1.8,0-3.2,1.4-3.2,3.1c0,0.1,0,0.2,0,0.2c-0.1,1.7,1.2,3.1,2.8,3.3c0.2,0,0.4,0,0.5,0
			c0.8,0,1.6-0.1,2.3-0.4l-0.3-1.3c-0.6,0.2-1.2,0.3-1.8,0.3c-0.9,0-1.7-0.4-1.8-1.2L1209.4,973.8z M1205.3,972.4
			c0-0.7,0.5-1.2,1.2-1.3c0.6,0,1.1,0.5,1.1,1.2c0,0,0,0.1,0,0.1H1205.3z M1217.5,967.1v3.4h0c-0.4-0.5-1-0.8-1.7-0.7
			c-1.5,0-2.9,1.2-2.8,3.4c0,2,1.2,3.3,2.7,3.3c0.8,0,1.6-0.4,2-1.1h0l0.1,0.9h1.8c0-0.4-0.1-1.2-0.1-1.9v-7.3H1217.5z
			 M1217.5,973.5c0,0.2,0,0.3-0.1,0.5c-0.1,0.6-0.6,1-1.1,0.9c-0.8,0-1.4-0.7-1.4-1.8c0-1,0.5-1.8,1.4-1.8c0.6,0,1.1,0.4,1.2,1
			c0,0.1,0,0.2,0,0.4V973.5z M1226.6,973.8c0-0.3,0.1-0.5,0.1-0.8c0-1.6-0.8-3.2-2.8-3.2c-1.8,0-3.2,1.4-3.2,3.1c0,0.1,0,0.2,0,0.2
			c-0.1,1.7,1.2,3.1,2.8,3.3c0.2,0,0.4,0,0.5,0c0.8,0,1.6-0.1,2.3-0.4l-0.3-1.3c-0.6,0.2-1.2,0.3-1.8,0.3c-0.9,0-1.7-0.4-1.8-1.2
			L1226.6,973.8z M1222.5,972.4c0-0.7,0.5-1.2,1.2-1.3c0.6,0,1.1,0.5,1.1,1.2c0,0,0,0.1,0,0.1H1222.5z M1230.5,976.3h2v-9.2h-2
			V976.3z M1239.4,972.6c0.2-1.4-0.8-2.6-2.2-2.7c-0.2,0-0.4,0-0.6,0c-0.9,0-1.7,0.2-2.5,0.6l0.4,1.3c0.5-0.3,1.1-0.5,1.8-0.5
			c1,0,1.2,0.5,1.2,0.8v0.1c-2.2,0-3.7,0.8-3.7,2.4c0,1.1,0.9,2,1.9,2c0,0,0.1,0,0.1,0c0.7,0,1.4-0.3,1.8-0.8h0l0.1,0.6h1.8
			c-0.1-0.5-0.1-1-0.1-1.5V972.6z M1237.5,974c0,0.1,0,0.2,0,0.3c-0.2,0.4-0.6,0.7-1,0.7c-0.4,0-0.7-0.2-0.8-0.6c0,0,0-0.1,0-0.1
			c0-0.8,0.8-1,1.8-1V974z M1240.6,976c0.6,0.3,1.3,0.5,2.1,0.5c1.8,0,2.8-0.9,2.8-2.1c0-0.9-0.5-1.5-1.7-2c-0.8-0.3-1-0.4-1-0.7
			c0-0.3,0.3-0.5,0.8-0.5c0.5,0,1,0.1,1.4,0.4l0.4-1.4c-0.6-0.2-1.2-0.4-1.8-0.4c-1.6,0-2.6,0.9-2.6,2.1c0,0.7,0.5,1.5,1.8,1.9
			c0.7,0.2,0.9,0.4,0.9,0.7c0,0.3-0.2,0.5-0.8,0.5c-0.6,0-1.2-0.2-1.7-0.5L1240.6,976z M1254.5,972.6c0.2-1.4-0.8-2.6-2.2-2.7
			c-0.2,0-0.4,0-0.6,0c-0.9,0-1.7,0.2-2.5,0.6l0.4,1.3c0.5-0.3,1.1-0.5,1.8-0.5c1,0,1.2,0.5,1.2,0.8v0.1c-2.2,0-3.7,0.8-3.7,2.4
			c0,1.1,0.9,2,1.9,2c0,0,0.1,0,0.1,0c0.7,0,1.4-0.3,1.8-0.8h0l0.1,0.6h1.8c-0.1-0.5-0.1-1-0.1-1.5L1254.5,972.6z M1252.6,974
			c0,0.1,0,0.2,0,0.3c-0.2,0.4-0.6,0.7-1,0.7c-0.4,0-0.7-0.2-0.8-0.6c0,0,0-0.1,0-0.1c0-0.8,0.8-1,1.8-1V974z M1256.1,974.4
			c0,0.7,0,1.5-0.1,1.9h1.7l0.1-0.9h0c0.4,0.7,1.1,1.1,1.9,1c1.5,0,2.9-1.1,2.9-3.4c0-2-1.1-3.2-2.6-3.2c-0.8,0-1.5,0.3-1.9,0.9h0
			v-3.6h-2V974.4z M1258.1,972.7c0-0.1,0-0.2,0-0.4c0.1-0.6,0.6-1,1.2-1c0.9,0,1.4,0.8,1.4,1.8c0,1.1-0.5,1.8-1.4,1.8
			c-0.6,0-1-0.4-1.2-0.9c0-0.1,0-0.2,0-0.4V972.7z M1263.5,976c0.6,0.3,1.3,0.5,2.1,0.5c1.8,0,2.8-0.9,2.8-2.1c0-0.9-0.5-1.5-1.7-2
			c-0.8-0.3-1-0.4-1-0.7c0-0.3,0.3-0.5,0.8-0.5c0.5,0,1,0.1,1.4,0.4l0.4-1.4c-0.6-0.3-1.2-0.4-1.8-0.4c-1.6,0-2.6,0.9-2.6,2.1
			c0,0.7,0.5,1.5,1.8,1.9c0.7,0.2,0.9,0.4,0.9,0.7c0,0.3-0.2,0.5-0.8,0.5c-0.6,0-1.2-0.2-1.7-0.5L1263.5,976z M1274,974.7
			c-0.4,0.1-0.7,0.2-1.1,0.2c-0.9,0.1-1.7-0.6-1.7-1.6c0-0.1,0-0.2,0-0.2c-0.1-0.9,0.6-1.7,1.5-1.8c0.1,0,0.1,0,0.2,0
			c0.4,0,0.8,0.1,1.1,0.2l0.3-1.5c-0.5-0.2-1-0.2-1.5-0.2c-1.8-0.2-3.4,1.1-3.6,3c0,0.1,0,0.3,0,0.4c-0.1,1.7,1.2,3.2,2.9,3.3
			c0.2,0,0.3,0,0.5,0c0.6,0,1.2-0.1,1.8-0.3L1274,974.7z M1277.3,976.3V970h-2v6.4H1277.3z M1276.4,967.2c-0.5,0-1,0.4-1,0.9
			c0,0,0,0.1,0,0.1c0,0.5,0.4,1,0.9,1c0,0,0.1,0,0.1,0c0.5,0,1-0.4,1.1-0.9c0,0,0,0,0-0.1C1277.4,967.7,1277,967.2,1276.4,967.2
			C1276.4,967.2,1276.4,967.2,1276.4,967.2z M1278.6,976c0.6,0.3,1.3,0.5,2.1,0.5c1.8,0,2.8-0.9,2.8-2.1c0-0.9-0.5-1.5-1.7-2
			c-0.8-0.3-1-0.4-1-0.7c0-0.3,0.3-0.5,0.8-0.5c0.5,0,1,0.1,1.4,0.4l0.4-1.4c-0.6-0.2-1.2-0.4-1.8-0.4c-1.6,0-2.6,0.9-2.6,2.1
			c0,0.7,0.5,1.5,1.8,1.9c0.7,0.2,0.9,0.4,0.9,0.7c0,0.3-0.2,0.5-0.8,0.5c-0.6,0-1.2-0.2-1.7-0.5L1278.6,976z M1289.9,972.6
			c0.2-1.4-0.8-2.6-2.2-2.7c-0.2,0-0.4,0-0.6,0c-0.9,0-1.7,0.2-2.5,0.6l0.4,1.3c0.5-0.3,1.1-0.5,1.8-0.5c1,0,1.2,0.5,1.2,0.8v0.1
			c-2.2,0-3.7,0.8-3.7,2.4c0,1.1,0.9,2,1.9,2c0,0,0.1,0,0.1,0c0.7,0,1.4-0.3,1.8-0.8h0l0.1,0.6h1.8c-0.1-0.5-0.1-1-0.1-1.5
			L1289.9,972.6z M1287.9,974c0,0.1,0,0.2,0,0.3c-0.2,0.4-0.6,0.7-1,0.7c-0.4,0-0.7-0.2-0.8-0.6c0,0,0-0.1,0-0.1c0-0.8,0.8-1,1.8-1
			V974z M1291.1,976c0.6,0.3,1.3,0.5,2.1,0.5c1.8,0,2.8-0.9,2.8-2.1c0-0.9-0.5-1.5-1.7-2c-0.8-0.3-1-0.4-1-0.7
			c0-0.3,0.3-0.5,0.8-0.5c0.5,0,1,0.1,1.4,0.4l0.4-1.4c-0.6-0.2-1.2-0.4-1.8-0.4c-1.6,0-2.6,0.9-2.6,2.1c0,0.7,0.5,1.5,1.8,1.9
			c0.7,0.2,0.9,0.4,0.9,0.7s-0.2,0.5-0.8,0.5c-0.6,0-1.2-0.2-1.7-0.5L1291.1,976z"/>
		<text transform="matrix(1 0 0 1 1181.512 947.468)" class="st3 st4">1</text>
		<text transform="matrix(1 0 0 1 1181.512 964.468)" class="st3 st4">2</text>
		<text transform="matrix(1 0 0 1 1181.512 981.468)" class="st3 st4">3</text>
		<text transform="matrix(1 0 0 1 1181.512 998.468)" class="st3 st4">4</text>
		<text transform="matrix(1 0 0 1 1181.512 1015.468)" class="st3 st4">5</text>
		<text transform="matrix(1 0 0 1 1181.512 1032.468)" class="st3 st4">6</text>
		<text transform="matrix(1 0 0 1 1181.512 1049.468)" class="st3 st4">7</text>
		<path id="Trazado_24160" d="M1194.5,937.9h1.3v-5.9h-1.1l-1.5,0.7l0.2,1l1.1-0.5h0V937.9z M1210.9,937.9v-1.1h-2.2v0l0.5-0.5
			c0.9-0.6,1.4-1.5,1.6-2.5c0-1-0.8-1.8-1.8-1.9c-0.1,0-0.2,0-0.3,0c-0.7,0-1.4,0.2-1.9,0.6l0.4,1c0.4-0.3,0.8-0.5,1.3-0.5
			c0.7,0,1,0.4,1,0.9c0,0.7-0.6,1.3-1.9,2.5l-0.8,0.7v0.8H1210.9z M1220.7,937.6c0.5,0.3,1.1,0.4,1.7,0.4c1.5,0,2.4-0.8,2.4-1.8
			c0-0.7-0.6-1.3-1.3-1.4v0c0.6-0.2,1.1-0.7,1.1-1.4c0-0.8-0.7-1.5-1.9-1.5c-0.6,0-1.3,0.1-1.8,0.4l0.3,1c0.4-0.2,0.8-0.3,1.2-0.4
			c0.6,0,0.9,0.3,0.9,0.6c0,0.5-0.6,0.7-1,0.7h-0.5v1h0.6c0.6,0,1.2,0.3,1.2,0.8c0,0.4-0.4,0.8-1.1,0.8c-0.5,0-0.9-0.1-1.4-0.4
			L1220.7,937.6z M1238.5,937.9v-1.4h0.7v-1h-0.7v-3.4h-1.7l-2.2,3.6v0.9h2.6v1.4H1238.5z M1235.9,935.5L1235.9,935.5l0.8-1.3
			c0.2-0.4,0.4-0.7,0.5-1.1h0c0,0.4,0,0.7,0,1.1v1.3L1235.9,935.5z M1252.7,932.1h-3.2l-0.4,3.1c0.3,0,0.5-0.1,0.8-0.1
			c1.2,0,1.6,0.4,1.6,1c0,0.6-0.6,0.9-1.2,0.9c-0.5,0-0.9-0.1-1.3-0.3l-0.2,1c0.5,0.2,1.1,0.3,1.6,0.3c1.2,0.2,2.3-0.7,2.5-1.9
			c0,0,0-0.1,0-0.1c0-0.6-0.2-1.1-0.7-1.5c-0.5-0.3-1-0.4-1.5-0.4c-0.1,0-0.3,0-0.4,0l0.1-0.9h2.3V932.1z M1266.5,932
			c-0.2,0-0.4,0-0.5,0c-0.8,0-1.6,0.3-2.3,0.9c-0.7,0.7-1.1,1.6-1,2.6c-0.1,1.3,0.8,2.4,2,2.5c0.1,0,0.2,0,0.3,0
			c1.2,0,2.1-0.9,2.2-2c0,0,0-0.1,0-0.1c0.1-1-0.7-1.8-1.6-1.9c-0.1,0-0.1,0-0.2,0c-0.5,0-0.9,0.1-1.2,0.5h0c0.2-0.9,1-1.4,1.9-1.4
			c0.2,0,0.4,0,0.5,0V932z M1265,937c-0.6,0-0.9-0.6-0.9-1.2c0-0.1,0-0.2,0.1-0.3c0.1-0.3,0.5-0.5,0.8-0.5c0.5,0,0.9,0.4,0.9,0.9
			c0,0,0,0.1,0,0.1C1265.8,936.6,1265.5,937,1265,937L1265,937z M1276.9,932.1v1.1h2.7v0l-2.4,4.7h1.4l2.4-5v-0.9H1276.9z
			 M1291.8,934.9c-0.6,0.2-1,0.8-1,1.5c0,0.8,0.7,1.6,2.2,1.6c1.4,0,2.3-0.7,2.3-1.8c0-0.7-0.4-1.3-1.1-1.5v0
			c0.5-0.2,0.8-0.7,0.8-1.3c0-0.7-0.6-1.5-1.9-1.5c-1.2,0-2.1,0.7-2.1,1.6C1290.9,934.2,1291.2,934.7,1291.8,934.9L1291.8,934.9z
			 M1292.9,937.1c-0.4,0-0.8-0.3-0.8-0.8c0,0,0,0,0,0c0-0.4,0.3-0.8,0.7-0.9c0.5,0.1,0.9,0.5,0.9,1
			C1293.7,936.8,1293.4,937.1,1292.9,937.1C1293,937.1,1293,937.1,1292.9,937.1z M1292.9,932.9c0.4,0,0.7,0.3,0.7,0.6
			c0,0,0,0.1,0,0.1c0,0.4-0.3,0.7-0.6,0.7c-0.5-0.1-0.8-0.4-0.8-0.8C1292.2,933.2,1292.5,932.9,1292.9,932.9
			C1292.8,932.9,1292.9,932.9,1292.9,932.9L1292.9,932.9z M1305.2,938c0.2,0,0.4,0,0.6,0c0.8,0,1.6-0.3,2.2-0.8
			c0.7-0.7,1.1-1.7,1-2.7c0.2-1.2-0.7-2.3-1.9-2.5c-0.1,0-0.2,0-0.3,0c-1.2,0-2.2,0.9-2.2,2c0,0,0,0,0,0.1c0,1,0.7,1.8,1.7,1.8
			c0,0,0.1,0,0.1,0c0.4,0,0.9-0.1,1.2-0.4l0,0c-0.1,0.4-0.4,0.8-0.7,1.1c-0.3,0.2-0.7,0.3-1.2,0.4c-0.2,0-0.4,0-0.6,0L1305.2,938z
			 M1306.9,933c0.6,0,0.9,0.6,0.9,1.2c0,0.1,0,0.2-0.1,0.3c-0.2,0.3-0.5,0.4-0.8,0.4c-0.5,0-0.8-0.4-0.8-0.8c0,0,0-0.1,0-0.1
			C1306.1,933.4,1306.4,933,1306.9,933L1306.9,933z"/>
		<path id="Trazado_24161" d="M1000.4,938c0.2,0,0.4,0,0.6,0c0.8,0,1.6-0.3,2.2-0.8c0.7-0.7,1.1-1.7,1-2.7c0.2-1.2-0.7-2.3-1.9-2.5
			c-0.1,0-0.2,0-0.3,0c-1.2,0-2.2,0.9-2.2,2c0,0,0,0,0,0.1c0,1,0.7,1.8,1.7,1.8c0,0,0.1,0,0.1,0c0.4,0,0.9-0.1,1.2-0.4l0,0
			c-0.1,0.4-0.4,0.8-0.7,1.1c-0.3,0.2-0.7,0.3-1.2,0.4c-0.2,0-0.4,0-0.6,0L1000.4,938z M1002,933c0.6,0,0.9,0.6,0.9,1.2
			c0,0.1,0,0.2-0.1,0.3c-0.2,0.3-0.5,0.4-0.8,0.4c-0.5,0-0.8-0.4-0.8-0.8c0,0,0-0.1,0-0.1C1001.2,933.4,1001.6,933,1002,933
			L1002,933z M1014.9,934.9c-0.6,0.2-1,0.8-1,1.5c0,0.8,0.7,1.6,2.2,1.6c1.4,0,2.3-0.7,2.3-1.8c0-0.7-0.4-1.3-1.1-1.5v0
			c0.5-0.2,0.8-0.7,0.8-1.3c0-0.7-0.6-1.5-1.9-1.5c-1.2,0-2.1,0.7-2.1,1.6C1014.1,934.2,1014.4,934.7,1014.9,934.9L1014.9,934.9z
			 M1016.1,937.1c-0.4,0-0.8-0.3-0.8-0.8c0,0,0,0,0,0c0-0.4,0.3-0.8,0.7-0.9c0.5,0.1,0.9,0.5,0.9,1
			C1016.9,936.8,1016.6,937.1,1016.1,937.1C1016.1,937.1,1016.1,937.1,1016.1,937.1z M1016.1,932.9c0.4,0,0.7,0.3,0.7,0.6
			c0,0,0,0.1,0,0.1c0,0.4-0.3,0.7-0.6,0.7c-0.5-0.1-0.8-0.4-0.8-0.8C1015.4,933.2,1015.6,932.9,1016.1,932.9
			C1016,932.9,1016.1,932.9,1016.1,932.9z M1028.1,932.1v1.1h2.7v0l-2.4,4.7h1.4l2.4-5v-0.9H1028.1z M1045.7,932c-0.2,0-0.4,0-0.5,0
			c-0.8,0-1.6,0.3-2.3,0.9c-0.7,0.7-1.1,1.6-1,2.6c-0.1,1.3,0.8,2.4,2,2.5c0.1,0,0.2,0,0.3,0c1.2,0,2.1-0.9,2.2-2c0,0,0-0.1,0-0.1
			c0.1-1-0.7-1.8-1.6-1.9c-0.1,0-0.1,0-0.2,0c-0.5,0-0.9,0.1-1.2,0.5h0c0.2-0.9,1-1.4,1.9-1.4c0.2,0,0.4,0,0.5,0L1045.7,932z
			 M1044.2,937c-0.6,0-0.9-0.6-0.9-1.2c0-0.1,0-0.2,0.1-0.3c0.1-0.3,0.5-0.5,0.8-0.5c0.5,0,0.9,0.4,0.9,0.9c0,0,0,0.1,0,0.1
			C1045,936.6,1044.7,937,1044.2,937L1044.2,937z M1059.9,932.1h-3.2l-0.4,3.1c0.3,0,0.5-0.1,0.8-0.1c1.2,0,1.6,0.4,1.6,1
			c0,0.6-0.6,0.9-1.2,0.9c-0.5,0-0.9-0.1-1.3-0.3l-0.2,1c0.5,0.2,1.1,0.3,1.6,0.3c1.2,0.2,2.3-0.7,2.5-1.9c0,0,0-0.1,0-0.1
			c0-0.6-0.2-1.1-0.7-1.5c-0.5-0.3-1-0.4-1.5-0.4c-0.1,0-0.3,0-0.4,0l0.1-0.9h2.3V932.1z M1073.7,937.9v-1.4h0.7v-1h-0.7v-3.4h-1.7
			l-2.2,3.6v0.9h2.6v1.4H1073.7z M1071.1,935.5L1071.1,935.5l0.8-1.3c0.2-0.4,0.4-0.7,0.5-1.1h0c0,0.4,0,0.7,0,1.1v1.3L1071.1,935.5
			z M1084,937.6c0.5,0.3,1.1,0.4,1.7,0.4c1.5,0,2.4-0.8,2.4-1.8c0-0.7-0.6-1.3-1.3-1.4v0c0.6-0.2,1.1-0.7,1.1-1.4
			c0-0.8-0.7-1.5-1.9-1.5c-0.6,0-1.3,0.1-1.8,0.4l0.3,1c0.4-0.2,0.8-0.3,1.2-0.4c0.6,0,0.9,0.3,0.9,0.6c0,0.5-0.6,0.7-1,0.7h-0.5v1
			h0.6c0.6,0,1.2,0.3,1.2,0.8c0,0.4-0.4,0.8-1.1,0.8c-0.5,0-0.9-0.1-1.4-0.4L1084,937.6z M1102.2,937.9v-1.1h-2.2v0l0.5-0.5
			c0.9-0.6,1.4-1.5,1.6-2.5c0-1-0.8-1.8-1.8-1.9c-0.1,0-0.2,0-0.3,0c-0.7,0-1.4,0.2-1.9,0.6l0.4,1c0.4-0.3,0.8-0.5,1.3-0.5
			c0.7,0,1,0.4,1,0.9c0,0.7-0.6,1.3-1.9,2.5l-0.8,0.7v0.8H1102.2z M1113.8,937.9h1.3v-5.9h-1.1l-1.5,0.7l0.2,1l1.1-0.5h0V937.9z"/>
		<text transform="matrix(1 0 0 1 1143.042 785.175)" class="st3 st4">7</text>
		<text transform="matrix(1 0 0 1 1143.042 802.175)" class="st3 st4">6</text>
		<text transform="matrix(1 0 0 1 1143.042 819.175)" class="st3 st4">5</text>
		<text transform="matrix(1 0 0 1 1143.042 836.175)" class="st3 st4">4</text>
		<text transform="matrix(1 0 0 1 1143.042 853.175)" class="st3 st4">3</text>
		<text transform="matrix(1 0 0 1 1143.042 870.175)" class="st3 st4">2</text>
		<text transform="matrix(1 0 0 1 1143.042 887.175)" class="st3 st4">1</text>
	</g>
</g>
</svg>
