<svg xmlns="http://www.w3.org/2000/svg" viewBox="0 0 255.12 239.16"><defs><style>.cls-1{fill:#b2b2b2;}.cls-2{fill:#cb2228;}</style></defs><g id="Capa_2" data-name="Capa 2"><g id="Capa_1-2" data-name="Capa 1"><path d="M143.83,4.33H141V7h3.21v.8H140V.4h4v.8h-3V3.54h2.87Z"/><path d="M144.07,9.37a1.55,1.55,0,0,0,1.06-.4c.26-.3.37-.73.37-2V2.49h1V7.34a2.91,2.91,0,0,1-.64,2.19,2.44,2.44,0,0,1-1.65.6ZM146,1.58a.57.57,0,0,1-.59-.59A.59.59,0,0,1,146,.38a.58.58,0,0,1,.59.61.57.57,0,0,1-.6.59Z"/><path d="M148.61,5.33a1.69,1.69,0,0,0,1.81,1.83,3.61,3.61,0,0,0,1.48-.27l.17.69a4.38,4.38,0,0,1-1.78.34,2.48,2.48,0,0,1-2.62-2.68,2.59,2.59,0,0,1,2.51-2.87,2.24,2.24,0,0,1,2.19,2.5,2.77,2.77,0,0,1,0,.46Zm2.82-.7a1.38,1.38,0,0,0-1.33-1.57,1.58,1.58,0,0,0-1.48,1.57Z"/><path d="M160.5,0V6.44c0,.47,0,1,0,1.37h-.87l0-.92h0a2,2,0,0,1-1.81,1,2.43,2.43,0,0,1-2.29-2.7c0-1.79,1.1-2.86,2.39-2.86a1.76,1.76,0,0,1,1.61.8h0V0Zm-1,4.65a1.44,1.44,0,0,0-.05-.41,1.42,1.42,0,0,0-1.39-1.12c-1,0-1.6.88-1.6,2.05s.54,2,1.58,2A1.46,1.46,0,0,0,159.48,6a1.36,1.36,0,0,0,.05-.41Z"/><path d="M162.65,5.33a1.69,1.69,0,0,0,1.82,1.83,3.52,3.52,0,0,0,1.47-.27l.18.69a4.42,4.42,0,0,1-1.78.34,2.48,2.48,0,0,1-2.62-2.68,2.59,2.59,0,0,1,2.51-2.87,2.25,2.25,0,0,1,2.19,2.5,2.61,2.61,0,0,1,0,.46Zm2.83-.7a1.38,1.38,0,0,0-1.33-1.57,1.6,1.6,0,0,0-1.49,1.57Z"/><path d="M169.94,0h1V7.81h-1Z"/><path d="M176.29,6.54a8.14,8.14,0,0,0,.08,1.27h-.87l-.09-.67h0a2,2,0,0,1-1.63.79,1.52,1.52,0,0,1-1.63-1.53c0-1.28,1.15-2,3.2-2V4.31a1.09,1.09,0,0,0-1.21-1.23,2.49,2.49,0,0,0-1.39.4l-.22-.65a3.4,3.4,0,0,1,1.76-.46c1.64,0,2,1.11,2,2.17Zm-.94-1.45c-1.06,0-2.26.17-2.26,1.2a.85.85,0,0,0,.9.93,1.34,1.34,0,0,0,1.31-.89.84.84,0,0,0,0-.31Z"/><path d="M177.71,6.82A2.69,2.69,0,0,0,179,7.2c.69,0,1-.35,1-.8s-.27-.7-1-1c-1-.35-1.42-.88-1.42-1.5a1.65,1.65,0,0,1,1.84-1.56,2.46,2.46,0,0,1,1.3.33l-.23.69a2.21,2.21,0,0,0-1.09-.31c-.57,0-.88.33-.88.73s.31.63,1,.91c.91.34,1.4.8,1.4,1.6s-.74,1.6-2,1.6a3,3,0,0,1-1.5-.37Z"/><path d="M186.7,7.93a2.53,2.53,0,0,1-2.55-2.74,2.6,2.6,0,0,1,2.64-2.82,2.52,2.52,0,0,1,2.56,2.72,2.61,2.61,0,0,1-2.64,2.84Zm0-.72c.93,0,1.62-.87,1.62-2.08,0-.91-.45-2-1.6-2s-1.62,1.06-1.62,2.07c0,1.17.66,2.05,1.59,2.05Z"/><path d="M190.57,4.15c0-.63,0-1.17,0-1.66h.85l0,1h0a1.61,1.61,0,0,1,1.48-1.16l.27,0V3.3l-.33,0a1.36,1.36,0,0,0-1.3,1.23,3.29,3.29,0,0,0,0,.45V7.81h-1Z"/><path d="M198.65,0V6.44c0,.47,0,1,0,1.37h-.87l-.05-.92h0a1.94,1.94,0,0,1-1.8,1,2.43,2.43,0,0,1-2.29-2.7c0-1.79,1.1-2.86,2.39-2.86a1.76,1.76,0,0,1,1.6.8h0V0Zm-1,4.65a1.44,1.44,0,0,0-.05-.41,1.43,1.43,0,0,0-1.4-1.12c-1,0-1.59.88-1.59,2.05s.54,2,1.57,2A1.46,1.46,0,0,0,197.64,6a1.36,1.36,0,0,0,.05-.41Z"/><path d="M200.81,5.33a1.69,1.69,0,0,0,1.82,1.83,3.52,3.52,0,0,0,1.47-.27l.17.69a4.38,4.38,0,0,1-1.78.34,2.48,2.48,0,0,1-2.62-2.68,2.59,2.59,0,0,1,2.51-2.87,2.24,2.24,0,0,1,2.19,2.5,2.77,2.77,0,0,1,0,.46Zm2.83-.7a1.38,1.38,0,0,0-1.33-1.57,1.6,1.6,0,0,0-1.49,1.57Z"/><path d="M205.77,3.93c0-.56,0-1,0-1.44h.85l.06.87h0a2,2,0,0,1,1.76-1c.74,0,1.88.44,1.88,2.26V7.81h-1V4.74c0-.86-.31-1.58-1.23-1.58a1.41,1.41,0,0,0-1.3,1,1.53,1.53,0,0,0-.06.45V7.81h-1Z"/><path d="M215.63,6.54a9.71,9.71,0,0,0,.07,1.27h-.87l-.08-.67h0a2,2,0,0,1-1.62.79,1.52,1.52,0,0,1-1.63-1.53c0-1.28,1.14-2,3.2-2V4.31a1.09,1.09,0,0,0-1.21-1.23,2.53,2.53,0,0,0-1.4.4l-.22-.65a3.4,3.4,0,0,1,1.76-.46c1.64,0,2,1.11,2,2.17Zm-.95-1.45c-1.06,0-2.25.17-2.25,1.2a.85.85,0,0,0,.9.93,1.36,1.36,0,0,0,1.31-.89,1.1,1.1,0,0,0,0-.31Z"/><path d="M221.77,0V6.44c0,.47,0,1,0,1.37H221l0-.92h0a1.94,1.94,0,0,1-1.8,1,2.43,2.43,0,0,1-2.29-2.7c0-1.79,1.1-2.86,2.39-2.86a1.79,1.79,0,0,1,1.61.8h0V0Zm-1,4.65a1.44,1.44,0,0,0-.05-.41,1.42,1.42,0,0,0-1.39-1.12c-1,0-1.6.88-1.6,2.05s.54,2,1.57,2A1.46,1.46,0,0,0,220.76,6a1.36,1.36,0,0,0,.05-.41Z"/><path d="M227.13,6.54a8.14,8.14,0,0,0,.08,1.27h-.87l-.09-.67h0a2,2,0,0,1-1.63.79A1.52,1.52,0,0,1,223,6.4c0-1.28,1.15-2,3.2-2V4.31A1.09,1.09,0,0,0,225,3.08a2.49,2.49,0,0,0-1.39.4l-.22-.65a3.4,3.4,0,0,1,1.76-.46c1.64,0,2,1.11,2,2.17Zm-.94-1.45c-1.06,0-2.26.17-2.26,1.2a.85.85,0,0,0,.9.93,1.34,1.34,0,0,0,1.31-.89.84.84,0,0,0,.05-.31Z"/><path d="M228.55,6.82a2.69,2.69,0,0,0,1.29.38c.69,0,1-.35,1-.8s-.27-.7-1-1c-1-.35-1.42-.88-1.42-1.5a1.65,1.65,0,0,1,1.84-1.56,2.46,2.46,0,0,1,1.3.33l-.23.69a2.21,2.21,0,0,0-1.09-.31c-.57,0-.88.33-.88.73s.31.63,1,.91c.91.34,1.4.8,1.4,1.6s-.74,1.6-2,1.6a3,3,0,0,1-1.5-.37Z"/><path d="M166.55,156.83h-2.87v2.68h3.22v.8h-4.19V152.9h4v.8h-3V156h2.87Z"/><path d="M166.8,161.87a1.53,1.53,0,0,0,1-.4c.27-.3.38-.73.38-2V155h1v4.85a3,3,0,0,1-.63,2.19,2.47,2.47,0,0,1-1.66.6Zm1.89-7.79a.57.57,0,0,1-.59-.59.59.59,0,0,1,.61-.61.58.58,0,0,1,.59.61.57.57,0,0,1-.6.59Z"/><path d="M171.33,157.83a1.69,1.69,0,0,0,1.81,1.83,3.61,3.61,0,0,0,1.48-.27l.17.69a4.38,4.38,0,0,1-1.78.34,2.48,2.48,0,0,1-2.62-2.68,2.59,2.59,0,0,1,2.51-2.87,2.24,2.24,0,0,1,2.19,2.5,2.77,2.77,0,0,1,0,.46Zm2.82-.7a1.38,1.38,0,0,0-1.33-1.57,1.58,1.58,0,0,0-1.48,1.57Z"/><path d="M183.22,152.5v6.44c0,.47,0,1,0,1.37h-.87l0-.92h0a2,2,0,0,1-1.81,1,2.43,2.43,0,0,1-2.29-2.7c0-1.79,1.1-2.86,2.39-2.86a1.76,1.76,0,0,1,1.61.8h0V152.5Zm-1,4.65a1.9,1.9,0,0,0,0-.41,1.43,1.43,0,0,0-1.4-1.12c-1,0-1.6.88-1.6,2s.54,2,1.58,2a1.47,1.47,0,0,0,1.42-1.16,1.78,1.78,0,0,0,0-.41Z"/><path d="M185.37,157.83a1.7,1.7,0,0,0,1.82,1.83,3.52,3.52,0,0,0,1.47-.27l.18.69a4.42,4.42,0,0,1-1.78.34,2.48,2.48,0,0,1-2.62-2.68,2.59,2.59,0,0,1,2.51-2.87,2.24,2.24,0,0,1,2.19,2.5,1.91,1.91,0,0,1,0,.46Zm2.83-.7a1.38,1.38,0,0,0-1.33-1.57,1.58,1.58,0,0,0-1.48,1.57Z"/><path d="M192.67,152.5h1v7.81h-1Z"/><path d="M199,159a9.59,9.59,0,0,0,.08,1.27h-.87l-.09-.67h0a2,2,0,0,1-1.63.79,1.52,1.52,0,0,1-1.63-1.53c0-1.28,1.15-2,3.21-2v-.11a1.1,1.1,0,0,0-1.22-1.23,2.49,2.49,0,0,0-1.39.4l-.22-.65a3.4,3.4,0,0,1,1.76-.46c1.64,0,2,1.11,2,2.17Zm-.94-1.45c-1.06,0-2.26.17-2.26,1.2a.85.85,0,0,0,.9.93,1.34,1.34,0,0,0,1.31-.89.84.84,0,0,0,0-.31Z"/><path d="M200.43,159.32a2.69,2.69,0,0,0,1.29.38c.69,0,1-.35,1-.8s-.27-.7-1-1c-1-.35-1.42-.88-1.42-1.5a1.65,1.65,0,0,1,1.84-1.56,2.46,2.46,0,0,1,1.3.33l-.23.69a2.21,2.21,0,0,0-1.09-.31c-.57,0-.88.33-.88.73s.31.63,1,.91c.91.34,1.4.8,1.4,1.6s-.74,1.6-2,1.6a3,3,0,0,1-1.5-.37Z"/><path d="M211,159a8.14,8.14,0,0,0,.08,1.27h-.87l-.09-.67h0a2,2,0,0,1-1.63.79,1.52,1.52,0,0,1-1.63-1.53c0-1.28,1.15-2,3.21-2v-.11a1.1,1.1,0,0,0-1.22-1.23,2.49,2.49,0,0,0-1.39.4l-.22-.65a3.4,3.4,0,0,1,1.76-.46c1.64,0,2,1.11,2,2.17Zm-.94-1.45c-1.06,0-2.26.17-2.26,1.2a.85.85,0,0,0,.9.93,1.34,1.34,0,0,0,1.31-.89.84.84,0,0,0,.05-.31Z"/><path d="M212.55,152.5h1v3.33h0a2,2,0,0,1,1.82-1c1.32,0,2.24,1.1,2.24,2.7,0,1.92-1.21,2.86-2.4,2.86a1.91,1.91,0,0,1-1.78-1h0l-.05.88h-.84c0-.36,0-.9,0-1.37Zm1,5.68a1.34,1.34,0,0,0,0,.35,1.49,1.49,0,0,0,1.45,1.13c1,0,1.61-.82,1.61-2s-.55-2-1.58-2a1.53,1.53,0,0,0-1.46,1.19,1.31,1.31,0,0,0-.06.41Z"/><path d="M222.61,160.11a3.81,3.81,0,0,1-1.53.31,2.53,2.53,0,0,1-2.65-2.72,2.71,2.71,0,0,1,2.86-2.83,3.09,3.09,0,0,1,1.34.28l-.22.74a2.4,2.4,0,0,0-1.12-.25,1.85,1.85,0,0,0-1.88,2,1.82,1.82,0,0,0,1.84,2,2.75,2.75,0,0,0,1.19-.25Z"/><path d="M224.2,154.08a.57.57,0,0,1-.58-.59.6.6,0,1,1,1.2,0,.58.58,0,0,1-.61.59Zm-.46,6.23V155h1v5.32Z"/><path d="M226.18,159.32a2.69,2.69,0,0,0,1.29.38c.69,0,1-.35,1-.8s-.27-.7-1-1c-1-.35-1.42-.88-1.42-1.5a1.65,1.65,0,0,1,1.84-1.56,2.46,2.46,0,0,1,1.3.33l-.23.69a2.21,2.21,0,0,0-1.09-.31c-.57,0-.88.33-.88.73s.31.63,1,.91c.91.34,1.4.8,1.4,1.6s-.74,1.6-2,1.6a3,3,0,0,1-1.5-.37Z"/><path d="M234.42,159a8.14,8.14,0,0,0,.08,1.27h-.87l-.09-.67h0a2,2,0,0,1-1.63.79,1.52,1.52,0,0,1-1.63-1.53c0-1.28,1.15-2,3.2-2v-.11a1.09,1.09,0,0,0-1.21-1.23,2.49,2.49,0,0,0-1.39.4l-.22-.65a3.37,3.37,0,0,1,1.76-.46c1.63,0,2,1.11,2,2.17Zm-.94-1.45c-1.06,0-2.26.17-2.26,1.2a.85.85,0,0,0,.9.93,1.35,1.35,0,0,0,1.31-.89,1.12,1.12,0,0,0,0-.31Z"/><path d="M235.84,159.32a2.69,2.69,0,0,0,1.29.38c.69,0,1-.35,1-.8s-.28-.7-1-1c-1-.35-1.42-.88-1.42-1.5a1.65,1.65,0,0,1,1.84-1.56,2.46,2.46,0,0,1,1.3.33l-.24.69a2.13,2.13,0,0,0-1.08-.31c-.58,0-.88.33-.88.73s.3.63,1,.91c.91.34,1.39.8,1.39,1.6s-.73,1.6-2,1.6a3,3,0,0,1-1.49-.37Z"/><line class="cls-1" x1="127.56" y1="12.39" x2="127.56" y2="239.16"/><rect class="cls-1" x="126.81" y="14.02" width="1.5" height="223.52"/><polygon class="cls-1" points="121.42 18.99 122.52 20.01 127.56 14.6 132.59 20.01 133.69 18.99 127.56 12.39 121.42 18.99"/><polygon class="cls-1" points="121.42 232.57 122.52 231.54 127.56 236.96 132.59 231.54 133.69 232.57 127.56 239.16 121.42 232.57"/><rect class="cls-1" x="1.63" y="125.03" width="251.87" height="1.5"/><polygon class="cls-1" points="6.6 131.91 7.62 130.81 2.2 125.78 7.62 120.74 6.6 119.64 0 125.78 6.6 131.91"/><polygon class="cls-1" points="248.52 131.91 247.5 130.81 252.92 125.78 247.5 120.74 248.52 119.64 255.12 125.78 248.52 131.91"/><rect class="cls-1" x="120.47" y="111.23" width="14.17" height="0.75"/><rect class="cls-1" x="120.47" y="139.58" width="14.17" height="0.75"/><rect class="cls-1" x="141.36" y="118.69" width="0.75" height="14.17"/><rect class="cls-1" x="120.47" y="97.06" width="14.17" height="0.75"/><rect class="cls-1" x="120.47" y="82.88" width="14.17" height="0.75"/><rect class="cls-1" x="120.47" y="68.71" width="14.17" height="0.75"/><rect class="cls-1" x="120.47" y="54.54" width="14.17" height="0.75"/><rect class="cls-1" x="120.47" y="40.36" width="14.17" height="0.75"/><rect class="cls-1" x="120.47" y="26.19" width="14.17" height="0.75"/><rect class="cls-1" x="120.47" y="40.36" width="14.17" height="0.75"/><rect class="cls-1" x="120.47" y="40.36" width="14.17" height="0.75"/><rect class="cls-1" x="155.53" y="118.69" width="0.75" height="14.17"/><rect class="cls-1" x="183.88" y="118.69" width="0.75" height="14.17"/><rect class="cls-1" x="169.7" y="118.69" width="0.75" height="14.17"/><rect class="cls-1" x="198.05" y="118.69" width="0.75" height="14.17"/><rect class="cls-1" x="212.22" y="118.69" width="0.75" height="14.17"/><rect class="cls-1" x="226.4" y="118.69" width="0.75" height="14.17"/><rect class="cls-1" x="240.57" y="118.69" width="0.75" height="14.17"/><path d="M143.86,134.84h0l-1,.55-.15-.61,1.28-.68h.67V140h-.76Z"/><path d="M116.37,110h0l-.9.49-.14-.54,1.14-.61h.6v5.2h-.68Z"/><path d="M137.14,139.71v.58h-2.22v-.58Z"/><path d="M139.53,137.32h0l-1,.55-.15-.6,1.27-.69h.68v5.85h-.77Z"/><path d="M137.14,153.76v.58h-2.22v-.58Z"/><path d="M137.81,156.48V156l.63-.61c1.49-1.42,2.17-2.17,2.17-3.06a1,1,0,0,0-1.15-1.14,2,2,0,0,0-1.24.49l-.25-.55a2.54,2.54,0,0,1,1.65-.6,1.65,1.65,0,0,1,1.79,1.7c0,1.08-.79,2-2,3.15l-.46.43v0h2.62v.65Z"/><path d="M137.14,168.09v.58h-2.22v-.58Z"/><path d="M138,169.91a2.81,2.81,0,0,0,1.3.36c1,0,1.33-.64,1.32-1.14,0-.82-.74-1.17-1.51-1.17h-.44v-.59h.44c.58,0,1.31-.3,1.31-1,0-.47-.3-.88-1-.88a2.14,2.14,0,0,0-1.17.38l-.22-.57a2.81,2.81,0,0,1,1.54-.45c1.15,0,1.68.68,1.68,1.39a1.47,1.47,0,0,1-1.08,1.39v0a1.49,1.49,0,0,1,1.3,1.49c0,.94-.74,1.76-2.13,1.76a2.92,2.92,0,0,1-1.52-.4Z"/><path d="M137.14,182.28v.57h-2.22v-.57Z"/><path d="M140.26,185v-1.61h-2.72v-.51l2.61-3.74H141v3.64h.82v.61H141V185Zm0-2.22v-1.95c0-.31,0-.62,0-.92h0c-.18.34-.32.59-.48.86l-1.43,2v0Z"/><path d="M137.14,196.27v.57h-2.22v-.57Z"/><path d="M141.31,193.8h-2.24l-.22,1.51a2.77,2.77,0,0,1,.48,0,2.5,2.5,0,0,1,1.26.31,1.67,1.67,0,0,1,.83,1.51,2,2,0,0,1-2.17,2,2.87,2.87,0,0,1-1.46-.36l.19-.61a2.62,2.62,0,0,0,1.27.33,1.29,1.29,0,0,0,1.37-1.28c0-.75-.51-1.29-1.67-1.29a5.77,5.77,0,0,0-.82.06l.38-2.8h2.8Z"/><path d="M137.14,210.46V211h-2.22v-.57Z"/><path d="M141.15,207.88a2.6,2.6,0,0,0-.59.05,2.34,2.34,0,0,0-2,2.07h0a1.78,1.78,0,0,1,3.19,1.2,2,2,0,0,1-1.95,2.07c-1.25,0-2.07-1-2.07-2.49a3.64,3.64,0,0,1,1-2.64,3.19,3.19,0,0,1,1.87-.86,3.37,3.37,0,0,1,.57-.05Zm-1.36,4.78c.68,0,1.14-.57,1.14-1.4a1.19,1.19,0,0,0-1.21-1.34,1.29,1.29,0,0,0-1.14.72.66.66,0,0,0-.08.34c0,1,.46,1.68,1.29,1.68Z"/><path d="M137.14,223.28v.58h-2.22v-.58Z"/><path d="M141.61,220.15v.52L139.06,226h-.8l2.52-5.17v0h-2.86v-.66Z"/><path d="M114.84,100.37v-.43l.55-.53c1.33-1.27,1.94-1.94,1.94-2.72a.93.93,0,0,0-1-1,1.76,1.76,0,0,0-1.1.44l-.22-.49a2.28,2.28,0,0,1,1.47-.53A1.46,1.46,0,0,1,118,96.6c0,1-.7,1.73-1.79,2.79l-.41.38v0h2.33v.58Z"/><path d="M115,85.41a2.4,2.4,0,0,0,1.15.32c.89,0,1.18-.57,1.17-1,0-.73-.66-1-1.34-1h-.39v-.53H116c.51,0,1.16-.26,1.16-.88,0-.41-.26-.78-.91-.78a1.89,1.89,0,0,0-1,.34l-.19-.51a2.49,2.49,0,0,1,1.36-.4c1,0,1.49.61,1.49,1.24a1.3,1.3,0,0,1-1,1.23v0a1.34,1.34,0,0,1,1.16,1.33c0,.83-.65,1.55-1.89,1.55a2.58,2.58,0,0,1-1.35-.35Z"/><path d="M117,72V70.62H114.6v-.46l2.32-3.32h.76v3.23h.73v.55h-.73V72Zm0-2V68.34c0-.27,0-.55,0-.82h0c-.16.31-.28.53-.43.77l-1.27,1.77H117Z"/><path d="M117.94,53.27h-2l-.2,1.33a3.89,3.89,0,0,1,.42,0,2.19,2.19,0,0,1,1.12.28,1.47,1.47,0,0,1,.75,1.34A1.81,1.81,0,0,1,116.11,58a2.52,2.52,0,0,1-1.29-.32l.17-.53a2.46,2.46,0,0,0,1.12.28,1.13,1.13,0,0,0,1.22-1.13c0-.67-.45-1.15-1.48-1.15a4.44,4.44,0,0,0-.73.06l.34-2.49h2.48Z"/><path d="M117.81,39a2,2,0,0,0-.53,0,2.07,2.07,0,0,0-1.81,1.83h0A1.59,1.59,0,0,1,118.32,42a1.74,1.74,0,0,1-1.74,1.83c-1.1,0-1.83-.86-1.83-2.21a3.23,3.23,0,0,1,.88-2.34,2.8,2.8,0,0,1,1.66-.77,3.76,3.76,0,0,1,.52,0Zm-1.21,4.24c.6,0,1-.5,1-1.25a1.06,1.06,0,0,0-1.08-1.19,1.16,1.16,0,0,0-1,.64.68.68,0,0,0-.07.31c0,.85.4,1.49,1.14,1.49Z"/><path d="M118.21,24.34v.47L116,29.54h-.72l2.25-4.6h-2.54v-.59Z"/><path d="M156.31,140v-.49l.62-.6c1.5-1.42,2.18-2.18,2.18-3.06a1,1,0,0,0-1.15-1.14,2,2,0,0,0-1.24.49l-.26-.56a2.62,2.62,0,0,1,1.66-.59,1.64,1.64,0,0,1,1.78,1.7c0,1.08-.78,2-2,3.14l-.46.44h2.62V140Z"/><path d="M170.67,139.05a2.7,2.7,0,0,0,1.3.36c1,0,1.33-.64,1.32-1.13,0-.82-.74-1.17-1.51-1.17h-.44v-.6h.44c.58,0,1.31-.3,1.31-1,0-.47-.3-.88-1-.88a2.14,2.14,0,0,0-1.17.39l-.22-.58a2.9,2.9,0,0,1,1.54-.45c1.15,0,1.68.68,1.68,1.4a1.46,1.46,0,0,1-1.08,1.38v0a1.51,1.51,0,0,1,1.3,1.49c0,.94-.74,1.76-2.13,1.76a2.92,2.92,0,0,1-1.52-.4Z"/><path d="M187.11,140v-1.6h-2.72v-.51L187,134.1h.85v3.64h.82v.61h-.82V140Zm0-2.21v-2c0-.3,0-.61,0-.92h0c-.18.35-.33.6-.49.87l-1.43,2v0Z"/><path d="M202.32,134.77h-2.23l-.22,1.5a2.74,2.74,0,0,1,.47,0,2.41,2.41,0,0,1,1.26.32,1.65,1.65,0,0,1,.84,1.5,2,2,0,0,1-2.18,2,2.9,2.9,0,0,1-1.46-.36l.2-.6a2.67,2.67,0,0,0,1.26.32,1.29,1.29,0,0,0,1.38-1.28c0-.74-.51-1.28-1.68-1.28a4.39,4.39,0,0,0-.81.06l.37-2.81h2.8Z"/><path d="M216.34,134.66a3.24,3.24,0,0,0-.59,0,2.36,2.36,0,0,0-2,2.07h0a1.77,1.77,0,0,1,1.42-.68,1.75,1.75,0,0,1,1.77,1.89,2,2,0,0,1-1.95,2.07c-1.25,0-2.07-1-2.07-2.49a3.66,3.66,0,0,1,1-2.64,3.2,3.2,0,0,1,1.88-.87,4.54,4.54,0,0,1,.57,0ZM215,139.44c.68,0,1.14-.57,1.14-1.41a1.19,1.19,0,0,0-1.21-1.34,1.3,1.3,0,0,0-1.14.72.68.68,0,0,0-.08.34c0,1,.46,1.69,1.29,1.69Z"/><path d="M231,134.1v.52L228.43,140h-.81l2.53-5.18h-2.87v-.66Z"/><path d="M243.31,134a1.51,1.51,0,0,1,1.71,1.44,1.48,1.48,0,0,1-1,1.37v0a1.62,1.62,0,0,1,1.18,1.51,1.79,1.79,0,0,1-2,1.7c-1.22,0-2-.72-2-1.58a1.69,1.69,0,0,1,1.15-1.57v0a1.44,1.44,0,0,1-.94-1.31A1.64,1.64,0,0,1,243.3,134Zm-.05,5.47a1.06,1.06,0,0,0,1.17-1c0-.7-.5-1.05-1.29-1.28a1.29,1.29,0,0,0-1,1.22,1.07,1.07,0,0,0,1.16,1.1Zm0-4.9a.93.93,0,0,0-1,.93c0,.59.44.9,1.12,1.08a1.15,1.15,0,0,0,.89-1.06.9.9,0,0,0-1-1Z"/><path d="M12.57,137.23v.58H10.34v-.58Z"/><path d="M15.2,134a1.51,1.51,0,0,1,1.71,1.44,1.48,1.48,0,0,1-1,1.37v0a1.62,1.62,0,0,1,1.18,1.51,1.79,1.79,0,0,1-2,1.7c-1.22,0-2-.72-2-1.58a1.69,1.69,0,0,1,1.15-1.57v0a1.44,1.44,0,0,1-.94-1.31A1.64,1.64,0,0,1,15.19,134Zm0,5.47a1.06,1.06,0,0,0,1.17-1c0-.7-.5-1.05-1.29-1.28a1.29,1.29,0,0,0-1,1.22,1.07,1.07,0,0,0,1.16,1.1Zm0-4.9a.93.93,0,0,0-1,.93c0,.59.44.9,1.12,1.08a1.15,1.15,0,0,0,.89-1.06.9.9,0,0,0-1-1Z"/><path d="M26.74,137.23v.58H24.52v-.58Z"/><path d="M31.21,134.1v.52L28.67,140h-.81l2.53-5.18H27.52v-.66Z"/><path d="M40.91,137.23v.58H38.69v-.58Z"/><path d="M44.93,134.66a3.4,3.4,0,0,0-.6,0,2.34,2.34,0,0,0-2,2.07h0A1.78,1.78,0,0,1,45.5,138a2,2,0,0,1-2,2.07c-1.24,0-2.06-1-2.06-2.49a3.62,3.62,0,0,1,1-2.64,3.17,3.17,0,0,1,1.87-.87,4.68,4.68,0,0,1,.58,0Zm-1.36,4.78c.67,0,1.13-.57,1.13-1.41a1.19,1.19,0,0,0-1.2-1.34,1.32,1.32,0,0,0-1.15.72.81.81,0,0,0-.08.34c0,1,.46,1.69,1.29,1.69Z"/><path d="M55.09,137.23v.58H52.86v-.58Z"/><path d="M59.25,134.77H57l-.22,1.5a2.74,2.74,0,0,1,.47,0,2.41,2.41,0,0,1,1.26.32,1.65,1.65,0,0,1,.84,1.5,2,2,0,0,1-2.18,2,2.9,2.9,0,0,1-1.46-.36l.2-.6a2.67,2.67,0,0,0,1.26.32,1.29,1.29,0,0,0,1.38-1.28c0-.74-.51-1.28-1.67-1.28a4.44,4.44,0,0,0-.82.06l.37-2.81h2.8Z"/><path d="M69.26,137.23v.58H67v-.58Z"/><path d="M72.38,140v-1.6H69.66v-.51l2.61-3.74h.86v3.64H74v.61h-.82V140Zm0-2.21v-2c0-.3,0-.61,0-.92h0c-.18.35-.32.6-.48.87l-1.43,2v0Z"/><path d="M83.43,137.23v.58H81.21v-.58Z"/><path d="M84.3,139.05a2.62,2.62,0,0,0,1.29.36c1,0,1.33-.64,1.33-1.13,0-.82-.75-1.17-1.52-1.17H85v-.6h.44c.58,0,1.31-.3,1.31-1,0-.47-.3-.88-1-.88a2.14,2.14,0,0,0-1.17.39l-.21-.58a2.87,2.87,0,0,1,1.54-.45c1.15,0,1.67.68,1.67,1.4a1.46,1.46,0,0,1-1.08,1.38v0a1.51,1.51,0,0,1,1.3,1.49c0,.94-.73,1.76-2.13,1.76a3,3,0,0,1-1.52-.4Z"/><path d="M97.61,137.23v.58H95.38v-.58Z"/><path d="M98.28,140v-.49l.62-.6c1.5-1.42,2.18-2.18,2.18-3.06a1,1,0,0,0-1.15-1.14,2,2,0,0,0-1.24.49l-.26-.56a2.62,2.62,0,0,1,1.66-.59,1.64,1.64,0,0,1,1.78,1.7c0,1.08-.78,2-2,3.14l-.46.44H102V140Z"/><path d="M111.78,137.23v.58h-2.22v-.58Z"/><path d="M114.17,134.84h0l-1,.55-.16-.61,1.28-.68h.68V140h-.77Z"/><polygon points="127.56 7.83 121.08 1.34 134.04 1.34 127.56 7.83"/><rect class="cls-1" x="113.01" y="118.69" width="0.75" height="14.17"/><rect class="cls-1" x="98.84" y="118.69" width="0.75" height="14.17"/><rect class="cls-1" x="84.66" y="118.69" width="0.75" height="14.17"/><rect class="cls-1" x="70.49" y="118.69" width="0.75" height="14.17"/><rect class="cls-1" x="56.32" y="118.69" width="0.75" height="14.17"/><rect class="cls-1" x="42.15" y="118.69" width="0.75" height="14.17"/><rect class="cls-1" x="27.97" y="118.69" width="0.75" height="14.17"/><rect class="cls-1" x="13.8" y="118.69" width="0.75" height="14.17"/><rect class="cls-1" x="120.47" y="153.75" width="14.17" height="0.75"/><rect class="cls-1" x="120.47" y="167.92" width="14.17" height="0.75"/><rect class="cls-1" x="120.47" y="182.1" width="14.17" height="0.75"/><rect class="cls-1" x="120.47" y="196.27" width="14.17" height="0.75"/><rect class="cls-1" x="120.47" y="210.44" width="14.17" height="0.75"/><rect class="cls-1" x="120.47" y="224.62" width="14.17" height="0.75"/><rect class="cls-2" x="132.05" y="94.51" width="108.9" height="1"/></g></g></svg>