<svg xmlns="http://www.w3.org/2000/svg" viewBox="0 0 170.67 167.31"><defs><style>.cls-1{fill:#00ffa0;}.cls-2{fill:#b2b2b2;}.cls-3{fill:#018afa;}.cls-4{fill:#76c1f6;}</style></defs><g id="Capa_2" data-name="Capa 2"><g id="Capa_1-2" data-name="Capa 1"><path d="M167.77,124.85a2.66,2.66,0,0,1,.4.56,7.58,7.58,0,0,1,.31,1l.48-.71a2.56,2.56,0,0,1,.45-.49,1.7,1.7,0,0,1,.47-.32.72.72,0,0,1,.29-.06.51.51,0,0,1,.37.13.38.38,0,0,1,.13.3.36.36,0,0,1-.08.28.48.48,0,0,1-.34.13.69.69,0,0,1-.24,0,1.63,1.63,0,0,0-.34-.08.52.52,0,0,0-.31.15,4.14,4.14,0,0,0-.79,1.08l.44,1.84a1.53,1.53,0,0,0,.17.51c0,.06.09.09.14.09a.45.45,0,0,0,.26-.13,2.06,2.06,0,0,0,.51-.64l.19.09a3.34,3.34,0,0,1-.86,1.06.94.94,0,0,1-.5.23.53.53,0,0,1-.48-.34,14.59,14.59,0,0,1-.47-1.8,7.36,7.36,0,0,1-1.34,1.87,1,1,0,0,1-.63.27.6.6,0,0,1-.4-.15.44.44,0,0,1-.13-.32.41.41,0,0,1,.12-.3.44.44,0,0,1,.29-.11.54.54,0,0,1,.37.17.38.38,0,0,0,.21.12.32.32,0,0,0,.17-.08,4.13,4.13,0,0,0,.69-.88,9.7,9.7,0,0,0,.57-1q-.34-1.31-.36-1.38a1,1,0,0,0-.32-.5,1.07,1.07,0,0,0-.59-.14h-.29v-.19Z"/><path class="cls-1" d="M91,145.81a6.55,6.55,0,0,0,.06,1h-.71l-.07-.55h0a1.58,1.58,0,0,1-1.33.65,1.25,1.25,0,0,1-1.34-1.25c0-1,.94-1.63,2.62-1.62V144a.89.89,0,0,0-1-1,2.09,2.09,0,0,0-1.14.33l-.18-.54a2.87,2.87,0,0,1,1.44-.37c1.34,0,1.67.91,1.67,1.78Zm-.78-1.18c-.86,0-1.84.13-1.84,1a.7.7,0,0,0,.74.76,1.11,1.11,0,0,0,1.07-.73,1.09,1.09,0,0,0,0-.26Z"/><path class="cls-1" d="M95.91,145.65c0,.46,0,.86,0,1.2h-.71l0-.71h0a1.62,1.62,0,0,1-1.44.81c-.68,0-1.5-.39-1.5-1.91v-2.55H93v2.41c0,.83.26,1.39,1,1.39a1.12,1.12,0,0,0,1.12-1.13v-2.67h.79Z"/><path class="cls-1" d="M97.22,143.67c0-.46,0-.81,0-1.18h.69l0,.71h0a1.51,1.51,0,0,1,1.38-.8,1.29,1.29,0,0,1,1.23.87h0a1.88,1.88,0,0,1,.5-.57,1.44,1.44,0,0,1,1-.3c.59,0,1.44.37,1.44,1.89v2.56h-.77v-2.46c0-.85-.32-1.35-1-1.35a1,1,0,0,0-.94.71,1.34,1.34,0,0,0-.06.4v2.7H100v-2.62c0-.69-.3-1.19-.91-1.19a1.1,1.1,0,0,0-1,.8,1.16,1.16,0,0,0-.06.38v2.63h-.78Z"/><path class="cls-1" d="M105.18,144.82a1.39,1.39,0,0,0,1.49,1.5,2.94,2.94,0,0,0,1.2-.22l.15.56a3.51,3.51,0,0,1-1.46.28,2,2,0,0,1-2.15-2.19,2.12,2.12,0,0,1,2.06-2.35,1.84,1.84,0,0,1,1.79,2,1.77,1.77,0,0,1,0,.37Zm2.31-.57A1.13,1.13,0,0,0,106.4,143a1.3,1.3,0,0,0-1.21,1.29Z"/><path class="cls-1" d="M109.24,143.67c0-.46,0-.81,0-1.18h.7l0,.72h0a1.6,1.6,0,0,1,1.44-.81c.6,0,1.54.36,1.54,1.85v2.6h-.79v-2.51c0-.7-.27-1.3-1-1.3a1.15,1.15,0,0,0-1.07.81,1.44,1.44,0,0,0,0,.37v2.63h-.79Z"/><path class="cls-1" d="M115.15,141.45v1h1.14v.61h-1.14v2.34c0,.54.15.84.6.84a1.42,1.42,0,0,0,.46-.05l0,.6a2,2,0,0,1-.7.11,1.13,1.13,0,0,1-.86-.33,1.73,1.73,0,0,1-.3-1.14V143.1h-.68v-.61h.68v-.8Z"/><path class="cls-1" d="M120.25,145.81a6.55,6.55,0,0,0,.06,1h-.71l-.07-.55h0a1.58,1.58,0,0,1-1.33.65,1.25,1.25,0,0,1-1.34-1.25c0-1,.94-1.63,2.62-1.62V144a.89.89,0,0,0-1-1,2.09,2.09,0,0,0-1.14.33l-.18-.54a2.87,2.87,0,0,1,1.44-.37c1.34,0,1.67.91,1.67,1.78Zm-.78-1.18c-.86,0-1.84.13-1.84,1a.7.7,0,0,0,.74.76,1.11,1.11,0,0,0,1.07-.73,1.09,1.09,0,0,0,0-.26Z"/><line class="cls-2" x1="34.82" x2="34.82" y2="148.82"/><rect class="cls-2" x="34.07" y="1.63" width="1.5" height="147.19"/><polygon class="cls-2" points="28.69 6.6 29.79 7.62 34.82 2.2 39.86 7.62 40.96 6.6 34.82 0 28.69 6.6"/><rect class="cls-2" x="13.56" y="126.81" width="147.19" height="1.5"/><polygon class="cls-2" points="155.79 133.69 154.76 132.59 160.18 127.56 154.76 122.52 155.79 121.43 162.38 127.56 155.79 133.69"/><rect class="cls-2" x="27.74" y="113.01" width="14.17" height="0.75"/><rect class="cls-2" x="27.74" y="141.36" width="14.17" height="0.75"/><rect class="cls-2" x="48.62" y="120.47" width="0.75" height="14.17"/><rect class="cls-2" x="27.74" y="98.84" width="14.17" height="0.75"/><rect class="cls-2" x="27.74" y="84.66" width="14.17" height="0.75"/><rect class="cls-2" x="27.74" y="70.49" width="14.17" height="0.75"/><rect class="cls-2" x="27.74" y="56.32" width="14.17" height="0.75"/><rect class="cls-2" x="27.74" y="42.14" width="14.17" height="0.75"/><rect class="cls-2" x="27.74" y="27.97" width="14.17" height="0.75"/><rect class="cls-2" x="27.74" y="42.14" width="14.17" height="0.75"/><rect class="cls-2" x="27.74" y="42.14" width="14.17" height="0.75"/><rect class="cls-2" x="62.79" y="120.47" width="0.75" height="14.17"/><rect class="cls-2" x="91.14" y="120.47" width="0.75" height="14.17"/><rect class="cls-2" x="76.97" y="120.47" width="0.75" height="14.17"/><rect class="cls-2" x="105.31" y="120.47" width="0.75" height="14.17"/><rect class="cls-2" x="119.49" y="120.47" width="0.75" height="14.17"/><rect class="cls-2" x="133.66" y="120.47" width="0.75" height="14.17"/><rect class="cls-2" x="147.83" y="120.47" width="0.75" height="14.17"/><path class="cls-3" d="M12.19,101.56V98.23h-.53v-.54h.53v-.18a1.85,1.85,0,0,1,.46-1.36,1.34,1.34,0,0,1,.93-.35,1.49,1.49,0,0,1,.6.11l-.09.54a1,1,0,0,0-.45-.09c-.59,0-.75.53-.75,1.12v.21h.93v.54H12.9v3.33Z"/><path class="cls-3" d="M17.68,96a5.31,5.31,0,0,0-1,3.28,5.43,5.43,0,0,0,1,3.24h-.54a5.15,5.15,0,0,1-1.05-3.25A5.26,5.26,0,0,1,17.14,96Z"/><path class="cls-3" d="M21.49,101.56l-.69-1.19c-.28-.46-.45-.75-.62-1.06h0c-.16.31-.32.59-.59,1.07l-.65,1.18h-.79l1.64-2.73L18.2,96.17H19l.71,1.26c.2.36.35.63.49.92h0c.15-.32.29-.57.49-.92l.72-1.26h.81l-1.64,2.62,1.68,2.77Z"/><path class="cls-3" d="M23.36,102.73v-2.62h0l-.57.27-.09-.41.75-.35h.49v3.11Z"/><path class="cls-3" d="M24.62,102.53a5.51,5.51,0,0,0,1-3.26,5.45,5.45,0,0,0-1-3.26h.54a5.2,5.2,0,0,1,1.05,3.26,5.34,5.34,0,0,1-1.05,3.26Z"/><path class="cls-3" d="M12.19,59V55.71h-.53v-.54h.53V55a1.81,1.81,0,0,1,.46-1.35,1.3,1.3,0,0,1,.93-.36,1.49,1.49,0,0,1,.6.11l-.09.54a1,1,0,0,0-.45-.09c-.59,0-.75.53-.75,1.12v.21h.93v.54H12.9V59Z"/><path class="cls-3" d="M17.68,53.49a5.33,5.33,0,0,0-1,3.28,5.43,5.43,0,0,0,1,3.24h-.54a5.13,5.13,0,0,1-1.05-3.25,5.28,5.28,0,0,1,1.05-3.27Z"/><path class="cls-3" d="M21.49,59l-.69-1.19c-.28-.46-.45-.75-.62-1.06h0c-.16.31-.32.6-.59,1.07L18.93,59h-.79l1.64-2.72L18.2,53.65H19l.71,1.27c.2.35.35.62.49.91h0a10.31,10.31,0,0,1,.49-.91l.72-1.27h.81l-1.64,2.63L22.3,59Z"/><path class="cls-3" d="M22.6,59.91l.5-.46c.67-.61,1-1,1-1.39a.53.53,0,0,0-.61-.55,1.16,1.16,0,0,0-.67.24l-.17-.36a1.6,1.6,0,0,1,1-.33A.92.92,0,0,1,24.7,58c0,.6-.45,1-1.06,1.58l-.24.22v0h1.36v.44H22.6Z"/><path class="cls-3" d="M25.15,60a5.81,5.81,0,0,0,0-6.52h.55a5.2,5.2,0,0,1,1,3.26,5.34,5.34,0,0,1-1,3.26Z"/><path class="cls-3" d="M64.51,141.73l-.79-1.34c-.31-.51-.5-.85-.69-1.2h0c-.17.35-.35.68-.65,1.21l-.73,1.33h-.9l1.85-3.07-1.78-3h.91l.8,1.43c.22.39.4.7.56,1h0c.18-.36.33-.64.55-1l.82-1.43h.91l-1.84,3,1.89,3.11Z"/><path class="cls-3" d="M66.6,143.05v-3h0l-.65.32-.1-.47.84-.4h.55v3.51Z"/><path class="cls-3" d="M135.22,141.73l-.79-1.34c-.31-.51-.5-.85-.69-1.2h0c-.17.35-.35.68-.66,1.21l-.73,1.33h-.9l1.86-3.07-1.78-3h.91l.8,1.43c.22.39.39.7.56,1h0c.17-.36.33-.64.55-1l.82-1.43h.91l-1.85,3,1.89,3.11Z"/><path class="cls-3" d="M136.46,142.71l.56-.52c.75-.68,1.14-1.11,1.14-1.57a.61.61,0,0,0-.69-.62,1.35,1.35,0,0,0-.75.28l-.19-.41a1.79,1.79,0,0,1,1.11-.37,1,1,0,0,1,1.18,1c0,.67-.51,1.17-1.19,1.77l-.27.25v0h1.53v.5h-2.43Z"/><path d="M27.45,137.89c-1.15,0-1.93-1.07-1.95-3s.86-3,2.05-3,1.93,1.1,1.93,3-.75,3.09-2,3.09Zm0-.61c.8,0,1.19-.94,1.19-2.44s-.36-2.39-1.19-2.39-1.19.92-1.19,2.39.45,2.44,1.18,2.44Z"/><rect class="cls-2" x="20.28" y="120.47" width="0.75" height="14.17"/><path class="cls-4" d="M61.66,99.71h-2v-1h2Zm-4,0h-2v-1h2Zm-4,0h-2v-1h2Zm-4,0h-2v-1h2Zm-4,0h-2v-1h2Zm-4,0h-2v-1h2Zm-4,0h-2v-1h2Z"/><path class="cls-4" d="M133.66,57.19h-2v-1h2Zm-4,0h-2v-1h2Zm-4,0h-2v-1h2Zm-4,0h-2v-1h2Zm-4,0h-2v-1h2Zm-4,0h-2v-1h2Zm-4,0h-2v-1h2Zm-4,0h-2v-1h2Zm-4,0h-2v-1h2Zm-4,0h-2v-1h2Zm-4,0h-2v-1h2Zm-4,0h-2v-1h2Zm-4,0h-2v-1h2Zm-4,0h-2v-1h2Zm-4,0h-2v-1h2Zm-4,0h-2v-1h2Zm-4,0h-2v-1h2Zm-4,0h-2v-1h2Zm-4,0h-2v-1h2Zm-4,0h-2v-1h2Zm-4,0h-2v-1h2Zm-4,0h-2v-1h2Zm-4,0h-2v-1h2Zm-4,0h-2v-1h2Zm-4,0h-2v-1h2Z"/><path class="cls-4" d="M63.67,125.21h-1v-2h1Zm0-4h-1v-2h1Zm0-4h-1v-2h1Zm0-4h-1v-2h1Zm0-4h-1v-2h1Zm0-4h-1v-2h1Zm0-4h-1v-2h1Z"/><rect class="cls-1" x="81.15" y="163.87" width="45.01" height="0.75"/><polygon class="cls-1" points="123.67 167.31 123.16 166.76 125.87 164.25 123.16 161.73 123.67 161.18 126.97 164.25 123.67 167.31"/><path class="cls-1" d="M4.36,92.67a8,8,0,0,0,1-.06v.71l-.55.07v0a1.58,1.58,0,0,1,.65,1.33,1.24,1.24,0,0,1-1.25,1.33c-1,0-1.63-.93-1.62-2.62H2.54a.9.9,0,0,0-1,1,2.1,2.1,0,0,0,.33,1.15l-.54.18A2.87,2.87,0,0,1,1,94.34c0-1.35.91-1.67,1.78-1.67Zm-1.18.78c0,.86.13,1.84,1,1.84a.7.7,0,0,0,.76-.74,1.11,1.11,0,0,0-.73-1.07.74.74,0,0,0-.26,0Z"/><path class="cls-1" d="M4.21,87.76c.45,0,.85,0,1.19,0v.7l-.71,0v0a1.61,1.61,0,0,1,.81,1.44c0,.68-.39,1.5-1.91,1.5H1v-.79H3.45c.83,0,1.39-.26,1.39-1a1.12,1.12,0,0,0-1.13-1.12H1v-.79Z"/><path class="cls-1" d="M2.22,86.44c-.46,0-.82,0-1.18,0v-.69l.71,0v0A1.48,1.48,0,0,1,1,84.35a1.29,1.29,0,0,1,.87-1.23v0a1.73,1.73,0,0,1-.57-.49,1.45,1.45,0,0,1-.3-1c0-.58.37-1.44,1.89-1.44H5.4V81H2.94c-.85,0-1.35.31-1.35.94a1.05,1.05,0,0,0,.71.95,1.76,1.76,0,0,0,.4.06H5.4v.78H2.78c-.69,0-1.19.3-1.19.91a1.1,1.1,0,0,0,.8,1,1.16,1.16,0,0,0,.38.06H5.4v.77Z"/><path class="cls-1" d="M3.37,78.49A1.39,1.39,0,0,0,4.87,77a2.91,2.91,0,0,0-.22-1.2l.56-.15a3.51,3.51,0,0,1,.28,1.46,2,2,0,0,1-2.2,2.14A2.11,2.11,0,0,1,1,77.2,1.84,1.84,0,0,1,3,75.41a1.77,1.77,0,0,1,.37,0ZM2.8,76.17a1.14,1.14,0,0,0-1.29,1.09A1.31,1.31,0,0,0,2.8,78.48Z"/><path class="cls-1" d="M2.22,74.43c-.46,0-.82,0-1.18,0v-.71l.72,0v0A1.61,1.61,0,0,1,1,72.26c0-.6.36-1.54,1.85-1.54H5.4v.79H2.89c-.7,0-1.3.26-1.3,1a1.14,1.14,0,0,0,.81,1.06,1.1,1.1,0,0,0,.37.06H5.4v.79Z"/><path class="cls-1" d="M0,68.52H1V67.38h.61v1.14H4c.54,0,.84-.16.84-.6a1.42,1.42,0,0,0,0-.46l.6,0a2,2,0,0,1,.11.7,1.09,1.09,0,0,1-.33.85A1.67,1.67,0,0,1,4,69.29H1.65V70H1v-.68H.24Z"/><path class="cls-1" d="M4.36,63.42a8,8,0,0,0,1-.06v.71l-.55.07v0A1.58,1.58,0,0,1,5.5,65.5a1.24,1.24,0,0,1-1.25,1.33c-1,0-1.63-.93-1.62-2.62H2.54a.9.9,0,0,0-1,1,2.1,2.1,0,0,0,.33,1.15l-.54.18A2.87,2.87,0,0,1,1,65.09c0-1.35.91-1.67,1.78-1.67Zm-1.18.78c0,.86.13,1.84,1,1.84a.7.7,0,0,0,.76-.74,1.11,1.11,0,0,0-.73-1.07.74.74,0,0,0-.26,0Z"/><rect class="cls-1" x="8.25" y="57.51" width="0.75" height="45.01"/><polygon class="cls-1" points="11.69 59.99 11.14 60.5 8.62 57.79 6.11 60.5 5.56 59.99 8.62 56.69 11.69 59.99"/><path class="cls-4" d="M134.54,125.16h-1v-.47h1Zm0-2.47h-1v-2h1Zm0-4h-1v-2h1Zm0-4h-1v-2h1Zm0-4h-1v-2h1Zm0-4h-1v-2h1Zm0-4h-1v-2h1Zm0-4h-1v-2h1Zm0-4h-1v-2h1Zm0-4h-1v-2h1Zm0-4h-1v-2h1Zm0-4h-1v-2h1Zm0-4h-1v-2h1Zm0-4h-1v-2h1Zm0-4h-1v-2h1Zm0-4h-1v-2h1Zm0-4h-1v-2h1Zm0-4h-1v-2h1Z"/><path class="cls-1" d="M63.54,99.21h-.75c0-23.39,31.6-42.63,70.43-42.89v.75C94.8,57.33,63.54,76.23,63.54,99.21Z"/><polygon class="cls-1" points="130.83 59.86 130.3 59.33 132.94 56.73 130.15 54.29 130.65 53.73 134.04 56.69 130.83 59.86"/><path class="cls-1" d="M75.55,94.17l-3.32-1.75L72,93l-.54-.28.28-.53-.18-.1a2.05,2.05,0,0,1-1.11-1.16,1.53,1.53,0,0,1,.14-1.12,1.71,1.71,0,0,1,.42-.54l.5.37a1.22,1.22,0,0,0-.33.41c-.31.59.13,1,.72,1.34l.21.1.49-.93.53.28-.48.93,3.32,1.75Z"/><path class="cls-1" d="M77.67,88.32c.39.25.72.46,1,.63l-.39.59-.62-.36v0a1.63,1.63,0,0,1-.11,1.65c-.37.57-1.15,1-2.42.21L73,89.67l.43-.67,2,1.32c.7.45,1.31.55,1.7,0a1.12,1.12,0,0,0,0-1.27,1,1,0,0,0-.3-.29l-2.23-1.45.44-.67Z"/><path class="cls-1" d="M76.92,86c-.35-.3-.63-.52-.92-.73l.45-.54.57.42h0a1.62,1.62,0,0,1,.31-1.63,1.58,1.58,0,0,1,2.41,0l2,1.67-.51.6-1.92-1.61c-.54-.45-1.16-.63-1.64-.06a1.15,1.15,0,0,0-.07,1.33,1.1,1.1,0,0,0,.25.28l2,1.69-.51.61Z"/><path class="cls-1" d="M84.63,82.15a3.12,3.12,0,0,1-.72,1,2.07,2.07,0,0,1-3.1-.08,2.22,2.22,0,0,1,.06-3.3,2.43,2.43,0,0,1,.95-.6l.29.56a2,2,0,0,0-.81.49,1.51,1.51,0,0,0,0,2.25,1.49,1.49,0,0,0,2.22.12,2.22,2.22,0,0,0,.55-.83Z"/><path class="cls-1" d="M82.37,77.62a.46.46,0,0,1-.67-.06.49.49,0,1,1,.68,0Zm3,4.12-2.82-3.31.61-.52L86,81.23Z"/><path class="cls-1" d="M88.39,79.47a2.08,2.08,0,0,1-3-.56,2.15,2.15,0,0,1,.37-3.15,2.06,2.06,0,0,1,3,.56,2.12,2.12,0,0,1-.36,3.15Zm-2.78-5.83-.12,1.69-.45.33-.12-1.5ZM88.06,79a1.73,1.73,0,0,0-2-2.72,1.73,1.73,0,0,0,2,2.73Z"/><path class="cls-1" d="M89.16,74.92c-.24-.39-.43-.7-.64-1l.6-.36.41.58h0a1.63,1.63,0,0,1,.82-1.44c.51-.31,1.5-.48,2.27.8L94,75.72l-.68.41L92,74c-.36-.6-.89-1-1.53-.59A1.14,1.14,0,0,0,90,74.64a1.36,1.36,0,0,0,.14.34l1.36,2.25-.68.41Z"/><path class="cls-1" d="M99.4,72.84a3.06,3.06,0,0,1-1,.76,2.06,2.06,0,0,1-2.91-1.08,2.21,2.21,0,0,1,1.12-3.1,2.37,2.37,0,0,1,1.09-.25l.1.62a2,2,0,0,0-.92.2,1.52,1.52,0,0,0-.69,2.15,1.5,1.5,0,0,0,2.06.83,2.27,2.27,0,0,0,.79-.61Z"/><path class="cls-1" d="M99.11,69.9c-.2-.47-.37-.87-.55-1.24l.64-.26.36.77h0a1.31,1.31,0,0,1,.76-1.34l.21-.07.28.69-.25.09a1.11,1.11,0,0,0-.6,1.34c0,.11.07.23.11.35l.89,2.15-.73.3Z"/><path class="cls-1" d="M102.54,69.57a1.38,1.38,0,0,0,1.9.91,2.86,2.86,0,0,0,1.06-.61l.33.48a3.57,3.57,0,0,1-1.28.75,2,2,0,0,1-2.75-1.34,2.12,2.12,0,0,1,1.14-2.9,1.83,1.83,0,0,1,2.37,1.33,1.37,1.37,0,0,1,.1.35Zm2-1.31a1.13,1.13,0,0,0-1.46-.85,1.3,1.3,0,0,0-.71,1.62Z"/><path class="cls-1" d="M109.93,69.13a3.19,3.19,0,0,1-1.13.6,2.06,2.06,0,0,1-2.71-1.51,2.21,2.21,0,0,1,1.58-2.89,2.37,2.37,0,0,1,1.11-.09v.63a1.82,1.82,0,0,0-.93.06,1.64,1.64,0,0,0,.91,3.15,2.29,2.29,0,0,0,.87-.48Z"/><path class="cls-1" d="M109.88,64.05a.45.45,0,0,1-.58-.35.47.47,0,0,1,.35-.6.49.49,0,0,1,.6.36.48.48,0,0,1-.36.59Zm.92,5-1.1-4.22.77-.2,1.1,4.22Z"/><path class="cls-1" d="M112.8,66.48a1.39,1.39,0,0,0,1.78,1.14,2.8,2.8,0,0,0,1.13-.48l.26.52a3.44,3.44,0,0,1-1.36.59A2,2,0,0,1,112,66.57a2.12,2.12,0,0,1,1.49-2.74,1.85,1.85,0,0,1,2.2,1.62,2.15,2.15,0,0,1,0,.36Zm2.14-1.06a1.13,1.13,0,0,0-1.35-1,1.3,1.3,0,0,0-.9,1.52Z"/><path class="cls-1" d="M116.59,64.5c-.08-.45-.15-.81-.24-1.16l.7-.12.16.7h0a1.6,1.6,0,0,1,1.28-1c.59-.11,1.58.09,1.83,1.56l.43,2.57-.78.13-.42-2.48c-.12-.69-.47-1.23-1.21-1.1a1.14,1.14,0,0,0-.91,1,1.23,1.23,0,0,0,0,.38l.44,2.58-.78.14Z"/><path class="cls-1" d="M122.21,61.38l.13,1,1.13-.14.07.6-1.12.14.3,2.32c.07.54.26.82.69.76a1.27,1.27,0,0,0,.45-.11l.11.6a2.27,2.27,0,0,1-.68.19,1.11,1.11,0,0,1-.89-.22,1.75,1.75,0,0,1-.45-1.09l-.3-2.35-.67.08-.08-.59.67-.09-.1-.79Z"/><path class="cls-1" d="M125.08,64.43a1.38,1.38,0,0,0,1.61,1.36,2.88,2.88,0,0,0,1.18-.33l.19.55a3.44,3.44,0,0,1-1.42.41,2,2,0,0,1-2.33-2,2.13,2.13,0,0,1,1.83-2.53,1.86,1.86,0,0,1,2,1.89,2.25,2.25,0,0,1,0,.37Zm2.25-.77c0-.51-.32-1.27-1.2-1.19a1.32,1.32,0,0,0-1.1,1.39Z"/></g></g></svg>