<svg xmlns="http://www.w3.org/2000/svg" viewBox="0 0 171.66 165.7"><defs><style>.cls-1{fill:#00ffa0;}.cls-2{fill:#b2b2b2;}.cls-3{fill:#018afa;}.cls-4{fill:#76c1f6;}.cls-5{fill:#f73e3e;}</style></defs><g id="Capa_2" data-name="Capa 2"><g id="Capa_1-2" data-name="Capa 1"><path d="M35.14,0a2.16,2.16,0,0,1,.25.58,6.62,6.62,0,0,1,.14,1.07l.24,2.64c.21-.26.53-.66.93-1.22.2-.28.44-.65.73-1.11a3.6,3.6,0,0,0,.33-.61.47.47,0,0,0,0-.17.12.12,0,0,0,0-.1S37.66,1,37.56,1A.52.52,0,0,1,37.29.8a.48.48,0,0,1-.1-.31.48.48,0,0,1,.13-.36A.41.41,0,0,1,37.64,0a.51.51,0,0,1,.4.2.81.81,0,0,1,.17.54,2.19,2.19,0,0,1-.29,1A17.68,17.68,0,0,1,36.8,3.38c-.55.75-1.22,1.57-2,2.46A6.47,6.47,0,0,1,33.59,7a1.33,1.33,0,0,1-.67.24.41.41,0,0,1-.29-.13.43.43,0,0,1-.13-.29.54.54,0,0,1,.18-.39.53.53,0,0,1,.38-.17.29.29,0,0,1,.17,0,.42.42,0,0,1,.1.15.43.43,0,0,0,.09.17.09.09,0,0,0,.07,0l.11,0A3.91,3.91,0,0,0,34.29,6a10.44,10.44,0,0,0,.76-.86l-.3-3.41a2.31,2.31,0,0,0-.23-1A.59.59,0,0,0,34,.55a2.73,2.73,0,0,0-.4,0l0-.2Z"/><path d="M168.76,137.41a2.66,2.66,0,0,1,.4.56,7.58,7.58,0,0,1,.31,1l.48-.71a2.56,2.56,0,0,1,.45-.49,1.59,1.59,0,0,1,.48-.32.64.64,0,0,1,.28-.06.51.51,0,0,1,.37.13.38.38,0,0,1,.13.3.36.36,0,0,1-.08.28.48.48,0,0,1-.34.13.52.52,0,0,1-.24-.05,1.63,1.63,0,0,0-.34-.08.52.52,0,0,0-.31.15,4.14,4.14,0,0,0-.79,1.08l.44,1.84a1.53,1.53,0,0,0,.17.51c.05.06.09.09.14.09a.45.45,0,0,0,.26-.13,2.06,2.06,0,0,0,.51-.64l.19.09a3.34,3.34,0,0,1-.86,1.06.94.94,0,0,1-.5.23.53.53,0,0,1-.48-.34,14.59,14.59,0,0,1-.47-1.8,7.36,7.36,0,0,1-1.34,1.87,1,1,0,0,1-.63.27.6.6,0,0,1-.4-.15.44.44,0,0,1-.13-.32.41.41,0,0,1,.12-.3.44.44,0,0,1,.29-.11.54.54,0,0,1,.37.17.38.38,0,0,0,.21.12.32.32,0,0,0,.17-.08,4.13,4.13,0,0,0,.69-.88,9.7,9.7,0,0,0,.57-1c-.23-.87-.34-1.33-.36-1.38a1,1,0,0,0-.32-.5,1.07,1.07,0,0,0-.59-.14h-.29v-.19Z"/><path class="cls-1" d="M92,158.37a6.55,6.55,0,0,0,.06,1h-.71l-.07-.55h0a1.58,1.58,0,0,1-1.33.65,1.24,1.24,0,0,1-1.33-1.25c0-1,.93-1.63,2.61-1.62v-.09a.89.89,0,0,0-1-1,2.09,2.09,0,0,0-1.14.33l-.18-.54a2.87,2.87,0,0,1,1.44-.37c1.34,0,1.67.91,1.67,1.78Zm-.78-1.18c-.86,0-1.84.13-1.84,1a.7.7,0,0,0,.74.76,1.11,1.11,0,0,0,1.07-.73,1.09,1.09,0,0,0,0-.26Z"/><path class="cls-1" d="M96.9,158.21c0,.46,0,.86,0,1.2h-.71l0-.71h0a1.62,1.62,0,0,1-1.44.81c-.68,0-1.5-.39-1.5-1.91v-2.55H94v2.41c0,.83.26,1.39,1,1.39a1.12,1.12,0,0,0,1.12-1.13v-2.67h.79Z"/><path class="cls-1" d="M98.21,156.23c0-.46,0-.81,0-1.18h.69l0,.71h0a1.51,1.51,0,0,1,1.38-.8,1.29,1.29,0,0,1,1.23.87h0a1.88,1.88,0,0,1,.5-.57,1.44,1.44,0,0,1,1-.3c.59,0,1.44.37,1.44,1.89v2.56h-.77V157c0-.85-.32-1.35-1-1.35a1,1,0,0,0-.94.71,1.34,1.34,0,0,0-.06.4v2.7h-.78v-2.62c0-.69-.3-1.19-.91-1.19a1.1,1.1,0,0,0-1,.8,1.16,1.16,0,0,0-.06.38v2.63h-.78Z"/><path class="cls-1" d="M106.17,157.38a1.39,1.39,0,0,0,1.49,1.5,2.94,2.94,0,0,0,1.2-.22l.15.56a3.51,3.51,0,0,1-1.46.28,2,2,0,0,1-2.15-2.19,2.12,2.12,0,0,1,2.06-2.35,1.84,1.84,0,0,1,1.79,2,1.77,1.77,0,0,1,0,.37Zm2.31-.57a1.13,1.13,0,0,0-1.09-1.29,1.3,1.3,0,0,0-1.21,1.29Z"/><path class="cls-1" d="M110.23,156.23c0-.46,0-.81,0-1.18h.7l0,.72h0a1.6,1.6,0,0,1,1.44-.81c.6,0,1.54.36,1.54,1.85v2.6h-.79V156.9c0-.7-.27-1.3-1-1.3a1.13,1.13,0,0,0-1.06.81,1.1,1.1,0,0,0-.06.37v2.63h-.79Z"/><path class="cls-1" d="M116.14,154v1h1.14v.61h-1.14V158c0,.54.15.84.6.84a1.42,1.42,0,0,0,.46-.05l0,.6a2,2,0,0,1-.7.11,1.13,1.13,0,0,1-.86-.33,1.73,1.73,0,0,1-.3-1.14v-2.37h-.68v-.61h.68v-.8Z"/><path class="cls-1" d="M121.24,158.37a6.55,6.55,0,0,0,.06,1h-.71l-.07-.55h0a1.58,1.58,0,0,1-1.33.65,1.24,1.24,0,0,1-1.33-1.25c0-1,.93-1.63,2.61-1.62v-.09a.89.89,0,0,0-1-1,2.09,2.09,0,0,0-1.14.33l-.18-.54a2.87,2.87,0,0,1,1.44-.37c1.34,0,1.67.91,1.67,1.78Zm-.78-1.18c-.86,0-1.84.13-1.84,1a.7.7,0,0,0,.74.76,1.11,1.11,0,0,0,1.07-.73,1.09,1.09,0,0,0,0-.26Z"/><line class="cls-2" x1="35.81" y1="12.56" x2="35.81" y2="161.38"/><rect class="cls-2" x="35.06" y="14.19" width="1.5" height="147.19"/><polygon class="cls-2" points="29.68 19.16 30.78 20.18 35.81 14.76 40.85 20.18 41.95 19.16 35.81 12.56 29.68 19.16"/><rect class="cls-2" x="14.55" y="139.37" width="147.19" height="1.5"/><polygon class="cls-2" points="156.78 146.25 155.75 145.16 161.17 140.12 155.75 135.09 156.78 133.99 163.37 140.12 156.78 146.25"/><rect class="cls-2" x="28.73" y="125.57" width="14.17" height="0.75"/><rect class="cls-2" x="28.73" y="153.92" width="14.17" height="0.75"/><rect class="cls-2" x="49.61" y="133.03" width="0.75" height="14.17"/><rect class="cls-2" x="28.73" y="111.4" width="14.17" height="0.75"/><rect class="cls-2" x="28.73" y="97.22" width="14.17" height="0.75"/><rect class="cls-2" x="28.73" y="83.05" width="14.17" height="0.75"/><rect class="cls-2" x="28.73" y="68.88" width="14.17" height="0.75"/><rect class="cls-2" x="28.73" y="54.71" width="14.17" height="0.75"/><rect class="cls-2" x="28.73" y="40.53" width="14.17" height="0.75"/><rect class="cls-2" x="28.73" y="54.71" width="14.17" height="0.75"/><rect class="cls-2" x="28.73" y="54.71" width="14.17" height="0.75"/><rect class="cls-2" x="63.79" y="133.03" width="0.75" height="14.17"/><rect class="cls-2" x="92.13" y="133.03" width="0.75" height="14.17"/><rect class="cls-2" x="77.96" y="133.03" width="0.75" height="14.17"/><rect class="cls-2" x="106.3" y="133.03" width="0.75" height="14.17"/><rect class="cls-2" x="120.48" y="133.03" width="0.75" height="14.17"/><rect class="cls-2" x="134.65" y="133.03" width="0.75" height="14.17"/><rect class="cls-2" x="148.82" y="133.03" width="0.75" height="14.17"/><path class="cls-3" d="M13.18,114.12v-3.33h-.53v-.54h.53v-.18a1.85,1.85,0,0,1,.46-1.36,1.34,1.34,0,0,1,.93-.35,1.49,1.49,0,0,1,.6.11l-.09.54a1,1,0,0,0-.45-.09c-.59,0-.75.53-.75,1.12v.21h.93v.54h-.92v3.33Z"/><path class="cls-3" d="M18.67,108.57a5.31,5.31,0,0,0-1,3.28,5.43,5.43,0,0,0,1,3.24h-.54a5.15,5.15,0,0,1-1.05-3.25,5.26,5.26,0,0,1,1.05-3.27Z"/><path class="cls-3" d="M22.48,114.12l-.69-1.19c-.28-.46-.45-.75-.62-1.06h0c-.16.31-.32.59-.59,1.07l-.65,1.18h-.79l1.64-2.73-1.58-2.66H20l.71,1.26c.2.36.35.63.49.92h0c.15-.32.29-.57.49-.92l.72-1.26h.81l-1.64,2.62,1.68,2.77Z"/><path class="cls-3" d="M24.35,115.29v-2.62h0l-.57.27-.09-.41.75-.35h.49v3.11Z"/><path class="cls-3" d="M25.61,115.09a5.86,5.86,0,0,0,0-6.52h.54a5.2,5.2,0,0,1,1.05,3.26,5.34,5.34,0,0,1-1.05,3.26Z"/><path class="cls-3" d="M13.18,71.6V68.27h-.53v-.54h.53v-.18a1.81,1.81,0,0,1,.46-1.35,1.3,1.3,0,0,1,.93-.36,1.49,1.49,0,0,1,.6.11l-.09.54a1,1,0,0,0-.45-.09c-.59,0-.75.53-.75,1.12v.21h.93v.54h-.92V71.6Z"/><path class="cls-3" d="M18.67,66.05a5.33,5.33,0,0,0-1,3.28,5.43,5.43,0,0,0,1,3.24h-.54a5.13,5.13,0,0,1-1.05-3.25,5.28,5.28,0,0,1,1.05-3.27Z"/><path class="cls-3" d="M22.48,71.6l-.69-1.19c-.28-.46-.45-.75-.62-1.06h0c-.16.31-.32.6-.59,1.07l-.65,1.18h-.79l1.64-2.72-1.58-2.67H20l.71,1.27c.2.35.35.62.49.91h0a10.31,10.31,0,0,1,.49-.91l.72-1.27h.81l-1.64,2.62,1.68,2.77Z"/><path class="cls-3" d="M23.59,72.47l.5-.46c.67-.61,1-1,1-1.39a.53.53,0,0,0-.61-.55,1.16,1.16,0,0,0-.67.24L23.65,70a1.6,1.6,0,0,1,1-.33.92.92,0,0,1,1.05.89c0,.6-.45,1-1.06,1.58l-.24.22v0h1.36v.44H23.59Z"/><path class="cls-3" d="M26.14,72.57a5.81,5.81,0,0,0,0-6.52h.55a5.2,5.2,0,0,1,1,3.26,5.34,5.34,0,0,1-1,3.26Z"/><path class="cls-3" d="M65.5,154.29,64.71,153c-.31-.51-.5-.84-.69-1.2h0c-.17.36-.35.68-.65,1.21l-.73,1.33h-.9l1.85-3.07-1.78-3h.91l.8,1.42c.22.39.4.7.56,1h0c.18-.36.33-.63.55-1l.82-1.42h.91l-1.84,3,1.89,3.11Z"/><path class="cls-3" d="M67.59,155.61v-3h0l-.65.32-.1-.47.84-.39h.55v3.5Z"/><path class="cls-3" d="M136.21,154.29l-.79-1.34c-.31-.51-.5-.84-.69-1.2h0c-.17.36-.35.68-.66,1.21l-.72,1.33h-.91l1.86-3.07-1.78-3h.91l.8,1.42c.22.39.39.7.56,1h0c.17-.36.33-.63.55-1l.82-1.42h.91l-1.85,3,1.9,3.11Z"/><path class="cls-3" d="M137.45,155.27l.56-.52c.75-.68,1.14-1.11,1.14-1.56a.61.61,0,0,0-.69-.63,1.35,1.35,0,0,0-.75.28l-.19-.41a1.79,1.79,0,0,1,1.11-.37,1,1,0,0,1,1.18,1c0,.67-.51,1.17-1.19,1.77l-.27.25v0h1.53v.5h-2.43Z"/><path d="M28.44,150.45c-1.15,0-1.93-1.07-2-3s.86-3,2.05-3,1.93,1.1,1.93,3-.75,3.09-2,3.09Zm0-.61c.8,0,1.19-.94,1.19-2.44S29.31,145,28.48,145s-1.19.92-1.19,2.39.45,2.44,1.18,2.44Z"/><rect class="cls-2" x="21.27" y="133.03" width="0.75" height="14.17"/><path class="cls-4" d="M134.65,112.27h-2v-1h2Zm-4,0h-2v-1h2Zm-4,0h-2v-1h2Zm-4,0h-2v-1h2Zm-4,0h-2v-1h2Zm-4,0h-2v-1h2Zm-4,0h-2v-1h2Zm-4,0h-2v-1h2Zm-4,0h-2v-1h2Zm-4,0h-2v-1h2Zm-4,0h-2v-1h2Zm-4,0h-2v-1h2Zm-4,0h-2v-1h2Zm-4,0h-2v-1h2Zm-4,0h-2v-1h2Zm-4,0h-2v-1h2Zm-4,0h-2v-1h2Zm-4,0h-2v-1h2Zm-4,0h-2v-1h2Zm-4,0h-2v-1h2Zm-4,0h-2v-1h2Zm-4,0h-2v-1h2Zm-4,0h-2v-1h2Zm-4,0h-2v-1h2Zm-4,0h-2v-1h2Z"/><path class="cls-4" d="M62.65,69.75h-2v-1h2Zm-4,0h-2v-1h2Zm-4,0h-2v-1h2Zm-4,0h-2v-1h2Zm-4,0h-2v-1h2Zm-4,0h-2v-1h2Zm-4,0h-2v-1h2Z"/><path class="cls-4" d="M64.66,139.25h-1v-2h1Zm0-4h-1v-2h1Zm0-4h-1v-2h1Zm0-4h-1v-2h1Zm0-4h-1v-2h1Zm0-4h-1v-2h1Zm0-4h-1v-2h1Zm0-4h-1v-2h1Zm0-4h-1v-2h1Zm0-4h-1v-2h1Zm0-4h-1v-2h1Zm0-4h-1v-2h1Zm0-4h-1v-2h1Zm0-4h-1v-2h1Zm0-4h-1v-2h1Zm0-4h-1v-2h1Zm0-4h-1v-2h1Zm0-4h-1v-2h1Z"/><rect class="cls-1" x="82.14" y="162.26" width="45.01" height="0.75"/><polygon class="cls-1" points="124.67 165.7 124.15 165.15 126.86 162.63 124.15 160.12 124.67 159.57 127.96 162.63 124.67 165.7"/><path class="cls-5" d="M0,104.55H5.27c.38,0,.83,0,1.12,0v.71l-.75,0v0a1.59,1.59,0,0,1,.85,1.47,2,2,0,0,1-2.21,1.88,2.08,2.08,0,0,1-2.34-2,1.45,1.45,0,0,1,.65-1.31v0H0Zm3.81.79a1.27,1.27,0,0,0-.34,0,1.16,1.16,0,0,0-.91,1.14c0,.82.72,1.31,1.67,1.31s1.62-.45,1.62-1.29a1.2,1.2,0,0,0-.95-1.16,1.18,1.18,0,0,0-.34,0Z"/><path class="cls-5" d="M1.3,102.86a.47.47,0,0,1-.49.47.47.47,0,0,1-.49-.49.47.47,0,0,1,.49-.49.48.48,0,0,1,.49.5Zm5.09.38H2v-.8H6.39Z"/><path class="cls-5" d="M5.58,101.24a2.17,2.17,0,0,0,.31-1c0-.57-.28-.84-.65-.84s-.58.22-.79.8c-.29.79-.72,1.16-1.24,1.16a1.35,1.35,0,0,1-1.27-1.5,1.94,1.94,0,0,1,.27-1.06l.56.18a1.83,1.83,0,0,0-.25.9c0,.46.27.72.6.72s.52-.26.74-.82c.28-.75.66-1.15,1.31-1.15s1.31.61,1.31,1.62a2.51,2.51,0,0,1-.3,1.23Z"/><path class="cls-5" d="M3.21,97.57c-.46,0-.82,0-1.17,0v-.69l.7,0v0a1.51,1.51,0,0,1-.8-1.38,1.29,1.29,0,0,1,.87-1.23h0a1.88,1.88,0,0,1-.57-.5,1.44,1.44,0,0,1-.3-1c0-.59.37-1.44,1.89-1.44H6.39v.77H3.93c-.85,0-1.35.32-1.35,1a1,1,0,0,0,.71.94,1.34,1.34,0,0,0,.4.06h2.7v.78H3.77c-.69,0-1.19.3-1.19.91a1.1,1.1,0,0,0,.8,1,1.16,1.16,0,0,0,.38.06H6.39v.78Z"/><path class="cls-5" d="M1.3,89.68a.48.48,0,0,1-.49.48.48.48,0,0,1-.49-.5.47.47,0,0,1,.49-.48.48.48,0,0,1,.49.49Zm5.09.38H2v-.79H6.39Z"/><path class="cls-5" d="M3.21,88c-.46,0-.82,0-1.17,0v-.7l.71-.05h0a1.61,1.61,0,0,1-.81-1.44c0-.61.36-1.54,1.85-1.54h2.6V85H3.88c-.7,0-1.3.26-1.3,1a1.15,1.15,0,0,0,.81,1.06,1.44,1.44,0,0,0,.37,0H6.39V88Z"/><path class="cls-5" d="M5.2,79.31c.45,0,.85,0,1.19,0V80l-.71,0h0a1.64,1.64,0,0,1,.81,1.44c0,.69-.39,1.51-1.91,1.51H2v-.8h2.4c.83,0,1.39-.26,1.39-1a1.13,1.13,0,0,0-.73-1,1,1,0,0,0-.4-.07H2v-.8Z"/><path class="cls-5" d="M2,77.71l2.57-.94c.29-.11.63-.22.89-.29v0c-.26-.08-.59-.17-.91-.28L2,75.32v-.84l3.1,1.19a6.81,6.81,0,0,1,2.73,1.49,2.22,2.22,0,0,1,.5,1l-.66.19a2.09,2.09,0,0,0-.38-.69A2.5,2.5,0,0,0,6.45,77a.78.78,0,0,0-.19-.06.62.62,0,0,0-.21.06L2,78.58Z"/><path class="cls-5" d="M4.36,73.4a1.38,1.38,0,0,0,1.5-1.48,3,3,0,0,0-.22-1.21l.56-.14A3.41,3.41,0,0,1,6.48,72a2,2,0,0,1-2.19,2.15,2.12,2.12,0,0,1-2.35-2.06A1.84,1.84,0,0,1,4,70.32a1.77,1.77,0,0,1,.37,0Zm-.57-2.31A1.13,1.13,0,0,0,2.5,72.18a1.3,1.3,0,0,0,1.29,1.21Z"/><rect class="cls-5" x="9.24" y="69.25" width="0.75" height="45.01"/><polygon class="cls-5" points="6.55 111.78 7.09 111.26 9.61 113.97 12.13 111.26 12.68 111.78 9.61 115.07 6.55 111.78"/><path class="cls-4" d="M135.53,137.72h-1v-1.95h1Zm0-3.95h-1v-2h1Zm0-4h-1v-2h1Zm0-4h-1v-2h1Zm0-4h-1v-2h1Zm0-4h-1v-2h1Zm0-4h-1v-2h1Z"/><path class="cls-5" d="M67.79,65.78,68.08,62l-.6,0,0-.6.6,0,0-.21a2,2,0,0,1,.63-1.47,1.47,1.47,0,0,1,1.08-.32,1.78,1.78,0,0,1,.66.17l-.14.61a1.16,1.16,0,0,0-.51-.14c-.66,0-.89.52-.94,1.19l0,.23,1,.08,0,.6-1-.08-.3,3.74Z"/><path class="cls-5" d="M74,65.19c-.05.46-.09.85-.1,1.19l-.7-.07,0-.71h0a1.6,1.6,0,0,1-1.52.65c-.68-.07-1.45-.55-1.28-2.06l.28-2.53.78.09-.26,2.38c-.09.83.11,1.42.81,1.5A1.15,1.15,0,0,0,73.19,65a1.17,1.17,0,0,0,.12-.4L73.6,62l.78.08Z"/><path class="cls-5" d="M75.61,63.4c.07-.45.12-.81.15-1.17l.69.11-.06.71h0A1.59,1.59,0,0,1,78,62.47c.6.09,1.47.59,1.24,2.06l-.4,2.57L78,67l.38-2.48c.11-.69-.06-1.32-.8-1.43a1.13,1.13,0,0,0-1.17.64,1.2,1.2,0,0,0-.11.35l-.4,2.6-.78-.12Z"/><path class="cls-5" d="M83.09,67.76a3,3,0,0,1-1.27,0,2.08,2.08,0,0,1-1.71-2.6,2.22,2.22,0,0,1,2.74-1.83,2.48,2.48,0,0,1,1,.44l-.3.55a1.88,1.88,0,0,0-.86-.37,1.64,1.64,0,0,0-.65,3.21,2.41,2.41,0,0,0,1,0Z"/><path class="cls-5" d="M83.91,68.11l1-4.25.77.17-.95,4.25Zm1.47-4.89a.46.46,0,0,1-.35-.57.49.49,0,1,1,1,.21.48.48,0,0,1-.59.37Z"/><path class="cls-5" d="M87.62,69.1a2.08,2.08,0,0,1-1.46-2.69,2.13,2.13,0,0,1,2.67-1.7,2.05,2.05,0,0,1,1.47,2.68,2.13,2.13,0,0,1-2.67,1.71Zm.19-.57c.73.19,1.46-.36,1.7-1.32a1.46,1.46,0,0,0-.84-1.93c-.9-.23-1.51.5-1.72,1.3a1.48,1.48,0,0,0,.85,2Zm2.58-5.26-1.38,1-.54-.14,1.08-1Z"/><path class="cls-5" d="M91.56,66.77c.14-.44.24-.79.32-1.14l.67.21-.17.69h0A1.61,1.61,0,0,1,94,66.19c.58.18,1.36.8.92,2.23l-.77,2.48-.76-.23.75-2.4c.21-.67.13-1.32-.58-1.54a1.13,1.13,0,0,0-1.25.46,1.08,1.08,0,0,0-.17.34L91.38,70l-.76-.23Z"/><path class="cls-5" d="M102.9,67.33,101,72.23c-.14.36-.29.78-.37,1.06L100,73l.24-.72h0a1.59,1.59,0,0,1-1.69.26,2,2,0,0,1-.94-2.74,2.09,2.09,0,0,1,2.67-1.47,1.46,1.46,0,0,1,1,1.09h0l.94-2.41Zm-2.12,3.26a1.21,1.21,0,0,0,.09-.34,1.17,1.17,0,0,0-.73-1.26c-.77-.29-1.48.2-1.83,1.09a1.41,1.41,0,0,0,.62,2,1.2,1.2,0,0,0,1.42-.47,1.68,1.68,0,0,0,.16-.3Z"/><path class="cls-5" d="M103,72.1a1.39,1.39,0,0,0,.74,2,2.78,2.78,0,0,0,1.19.29l-.1.58a3.5,3.5,0,0,1-1.45-.35,2,2,0,0,1-1-2.88,2.12,2.12,0,0,1,2.83-1.3,1.84,1.84,0,0,1,.79,2.61,2,2,0,0,1-.18.32Zm2.34.44a1.13,1.13,0,0,0-.46-1.63,1.31,1.31,0,0,0-1.64.68Z"/><path class="cls-5" d="M108.58,76.89a3.09,3.09,0,0,1-1.23-.35,2.07,2.07,0,0,1-.93-3,2.22,2.22,0,0,1,3.14-1,2.63,2.63,0,0,1,.88.71l-.44.46a1.92,1.92,0,0,0-.72-.61,1.52,1.52,0,0,0-2.12.77,1.49,1.49,0,0,0,.6,2.14,2.51,2.51,0,0,0,1,.26Z"/><path class="cls-5" d="M110.74,74.86c.25-.45.46-.84.63-1.2L112,74l-.39.76h0a1.33,1.33,0,0,1,1.53-.23l.18.12-.37.65a1.53,1.53,0,0,0-.23-.15,1.12,1.12,0,0,0-1.42.36,1.84,1.84,0,0,0-.2.31l-1.15,2-.69-.39Z"/><path class="cls-5" d="M113.12,77.34a1.4,1.4,0,0,0,.47,2.07,2.91,2.91,0,0,0,1.14.45l-.18.55a3.58,3.58,0,0,1-1.38-.53,2,2,0,0,1-.66-3,2.13,2.13,0,0,1,3-.91,1.83,1.83,0,0,1,.43,2.69,1.16,1.16,0,0,1-.22.3Zm2.27.75a1.14,1.14,0,0,0-.24-1.67,1.32,1.32,0,0,0-1.72.45Z"/><path class="cls-5" d="M118,82.86a3.07,3.07,0,0,1-1.17-.52,2.06,2.06,0,0,1-.49-3.06,2.22,2.22,0,0,1,3.25-.55,2.52,2.52,0,0,1,.76.82l-.5.39a1.81,1.81,0,0,0-.63-.7,1.64,1.64,0,0,0-1.9,2.67,2.23,2.23,0,0,0,.91.38Z"/><path class="cls-5" d="M118.6,83.53l2.66-3.46.62.49L119.23,84Zm3.4-3.81a.49.49,0,0,1,.62-.77.48.48,0,0,1,.08.69.48.48,0,0,1-.69.09Z"/><path class="cls-5" d="M121.87,83.5a1.38,1.38,0,0,0,.16,2.1,2.87,2.87,0,0,0,1.07.61l-.26.53a3.65,3.65,0,0,1-1.29-.73,2,2,0,0,1-.22-3.06,2.12,2.12,0,0,1,3.08-.47,1.84,1.84,0,0,1,0,2.72,2.32,2.32,0,0,1-.26.27ZM124,84.56a1.14,1.14,0,0,0,0-1.69,1.31,1.31,0,0,0-1.76.2Z"/><path class="cls-5" d="M125.77,85.35a11.7,11.7,0,0,0,.8-.86l.51.49-.47.54h0a1.62,1.62,0,0,1,1.6.42,1.59,1.59,0,0,1-.19,2.41l-1.82,1.86-.56-.55,1.75-1.8c.49-.5.72-1.11.18-1.63a1.14,1.14,0,0,0-1.32-.17,1.26,1.26,0,0,0-.3.23l-1.84,1.88-.56-.55Z"/><path class="cls-5" d="M131.63,88.15l-.77.7.76.84-.44.41-.77-.84-1.73,1.57c-.4.36-.52.68-.22,1a1.39,1.39,0,0,0,.34.3l-.42.43a2.21,2.21,0,0,1-.55-.44,1.16,1.16,0,0,1-.33-.86,1.76,1.76,0,0,1,.64-1l1.75-1.58-.45-.5.45-.41.45.5.59-.54Z"/><path class="cls-5" d="M130.76,92.26a1.38,1.38,0,0,0-.24,2.1,2.85,2.85,0,0,0,.93.8l-.35.46a3.32,3.32,0,0,1-1.13-1,2,2,0,0,1,.37-3,2.11,2.11,0,0,1,3.11.13,1.84,1.84,0,0,1-.47,2.68,3.43,3.43,0,0,1-.31.21Zm1.89,1.45a1.12,1.12,0,0,0,.32-1.66,1.31,1.31,0,0,0-1.76-.14Z"/><path class="cls-5" d="M134.68,111.91C126,89.13,95,70.56,64.15,69.63l0-.75c31.15.93,62.43,19.72,71.21,42.76Z"/></g></g></svg>