<?xml version="1.0" encoding="utf-8"?>
<!-- Generator: Adobe Illustrator 24.3.0, SVG Export Plug-In . SVG Version: 6.00 Build 0)  -->
<svg version="1.1" id="Capa_1" xmlns="http://www.w3.org/2000/svg" xmlns:xlink="http://www.w3.org/1999/xlink" x="0px" y="0px"
	 viewBox="0 0 196.2 169" style="enable-background:new 0 0 196.2 169;" xml:space="preserve">
<style type="text/css">
	.st0{fill:#1B2950;}
	.st1{fill:none;}
	.st2{fill:#B2B2B2;}
	.st3{fill:#018AFA;}
	.st4{fill:#76C1F6;}
	.st5{fill:#00FFA0;}
</style>
<g id="Capa_2_1_">
	<g id="Capa_1-2">
		<path class="st0" d="M24.8,190.2c-0.7,0.2-1.4,0.4-2.1,0.4c-1.7,0.2-3.3-1.1-3.5-2.9c0-0.2,0-0.4,0-0.5c-0.1-1.9,1.4-3.4,3.3-3.5
			c0.1,0,0.3,0,0.4,0c0.6,0,1.1,0.1,1.7,0.3l-0.2,0.7c-0.5-0.2-1-0.3-1.5-0.3c-1.4-0.1-2.6,0.9-2.7,2.3c0,0.1,0,0.3,0,0.4
			c-0.1,1.4,0.8,2.6,2.2,2.7c0.1,0,0.3,0,0.4,0c0.4,0,0.8,0,1.1-0.2v-2h-1.4V187h2.2V190.2z"/>
		<path class="st0" d="M26.1,187.2c0-0.6,0-1.1,0-1.5h0.8v0.9l0,0c0.2-0.6,0.7-1,1.4-1.1h0.2v0.8h-0.3c-0.6,0-1.1,0.5-1.2,1.1
			c0,0.1,0,0.3,0,0.4v2.6h-0.9V187.2z"/>
		<path class="st0" d="M32.8,189.4c0,0.4,0,0.8,0.1,1.2H32l-0.1-0.6l0,0c-0.3,0.5-0.9,0.7-1.5,0.7c-0.8,0-1.4-0.6-1.4-1.3
			c0,0,0,0,0-0.1c0-1.2,1-1.8,2.9-1.8v-0.1c0.1-0.5-0.3-1-0.9-1.1c-0.1,0-0.2,0-0.2,0c-0.4,0-0.9,0.1-1.3,0.4l-0.2-0.6
			c0.5-0.3,1-0.4,1.6-0.4c1.5,0,1.8,1,1.8,2L32.8,189.4z M31.9,188.1c-1,0-2,0.1-2,1.1c0,0.4,0.3,0.8,0.7,0.8c0,0,0.1,0,0.1,0
			c0.5,0,1-0.3,1.2-0.8c0-0.1,0-0.2,0-0.3L31.9,188.1z M32.3,183.6l-1.2,1.4h-0.6l0.9-1.4H32.3z"/>
		<path class="st0" d="M34.2,190.5v-4.2h-0.7v-0.7h0.7v-0.3c-0.1-1.1,0.7-2,1.8-2.1c0.1,0,0.2,0,0.4,0c0.4,0,0.9,0.1,1.2,0.3
			l-0.3,0.7c-0.3-0.2-0.6-0.3-1-0.3c-0.9,0-1.2,0.6-1.2,1.4v0.2H38v4.8h-0.9v-4.2h-2v4.2H34.2z"/>
		<path class="st0" d="M42.8,190.4c-0.4,0.2-0.9,0.3-1.4,0.3c-1.3,0.1-2.4-0.9-2.5-2.1c0-0.1,0-0.2,0-0.3c-0.1-1.4,1-2.5,2.4-2.6
			c0.1,0,0.2,0,0.2,0c0.4,0,0.8,0.1,1.2,0.3l-0.2,0.7c-0.3-0.2-0.7-0.2-1-0.2c-0.9,0-1.7,0.7-1.7,1.6c0,0.1,0,0.1,0,0.2
			c-0.1,0.9,0.6,1.7,1.5,1.8c0.1,0,0.1,0,0.2,0c0.4,0,0.7-0.1,1.1-0.2L42.8,190.4z"/>
		<path class="st0" d="M47.3,189.4c0,0.4,0,0.8,0.1,1.2h-0.8l-0.1-0.6l0,0c-0.3,0.5-0.9,0.7-1.5,0.7c-0.8,0.1-1.4-0.5-1.5-1.3
			c0,0,0-0.1,0-0.1c0-1.2,1-1.8,2.9-1.8v-0.1c0.1-0.5-0.3-1-0.9-1.1c-0.1,0-0.2,0-0.2,0c-0.4,0-0.9,0.1-1.3,0.4l-0.2-0.6
			c0.5-0.3,1-0.4,1.6-0.4c1.5,0,1.8,1,1.8,2L47.3,189.4z M46.4,188.1c-1,0-2,0.1-2,1.1c0,0.4,0.3,0.8,0.7,0.8c0,0,0.1,0,0.1,0
			c0.5,0,1-0.3,1.2-0.8c0-0.1,0-0.2,0-0.3L46.4,188.1z"/>
		<path class="st0" d="M54.7,184v0.6l-2.8,5.9H51l2.8-5.8l0,0h-3.2v-0.7L54.7,184z"/>
		<path class="st0" d="M56.3,190.7c-0.3,0-0.6-0.3-0.6-0.6c0,0,0,0,0,0c0-0.3,0.2-0.6,0.6-0.6c0,0,0,0,0,0c0.3,0,0.6,0.2,0.6,0.6
			c0,0,0,0,0,0.1C56.9,190.4,56.7,190.6,56.3,190.7C56.4,190.7,56.3,190.7,56.3,190.7L56.3,190.7z"/>
		<path class="st0" d="M65.3,190.2c-0.7,0.2-1.4,0.4-2.1,0.4c-1.7,0.2-3.3-1.1-3.5-2.9c0-0.2,0-0.4,0-0.5c-0.1-1.9,1.4-3.4,3.3-3.5
			c0.1,0,0.3,0,0.4,0c0.6,0,1.2,0.1,1.7,0.3l-0.2,0.7c-0.5-0.2-1-0.3-1.5-0.3c-1.4-0.1-2.6,0.9-2.7,2.3c0,0.1,0,0.3,0,0.4
			c-0.1,1.4,0.8,2.6,2.2,2.7c0.1,0,0.3,0,0.4,0c0.4,0,0.8,0,1.2-0.2v-2h-1.4V187h2.2V190.2z"/>
		<path class="st0" d="M66.6,187.2c0-0.6,0-1.1,0-1.5h0.8v0.9l0,0c0.2-0.6,0.7-1,1.3-1.1h0.2v0.8h-0.3c-0.6,0-1.1,0.5-1.2,1.1
			c0,0.1,0,0.3,0,0.4v2.6h-0.9L66.6,187.2z"/>
		<path class="st0" d="M73.2,189.4c0,0.4,0,0.8,0.1,1.2h-0.8l-0.1-0.6l0,0c-0.3,0.5-0.9,0.7-1.5,0.7c-0.8,0.1-1.4-0.5-1.5-1.3
			c0,0,0-0.1,0-0.1c0-1.2,1-1.8,2.9-1.8v-0.1c0.1-0.5-0.3-1-0.9-1.1c-0.1,0-0.2,0-0.2,0c-0.4,0-0.9,0.1-1.3,0.4l-0.2-0.6
			c0.5-0.3,1-0.4,1.6-0.4c1.5,0,1.8,1,1.8,2L73.2,189.4z M72.4,188.1c-1,0-2,0.1-2,1.1c0,0.4,0.3,0.8,0.7,0.8c0,0,0.1,0,0.1,0
			c0.5,0,1-0.3,1.2-0.8c0-0.1,0-0.2,0-0.3L72.4,188.1z M72.8,183.6l-1.2,1.4H71l0.9-1.4H72.8z"/>
		<path class="st0" d="M74.7,190.5v-4.2H74v-0.7h0.7v-0.3c-0.1-1.1,0.7-2,1.8-2.1c0.1,0,0.2,0,0.4,0c0.4,0,0.9,0.1,1.2,0.3l-0.2,0.7
			c-0.3-0.2-0.6-0.3-1-0.3c-0.9,0-1.2,0.6-1.2,1.4v0.2h2.8v4.8h-0.9v-4.2h-1.9v4.2H74.7z"/>
		<path class="st0" d="M83.3,190.4c-0.4,0.2-0.9,0.3-1.4,0.3c-1.3,0.1-2.3-0.9-2.4-2.2c0-0.1,0-0.2,0-0.3c-0.1-1.4,1-2.5,2.4-2.6
			c0.1,0,0.2,0,0.2,0c0.4,0,0.8,0.1,1.2,0.3l-0.2,0.7c-0.3-0.2-0.7-0.2-1-0.2c-0.9,0-1.7,0.7-1.7,1.6c0,0.1,0,0.1,0,0.2
			c-0.1,0.9,0.6,1.7,1.5,1.8c0.1,0,0.1,0,0.2,0c0.4,0,0.7-0.1,1.1-0.2L83.3,190.4z"/>
		<path class="st0" d="M87.8,189.4c0,0.4,0,0.8,0.1,1.2H87l-0.1-0.6l0,0c-0.3,0.5-0.9,0.7-1.5,0.7c-0.8,0-1.4-0.6-1.4-1.3
			c0,0,0,0,0-0.1c0-1.2,1-1.8,2.9-1.8v-0.1c0.1-0.5-0.3-1-0.9-1.1c-0.1,0-0.2,0-0.2,0c-0.4,0-0.9,0.1-1.3,0.4l-0.2-0.6
			c0.5-0.3,1-0.4,1.6-0.4c1.5,0,1.8,1,1.8,2L87.8,189.4z M86.9,188.1c-1,0-2,0.1-2,1.1c0,0.4,0.3,0.8,0.7,0.8c0,0,0.1,0,0.1,0
			c0.5,0,1-0.3,1.2-0.8c0-0.1,0-0.2,0-0.3L86.9,188.1z"/>
		<path class="st0" d="M95.5,183.4v5.9c0,0.4,0,0.9,0,1.3h-0.8v-0.8l0,0c-0.3,0.6-0.9,1-1.6,0.9c-1.2-0.1-2.2-1.1-2.1-2.3
			c0,0,0-0.1,0-0.1c-0.2-1.3,0.7-2.4,2-2.6c0.1,0,0.1,0,0.2,0c0.6,0,1.1,0.2,1.4,0.7l0,0v-2.9L95.5,183.4z M94.6,187.7
			c0-0.1,0-0.3,0-0.4c-0.1-0.6-0.7-1-1.3-1c-0.9,0-1.4,0.8-1.4,1.9s0.5,1.8,1.4,1.8c0.6,0,1.2-0.4,1.3-1.1c0-0.1,0-0.2,0-0.4
			L94.6,187.7z"/>
		<path class="st0" d="M97.4,188.3c-0.1,0.8,0.5,1.6,1.4,1.7c0.1,0,0.2,0,0.3,0c0.5,0,0.9-0.1,1.3-0.3l0.2,0.6
			c-0.5,0.2-1.1,0.3-1.6,0.3c-1.2,0.1-2.3-0.9-2.4-2.1c0-0.1,0-0.2,0-0.3c-0.1-1.3,0.8-2.5,2.1-2.6c0.1,0,0.1,0,0.2,0
			c1.1,0,2,0.9,2,2c0,0.1,0,0.2,0,0.3c0,0.1,0,0.3,0,0.4L97.4,188.3z M100,187.7c0.1-0.7-0.4-1.3-1-1.4c-0.1,0-0.1,0-0.2,0
			c-0.8,0.1-1.3,0.7-1.3,1.4H100z"/>
		<path class="st0" d="M108.1,189.2c0,0.5,0,0.9,0,1.3h-0.8l-0.1-0.8l0,0c-0.3,0.6-0.9,0.9-1.6,0.9c-0.8,0-1.7-0.4-1.7-2.1v-2.8h0.9
			v2.7c0,0.9,0.3,1.6,1.1,1.6c0.5,0,1-0.3,1.2-0.8c0.1-0.1,0.1-0.3,0.1-0.4v-3h0.9L108.1,189.2z"/>
		<path class="st0" d="M109.6,187c0-0.5,0-0.9,0-1.3h0.8l0.1,0.8l0,0c0.3-0.6,0.9-0.9,1.6-0.9c0.7,0,1.7,0.4,1.7,2.1v2.9h-0.9v-2.8
			c0-0.8-0.3-1.4-1.1-1.4c-0.5,0-1,0.4-1.2,0.9c0,0.1-0.1,0.3-0.1,0.4v2.9h-0.9L109.6,187z"/>
		<path class="st0" d="M118.5,189.4c0,0.4,0,0.8,0.1,1.2h-0.8l-0.1-0.6l0,0c-0.3,0.5-0.9,0.7-1.5,0.7c-0.8,0.1-1.4-0.5-1.5-1.3
			c0,0,0-0.1,0-0.1c0-1.2,1-1.8,2.9-1.8v-0.1c0.1-0.5-0.3-1-0.9-1.1c-0.1,0-0.1,0-0.2,0c-0.4,0-0.9,0.1-1.3,0.4l-0.2-0.6
			c0.5-0.3,1-0.4,1.6-0.4c1.5,0,1.8,1,1.8,2L118.5,189.4z M117.7,188.1c-1,0-2,0.1-2,1.1c0,0.4,0.3,0.8,0.7,0.8c0,0,0.1,0,0.1,0
			c0.5,0,1-0.3,1.2-0.8c0-0.1,0-0.2,0-0.3L117.7,188.1z"/>
		<path class="st0" d="M122.1,190.5v-4.2h-0.7v-0.7h0.7v-0.2c0-0.6,0.2-1.2,0.6-1.7c0.3-0.3,0.7-0.5,1.2-0.4c0.3,0,0.5,0,0.8,0.1
			l-0.1,0.7c-0.2-0.1-0.4-0.1-0.6-0.1c-0.7,0-0.9,0.7-0.9,1.4v0.3h1.2v0.7H123v4.2L122.1,190.5z"/>
		<path class="st0" d="M129,189.2c0,0.5,0,0.9,0,1.3h-0.8l-0.1-0.8l0,0c-0.3,0.6-0.9,0.9-1.6,0.9c-0.8,0-1.7-0.4-1.7-2.1v-2.8h0.9
			v2.7c0,0.9,0.3,1.6,1.1,1.6c0.5,0,1-0.3,1.2-0.8c0.1-0.1,0.1-0.3,0.1-0.4v-3h0.9V189.2z"/>
		<path class="st0" d="M130.5,187c0-0.5,0-0.9,0-1.3h0.8l0.1,0.8l0,0c0.3-0.6,0.9-0.9,1.6-0.9c0.7,0,1.7,0.4,1.7,2.1v2.9h-0.9v-2.8
			c0-0.8-0.3-1.4-1.1-1.4c-0.5,0-1,0.4-1.2,0.9c0,0.1-0.1,0.3-0.1,0.4v2.9h-0.9L130.5,187z"/>
		<path class="st0" d="M139.5,190.4c-0.4,0.2-0.9,0.3-1.4,0.3c-1.3,0.1-2.3-0.9-2.4-2.2c0-0.1,0-0.2,0-0.3c-0.1-1.4,1-2.5,2.4-2.6
			c0.1,0,0.2,0,0.2,0c0.4,0,0.8,0.1,1.2,0.3l-0.2,0.7c-0.3-0.2-0.7-0.2-1-0.2c-0.9,0-1.7,0.7-1.7,1.6c0,0.1,0,0.1,0,0.2
			c-0.1,0.9,0.6,1.7,1.5,1.8c0.1,0,0.1,0,0.2,0c0.4,0,0.7-0.1,1.1-0.2L139.5,190.4z"/>
		<path class="st0" d="M140.9,184.9c-0.3,0-0.5-0.2-0.5-0.5c0,0,0,0,0,0c0-0.3,0.2-0.6,0.5-0.6s0.6,0.2,0.6,0.5
			S141.3,184.9,140.9,184.9C141,184.9,140.9,184.9,140.9,184.9L140.9,184.9z M140.5,190.5v-4.8h0.9v4.8H140.5z"/>
		<path class="st0" d="M144.8,190.7c-1.3,0-2.3-1-2.3-2.3c0-0.1,0-0.1,0-0.2c-0.1-1.3,0.9-2.5,2.2-2.6c0.1,0,0.2,0,0.2,0
			c1.3,0,2.3,1,2.3,2.2c0,0.1,0,0.2,0,0.3c0.1,1.3-0.8,2.5-2.2,2.6C145,190.7,144.9,190.7,144.8,190.7L144.8,190.7z M144.9,190
			c0.8,0,1.5-0.8,1.5-1.9c0-0.8-0.4-1.9-1.4-1.9s-1.5,1-1.5,1.9S144,190,144.9,190L144.9,190z M146.2,183.6L145,185h-0.6l0.9-1.4
			L146.2,183.6z"/>
		<path class="st0" d="M148.3,187c0-0.5,0-0.9,0-1.3h0.8v0.8l0,0c0.3-0.6,0.9-0.9,1.6-0.9c0.7,0,1.7,0.4,1.7,2.1v2.9h-0.9v-2.8
			c0-0.8-0.3-1.4-1.1-1.4c-0.5,0-1,0.4-1.2,0.9c0,0.1-0.1,0.3-0.1,0.4v2.9h-0.9L148.3,187z"/>
		<path class="st0" d="M159.4,190.4c-0.4,0.2-0.9,0.3-1.4,0.3c-1.3,0.1-2.3-0.9-2.4-2.2c0-0.1,0-0.2,0-0.3c-0.1-1.4,1-2.5,2.3-2.6
			c0.1,0,0.2,0,0.3,0c0.4,0,0.8,0.1,1.2,0.3l-0.2,0.7c-0.3-0.2-0.7-0.2-1-0.2c-1,0-1.8,0.8-1.8,1.8c0,1,0.8,1.8,1.8,1.8
			c0.4,0,0.7-0.1,1.1-0.2L159.4,190.4z"/>
		<path class="st0" d="M162.4,190.7c-1.3,0-2.3-1-2.3-2.3c0-0.1,0-0.1,0-0.2c-0.1-1.3,0.9-2.5,2.2-2.6c0.1,0,0.2,0,0.2,0
			c1.3,0,2.3,1,2.3,2.2c0,0.1,0,0.2,0,0.3c0.1,1.3-0.8,2.5-2.2,2.6C162.6,190.7,162.5,190.7,162.4,190.7L162.4,190.7z M162.4,190
			c0.8,0,1.5-0.8,1.5-1.9c0-0.8-0.4-1.9-1.4-1.9s-1.5,1-1.5,1.9S161.6,190,162.4,190L162.4,190z"/>
		<path class="st0" d="M165.9,187c0-0.5,0-0.9,0-1.3h0.8l0.1,0.8l0,0c0.3-0.6,0.9-0.9,1.6-0.9c0.7,0,1.7,0.4,1.7,2.1v2.9h-0.9v-2.8
			c0-0.8-0.3-1.4-1.1-1.4c-0.5,0-1,0.4-1.2,0.9c0,0.1-0.1,0.3-0.1,0.4v2.9H166L165.9,187z"/>
		<path class="st0" d="M171.4,189.6c0.4,0.2,0.8,0.3,1.2,0.3c0.6,0,0.9-0.3,0.9-0.7s-0.3-0.6-0.9-0.9c-0.9-0.3-1.3-0.8-1.3-1.4
			c0-0.8,0.7-1.5,1.5-1.4c0,0,0.1,0,0.1,0c0.4,0,0.8,0.1,1.2,0.3l-0.2,0.6c-0.3-0.2-0.6-0.3-1-0.3c-0.5,0-0.8,0.3-0.8,0.7
			s0.3,0.6,0.9,0.8c0.8,0.3,1.3,0.7,1.3,1.4s-0.7,1.5-1.8,1.5c-0.5,0-0.9-0.1-1.4-0.3L171.4,189.6z"/>
		<path class="st0" d="M176.5,184.5v1.2h1.3v0.7h-1.3v2.6c0,0.6,0.2,0.9,0.7,0.9c0.2,0,0.3,0,0.5-0.1v0.7c-0.3,0.1-0.5,0.1-0.8,0.1
			c-0.4,0-0.7-0.1-0.9-0.4c-0.3-0.4-0.4-0.8-0.3-1.3v-2.6h-0.7v-0.7h0.7v-0.9L176.5,184.5z"/>
		<path class="st0" d="M182.1,189.4c0,0.4,0,0.8,0.1,1.2h-0.8l-0.1-0.6l0,0c-0.3,0.5-0.9,0.7-1.5,0.7c-0.8,0.1-1.4-0.5-1.5-1.3
			c0,0,0-0.1,0-0.1c0-1.2,1-1.8,2.9-1.8v-0.1c0.1-0.5-0.3-1-0.9-1.1c-0.1,0-0.1,0-0.2,0c-0.4,0-0.9,0.1-1.3,0.4l-0.2-0.6
			c0.5-0.3,1-0.4,1.6-0.4c1.5,0,1.9,1,1.9,2L182.1,189.4z M181.3,188.1c-1,0-2,0.1-2,1.1c0,0.4,0.3,0.8,0.7,0.8c0,0,0.1,0,0.1,0
			c0.5,0,1-0.3,1.2-0.8c0-0.1,0-0.2,0-0.3V188.1z"/>
		<path class="st0" d="M183.6,187c0-0.5,0-0.9,0-1.3h0.8l0.1,0.8l0,0c0.3-0.6,0.9-0.9,1.6-0.9c0.7,0,1.7,0.4,1.7,2.1v2.9h-0.9v-2.8
			c0-0.8-0.3-1.4-1.1-1.4c-0.5,0-1,0.4-1.2,0.9c0,0.1-0.1,0.3-0.1,0.4v2.9h-0.9L183.6,187z"/>
		<path class="st0" d="M190.1,184.5v1.2h1.3v0.7h-1.3v2.6c0,0.6,0.2,0.9,0.7,0.9c0.2,0,0.3,0,0.5-0.1v0.7c-0.3,0.1-0.5,0.1-0.8,0.1
			c-0.4,0-0.7-0.1-0.9-0.4c-0.3-0.4-0.4-0.8-0.3-1.3v-2.6h-0.8v-0.7h0.8v-0.9L190.1,184.5z"/>
		<path class="st0" d="M192.8,188.3c-0.1,0.8,0.6,1.6,1.4,1.7c0.1,0,0.2,0,0.2,0c0.5,0,0.9-0.1,1.3-0.3l0.2,0.6
			c-0.5,0.2-1.1,0.3-1.6,0.3c-1.2,0.1-2.3-0.9-2.4-2.1c0-0.1,0-0.2,0-0.3c-0.1-1.3,0.8-2.5,2.1-2.6c0.1,0,0.1,0,0.2,0
			c1.1,0,2,0.9,2,2c0,0.1,0,0.2,0,0.3c0,0.1,0,0.3,0,0.4H192.8z M195.4,187.7c0.1-0.7-0.4-1.3-1.1-1.4c0,0-0.1,0-0.1,0
			c-0.8,0.1-1.3,0.7-1.4,1.4H195.4z"/>
		<path d="M50.8,0C51,0.2,51,0.4,51.1,0.6c0.1,0.4,0.1,0.7,0.1,1.1l0.2,2.6C51.7,4,52,3.6,52.4,3.1c0.2-0.3,0.4-0.6,0.7-1.1
			c0.1-0.2,0.2-0.4,0.3-0.6c0-0.1,0-0.1,0-0.2c0,0,0-0.1,0-0.1C53.4,1,53.3,1,53.3,1c-0.1,0-0.2-0.1-0.3-0.2
			c-0.1-0.1-0.1-0.2-0.1-0.3c0-0.1,0-0.3,0.1-0.4C53.1,0,53.2,0,53.3,0c0.2,0,0.3,0.1,0.4,0.2c0.1,0.2,0.2,0.3,0.2,0.5
			c0,0.4-0.1,0.7-0.3,1c-0.3,0.6-0.7,1.1-1.1,1.6c-0.5,0.8-1.2,1.6-2,2.5c-0.4,0.4-0.8,0.8-1.2,1.2c-0.2,0.1-0.4,0.2-0.7,0.2
			c-0.1,0-0.2,0-0.3-0.1c-0.1-0.1-0.1-0.2-0.1-0.3c0-0.1,0.1-0.3,0.2-0.4c0.1-0.1,0.2-0.2,0.4-0.2c0.1,0,0.1,0,0.2,0
			c0,0,0.1,0.1,0.1,0.2c0,0.1,0,0.1,0.1,0.2c0,0,0,0,0.1,0h0.1C49.6,6.4,49.8,6.2,50,6c0.3-0.3,0.5-0.6,0.8-0.9l-0.3-3.4
			c0-0.3-0.1-0.7-0.2-1c-0.1-0.1-0.3-0.2-0.5-0.2c-0.1,0-0.3,0-0.4,0V0.3L50.8,0z"/>
		<path d="M184.5,137.4c0.2,0.2,0.3,0.4,0.4,0.6c0.1,0.3,0.2,0.7,0.3,1l0.5-0.7c0.1-0.2,0.3-0.3,0.5-0.5c0.1-0.1,0.3-0.2,0.5-0.3
			c0.1,0,0.2-0.1,0.3-0.1c0.1,0,0.3,0,0.4,0.1c0.1,0.1,0.1,0.2,0.1,0.3c0,0.1,0,0.2-0.1,0.3c-0.1,0.1-0.2,0.1-0.3,0.1
			c-0.1,0-0.2,0-0.2-0.1c-0.1,0-0.2-0.1-0.3-0.1c-0.1,0-0.2,0.1-0.3,0.1c-0.3,0.3-0.6,0.7-0.8,1.1l0.4,1.8c0,0.2,0.1,0.4,0.2,0.5
			c0,0,0.1,0.1,0.1,0.1c0.1,0,0.2-0.1,0.3-0.1c0.2-0.2,0.4-0.4,0.5-0.6l0.2,0.1c-0.2,0.4-0.5,0.8-0.9,1.1c-0.1,0.1-0.3,0.2-0.5,0.2
			c-0.2,0-0.4-0.1-0.5-0.3c-0.2-0.6-0.4-1.2-0.5-1.8c-0.3,0.7-0.8,1.3-1.3,1.9c-0.2,0.2-0.4,0.3-0.6,0.3c-0.1,0-0.3-0.1-0.4-0.1
			c-0.1-0.1-0.1-0.2-0.1-0.3c0-0.1,0-0.2,0.1-0.3c0.1-0.1,0.2-0.1,0.3-0.1c0.1,0,0.3,0.1,0.4,0.2c0.1,0.1,0.1,0.1,0.2,0.1
			c0.1,0,0.1,0,0.2-0.1c0.3-0.3,0.5-0.6,0.7-0.9c0.2-0.3,0.4-0.7,0.6-1c-0.2-0.9-0.4-1.3-0.4-1.4c-0.1-0.4-0.5-0.7-0.9-0.6H183v-0.2
			L184.5,137.4z"/>
		<line class="st1" x1="51.5" y1="12.6" x2="51.5" y2="161.4"/>
		<rect x="50.8" y="14.2" class="st2" width="1.5" height="147.2"/>
		<polygon class="st2" points="45.4,19.2 46.5,20.2 51.5,14.8 56.5,20.2 57.7,19.2 51.5,12.6 		"/>
		<rect x="30.3" y="139.4" class="st2" width="147.2" height="1.5"/>
		<polygon class="st2" points="172.5,146.2 171.4,145.2 176.9,140.1 171.4,135.1 172.5,134 179.1,140.1 		"/>
		<rect x="44.4" y="125.6" class="st2" width="14.2" height="0.8"/>
		<rect x="44.4" y="153.9" class="st2" width="14.2" height="0.8"/>
		<rect x="65.3" y="133" class="st2" width="0.8" height="14.2"/>
		<rect x="44.4" y="111.4" class="st2" width="14.2" height="0.8"/>
		<rect x="44.4" y="97.2" class="st2" width="14.2" height="0.8"/>
		<rect x="44.4" y="83" class="st2" width="14.2" height="0.8"/>
		<rect x="44.4" y="68.9" class="st2" width="14.2" height="0.8"/>
		<rect x="44.4" y="54.7" class="st2" width="14.2" height="0.8"/>
		<rect x="44.4" y="40.5" class="st2" width="14.2" height="0.8"/>
		<rect x="44.4" y="54.7" class="st2" width="14.2" height="0.8"/>
		<rect x="44.4" y="54.7" class="st2" width="14.2" height="0.8"/>
		<rect x="107.8" y="133" class="st2" width="0.8" height="14.2"/>
		<rect x="93.7" y="133" class="st2" width="0.8" height="14.2"/>
		<rect x="122" y="133" class="st2" width="0.8" height="14.2"/>
		<rect x="136.2" y="133" class="st2" width="0.8" height="14.2"/>
		<rect x="79.5" y="133" class="st2" width="0.8" height="14.2"/>
		<rect x="150.4" y="133" class="st2" width="0.8" height="14.2"/>
		<rect x="164.5" y="133" class="st2" width="0.8" height="14.2"/>
		<path class="st3" d="M0.5,71.6v-3.3H0v-0.5h0.5v-0.2c0-0.5,0.1-1,0.5-1.3c0.3-0.2,0.6-0.4,0.9-0.4c0.2,0,0.4,0,0.6,0.1l-0.1,0.5
			c-0.1-0.1-0.3-0.1-0.5-0.1c-0.6,0-0.8,0.5-0.8,1.1v0.2h0.9v0.5h-1v3.3H0.5z"/>
		<path class="st3" d="M6,66c-0.7,1-1,2.1-1,3.3c0,1.2,0.3,2.3,1,3.2H5.5c-0.7-0.9-1.1-2.1-1-3.3c0-1.2,0.3-2.3,1.1-3.3H6z"/>
		<path class="st3" d="M9.8,71.6l-0.7-1.2c-0.3-0.5-0.4-0.8-0.6-1.1l0,0c-0.1,0.3-0.3,0.6-0.6,1.1l-0.7,1.2H6.5l1.7-2.7l-1.6-2.7
			h0.8l0.7,1.3c0.2,0.3,0.4,0.6,0.5,0.9l0,0c0.1-0.3,0.3-0.6,0.5-0.9l0.7-1.3h0.8L9,68.8l1.7,2.8H9.8z"/>
		<path class="st3" d="M11.7,72.8v-2.6l0,0l-0.6,0.3L11,70l0.8-0.3h0.5v3.1L11.7,72.8z"/>
		<path class="st3" d="M13,72.6c1.3-2,1.3-4.6,0-6.5h0.5c0.7,0.9,1.1,2.1,1.1,3.3c0,1.2-0.3,2.3-1.1,3.3L13,72.6z"/>
		<path class="st3" d="M17.1,68.9v-0.5h4.1v0.5H17.1z M17.1,70.5V70h4.1v0.5L17.1,70.5z"/>
		<path class="st3" d="M23.9,71.6v-3.3h-0.5v-0.5h0.5v-0.2c0-0.5,0.1-1,0.5-1.3c0.3-0.2,0.6-0.4,0.9-0.4c0.2,0,0.4,0,0.6,0.1
			l-0.1,0.5c-0.1-0.1-0.3-0.1-0.5-0.1c-0.6,0-0.8,0.5-0.8,1.1v0.2h0.9v0.5h-0.9v3.3H23.9z"/>
		<path class="st3" d="M29.4,66c-0.7,1-1,2.1-1,3.3c0,1.2,0.3,2.3,1,3.2h-0.5c-0.7-0.9-1.1-2.1-1-3.3c0-1.2,0.3-2.3,1-3.3H29.4z"/>
		<path class="st3" d="M33.2,71.6l-0.7-1.2c-0.3-0.5-0.5-0.8-0.6-1.1l0,0c-0.1,0.3-0.3,0.6-0.6,1.1l-0.6,1.2h-0.8l1.6-2.7l-1.6-2.7
			h0.8l0.7,1.3c0.2,0.3,0.4,0.6,0.5,0.9l0,0c0.1-0.3,0.3-0.6,0.5-0.9l0.7-1.3H34l-1.6,2.6l1.6,2.8H33.2z"/>
		<path class="st3" d="M34.3,72.5l0.5-0.5c0.7-0.6,1-1,1-1.4c0-0.3-0.2-0.5-0.5-0.6c0,0-0.1,0-0.1,0c-0.2,0-0.5,0.1-0.7,0.2L34.3,70
			c0.3-0.2,0.6-0.3,1-0.3c0.5-0.1,1,0.3,1.1,0.8c0,0,0,0.1,0,0.1c0,0.6-0.5,1-1.1,1.6l-0.2,0.2l0,0h1.4v0.4h-2.2V72.5z"/>
		<path class="st3" d="M36.8,72.6c1.3-2,1.3-4.6,0-6.5h0.5c0.7,0.9,1,2.1,1,3.3c0,1.2-0.3,2.3-1,3.3L36.8,72.6z"/>
		<path class="st3" d="M81.2,154.3l-0.8-1.3c-0.3-0.5-0.5-0.9-0.7-1.2l0,0c-0.2,0.4-0.3,0.7-0.7,1.2l-0.7,1.3h-0.9l1.8-3.1l-1.8-3
			h0.9l0.8,1.4c0.2,0.4,0.4,0.7,0.6,1l0,0c0.2-0.4,0.3-0.6,0.6-1l0.8-1.4h0.9l-1.8,3l1.9,3.1L81.2,154.3z"/>
		<path class="st3" d="M83.3,155.6v-3l0,0l-0.7,0.3l-0.1-0.5l0.8-0.4h0.6v3.5L83.3,155.6z"/>
		<path class="st3" d="M151.9,154.3l-0.8-1.3c-0.3-0.5-0.5-0.9-0.7-1.2l0,0c-0.2,0.4-0.4,0.7-0.7,1.2l-0.7,1.3h-0.9l1.9-3.1l-1.8-3
			h0.9l0.8,1.4c0.2,0.4,0.4,0.7,0.6,1l0,0c0.2-0.4,0.3-0.6,0.6-1l0.8-1.4h0.9l-1.9,3l1.9,3.1L151.9,154.3z"/>
		<path class="st3" d="M153.1,155.3l0.6-0.5c0.8-0.7,1.1-1.1,1.1-1.6c0-0.3-0.3-0.6-0.6-0.6c0,0-0.1,0-0.1,0c-0.3,0-0.5,0.1-0.8,0.3
			l-0.2-0.4c0.3-0.2,0.7-0.4,1.1-0.4c0.5-0.1,1.1,0.3,1.2,0.8c0,0.1,0,0.1,0,0.2c0,0.7-0.5,1.2-1.2,1.8l-0.3,0.3l0,0h1.5v0.5h-2.4
			L153.1,155.3z"/>
		<path d="M44.1,150.4c-1.2,0-1.9-1.1-2-3s0.9-3,2-3s1.9,1.1,1.9,3S45.4,150.5,44.1,150.4L44.1,150.4z M44.1,149.8
			c0.8,0,1.2-0.9,1.2-2.4S45,145,44.2,145s-1.2,0.9-1.2,2.4S43.5,149.8,44.1,149.8L44.1,149.8z"/>
		<rect x="37" y="133" class="st2" width="0.8" height="14.2"/>
		<rect x="80.7" y="68.7" width="70" height="1"/>
		<path class="st4" d="M78.3,69.7h-2v-1h2V69.7z M74.3,69.7h-2v-1h2V69.7z M70.3,69.7h-2v-1h2V69.7z M66.3,69.7h-2v-1h2V69.7z
			 M62.3,69.7h-2v-1h2V69.7z M58.3,69.7h-2v-1h2V69.7z M54.3,69.7h-2v-1h2V69.7z"/>
		<path class="st4" d="M80.4,139.2h-1v-2h1V139.2z M80.4,135.2h-1v-2h1V135.2z M80.4,131.2h-1v-2h1V131.2z M80.4,127.2h-1v-2h1
			V127.2z M80.4,123.2h-1v-2h1V123.2z M80.4,119.2h-1v-2h1V119.2z M80.4,115.2h-1v-2h1V115.2z M80.4,111.2h-1v-2h1V111.2z
			 M80.4,107.2h-1v-2h1V107.2z M80.4,103.2h-1v-2h1V103.2z M80.4,99.2h-1v-2h1V99.2z M80.4,95.2h-1v-2h1V95.2z M80.4,91.2h-1v-2h1
			V91.2z M80.4,87.2h-1v-2h1V87.2z M80.4,83.2h-1v-2h1V83.2z M80.4,79.2h-1v-2h1V79.2z M80.4,75.2h-1v-2h1V75.2z M80.4,71.2h-1v-2h1
			V71.2z"/>
		<path class="st5" d="M102.2,158.4c0,0.3,0,0.7,0.1,1h-0.7l-0.1-0.6l0,0c-0.3,0.4-0.8,0.7-1.3,0.6c-0.7,0.1-1.3-0.5-1.3-1.1
			c0,0,0-0.1,0-0.1c0-1,0.9-1.6,2.6-1.6v-0.1c0.1-0.5-0.3-0.9-0.8-1c-0.1,0-0.1,0-0.2,0c-0.4,0-0.8,0.1-1.1,0.3l-0.2-0.5
			c0.4-0.2,0.9-0.4,1.4-0.4c1.3,0,1.7,0.9,1.7,1.8L102.2,158.4z M101.5,157.2c-0.9,0-1.8,0.1-1.8,1c0,0.4,0.3,0.7,0.6,0.8
			c0,0,0.1,0,0.1,0c0.5,0,0.9-0.3,1.1-0.7c0-0.1,0-0.2,0-0.3L101.5,157.2z"/>
		<path class="st5" d="M107.1,158.2c0,0.5,0,0.9,0,1.2h-0.7v-0.7l0,0c-0.3,0.5-0.8,0.8-1.4,0.8c-0.7,0-1.5-0.4-1.5-1.9V155h0.8v2.4
			c0,0.8,0.3,1.4,1,1.4c0.6,0,1.1-0.5,1.1-1.1c0,0,0,0,0,0V155h0.8L107.1,158.2z"/>
		<path class="st5" d="M108.4,156.2c0-0.5,0-0.8,0-1.2h0.7v0.7l0,0c0.3-0.5,0.8-0.8,1.4-0.8c0.6,0,1,0.3,1.2,0.9l0,0
			c0.1-0.2,0.3-0.4,0.5-0.6c0.3-0.2,0.6-0.3,0.9-0.3c0.6,0,1.4,0.4,1.4,1.9v2.6h-0.8v-2.5c0-0.8-0.3-1.3-1-1.3
			c-0.4,0-0.8,0.3-0.9,0.7c0,0.1-0.1,0.3-0.1,0.4v2.7h-0.8v-2.6c0-0.7-0.3-1.2-0.9-1.2c-0.5,0-0.9,0.3-1,0.8c0,0.1-0.1,0.3-0.1,0.4
			v2.6h-0.8L108.4,156.2z"/>
		<path class="st5" d="M116.4,157.4c-0.1,0.8,0.5,1.4,1.3,1.5c0.1,0,0.2,0,0.2,0c0.4,0,0.8-0.1,1.2-0.2l0.2,0.6
			c-0.5,0.2-1,0.3-1.5,0.3c-1.1,0.1-2.1-0.7-2.2-1.8c0-0.1,0-0.2,0-0.4c-0.1-1.2,0.8-2.2,1.9-2.3c0,0,0.1,0,0.1,0
			c1,0,1.8,0.9,1.8,1.9c0,0,0,0.1,0,0.1c0,0.1,0,0.2,0,0.4L116.4,157.4z M118.7,156.8c0.1-0.6-0.3-1.2-1-1.3c0,0-0.1,0-0.1,0
			c-0.7,0-1.2,0.6-1.2,1.3H118.7z"/>
		<path class="st5" d="M120.5,156.2c0-0.5,0-0.8,0-1.2h0.7l0.1,0.7l0,0c0.3-0.5,0.8-0.8,1.4-0.8c0.6,0,1.5,0.4,1.5,1.9v2.6h-0.8
			v-2.5c0-0.7-0.3-1.3-1-1.3c-0.5,0-0.9,0.3-1.1,0.8c0,0.1,0,0.2,0,0.4v2.6h-0.8L120.5,156.2z"/>
		<path class="st5" d="M126.4,154v1h1.1v0.6h-1.1v2.4c0,0.5,0.2,0.8,0.6,0.8c0.2,0,0.3,0,0.4-0.1v0.6c-0.2,0.1-0.5,0.1-0.7,0.1
			c-0.3,0-0.6-0.1-0.9-0.3c-0.2-0.3-0.3-0.7-0.3-1.1v-2.4h-0.7V155h0.7v-0.8L126.4,154z"/>
		<path class="st5" d="M131.5,158.4c0,0.3,0,0.7,0.1,1h-0.7l-0.1-0.6l0,0c-0.3,0.4-0.8,0.7-1.3,0.6c-0.7,0.1-1.3-0.5-1.3-1.1
			c0,0,0-0.1,0-0.1c0-1,0.9-1.6,2.6-1.6v-0.1c0.1-0.5-0.3-0.9-0.8-1c-0.1,0-0.1,0-0.2,0c-0.4,0-0.8,0.1-1.1,0.3l-0.2-0.5
			c0.4-0.2,0.9-0.4,1.4-0.4c1.3,0,1.7,0.9,1.7,1.8L131.5,158.4z M130.7,157.2c-0.9,0-1.8,0.1-1.8,1c0,0.4,0.3,0.7,0.6,0.8
			c0,0,0.1,0,0.1,0c0.5,0,0.9-0.3,1.1-0.7c0-0.1,0-0.2,0-0.3L130.7,157.2z"/>
		<rect x="92.4" y="162.3" class="st5" width="45" height="0.8"/>
		<polygon class="st5" points="134.9,165.7 134.4,165.1 137.1,162.6 134.4,160.1 134.9,159.6 138.2,162.6 		"/>
		<path d="M4.6,79.9c-0.4,0.2-0.8,0.2-1.3,0.3c-1.1,0.1-2.1-0.8-2.2-2c0-0.1,0-0.2,0-0.3c-0.1-1.2,0.9-2.3,2.1-2.3
			c0.1,0,0.2,0,0.2,0c0.4,0,0.8,0.1,1.1,0.2l-0.2,0.6c-0.3-0.1-0.6-0.2-0.9-0.2c-0.8,0-1.5,0.7-1.5,1.5c0,0,0,0.1,0,0.1
			c-0.1,0.8,0.5,1.5,1.3,1.6c0.1,0,0.1,0,0.2,0c0.3,0,0.7-0.1,1-0.2L4.6,79.9z"/>
		<path d="M7.2,80.1c-1.1,0-2.1-0.9-2.1-2.1c0-0.1,0-0.1,0-0.2c-0.1-1.2,0.8-2.2,2-2.3c0.1,0,0.1,0,0.2,0c1.1,0,2.1,0.9,2.1,2
			c0,0.1,0,0.1,0,0.2C9.5,79,8.6,80,7.5,80.1C7.4,80.1,7.3,80.1,7.2,80.1L7.2,80.1z M7.2,79.5c0.8,0,1.3-0.7,1.3-1.7
			c0-0.7-0.4-1.7-1.3-1.7S6,77,6,77.9S6.5,79.5,7.2,79.5L7.2,79.5z"/>
		<path d="M10.4,76.8c0-0.5,0-0.8,0-1.2h0.7v0.7l0,0c0.3-0.5,0.8-0.8,1.4-0.8c0.6,0,1.5,0.4,1.5,1.9V80h-0.8v-2.5
			c0-0.7-0.3-1.3-1-1.3c-0.5,0-0.9,0.3-1.1,0.8c0,0.1-0.1,0.2-0.1,0.4V80h-0.8V76.8z"/>
		<path d="M15.3,79.2c0.3,0.2,0.7,0.3,1.1,0.3c0.6,0,0.8-0.3,0.8-0.6s-0.2-0.6-0.8-0.8c-0.8-0.3-1.2-0.7-1.2-1.2
			c0-0.7,0.7-1.3,1.4-1.3c0,0,0.1,0,0.1,0c0.4,0,0.7,0.1,1.1,0.3l-0.2,0.6c-0.3-0.2-0.6-0.2-0.9-0.3c-0.5,0-0.7,0.3-0.7,0.6
			s0.2,0.5,0.8,0.8c0.8,0.3,1.1,0.7,1.1,1.3s-0.6,1.3-1.6,1.3c-0.4,0-0.9-0.1-1.2-0.3L15.3,79.2z"/>
		<path d="M19.9,74.6v1H21v0.6h-1.1v2.3c0,0.5,0.1,0.8,0.6,0.8c0.2,0,0.3,0,0.5,0V80c-0.2,0.1-0.5,0.1-0.7,0.1
			c-0.3,0-0.6-0.1-0.9-0.3c-0.2-0.3-0.3-0.7-0.3-1.1v-2.4h-0.7v-0.6h0.7v-0.8L19.9,74.6z"/>
		<path d="M25,79c0,0.3,0,0.7,0.1,1h-0.7l-0.1-0.6l0,0c-0.3,0.4-0.8,0.7-1.3,0.7c-0.7,0-1.3-0.5-1.3-1.1c0,0,0-0.1,0-0.1
			c0-1.1,0.9-1.6,2.6-1.6v-0.1c0.1-0.5-0.3-0.9-0.8-1c-0.1,0-0.2,0-0.2,0c-0.4,0-0.8,0.1-1.1,0.3L21.9,76c0.4-0.3,0.9-0.4,1.4-0.4
			c1.4,0,1.7,0.9,1.7,1.8L25,79z M24.2,77.8c-0.9,0-1.9,0.1-1.9,1c0,0.4,0.2,0.7,0.6,0.7c0,0,0.1,0,0.1,0c0.5,0,0.9-0.3,1.1-0.7
			c0-0.1,0-0.2,0-0.3L24.2,77.8z"/>
		<path d="M26.3,76.8c0-0.5,0-0.8,0-1.2H27v0.7l0,0c0.3-0.5,0.8-0.8,1.4-0.8c0.6,0,1.5,0.4,1.5,1.9V80h-0.8v-2.5
			c0-0.7-0.3-1.3-1-1.3c-0.5,0-0.9,0.3-1.1,0.8c0,0.1-0.1,0.2,0,0.4V80h-0.8L26.3,76.8z"/>
		<path d="M32.2,74.6v1h1.1v0.6h-1.1v2.3c0,0.5,0.2,0.8,0.6,0.8c0.2,0,0.3,0,0.5,0V80c-0.2,0.1-0.5,0.1-0.7,0.1
			c-0.3,0-0.6-0.1-0.9-0.3c-0.2-0.3-0.3-0.7-0.3-1.1v-2.4h-0.7v-0.6h0.7v-0.8L32.2,74.6z"/>
		<path d="M34.6,78c-0.1,0.8,0.5,1.4,1.3,1.5c0.1,0,0.1,0,0.2,0c0.4,0,0.8-0.1,1.2-0.2l0.2,0.6c-0.5,0.2-1,0.3-1.5,0.3
			c-1.1,0.1-2.1-0.7-2.1-1.8c0-0.1,0-0.2,0-0.4c-0.1-1.2,0.7-2.2,1.9-2.3c0,0,0.1,0,0.1,0c1,0,1.8,0.9,1.8,1.9c0,0.1,0,0.1,0,0.2
			c0,0.1,0,0.2,0,0.4L34.6,78z M36.9,77.4c0-0.5-0.2-1.3-1.1-1.3c-0.7,0-1.2,0.6-1.2,1.3H36.9z"/>
		<path d="M82.6,65v-3.8H82v-0.6h0.6v-0.2c0-0.6,0.1-1.1,0.5-1.5c0.3-0.3,0.6-0.4,1-0.4c0.2,0,0.5,0,0.7,0.1l-0.1,0.6
			c-0.2-0.1-0.3-0.1-0.5-0.1c-0.7,0-0.8,0.6-0.8,1.3v0.2h1.1v0.6h-1V65H82.6z"/>
		<path d="M88.8,63.8c0,0.5,0,0.9,0,1.2h-0.7v-0.7l0,0c-0.3,0.5-0.8,0.8-1.4,0.8c-0.7,0-1.5-0.4-1.5-1.9v-2.5h0.8V63
			c0,0.8,0.3,1.4,1,1.4c0.4,0,0.8-0.3,1-0.7c0.1-0.1,0.1-0.3,0.1-0.4v-2.6h0.8L88.8,63.8z"/>
		<path d="M90.1,61.8c0-0.5,0-0.8,0-1.2h0.7v0.7l0,0c0.3-0.5,0.8-0.8,1.4-0.8c0.6,0,1.5,0.4,1.5,1.9V65H93v-2.5c0-0.7-0.3-1.3-1-1.3
			c-0.5,0-0.9,0.3-1.1,0.8c0,0.1-0.1,0.2-0.1,0.4V65h-0.8L90.1,61.8z"/>
		<path d="M98.2,64.8c-0.4,0.2-0.8,0.3-1.3,0.3c-1.1,0.1-2.1-0.8-2.2-2c0-0.1,0-0.2,0-0.3c-0.1-1.2,0.9-2.3,2.1-2.3
			c0.1,0,0.2,0,0.2,0c0.4,0,0.8,0.1,1.1,0.2L98,61.4c-0.3-0.1-0.6-0.2-0.9-0.2c-0.8,0-1.5,0.6-1.5,1.5c0,0.1,0,0.1,0,0.2
			c-0.1,0.8,0.5,1.5,1.3,1.6c0.1,0,0.1,0,0.2,0c0.3,0,0.7-0.1,1-0.2L98.2,64.8z"/>
		<path d="M99.5,59.9c-0.3,0-0.5-0.2-0.5-0.5c0,0,0,0,0,0c0-0.3,0.2-0.5,0.5-0.5s0.5,0.2,0.5,0.5C100,59.7,99.8,59.9,99.5,59.9
			C99.5,59.9,99.5,59.9,99.5,59.9L99.5,59.9z M99.1,65v-4.4h0.8V65H99.1z"/>
		<path d="M103,65.1c-1.1,0-2.1-0.9-2.1-2.1c0-0.1,0-0.1,0-0.2c-0.1-1.2,0.8-2.2,2-2.3c0.1,0,0.1,0,0.2,0c1.1,0,2.1,0.9,2.1,2
			c0,0.1,0,0.1,0,0.2c0.1,1.2-0.8,2.2-1.9,2.3C103.2,65.1,103.1,65.1,103,65.1z M103,64.5c0.8,0,1.3-0.7,1.3-1.7
			c0-0.7-0.4-1.7-1.3-1.7s-1.3,0.9-1.3,1.7S102.2,64.5,103,64.5L103,64.5z M104.2,58.8l-1.1,1.3h-0.6l0.8-1.3H104.2z"/>
		<path d="M106.2,61.8c0-0.5,0-0.8,0-1.2h0.7v0.7l0,0c0.3-0.5,0.8-0.8,1.4-0.8c0.6,0,1.5,0.4,1.5,1.9V65H109v-2.5
			c0-0.7-0.3-1.3-1-1.3c-0.5,0-0.9,0.3-1,0.8c0,0.1,0,0.2,0,0.4V65h-0.8L106.2,61.8z"/>
		<path d="M116.2,64.8c-0.4,0.2-0.8,0.3-1.3,0.3c-1.1,0.1-2.1-0.8-2.2-2c0-0.1,0-0.2,0-0.3c-0.1-1.2,0.9-2.3,2.1-2.3
			c0.1,0,0.2,0,0.2,0c0.4,0,0.8,0.1,1.1,0.2l-0.2,0.6c-0.3-0.1-0.6-0.2-0.9-0.2c-0.8,0-1.5,0.6-1.5,1.5c0,0.1,0,0.1,0,0.2
			c-0.1,0.8,0.5,1.5,1.3,1.6c0.1,0,0.1,0,0.2,0c0.3,0,0.7-0.1,1-0.2L116.2,64.8z"/>
		<path d="M118.8,65.1c-1.1,0-2.1-0.9-2.1-2.1c0-0.1,0-0.1,0-0.2c-0.1-1.2,0.8-2.2,2-2.3c0.1,0,0.1,0,0.2,0c1.1,0,2.1,0.9,2.1,2
			c0,0.1,0,0.1,0,0.2c0.1,1.2-0.8,2.2-1.9,2.3C119,65.1,118.9,65.1,118.8,65.1L118.8,65.1z M118.8,64.5c0.8,0,1.3-0.7,1.3-1.7
			c0-0.7-0.4-1.7-1.3-1.7s-1.3,0.9-1.3,1.7S118,64.5,118.8,64.5L118.8,64.5z"/>
		<path d="M122,61.8c0-0.5,0-0.8,0-1.2h0.7v0.7l0,0c0.3-0.5,0.8-0.8,1.4-0.8c0.6,0,1.5,0.4,1.5,1.9V65h-0.8v-2.5
			c0-0.7-0.3-1.3-1-1.3c-0.5,0-0.9,0.3-1.1,0.8c0,0.1,0,0.2,0,0.4V65H122V61.8z"/>
		<path d="M126.9,64.2c0.3,0.2,0.7,0.3,1.1,0.3c0.6,0,0.8-0.3,0.8-0.6s-0.2-0.6-0.8-0.8c-0.8-0.3-1.2-0.7-1.2-1.2
			c0-0.7,0.7-1.3,1.4-1.3c0,0,0.1,0,0.1,0c0.4,0,0.7,0.1,1.1,0.3l-0.2,0.6c-0.3-0.2-0.6-0.2-0.9-0.3c-0.5,0-0.7,0.3-0.7,0.6
			s0.3,0.5,0.8,0.8c0.8,0.3,1.1,0.7,1.1,1.3c0,0.6-0.6,1.3-1.6,1.3c-0.4,0-0.9-0.1-1.2-0.3L126.9,64.2z"/>
		<path d="M131.5,59.6v1h1.1v0.6h-1.1v2.3c0,0.5,0.1,0.9,0.6,0.9c0.2,0,0.3,0,0.5-0.1v0.6c-0.2,0.1-0.5,0.1-0.7,0.1
			c-0.3,0-0.6-0.1-0.9-0.3c-0.2-0.3-0.3-0.7-0.3-1.2v-2.3H130v-0.6h0.7v-0.8L131.5,59.6z"/>
		<path d="M136.6,64c0,0.3,0,0.7,0.1,1h-0.7l-0.1-0.6l0,0c-0.3,0.4-0.8,0.7-1.3,0.7c-0.7,0-1.3-0.5-1.3-1.1c0,0,0-0.1,0-0.1
			c0-1.1,0.9-1.6,2.6-1.6v-0.1c0.1-0.5-0.3-0.9-0.8-1c-0.1,0-0.1,0-0.2,0c-0.4,0-0.8,0.1-1.1,0.3l-0.2-0.5c0.4-0.3,0.9-0.4,1.4-0.4
			c1.3,0,1.7,0.9,1.7,1.8L136.6,64z M135.8,62.8c-0.9,0-1.9,0.1-1.9,1c0,0.4,0.2,0.7,0.6,0.7c0,0,0.1,0,0.1,0c0.5,0,0.9-0.3,1.1-0.7
			c0-0.1,0-0.2,0-0.3L135.8,62.8z"/>
		<path d="M137.9,61.8c0-0.5,0-0.8,0-1.2h0.7v0.7l0,0c0.3-0.5,0.8-0.8,1.4-0.8c0.6,0,1.5,0.4,1.5,1.9V65h-0.8v-2.5
			c0-0.7-0.3-1.3-1-1.3c-0.5,0-0.9,0.3-1.1,0.8c0,0.1-0.1,0.2-0.1,0.4V65h-0.8L137.9,61.8z"/>
		<path d="M143.8,59.6v1h1.1v0.6h-1.1v2.3c0,0.5,0.2,0.9,0.6,0.9c0.2,0,0.3,0,0.5-0.1v0.6c-0.2,0.1-0.5,0.1-0.7,0.1
			c-0.3,0-0.6-0.1-0.9-0.3c-0.2-0.3-0.3-0.7-0.3-1.2v-2.3h-0.7v-0.6h0.7v-0.8L143.8,59.6z"/>
		<path d="M146.2,63c-0.1,0.8,0.5,1.4,1.3,1.5c0.1,0,0.2,0,0.2,0c0.4,0,0.8-0.1,1.2-0.2l0.1,0.6c-0.5,0.2-1,0.3-1.5,0.3
			c-1.1,0.1-2.1-0.7-2.1-1.8c0-0.1,0-0.2,0-0.4c-0.1-1.2,0.7-2.2,1.9-2.3c0.1,0,0.1,0,0.2,0c1,0,1.8,0.9,1.8,1.9c0,0.1,0,0.1,0,0.2
			c0,0.1,0,0.2,0,0.4L146.2,63z M148.5,62.4c0.1-0.6-0.3-1.2-1-1.3c0,0-0.1,0-0.1,0c-0.7,0.1-1.2,0.6-1.2,1.3H148.5z"/>
		<path class="st4" d="M151.2,137.7h-1v-0.5h1V137.7z M151.2,135.2h-1v-2h1V135.2z M151.2,131.2h-1v-2h1V131.2z M151.2,127.2h-1v-2
			h1V127.2z M151.2,123.2h-1v-2h1V123.2z M151.2,119.2h-1v-2h1V119.2z M151.2,115.2h-1v-2h1V115.2z M151.2,111.2h-1v-2h1V111.2z
			 M151.2,107.2h-1v-2h1V107.2z M151.2,103.2h-1v-2h1V103.2z M151.2,99.2h-1v-2h1V99.2z M151.2,95.2h-1v-2h1V95.2z M151.2,91.2h-1
			v-2h1V91.2z M151.2,87.2h-1v-2h1V87.2z M151.2,83.2h-1v-2h1V83.2z M151.2,79.2h-1v-2h1V79.2z M151.2,75.2h-1v-2h1V75.2z
			 M151.2,71.2h-1v-2h1V71.2z"/>
	</g>
</g>
</svg>
