<svg xmlns="http://www.w3.org/2000/svg" viewBox="0 0 77.31 70.87"><defs><style>.cls-1{fill:#babcbe;}.cls-2{fill:#e69629;}.cls-3{fill:#e5e5e6;}.cls-4{fill:#77a7e3;}.cls-5{fill:#73cab2;}.cls-6{fill:#f2d23d;}</style></defs><g id="Capa_2" data-name="Capa 2"><g id="Capa_1-2" data-name="Capa 1"><path class="cls-1" d="M64.45,7.94A5.13,5.13,0,1,1,74.7,7.88q0,18,0,35.91c0,.15,0,.3,0,.52-3.4-2.42-6.75-2.46-10.16,0,0-.22-.06-.42-.06-.61Z"/><path class="cls-1" d="M2.61,43.73V8a5.12,5.12,0,1,1,10.24-.19c0,4.24,0,8.48,0,12.72V38.88c0,.35.11.74-.41.91s-.86.49-1.39,0A24,24,0,0,0,9,38.2a1.32,1.32,0,0,0-2,.15c-1,1-2,2.06-3.08,3.06-.75.7-1.17,1.41-.47,2.39l-.79.58Z"/><path class="cls-2" d="M33.4,53.64c0,.17-.28.51-.48.55a17.16,17.16,0,0,1-2.13.34,1.79,1.79,0,0,0-1.74,1.39,26.19,26.19,0,0,1-1,2.52c-.56,1.27,1.13,3.42,1.56,4a.65.65,0,0,1-.09.85,14.4,14.4,0,0,1-1.32,1.11c-.5.37-.79,0-1.05-.21-2-1.41-2.7-1.7-3.48-1.37-1.12.49-2.13.85-3.13,1.38-.39.21-.59.9-.73,1.42a10,10,0,0,0-.3,2c0,.51-.26.67-.77.68-1.92,0-1.92,0-2.24-1.83-.05-.29-.1-.58-.13-.87A1.71,1.71,0,0,0,15,63.85a7.48,7.48,0,0,1-1.07-.36c-2.77-1-3-.61-3-.61L8.31,64.7l-2.05-2c.54-.71,1-1.43,1.6-2.12A1.8,1.8,0,0,0,8,58.35a17.62,17.62,0,0,1-.93-1.84h0a4.57,4.57,0,0,0-3.42-2.14,1.27,1.27,0,0,1-.34,0,1.25,1.25,0,0,1-.45-.18.54.54,0,0,1-.22-.38,12.69,12.69,0,0,1,0-1.85.73.73,0,0,1,.48-.47c.71-.15,1.42-.25,2.14-.33A1.8,1.8,0,0,0,7,49.72a16.65,16.65,0,0,1,1-2.51,1.71,1.71,0,0,0-.13-2c-.58-.74-1.12-1.49-1.69-2.25l2-1.85c.68.51,1.44,1.06,2.17,1.63a1.73,1.73,0,0,0,2,.14,15.68,15.68,0,0,1,2.51-1,1.83,1.83,0,0,0,1.4-1.74c.06-.63.22-1.26.26-1.9s.38-.81.94-.74c.21,0,.44,0,.64,0,.41.08,1.08.09,1.17.32a3,3,0,0,1,.2.64c.51,3.06,1.43,3.32,1.43,3.32h0a2.28,2.28,0,0,1,.36.13c.75.35,1.54.61,2.27,1a1.74,1.74,0,0,0,2.09-.14c.58-.47,1.2-.89,1.78-1.36a.54.54,0,0,1,.88.07c.44.5.94.95,1.4,1.4A11.56,11.56,0,0,1,28.22,45h0a1.64,1.64,0,0,0-.3,1.55L28.44,48v0a16.77,16.77,0,0,1,.61,1.74,1.74,1.74,0,0,0,1.66,1.38c.69.08,1.38.19,2.06.29.11,0,.25,0,.32.05C33.78,52.1,33.3,52.91,33.4,53.64Z"/><path class="cls-3" d="M69.54,55.39H36.15V51.54H41c2.83,0,2.84,0,2.84-2.8v-1h3.85c0,.74,0,1.5,0,2.27,0,1.06.47,1.54,1.51,1.54H56.5A1.3,1.3,0,0,0,58,50.05q0-3.67,0-7.33a1.3,1.3,0,0,0-1.47-1.49q-3.7,0-7.41,0a1.3,1.3,0,0,0-1.44,1.46c0,.77,0,1.54,0,2.36H43.82V43.22c0-1.69-.32-2-2-2H40V37.37H41.5c2.12,0,2.32-.2,2.32-2.35V33.55h3.84c0,.75,0,1.49,0,2.23,0,1.11.46,1.59,1.55,1.59,2.41,0,4.83,0,7.24,0,1,0,1.52-.48,1.53-1.54V28.59c0-1.06-.48-1.52-1.52-1.54-.75,0-1.5,0-2.35,0V23.2c.8,0,1.56,0,2.33,0,1,0,1.53-.48,1.53-1.52,0-2.42,0-4.84,0-7.25,0-1.07-.47-1.54-1.51-1.55-2.44,0-4.89,0-7.33,0a1.31,1.31,0,0,0-1.49,1.48c0,.75,0,1.5,0,2.32H43.82c0-.78,0-1.55,0-2.32a1.31,1.31,0,0,0-1.49-1.48q-3.66,0-7.32,0c-1,0-1.49.48-1.51,1.55,0,.69,0,1.39,0,2.09,0,.05,0,.09-.1.22H29.64c0-.83,0-1.6,0-2.36,0-1-.48-1.49-1.48-1.5q-3.7,0-7.4,0a1.3,1.3,0,0,0-1.44,1.46q0,3.7,0,7.4a1.28,1.28,0,0,0,1.44,1.45c2.49,0,5,0,7.48,0a1.28,1.28,0,0,0,1.39-1.42c0-.77,0-1.55,0-2.38h3.85v2.26c0,1.06.47,1.54,1.52,1.55q3.66,0,7.32,0a1.32,1.32,0,0,0,1.48-1.5c0-.75,0-1.5,0-2.31h3.85c0,.79,0,1.56,0,2.33a1.32,1.32,0,0,0,1.49,1.48l2.18,0,.13,0v3.78H49.38c-1.3,0-1.72.42-1.72,1.74v2.06H43.82c0-.76,0-1.51,0-2.25,0-1.07-.46-1.54-1.51-1.55q-3.66,0-7.32,0a1.31,1.31,0,0,0-1.49,1.48c0,2.45,0,4.89,0,7.33,0,1,.48,1.5,1.54,1.51.75,0,1.49,0,2.28,0v3.85H35.23c-1.32,0-1.74.41-1.74,1.71,0,1.85,0,3.71,0,5.56a1.37,1.37,0,0,1,0,.19,2.16,2.16,0,0,1-.36,0c-1.48-.18-2-.64-2.28-2.11a1,1,0,0,1,.21-.64c.53-.74,1.1-1.45,1.63-2.19a1.31,1.31,0,0,0-.14-2q-1.67-1.7-3.36-3.36a1.32,1.32,0,0,0-2-.14c-.72.52-1.44,1-2.12,1.6a1,1,0,0,1-1.09.12,2.12,2.12,0,0,1-1.78-2.32,7.8,7.8,0,0,0-.22-1.59,1.32,1.32,0,0,0-1.48-1.27H15.51V9.08H61.84V49.67c0,1.25.41,1.85,1.26,1.87s1.23-.52,1.35-1.73a5.15,5.15,0,1,1,5.09,5.58Z"/><rect class="cls-4" x="36.18" y="43.89" width="4.97" height="4.98"/><path class="cls-5" d="M50.34,48.9v-5h5c0,1.56,0,3.1,0,4.64,0,.13-.32.34-.49.34C53.36,48.91,51.9,48.9,50.34,48.9Z"/><rect class="cls-4" x="36.17" y="29.7" width="4.96" height="5"/><rect class="cls-4" x="50.34" y="29.72" width="4.95" height="5.01"/><rect class="cls-4" x="50.35" y="15.55" width="4.97" height="4.99"/><rect class="cls-4" x="36.16" y="15.53" width="4.98" height="4.98"/><rect class="cls-6" x="22.01" y="15.55" width="4.97" height="4.97"/><path d="M18,47.71a5.11,5.11,0,1,1-5.08,5.1A5.16,5.16,0,0,1,18,47.71Zm-.28,13a7.61,7.61,0,0,0,.83,0l.66-.07a7.65,7.65,0,0,0,6.3-5.54,9.23,9.23,0,0,0,.21-2.36h0c0-.31,0-.61,0-.91a6.9,6.9,0,0,0-1.09-3.27A8,8,0,0,0,17,45.05a9,9,0,0,0-4.37,2,7.63,7.63,0,0,0-.51,11A8.47,8.47,0,0,0,17.73,60.68Z"/><path d="M27,15.55v5H22v-5Zm14.16,0v5h-5v-5Zm9.22,5v-5h5v5Zm0,14.17v-5h4.95v5Zm-14.17,0v-5h5v5ZM50.34,48.9v-5h5c0,1.56,0,3.1,0,4.64,0,.13-.32.34-.49.34C53.36,48.91,51.9,48.9,50.34,48.9Zm-14.16,0v-5h5v5Zm33.36,6.53H36.15V51.54H41c2.83,0,2.84,0,2.84-2.8v-1h3.84c0,.74,0,1.5,0,2.27,0,1.06.47,1.54,1.51,1.54H56.5A1.3,1.3,0,0,0,58,50.05q0-3.67,0-7.33a1.3,1.3,0,0,0-1.47-1.49q-3.7,0-7.41,0a1.3,1.3,0,0,0-1.44,1.46c0,.77,0,1.54,0,2.36H43.82V43.22c0-1.69-.32-2-2-2H40V37.37H41.5c2.12,0,2.32-.2,2.32-2.35V33.55h3.84c0,.75,0,1.49,0,2.23,0,1.11.46,1.59,1.55,1.59,2.41,0,4.83,0,7.24,0,1,0,1.52-.48,1.52-1.54,0-2.41,0-4.83,0-7.24,0-1.06-.47-1.52-1.51-1.54-.75,0-1.5,0-2.35,0V23.2c.8,0,1.56,0,2.33,0,1,0,1.53-.48,1.53-1.52q0-3.63,0-7.25c0-1.07-.47-1.54-1.51-1.55-2.44,0-4.89,0-7.33,0a1.31,1.31,0,0,0-1.49,1.48c0,.75,0,1.5,0,2.32H43.82c0-.78,0-1.55,0-2.32a1.31,1.31,0,0,0-1.49-1.48q-3.66,0-7.33,0c-1,0-1.48.48-1.5,1.55,0,.69,0,1.39,0,2.09,0,.05,0,.09-.1.22H29.64c0-.83,0-1.6,0-2.36,0-1-.48-1.49-1.48-1.5q-3.7,0-7.4,0a1.3,1.3,0,0,0-1.44,1.46q0,3.7,0,7.4a1.29,1.29,0,0,0,1.44,1.46c2.49,0,5,0,7.48,0a1.28,1.28,0,0,0,1.39-1.42c0-.77,0-1.55,0-2.38h3.85v2.26c0,1.06.47,1.54,1.51,1.55q3.68,0,7.33,0a1.32,1.32,0,0,0,1.48-1.5c0-.75,0-1.5,0-2.3h3.85c0,.78,0,1.55,0,2.32a1.32,1.32,0,0,0,1.49,1.48l2.18,0,.13,0v3.78H49.38c-1.3,0-1.72.42-1.72,1.74v2.07H43.82c0-.77,0-1.52,0-2.26,0-1.06-.46-1.54-1.51-1.55q-3.66,0-7.32,0a1.31,1.31,0,0,0-1.49,1.48c0,2.45,0,4.89,0,7.33,0,1,.48,1.5,1.54,1.51.75,0,1.49,0,2.28,0v3.85H35.23c-1.32,0-1.74.41-1.74,1.71,0,1.85,0,3.71,0,5.56a1.37,1.37,0,0,1,0,.19,2.16,2.16,0,0,1-.36,0c-1.48-.18-2-.64-2.28-2.11a1,1,0,0,1,.21-.64c.53-.74,1.1-1.45,1.63-2.19a1.31,1.31,0,0,0-.14-2q-1.67-1.7-3.36-3.36a1.32,1.32,0,0,0-2-.14c-.72.52-1.44,1-2.12,1.6a1,1,0,0,1-1.09.12,2.12,2.12,0,0,1-1.78-2.32,8.57,8.57,0,0,0-.22-1.59,1.32,1.32,0,0,0-1.48-1.27H15.51V9.08H61.84V49.67c0,1.25.41,1.85,1.26,1.87s1.23-.52,1.35-1.73a5.15,5.15,0,1,1,5.09,5.58ZM33.4,53.64c0,.17-.28.51-.47.55a17.32,17.32,0,0,1-2.14.34,1.79,1.79,0,0,0-1.74,1.39,26.19,26.19,0,0,1-1,2.52c-.56,1.27,1.13,3.42,1.56,4a.65.65,0,0,1-.09.85,14.4,14.4,0,0,1-1.32,1.11c-.5.37-.79,0-1.05-.21-2-1.41-2.7-1.7-3.48-1.37-1.12.49-2.12.85-3.12,1.38-.4.21-.6.9-.74,1.42a10,10,0,0,0-.3,2c0,.51-.26.67-.77.68-1.92,0-1.92,0-2.24-1.83-.05-.29-.1-.58-.13-.87A1.71,1.71,0,0,0,15,63.85a7.48,7.48,0,0,1-1.07-.36c-2.77-1-3-.61-3-.61L8.31,64.7l-2.05-2c.54-.71,1-1.43,1.6-2.12A1.8,1.8,0,0,0,8,58.35a17.62,17.62,0,0,1-.93-1.84h0a4.56,4.56,0,0,0-3.42-2.15,1.27,1.27,0,0,1-.34,0,1.25,1.25,0,0,1-.45-.18.54.54,0,0,1-.22-.38,12.69,12.69,0,0,1,0-1.85.75.75,0,0,1,.48-.47c.71-.15,1.42-.25,2.14-.33A1.8,1.8,0,0,0,7,49.72a15.73,15.73,0,0,1,1.06-2.51,1.71,1.71,0,0,0-.14-2c-.58-.74-1.12-1.49-1.69-2.25l2-1.85c.68.51,1.44,1.06,2.18,1.63a1.71,1.71,0,0,0,2,.14,15.68,15.68,0,0,1,2.51-1,1.83,1.83,0,0,0,1.4-1.74c.06-.63.22-1.26.26-1.9s.38-.81.94-.74c.21,0,.44,0,.64,0,.41.08,1.08.09,1.17.32a3,3,0,0,1,.2.64c.51,3.06,1.43,3.32,1.43,3.32h0a2.28,2.28,0,0,1,.36.13c.75.35,1.54.61,2.27,1a1.74,1.74,0,0,0,2.09-.14c.58-.47,1.2-.89,1.78-1.36a.54.54,0,0,1,.88.07c.44.5.94.95,1.4,1.4A11.56,11.56,0,0,1,28.22,45h0a1.64,1.64,0,0,0-.3,1.55L28.44,48v0a16.77,16.77,0,0,1,.61,1.74,1.74,1.74,0,0,0,1.66,1.38c.69.08,1.38.19,2.07.29.1,0,.24,0,.31.05C33.78,52.1,33.3,52.91,33.4,53.64ZM4.58,48.19c-.18.36-1,.39-1.61.48a4.58,4.58,0,0,1,2.16-2.84C5.58,46.83,4.9,47.54,4.58,48.19Zm-2-4.46V8a5.12,5.12,0,1,1,10.24-.19c0,4.24,0,8.48,0,12.72V38.88c0,.35.11.74-.41.91s-.86.49-1.39,0A24,24,0,0,0,9,38.2a1.32,1.32,0,0,0-2,.15c-1,1-2,2.06-3.08,3.06-.75.7-1.17,1.41-.47,2.39l-.79.58ZM64.45,7.94A5.13,5.13,0,1,1,74.7,7.88q0,18,0,35.91c0,.15,0,.3,0,.52-3.4-2.42-6.75-2.46-10.16,0,0-.22-.06-.42-.06-.61ZM77.31,42.51q0-17.35,0-34.7A7.69,7.69,0,0,0,72.23.48a7.5,7.5,0,0,0-8.51,2.28,26.65,26.65,0,0,0-2.06,3.65H15.37c-.08-.3-.16-.58-.24-.86A7.73,7.73,0,0,0,0,8Q0,27.73,0,47.5q0,3.82,0,7.65A1.33,1.33,0,0,0,1.36,56.7a7.84,7.84,0,0,0,1.51.21,2.09,2.09,0,0,1,2.31,1.78A1.08,1.08,0,0,1,5,59.84c-.58.71-1.11,1.45-1.65,2.19a1.24,1.24,0,0,0,.11,1.75c1.18,1.21,2.38,2.4,3.59,3.59a1.22,1.22,0,0,0,1.74.12,8.79,8.79,0,0,0,1.28-1,2.18,2.18,0,0,1,3-.45,1.12,1.12,0,0,1,.67.87c.11.9.24,1.8.38,2.71a1.27,1.27,0,0,0,1.36,1.21c1.66,0,3.32,0,5,0a1.29,1.29,0,0,0,1.37-1.2A8.61,8.61,0,0,0,22.13,68a2.09,2.09,0,0,1,1.79-2.31,1.09,1.09,0,0,1,1.15.17c.66.54,1.36,1,2.06,1.55a1.3,1.3,0,0,0,2-.15q1.69-1.66,3.36-3.36a1.31,1.31,0,0,0,.12-2A21.09,21.09,0,0,0,31.14,60c-.51-.55-.35-1-.1-1.59s.7-.39,1.09-.39h37.2a7.71,7.71,0,0,0,8-8C77.31,47.5,77.31,45,77.31,42.51Z"/><path class="cls-6" d="M18,47.72a5.11,5.11,0,1,1-5.08,5.09A5.14,5.14,0,0,1,18,47.72Z"/><path class="cls-3" d="M4.58,48.19c-.18.36-1,.39-1.61.48a4.58,4.58,0,0,1,2.16-2.84C5.58,46.83,4.9,47.54,4.58,48.19Z"/></g></g></svg>