<svg xmlns="http://www.w3.org/2000/svg" width="256.846" height="73.307" viewBox="0 0 256.846 73.307">
  <path id="Trazado_24145" data-name="Trazado 24145" d="M139.076,9.916a3.36,3.36,0,0,1-.811,2.275,4.2,4.2,0,0,1-2.275,1.289v.059a4.547,4.547,0,0,1,2.617,1.05,2.941,2.941,0,0,1,.889,2.251A3.814,3.814,0,0,1,138,20.048a6.887,6.887,0,0,1-4.268,1.147,10.362,10.362,0,0,1-4.121-.771V17.855a9.314,9.314,0,0,0,1.826.684,7.685,7.685,0,0,0,1.973.264,3.836,3.836,0,0,0,2.207-.508,1.864,1.864,0,0,0,.713-1.631,1.473,1.473,0,0,0-.82-1.426,6.069,6.069,0,0,0-2.617-.42h-1.084V12.5h1.1a5.132,5.132,0,0,0,2.427-.435,1.569,1.569,0,0,0,.767-1.489q0-1.621-2.031-1.621a4.649,4.649,0,0,0-1.431.234,6.989,6.989,0,0,0-1.616.811l-1.4-2.08a7.759,7.759,0,0,1,4.658-1.406,6.015,6.015,0,0,1,3.5.9A2.881,2.881,0,0,1,139.076,9.916ZM151.049,21h-9.98V18.9l3.584-3.623q1.592-1.631,2.08-2.261a4.972,4.972,0,0,0,.7-1.167,2.971,2.971,0,0,0,.215-1.113,1.622,1.622,0,0,0-.474-1.279,1.837,1.837,0,0,0-1.265-.42,3.637,3.637,0,0,0-1.611.381A8.316,8.316,0,0,0,142.67,10.5l-1.641-1.943a10.7,10.7,0,0,1,1.748-1.27,6.417,6.417,0,0,1,1.514-.571,7.756,7.756,0,0,1,1.836-.2,5.436,5.436,0,0,1,2.363.488,3.77,3.77,0,0,1,1.592,1.367,3.632,3.632,0,0,1,.566,2.012,4.924,4.924,0,0,1-.347,1.851,7.105,7.105,0,0,1-1.074,1.772,26.263,26.263,0,0,1-2.563,2.588l-1.836,1.729v.137h6.221Zm4.434-5.576-3.516-5.342h3.379l2.119,3.477,2.139-3.477h3.379l-3.555,5.342L163.148,21H159.76l-2.295-3.74L155.16,21h-3.379Zm17.6-.4H169.3V12.885h3.779V9.076h2.139v3.809H179v2.139h-3.779v3.76H173.08Zm17.969-3.145a4.593,4.593,0,0,1,3.3,1.162,4.177,4.177,0,0,1,1.226,3.184,4.628,4.628,0,0,1-1.475,3.682,6.216,6.216,0,0,1-4.219,1.289,8.263,8.263,0,0,1-3.848-.771V17.816a8.674,8.674,0,0,0,3.74.928q2.764,0,2.764-2.266,0-2.158-2.861-2.158a7.1,7.1,0,0,0-1.143.1,8.36,8.36,0,0,0-1.016.22l-1.2-.645.537-7.275h7.744V9.281h-5.1l-.264,2.8.342-.068A6.722,6.722,0,0,1,191.049,11.879Zm16.123,1.982a9.952,9.952,0,0,1-1.226,5.537,4.253,4.253,0,0,1-3.774,1.8,4.2,4.2,0,0,1-3.726-1.855,9.811,9.811,0,0,1-1.255-5.479,10.047,10.047,0,0,1,1.221-5.571,4.747,4.747,0,0,1,7.5.083A9.83,9.83,0,0,1,207.172,13.861Zm-6.982,0a11.108,11.108,0,0,0,.454,3.765,1.573,1.573,0,0,0,1.528,1.138,1.589,1.589,0,0,0,1.523-1.152,10.8,10.8,0,0,0,.469-3.75,10.769,10.769,0,0,0-.474-3.774,1.582,1.582,0,0,0-3.042,0A11.089,11.089,0,0,0,200.189,13.861Zm7.7-3.779h3.262l2.061,6.143a8.523,8.523,0,0,1,.361,1.895h.059a8.372,8.372,0,0,1,.42-1.895l2.021-6.143h3.193L214.643,22.4a5.332,5.332,0,0,1-1.812,2.559,4.572,4.572,0,0,1-2.749.85,6.913,6.913,0,0,1-1.514-.166V23.275a5.092,5.092,0,0,0,1.172.127,2.116,2.116,0,0,0,1.382-.483,3.134,3.134,0,0,0,.923-1.46l.176-.537Zm17.432,3.057V11h9.7v2.139Zm0,3.779V14.779h9.7v2.139ZM249.33,21h-3.018V12.738l.029-1.357.049-1.484q-.752.752-1.045.986L243.705,12.2l-1.455-1.816,4.6-3.662h2.48Zm14.258-2.959h-1.719V21H258.92V18.041h-6.094v-2.1l6.26-9.219h2.783V15.7h1.719ZM258.92,15.7V13.275q0-.605.049-1.758t.078-1.338h-.078a10.891,10.891,0,0,1-.869,1.563L255.482,15.7Zm5.684-.762q0-4.238,1.792-6.309a6.713,6.713,0,0,1,5.366-2.07,9.737,9.737,0,0,1,1.914.146V9.115a7.821,7.821,0,0,0-1.719-.2,5.9,5.9,0,0,0-2.534.469,3.152,3.152,0,0,0-1.47,1.387,6.368,6.368,0,0,0-.576,2.607h.127a3.315,3.315,0,0,1,3.1-1.66,3.833,3.833,0,0,1,3,1.2,4.776,4.776,0,0,1,1.084,3.32,4.985,4.985,0,0,1-1.289,3.618,4.74,4.74,0,0,1-3.574,1.333,5.113,5.113,0,0,1-2.759-.732,4.757,4.757,0,0,1-1.816-2.139A8.144,8.144,0,0,1,264.6,14.936Zm5.156,3.848a1.787,1.787,0,0,0,1.484-.649,2.906,2.906,0,0,0,.518-1.851,2.554,2.554,0,0,0-.483-1.646,1.762,1.762,0,0,0-1.46-.6,2.237,2.237,0,0,0-1.567.6,1.83,1.83,0,0,0-.649,1.387,3.143,3.143,0,0,0,.61,1.963A1.869,1.869,0,0,0,269.76,18.783Zm16.26-4.922a9.952,9.952,0,0,1-1.226,5.537,4.253,4.253,0,0,1-3.774,1.8,4.2,4.2,0,0,1-3.726-1.855,9.811,9.811,0,0,1-1.255-5.479A10.047,10.047,0,0,1,277.26,8.29a4.747,4.747,0,0,1,7.5.083A9.83,9.83,0,0,1,286.02,13.861Zm-6.982,0a11.108,11.108,0,0,0,.454,3.765,1.573,1.573,0,0,0,1.528,1.138,1.589,1.589,0,0,0,1.523-1.152,10.8,10.8,0,0,0,.469-3.75,10.768,10.768,0,0,0-.474-3.774,1.582,1.582,0,0,0-3.042,0A11.088,11.088,0,0,0,279.037,13.861Zm18.4,0A9.952,9.952,0,0,1,296.21,19.4a4.253,4.253,0,0,1-3.774,1.8,4.2,4.2,0,0,1-3.726-1.855,9.811,9.811,0,0,1-1.255-5.479,10.047,10.047,0,0,1,1.221-5.571,4.747,4.747,0,0,1,7.5.083A9.83,9.83,0,0,1,297.436,13.861Zm-6.982,0a11.108,11.108,0,0,0,.454,3.765,1.573,1.573,0,0,0,1.528,1.138,1.589,1.589,0,0,0,1.523-1.152,10.8,10.8,0,0,0,.469-3.75,10.768,10.768,0,0,0-.474-3.774,1.582,1.582,0,0,0-3.042,0A11.088,11.088,0,0,0,290.453,13.861ZM194.335,36.916a3.36,3.36,0,0,1-.811,2.275,4.2,4.2,0,0,1-2.275,1.289v.059a4.547,4.547,0,0,1,2.617,1.05,2.941,2.941,0,0,1,.889,2.251,3.814,3.814,0,0,1-1.494,3.208,6.887,6.887,0,0,1-4.268,1.147,10.362,10.362,0,0,1-4.121-.771V44.855a9.314,9.314,0,0,0,1.826.684,7.685,7.685,0,0,0,1.973.264,3.836,3.836,0,0,0,2.207-.508,1.864,1.864,0,0,0,.713-1.631,1.473,1.473,0,0,0-.82-1.426,6.069,6.069,0,0,0-2.617-.42h-1.084V39.5h1.1a5.132,5.132,0,0,0,2.427-.435,1.569,1.569,0,0,0,.767-1.489q0-1.621-2.031-1.621a4.649,4.649,0,0,0-1.431.234,6.989,6.989,0,0,0-1.616.811l-1.4-2.08a7.759,7.759,0,0,1,4.658-1.406,6.015,6.015,0,0,1,3.5.9A2.881,2.881,0,0,1,194.335,36.916ZM206.308,48h-9.98V45.9l3.584-3.623q1.592-1.631,2.08-2.261a4.972,4.972,0,0,0,.7-1.167,2.971,2.971,0,0,0,.215-1.113,1.622,1.622,0,0,0-.474-1.279,1.836,1.836,0,0,0-1.265-.42,3.637,3.637,0,0,0-1.611.381,8.316,8.316,0,0,0-1.631,1.084l-1.641-1.943a10.7,10.7,0,0,1,1.748-1.27,6.417,6.417,0,0,1,1.514-.571,7.756,7.756,0,0,1,1.836-.2,5.436,5.436,0,0,1,2.363.488,3.77,3.77,0,0,1,1.592,1.367,3.632,3.632,0,0,1,.566,2.012,4.924,4.924,0,0,1-.347,1.851,7.105,7.105,0,0,1-1.074,1.772,26.263,26.263,0,0,1-2.563,2.588l-1.836,1.729v.137h6.221Zm4.434-5.576-3.516-5.342H210.6l2.119,3.477,2.139-3.477h3.379l-3.555,5.342L218.407,48h-3.389l-2.295-3.74-2.3,3.74H207.04Zm13.818-2.285V38h9.7v2.139Zm0,3.779V41.779h9.7v2.139ZM248.573,48h-3.018V39.738l.029-1.357.049-1.484q-.752.752-1.045.986L242.948,39.2l-1.455-1.816,4.6-3.662h2.48Zm14.258-2.959h-1.719V48h-2.949V45.041h-6.094v-2.1l6.26-9.219h2.783V42.7h1.719ZM258.163,42.7V40.275q0-.605.049-1.758t.078-1.338h-.078a10.891,10.891,0,0,1-.869,1.563L254.726,42.7Zm5.684-.762q0-4.238,1.792-6.309A6.713,6.713,0,0,1,271,33.557a9.737,9.737,0,0,1,1.914.146v2.412a7.821,7.821,0,0,0-1.719-.2,5.9,5.9,0,0,0-2.534.469,3.152,3.152,0,0,0-1.47,1.387,6.368,6.368,0,0,0-.576,2.607h.127a3.315,3.315,0,0,1,3.1-1.66,3.833,3.833,0,0,1,3,1.2,4.776,4.776,0,0,1,1.084,3.32,4.985,4.985,0,0,1-1.289,3.618,4.74,4.74,0,0,1-3.574,1.333,5.113,5.113,0,0,1-2.759-.732,4.757,4.757,0,0,1-1.816-2.139A8.144,8.144,0,0,1,263.847,41.936ZM269,45.783a1.787,1.787,0,0,0,1.484-.649A2.906,2.906,0,0,0,271,43.283a2.554,2.554,0,0,0-.483-1.646,1.762,1.762,0,0,0-1.46-.6,2.237,2.237,0,0,0-1.567.6,1.83,1.83,0,0,0-.649,1.387,3.143,3.143,0,0,0,.61,1.963A1.869,1.869,0,0,0,269,45.783Zm16.26-4.922a9.952,9.952,0,0,1-1.226,5.537,4.253,4.253,0,0,1-3.774,1.8,4.2,4.2,0,0,1-3.726-1.855,9.811,9.811,0,0,1-1.255-5.479A10.047,10.047,0,0,1,276.5,35.29a4.747,4.747,0,0,1,7.5.083A9.83,9.83,0,0,1,285.263,40.861Zm-6.982,0a11.108,11.108,0,0,0,.454,3.765,1.573,1.573,0,0,0,1.528,1.138,1.589,1.589,0,0,0,1.523-1.152,10.8,10.8,0,0,0,.469-3.75,10.768,10.768,0,0,0-.474-3.774,1.582,1.582,0,0,0-3.042,0A11.088,11.088,0,0,0,278.28,40.861Zm18.4,0a9.952,9.952,0,0,1-1.226,5.537,4.253,4.253,0,0,1-3.774,1.8,4.2,4.2,0,0,1-3.726-1.855,9.811,9.811,0,0,1-1.255-5.479,10.047,10.047,0,0,1,1.221-5.571,4.747,4.747,0,0,1,7.5.083A9.83,9.83,0,0,1,296.679,40.861Zm-6.982,0a11.108,11.108,0,0,0,.454,3.765,1.573,1.573,0,0,0,1.528,1.138,1.589,1.589,0,0,0,1.523-1.152,10.8,10.8,0,0,0,.469-3.75,10.768,10.768,0,0,0-.474-3.774,1.582,1.582,0,0,0-3.042,0A11.088,11.088,0,0,0,289.7,40.861Zm13.691,2.881V41.5h8.4v2.246Zm20.391-4.863a4.593,4.593,0,0,1,3.3,1.162,4.177,4.177,0,0,1,1.226,3.184,4.628,4.628,0,0,1-1.475,3.682,6.216,6.216,0,0,1-4.219,1.289,8.263,8.263,0,0,1-3.848-.771V44.816a8.674,8.674,0,0,0,3.74.928q2.764,0,2.764-2.266,0-2.158-2.861-2.158a7.1,7.1,0,0,0-1.143.1,8.36,8.36,0,0,0-1.016.22l-1.2-.645.537-7.275h7.744v2.559h-5.1l-.264,2.8.342-.068A6.722,6.722,0,0,1,323.778,38.879ZM339.9,40.861a9.952,9.952,0,0,1-1.226,5.537,4.253,4.253,0,0,1-3.774,1.8,4.2,4.2,0,0,1-3.726-1.855,9.811,9.811,0,0,1-1.255-5.479,10.047,10.047,0,0,1,1.221-5.571,4.747,4.747,0,0,1,7.5.083A9.83,9.83,0,0,1,339.9,40.861Zm-6.982,0a11.108,11.108,0,0,0,.454,3.765,1.573,1.573,0,0,0,1.528,1.138,1.589,1.589,0,0,0,1.523-1.152,10.8,10.8,0,0,0,.469-3.75,10.768,10.768,0,0,0-.474-3.774,1.582,1.582,0,0,0-3.042,0A11.088,11.088,0,0,0,332.919,40.861Zm7.7-3.779h3.262l2.061,6.143a8.522,8.522,0,0,1,.361,1.895h.059a8.372,8.372,0,0,1,.42-1.895l2.021-6.143h3.193L347.372,49.4a5.332,5.332,0,0,1-1.812,2.559,4.572,4.572,0,0,1-2.749.85,6.913,6.913,0,0,1-1.514-.166V50.275a5.091,5.091,0,0,0,1.172.127,2.116,2.116,0,0,0,1.382-.483,3.134,3.134,0,0,0,.923-1.46l.176-.537ZM209.955,69.424l-3.516-5.342h3.379l2.119,3.477,2.139-3.477h3.379L213.9,69.424,217.621,75h-3.389l-2.295-3.74-2.3,3.74h-3.379Zm13.818-2.285V65h9.7v2.139Zm0,3.779V68.779h9.7v2.139Zm16.553-1.4a15.133,15.133,0,0,1,.757-4.844,12.042,12.042,0,0,1,2.183-3.955h2.441a14.062,14.062,0,0,0-2.08,4.141,15.5,15.5,0,0,0-.7,4.639,15.008,15.008,0,0,0,.718,4.624,14,14,0,0,0,2.046,4.038h-2.422a11.508,11.508,0,0,1-2.187-3.877A14.741,14.741,0,0,1,240.326,69.521ZM254.564,75h-3.018V66.738l.029-1.357.049-1.484q-.752.752-1.045.986L248.939,66.2l-1.455-1.816,4.6-3.662h2.48Zm14.258-2.959H267.1V75h-2.949V72.041h-6.094v-2.1l6.26-9.219H267.1V69.7h1.719ZM264.154,69.7V67.275q0-.605.049-1.758t.078-1.338H264.2a10.891,10.891,0,0,1-.869,1.563L260.717,69.7Zm5.684-.762q0-4.238,1.792-6.309A6.713,6.713,0,0,1,277,60.557a9.737,9.737,0,0,1,1.914.146v2.412a7.821,7.821,0,0,0-1.719-.2,5.9,5.9,0,0,0-2.534.469,3.152,3.152,0,0,0-1.47,1.387,6.368,6.368,0,0,0-.576,2.607h.127a3.315,3.315,0,0,1,3.1-1.66,3.833,3.833,0,0,1,3,1.2,4.776,4.776,0,0,1,1.084,3.32,4.985,4.985,0,0,1-1.289,3.618,4.74,4.74,0,0,1-3.574,1.333,5.113,5.113,0,0,1-2.759-.732,4.757,4.757,0,0,1-1.816-2.139A8.144,8.144,0,0,1,269.838,68.936Zm5.156,3.848a1.787,1.787,0,0,0,1.484-.649A2.906,2.906,0,0,0,277,70.283a2.554,2.554,0,0,0-.483-1.646,1.762,1.762,0,0,0-1.46-.6,2.237,2.237,0,0,0-1.567.6,1.83,1.83,0,0,0-.649,1.387,3.143,3.143,0,0,0,.61,1.963A1.869,1.869,0,0,0,274.994,72.783Zm16.26-4.922a9.952,9.952,0,0,1-1.226,5.537,4.253,4.253,0,0,1-3.774,1.8,4.2,4.2,0,0,1-3.726-1.855,9.811,9.811,0,0,1-1.255-5.479,10.047,10.047,0,0,1,1.221-5.571,4.747,4.747,0,0,1,7.5.083A9.83,9.83,0,0,1,291.254,67.861Zm-6.982,0a11.108,11.108,0,0,0,.454,3.765,1.573,1.573,0,0,0,1.528,1.138,1.589,1.589,0,0,0,1.523-1.152,10.8,10.8,0,0,0,.469-3.75,10.768,10.768,0,0,0-.474-3.774,1.582,1.582,0,0,0-3.042,0A11.088,11.088,0,0,0,284.271,67.861Zm18.4,0a9.952,9.952,0,0,1-1.226,5.537,4.253,4.253,0,0,1-3.774,1.8,4.2,4.2,0,0,1-3.726-1.855,9.811,9.811,0,0,1-1.255-5.479,10.047,10.047,0,0,1,1.221-5.571,4.747,4.747,0,0,1,7.5.083A9.83,9.83,0,0,1,302.67,67.861Zm-6.982,0a11.108,11.108,0,0,0,.454,3.765,1.573,1.573,0,0,0,1.528,1.138,1.589,1.589,0,0,0,1.523-1.152,10.8,10.8,0,0,0,.469-3.75,10.768,10.768,0,0,0-.474-3.774,1.582,1.582,0,0,0-3.042,0A11.088,11.088,0,0,0,295.688,67.861Zm8.291,3V68.418h5.244v2.441Zm11.836-4.98a4.593,4.593,0,0,1,3.3,1.162,4.177,4.177,0,0,1,1.226,3.184,4.628,4.628,0,0,1-1.475,3.682,6.216,6.216,0,0,1-4.219,1.289,8.263,8.263,0,0,1-3.848-.771V71.816a8.674,8.674,0,0,0,3.74.928q2.764,0,2.764-2.266,0-2.158-2.861-2.158a7.1,7.1,0,0,0-1.143.1,8.36,8.36,0,0,0-1.016.22l-1.2-.645.537-7.275h7.744v2.559h-5.1l-.264,2.8.342-.068A6.722,6.722,0,0,1,315.814,65.879Zm16.123,1.982a9.952,9.952,0,0,1-1.226,5.537,4.253,4.253,0,0,1-3.774,1.8,4.2,4.2,0,0,1-3.726-1.855,9.811,9.811,0,0,1-1.255-5.479,10.047,10.047,0,0,1,1.221-5.571,4.747,4.747,0,0,1,7.5.083A9.83,9.83,0,0,1,331.938,67.861Zm-6.982,0a11.108,11.108,0,0,0,.454,3.765,1.573,1.573,0,0,0,1.528,1.138,1.589,1.589,0,0,0,1.523-1.152,10.8,10.8,0,0,0,.469-3.75,10.768,10.768,0,0,0-.474-3.774,1.582,1.582,0,0,0-3.042,0A11.088,11.088,0,0,0,324.955,67.861Zm7.7-3.779h3.262l2.061,6.143a8.522,8.522,0,0,1,.361,1.895h.059a8.372,8.372,0,0,1,.42-1.895l2.021-6.143h3.193L339.408,76.4a5.332,5.332,0,0,1-1.812,2.559,4.572,4.572,0,0,1-2.749.85,6.913,6.913,0,0,1-1.514-.166V77.275a5.092,5.092,0,0,0,1.172.127,2.116,2.116,0,0,0,1.382-.483,3.134,3.134,0,0,0,.923-1.46l.176-.537ZM350,69.521a14.717,14.717,0,0,1-.757,4.785,11.446,11.446,0,0,1-2.183,3.857h-2.422a14.1,14.1,0,0,0,2.041-4.028,14.945,14.945,0,0,0,.723-4.634,15.5,15.5,0,0,0-.7-4.639,14.062,14.062,0,0,0-2.08-4.141h2.441a11.98,11.98,0,0,1,2.188,3.97A15.2,15.2,0,0,1,350,69.521Zm14.16-8.8L358.842,75h-2.705l5.322-14.277Zm10.322,3.193a3.36,3.36,0,0,1-.811,2.275A4.2,4.2,0,0,1,371.4,67.48v.059a4.547,4.547,0,0,1,2.617,1.05,2.941,2.941,0,0,1,.889,2.251,3.814,3.814,0,0,1-1.494,3.208,6.887,6.887,0,0,1-4.268,1.147,10.362,10.362,0,0,1-4.121-.771V71.855a9.314,9.314,0,0,0,1.826.684,7.685,7.685,0,0,0,1.973.264,3.836,3.836,0,0,0,2.207-.508,1.864,1.864,0,0,0,.713-1.631,1.473,1.473,0,0,0-.82-1.426,6.069,6.069,0,0,0-2.617-.42h-1.084V66.5h1.1a5.132,5.132,0,0,0,2.427-.435,1.569,1.569,0,0,0,.767-1.489q0-1.621-2.031-1.621a4.649,4.649,0,0,0-1.431.234,6.989,6.989,0,0,0-1.616.811l-1.4-2.08a7.759,7.759,0,0,1,4.658-1.406,6.015,6.015,0,0,1,3.5.9A2.881,2.881,0,0,1,374.486,63.916ZM386.459,75h-9.98V72.9l3.584-3.623q1.592-1.631,2.08-2.261a4.971,4.971,0,0,0,.7-1.167,2.971,2.971,0,0,0,.215-1.113,1.622,1.622,0,0,0-.474-1.279,1.837,1.837,0,0,0-1.265-.42,3.637,3.637,0,0,0-1.611.381A8.315,8.315,0,0,0,378.08,64.5l-1.641-1.943a10.7,10.7,0,0,1,1.748-1.27,6.417,6.417,0,0,1,1.514-.571,7.756,7.756,0,0,1,1.836-.2,5.436,5.436,0,0,1,2.363.488,3.77,3.77,0,0,1,1.592,1.367,3.632,3.632,0,0,1,.566,2.012,4.924,4.924,0,0,1-.347,1.851,7.105,7.105,0,0,1-1.074,1.772,26.259,26.259,0,0,1-2.563,2.588l-1.836,1.729v.137h6.221Z" transform="translate(-129.613 -6.498)" fill="#00223d"/>
</svg>
