<svg xmlns="http://www.w3.org/2000/svg" width="247.529" height="100.307" viewBox="0 0 247.529 100.307">
  <path id="Trazado_24146" data-name="Trazado 24146" d="M142.821,21H139.8V12.738l.029-1.357.049-1.484q-.752.752-1.045.986L137.2,12.2l-1.455-1.816,4.6-3.662h2.48Zm13.857-7.139a9.952,9.952,0,0,1-1.226,5.537,4.253,4.253,0,0,1-3.774,1.8,4.2,4.2,0,0,1-3.726-1.855,9.811,9.811,0,0,1-1.255-5.479,10.047,10.047,0,0,1,1.221-5.571,4.747,4.747,0,0,1,7.5.083A9.83,9.83,0,0,1,156.679,13.861Zm-6.982,0a11.108,11.108,0,0,0,.454,3.765,1.573,1.573,0,0,0,1.528,1.138,1.589,1.589,0,0,0,1.523-1.152,10.8,10.8,0,0,0,.469-3.75,10.769,10.769,0,0,0-.474-3.774,1.582,1.582,0,0,0-3.042,0A11.089,11.089,0,0,0,149.7,13.861Zm11.494,1.563-3.516-5.342h3.379l2.119,3.477,2.139-3.477h3.379l-3.555,5.342L168.856,21h-3.389l-2.295-3.74-2.3,3.74h-3.379Zm17.6-.4h-3.779V12.885h3.779V9.076h2.139v3.809h3.779v2.139h-3.779v3.76h-2.139Zm23.076,3.018h-1.719V21H197.2V18.041H191.1v-2.1l6.26-9.219h2.783V15.7h1.719ZM197.2,15.7V13.275q0-.605.049-1.758t.078-1.338h-.078a10.891,10.891,0,0,1-.869,1.563L193.759,15.7Zm15.684-1.836a9.952,9.952,0,0,1-1.226,5.537,4.253,4.253,0,0,1-3.774,1.8,4.2,4.2,0,0,1-3.726-1.855,9.811,9.811,0,0,1-1.255-5.479A10.047,10.047,0,0,1,204.12,8.29a4.747,4.747,0,0,1,7.5.083A9.83,9.83,0,0,1,212.88,13.861Zm-6.982,0a11.108,11.108,0,0,0,.454,3.765,1.573,1.573,0,0,0,1.528,1.138,1.589,1.589,0,0,0,1.523-1.152,10.8,10.8,0,0,0,.469-3.75,10.769,10.769,0,0,0-.474-3.774,1.582,1.582,0,0,0-3.042,0A11.089,11.089,0,0,0,205.9,13.861Zm7.7-3.779h3.262l2.061,6.143a8.523,8.523,0,0,1,.361,1.895h.059a8.372,8.372,0,0,1,.42-1.895l2.021-6.143h3.193L220.351,22.4a5.332,5.332,0,0,1-1.812,2.559,4.572,4.572,0,0,1-2.749.85,6.913,6.913,0,0,1-1.514-.166V23.275a5.092,5.092,0,0,0,1.172.127,2.116,2.116,0,0,0,1.382-.483,3.134,3.134,0,0,0,.923-1.46l.176-.537Zm17.432,3.057V11h9.7v2.139Zm0,3.779V14.779h9.7v2.139ZM248.993,21l5.361-11.719h-7.041V6.742h10.244V8.637L252.157,21Zm19.9-7.139A9.952,9.952,0,0,1,267.67,19.4a4.253,4.253,0,0,1-3.774,1.8,4.2,4.2,0,0,1-3.726-1.855,9.811,9.811,0,0,1-1.255-5.479,10.047,10.047,0,0,1,1.221-5.571,4.747,4.747,0,0,1,7.5.083A9.83,9.83,0,0,1,268.9,13.861Zm-6.982,0a11.108,11.108,0,0,0,.454,3.765,1.573,1.573,0,0,0,1.528,1.138,1.589,1.589,0,0,0,1.523-1.152,10.8,10.8,0,0,0,.469-3.75,10.768,10.768,0,0,0-.474-3.774,1.582,1.582,0,0,0-3.042,0A11.088,11.088,0,0,0,261.913,13.861Zm18.4,0a9.952,9.952,0,0,1-1.226,5.537,4.253,4.253,0,0,1-3.774,1.8,4.2,4.2,0,0,1-3.726-1.855,9.811,9.811,0,0,1-1.255-5.479,10.047,10.047,0,0,1,1.221-5.571,4.747,4.747,0,0,1,7.5.083A9.83,9.83,0,0,1,280.312,13.861Zm-6.982,0a11.108,11.108,0,0,0,.454,3.765,1.573,1.573,0,0,0,1.528,1.138,1.589,1.589,0,0,0,1.523-1.152,10.8,10.8,0,0,0,.469-3.75,10.768,10.768,0,0,0-.474-3.774,1.582,1.582,0,0,0-3.042,0A11.088,11.088,0,0,0,273.329,13.861Zm18.4,0A9.952,9.952,0,0,1,290.5,19.4a4.253,4.253,0,0,1-3.774,1.8A4.2,4.2,0,0,1,283,19.34a9.811,9.811,0,0,1-1.255-5.479,10.047,10.047,0,0,1,1.221-5.571,4.747,4.747,0,0,1,7.5.083A9.83,9.83,0,0,1,291.728,13.861Zm-6.982,0a11.108,11.108,0,0,0,.454,3.765,1.573,1.573,0,0,0,1.528,1.138,1.589,1.589,0,0,0,1.523-1.152,10.8,10.8,0,0,0,.469-3.75,10.768,10.768,0,0,0-.474-3.774,1.582,1.582,0,0,0-3.042,0A11.088,11.088,0,0,0,284.745,13.861ZM199.862,48h-3.018V39.738l.029-1.357.049-1.484q-.752.752-1.045.986L194.237,39.2l-1.455-1.816,4.6-3.662h2.48Zm13.857-7.139a9.952,9.952,0,0,1-1.226,5.537,4.253,4.253,0,0,1-3.774,1.8,4.2,4.2,0,0,1-3.726-1.855,9.811,9.811,0,0,1-1.255-5.479,10.047,10.047,0,0,1,1.221-5.571,4.747,4.747,0,0,1,7.5.083A9.83,9.83,0,0,1,213.72,40.861Zm-6.982,0a11.108,11.108,0,0,0,.454,3.765,1.573,1.573,0,0,0,1.528,1.138,1.589,1.589,0,0,0,1.523-1.152,10.8,10.8,0,0,0,.469-3.75,10.769,10.769,0,0,0-.474-3.774,1.582,1.582,0,0,0-3.042,0A11.089,11.089,0,0,0,206.737,40.861Zm11.494,1.563-3.516-5.342h3.379l2.119,3.477,2.139-3.477h3.379l-3.555,5.342L225.9,48h-3.389l-2.295-3.74-2.3,3.74H214.53Zm13.818-2.285V38h9.7v2.139Zm0,3.779V41.779h9.7v2.139ZM250.019,48l5.361-11.719h-7.041V33.742h10.244v1.895L253.183,48Zm19.9-7.139A9.952,9.952,0,0,1,268.7,46.4a4.253,4.253,0,0,1-3.774,1.8A4.2,4.2,0,0,1,261.2,46.34a9.811,9.811,0,0,1-1.255-5.479,10.047,10.047,0,0,1,1.221-5.571,4.747,4.747,0,0,1,7.5.083A9.83,9.83,0,0,1,269.921,40.861Zm-6.982,0a11.108,11.108,0,0,0,.454,3.765,1.573,1.573,0,0,0,1.528,1.138,1.589,1.589,0,0,0,1.523-1.152,10.8,10.8,0,0,0,.469-3.75,10.768,10.768,0,0,0-.474-3.774,1.582,1.582,0,0,0-3.042,0A11.088,11.088,0,0,0,262.938,40.861Zm18.4,0a9.952,9.952,0,0,1-1.226,5.537,4.253,4.253,0,0,1-3.774,1.8,4.2,4.2,0,0,1-3.726-1.855,9.811,9.811,0,0,1-1.255-5.479,10.047,10.047,0,0,1,1.221-5.571,4.747,4.747,0,0,1,7.5.083A9.83,9.83,0,0,1,281.337,40.861Zm-6.982,0a11.108,11.108,0,0,0,.454,3.765,1.573,1.573,0,0,0,1.528,1.138,1.589,1.589,0,0,0,1.523-1.152,10.8,10.8,0,0,0,.469-3.75,10.768,10.768,0,0,0-.474-3.774,1.582,1.582,0,0,0-3.042,0A11.088,11.088,0,0,0,274.354,40.861Zm18.4,0a9.952,9.952,0,0,1-1.226,5.537,4.253,4.253,0,0,1-3.774,1.8,4.2,4.2,0,0,1-3.726-1.855,9.811,9.811,0,0,1-1.255-5.479,10.047,10.047,0,0,1,1.221-5.571,4.747,4.747,0,0,1,7.5.083A9.83,9.83,0,0,1,292.753,40.861Zm-6.982,0a11.108,11.108,0,0,0,.454,3.765,1.573,1.573,0,0,0,1.528,1.138,1.589,1.589,0,0,0,1.523-1.152,10.8,10.8,0,0,0,.469-3.75,10.768,10.768,0,0,0-.474-3.774,1.582,1.582,0,0,0-3.042,0A11.088,11.088,0,0,0,285.771,40.861Zm13.486,3V41.418H304.5v2.441ZM321.4,45.041h-1.719V48h-2.949V45.041h-6.094v-2.1l6.26-9.219h2.783V42.7H321.4ZM316.728,42.7V40.275q0-.605.049-1.758t.078-1.338h-.078a10.891,10.891,0,0,1-.869,1.563L313.29,42.7Zm15.684-1.836a9.952,9.952,0,0,1-1.226,5.537,4.253,4.253,0,0,1-3.774,1.8,4.2,4.2,0,0,1-3.726-1.855,9.811,9.811,0,0,1-1.255-5.479,10.047,10.047,0,0,1,1.221-5.571,4.747,4.747,0,0,1,7.5.083A9.83,9.83,0,0,1,332.411,40.861Zm-6.982,0a11.108,11.108,0,0,0,.454,3.765,1.573,1.573,0,0,0,1.528,1.138,1.589,1.589,0,0,0,1.523-1.152,10.8,10.8,0,0,0,.469-3.75,10.768,10.768,0,0,0-.474-3.774,1.582,1.582,0,0,0-3.042,0A11.088,11.088,0,0,0,325.429,40.861Zm7.7-3.779h3.262l2.061,6.143a8.522,8.522,0,0,1,.361,1.895h.059a8.372,8.372,0,0,1,.42-1.895l2.021-6.143H344.5L339.882,49.4a5.332,5.332,0,0,1-1.812,2.559,4.572,4.572,0,0,1-2.749.85,6.913,6.913,0,0,1-1.514-.166V50.275a5.091,5.091,0,0,0,1.172.127,2.116,2.116,0,0,0,1.382-.483,3.134,3.134,0,0,0,.923-1.46l.176-.537ZM218.261,69.424l-3.516-5.342h3.379l2.119,3.477,2.139-3.477h3.379l-3.555,5.342L225.927,75h-3.389l-2.295-3.74-2.3,3.74H214.56Zm13.818-2.285V65h9.7v2.139Zm0,3.779V68.779h9.7v2.139Zm16.553-1.4a15.133,15.133,0,0,1,.757-4.844,12.042,12.042,0,0,1,2.183-3.955h2.441a14.062,14.062,0,0,0-2.08,4.141,15.5,15.5,0,0,0-.7,4.639,15.008,15.008,0,0,0,.718,4.624,14,14,0,0,0,2.046,4.038h-2.422a11.508,11.508,0,0,1-2.187-3.877A14.741,14.741,0,0,1,248.632,69.521ZM256.825,75l5.361-11.719h-7.041V60.742H265.39v1.895L259.989,75Zm19.9-7.139A9.952,9.952,0,0,1,275.5,73.4a4.253,4.253,0,0,1-3.774,1.8A4.2,4.2,0,0,1,268,73.34a9.811,9.811,0,0,1-1.255-5.479,10.047,10.047,0,0,1,1.221-5.571,4.747,4.747,0,0,1,7.5.083A9.83,9.83,0,0,1,276.728,67.861Zm-6.982,0a11.108,11.108,0,0,0,.454,3.765,1.573,1.573,0,0,0,1.528,1.138,1.589,1.589,0,0,0,1.523-1.152,10.8,10.8,0,0,0,.469-3.75,10.768,10.768,0,0,0-.474-3.774,1.582,1.582,0,0,0-3.042,0A11.088,11.088,0,0,0,269.745,67.861Zm18.4,0a9.952,9.952,0,0,1-1.226,5.537,4.253,4.253,0,0,1-3.774,1.8,4.2,4.2,0,0,1-3.726-1.855,9.811,9.811,0,0,1-1.255-5.479,10.047,10.047,0,0,1,1.221-5.571,4.747,4.747,0,0,1,7.5.083A9.83,9.83,0,0,1,288.144,67.861Zm-6.982,0a11.108,11.108,0,0,0,.454,3.765,1.573,1.573,0,0,0,1.528,1.138,1.589,1.589,0,0,0,1.523-1.152,10.8,10.8,0,0,0,.469-3.75,10.768,10.768,0,0,0-.474-3.774,1.582,1.582,0,0,0-3.042,0A11.088,11.088,0,0,0,281.161,67.861Zm18.4,0a9.952,9.952,0,0,1-1.226,5.537,4.253,4.253,0,0,1-3.774,1.8,4.2,4.2,0,0,1-3.726-1.855,9.811,9.811,0,0,1-1.255-5.479A10.047,10.047,0,0,1,290.8,62.29a4.747,4.747,0,0,1,7.5.083A9.83,9.83,0,0,1,299.56,67.861Zm-6.982,0a11.108,11.108,0,0,0,.454,3.765,1.573,1.573,0,0,0,1.528,1.138,1.589,1.589,0,0,0,1.523-1.152,10.8,10.8,0,0,0,.469-3.75,10.768,10.768,0,0,0-.474-3.774,1.582,1.582,0,0,0-3.042,0A11.088,11.088,0,0,0,292.577,67.861Zm8.291,3V68.418h5.244v2.441Zm16.943,1.182h-1.719V75h-2.949V72.041H307.05v-2.1l6.26-9.219h2.783V69.7h1.719ZM313.144,69.7V67.275q0-.605.049-1.758t.078-1.338h-.078a10.891,10.891,0,0,1-.869,1.563L309.706,69.7Zm15.684-1.836A9.952,9.952,0,0,1,327.6,73.4a4.253,4.253,0,0,1-3.774,1.8A4.2,4.2,0,0,1,320.1,73.34a9.811,9.811,0,0,1-1.255-5.479,10.047,10.047,0,0,1,1.221-5.571,4.747,4.747,0,0,1,7.5.083A9.83,9.83,0,0,1,328.827,67.861Zm-6.982,0a11.108,11.108,0,0,0,.454,3.765,1.573,1.573,0,0,0,1.528,1.138,1.589,1.589,0,0,0,1.523-1.152,10.8,10.8,0,0,0,.469-3.75,10.768,10.768,0,0,0-.474-3.774,1.582,1.582,0,0,0-3.042,0A11.088,11.088,0,0,0,321.845,67.861Zm7.7-3.779H332.8l2.061,6.143a8.522,8.522,0,0,1,.361,1.895h.059a8.372,8.372,0,0,1,.42-1.895l2.021-6.143h3.193L336.3,76.4a5.332,5.332,0,0,1-1.812,2.559,4.572,4.572,0,0,1-2.749.85,6.913,6.913,0,0,1-1.514-.166V77.275a5.092,5.092,0,0,0,1.172.127,2.116,2.116,0,0,0,1.382-.483,3.134,3.134,0,0,0,.923-1.46l.176-.537Zm17.354,5.439a14.717,14.717,0,0,1-.757,4.785,11.446,11.446,0,0,1-2.183,3.857h-2.422a14.1,14.1,0,0,0,2.041-4.028A14.945,14.945,0,0,0,344.3,69.5a15.5,15.5,0,0,0-.7-4.639,14.062,14.062,0,0,0-2.08-4.141h2.441a11.98,11.98,0,0,1,2.188,3.97A15.2,15.2,0,0,1,346.894,69.521Zm14.16-8.8L355.731,75h-2.705l5.322-14.277ZM369.413,75H366.4V66.738l.029-1.357.049-1.484q-.752.752-1.045.986L363.788,66.2l-1.455-1.816,4.6-3.662h2.48Zm13.857-7.139a9.952,9.952,0,0,1-1.226,5.537,4.253,4.253,0,0,1-3.774,1.8,4.2,4.2,0,0,1-3.726-1.855,9.811,9.811,0,0,1-1.255-5.479,10.047,10.047,0,0,1,1.221-5.571,4.747,4.747,0,0,1,7.5.083A9.83,9.83,0,0,1,383.271,67.861Zm-6.982,0a11.108,11.108,0,0,0,.454,3.765,1.573,1.573,0,0,0,1.528,1.138,1.589,1.589,0,0,0,1.523-1.152,10.8,10.8,0,0,0,.469-3.75,10.768,10.768,0,0,0-.474-3.774,1.582,1.582,0,0,0-3.042,0A11.088,11.088,0,0,0,376.288,67.861ZM218.231,96.424l-3.516-5.342h3.379l2.119,3.477,2.139-3.477h3.379l-3.555,5.342L225.9,102h-3.389l-2.295-3.74-2.3,3.74H214.53Zm13.818-2.285V92h9.7v2.139Zm0,3.779V95.779h9.7v2.139ZM250.019,102l5.361-11.719h-7.041V87.742h10.244v1.895L253.183,102Zm19.9-7.139A9.952,9.952,0,0,1,268.7,100.4a4.253,4.253,0,0,1-3.774,1.8,4.2,4.2,0,0,1-3.726-1.855,9.811,9.811,0,0,1-1.255-5.479,10.047,10.047,0,0,1,1.221-5.571,4.747,4.747,0,0,1,7.5.083A9.83,9.83,0,0,1,269.921,94.861Zm-6.982,0a11.108,11.108,0,0,0,.454,3.765,1.573,1.573,0,0,0,1.528,1.138,1.589,1.589,0,0,0,1.523-1.152,10.8,10.8,0,0,0,.469-3.75,10.768,10.768,0,0,0-.474-3.774,1.582,1.582,0,0,0-3.042,0A11.088,11.088,0,0,0,262.938,94.861Zm18.4,0a9.952,9.952,0,0,1-1.226,5.537,4.253,4.253,0,0,1-3.774,1.8,4.2,4.2,0,0,1-3.726-1.855,9.811,9.811,0,0,1-1.255-5.479,10.047,10.047,0,0,1,1.221-5.571,4.747,4.747,0,0,1,7.5.083A9.83,9.83,0,0,1,281.337,94.861Zm-6.982,0a11.108,11.108,0,0,0,.454,3.765,1.573,1.573,0,0,0,1.528,1.138,1.589,1.589,0,0,0,1.523-1.152,10.8,10.8,0,0,0,.469-3.75,10.768,10.768,0,0,0-.474-3.774,1.582,1.582,0,0,0-3.042,0A11.088,11.088,0,0,0,274.354,94.861Zm13.486,3V95.418h5.244v2.441Zm22.139,1.182h-1.719V102h-2.949V99.041h-6.094v-2.1l6.26-9.219h2.783V96.7h1.719ZM305.312,96.7V94.275q0-.605.049-1.758t.078-1.338h-.078a10.891,10.891,0,0,1-.869,1.563L301.874,96.7Zm4.98-5.615h3.262l2.061,6.143a8.522,8.522,0,0,1,.361,1.895h.059a8.372,8.372,0,0,1,.42-1.895l2.021-6.143h3.193L317.05,103.4a5.332,5.332,0,0,1-1.812,2.559,4.572,4.572,0,0,1-2.749.85,6.913,6.913,0,0,1-1.514-.166v-2.363a5.092,5.092,0,0,0,1.172.127,2.116,2.116,0,0,0,1.382-.483,3.134,3.134,0,0,0,.923-1.46l.176-.537Z" transform="translate(-135.741 -6.498)" fill="#00223d"/>
</svg>
