<svg xmlns="http://www.w3.org/2000/svg" width="242.441" height="19.307" viewBox="0 0 242.441 19.307">
  <path id="Trazado_24147" data-name="Trazado 24147" d="M92.68,15.521a15.133,15.133,0,0,1,.757-4.844,12.042,12.042,0,0,1,2.183-3.955h2.441a14.062,14.062,0,0,0-2.08,4.141,15.5,15.5,0,0,0-.7,4.639A15.008,15.008,0,0,0,96,20.126a14,14,0,0,0,2.046,4.038H95.619a11.508,11.508,0,0,1-2.187-3.877A14.741,14.741,0,0,1,92.68,15.521ZM106.918,21H103.9V12.738l.029-1.357.049-1.484q-.752.752-1.045.986L101.293,12.2l-1.455-1.816,4.6-3.662h2.48Zm14.258-2.959h-1.719V21h-2.949V18.041h-6.094v-2.1l6.26-9.219h2.783V15.7h1.719ZM116.508,15.7V13.275q0-.605.049-1.758t.078-1.338h-.078a10.891,10.891,0,0,1-.869,1.563L113.07,15.7Zm5.684-.762q0-4.238,1.792-6.309a6.713,6.713,0,0,1,5.366-2.07,9.737,9.737,0,0,1,1.914.146V9.115a7.821,7.821,0,0,0-1.719-.2,5.9,5.9,0,0,0-2.534.469,3.152,3.152,0,0,0-1.47,1.387,6.368,6.368,0,0,0-.576,2.607h.127a3.315,3.315,0,0,1,3.1-1.66,3.833,3.833,0,0,1,3,1.2,4.776,4.776,0,0,1,1.084,3.32,4.985,4.985,0,0,1-1.289,3.618,4.74,4.74,0,0,1-3.574,1.333,5.113,5.113,0,0,1-2.759-.732,4.757,4.757,0,0,1-1.816-2.139A8.144,8.144,0,0,1,122.191,14.936Zm5.156,3.848a1.787,1.787,0,0,0,1.484-.649,2.906,2.906,0,0,0,.518-1.851,2.554,2.554,0,0,0-.483-1.646,1.762,1.762,0,0,0-1.46-.6,2.237,2.237,0,0,0-1.567.6,1.83,1.83,0,0,0-.649,1.387,3.143,3.143,0,0,0,.61,1.963A1.869,1.869,0,0,0,127.348,18.783Zm16.26-4.922a9.952,9.952,0,0,1-1.226,5.537,4.253,4.253,0,0,1-3.774,1.8,4.2,4.2,0,0,1-3.726-1.855,9.811,9.811,0,0,1-1.255-5.479,10.047,10.047,0,0,1,1.221-5.571,4.747,4.747,0,0,1,7.5.083A9.83,9.83,0,0,1,143.607,13.861Zm-6.982,0a11.108,11.108,0,0,0,.454,3.765,1.573,1.573,0,0,0,1.528,1.138,1.589,1.589,0,0,0,1.523-1.152,10.8,10.8,0,0,0,.469-3.75,10.769,10.769,0,0,0-.474-3.774,1.582,1.582,0,0,0-3.042,0A11.089,11.089,0,0,0,136.625,13.861Zm18.4,0A9.952,9.952,0,0,1,153.8,19.4a4.253,4.253,0,0,1-3.774,1.8A4.2,4.2,0,0,1,146.3,19.34a9.811,9.811,0,0,1-1.255-5.479,10.047,10.047,0,0,1,1.221-5.571,4.747,4.747,0,0,1,7.5.083A9.83,9.83,0,0,1,155.023,13.861Zm-6.982,0a11.108,11.108,0,0,0,.454,3.765,1.573,1.573,0,0,0,1.528,1.138,1.589,1.589,0,0,0,1.523-1.152,10.8,10.8,0,0,0,.469-3.75,10.769,10.769,0,0,0-.474-3.774,1.582,1.582,0,0,0-3.042,0A11.089,11.089,0,0,0,148.041,13.861Zm8.291,3V14.418h5.244v2.441Zm11.836-4.98a4.593,4.593,0,0,1,3.3,1.162,4.177,4.177,0,0,1,1.226,3.184,4.628,4.628,0,0,1-1.475,3.682A6.216,6.216,0,0,1,167,21.2a8.263,8.263,0,0,1-3.848-.771V17.816a8.674,8.674,0,0,0,3.74.928q2.764,0,2.764-2.266,0-2.158-2.861-2.158a7.1,7.1,0,0,0-1.143.1,8.36,8.36,0,0,0-1.016.22l-1.2-.645.537-7.275h7.744V9.281h-5.1l-.264,2.8.342-.068A6.722,6.722,0,0,1,168.168,11.879Zm16.123,1.982a9.952,9.952,0,0,1-1.226,5.537,4.253,4.253,0,0,1-3.774,1.8,4.2,4.2,0,0,1-3.726-1.855,9.811,9.811,0,0,1-1.255-5.479,10.047,10.047,0,0,1,1.221-5.571,4.747,4.747,0,0,1,7.5.083A9.83,9.83,0,0,1,184.291,13.861Zm-6.982,0a11.108,11.108,0,0,0,.454,3.765,1.573,1.573,0,0,0,1.528,1.138,1.589,1.589,0,0,0,1.523-1.152,10.8,10.8,0,0,0,.469-3.75,10.769,10.769,0,0,0-.474-3.774,1.582,1.582,0,0,0-3.042,0A11.089,11.089,0,0,0,177.309,13.861Zm7.7-3.779h3.262l2.061,6.143a8.523,8.523,0,0,1,.361,1.895h.059a8.372,8.372,0,0,1,.42-1.895l2.021-6.143h3.193L191.762,22.4a5.332,5.332,0,0,1-1.812,2.559,4.572,4.572,0,0,1-2.749.85,6.913,6.913,0,0,1-1.514-.166V23.275a5.092,5.092,0,0,0,1.172.127,2.116,2.116,0,0,0,1.382-.483,3.134,3.134,0,0,0,.923-1.46l.176-.537Zm17.354,5.439a14.716,14.716,0,0,1-.757,4.785,11.446,11.446,0,0,1-2.183,3.857H197a14.1,14.1,0,0,0,2.041-4.028,14.946,14.946,0,0,0,.723-4.634,15.5,15.5,0,0,0-.7-4.639,14.062,14.062,0,0,0-2.08-4.141h2.441a11.98,11.98,0,0,1,2.188,3.97A15.2,15.2,0,0,1,202.357,15.521Zm14.16-8.8L211.2,21H208.49l5.322-14.277ZM226.84,9.916a3.36,3.36,0,0,1-.811,2.275,4.2,4.2,0,0,1-2.275,1.289v.059a4.547,4.547,0,0,1,2.617,1.05,2.941,2.941,0,0,1,.889,2.251,3.814,3.814,0,0,1-1.494,3.208A6.887,6.887,0,0,1,221.5,21.2a10.362,10.362,0,0,1-4.121-.771V17.855a9.314,9.314,0,0,0,1.826.684,7.685,7.685,0,0,0,1.973.264,3.836,3.836,0,0,0,2.207-.508,1.864,1.864,0,0,0,.713-1.631,1.473,1.473,0,0,0-.82-1.426,6.069,6.069,0,0,0-2.617-.42h-1.084V12.5h1.1a5.132,5.132,0,0,0,2.427-.435,1.569,1.569,0,0,0,.767-1.489q0-1.621-2.031-1.621a4.649,4.649,0,0,0-1.431.234,6.989,6.989,0,0,0-1.616.811l-1.4-2.08a7.759,7.759,0,0,1,4.658-1.406,6.015,6.015,0,0,1,3.5.9A2.881,2.881,0,0,1,226.84,9.916ZM238.813,21h-9.98V18.9l3.584-3.623q1.592-1.631,2.08-2.261a4.972,4.972,0,0,0,.7-1.167,2.971,2.971,0,0,0,.215-1.113,1.622,1.622,0,0,0-.474-1.279,1.837,1.837,0,0,0-1.265-.42,3.637,3.637,0,0,0-1.611.381,8.316,8.316,0,0,0-1.631,1.084l-1.641-1.943a10.7,10.7,0,0,1,1.748-1.27,6.417,6.417,0,0,1,1.514-.571,7.756,7.756,0,0,1,1.836-.2,5.436,5.436,0,0,1,2.363.488,3.77,3.77,0,0,1,1.592,1.367,3.632,3.632,0,0,1,.566,2.012,4.924,4.924,0,0,1-.347,1.851,7.105,7.105,0,0,1-1.074,1.772,26.263,26.263,0,0,1-2.563,2.588l-1.836,1.729v.137h6.221Zm6.689-7.861V11h9.7v2.139Zm0,3.779V14.779h9.7v2.139ZM263.471,21l5.361-11.719h-7.041V6.742h10.244V8.637L266.635,21Zm19.9-7.139a9.952,9.952,0,0,1-1.226,5.537,4.253,4.253,0,0,1-3.774,1.8,4.2,4.2,0,0,1-3.726-1.855,9.811,9.811,0,0,1-1.255-5.479,10.047,10.047,0,0,1,1.221-5.571,4.747,4.747,0,0,1,7.5.083A9.83,9.83,0,0,1,283.373,13.861Zm-6.982,0a11.108,11.108,0,0,0,.454,3.765,1.573,1.573,0,0,0,1.528,1.138,1.589,1.589,0,0,0,1.523-1.152,10.8,10.8,0,0,0,.469-3.75,10.768,10.768,0,0,0-.474-3.774,1.582,1.582,0,0,0-3.042,0A11.088,11.088,0,0,0,276.391,13.861Zm18.4,0a9.952,9.952,0,0,1-1.226,5.537,4.253,4.253,0,0,1-3.774,1.8,4.2,4.2,0,0,1-3.726-1.855,9.811,9.811,0,0,1-1.255-5.479,10.047,10.047,0,0,1,1.221-5.571,4.747,4.747,0,0,1,7.5.083A9.83,9.83,0,0,1,294.789,13.861Zm-6.982,0a11.108,11.108,0,0,0,.454,3.765,1.573,1.573,0,0,0,1.528,1.138,1.589,1.589,0,0,0,1.523-1.152,10.8,10.8,0,0,0,.469-3.75,10.768,10.768,0,0,0-.474-3.774,1.582,1.582,0,0,0-3.042,0A11.088,11.088,0,0,0,287.807,13.861Zm13.486,3V14.418h5.244v2.441Zm22.139,1.182h-1.719V21h-2.949V18.041H312.67v-2.1l6.26-9.219h2.783V15.7h1.719ZM318.764,15.7V13.275q0-.605.049-1.758t.078-1.338h-.078a10.891,10.891,0,0,1-.869,1.563L315.326,15.7Zm4.98-5.615h3.262l2.061,6.143a8.522,8.522,0,0,1,.361,1.895h.059a8.372,8.372,0,0,1,.42-1.895l2.021-6.143h3.193L330.5,22.4a5.332,5.332,0,0,1-1.812,2.559,4.572,4.572,0,0,1-2.749.85,6.913,6.913,0,0,1-1.514-.166V23.275a5.091,5.091,0,0,0,1.172.127,2.116,2.116,0,0,0,1.382-.483,3.134,3.134,0,0,0,.923-1.46l.176-.537Z" transform="translate(-92.68 -6.498)" fill="#00223d"/>
</svg>
