<svg xmlns="http://www.w3.org/2000/svg" width="131.9" height="53.28" viewBox="0 0 131.9 53.28">
  <g id="Grupo_14488" data-name="Grupo 14488" transform="translate(-595.1 -1305.76)">
    <path id="Trazado_24174" data-name="Trazado 24174" d="M-1.74,0-6.96-7.24-2.08-14h-3.5L-8.74-9.46-11.96-14h-3.68l4.92,6.88L-15.9,0h3.72l3.32-4.86L-5.48,0ZM5.22-8.26h9.52V-10.7H5.22Zm0,4.96h9.52V-5.74H5.22Z" transform="translate(611 1337)" fill="#00223d"/>
    <path id="Trazado_24173" data-name="Trazado 24173" d="M-12.43-8.78a4.725,4.725,0,0,0-3.46,1.24c.1-2.68,1.6-4.06,3.94-4.06a4.611,4.611,0,0,1,2.62.7l1.2-2.38a7.559,7.559,0,0,0-3.9-.96c-4.22,0-7.14,2.7-7.14,7.54,0,4.52,2.4,6.94,6.26,6.94,2.96,0,5.3-1.8,5.3-4.66C-7.61-7.06-9.73-8.78-12.43-8.78Zm-.66,6.6c-1.56,0-2.46-.88-2.46-2.08a2.19,2.19,0,0,1,2.42-2.1,2.111,2.111,0,0,1,2.38,2.1A2.093,2.093,0,0,1-13.09-2.18ZM-.43.24c3.46,0,6-2.62,6-7.24s-2.54-7.24-6-7.24c-3.44,0-6,2.62-6,7.24S-3.87.24-.43.24Zm0-2.74c-1.6,0-2.72-1.32-2.72-4.5s1.12-4.5,2.72-4.5c1.62,0,2.74,1.32,2.74,4.5S1.19-2.5-.43-2.5ZM13.15.24c3.46,0,6-2.62,6-7.24s-2.54-7.24-6-7.24c-3.44,0-6,2.62-6,7.24S9.71.24,13.15.24Zm0-2.74c-1.6,0-2.72-1.32-2.72-4.5s1.12-4.5,2.72-4.5c1.62,0,2.74,1.32,2.74,4.5S14.77-2.5,13.15-2.5Z" transform="translate(692 1320)" fill="#00223d"/>
    <path id="Trazado_24172" data-name="Trazado 24172" d="M-35,1.8h10V0H-35Zm10,0h10V0H-25Zm10,0H-5V0H-15Zm10,0H5V0H-5Zm10,0H15V0H5Zm10,0H25V0H15Zm10,0H35V0H25ZM3.14,13.24.1,20.54l-3.02-7.3H-6.14l4.66,10.84-.04.1c-.42.96-.9,1.34-1.76,1.34a2.766,2.766,0,0,1-1.76-.68l-1.14,2.22a4.778,4.778,0,0,0,3,.98c1.94,0,3.42-.78,4.46-3.38L6.14,13.24Z" transform="translate(692 1331)" fill="#00223d"/>
    <line id="Línea_561" data-name="Línea 561" x1="6" transform="translate(674.5 1306.5)" fill="none" stroke="#707070" stroke-width="0.1"/>
  </g>
</svg>
