<svg xmlns="http://www.w3.org/2000/svg" width="180.12" height="53.28" viewBox="0 0 180.12 53.28">
  <g id="Grupo_14495" data-name="Grupo 14495" transform="translate(-570.88 -1500.76)">
    <path id="Trazado_24177" data-name="Trazado 24177" d="M-64.96,0l-5.22-7.24L-65.3-14h-3.5l-3.16,4.54L-75.18-14h-3.68l4.92,6.88L-79.12,0h3.72l3.32-4.86L-68.7,0Zm16.48-8.22h-3.48v-3.4h-2.58v3.4H-58v2.44h3.46v3.4h2.58v-3.4h3.48Zm7.4-5.78v4.92h2.88v-2.28h4.64L-38.58,0h3.52l5.2-11.9V-14Zm17.12,5.26H-25.1l.22-2.66h5.84V-14h-8.54l-.72,7.88h3.58c2.54,0,3.26.72,3.26,1.82,0,1.14-1,1.82-2.62,1.82a6.738,6.738,0,0,1-3.98-1.26l-1.28,2.48A9.674,9.674,0,0,0-24,.24c4,0,5.82-2.16,5.82-4.64S-19.82-8.74-23.96-8.74Zm13.22.48h9.52V-10.7h-9.52Zm0,4.96h9.52V-5.74h-9.52Z" transform="translate(650 1532)" fill="#00223d"/>
    <path id="Trazado_24176" data-name="Trazado 24176" d="M-12.43-8.78a4.725,4.725,0,0,0-3.46,1.24c.1-2.68,1.6-4.06,3.94-4.06a4.611,4.611,0,0,1,2.62.7l1.2-2.38a7.559,7.559,0,0,0-3.9-.96c-4.22,0-7.14,2.7-7.14,7.54,0,4.52,2.4,6.94,6.26,6.94,2.96,0,5.3-1.8,5.3-4.66C-7.61-7.06-9.73-8.78-12.43-8.78Zm-.66,6.6c-1.56,0-2.46-.88-2.46-2.08a2.19,2.19,0,0,1,2.42-2.1,2.111,2.111,0,0,1,2.38,2.1A2.093,2.093,0,0,1-13.09-2.18ZM-.43.24c3.46,0,6-2.62,6-7.24s-2.54-7.24-6-7.24c-3.44,0-6,2.62-6,7.24S-3.87.24-.43.24Zm0-2.74c-1.6,0-2.72-1.32-2.72-4.5s1.12-4.5,2.72-4.5c1.62,0,2.74,1.32,2.74,4.5S1.19-2.5-.43-2.5ZM13.15.24c3.46,0,6-2.62,6-7.24s-2.54-7.24-6-7.24c-3.44,0-6,2.62-6,7.24S9.71.24,13.15.24Zm0-2.74c-1.6,0-2.72-1.32-2.72-4.5s1.12-4.5,2.72-4.5c1.62,0,2.74,1.32,2.74,4.5S14.77-2.5,13.15-2.5Z" transform="translate(716 1515)" fill="#00223d"/>
    <path id="Trazado_24175" data-name="Trazado 24175" d="M-35,1.8h10V0H-35Zm10,0h10V0H-25Zm10,0H-5V0H-15Zm10,0H5V0H-5Zm10,0H15V0H5Zm10,0H25V0H15Zm10,0H35V0H25ZM-13.27,13.24l-3.04,7.3-3.02-7.3h-3.22l4.66,10.84-.04.1c-.42.96-.9,1.34-1.76,1.34a2.766,2.766,0,0,1-1.76-.68l-1.14,2.22a4.778,4.778,0,0,0,3,.98c1.94,0,3.42-.78,4.46-3.38l4.86-11.42Zm9.54,6.38H1.93v-2.5H-3.73Zm25.94-1.2H19.93V15.8H16.87v2.62H13.11L19.23,10h-3.4l-6.6,8.88v2.18h7.54V24h3.16V21.06h2.28Z" transform="translate(716 1526)" fill="#00223d"/>
    <line id="Línea_562" data-name="Línea 562" x1="6" transform="translate(698.5 1501.5)" fill="none" stroke="#707070" stroke-width="0.1"/>
  </g>
</svg>
