<svg xmlns="http://www.w3.org/2000/svg" width="124.628" height="20.252" viewBox="0 0 124.628 20.252">
  <g id="Grupo_14491" data-name="Grupo 14491" transform="translate(-677.83 -2321.552)">
    <path id="Trazado_24190" data-name="Trazado 24190" d="M150.83,10.082h3.262l2.061,6.143a8.523,8.523,0,0,1,.361,1.895h.059a8.372,8.372,0,0,1,.42-1.895l2.021-6.143h3.193L157.588,22.4a5.332,5.332,0,0,1-1.812,2.559,4.572,4.572,0,0,1-2.749.85,6.913,6.913,0,0,1-1.514-.166V23.275a5.092,5.092,0,0,0,1.172.127,2.116,2.116,0,0,0,1.382-.483,3.134,3.134,0,0,0,.923-1.46l.176-.537ZM168.5,14h-5.822V12.775l2.091-2.113q.929-.951,1.213-1.319a2.9,2.9,0,0,0,.41-.681,1.733,1.733,0,0,0,.125-.649.946.946,0,0,0-.276-.746,1.071,1.071,0,0,0-.738-.245,2.121,2.121,0,0,0-.94.222,4.85,4.85,0,0,0-.951.632l-.957-1.134A6.244,6.244,0,0,1,163.671,6a3.743,3.743,0,0,1,.883-.333,4.524,4.524,0,0,1,1.071-.117A3.171,3.171,0,0,1,167,5.837a2.2,2.2,0,0,1,.928.8,2.118,2.118,0,0,1,.33,1.173,2.872,2.872,0,0,1-.2,1.079,4.145,4.145,0,0,1-.627,1.034,15.318,15.318,0,0,1-1.5,1.51l-1.071,1.008v.08H168.5Zm6.161,2.859V14.418H179.9v2.441ZM196.8,18.041h-1.719V21h-2.949V18.041h-6.094v-2.1l6.26-9.219h2.783V15.7H196.8ZM192.127,15.7V13.275q0-.605.049-1.758t.078-1.338h-.078a10.891,10.891,0,0,1-.869,1.563L188.69,15.7Zm4.98-5.615h3.262l2.061,6.143a8.523,8.523,0,0,1,.361,1.895h.059a8.372,8.372,0,0,1,.42-1.895l2.021-6.143h3.193L203.866,22.4a5.332,5.332,0,0,1-1.812,2.559,4.572,4.572,0,0,1-2.749.85,6.913,6.913,0,0,1-1.514-.166V23.275a5.092,5.092,0,0,0,1.172.127,2.116,2.116,0,0,0,1.382-.483,3.134,3.134,0,0,0,.923-1.46l.176-.537Zm17.168,6.777V14.418h5.244v2.441ZM230.34,9.916a3.36,3.36,0,0,1-.811,2.275,4.2,4.2,0,0,1-2.275,1.289v.059a4.547,4.547,0,0,1,2.617,1.05,2.941,2.941,0,0,1,.889,2.251,3.814,3.814,0,0,1-1.494,3.208A6.887,6.887,0,0,1,225,21.2a10.362,10.362,0,0,1-4.121-.771V17.855a9.314,9.314,0,0,0,1.826.684,7.685,7.685,0,0,0,1.973.264,3.836,3.836,0,0,0,2.207-.508,1.864,1.864,0,0,0,.713-1.631,1.473,1.473,0,0,0-.82-1.426,6.069,6.069,0,0,0-2.617-.42h-1.084V12.5h1.1a5.132,5.132,0,0,0,2.427-.435,1.569,1.569,0,0,0,.767-1.489q0-1.621-2.031-1.621a4.649,4.649,0,0,0-1.431.234,6.989,6.989,0,0,0-1.616.811l-1.4-2.08a7.759,7.759,0,0,1,4.658-1.406,6.015,6.015,0,0,1,3.5.9A2.881,2.881,0,0,1,230.34,9.916ZM242.313,21h-9.98V18.9l3.584-3.623q1.592-1.631,2.08-2.261a4.972,4.972,0,0,0,.7-1.167,2.971,2.971,0,0,0,.215-1.113,1.622,1.622,0,0,0-.474-1.279,1.837,1.837,0,0,0-1.265-.42,3.637,3.637,0,0,0-1.611.381,8.316,8.316,0,0,0-1.631,1.084l-1.641-1.943a10.7,10.7,0,0,1,1.748-1.27,6.417,6.417,0,0,1,1.514-.571,7.756,7.756,0,0,1,1.836-.2,5.436,5.436,0,0,1,2.363.488,3.77,3.77,0,0,1,1.592,1.367,3.632,3.632,0,0,1,.566,2.012,4.924,4.924,0,0,1-.347,1.851,7.105,7.105,0,0,1-1.074,1.772,26.263,26.263,0,0,1-2.563,2.588l-1.836,1.729v.137h6.221ZM249,13.139V11h9.7v2.139Zm0,3.779V14.779h9.7v2.139Zm26.455-3.057a9.952,9.952,0,0,1-1.226,5.537,4.253,4.253,0,0,1-3.774,1.8,4.2,4.2,0,0,1-3.726-1.855,9.811,9.811,0,0,1-1.255-5.479A10.047,10.047,0,0,1,266.7,8.29a4.747,4.747,0,0,1,7.5.083A9.83,9.83,0,0,1,275.457,13.861Zm-6.982,0a11.108,11.108,0,0,0,.454,3.765,1.573,1.573,0,0,0,1.528,1.138,1.589,1.589,0,0,0,1.523-1.152,10.8,10.8,0,0,0,.469-3.75,10.768,10.768,0,0,0-.474-3.774,1.582,1.582,0,0,0-3.042,0A11.088,11.088,0,0,0,268.475,13.861Z" transform="translate(527 2316)" fill="#00223d"/>
  </g>
</svg>
