<svg xmlns="http://www.w3.org/2000/svg" width="865" height="56.88" viewBox="0 0 865 56.88">
  <g id="Grupo_14489" data-name="Grupo 14489" transform="translate(-268 -2625)">
    <path id="Trazado_24195" data-name="Trazado 24195" d="M-90,1.8h10V0H-90Zm10,0h10V0H-80Zm10,0h10V0H-70Zm10,0h10V0H-60Zm10,0h10V0H-50Zm10,0h10V0H-40Zm10,0h10V0H-30Zm10,0h10V0H-20Zm10,0H0V0H-10Zm10,0H10V0H0Zm10,0H20V0H10Zm10,0H30V0H20Zm10,0H40V0H30Zm10,0H50V0H40Zm10,0H60V0H50Zm10,0H70V0H60Zm10,0H80V0H70Zm10,0H90V0H80ZM-11.85,21.36l3.22-3.04c1.96-1.82,2.34-3.06,2.34-4.42,0-2.54-2.08-4.14-5.2-4.14a6.5,6.5,0,0,0-5.56,2.6l2.36,1.52a3.423,3.423,0,0,1,2.9-1.4c1.48,0,2.24.64,2.24,1.74,0,.68-.22,1.4-1.46,2.58l-5.4,5.1V24H-5.83V21.36Zm10.54,6.52H1.67A18.272,18.272,0,0,1-.75,18.52,18.272,18.272,0,0,1,1.67,9.16H-1.31a16.915,16.915,0,0,0-2.5,9.36A17.011,17.011,0,0,0-1.31,27.88ZM2.21,10v2.6h2.8V24H8.25V10ZM13.09,27.88a16.688,16.688,0,0,0,2.52-9.36,16.6,16.6,0,0,0-2.52-9.36H10.11a18.1,18.1,0,0,1,2.44,9.36,18.1,18.1,0,0,1-2.44,9.36Z" transform="translate(398 2654)" fill="#00223d"/>
    <path id="Trazado_24199" data-name="Trazado 24199" d="M-60,1.8h10V0H-60Zm10,0h10V0H-50Zm10,0h10V0H-40Zm10,0h10V0H-30Zm10,0h10V0H-20Zm10,0H0V0H-10Zm10,0H10V0H0Zm10,0H20V0H10Zm10,0H30V0H20Zm10,0H40V0H30Zm10,0H50V0H40Zm10,0H60V0H50ZM-.68,21.36l3.22-3.04C4.5,16.5,4.88,15.26,4.88,13.9c0-2.54-2.08-4.14-5.2-4.14a6.5,6.5,0,0,0-5.56,2.6l2.36,1.52a3.423,3.423,0,0,1,2.9-1.4c1.48,0,2.24.64,2.24,1.74,0,.68-.22,1.4-1.46,2.58l-5.4,5.1V24H5.34V21.36Z" transform="translate(653 2654)" fill="#00223d"/>
    <path id="Trazado_24204" data-name="Trazado 24204" d="M-50,1.8h10V0H-50Zm10,0h10V0H-40Zm10,0h10V0H-30Zm10,0h10V0H-20Zm10,0H0V0H-10Zm10,0H10V0H0Zm10,0H20V0H10Zm10,0H30V0H20Zm10,0H40V0H30Zm10,0H50V0H40ZM-.68,21.36l3.22-3.04C4.5,16.5,4.88,15.26,4.88,13.9c0-2.54-2.08-4.14-5.2-4.14a6.5,6.5,0,0,0-5.56,2.6l2.36,1.52a3.423,3.423,0,0,1,2.9-1.4c1.48,0,2.24.64,2.24,1.74,0,.68-.22,1.4-1.46,2.58l-5.4,5.1V24H5.34V21.36Z" transform="translate(868 2654)" fill="#00223d"/>
    <path id="Trazado_24208" data-name="Trazado 24208" d="M-50,1.8h10V0H-50Zm10,0h10V0H-40Zm10,0h10V0H-30Zm10,0h10V0H-20Zm10,0H0V0H-10Zm10,0H10V0H0Zm10,0H20V0H10Zm10,0H30V0H20Zm10,0H40V0H30Zm10,0H50V0H40ZM-.68,21.36l3.22-3.04C4.5,16.5,4.88,15.26,4.88,13.9c0-2.54-2.08-4.14-5.2-4.14a6.5,6.5,0,0,0-5.56,2.6l2.36,1.52a3.423,3.423,0,0,1,2.9-1.4c1.48,0,2.24.64,2.24,1.74,0,.68-.22,1.4-1.46,2.58l-5.4,5.1V24H5.34V21.36Z" transform="translate(1083 2654)" fill="#00223d"/>
    <path id="Trazado_24194" data-name="Trazado 24194" d="M-86.87-4.38h5.66v-2.5h-5.66Zm20.36-1.2h-2.28V-8.2h-3.06v2.62h-3.76L-69.49-14h-3.4l-6.6,8.88v2.18h7.54V0h3.16V-2.94h2.28Zm7.46-4.22v-3.28h-2.58V-9.8h-3.46v2.36h3.46v3.28h2.58V-7.44h3.48V-9.8ZM-65.09,0h9.52V-2.44h-9.52Zm24.42-14.84L-45.51-.02l-2.68-8.2h-4.92V-5.8h2.62l3.36,9.68h3.22l6.14-18.72Zm16.32,9.26h-2.28V-8.2h-3.06v2.62h-3.76L-27.33-14h-3.4l-6.6,8.88v2.18h7.54V0h3.16V-2.94h2.28Zm5.36,2.94,3.22-3.04c1.96-1.82,2.34-3.06,2.34-4.42,0-2.54-2.08-4.14-5.2-4.14a6.5,6.5,0,0,0-5.56,2.6l2.36,1.52a3.423,3.423,0,0,1,2.9-1.4c1.48,0,2.24.64,2.24,1.74,0,.68-.22,1.4-1.46,2.58l-5.4,5.1V0h10.58V-2.64ZM-5.71-4.38H-.05v-2.5H-5.71Zm25.94-1.2H17.95V-8.2H14.89v2.62H11.13L17.25-14h-3.4L7.25-5.12v2.18h7.54V0h3.16V-2.94h2.28Zm4.14,9.46h2.98a18.272,18.272,0,0,1-2.42-9.36,18.272,18.272,0,0,1,2.42-9.36H24.37a16.915,16.915,0,0,0-2.5,9.36A17.011,17.011,0,0,0,24.37,3.88ZM27.89-14v2.6h2.8V0h3.24V-14ZM38.77,3.88a16.688,16.688,0,0,0,2.52-9.36,16.6,16.6,0,0,0-2.52-9.36H35.79a18.1,18.1,0,0,1,2.44,9.36,18.1,18.1,0,0,1-2.44,9.36Zm7.94,0h2.98a18.272,18.272,0,0,1-2.42-9.36,18.272,18.272,0,0,1,2.42-9.36H46.71a16.915,16.915,0,0,0-2.5,9.36A17.011,17.011,0,0,0,46.71,3.88Zm4.22-8.26h5.66v-2.5H50.93ZM64.53-8.3l3.16-3.6V-14h-9.8v2.6h5.96L60.97-8.14V-6h1.48c1.84,0,2.62.66,2.62,1.72,0,1.14-1,1.8-2.62,1.8a6.8,6.8,0,0,1-4-1.26L57.19-1.26A9.626,9.626,0,0,0,62.53.24c3.98,0,5.8-2.16,5.8-4.52C68.33-6.34,67.05-7.9,64.53-8.3Zm9.64,5.66,3.22-3.04c1.96-1.82,2.34-3.06,2.34-4.42,0-2.54-2.08-4.14-5.2-4.14a6.5,6.5,0,0,0-5.56,2.6l2.36,1.52a3.423,3.423,0,0,1,2.9-1.4c1.48,0,2.24.64,2.24,1.74,0,.68-.22,1.4-1.46,2.58l-5.4,5.1V0H80.19V-2.64Zm9.76,6.52a16.688,16.688,0,0,0,2.52-9.36,16.6,16.6,0,0,0-2.52-9.36H80.95a18.1,18.1,0,0,1,2.44,9.36,18.1,18.1,0,0,1-2.44,9.36Z" transform="translate(397 2643)" fill="#00223d"/>
    <path id="Trazado_24198" data-name="Trazado 24198" d="M-62.3-4.38h5.66v-2.5H-62.3Zm20.36-1.2h-2.28V-8.2h-3.06v2.62h-3.76L-44.92-14h-3.4l-6.6,8.88v2.18h7.54V0h3.16V-2.94h2.28Zm7.46-4.22v-3.28h-2.58V-9.8h-3.46v2.36h3.46v3.28h2.58V-7.44H-31V-9.8ZM-40.52,0H-31V-2.44h-9.52ZM-16.1-14.84-20.94-.02l-2.68-8.2h-4.92V-5.8h2.62l3.36,9.68h3.22l6.14-18.72Zm2.86.84v2.6h2.8V0H-7.2V-14ZM1.98-8.78A4.725,4.725,0,0,0-1.48-7.54c.1-2.68,1.6-4.06,3.94-4.06a4.611,4.611,0,0,1,2.62.7l1.2-2.38a7.559,7.559,0,0,0-3.9-.96c-4.22,0-7.14,2.7-7.14,7.54C-4.76-2.18-2.36.24,1.5.24c2.96,0,5.3-1.8,5.3-4.66C6.8-7.06,4.68-8.78,1.98-8.78Zm-.66,6.6c-1.56,0-2.46-.88-2.46-2.08a2.19,2.19,0,0,1,2.42-2.1,2.111,2.111,0,0,1,2.38,2.1A2.093,2.093,0,0,1,1.32-2.18Zm22.3-6.04H20.14v-3.4H17.56v3.4H14.1v2.44h3.46v3.4h2.58v-3.4h3.48ZM30.64-14v2.6h2.8V0h3.24V-14ZM43.56-2.64l3.22-3.04c1.96-1.82,2.34-3.06,2.34-4.42,0-2.54-2.08-4.14-5.2-4.14a6.5,6.5,0,0,0-5.56,2.6l2.36,1.52a3.423,3.423,0,0,1,2.9-1.4c1.48,0,2.24.64,2.24,1.74,0,.68-.22,1.4-1.46,2.58L39-2.1V0H49.58V-2.64ZM60.5-7.36a3.251,3.251,0,0,0,1.64-2.88c0-2.46-2.2-4-5.42-4-3.18,0-5.38,1.54-5.38,4a3.234,3.234,0,0,0,1.62,2.88,3.559,3.559,0,0,0-2.12,3.3c0,2.64,2.34,4.3,5.88,4.3,3.56,0,5.92-1.66,5.92-4.3A3.546,3.546,0,0,0,60.5-7.36Zm-3.78-4.5c1.32,0,2.2.66,2.2,1.76,0,1.06-.86,1.72-2.2,1.72-1.32,0-2.16-.66-2.16-1.72C54.56-11.2,55.42-11.86,56.72-11.86Zm0,9.72c-1.6,0-2.6-.78-2.6-2.02s1-2,2.6-2c1.62,0,2.64.76,2.64,2S58.34-2.14,56.72-2.14Z" transform="translate(652 2643)" fill="#00223d"/>
    <path id="Trazado_24203" data-name="Trazado 24203" d="M-41.64-4.38h5.66v-2.5h-5.66Zm20.36-1.2h-2.28V-8.2h-3.06v2.62h-3.76L-24.26-14h-3.4l-6.6,8.88v2.18h7.54V0h3.16V-2.94h2.28Zm7.46-4.22v-3.28H-16.4V-9.8h-3.46v2.36h3.46v3.28h2.58V-7.44h3.48V-9.8ZM-19.86,0h9.52V-2.44h-9.52ZM4.56-14.84-.28-.02l-2.68-8.2H-7.88V-5.8h2.62L-1.9,3.88H1.32L7.46-14.84ZM7.42-14v2.6h2.8V0h3.24V-14Zm21.3,8.42H26.44V-8.2H23.38v2.62H19.62L25.74-14h-3.4l-6.6,8.88v2.18h7.54V0h3.16V-2.94h2.28Zm13.78,0H40.22V-8.2H37.16v2.62H33.4L39.52-14h-3.4l-6.6,8.88v2.18h7.54V0h3.16V-2.94H42.5Z" transform="translate(867 2643)" fill="#00223d"/>
    <path id="Trazado_24207" data-name="Trazado 24207" d="M-25.56-4.38h5.66v-2.5h-5.66ZM-5.2-5.58H-7.48V-8.2h-3.06v2.62H-14.3L-8.18-14h-3.4l-6.6,8.88v2.18h7.54V0h3.16V-2.94H-5.2ZM2.26-9.8v-3.28H-.32V-9.8H-3.78v2.36H-.32v3.28H2.26V-7.44H5.74V-9.8ZM-3.78,0H5.74V-2.44H-3.78ZM7.1-14v2.6H9.9V0h3.24V-14ZM20.02-2.64l3.22-3.04c1.96-1.82,2.34-3.06,2.34-4.42,0-2.54-2.08-4.14-5.2-4.14a6.5,6.5,0,0,0-5.56,2.6l2.36,1.52a3.423,3.423,0,0,1,2.9-1.4c1.48,0,2.24.64,2.24,1.74,0,.68-.22,1.4-1.46,2.58l-5.4,5.1V0H26.04V-2.64Z" transform="translate(1082 2643)" fill="#00223d"/>
    <path id="Trazado_24196" data-name="Trazado 24196" d="M-5.68-10.76l-3.04,7.3-3.02-7.3h-3.22L-10.3.08l-.04.1c-.42.96-.9,1.34-1.76,1.34A2.766,2.766,0,0,1-13.86.84L-15,3.06a4.778,4.778,0,0,0,3,.98c1.94,0,3.42-.78,4.46-3.38l4.86-11.42Zm9.74,2.5h9.52V-10.7H4.06Zm0,4.96h9.52V-5.74H4.06Z" transform="translate(283 2660)" fill="#00223d"/>
    <path id="Trazado_24197" data-name="Trazado 24197" d="M-5.68-10.76l-3.04,7.3-3.02-7.3h-3.22L-10.3.08l-.04.1c-.42.96-.9,1.34-1.76,1.34A2.766,2.766,0,0,1-13.86.84L-15,3.06a4.778,4.778,0,0,0,3,.98c1.94,0,3.42-.78,4.46-3.38l4.86-11.42Zm9.74,2.5h9.52V-10.7H4.06Zm0,4.96h9.52V-5.74H4.06Z" transform="translate(538 2660)" fill="#00223d"/>
    <path id="Trazado_24202" data-name="Trazado 24202" d="M-5.68-10.76l-3.04,7.3-3.02-7.3h-3.22L-10.3.08l-.04.1c-.42.96-.9,1.34-1.76,1.34A2.766,2.766,0,0,1-13.86.84L-15,3.06a4.778,4.778,0,0,0,3,.98c1.94,0,3.42-.78,4.46-3.38l4.86-11.42Zm9.74,2.5h9.52V-10.7H4.06Zm0,4.96h9.52V-5.74H4.06Z" transform="translate(793 2660)" fill="#00223d"/>
    <path id="Trazado_24205" data-name="Trazado 24205" d="M-5.68-10.76l-3.04,7.3-3.02-7.3h-3.22L-10.3.08l-.04.1c-.42.96-.9,1.34-1.76,1.34A2.766,2.766,0,0,1-13.86.84L-15,3.06a4.778,4.778,0,0,0,3,.98c1.94,0,3.42-.78,4.46-3.38l4.86-11.42Zm9.74,2.5h9.52V-10.7H4.06Zm0,4.96h9.52V-5.74H4.06Z" transform="translate(1008 2660)" fill="#00223d"/>
    <path id="Trazado_24201" data-name="Trazado 24201" d="M0-7.02A1.909,1.909,0,0,0,1.94-8.98,1.864,1.864,0,0,0,0-10.9,1.864,1.864,0,0,0-1.94-8.98,1.909,1.909,0,0,0,0-7.02Zm.02,3.3A1.853,1.853,0,0,0-1.92-1.8,1.735,1.735,0,0,0-.84-.1l-.88,3.18H.26L1.4.2a4.65,4.65,0,0,0,.54-2A1.837,1.837,0,0,0,.02-3.72Z" transform="translate(510 2660)" fill="#00223d"/>
    <path id="Trazado_24200" data-name="Trazado 24200" d="M0-7.02A1.909,1.909,0,0,0,1.94-8.98,1.864,1.864,0,0,0,0-10.9,1.864,1.864,0,0,0-1.94-8.98,1.909,1.909,0,0,0,0-7.02Zm.02,3.3A1.853,1.853,0,0,0-1.92-1.8,1.735,1.735,0,0,0-.84-.1l-.88,3.18H.26L1.4.2a4.65,4.65,0,0,0,.54-2A1.837,1.837,0,0,0,.02-3.72Z" transform="translate(765 2660)" fill="#00223d"/>
    <path id="Trazado_24206" data-name="Trazado 24206" d="M0-7.02A1.909,1.909,0,0,0,1.94-8.98,1.864,1.864,0,0,0,0-10.9,1.864,1.864,0,0,0-1.94-8.98,1.909,1.909,0,0,0,0-7.02Zm.02,3.3A1.853,1.853,0,0,0-1.92-1.8,1.735,1.735,0,0,0-.84-.1l-.88,3.18H.26L1.4.2a4.65,4.65,0,0,0,.54-2A1.837,1.837,0,0,0,.02-3.72Z" transform="translate(980 2660)" fill="#00223d"/>
    <path id="Trazado_24130" data-name="Trazado 24130" d="M-.244,0H55V2H2L1.569,3.154H-1.29Z" transform="translate(387 2625)" fill="#00223d"/>
    <path id="Trazado_24133" data-name="Trazado 24133" d="M-.244,0H78V2H2L1.569,3.154H-1.29Z" transform="translate(637 2625)" fill="#00223d"/>
    <path id="Trazado_24134" data-name="Trazado 24134" d="M-.244,0H40V2H2L1.569,3.154H-1.29Z" transform="translate(873 2625)" fill="#00223d"/>
    <line id="Línea_559" data-name="Línea 559" x1="6" transform="translate(386.5 2629.5)" fill="none" stroke="#707070" stroke-width="0.1"/>
    <line id="Línea_567" data-name="Línea 567" x1="6" transform="translate(641.5 2629.5)" fill="none" stroke="#707070" stroke-width="0.1"/>
    <line id="Línea_568" data-name="Línea 568" x1="6" transform="translate(856.5 2629.5)" fill="none" stroke="#707070" stroke-width="0.1"/>
    <line id="Línea_569" data-name="Línea 569" x1="6" transform="translate(1071.5 2629.5)" fill="none" stroke="#707070" stroke-width="0.1"/>
  </g>
</svg>
