<svg xmlns="http://www.w3.org/2000/svg" width="292.523" height="51.382" viewBox="0 0 292.523 51.382">
  <g id="Grupo_14536" data-name="Grupo 14536" transform="translate(-532.334 -538.966)">
    <rect id="Rectángulo_3696" data-name="Rectángulo 3696" width="292.523" height="51.382" transform="translate(532.334 538.966)" fill="#d5f4fc"/>
    <g id="Grupo_14475" data-name="Grupo 14475" transform="translate(558.273 555.361)">
      <path id="Trazado_24135" data-name="Trazado 24135" d="M249.455,247.685a4.352,4.352,0,0,1-1.436,3.515,6.138,6.138,0,0,1-4.086,1.216h-1.294v5.063h-3.018V243.246h4.546a6.048,6.048,0,0,1,3.939,1.115A4.063,4.063,0,0,1,249.455,247.685Zm-6.816,2.259h.993a3.3,3.3,0,0,0,2.083-.551,1.924,1.924,0,0,0,.692-1.6,1.976,1.976,0,0,0-.58-1.568,2.717,2.717,0,0,0-1.816-.506h-1.372Z" transform="translate(-239.621 -242.331)"/>
      <path id="Trazado_24136" data-name="Trazado 24136" d="M248.838,252.017a15.111,15.111,0,0,1,.754-4.829,12.013,12.013,0,0,1,2.175-3.943H254.2a13.981,13.981,0,0,0-2.075,4.127,15.5,15.5,0,0,0-.7,4.624,14.98,14.98,0,0,0,.714,4.611,14.026,14.026,0,0,0,2.039,4.024h-2.414a11.522,11.522,0,0,1-2.181-3.865A14.727,14.727,0,0,1,248.838,252.017Z" transform="translate(-232.131 -242.331)"/>
      <path id="Trazado_24137" data-name="Trazado 24137" d="M263.031,256.07h-2.969v-6.357a3.056,3.056,0,0,0-.419-1.767,1.521,1.521,0,0,0-1.334-.589,2,2,0,0,0-1.8.832,5.166,5.166,0,0,0-.555,2.761v5.121h-2.971V245.185h2.269l.4,1.392h.165a3.128,3.128,0,0,1,1.369-1.191,4.64,4.64,0,0,1,1.981-.406,3.8,3.8,0,0,1,2.88,1.028,4.113,4.113,0,0,1,.984,2.965Z" transform="translate(-228.762 -240.922)"/>
      <path id="Trazado_24138" data-name="Trazado 24138" d="M263.547,250.043a29.9,29.9,0,0,1-1.713,4.664h-2.143q.636-2.591.984-4.887H263.4Z" transform="translate(-223.31 -236.988)"/>
      <path id="Trazado_24139" data-name="Trazado 24139" d="M272.336,244.98a4.792,4.792,0,0,1,1,.089l-.223,2.784a3.393,3.393,0,0,0-.875-.1,3.154,3.154,0,0,0-2.215.73,2.641,2.641,0,0,0-.794,2.045v5.539h-2.969V245.185h2.248l.439,1.831h.145a4.111,4.111,0,0,1,1.369-1.474A3.361,3.361,0,0,1,272.336,244.98Z" transform="translate(-217.971 -240.922)"/>
      <path id="Trazado_24140" data-name="Trazado 24140" d="M276.09,252.017a14.7,14.7,0,0,1-.754,4.771,11.379,11.379,0,0,1-2.179,3.845h-2.414a13.92,13.92,0,0,0,2.036-4.015A14.9,14.9,0,0,0,273.5,252a15.443,15.443,0,0,0-.7-4.624,14.1,14.1,0,0,0-2.072-4.127h2.431a11.887,11.887,0,0,1,2.182,3.957A15.141,15.141,0,0,1,276.09,252.017Z" transform="translate(-214.344 -242.331)"/>
      <path id="Trazado_24141" data-name="Trazado 24141" d="M288.03,250.608a5.842,5.842,0,0,1-1.4,4.156,5.078,5.078,0,0,1-3.9,1.5,5.454,5.454,0,0,1-2.764-.687,4.562,4.562,0,0,1-1.84-1.972,6.628,6.628,0,0,1-.642-3,5.816,5.816,0,0,1,1.39-4.147,5.116,5.116,0,0,1,3.915-1.481,5.518,5.518,0,0,1,2.766.682,4.562,4.562,0,0,1,1.838,1.958A6.549,6.549,0,0,1,288.03,250.608Zm-7.528,0a4.57,4.57,0,0,0,.531,2.443,1.9,1.9,0,0,0,1.729.828,1.869,1.869,0,0,0,1.709-.823,4.647,4.647,0,0,0,.52-2.449,4.5,4.5,0,0,0-.526-2.424,2.233,2.233,0,0,0-3.435-.005A4.48,4.48,0,0,0,280.5,250.608Z" transform="translate(-208.858 -240.922)"/>
      <path id="Trazado_24142" data-name="Trazado 24142" d="M297.557,256.07h-2.971v-6.357a3.057,3.057,0,0,0-.417-1.767,1.527,1.527,0,0,0-1.336-.589,2,2,0,0,0-1.8.832,5.166,5.166,0,0,0-.555,2.761v5.121H287.51V245.185h2.269l.4,1.392h.165a3.149,3.149,0,0,1,1.369-1.191,4.646,4.646,0,0,1,1.981-.406,3.8,3.8,0,0,1,2.882,1.028,4.121,4.121,0,0,1,.984,2.965Z" transform="translate(-200.704 -240.922)"/>
      <path id="Trazado_24143" data-name="Trazado 24143" d="M307.558,247.685a4.347,4.347,0,0,1-1.436,3.515,6.138,6.138,0,0,1-4.086,1.216h-1.292v5.063h-3.018V243.246h4.544a6.045,6.045,0,0,1,3.939,1.115A4.063,4.063,0,0,1,307.558,247.685Zm-6.814,2.259h.992a3.3,3.3,0,0,0,2.085-.551,1.924,1.924,0,0,0,.692-1.6,1.977,1.977,0,0,0-.582-1.568,2.71,2.71,0,0,0-1.816-.506h-1.37Z" transform="translate(-192.402 -242.331)"/>
      <path id="Trazado_24144" data-name="Trazado 24144" d="M313.437,244.98a4.8,4.8,0,0,1,1,.089l-.223,2.784a3.4,3.4,0,0,0-.877-.1,3.149,3.149,0,0,0-2.213.73,2.641,2.641,0,0,0-.794,2.045v5.539h-2.971V245.185h2.25l.439,1.831h.145a4.08,4.08,0,0,1,1.369-1.474A3.361,3.361,0,0,1,313.437,244.98Z" transform="translate(-184.572 -240.922)"/>
      <path id="Trazado_24145" data-name="Trazado 24145" d="M315.691,250.043a30.1,30.1,0,0,1-1.713,4.664h-2.143q.634-2.591.984-4.887h2.726Z" transform="translate(-180.937 -236.988)"/>
      <path id="Trazado_24146" data-name="Trazado 24146" d="M322.148,258.085a3.533,3.533,0,0,1-3.013-1.49,8.341,8.341,0,0,1,.018-8.3,3.621,3.621,0,0,1,3.072-1.5,3.551,3.551,0,0,1,3.134,1.6h.1a12.183,12.183,0,0,1-.225-2.17v-3.486h2.98v15.148h-2.279l-.575-1.412h-.127A3.4,3.4,0,0,1,322.148,258.085Zm1.042-2.367a2.013,2.013,0,0,0,1.669-.662,3.84,3.84,0,0,0,.578-2.25v-.321a4.469,4.469,0,0,0-.54-2.512,2.007,2.007,0,0,0-1.756-.758,1.741,1.741,0,0,0-1.544.841,4.5,4.5,0,0,0-.549,2.449,4.266,4.266,0,0,0,.555,2.411A1.818,1.818,0,0,0,323.191,255.718Z" transform="translate(-175.895 -242.741)"/>
      <path id="Trazado_24147" data-name="Trazado 24147" d="M335.553,250.608a5.849,5.849,0,0,1-1.4,4.156,5.083,5.083,0,0,1-3.9,1.5,5.461,5.461,0,0,1-2.766-.687,4.583,4.583,0,0,1-1.84-1.972,6.628,6.628,0,0,1-.642-3,5.816,5.816,0,0,1,1.392-4.147,5.11,5.11,0,0,1,3.915-1.481,5.507,5.507,0,0,1,2.764.682,4.566,4.566,0,0,1,1.84,1.958A6.571,6.571,0,0,1,335.553,250.608Zm-7.526,0a4.57,4.57,0,0,0,.531,2.443,1.9,1.9,0,0,0,1.727.828,1.868,1.868,0,0,0,1.709-.823,4.631,4.631,0,0,0,.52-2.449,4.483,4.483,0,0,0-.526-2.424,2.233,2.233,0,0,0-3.435-.005A4.5,4.5,0,0,0,328.027,250.608Z" transform="translate(-170.238 -240.922)"/>
      <path id="Trazado_24148" data-name="Trazado 24148" d="M342.224,256.07h-2.971v-6.357a3.057,3.057,0,0,0-.417-1.767,1.527,1.527,0,0,0-1.336-.589,2,2,0,0,0-1.8.832,5.167,5.167,0,0,0-.555,2.761v5.121h-2.969V245.185h2.269l.4,1.392h.165a3.148,3.148,0,0,1,1.368-1.191,4.646,4.646,0,0,1,1.981-.406,3.8,3.8,0,0,1,2.882,1.028,4.121,4.121,0,0,1,.984,2.965Z" transform="translate(-164.407 -240.922)"/>
      <path id="Trazado_24149" data-name="Trazado 24149" d="M343.149,258.085a3.533,3.533,0,0,1-3.013-1.49,8.342,8.342,0,0,1,.018-8.3,3.621,3.621,0,0,1,3.072-1.5,3.551,3.551,0,0,1,3.134,1.6h.1a12.181,12.181,0,0,1-.225-2.17v-3.486h2.98v15.148h-2.279l-.575-1.412h-.127A3.4,3.4,0,0,1,343.149,258.085Zm1.042-2.367a2.013,2.013,0,0,0,1.669-.662,3.854,3.854,0,0,0,.578-2.25v-.321a4.469,4.469,0,0,0-.54-2.512,2.009,2.009,0,0,0-1.758-.758,1.74,1.74,0,0,0-1.543.841,4.5,4.5,0,0,0-.549,2.449,4.265,4.265,0,0,0,.555,2.411A1.818,1.818,0,0,0,344.192,255.718Z" transform="translate(-158.829 -242.741)"/>
      <path id="Trazado_24150" data-name="Trazado 24150" d="M351.589,256.266a5.616,5.616,0,0,1-4.109-1.452A5.492,5.492,0,0,1,346,250.706a6.039,6.039,0,0,1,1.368-4.231,4.868,4.868,0,0,1,3.783-1.5,4.79,4.79,0,0,1,3.591,1.316,4.967,4.967,0,0,1,1.285,3.631v1.441H349.01a2.856,2.856,0,0,0,.749,1.976,2.64,2.64,0,0,0,1.967.711,8.193,8.193,0,0,0,1.86-.2,9.451,9.451,0,0,0,1.829-.653v2.3a6.956,6.956,0,0,1-1.664.58A10.6,10.6,0,0,1,351.589,256.266Zm-.419-9.172a1.888,1.888,0,0,0-1.481.6,2.791,2.791,0,0,0-.613,1.7h4.167a2.488,2.488,0,0,0-.573-1.7A1.953,1.953,0,0,0,351.171,247.094Z" transform="translate(-153.172 -240.922)"/>
      <path id="Trazado_24151" data-name="Trazado 24151" d="M361.8,244.98a4.805,4.805,0,0,1,1,.089l-.223,2.784a3.394,3.394,0,0,0-.876-.1,3.154,3.154,0,0,0-2.215.73,2.641,2.641,0,0,0-.794,2.045v5.539h-2.969V245.185h2.248l.439,1.831h.145a4.111,4.111,0,0,1,1.369-1.474A3.362,3.362,0,0,1,361.8,244.98Z" transform="translate(-145.271 -240.922)"/>
      <path id="Trazado_24152" data-name="Trazado 24152" d="M360.32,256.951v-2.132h9.667v2.132Zm9.689-2.57-9.669-4.263v-1.4l9.669-4.818v2.326l-6.66,3.1,6.66,2.726Z" transform="translate(-141.536 -241.802)"/>
      <path id="Trazado_24153" data-name="Trazado 24153" d="M377.043,256.07h-2.971v-6.357a3.058,3.058,0,0,0-.417-1.767,1.521,1.521,0,0,0-1.334-.589,2.009,2.009,0,0,0-1.8.832,5.169,5.169,0,0,0-.553,2.761v5.121H367V245.185h2.269l.4,1.392h.165a3.134,3.134,0,0,1,1.367-1.191,4.652,4.652,0,0,1,1.981-.406,3.8,3.8,0,0,1,2.882,1.028,4.121,4.121,0,0,1,.984,2.965Z" transform="translate(-136.11 -240.922)"/>
    </g>
  </g>
</svg>
