<svg xmlns="http://www.w3.org/2000/svg" width="154.146" height="41.106" viewBox="0 0 154.146 41.106">
  <g id="Grupo_14538" data-name="Grupo 14538" transform="translate(-601.521 -868.838)">
    <rect id="Rectángulo_3697" data-name="Rectángulo 3697" width="154.146" height="41.106" transform="translate(601.521 868.838)" fill="#d5f4fc"/>
    <g id="Grupo_14534" data-name="Grupo 14534" transform="translate(636.822 878.604)">
      <g id="Grupo_14532" data-name="Grupo 14532" transform="translate(0 2.405)">
        <g id="Grupo_14531" data-name="Grupo 14531">
          <path id="Trazado_24652" data-name="Trazado 24652" d="M292.789,426.834a4.353,4.353,0,0,1-1.436,3.515,6.148,6.148,0,0,1-4.086,1.216h-1.294v5.063h-3.018V422.4H287.5a6.048,6.048,0,0,1,3.939,1.115A4.063,4.063,0,0,1,292.789,426.834Zm-6.816,2.259h.993a3.3,3.3,0,0,0,2.083-.551,1.924,1.924,0,0,0,.692-1.6,1.978,1.978,0,0,0-.58-1.568,2.727,2.727,0,0,0-1.816-.506h-1.372Z" transform="translate(-282.955 -422.395)"/>
          <path id="Trazado_24653" data-name="Trazado 24653" d="M292.172,431.166a15.109,15.109,0,0,1,.754-4.829A12.012,12.012,0,0,1,295.1,422.4h2.436a13.982,13.982,0,0,0-2.075,4.127,15.446,15.446,0,0,0-.7,4.626,14.979,14.979,0,0,0,.714,4.61,14.027,14.027,0,0,0,2.039,4.024H295.1a11.506,11.506,0,0,1-2.181-3.865A14.73,14.73,0,0,1,292.172,431.166Z" transform="translate(-275.465 -422.395)"/>
          <path id="Trazado_24654" data-name="Trazado 24654" d="M306.366,435.218H303.4v-6.357a3.052,3.052,0,0,0-.419-1.767,1.526,1.526,0,0,0-1.334-.589,2,2,0,0,0-1.8.832,5.167,5.167,0,0,0-.555,2.761v5.121h-2.971V424.333h2.269l.4,1.394h.165a3.132,3.132,0,0,1,1.369-1.193,4.64,4.64,0,0,1,1.981-.4,3.8,3.8,0,0,1,2.88,1.026,4.113,4.113,0,0,1,.984,2.965Z" transform="translate(-272.096 -420.985)"/>
          <path id="Trazado_24655" data-name="Trazado 24655" d="M306.882,429.194a29.976,29.976,0,0,1-1.713,4.662h-2.143q.636-2.588.984-4.887h2.726Z" transform="translate(-266.644 -417.053)"/>
          <path id="Trazado_24656" data-name="Trazado 24656" d="M315.67,424.13a4.806,4.806,0,0,1,1,.087L316.45,427a3.473,3.473,0,0,0-.876-.1,3.154,3.154,0,0,0-2.215.73,2.642,2.642,0,0,0-.794,2.045v5.539H309.6V424.333h2.248l.439,1.831h.145a4.147,4.147,0,0,1,1.369-1.476A3.373,3.373,0,0,1,315.67,424.13Z" transform="translate(-261.305 -420.985)"/>
          <path id="Trazado_24657" data-name="Trazado 24657" d="M319.424,431.166a14.7,14.7,0,0,1-.754,4.771,11.379,11.379,0,0,1-2.179,3.845h-2.414a13.905,13.905,0,0,0,2.036-4.017,14.878,14.878,0,0,0,.721-4.617,15.448,15.448,0,0,0-.7-4.626,14.1,14.1,0,0,0-2.072-4.127h2.431a11.851,11.851,0,0,1,2.181,3.957A15.091,15.091,0,0,1,319.424,431.166Z" transform="translate(-257.678 -422.395)"/>
          <path id="Trazado_24658" data-name="Trazado 24658" d="M320.789,426.881v-2.133h9.669v2.133Zm0,3.767v-2.132h9.669v2.132Z" transform="translate(-252.209 -420.484)"/>
          <path id="Trazado_24659" data-name="Trazado 24659" d="M340.359,435.218H337.39v-6.357a3.038,3.038,0,0,0-.419-1.767,1.526,1.526,0,0,0-1.334-.589,2,2,0,0,0-1.8.832,5.167,5.167,0,0,0-.555,2.761v5.121h-2.969V424.333h2.268l.4,1.394h.165a3.152,3.152,0,0,1,1.369-1.193,4.64,4.64,0,0,1,1.981-.4,3.8,3.8,0,0,1,2.882,1.026,4.12,4.12,0,0,1,.982,2.965Z" transform="translate(-244.47 -420.985)"/>
        </g>
      </g>
      <g id="Grupo_14533" data-name="Grupo 14533" transform="translate(82.628)">
        <path id="Trazado_24660" data-name="Trazado 24660" d="M331.853,421.068a2.56,2.56,0,0,1,.547.049l-.122,1.519a1.828,1.828,0,0,0-.478-.054,1.717,1.717,0,0,0-1.207.4,1.437,1.437,0,0,0-.433,1.115v3.022h-1.621V421.18h1.227l.239,1h.08a2.238,2.238,0,0,1,.745-.8A1.851,1.851,0,0,1,331.853,421.068Z" transform="translate(-328.539 -421.068)"/>
      </g>
    </g>
  </g>
</svg>
