<svg xmlns="http://www.w3.org/2000/svg" width="525.638" height="41.521" viewBox="0 0 525.638 41.521">
  <g id="Grupo_14543" data-name="Grupo 14543" transform="translate(-425.632 -1832.9)">
    <g id="Grupo_14489" data-name="Grupo 14489" transform="translate(425.632 1844.865)">
      <path id="Trazado_24285" data-name="Trazado 24285" d="M176.279,958.686a4.352,4.352,0,0,1-1.436,3.515,6.145,6.145,0,0,1-4.086,1.216h-1.294v5.063h-3.018V954.247h4.546a6.042,6.042,0,0,1,3.937,1.115A4.056,4.056,0,0,1,176.279,958.686Zm-6.816,2.259h.993a3.288,3.288,0,0,0,2.083-.551,1.922,1.922,0,0,0,.692-1.6,1.978,1.978,0,0,0-.58-1.57,2.727,2.727,0,0,0-1.816-.506h-1.372Z" transform="translate(-166.445 -954.044)"/>
      <path id="Trazado_24286" data-name="Trazado 24286" d="M175.662,963.018a15.076,15.076,0,0,1,.754-4.829,12,12,0,0,1,2.175-3.942h2.436a13.957,13.957,0,0,0-2.075,4.127,15.444,15.444,0,0,0-.7,4.626,14.97,14.97,0,0,0,.716,4.61,14.038,14.038,0,0,0,2.039,4.026h-2.414a11.518,11.518,0,0,1-2.181-3.867A14.678,14.678,0,0,1,175.662,963.018Z" transform="translate(-158.955 -954.044)"/>
      <path id="Trazado_24287" data-name="Trazado 24287" d="M186.657,968.48h-3.009v-8.237l.029-1.354.049-1.479c-.5.5-.847.828-1.042.984l-1.635,1.314L179.6,957.9l4.584-3.652h2.474Z" transform="translate(-155.755 -954.044)"/>
      <path id="Trazado_24288" data-name="Trazado 24288" d="M195.636,968.571h-9.951v-2.092l3.575-3.612q1.585-1.629,2.074-2.253a5.07,5.07,0,0,0,.7-1.166,2.9,2.9,0,0,0,.216-1.107,1.613,1.613,0,0,0-.473-1.276,1.83,1.83,0,0,0-1.26-.42,3.635,3.635,0,0,0-1.606.381,8.321,8.321,0,0,0-1.628,1.082l-1.635-1.938a10.805,10.805,0,0,1,1.744-1.267,6.426,6.426,0,0,1,1.508-.569,7.786,7.786,0,0,1,1.831-.2,5.412,5.412,0,0,1,2.355.484,3.779,3.779,0,0,1,1.588,1.363,3.636,3.636,0,0,1,.564,2.008,4.91,4.91,0,0,1-.344,1.843,7.116,7.116,0,0,1-1.071,1.767,26.478,26.478,0,0,1-2.556,2.581l-1.831,1.722v.136h6.2Z" transform="translate(-150.841 -954.135)"/>
      <path id="Trazado_24289" data-name="Trazado 24289" d="M195.7,961.046a29.961,29.961,0,0,1-1.713,4.662h-2.143q.636-2.591.984-4.887h2.726Z" transform="translate(-145.805 -948.702)"/>
      <path id="Trazado_24290" data-name="Trazado 24290" d="M207.406,957.523a3.351,3.351,0,0,1-.807,2.268,4.2,4.2,0,0,1-2.269,1.285v.058a4.512,4.512,0,0,1,2.608,1.046,2.931,2.931,0,0,1,.888,2.244,3.811,3.811,0,0,1-1.49,3.2,6.878,6.878,0,0,1-4.254,1.144,10.36,10.36,0,0,1-4.109-.768v-2.561a9.492,9.492,0,0,0,1.822.682,7.625,7.625,0,0,0,1.965.261,3.818,3.818,0,0,0,2.2-.506,1.852,1.852,0,0,0,.709-1.624,1.469,1.469,0,0,0-.818-1.423,6.067,6.067,0,0,0-2.608-.419h-1.082V960.1h1.1a5.11,5.11,0,0,0,2.42-.435,1.559,1.559,0,0,0,.761-1.483q0-1.618-2.025-1.619A4.624,4.624,0,0,0,201,956.8a7.026,7.026,0,0,0-1.613.81l-1.39-2.074a7.729,7.729,0,0,1,4.644-1.4,5.985,5.985,0,0,1,3.489.9A2.869,2.869,0,0,1,207.406,957.523Z" transform="translate(-140.824 -954.135)"/>
      <path id="Trazado_24291" data-name="Trazado 24291" d="M209.526,963.018a14.716,14.716,0,0,1-.754,4.773,11.414,11.414,0,0,1-2.179,3.845h-2.414a13.954,13.954,0,0,0,2.036-4.017,14.891,14.891,0,0,0,.721-4.619,15.444,15.444,0,0,0-.7-4.626,14.035,14.035,0,0,0-2.072-4.127h2.431a11.888,11.888,0,0,1,2.182,3.957A15.15,15.15,0,0,1,209.526,963.018Z" transform="translate(-135.795 -954.044)"/>
      <path id="Trazado_24292" data-name="Trazado 24292" d="M210.89,958.731V956.6h9.669v2.132Zm0,3.768v-2.132h9.669V962.5Z" transform="translate(-130.327 -952.133)"/>
    </g>
    <g id="Grupo_14490" data-name="Grupo 14490" transform="translate(528.063 1832.9)">
      <path id="Trazado_24293" data-name="Trazado 24293" d="M238.859,961.882H235.85v-8.237l.027-1.354.051-1.481c-.5.5-.846.828-1.042.984l-1.635,1.314L231.8,951.3l4.586-3.651h2.474Z" transform="translate(-215.766 -947.442)"/>
      <path id="Trazado_24294" data-name="Trazado 24294" d="M247.836,961.974h-9.948V959.88l3.571-3.613q1.588-1.626,2.075-2.253a5.106,5.106,0,0,0,.7-1.164,2.989,2.989,0,0,0,.212-1.111,1.615,1.615,0,0,0-.471-1.274,1.833,1.833,0,0,0-1.26-.419,3.624,3.624,0,0,0-1.608.381,8.231,8.231,0,0,0-1.626,1.078l-1.635-1.936a10.629,10.629,0,0,1,1.742-1.265,6.357,6.357,0,0,1,1.508-.571,7.792,7.792,0,0,1,1.831-.2,5.44,5.44,0,0,1,2.358.488,3.749,3.749,0,0,1,1.586,1.363,3.626,3.626,0,0,1,.562,2,4.926,4.926,0,0,1-.343,1.847A7.043,7.043,0,0,1,246.019,955a25.7,25.7,0,0,1-2.556,2.58l-1.831,1.724v.136h6.2Z" transform="translate(-210.85 -947.534)"/>
      <path id="Trazado_24295" data-name="Trazado 24295" d="M244.336,960.488a1.632,1.632,0,0,1,.437-1.234,1.775,1.775,0,0,1,1.278-.42,1.721,1.721,0,0,1,1.249.43,1.9,1.9,0,0,1,0,2.438,1.7,1.7,0,0,1-1.245.442,1.749,1.749,0,0,1-1.267-.431A1.625,1.625,0,0,1,244.336,960.488Zm2.911-3.33h-2.376l-.495-9.511h3.366Z" transform="translate(-205.578 -947.442)"/>
      <path id="Trazado_24296" data-name="Trazado 24296" d="M222.954,969.618a15.068,15.068,0,0,1,.754-4.829,12.026,12.026,0,0,1,2.173-3.943h2.436a13.99,13.99,0,0,0-2.075,4.129,15.443,15.443,0,0,0-.7,4.624,15.035,15.035,0,0,0,.716,4.611,14.074,14.074,0,0,0,2.039,4.024h-2.414a11.516,11.516,0,0,1-2.181-3.866A14.671,14.671,0,0,1,222.954,969.618Z" transform="translate(-222.954 -936.715)"/>
      <path id="Trazado_24297" data-name="Trazado 24297" d="M233.948,975.082H230.94v-8.237l.029-1.354.049-1.479c-.5.5-.848.828-1.044.984l-1.635,1.312-1.448-1.811,4.584-3.651h2.472Z" transform="translate(-219.755 -936.715)"/>
      <path id="Trazado_24298" data-name="Trazado 24298" d="M242.926,975.174h-9.95V973.08l3.573-3.611q1.588-1.629,2.076-2.255a5.154,5.154,0,0,0,.7-1.164,2.946,2.946,0,0,0,.214-1.109,1.617,1.617,0,0,0-.471-1.276,1.833,1.833,0,0,0-1.26-.419,3.624,3.624,0,0,0-1.608.381,8.244,8.244,0,0,0-1.626,1.081l-1.635-1.938a10.614,10.614,0,0,1,1.742-1.265,6.276,6.276,0,0,1,1.508-.569,7.7,7.7,0,0,1,1.831-.2,5.438,5.438,0,0,1,2.358.487,3.761,3.761,0,0,1,1.586,1.363,3.628,3.628,0,0,1,.562,2,4.928,4.928,0,0,1-.343,1.847,7.1,7.1,0,0,1-1.073,1.765,25.888,25.888,0,0,1-2.556,2.579l-1.831,1.724v.138h6.2Z" transform="translate(-214.841 -936.807)"/>
      <path id="Trazado_24299" data-name="Trazado 24299" d="M239.125,967.514V965.08h5.229v2.434Z" transform="translate(-209.813 -933.275)"/>
      <path id="Trazado_24300" data-name="Trazado 24300" d="M252.187,964.122a3.345,3.345,0,0,1-.807,2.269,4.189,4.189,0,0,1-2.269,1.285v.06a4.517,4.517,0,0,1,2.61,1.046,2.93,2.93,0,0,1,.888,2.244,3.811,3.811,0,0,1-1.49,3.2,6.88,6.88,0,0,1-4.256,1.142,10.322,10.322,0,0,1-4.107-.769v-2.559a9.47,9.47,0,0,0,1.82.682,7.711,7.711,0,0,0,1.965.261,3.832,3.832,0,0,0,2.2-.506,1.857,1.857,0,0,0,.712-1.626,1.466,1.466,0,0,0-.819-1.421,6.045,6.045,0,0,0-2.608-.419h-1.084V966.7h1.1a5.138,5.138,0,0,0,2.422-.433,1.563,1.563,0,0,0,.761-1.485c0-1.077-.673-1.617-2.027-1.617a4.609,4.609,0,0,0-1.423.234,6.93,6.93,0,0,0-1.613.808l-1.392-2.074a7.737,7.737,0,0,1,4.646-1.4,6,6,0,0,1,3.489.9A2.872,2.872,0,0,1,252.187,964.122Z" transform="translate(-206.862 -936.807)"/>
      <path id="Trazado_24301" data-name="Trazado 24301" d="M254.308,969.618a14.681,14.681,0,0,1-.754,4.771,11.4,11.4,0,0,1-2.177,3.846h-2.414A13.972,13.972,0,0,0,251,974.219a14.9,14.9,0,0,0,.721-4.619,15.443,15.443,0,0,0-.7-4.624,14.03,14.03,0,0,0-2.074-4.129h2.433a11.925,11.925,0,0,1,2.181,3.959A15.078,15.078,0,0,1,254.308,969.618Z" transform="translate(-201.833 -936.715)"/>
      <path id="Trazado_24302" data-name="Trazado 24302" d="M252.973,973.688a1.634,1.634,0,0,1,.435-1.234,1.786,1.786,0,0,1,1.278-.421,1.726,1.726,0,0,1,1.251.43,1.895,1.895,0,0,1,0,2.438,1.7,1.7,0,0,1-1.247.444,1.752,1.752,0,0,1-1.267-.433A1.628,1.628,0,0,1,252.973,973.688Zm2.911-3.328h-2.376l-.495-9.513h3.366Z" transform="translate(-198.559 -936.715)"/>
    </g>
    <line id="Línea_583" data-name="Línea 583" x2="61.744" transform="translate(527.59 1853.45)" fill="none" stroke="#272525" stroke-miterlimit="10" stroke-width="2"/>
    <g id="Grupo_14491" data-name="Grupo 14491" transform="translate(610.701 1844.865)">
      <path id="Trazado_24303" data-name="Trazado 24303" d="M272.254,964.753l.145.225a29.965,29.965,0,0,1-1.713,4.662h-2.143q.636-2.591.984-4.887Zm-3.183-7.118a1.631,1.631,0,0,1,.439-1.234,1.767,1.767,0,0,1,1.276-.419,1.711,1.711,0,0,1,1.249.43,1.9,1.9,0,0,1-.009,2.447,1.724,1.724,0,0,1-1.24.433,1.766,1.766,0,0,1-1.267-.428A1.622,1.622,0,0,1,269.071,957.635Z" transform="translate(-268.544 -952.634)"/>
      <path id="Trazado_24304" data-name="Trazado 24304" d="M285.075,958.686a4.346,4.346,0,0,1-1.436,3.515,6.136,6.136,0,0,1-4.084,1.216h-1.294v5.063h-3.018V954.247h4.544a6.044,6.044,0,0,1,3.939,1.115A4.06,4.06,0,0,1,285.075,958.686Zm-6.814,2.259h.993a3.287,3.287,0,0,0,2.083-.551,1.922,1.922,0,0,0,.692-1.6,1.984,1.984,0,0,0-.58-1.57,2.727,2.727,0,0,0-1.816-.506h-1.372Z" transform="translate(-263.1 -954.044)"/>
      <path id="Trazado_24305" data-name="Trazado 24305" d="M284.459,963.018a15.127,15.127,0,0,1,.754-4.829,12.035,12.035,0,0,1,2.177-3.942h2.434a14,14,0,0,0-2.074,4.127,15.446,15.446,0,0,0-.7,4.626,14.97,14.97,0,0,0,.716,4.61,13.947,13.947,0,0,0,2.039,4.026H287.39a11.519,11.519,0,0,1-2.181-3.867A14.679,14.679,0,0,1,284.459,963.018Z" transform="translate(-255.611 -954.044)"/>
      <path id="Trazado_24306" data-name="Trazado 24306" d="M295.455,968.48h-3.009v-8.237l.029-1.354.049-1.479c-.5.5-.846.828-1.042.984l-1.635,1.314L288.4,957.9l4.584-3.652h2.474Z" transform="translate(-252.411 -954.044)"/>
      <path id="Trazado_24307" data-name="Trazado 24307" d="M304.433,968.571h-9.951v-2.092l3.575-3.612q1.585-1.629,2.074-2.253a5.07,5.07,0,0,0,.7-1.166,2.938,2.938,0,0,0,.214-1.107,1.612,1.612,0,0,0-.471-1.276,1.835,1.835,0,0,0-1.262-.42,3.634,3.634,0,0,0-1.6.381,8.319,8.319,0,0,0-1.628,1.082l-1.635-1.938a10.807,10.807,0,0,1,1.744-1.267,6.425,6.425,0,0,1,1.508-.569,7.775,7.775,0,0,1,1.831-.2,5.418,5.418,0,0,1,2.355.484,3.78,3.78,0,0,1,1.588,1.363,3.636,3.636,0,0,1,.564,2.008,4.91,4.91,0,0,1-.346,1.843,7.054,7.054,0,0,1-1.069,1.767,26.335,26.335,0,0,1-2.558,2.581l-1.829,1.722v.136h6.2Z" transform="translate(-247.496 -954.135)"/>
      <path id="Trazado_24308" data-name="Trazado 24308" d="M304.5,961.046a30.151,30.151,0,0,1-1.713,4.662h-2.143q.634-2.591.984-4.887h2.726Z" transform="translate(-242.46 -948.702)"/>
      <path id="Trazado_24309" data-name="Trazado 24309" d="M316.2,957.523a3.35,3.35,0,0,1-.807,2.268,4.2,4.2,0,0,1-2.269,1.285v.058a4.512,4.512,0,0,1,2.608,1.046,2.938,2.938,0,0,1,.888,2.244,3.811,3.811,0,0,1-1.49,3.2,6.882,6.882,0,0,1-4.254,1.144,10.361,10.361,0,0,1-4.109-.768v-2.561a9.495,9.495,0,0,0,1.822.682,7.615,7.615,0,0,0,1.965.261,3.819,3.819,0,0,0,2.2-.506,1.857,1.857,0,0,0,.709-1.624,1.469,1.469,0,0,0-.817-1.423,6.074,6.074,0,0,0-2.608-.419h-1.082V960.1h1.1a5.1,5.1,0,0,0,2.42-.435,1.557,1.557,0,0,0,.763-1.483q0-1.618-2.025-1.619a4.625,4.625,0,0,0-1.425.234,6.955,6.955,0,0,0-1.613.81l-1.39-2.074a7.729,7.729,0,0,1,4.644-1.4,5.986,5.986,0,0,1,3.489.9A2.869,2.869,0,0,1,316.2,957.523Z" transform="translate(-237.479 -954.135)"/>
      <path id="Trazado_24310" data-name="Trazado 24310" d="M318.322,963.018a14.668,14.668,0,0,1-.754,4.773,11.379,11.379,0,0,1-2.177,3.845h-2.414a13.952,13.952,0,0,0,2.036-4.017,14.891,14.891,0,0,0,.721-4.619,15.444,15.444,0,0,0-.7-4.626,14.04,14.04,0,0,0-2.074-4.127h2.433a11.849,11.849,0,0,1,2.181,3.957A15.1,15.1,0,0,1,318.322,963.018Z" transform="translate(-232.451 -954.044)"/>
      <path id="Trazado_24311" data-name="Trazado 24311" d="M319.689,958.731V956.6h9.669v2.132Zm0,3.768v-2.132h9.669V962.5Z" transform="translate(-226.981 -952.133)"/>
    </g>
    <g id="Grupo_14492" data-name="Grupo 14492" transform="translate(737.51 1832.9)">
      <path id="Trazado_24312" data-name="Trazado 24312" d="M346.359,961.882H343.35v-8.237l.027-1.354.051-1.481c-.5.5-.847.828-1.042.984l-1.635,1.314L339.3,951.3l4.586-3.651h2.474Z" transform="translate(-337.854 -947.442)"/>
      <path id="Trazado_24313" data-name="Trazado 24313" d="M355.336,961.974h-9.948V959.88l3.571-3.613q1.588-1.626,2.075-2.253a5.1,5.1,0,0,0,.7-1.164,2.988,2.988,0,0,0,.212-1.111,1.615,1.615,0,0,0-.471-1.274,1.833,1.833,0,0,0-1.26-.419,3.624,3.624,0,0,0-1.608.381,8.23,8.23,0,0,0-1.626,1.078l-1.635-1.936a10.629,10.629,0,0,1,1.742-1.265,6.358,6.358,0,0,1,1.508-.571,7.793,7.793,0,0,1,1.831-.2,5.44,5.44,0,0,1,2.358.488,3.75,3.75,0,0,1,1.586,1.363,3.627,3.627,0,0,1,.562,2,4.925,4.925,0,0,1-.343,1.847A7.041,7.041,0,0,1,353.519,955a25.7,25.7,0,0,1-2.556,2.58l-1.831,1.724v.136h6.2Z" transform="translate(-332.939 -947.534)"/>
      <path id="Trazado_24314" data-name="Trazado 24314" d="M351.836,960.488a1.632,1.632,0,0,1,.437-1.234,1.776,1.776,0,0,1,1.278-.42,1.721,1.721,0,0,1,1.249.43,1.9,1.9,0,0,1,0,2.438,1.7,1.7,0,0,1-1.245.442,1.748,1.748,0,0,1-1.267-.431A1.624,1.624,0,0,1,351.836,960.488Zm2.911-3.33h-2.376l-.495-9.511h3.366Z" transform="translate(-327.666 -947.442)"/>
      <path id="Trazado_24315" data-name="Trazado 24315" d="M338.5,969.618a15.12,15.12,0,0,1,.754-4.829,12.063,12.063,0,0,1,2.175-3.943h2.434a14.029,14.029,0,0,0-2.074,4.129,15.443,15.443,0,0,0-.7,4.624,15.035,15.035,0,0,0,.716,4.611,13.982,13.982,0,0,0,2.039,4.024h-2.414a11.514,11.514,0,0,1-2.181-3.866A14.669,14.669,0,0,1,338.5,969.618Z" transform="translate(-338.502 -936.715)"/>
      <path id="Trazado_24316" data-name="Trazado 24316" d="M352.191,967q0,4.206-1.771,6.279a6.666,6.666,0,0,1-5.364,2.074,10.093,10.093,0,0,1-1.918-.136V972.8a7.051,7.051,0,0,0,1.713.2,6,6,0,0,0,2.482-.444,3.145,3.145,0,0,0,1.492-1.39,6.2,6.2,0,0,0,.595-2.616H349.3A3.366,3.366,0,0,1,348,969.839a4.115,4.115,0,0,1-1.849.372,3.731,3.731,0,0,1-2.931-1.195,4.774,4.774,0,0,1-1.073-3.315,4.958,4.958,0,0,1,1.3-3.616,4.729,4.729,0,0,1,3.54-1.329,5.1,5.1,0,0,1,2.761.74,4.777,4.777,0,0,1,1.816,2.146A8.125,8.125,0,0,1,352.191,967Zm-5.148-3.826a1.784,1.784,0,0,0-1.461.641,2.854,2.854,0,0,0-.526,1.851,2.558,2.558,0,0,0,.475,1.635,1.737,1.737,0,0,0,1.452.6,2.234,2.234,0,0,0,1.568-.6,1.824,1.824,0,0,0,.653-1.378,3.132,3.132,0,0,0-.609-1.958A1.873,1.873,0,0,0,347.043,963.171Z" transform="translate(-335.543 -936.789)"/>
      <path id="Trazado_24317" data-name="Trazado 24317" d="M353.759,969.618a14.68,14.68,0,0,1-.754,4.771,11.365,11.365,0,0,1-2.177,3.846h-2.414a13.972,13.972,0,0,0,2.036-4.017,14.9,14.9,0,0,0,.721-4.619,15.5,15.5,0,0,0-.7-4.624,14.076,14.076,0,0,0-2.076-4.129h2.433a11.894,11.894,0,0,1,2.181,3.959A15.078,15.078,0,0,1,353.759,969.618Z" transform="translate(-330.463 -936.715)"/>
      <path id="Trazado_24318" data-name="Trazado 24318" d="M352.424,973.688a1.615,1.615,0,0,1,.44-1.234,1.768,1.768,0,0,1,1.274-.421,1.716,1.716,0,0,1,1.249.43,1.895,1.895,0,0,1,0,2.438,1.693,1.693,0,0,1-1.245.444,1.76,1.76,0,0,1-1.269-.433A1.628,1.628,0,0,1,352.424,973.688Zm2.911-3.328h-2.376l-.495-9.513h3.366Z" transform="translate(-327.188 -936.715)"/>
    </g>
    <line id="Línea_584" data-name="Línea 584" x2="61.744" transform="translate(722.449 1853.45)" fill="none" stroke="#272525" stroke-miterlimit="10" stroke-width="2"/>
    <g id="Grupo_14493" data-name="Grupo 14493" transform="translate(798.31 1844.865)">
      <path id="Trazado_24319" data-name="Trazado 24319" d="M375.754,964.753l.145.225a29.957,29.957,0,0,1-1.713,4.662h-2.143q.636-2.591.984-4.887Zm-3.183-7.118a1.63,1.63,0,0,1,.439-1.234,1.767,1.767,0,0,1,1.276-.419,1.711,1.711,0,0,1,1.249.43,1.9,1.9,0,0,1-.009,2.447,1.724,1.724,0,0,1-1.24.433,1.766,1.766,0,0,1-1.267-.428A1.622,1.622,0,0,1,372.571,957.635Z" transform="translate(-372.044 -952.634)"/>
      <path id="Trazado_24320" data-name="Trazado 24320" d="M388.575,958.686a4.347,4.347,0,0,1-1.436,3.515,6.136,6.136,0,0,1-4.084,1.216h-1.294v5.063h-3.018V954.247h4.544a6.044,6.044,0,0,1,3.939,1.115A4.06,4.06,0,0,1,388.575,958.686Zm-6.814,2.259h.993a3.288,3.288,0,0,0,2.083-.551,1.922,1.922,0,0,0,.692-1.6,1.984,1.984,0,0,0-.58-1.57,2.727,2.727,0,0,0-1.816-.506h-1.372Z" transform="translate(-366.6 -954.044)"/>
      <path id="Trazado_24321" data-name="Trazado 24321" d="M387.959,963.018a15.127,15.127,0,0,1,.754-4.829,12.035,12.035,0,0,1,2.177-3.942h2.434a14,14,0,0,0-2.074,4.127,15.445,15.445,0,0,0-.7,4.626,14.97,14.97,0,0,0,.716,4.61,13.947,13.947,0,0,0,2.039,4.026H390.89a11.518,11.518,0,0,1-2.181-3.867A14.679,14.679,0,0,1,387.959,963.018Z" transform="translate(-359.111 -954.044)"/>
      <path id="Trazado_24322" data-name="Trazado 24322" d="M398.955,968.48h-3.009v-8.237l.029-1.354.049-1.479c-.5.5-.847.828-1.042.984l-1.635,1.314L391.9,957.9l4.584-3.652h2.474Z" transform="translate(-355.911 -954.044)"/>
      <path id="Trazado_24323" data-name="Trazado 24323" d="M407.934,968.571h-9.951v-2.092l3.575-3.612q1.585-1.629,2.074-2.253a5.069,5.069,0,0,0,.7-1.166,2.936,2.936,0,0,0,.214-1.107,1.612,1.612,0,0,0-.471-1.276,1.835,1.835,0,0,0-1.262-.42,3.634,3.634,0,0,0-1.6.381,8.32,8.32,0,0,0-1.628,1.082l-1.635-1.938a10.8,10.8,0,0,1,1.744-1.267,6.426,6.426,0,0,1,1.508-.569,7.775,7.775,0,0,1,1.831-.2,5.418,5.418,0,0,1,2.355.484,3.779,3.779,0,0,1,1.588,1.363,3.635,3.635,0,0,1,.564,2.008,4.91,4.91,0,0,1-.346,1.843,7.048,7.048,0,0,1-1.069,1.767,26.326,26.326,0,0,1-2.558,2.581l-1.829,1.722v.136h6.2Z" transform="translate(-350.997 -954.135)"/>
      <path id="Trazado_24324" data-name="Trazado 24324" d="M408,961.046a30.146,30.146,0,0,1-1.713,4.662h-2.143q.633-2.591.984-4.887h2.726Z" transform="translate(-345.96 -948.702)"/>
      <path id="Trazado_24325" data-name="Trazado 24325" d="M419.7,957.523a3.351,3.351,0,0,1-.807,2.268,4.2,4.2,0,0,1-2.269,1.285v.058a4.512,4.512,0,0,1,2.608,1.046,2.938,2.938,0,0,1,.888,2.244,3.811,3.811,0,0,1-1.49,3.2,6.882,6.882,0,0,1-4.254,1.144,10.361,10.361,0,0,1-4.109-.768v-2.561a9.5,9.5,0,0,0,1.822.682,7.615,7.615,0,0,0,1.965.261,3.819,3.819,0,0,0,2.2-.506,1.857,1.857,0,0,0,.709-1.624,1.469,1.469,0,0,0-.818-1.423,6.073,6.073,0,0,0-2.608-.419h-1.082V960.1h1.1a5.1,5.1,0,0,0,2.42-.435,1.557,1.557,0,0,0,.763-1.483q0-1.618-2.025-1.619a4.624,4.624,0,0,0-1.425.234,6.955,6.955,0,0,0-1.613.81l-1.39-2.074a7.729,7.729,0,0,1,4.644-1.4,5.986,5.986,0,0,1,3.489.9A2.869,2.869,0,0,1,419.7,957.523Z" transform="translate(-340.979 -954.135)"/>
      <path id="Trazado_24326" data-name="Trazado 24326" d="M421.822,963.018a14.667,14.667,0,0,1-.754,4.773,11.379,11.379,0,0,1-2.177,3.845h-2.414a13.953,13.953,0,0,0,2.036-4.017,14.892,14.892,0,0,0,.721-4.619,15.446,15.446,0,0,0-.7-4.626,14.041,14.041,0,0,0-2.074-4.127h2.433a11.849,11.849,0,0,1,2.181,3.957A15.1,15.1,0,0,1,421.822,963.018Z" transform="translate(-335.951 -954.044)"/>
      <path id="Trazado_24327" data-name="Trazado 24327" d="M423.189,958.731V956.6h9.669v2.132Zm0,3.768v-2.132h9.669V962.5Z" transform="translate(-330.481 -952.133)"/>
    </g>
    <g id="Grupo_14494" data-name="Grupo 14494" transform="translate(907.636 1844.844)">
      <path id="Trazado_24328" data-name="Trazado 24328" d="M439.414,968.48h-3.007v-8.237l.029-1.354.049-1.479c-.5.5-.846.828-1.042.984l-1.635,1.314-1.45-1.809,4.584-3.652h2.472Z" transform="translate(-432.357 -954.022)"/>
      <path id="Trazado_24329" data-name="Trazado 24329" d="M447.838,957.523a3.36,3.36,0,0,1-.807,2.268,4.2,4.2,0,0,1-2.27,1.285v.058a4.517,4.517,0,0,1,2.608,1.046,2.937,2.937,0,0,1,.886,2.244,3.809,3.809,0,0,1-1.488,3.2,6.884,6.884,0,0,1-4.256,1.144,10.358,10.358,0,0,1-4.107-.768v-2.561a9.4,9.4,0,0,0,1.822.682,7.614,7.614,0,0,0,1.965.261,3.812,3.812,0,0,0,2.2-.506,1.853,1.853,0,0,0,.711-1.624,1.469,1.469,0,0,0-.817-1.423,6.077,6.077,0,0,0-2.61-.419h-1.08V960.1h1.1a5.1,5.1,0,0,0,2.42-.435,1.56,1.56,0,0,0,.763-1.483q0-1.618-2.025-1.619a4.615,4.615,0,0,0-1.425.234,6.952,6.952,0,0,0-1.613.81l-1.39-2.074a7.726,7.726,0,0,1,4.644-1.4,5.985,5.985,0,0,1,3.489.9A2.869,2.869,0,0,1,447.838,957.523Z" transform="translate(-427.442 -954.113)"/>
      <path id="Trazado_24330" data-name="Trazado 24330" d="M454.672,968.571h-9.95v-2.092l3.573-3.612q1.585-1.629,2.074-2.253a5.085,5.085,0,0,0,.7-1.166,2.936,2.936,0,0,0,.214-1.107,1.613,1.613,0,0,0-.473-1.276,1.83,1.83,0,0,0-1.26-.42,3.636,3.636,0,0,0-1.606.381,8.323,8.323,0,0,0-1.628,1.082l-1.635-1.938a10.807,10.807,0,0,1,1.744-1.267,6.425,6.425,0,0,1,1.508-.569,7.785,7.785,0,0,1,1.831-.2,5.426,5.426,0,0,1,2.356.484,3.779,3.779,0,0,1,1.588,1.363,3.634,3.634,0,0,1,.562,2.008,4.909,4.909,0,0,1-.344,1.843,7.112,7.112,0,0,1-1.071,1.767,26.265,26.265,0,0,1-2.556,2.581L448.47,965.9v.136h6.2Z" transform="translate(-422.34 -954.113)"/>
      <path id="Trazado_24331" data-name="Trazado 24331" d="M460.89,961.466a9.912,9.912,0,0,1-1.222,5.519,4.242,4.242,0,0,1-3.763,1.791,4.188,4.188,0,0,1-3.714-1.851,9.775,9.775,0,0,1-1.251-5.46,10.022,10.022,0,0,1,1.216-5.556,4.734,4.734,0,0,1,7.474.081A9.8,9.8,0,0,1,460.89,961.466Zm-6.961,0a11.106,11.106,0,0,0,.451,3.752,1.586,1.586,0,0,0,3.043-.015,15.2,15.2,0,0,0-.005-7.5,1.578,1.578,0,0,0-3.033,0A11.074,11.074,0,0,0,453.929,961.466Z" transform="translate(-417.256 -954.123)"/>
    </g>
  </g>
</svg>
