<svg xmlns="http://www.w3.org/2000/svg" width="205.528" height="51.382" viewBox="0 0 205.528 51.382">
  <g id="Grupo_14541" data-name="Grupo 14541" transform="translate(-535.222 -1949.067)">
    <rect id="Rectángulo_3701" data-name="Rectángulo 3701" width="205.528" height="51.382" transform="translate(535.222 1949.067)" fill="#d5f4fc"/>
    <g id="Grupo_14487" data-name="Grupo 14487" transform="translate(563.271 1966.171)">
      <path id="Trazado_24268" data-name="Trazado 24268" d="M249.058,1023.569a3.074,3.074,0,0,0-2.639,1.282,5.961,5.961,0,0,0-.934,3.567q0,4.761,3.573,4.76a11.278,11.278,0,0,0,3.631-.749v2.53a10.065,10.065,0,0,1-3.913.731,5.976,5.976,0,0,1-4.751-1.884,7.977,7.977,0,0,1-1.646-5.409,8.84,8.84,0,0,1,.808-3.89,5.838,5.838,0,0,1,2.322-2.56,6.864,6.864,0,0,1,3.549-.892,9.582,9.582,0,0,1,4.167,1l-.973,2.453a16.136,16.136,0,0,0-1.608-.662A4.767,4.767,0,0,0,249.058,1023.569Z" transform="translate(-242.378 -1021.057)"/>
      <path id="Trazado_24269" data-name="Trazado 24269" d="M252.047,1029.943a15.131,15.131,0,0,1,.754-4.831,12.014,12.014,0,0,1,2.175-3.942h2.436a13.971,13.971,0,0,0-2.075,4.129,15.432,15.432,0,0,0-.7,4.624,14.97,14.97,0,0,0,.714,4.61,14.06,14.06,0,0,0,2.039,4.026h-2.414a11.52,11.52,0,0,1-2.181-3.865A14.735,14.735,0,0,1,252.047,1029.943Z" transform="translate(-234.521 -1020.965)"/>
      <path id="Trazado_24270" data-name="Trazado 24270" d="M266.24,1033.995H263.27v-6.359a3.043,3.043,0,0,0-.419-1.767,1.524,1.524,0,0,0-1.334-.587,2,2,0,0,0-1.8.832,5.167,5.167,0,0,0-.555,2.761v5.12h-2.971V1023.11h2.27l.4,1.392h.165a3.142,3.142,0,0,1,1.369-1.193,4.64,4.64,0,0,1,1.981-.4,3.8,3.8,0,0,1,2.88,1.028,4.109,4.109,0,0,1,.984,2.964Z" transform="translate(-231.152 -1019.555)"/>
      <path id="Trazado_24271" data-name="Trazado 24271" d="M266.757,1027.969a29.99,29.99,0,0,1-1.713,4.664H262.9q.636-2.591.984-4.889h2.726Z" transform="translate(-225.7 -1015.623)"/>
      <path id="Trazado_24272" data-name="Trazado 24272" d="M275.544,1022.905a4.819,4.819,0,0,1,1,.087l-.223,2.786a3.388,3.388,0,0,0-.875-.1,3.145,3.145,0,0,0-2.215.731,2.636,2.636,0,0,0-.794,2.045v5.539H269.47V1023.11h2.248l.439,1.831h.145a4.118,4.118,0,0,1,1.369-1.475A3.375,3.375,0,0,1,275.544,1022.905Z" transform="translate(-220.362 -1019.555)"/>
      <path id="Trazado_24273" data-name="Trazado 24273" d="M279.3,1029.943a14.693,14.693,0,0,1-.754,4.769,11.4,11.4,0,0,1-2.179,3.846h-2.414a13.95,13.95,0,0,0,2.036-4.017,14.891,14.891,0,0,0,.721-4.619,15.434,15.434,0,0,0-.7-4.624,14.093,14.093,0,0,0-2.072-4.129h2.431a11.881,11.881,0,0,1,2.181,3.959A15.084,15.084,0,0,1,279.3,1029.943Z" transform="translate(-216.733 -1020.965)"/>
      <path id="Trazado_24274" data-name="Trazado 24274" d="M280.663,1025.655v-2.132h9.669v2.132Zm0,3.768v-2.133h9.669v2.133Z" transform="translate(-211.266 -1019.053)"/>
    </g>
    <g id="Grupo_14488" data-name="Grupo 14488" transform="translate(651.958 1954.413)">
      <path id="Trazado_24275" data-name="Trazado 24275" d="M313.419,1027.395h-2.971v-6.359a3.059,3.059,0,0,0-.417-1.767,1.526,1.526,0,0,0-1.334-.589,2.007,2.007,0,0,0-1.8.834,5.161,5.161,0,0,0-.553,2.759v5.122h-2.971V1016.51h2.269l.4,1.392h.165a3.149,3.149,0,0,1,1.367-1.193,4.653,4.653,0,0,1,1.981-.4,3.8,3.8,0,0,1,2.882,1.028,4.116,4.116,0,0,1,.984,2.964Z" transform="translate(-281.5 -1013.16)"/>
      <path id="Trazado_24276" data-name="Trazado 24276" d="M310.37,1027.413a1.636,1.636,0,0,1,.437-1.238,1.786,1.786,0,0,1,1.276-.419,1.724,1.724,0,0,1,1.251.43,1.9,1.9,0,0,1,0,2.438,1.7,1.7,0,0,1-1.247.444,1.756,1.756,0,0,1-1.267-.433A1.627,1.627,0,0,1,310.37,1027.413Zm2.911-3.33H310.9l-.495-9.513h3.366Z" transform="translate(-275.812 -1014.57)"/>
      <path id="Trazado_24277" data-name="Trazado 24277" d="M297.379,1029.505a4.8,4.8,0,0,1,1,.087l-.223,2.786a3.4,3.4,0,0,0-.876-.1,3.147,3.147,0,0,0-2.215.73,2.637,2.637,0,0,0-.794,2.045v5.54h-2.969V1029.71h2.248l.439,1.831h.145a4.117,4.117,0,0,1,1.369-1.476A3.374,3.374,0,0,1,297.379,1029.505Z" transform="translate(-291.305 -1002.433)"/>
      <path id="Trazado_24278" data-name="Trazado 24278" d="M296.069,1040.613a1.623,1.623,0,0,1,.439-1.236,1.775,1.775,0,0,1,1.276-.419,1.718,1.718,0,0,1,1.249.428,1.9,1.9,0,0,1,0,2.438,1.7,1.7,0,0,1-1.245.444,1.757,1.757,0,0,1-1.269-.433A1.627,1.627,0,0,1,296.069,1040.613Zm2.911-3.33H296.6l-.495-9.513h3.366Z" transform="translate(-287.434 -1003.843)"/>
      <path id="Trazado_24279" data-name="Trazado 24279" d="M299.028,1036.543a15.108,15.108,0,0,1,.754-4.829,12.007,12.007,0,0,1,2.177-3.944h2.434a13.963,13.963,0,0,0-2.074,4.129,15.436,15.436,0,0,0-.7,4.624,14.969,14.969,0,0,0,.716,4.609,13.975,13.975,0,0,0,2.039,4.026h-2.414a11.53,11.53,0,0,1-2.182-3.865A14.735,14.735,0,0,1,299.028,1036.543Z" transform="translate(-285.029 -1003.843)"/>
      <path id="Trazado_24280" data-name="Trazado 24280" d="M313.222,1040.595h-2.971v-6.359a3.057,3.057,0,0,0-.417-1.767,1.53,1.53,0,0,0-1.336-.587,2,2,0,0,0-1.8.832,5.166,5.166,0,0,0-.555,2.761v5.121h-2.969V1029.71h2.269l.4,1.392h.165a3.163,3.163,0,0,1,1.369-1.193,4.648,4.648,0,0,1,1.981-.4,3.8,3.8,0,0,1,2.882,1.028,4.116,4.116,0,0,1,.984,2.964Z" transform="translate(-281.659 -1002.433)"/>
      <path id="Trazado_24281" data-name="Trazado 24281" d="M309.873,1034.436V1032H315.1v2.432Z" transform="translate(-276.216 -1000.403)"/>
      <path id="Trazado_24282" data-name="Trazado 24282" d="M320.019,1029.505a4.813,4.813,0,0,1,1,.087l-.223,2.786a3.4,3.4,0,0,0-.877-.1,3.145,3.145,0,0,0-2.213.73,2.637,2.637,0,0,0-.794,2.045v5.54h-2.971V1029.71h2.25l.439,1.831h.145a4.085,4.085,0,0,1,1.369-1.476A3.374,3.374,0,0,1,320.019,1029.505Z" transform="translate(-272.908 -1002.433)"/>
      <path id="Trazado_24283" data-name="Trazado 24283" d="M323.772,1036.543a14.636,14.636,0,0,1-.754,4.769,11.4,11.4,0,0,1-2.177,3.847h-2.414a14.027,14.027,0,0,0,2.036-4.017,14.885,14.885,0,0,0,.72-4.619,15.433,15.433,0,0,0-.7-4.624,14.05,14.05,0,0,0-2.074-4.129h2.433a11.911,11.911,0,0,1,2.181,3.959A15.133,15.133,0,0,1,323.772,1036.543Z" transform="translate(-269.28 -1003.843)"/>
      <path id="Trazado_24284" data-name="Trazado 24284" d="M322.436,1040.613a1.629,1.629,0,0,1,.437-1.236,1.775,1.775,0,0,1,1.276-.419,1.718,1.718,0,0,1,1.249.428,1.9,1.9,0,0,1,0,2.438,1.7,1.7,0,0,1-1.245.444,1.752,1.752,0,0,1-1.267-.433A1.626,1.626,0,0,1,322.436,1040.613Zm2.909-3.33h-2.376l-.495-9.513h3.366Z" transform="translate(-266.007 -1003.843)"/>
    </g>
    <line id="Línea_582" data-name="Línea 582" x2="61.744" transform="translate(652.116 1974.758)" fill="none" stroke="#272525" stroke-miterlimit="10" stroke-width="2"/>
  </g>
</svg>
