<svg xmlns="http://www.w3.org/2000/svg" width="750.598" height="41.539" viewBox="0 0 750.598 41.539">
  <g id="Grupo_14542" data-name="Grupo 14542" transform="translate(-297.793 -2096.067)">
    <g id="Grupo_14522" data-name="Grupo 14522" transform="translate(297.793 2108.03)">
      <path id="Trazado_24567" data-name="Trazado 24567" d="M102.6,1101.84a3.073,3.073,0,0,0-2.639,1.282,5.949,5.949,0,0,0-.935,3.567q0,4.761,3.575,4.76a11.274,11.274,0,0,0,3.631-.748v2.53a10.063,10.063,0,0,1-3.914.73,5.971,5.971,0,0,1-4.751-1.883,7.969,7.969,0,0,1-1.646-5.409,8.84,8.84,0,0,1,.808-3.89,5.829,5.829,0,0,1,2.322-2.56,6.865,6.865,0,0,1,3.549-.891,9.588,9.588,0,0,1,4.167,1l-.973,2.453a16.174,16.174,0,0,0-1.608-.662A4.787,4.787,0,0,0,102.6,1101.84Z" transform="translate(-95.919 -1099.31)"/>
      <path id="Trazado_24568" data-name="Trazado 24568" d="M105.588,1108.214a15.079,15.079,0,0,1,.754-4.831,11.975,11.975,0,0,1,2.175-3.942h2.434a14.008,14.008,0,0,0-2.074,4.129,15.436,15.436,0,0,0-.7,4.624,14.969,14.969,0,0,0,.716,4.609,13.972,13.972,0,0,0,2.039,4.026h-2.414a11.494,11.494,0,0,1-2.181-3.865A14.687,14.687,0,0,1,105.588,1108.214Z" transform="translate(-88.062 -1099.218)"/>
      <path id="Trazado_24569" data-name="Trazado 24569" d="M116.582,1113.676h-3.009v-8.237l.029-1.354.049-1.479c-.5.5-.847.826-1.042.982l-1.635,1.314-1.45-1.811,4.584-3.65h2.474Z" transform="translate(-84.863 -1099.218)"/>
      <path id="Trazado_24570" data-name="Trazado 24570" d="M125.5,1106.657a9.929,9.929,0,0,1-1.222,5.521,4.239,4.239,0,0,1-3.763,1.791,4.188,4.188,0,0,1-3.714-1.849,9.787,9.787,0,0,1-1.253-5.463,10.027,10.027,0,0,1,1.216-5.554,4.735,4.735,0,0,1,7.474.083A9.794,9.794,0,0,1,125.5,1106.657Zm-6.961,0a11.1,11.1,0,0,0,.451,3.754,1.57,1.57,0,0,0,1.524,1.135,1.587,1.587,0,0,0,1.519-1.149,15.243,15.243,0,0,0-.005-7.5,1.589,1.589,0,0,0-1.514-1.145A1.572,1.572,0,0,0,119,1102.9,11.06,11.06,0,0,0,118.541,1106.657Z" transform="translate(-79.966 -1099.318)"/>
      <path id="Trazado_24571" data-name="Trazado 24571" d="M125.626,1106.24a29.989,29.989,0,0,1-1.713,4.664H121.77q.636-2.591.984-4.889h2.726Z" transform="translate(-74.911 -1093.875)"/>
      <path id="Trazado_24572" data-name="Trazado 24572" d="M135.029,1113.767h-9.95v-2.094l3.575-3.613q1.585-1.626,2.072-2.253a4.979,4.979,0,0,0,.7-1.164,2.955,2.955,0,0,0,.214-1.109,1.618,1.618,0,0,0-.473-1.276,1.826,1.826,0,0,0-1.26-.419,3.618,3.618,0,0,0-1.606.381,8.15,8.15,0,0,0-1.626,1.08l-1.635-1.938a10.477,10.477,0,0,1,1.744-1.265,6.32,6.32,0,0,1,1.508-.571,7.748,7.748,0,0,1,1.829-.2,5.42,5.42,0,0,1,2.356.488,3.767,3.767,0,0,1,1.588,1.363,3.629,3.629,0,0,1,.564,2,4.914,4.914,0,0,1-.346,1.846,7.067,7.067,0,0,1-1.071,1.767,25.723,25.723,0,0,1-2.556,2.579l-1.831,1.724v.136h6.2Z" transform="translate(-72.253 -1099.31)"/>
      <path id="Trazado_24573" data-name="Trazado 24573" d="M136.593,1108.214a14.7,14.7,0,0,1-.754,4.769,11.4,11.4,0,0,1-2.177,3.847h-2.414a14.024,14.024,0,0,0,2.036-4.017,14.889,14.889,0,0,0,.72-4.619,15.491,15.491,0,0,0-.7-4.624,14.051,14.051,0,0,0-2.074-4.129h2.433a11.909,11.909,0,0,1,2.181,3.959A15.134,15.134,0,0,1,136.593,1108.214Z" transform="translate(-67.225 -1099.218)"/>
      <path id="Trazado_24574" data-name="Trazado 24574" d="M137.959,1103.926v-2.132h9.669v2.132Zm0,3.768v-2.134h9.669v2.134Z" transform="translate(-61.755 -1097.306)"/>
    </g>
    <g id="Grupo_14524" data-name="Grupo 14524" transform="translate(395.049 2096.29)">
      <path id="Trazado_24586" data-name="Trazado 24586" d="M174.544,1105.666h-2.971v-6.359a3.057,3.057,0,0,0-.417-1.767,1.53,1.53,0,0,0-1.336-.588,2,2,0,0,0-1.8.832,5.16,5.16,0,0,0-.555,2.759v5.122H164.5v-10.885h2.269l.4,1.392h.165a3.164,3.164,0,0,1,1.369-1.193,4.644,4.644,0,0,1,1.981-.4,3.806,3.806,0,0,1,2.882,1.028,4.117,4.117,0,0,1,.984,2.964Z" transform="translate(-137.445 -1091.431)"/>
      <path id="Trazado_24587" data-name="Trazado 24587" d="M171.5,1105.684a1.636,1.636,0,0,1,.437-1.238,1.782,1.782,0,0,1,1.276-.419,1.718,1.718,0,0,1,1.249.43,1.892,1.892,0,0,1,0,2.438,1.7,1.7,0,0,1-1.247.444,1.752,1.752,0,0,1-1.267-.433A1.627,1.627,0,0,1,171.5,1105.684Zm2.909-3.33h-2.375l-.5-9.513H174.9Z" transform="translate(-131.757 -1092.841)"/>
      <path id="Trazado_24588" data-name="Trazado 24588" d="M155.647,1107.776a4.818,4.818,0,0,1,1,.087l-.223,2.786a3.389,3.389,0,0,0-.876-.1,3.146,3.146,0,0,0-2.215.73,2.635,2.635,0,0,0-.792,2.045v5.54h-2.971v-10.885h2.248l.439,1.831h.145a4.118,4.118,0,0,1,1.369-1.476A3.38,3.38,0,0,1,155.647,1107.776Z" transform="translate(-149.573 -1080.704)"/>
      <path id="Trazado_24589" data-name="Trazado 24589" d="M154.338,1118.884a1.629,1.629,0,0,1,.437-1.236,1.775,1.775,0,0,1,1.276-.419,1.718,1.718,0,0,1,1.249.428,1.9,1.9,0,0,1,0,2.438,1.7,1.7,0,0,1-1.245.444,1.753,1.753,0,0,1-1.267-.433A1.627,1.627,0,0,1,154.338,1118.884Zm2.909-3.33h-2.376l-.495-9.513h3.366Z" transform="translate(-145.701 -1082.114)"/>
      <path id="Trazado_24590" data-name="Trazado 24590" d="M157.3,1114.814a15.06,15.06,0,0,1,.756-4.829,11.971,11.971,0,0,1,2.175-3.944h2.434a14.008,14.008,0,0,0-2.074,4.129,15.434,15.434,0,0,0-.7,4.624,14.97,14.97,0,0,0,.716,4.609,13.97,13.97,0,0,0,2.039,4.026h-2.414a11.493,11.493,0,0,1-2.181-3.865A14.687,14.687,0,0,1,157.3,1114.814Z" transform="translate(-143.297 -1082.114)"/>
      <path id="Trazado_24591" data-name="Trazado 24591" d="M171.49,1118.866H168.52v-6.357a3.06,3.06,0,0,0-.417-1.769,1.528,1.528,0,0,0-1.336-.587,2,2,0,0,0-1.8.832,5.169,5.169,0,0,0-.553,2.761v5.121h-2.971v-10.885h2.269l.4,1.392h.163a3.163,3.163,0,0,1,1.369-1.193,4.652,4.652,0,0,1,1.981-.4,3.8,3.8,0,0,1,2.882,1.028,4.116,4.116,0,0,1,.984,2.964Z" transform="translate(-139.927 -1080.704)"/>
      <path id="Trazado_24592" data-name="Trazado 24592" d="M171,1112.707v-2.432h5.226v2.432Z" transform="translate(-132.161 -1078.674)"/>
      <path id="Trazado_24593" data-name="Trazado 24593" d="M181.145,1107.776a4.811,4.811,0,0,1,1,.087l-.223,2.786a3.389,3.389,0,0,0-.876-.1,3.146,3.146,0,0,0-2.215.73,2.635,2.635,0,0,0-.792,2.045v5.54h-2.971v-10.885h2.248l.439,1.831h.145a4.117,4.117,0,0,1,1.369-1.476A3.382,3.382,0,0,1,181.145,1107.776Z" transform="translate(-128.854 -1080.704)"/>
      <path id="Trazado_24594" data-name="Trazado 24594" d="M187.755,1114.814a14.636,14.636,0,0,1-.754,4.769,11.385,11.385,0,0,1-2.177,3.847h-2.414a14.021,14.021,0,0,0,2.036-4.017,14.888,14.888,0,0,0,.72-4.618,15.432,15.432,0,0,0-.7-4.624,14.052,14.052,0,0,0-2.074-4.129h2.433A11.911,11.911,0,0,1,187,1110,15.082,15.082,0,0,1,187.755,1114.814Z" transform="translate(-122.904 -1082.114)"/>
      <path id="Trazado_24595" data-name="Trazado 24595" d="M186.419,1118.884a1.629,1.629,0,0,1,.437-1.236,1.775,1.775,0,0,1,1.276-.419,1.718,1.718,0,0,1,1.249.428,1.895,1.895,0,0,1,0,2.438,1.7,1.7,0,0,1-1.245.444,1.753,1.753,0,0,1-1.267-.433A1.627,1.627,0,0,1,186.419,1118.884Zm2.909-3.33h-2.376l-.495-9.513h3.366Z" transform="translate(-119.63 -1082.114)"/>
    </g>
    <line id="Línea_589" data-name="Línea 589" x2="77.073" transform="translate(392.721 2116.636)" fill="none" stroke="#272525" stroke-miterlimit="10" stroke-width="2"/>
    <g id="Grupo_14525" data-name="Grupo 14525" transform="translate(480.214 2108.03)">
      <path id="Trazado_24596" data-name="Trazado 24596" d="M200.268,1109.948l.145.225a29.972,29.972,0,0,1-1.713,4.664h-2.143q.636-2.591.984-4.889Zm-3.183-7.116a1.632,1.632,0,0,1,.437-1.236,1.782,1.782,0,0,1,1.278-.419,1.728,1.728,0,0,1,1.249.428,1.632,1.632,0,0,1,.442,1.227,1.612,1.612,0,0,1-.451,1.221,1.716,1.716,0,0,1-1.24.433,1.762,1.762,0,0,1-1.269-.428A1.622,1.622,0,0,1,197.085,1102.831Z" transform="translate(-196.557 -1097.808)"/>
      <path id="Trazado_24597" data-name="Trazado 24597" d="M212.444,1101.84a3.073,3.073,0,0,0-2.639,1.282,5.949,5.949,0,0,0-.935,3.567q0,4.761,3.575,4.76a11.274,11.274,0,0,0,3.631-.748v2.53a10.07,10.07,0,0,1-3.913.73,5.978,5.978,0,0,1-4.753-1.883,7.978,7.978,0,0,1-1.646-5.409,8.839,8.839,0,0,1,.81-3.89,5.818,5.818,0,0,1,2.322-2.56,6.86,6.86,0,0,1,3.549-.891,9.588,9.588,0,0,1,4.167,1l-.973,2.453a16.172,16.172,0,0,0-1.608-.662A4.787,4.787,0,0,0,212.444,1101.84Z" transform="translate(-189.076 -1099.31)"/>
      <path id="Trazado_24598" data-name="Trazado 24598" d="M215.431,1108.214a15.13,15.13,0,0,1,.754-4.831,12.04,12.04,0,0,1,2.175-3.942H220.8a13.92,13.92,0,0,0-2.074,4.129,15.436,15.436,0,0,0-.7,4.624,15.023,15.023,0,0,0,.714,4.609,14.066,14.066,0,0,0,2.039,4.026H218.36a11.556,11.556,0,0,1-2.181-3.865A14.737,14.737,0,0,1,215.431,1108.214Z" transform="translate(-181.219 -1099.218)"/>
      <path id="Trazado_24599" data-name="Trazado 24599" d="M226.427,1113.676h-3.007v-8.237l.029-1.354.049-1.479c-.5.5-.848.826-1.042.982l-1.635,1.314-1.45-1.811,4.584-3.65h2.472Z" transform="translate(-178.018 -1099.218)"/>
      <path id="Trazado_24600" data-name="Trazado 24600" d="M235.345,1106.657a9.931,9.931,0,0,1-1.22,5.521,4.242,4.242,0,0,1-3.765,1.791,4.187,4.187,0,0,1-3.712-1.849,9.787,9.787,0,0,1-1.253-5.463,10.027,10.027,0,0,1,1.216-5.554,4.735,4.735,0,0,1,7.474.083A9.8,9.8,0,0,1,235.345,1106.657Zm-6.959,0a11.1,11.1,0,0,0,.451,3.754,1.57,1.57,0,0,0,1.523,1.135,1.585,1.585,0,0,0,1.519-1.149,15.187,15.187,0,0,0-.005-7.5,1.576,1.576,0,0,0-3.033,0A11.115,11.115,0,0,0,228.386,1106.657Z" transform="translate(-173.122 -1099.318)"/>
      <path id="Trazado_24601" data-name="Trazado 24601" d="M235.469,1106.24a30.175,30.175,0,0,1-1.713,4.664h-2.143q.634-2.591.984-4.889h2.726Z" transform="translate(-168.068 -1093.875)"/>
      <path id="Trazado_24602" data-name="Trazado 24602" d="M244.876,1113.767h-9.95v-2.094l3.573-3.613q1.588-1.626,2.074-2.253a4.98,4.98,0,0,0,.7-1.164,2.954,2.954,0,0,0,.214-1.109,1.618,1.618,0,0,0-.473-1.276,1.829,1.829,0,0,0-1.26-.419,3.612,3.612,0,0,0-1.606.381,8.15,8.15,0,0,0-1.626,1.08l-1.637-1.938a10.553,10.553,0,0,1,1.744-1.265,6.35,6.35,0,0,1,1.508-.571,7.776,7.776,0,0,1,1.831-.2,5.426,5.426,0,0,1,2.356.488,3.767,3.767,0,0,1,1.588,1.363,3.628,3.628,0,0,1,.562,2,4.912,4.912,0,0,1-.344,1.846,7.067,7.067,0,0,1-1.071,1.767,25.721,25.721,0,0,1-2.556,2.579l-1.831,1.724v.136h6.2Z" transform="translate(-165.409 -1099.31)"/>
      <path id="Trazado_24603" data-name="Trazado 24603" d="M246.438,1108.214a14.694,14.694,0,0,1-.754,4.769,11.433,11.433,0,0,1-2.177,3.847h-2.414a14.023,14.023,0,0,0,2.036-4.017,14.943,14.943,0,0,0,.72-4.619,15.436,15.436,0,0,0-.7-4.624,14,14,0,0,0-2.072-4.129h2.433a11.941,11.941,0,0,1,2.181,3.959A15.133,15.133,0,0,1,246.438,1108.214Z" transform="translate(-160.381 -1099.218)"/>
      <path id="Trazado_24604" data-name="Trazado 24604" d="M247.8,1103.926v-2.132h9.669v2.132Zm0,3.768v-2.134h9.669v2.134Z" transform="translate(-154.912 -1097.306)"/>
    </g>
    <g id="Grupo_14526" data-name="Grupo 14526" transform="translate(594.744 2096.067)">
      <path id="Trazado_24605" data-name="Trazado 24605" d="M283.237,1107.076H280.23v-8.237l.027-1.354.051-1.479c-.5.5-.848.827-1.044.982l-1.635,1.314-1.45-1.811,4.586-3.651h2.472Z" transform="translate(-246.383 -1092.618)"/>
      <path id="Trazado_24606" data-name="Trazado 24606" d="M292.156,1100.057a9.93,9.93,0,0,1-1.222,5.521,4.244,4.244,0,0,1-3.763,1.791,4.191,4.191,0,0,1-3.714-1.849,9.79,9.79,0,0,1-1.251-5.464,10.011,10.011,0,0,1,1.216-5.554,4.735,4.735,0,0,1,7.474.083A9.808,9.808,0,0,1,292.156,1100.057Zm-6.961,0a11.106,11.106,0,0,0,.451,3.754,1.585,1.585,0,0,0,3.043-.015,15.186,15.186,0,0,0-.005-7.5,1.576,1.576,0,0,0-3.033,0A11.057,11.057,0,0,0,285.2,1100.057Z" transform="translate(-241.485 -1092.718)"/>
      <path id="Trazado_24607" data-name="Trazado 24607" d="M288.715,1105.684a1.636,1.636,0,0,1,.439-1.238,1.782,1.782,0,0,1,1.276-.419,1.718,1.718,0,0,1,1.249.43,1.895,1.895,0,0,1,0,2.438,1.7,1.7,0,0,1-1.245.444,1.752,1.752,0,0,1-1.267-.433A1.621,1.621,0,0,1,288.715,1105.684Zm2.911-3.33H289.25l-.495-9.513h3.366Z" transform="translate(-236.195 -1092.618)"/>
      <path id="Trazado_24608" data-name="Trazado 24608" d="M269.731,1120.368h-9.951v-2.094l3.575-3.613q1.585-1.626,2.074-2.253a5.031,5.031,0,0,0,.7-1.164,2.953,2.953,0,0,0,.214-1.109,1.616,1.616,0,0,0-.471-1.276,1.833,1.833,0,0,0-1.262-.419,3.608,3.608,0,0,0-1.6.381,8.219,8.219,0,0,0-1.628,1.08l-1.635-1.938a10.54,10.54,0,0,1,1.744-1.265,6.441,6.441,0,0,1,1.508-.571,7.771,7.771,0,0,1,1.831-.2,5.416,5.416,0,0,1,2.355.488,3.766,3.766,0,0,1,1.588,1.363,3.628,3.628,0,0,1,.564,2.005,4.927,4.927,0,0,1-.346,1.847,7.127,7.127,0,0,1-1.069,1.766,25.951,25.951,0,0,1-2.558,2.579l-1.829,1.724v.136h6.2Z" transform="translate(-259.741 -1081.983)"/>
      <path id="Trazado_24609" data-name="Trazado 24609" d="M266.23,1118.884a1.629,1.629,0,0,1,.437-1.236,1.778,1.778,0,0,1,1.276-.419,1.723,1.723,0,0,1,1.251.428,1.895,1.895,0,0,1,0,2.438,1.7,1.7,0,0,1-1.247.444,1.756,1.756,0,0,1-1.267-.433A1.627,1.627,0,0,1,266.23,1118.884Zm2.911-3.33h-2.376l-.495-9.513h3.366Z" transform="translate(-254.468 -1081.891)"/>
      <path id="Trazado_24610" data-name="Trazado 24610" d="M269.188,1114.814a15.11,15.11,0,0,1,.754-4.829,12.006,12.006,0,0,1,2.175-3.944h2.436a13.919,13.919,0,0,0-2.074,4.129,15.432,15.432,0,0,0-.7,4.624,15.025,15.025,0,0,0,.714,4.609,14.064,14.064,0,0,0,2.039,4.026h-2.414a11.555,11.555,0,0,1-2.181-3.865A14.733,14.733,0,0,1,269.188,1114.814Z" transform="translate(-252.064 -1081.891)"/>
      <path id="Trazado_24611" data-name="Trazado 24611" d="M280.184,1120.276h-3.007v-8.237l.029-1.354.049-1.479c-.5.5-.848.827-1.042.983l-1.637,1.314-1.448-1.811,4.584-3.651h2.472Z" transform="translate(-248.863 -1081.891)"/>
      <path id="Trazado_24612" data-name="Trazado 24612" d="M289.1,1113.259a9.91,9.91,0,0,1-1.222,5.519,4.237,4.237,0,0,1-3.763,1.791,4.191,4.191,0,0,1-3.714-1.849,9.78,9.78,0,0,1-1.251-5.461,10.02,10.02,0,0,1,1.216-5.554,4.734,4.734,0,0,1,7.474.081A9.8,9.8,0,0,1,289.1,1113.259Zm-6.961,0a11.1,11.1,0,0,0,.451,3.752,1.585,1.585,0,0,0,3.043-.014,15.187,15.187,0,0,0-.005-7.5,1.577,1.577,0,0,0-3.033,0A11.063,11.063,0,0,0,282.141,1113.259Z" transform="translate(-243.967 -1081.991)"/>
      <path id="Trazado_24613" data-name="Trazado 24613" d="M288.218,1112.707v-2.432h5.228v2.432Z" transform="translate(-236.599 -1078.452)"/>
      <path id="Trazado_24614" data-name="Trazado 24614" d="M301.838,1120.368h-9.95v-2.094l3.573-3.613q1.585-1.626,2.074-2.253a4.979,4.979,0,0,0,.7-1.164,2.952,2.952,0,0,0,.214-1.109,1.617,1.617,0,0,0-.473-1.276,1.829,1.829,0,0,0-1.26-.419,3.611,3.611,0,0,0-1.606.381,8.16,8.16,0,0,0-1.626,1.08l-1.637-1.938a10.542,10.542,0,0,1,1.744-1.265,6.44,6.44,0,0,1,1.508-.571,7.781,7.781,0,0,1,1.831-.2,5.424,5.424,0,0,1,2.356.488,3.766,3.766,0,0,1,1.588,1.363,3.627,3.627,0,0,1,.562,2.005,4.928,4.928,0,0,1-.344,1.847,7.084,7.084,0,0,1-1.071,1.766,25.888,25.888,0,0,1-2.556,2.579l-1.831,1.724v.136h6.2Z" transform="translate(-233.649 -1081.983)"/>
      <path id="Trazado_24615" data-name="Trazado 24615" d="M306.258,1114.814a14.686,14.686,0,0,1-.754,4.769,11.384,11.384,0,0,1-2.177,3.847h-2.414a14.021,14.021,0,0,0,2.036-4.017,14.889,14.889,0,0,0,.72-4.618,15.432,15.432,0,0,0-.7-4.624,14.051,14.051,0,0,0-2.074-4.129h2.433a11.91,11.91,0,0,1,2.181,3.959A15.133,15.133,0,0,1,306.258,1114.814Z" transform="translate(-226.298 -1081.891)"/>
      <path id="Trazado_24616" data-name="Trazado 24616" d="M304.923,1118.884a1.629,1.629,0,0,1,.439-1.236,1.775,1.775,0,0,1,1.276-.419,1.718,1.718,0,0,1,1.249.428,1.9,1.9,0,0,1,0,2.438,1.7,1.7,0,0,1-1.245.444,1.752,1.752,0,0,1-1.267-.433A1.62,1.62,0,0,1,304.923,1118.884Zm2.911-3.33h-2.376l-.495-9.513h3.366Z" transform="translate(-223.024 -1081.891)"/>
    </g>
    <line id="Línea_590" data-name="Línea 590" x2="87.349" transform="translate(593.921 2116.636)" fill="none" stroke="#272525" stroke-miterlimit="10" stroke-width="2"/>
    <g id="Grupo_14527" data-name="Grupo 14527" transform="translate(810.086 2096.067)">
      <path id="Trazado_24617" data-name="Trazado 24617" d="M385.6,1107.076H382.59v-8.237l.029-1.354.049-1.479c-.5.5-.846.827-1.04.982l-1.637,1.314-1.45-1.811,4.584-3.651H385.6Z" transform="translate(-378.541 -1092.618)"/>
      <path id="Trazado_24618" data-name="Trazado 24618" d="M394.516,1100.057a9.914,9.914,0,0,1-1.222,5.521,4.24,4.24,0,0,1-3.763,1.791,4.193,4.193,0,0,1-3.714-1.849,9.806,9.806,0,0,1-1.249-5.464,10.028,10.028,0,0,1,1.214-5.554,4.735,4.735,0,0,1,7.474.083A9.778,9.778,0,0,1,394.516,1100.057Zm-6.96,0a11.1,11.1,0,0,0,.453,3.754,1.57,1.57,0,0,0,1.523,1.135,1.586,1.586,0,0,0,1.519-1.149,15.214,15.214,0,0,0,0-7.5,1.589,1.589,0,0,0-1.515-1.146,1.573,1.573,0,0,0-1.519,1.146A11.055,11.055,0,0,0,387.555,1100.057Z" transform="translate(-373.643 -1092.718)"/>
      <path id="Trazado_24619" data-name="Trazado 24619" d="M394.194,1100.015l-3.506-5.326h3.368l2.114,3.466,2.13-3.466h3.372l-3.544,5.326,3.707,5.559h-3.379l-2.286-3.729-2.3,3.729H390.5Z" transform="translate(-368.821 -1091.116)"/>
      <path id="Trazado_24620" data-name="Trazado 24620" d="M407.209,1098.991q0,4.206-1.771,6.279a6.668,6.668,0,0,1-5.364,2.074,10.049,10.049,0,0,1-1.918-.136v-2.414a7.036,7.036,0,0,0,1.713.2,6,6,0,0,0,2.482-.444,3.136,3.136,0,0,0,1.49-1.392,6.134,6.134,0,0,0,.595-2.614h-.116a3.356,3.356,0,0,1-1.307,1.285,4.1,4.1,0,0,1-1.847.37,3.727,3.727,0,0,1-2.931-1.193,4.777,4.777,0,0,1-1.073-3.315,4.958,4.958,0,0,1,1.3-3.616,4.719,4.719,0,0,1,3.54-1.329,5.1,5.1,0,0,1,2.761.739,4.78,4.78,0,0,1,1.816,2.146A8.155,8.155,0,0,1,407.209,1098.991Zm-5.148-3.826a1.789,1.789,0,0,0-1.463.642,2.863,2.863,0,0,0-.524,1.851,2.561,2.561,0,0,0,.475,1.635,1.74,1.74,0,0,0,1.452.6,2.241,2.241,0,0,0,1.568-.6,1.822,1.822,0,0,0,.651-1.378,3.125,3.125,0,0,0-.609-1.958A1.868,1.868,0,0,0,402.062,1095.165Z" transform="translate(-363.409 -1092.692)"/>
      <path id="Trazado_24621" data-name="Trazado 24621" d="M406.829,1100.015l-3.5-5.326h3.366l2.114,3.466,2.132-3.466h3.37l-3.544,5.326,3.71,5.559h-3.381l-2.288-3.729-2.3,3.729H403.14Z" transform="translate(-358.551 -1091.116)"/>
      <path id="Trazado_24622" data-name="Trazado 24622" d="M414.837,1092.739a5.4,5.4,0,0,1,3.3.93,2.966,2.966,0,0,1,1.249,2.507,3.262,3.262,0,0,1-.605,1.942,5.117,5.117,0,0,1-1.947,1.524,6.9,6.9,0,0,1,2.295,1.787,3.34,3.34,0,0,1,.7,2.039,3.4,3.4,0,0,1-1.372,2.819,5.736,5.736,0,0,1-3.613,1.066,6.03,6.03,0,0,1-3.671-.993,3.3,3.3,0,0,1-1.334-2.813,3.727,3.727,0,0,1,.647-2.161,1.681,1.681,0,1,0,.326-3.312,3.586,3.586,0,0,1-.535-1.918,2.943,2.943,0,0,1,1.263-2.472A5.4,5.4,0,0,1,414.837,1092.739Zm-2.219,10.631a1.577,1.577,0,0,0,.584,1.305,3.054,3.054,0,0,0,3.272-.014,1.6,1.6,0,0,0,.551-1.271,1.73,1.73,0,0,0-.547-1.222,7.126,7.126,0,0,0-1.789-1.213Q412.619,1101.91,412.618,1103.37Zm2.2-8.431a1.875,1.875,0,0,0-1.24.394,1.31,1.31,0,0,0-.475,1.057,1.634,1.634,0,0,0,.375,1.046,4.14,4.14,0,0,0,1.359.95,3.783,3.783,0,0,0,1.332-.915,1.658,1.658,0,0,0,.382-1.08,1.282,1.282,0,0,0-.489-1.061A1.93,1.93,0,0,0,414.817,1094.939Z" transform="translate(-353.113 -1092.701)"/>
      <path id="Trazado_24623" data-name="Trazado 24623" d="M416.353,1105.684a1.63,1.63,0,0,1,.439-1.238,1.777,1.777,0,0,1,1.274-.419,1.72,1.72,0,0,1,1.251.43,1.9,1.9,0,0,1,0,2.438,1.7,1.7,0,0,1-1.247.444,1.758,1.758,0,0,1-1.267-.433A1.627,1.627,0,0,1,416.353,1105.684Zm2.911-3.33h-2.376l-.495-9.513h3.366Z" transform="translate(-347.813 -1092.618)"/>
      <path id="Trazado_24624" data-name="Trazado 24624" d="M389.463,1120.368h-9.951v-2.094l3.575-3.613c1.055-1.084,1.749-1.834,2.072-2.253a4.861,4.861,0,0,0,.7-1.164,2.92,2.92,0,0,0,.216-1.109,1.618,1.618,0,0,0-.475-1.276,1.826,1.826,0,0,0-1.26-.419,3.6,3.6,0,0,0-1.6.381,8.219,8.219,0,0,0-1.628,1.08l-1.637-1.938a10.472,10.472,0,0,1,1.746-1.265,6.44,6.44,0,0,1,1.508-.571,7.771,7.771,0,0,1,1.831-.2,5.41,5.41,0,0,1,2.355.488,3.772,3.772,0,0,1,1.59,1.363,3.627,3.627,0,0,1,.562,2.005,4.928,4.928,0,0,1-.346,1.847,7.131,7.131,0,0,1-1.069,1.766,26.112,26.112,0,0,1-2.556,2.579l-1.831,1.724v.136h6.2Z" transform="translate(-377.784 -1081.983)"/>
      <path id="Trazado_24625" data-name="Trazado 24625" d="M389.075,1113.215l-3.5-5.326h3.366l2.114,3.466,2.132-3.466h3.37l-3.544,5.326,3.711,5.559h-3.381l-2.288-3.729-2.3,3.729h-3.368Z" transform="translate(-372.978 -1080.389)"/>
      <path id="Trazado_24626" data-name="Trazado 24626" d="M399.4,1120.276h-3.009v-8.237l.027-1.354.051-1.479c-.5.5-.846.827-1.04.983l-1.637,1.314-1.452-1.811,4.586-3.651H399.4Z" transform="translate(-367.326 -1081.891)"/>
      <path id="Trazado_24627" data-name="Trazado 24627" d="M398.412,1114.814a15.061,15.061,0,0,1,.754-4.829,12,12,0,0,1,2.173-3.944h2.436a13.965,13.965,0,0,0-2.075,4.129,15.431,15.431,0,0,0-.7,4.624,15.023,15.023,0,0,0,.716,4.609,14.063,14.063,0,0,0,2.039,4.026h-2.414a11.554,11.554,0,0,1-2.181-3.865A14.684,14.684,0,0,1,398.412,1114.814Z" transform="translate(-362.393 -1081.891)"/>
      <path id="Trazado_24628" data-name="Trazado 24628" d="M407.087,1105.939a5.391,5.391,0,0,1,3.3.93,2.96,2.96,0,0,1,1.253,2.507,3.267,3.267,0,0,1-.605,1.943,5.159,5.159,0,0,1-1.947,1.522,6.893,6.893,0,0,1,2.295,1.787,3.335,3.335,0,0,1,.692,2.039,3.4,3.4,0,0,1-1.37,2.819,5.729,5.729,0,0,1-3.614,1.066,6.007,6.007,0,0,1-3.667-.993,3.292,3.292,0,0,1-1.334-2.813,3.727,3.727,0,0,1,.647-2.161,1.68,1.68,0,1,0,.326-3.31,3.6,3.6,0,0,1-.535-1.92,2.943,2.943,0,0,1,1.263-2.473A5.378,5.378,0,0,1,407.087,1105.939Zm-2.219,10.631a1.575,1.575,0,0,0,.584,1.305,3.055,3.055,0,0,0,3.272-.015,1.6,1.6,0,0,0,.555-1.271,1.745,1.745,0,0,0-.547-1.222,7.191,7.191,0,0,0-1.789-1.213C405.563,1114.794,404.868,1115.6,404.868,1116.57Zm2.2-8.431a1.886,1.886,0,0,0-1.243.393,1.308,1.308,0,0,0-.471,1.057,1.619,1.619,0,0,0,.375,1.048,4.1,4.1,0,0,0,1.356.948,3.789,3.789,0,0,0,1.336-.913,1.663,1.663,0,0,0,.379-1.082,1.289,1.289,0,0,0-.486-1.06A1.937,1.937,0,0,0,407.071,1108.14Z" transform="translate(-359.407 -1081.974)"/>
      <path id="Trazado_24629" data-name="Trazado 24629" d="M416.526,1114.814a14.685,14.685,0,0,1-.754,4.769,11.415,11.415,0,0,1-2.177,3.847h-2.416a13.932,13.932,0,0,0,2.038-4.017,14.89,14.89,0,0,0,.721-4.618,15.434,15.434,0,0,0-.7-4.624,14.051,14.051,0,0,0-2.074-4.129h2.433a11.941,11.941,0,0,1,2.181,3.959A15.082,15.082,0,0,1,416.526,1114.814Z" transform="translate(-352.032 -1081.891)"/>
      <path id="Trazado_24630" data-name="Trazado 24630" d="M415.191,1118.884a1.623,1.623,0,0,1,.439-1.236,1.77,1.77,0,0,1,1.274-.419,1.72,1.72,0,0,1,1.251.428,1.895,1.895,0,0,1,0,2.438,1.7,1.7,0,0,1-1.247.444,1.758,1.758,0,0,1-1.267-.433A1.627,1.627,0,0,1,415.191,1118.884Zm2.909-3.33h-2.375l-.495-9.513H418.6Z" transform="translate(-348.758 -1081.891)"/>
    </g>
    <line id="Línea_591" data-name="Línea 591" x2="87.349" transform="translate(802.375 2116.636)" fill="none" stroke="#272525" stroke-miterlimit="10" stroke-width="2"/>
    <g id="Grupo_14528" data-name="Grupo 14528" transform="translate(1017.101 2096.067)">
      <path id="Trazado_24631" data-name="Trazado 24631" d="M502.795,1098.991q0,4.206-1.773,6.279a6.666,6.666,0,0,1-5.364,2.074,10.061,10.061,0,0,1-1.918-.136v-2.414a7.047,7.047,0,0,0,1.713.2,6,6,0,0,0,2.482-.444,3.128,3.128,0,0,0,1.49-1.392,6.135,6.135,0,0,0,.595-2.614H499.9a3.332,3.332,0,0,1-1.307,1.285,4.1,4.1,0,0,1-1.847.37,3.732,3.732,0,0,1-2.931-1.193,4.785,4.785,0,0,1-1.071-3.315,4.957,4.957,0,0,1,1.3-3.616,4.725,4.725,0,0,1,3.54-1.329,5.1,5.1,0,0,1,2.761.739,4.758,4.758,0,0,1,1.816,2.146A8.154,8.154,0,0,1,502.795,1098.991Zm-5.15-3.826a1.79,1.79,0,0,0-1.463.642,2.864,2.864,0,0,0-.524,1.851,2.562,2.562,0,0,0,.477,1.635,1.736,1.736,0,0,0,1.45.6,2.238,2.238,0,0,0,1.568-.6,1.823,1.823,0,0,0,.651-1.378,3.135,3.135,0,0,0-.607-1.958A1.871,1.871,0,0,0,497.645,1095.165Z" transform="translate(-492.747 -1092.692)"/>
      <path id="Trazado_24632" data-name="Trazado 24632" d="M509.019,1100.057a9.914,9.914,0,0,1-1.222,5.521,4.242,4.242,0,0,1-3.763,1.791,4.191,4.191,0,0,1-3.714-1.849,9.79,9.79,0,0,1-1.251-5.464,10.027,10.027,0,0,1,1.216-5.554,4.735,4.735,0,0,1,7.474.083A9.794,9.794,0,0,1,509.019,1100.057Zm-6.961,0a11.106,11.106,0,0,0,.451,3.754,1.585,1.585,0,0,0,3.043-.015,15.184,15.184,0,0,0-.005-7.5,1.576,1.576,0,0,0-3.033,0A11.059,11.059,0,0,0,502.058,1100.057Z" transform="translate(-487.61 -1092.718)"/>
      <path id="Trazado_24633" data-name="Trazado 24633" d="M505.939,1120.368h-9.951v-2.094l3.575-3.613q1.585-1.626,2.074-2.253a5.031,5.031,0,0,0,.7-1.164,2.951,2.951,0,0,0,.214-1.109,1.622,1.622,0,0,0-.471-1.276,1.833,1.833,0,0,0-1.262-.419,3.608,3.608,0,0,0-1.6.381,8.222,8.222,0,0,0-1.628,1.08l-1.635-1.938a10.542,10.542,0,0,1,1.744-1.265,6.44,6.44,0,0,1,1.508-.571,7.77,7.77,0,0,1,1.831-.2,5.416,5.416,0,0,1,2.355.488,3.766,3.766,0,0,1,1.588,1.363,3.628,3.628,0,0,1,.564,2.005,4.929,4.929,0,0,1-.346,1.847,7.13,7.13,0,0,1-1.069,1.766,25.98,25.98,0,0,1-2.558,2.579l-1.829,1.724v.136h6.2Z" transform="translate(-490.144 -1081.983)"/>
    </g>
    <line id="Línea_592" data-name="Línea 592" x2="41.106" transform="translate(1007.285 2116.636)" fill="none" stroke="#272525" stroke-miterlimit="10" stroke-width="2"/>
    <g id="Grupo_14529" data-name="Grupo 14529" transform="translate(691.659 2108.03)">
      <path id="Trazado_24634" data-name="Trazado 24634" d="M316.917,1109.948l.145.225a30,30,0,0,1-1.715,4.664h-2.141q.633-2.591.984-4.889Zm-3.183-7.116a1.632,1.632,0,0,1,.437-1.236,1.775,1.775,0,0,1,1.276-.419,1.726,1.726,0,0,1,1.249.428,1.9,1.9,0,0,1-.007,2.449,1.721,1.721,0,0,1-1.242.433,1.758,1.758,0,0,1-1.267-.428A1.622,1.622,0,0,1,313.734,1102.831Z" transform="translate(-313.207 -1097.808)"/>
      <path id="Trazado_24635" data-name="Trazado 24635" d="M329.093,1101.84a3.073,3.073,0,0,0-2.639,1.282,5.949,5.949,0,0,0-.933,3.567q0,4.761,3.573,4.76a11.275,11.275,0,0,0,3.631-.748v2.53a10.063,10.063,0,0,1-3.914.73,5.971,5.971,0,0,1-4.751-1.883,7.969,7.969,0,0,1-1.646-5.409,8.839,8.839,0,0,1,.809-3.89,5.839,5.839,0,0,1,2.322-2.56,6.864,6.864,0,0,1,3.549-.891,9.581,9.581,0,0,1,4.167,1l-.973,2.453a16.173,16.173,0,0,0-1.608-.662A4.787,4.787,0,0,0,329.093,1101.84Z" transform="translate(-305.726 -1099.31)"/>
      <path id="Trazado_24636" data-name="Trazado 24636" d="M332.081,1108.214a15.077,15.077,0,0,1,.754-4.831,11.975,11.975,0,0,1,2.175-3.942h2.436a13.97,13.97,0,0,0-2.075,4.129,15.434,15.434,0,0,0-.7,4.624,14.969,14.969,0,0,0,.716,4.609,14.065,14.065,0,0,0,2.039,4.026H335.01a11.494,11.494,0,0,1-2.181-3.865A14.687,14.687,0,0,1,332.081,1108.214Z" transform="translate(-297.869 -1099.218)"/>
      <path id="Trazado_24637" data-name="Trazado 24637" d="M343.077,1113.676H340.07v-8.237l.027-1.354.049-1.479c-.5.5-.846.826-1.042.982l-1.635,1.314-1.45-1.811,4.584-3.65h2.474Z" transform="translate(-294.669 -1099.218)"/>
      <path id="Trazado_24638" data-name="Trazado 24638" d="M351.995,1106.657a9.929,9.929,0,0,1-1.222,5.521,4.239,4.239,0,0,1-3.763,1.791,4.19,4.19,0,0,1-3.714-1.849,9.788,9.788,0,0,1-1.251-5.463,10.028,10.028,0,0,1,1.214-5.554,4.735,4.735,0,0,1,7.473.083A9.793,9.793,0,0,1,351.995,1106.657Zm-6.961,0a11.1,11.1,0,0,0,.451,3.754,1.585,1.585,0,0,0,3.043-.014,15.243,15.243,0,0,0-.005-7.5,1.576,1.576,0,0,0-3.033,0A11.061,11.061,0,0,0,345.034,1106.657Z" transform="translate(-289.772 -1099.318)"/>
      <path id="Trazado_24639" data-name="Trazado 24639" d="M352.119,1106.24a29.99,29.99,0,0,1-1.713,4.664h-2.143q.636-2.591.984-4.889h2.726Z" transform="translate(-284.719 -1093.875)"/>
      <path id="Trazado_24640" data-name="Trazado 24640" d="M361.524,1113.767h-9.95v-2.094l3.574-3.613q1.585-1.626,2.072-2.253a4.977,4.977,0,0,0,.7-1.164,2.955,2.955,0,0,0,.214-1.109,1.623,1.623,0,0,0-.471-1.276,1.834,1.834,0,0,0-1.262-.419,3.61,3.61,0,0,0-1.6.381,8.158,8.158,0,0,0-1.628,1.08l-1.635-1.938a10.481,10.481,0,0,1,1.744-1.265,6.35,6.35,0,0,1,1.508-.571,7.75,7.75,0,0,1,1.829-.2,5.42,5.42,0,0,1,2.356.488,3.767,3.767,0,0,1,1.588,1.363,3.629,3.629,0,0,1,.564,2,4.914,4.914,0,0,1-.346,1.846,7.112,7.112,0,0,1-1.069,1.767,26,26,0,0,1-2.558,2.579l-1.829,1.724v.136h6.2Z" transform="translate(-282.059 -1099.31)"/>
      <path id="Trazado_24641" data-name="Trazado 24641" d="M363.087,1108.214a14.646,14.646,0,0,1-.754,4.769,11.4,11.4,0,0,1-2.177,3.847h-2.414a14.022,14.022,0,0,0,2.036-4.017,14.891,14.891,0,0,0,.721-4.619,15.434,15.434,0,0,0-.7-4.624,14.05,14.05,0,0,0-2.074-4.129h2.433a11.908,11.908,0,0,1,2.181,3.959A15.083,15.083,0,0,1,363.087,1108.214Z" transform="translate(-277.031 -1099.218)"/>
      <path id="Trazado_24642" data-name="Trazado 24642" d="M364.453,1103.926v-2.132h9.669v2.132Zm0,3.768v-2.134h9.669v2.134Z" transform="translate(-271.562 -1097.306)"/>
    </g>
    <g id="Grupo_14530" data-name="Grupo 14530" transform="translate(904.132 2108.03)">
      <path id="Trazado_24643" data-name="Trazado 24643" d="M434.134,1109.948l.145.225a29.975,29.975,0,0,1-1.713,4.664h-2.143q.636-2.591.984-4.889Zm-3.183-7.116a1.632,1.632,0,0,1,.439-1.236,1.775,1.775,0,0,1,1.276-.419,1.725,1.725,0,0,1,1.249.428,1.631,1.631,0,0,1,.442,1.227,1.612,1.612,0,0,1-.451,1.221,1.716,1.716,0,0,1-1.24.433,1.757,1.757,0,0,1-1.267-.428A1.616,1.616,0,0,1,430.952,1102.831Z" transform="translate(-430.424 -1097.808)"/>
      <path id="Trazado_24644" data-name="Trazado 24644" d="M443.454,1101.84a3.071,3.071,0,0,0-2.639,1.282,5.949,5.949,0,0,0-.935,3.567q0,4.761,3.575,4.76a11.293,11.293,0,0,0,3.631-.748v2.53a10.08,10.08,0,0,1-3.915.73,5.976,5.976,0,0,1-4.751-1.883,7.978,7.978,0,0,1-1.646-5.409,8.84,8.84,0,0,1,.808-3.89,5.833,5.833,0,0,1,2.324-2.56,6.86,6.86,0,0,1,3.549-.891,9.58,9.58,0,0,1,4.165,1l-.973,2.453a16.314,16.314,0,0,0-1.606-.662A4.787,4.787,0,0,0,443.454,1101.84Z" transform="translate(-425.265 -1099.31)"/>
      <path id="Trazado_24645" data-name="Trazado 24645" d="M446.441,1108.214a15.13,15.13,0,0,1,.754-4.831,12.008,12.008,0,0,1,2.175-3.942h2.436a13.968,13.968,0,0,0-2.076,4.129,15.493,15.493,0,0,0-.7,4.624,15.023,15.023,0,0,0,.714,4.609,14.066,14.066,0,0,0,2.039,4.026H449.37a11.526,11.526,0,0,1-2.181-3.865A14.737,14.737,0,0,1,446.441,1108.214Z" transform="translate(-417.408 -1099.218)"/>
      <path id="Trazado_24646" data-name="Trazado 24646" d="M457.437,1113.676H454.43v-8.237l.027-1.354.051-1.479c-.5.5-.848.826-1.042.982l-1.637,1.314-1.45-1.811,4.586-3.65h2.472Z" transform="translate(-414.208 -1099.218)"/>
      <path id="Trazado_24647" data-name="Trazado 24647" d="M466.355,1106.657a9.914,9.914,0,0,1-1.222,5.521,4.237,4.237,0,0,1-3.763,1.791,4.19,4.19,0,0,1-3.714-1.849,9.788,9.788,0,0,1-1.251-5.463,10.027,10.027,0,0,1,1.216-5.554,4.735,4.735,0,0,1,7.474.083A9.8,9.8,0,0,1,466.355,1106.657Zm-6.961,0a11.1,11.1,0,0,0,.451,3.754,1.585,1.585,0,0,0,3.043-.014,15.186,15.186,0,0,0-.005-7.5,1.576,1.576,0,0,0-3.033,0A11.06,11.06,0,0,0,459.394,1106.657Z" transform="translate(-409.311 -1099.318)"/>
      <path id="Trazado_24648" data-name="Trazado 24648" d="M466.48,1106.24a30.022,30.022,0,0,1-1.715,4.664h-2.141q.634-2.591.984-4.889h2.726Z" transform="translate(-404.257 -1093.875)"/>
      <path id="Trazado_24649" data-name="Trazado 24649" d="M475.886,1113.767h-9.95v-2.094l3.573-3.613q1.585-1.626,2.074-2.253a5.045,5.045,0,0,0,.7-1.164,2.957,2.957,0,0,0,.214-1.109,1.618,1.618,0,0,0-.473-1.276,1.829,1.829,0,0,0-1.26-.419,3.612,3.612,0,0,0-1.606.381,8.21,8.21,0,0,0-1.628,1.08l-1.635-1.938a10.552,10.552,0,0,1,1.744-1.265,6.35,6.35,0,0,1,1.508-.571,7.776,7.776,0,0,1,1.831-.2,5.426,5.426,0,0,1,2.356.488,3.767,3.767,0,0,1,1.588,1.363,3.628,3.628,0,0,1,.562,2,4.914,4.914,0,0,1-.344,1.846,7.124,7.124,0,0,1-1.071,1.767,25.925,25.925,0,0,1-2.556,2.579l-1.831,1.724v.136h6.2Z" transform="translate(-401.598 -1099.31)"/>
      <path id="Trazado_24650" data-name="Trazado 24650" d="M477.448,1108.214a14.7,14.7,0,0,1-.754,4.769,11.406,11.406,0,0,1-2.179,3.847H472.1a13.932,13.932,0,0,0,2.036-4.017,14.891,14.891,0,0,0,.721-4.619,15.437,15.437,0,0,0-.7-4.624,14.047,14.047,0,0,0-2.072-4.129h2.431a11.912,11.912,0,0,1,2.182,3.959A15.132,15.132,0,0,1,477.448,1108.214Z" transform="translate(-396.569 -1099.218)"/>
      <path id="Trazado_24651" data-name="Trazado 24651" d="M478.813,1103.926v-2.132h9.669v2.132Zm0,3.768v-2.134h9.669v2.134Z" transform="translate(-391.101 -1097.306)"/>
    </g>
  </g>
</svg>
