<svg id="Grupo_14523" data-name="Grupo 14523" xmlns="http://www.w3.org/2000/svg" width="119.216" height="17.614" viewBox="0 0 119.216 17.614">
  <path id="Trazado_24575" data-name="Trazado 24575" d="M102.6,1154.38a3.075,3.075,0,0,0-2.639,1.279,5.955,5.955,0,0,0-.935,3.569q0,4.758,3.575,4.76a11.284,11.284,0,0,0,3.631-.75v2.532a10.1,10.1,0,0,1-3.914.73,5.971,5.971,0,0,1-4.751-1.883,7.975,7.975,0,0,1-1.646-5.409,8.835,8.835,0,0,1,.808-3.89,5.829,5.829,0,0,1,2.322-2.559,6.861,6.861,0,0,1,3.549-.892,9.61,9.61,0,0,1,4.167,1l-.973,2.454a16.251,16.251,0,0,0-1.608-.664A4.783,4.783,0,0,0,102.6,1154.38Z" transform="translate(-95.919 -1151.847)"/>
  <path id="Trazado_24576" data-name="Trazado 24576" d="M105.588,1160.751a15.059,15.059,0,0,1,.754-4.829,11.978,11.978,0,0,1,2.175-3.943h2.434a14.026,14.026,0,0,0-2.074,4.127,15.443,15.443,0,0,0-.7,4.624,14.983,14.983,0,0,0,.716,4.612,13.967,13.967,0,0,0,2.039,4.026h-2.414a11.5,11.5,0,0,1-2.181-3.866A14.679,14.679,0,0,1,105.588,1160.751Z" transform="translate(-88.062 -1151.755)"/>
  <path id="Trazado_24577" data-name="Trazado 24577" d="M116.582,1166.213h-3.009v-8.237l.029-1.352.049-1.481c-.5.5-.847.828-1.042.984l-1.635,1.314-1.45-1.811,4.584-3.651h2.474Z" transform="translate(-84.863 -1151.755)"/>
  <path id="Trazado_24578" data-name="Trazado 24578" d="M125.5,1159.2a9.919,9.919,0,0,1-1.222,5.519,4.241,4.241,0,0,1-3.763,1.793,4.19,4.19,0,0,1-3.714-1.851,9.776,9.776,0,0,1-1.253-5.461,10.022,10.022,0,0,1,1.216-5.554,4.733,4.733,0,0,1,7.474.081A9.8,9.8,0,0,1,125.5,1159.2Zm-6.961,0a11.121,11.121,0,0,0,.451,3.754,1.568,1.568,0,0,0,1.524,1.133,1.585,1.585,0,0,0,1.519-1.147,15.25,15.25,0,0,0-.005-7.5,1.587,1.587,0,0,0-1.514-1.144,1.57,1.57,0,0,0-1.519,1.144A11.077,11.077,0,0,0,118.541,1159.2Z" transform="translate(-79.966 -1151.856)"/>
  <path id="Trazado_24579" data-name="Trazado 24579" d="M125.626,1158.779a29.894,29.894,0,0,1-1.713,4.662H121.77q.636-2.589.984-4.887h2.726Z" transform="translate(-74.911 -1146.413)"/>
  <path id="Trazado_24580" data-name="Trazado 24580" d="M135.029,1166.3h-9.95v-2.092l3.575-3.612q1.585-1.626,2.072-2.253a5.055,5.055,0,0,0,.7-1.164,2.957,2.957,0,0,0,.214-1.111,1.61,1.61,0,0,0-.473-1.274,1.825,1.825,0,0,0-1.26-.419,3.636,3.636,0,0,0-1.606.379,8.338,8.338,0,0,0-1.626,1.08l-1.635-1.936a10.617,10.617,0,0,1,1.744-1.267,6.4,6.4,0,0,1,1.508-.569,7.754,7.754,0,0,1,1.829-.2,5.4,5.4,0,0,1,2.356.488,3.762,3.762,0,0,1,1.588,1.361,3.634,3.634,0,0,1,.564,2.007,4.912,4.912,0,0,1-.346,1.845,7.1,7.1,0,0,1-1.071,1.768,25.917,25.917,0,0,1-2.556,2.579l-1.831,1.724v.136h6.2Z" transform="translate(-72.253 -1151.847)"/>
  <path id="Trazado_24581" data-name="Trazado 24581" d="M136.593,1160.751a14.7,14.7,0,0,1-.754,4.771,11.4,11.4,0,0,1-2.177,3.846h-2.414a14.045,14.045,0,0,0,2.036-4.017,14.9,14.9,0,0,0,.72-4.621,15.5,15.5,0,0,0-.7-4.624,14.069,14.069,0,0,0-2.074-4.127h2.433a11.885,11.885,0,0,1,2.181,3.957A15.142,15.142,0,0,1,136.593,1160.751Z" transform="translate(-67.225 -1151.755)"/>
  <path id="Trazado_24582" data-name="Trazado 24582" d="M137.959,1156.466v-2.134h9.669v2.134Zm0,3.767V1158.1h9.669v2.132Z" transform="translate(-61.755 -1149.844)"/>
  <path id="Trazado_24583" data-name="Trazado 24583" d="M157.54,1163.264h-1.713v2.949h-2.942v-2.949h-6.076v-2.093l6.243-9.19h2.775v8.947h1.713Zm-4.655-2.336v-2.414c0-.4.018-.988.049-1.753s.058-1.211.078-1.334h-.078a11.017,11.017,0,0,1-.866,1.559l-2.61,3.943Z" transform="translate(-54.564 -1151.755)"/>
  <path id="Trazado_24584" data-name="Trazado 24584" d="M158.443,1157.121a4.577,4.577,0,0,1,3.285,1.158,4.162,4.162,0,0,1,1.224,3.174,4.614,4.614,0,0,1-1.47,3.67,6.208,6.208,0,0,1-4.207,1.285,8.232,8.232,0,0,1-3.836-.77v-2.6a8.667,8.667,0,0,0,3.729.926q2.754,0,2.755-2.26,0-2.151-2.851-2.152a7.051,7.051,0,0,0-1.14.1,8.131,8.131,0,0,0-1.013.22l-1.2-.644.535-7.252h7.722v2.55h-5.084l-.261,2.793.339-.067A6.742,6.742,0,0,1,158.443,1157.121Z" transform="translate(-49.176 -1151.755)"/>
  <path id="Trazado_24585" data-name="Trazado 24585" d="M163.228,1162.486l.145.225a29.9,29.9,0,0,1-1.713,4.662h-2.143q.636-2.589.984-4.887Zm-3.183-7.116a1.629,1.629,0,0,1,.437-1.236,1.78,1.78,0,0,1,1.276-.419,1.721,1.721,0,0,1,1.251.428,1.9,1.9,0,0,1-.009,2.449,1.726,1.726,0,0,1-1.242.433,1.761,1.761,0,0,1-1.267-.43A1.618,1.618,0,0,1,160.045,1155.37Z" transform="translate(-44.236 -1150.345)"/>
</svg>
