<svg id="Grupo_14545" data-name="Grupo 14545" xmlns="http://www.w3.org/2000/svg" width="224.384" height="14.581" viewBox="0 0 224.384 14.581">
  <g id="Grupo_14544" data-name="Grupo 14544">
    <path id="Trazado_24663" data-name="Trazado 24663" d="M86.662,1079.157H83.244l-3.285-5.342-3.283,5.342H73.471l4.684-7.282-4.385-6.837h3.3l3.04,5.079,2.984-5.079h3.224l-4.43,7Z" transform="translate(-73.471 -1064.835)"/>
    <path id="Trazado_24664" data-name="Trazado 24664" d="M87.909,1079.157H84.926v-8.169l.027-1.344.05-1.469c-.5.5-.841.822-1.034.976l-1.623,1.3-1.438-1.8,4.549-3.621h2.452Z" transform="translate(-67.537 -1064.835)"/>
    <path id="Trazado_24665" data-name="Trazado 24665" d="M96.049,1076.415l-9.59-4.23v-1.379l9.59-4.79v2.318l-6.605,3.06,6.605,2.715Z" transform="translate(-63.108 -1064.055)"/>
    <path id="Trazado_24666" data-name="Trazado 24666" d="M107.214,1079.157h-3.42l-3.283-5.342-3.283,5.342H94.023l4.683-7.282-4.385-6.837h3.3l3.04,5.079,2.984-5.079h3.224l-4.432,7Z" transform="translate(-57.073 -1064.835)"/>
    <path id="Trazado_24667" data-name="Trazado 24667" d="M111.137,1079.247h-9.87v-2.078l3.545-3.581q1.572-1.612,2.057-2.235a4.949,4.949,0,0,0,.694-1.156,2.917,2.917,0,0,0,.212-1.1,1.605,1.605,0,0,0-.467-1.264,1.819,1.819,0,0,0-1.251-.415,3.579,3.579,0,0,0-1.591.378,8.157,8.157,0,0,0-1.615,1.07l-1.622-1.92a10.384,10.384,0,0,1,1.73-1.255,6.227,6.227,0,0,1,1.5-.566,7.7,7.7,0,0,1,1.816-.2,5.4,5.4,0,0,1,2.335.482,3.752,3.752,0,0,1,1.575,1.352,3.61,3.61,0,0,1,.559,1.99,4.874,4.874,0,0,1-.343,1.83,7.05,7.05,0,0,1-1.061,1.753,25.736,25.736,0,0,1-2.537,2.558l-1.814,1.71v.135h6.152Z" transform="translate(-51.323 -1064.925)"/>
    <path id="Trazado_24668" data-name="Trazado 24668" d="M116.6,1076.415l-9.59-4.23v-1.379l9.59-4.79v2.318l-6.605,3.06,6.605,2.715Z" transform="translate(-46.71 -1064.055)"/>
    <path id="Trazado_24669" data-name="Trazado 24669" d="M127.764,1079.157h-3.418l-3.283-5.342-3.283,5.342h-3.206l4.684-7.282-4.385-6.837h3.3l3.042,5.079,2.985-5.079h3.224l-4.432,7Z" transform="translate(-40.675 -1064.835)"/>
    <path id="Trazado_24670" data-name="Trazado 24670" d="M131.137,1068.285a3.326,3.326,0,0,1-.8,2.251,4.148,4.148,0,0,1-2.251,1.275v.057a4.493,4.493,0,0,1,2.589,1.037,2.911,2.911,0,0,1,.879,2.228,3.776,3.776,0,0,1-1.476,3.171,6.826,6.826,0,0,1-4.221,1.135,10.24,10.24,0,0,1-4.074-.764v-2.539a9.354,9.354,0,0,0,1.805.676,7.573,7.573,0,0,0,1.949.261,3.782,3.782,0,0,0,2.184-.5,1.84,1.84,0,0,0,.7-1.611,1.456,1.456,0,0,0-.811-1.41,5.973,5.973,0,0,0-2.589-.417h-1.072v-2.287h1.091a5.091,5.091,0,0,0,2.4-.43,1.555,1.555,0,0,0,.757-1.474q0-1.6-2.008-1.6a4.626,4.626,0,0,0-1.413.23,6.885,6.885,0,0,0-1.6.8l-1.381-2.059a7.683,7.683,0,0,1,4.608-1.39,5.954,5.954,0,0,1,3.461.888A2.854,2.854,0,0,1,131.137,1068.285Z" transform="translate(-34.925 -1064.925)"/>
    <path id="Trazado_24671" data-name="Trazado 24671" d="M137.154,1076.415l-9.59-4.23v-1.379l9.59-4.79v2.318l-6.605,3.06,6.605,2.715Z" transform="translate(-30.311 -1064.055)"/>
    <path id="Trazado_24672" data-name="Trazado 24672" d="M148.318,1079.157H144.9l-3.283-5.342-3.285,5.342h-3.206l4.685-7.282-4.387-6.837h3.3l3.042,5.079,2.985-5.079h3.224l-4.432,7Z" transform="translate(-24.276 -1064.835)"/>
    <path id="Trazado_24673" data-name="Trazado 24673" d="M152.745,1076.23h-1.7v2.927h-2.918v-2.927H142.1v-2.077l6.19-9.115h2.753v8.874h1.7Zm-4.619-2.318v-2.395c0-.4.018-.978.05-1.738s.058-1.2.077-1.323h-.077a10.743,10.743,0,0,1-.861,1.546l-2.587,3.911Z" transform="translate(-18.712 -1064.835)"/>
    <path id="Trazado_24674" data-name="Trazado 24674" d="M157.706,1076.415l-9.59-4.23v-1.379l9.59-4.79v2.318l-6.605,3.06,6.605,2.715Z" transform="translate(-13.913 -1064.055)"/>
    <path id="Trazado_24675" data-name="Trazado 24675" d="M168.87,1079.157h-3.418l-3.285-5.342-3.283,5.342h-3.206l4.684-7.282-4.385-6.837h3.3l3.04,5.079,2.985-5.079h3.224l-4.43,7Z" transform="translate(-7.878 -1064.835)"/>
    <path id="Trazado_24676" data-name="Trazado 24676" d="M167.967,1070.137a4.539,4.539,0,0,1,3.258,1.149,4.125,4.125,0,0,1,1.214,3.148,4.574,4.574,0,0,1-1.458,3.641,6.148,6.148,0,0,1-4.173,1.275,8.163,8.163,0,0,1-3.8-.764v-2.576a8.053,8.053,0,0,0,1.778.662,7.829,7.829,0,0,0,1.92.253q2.735,0,2.733-2.24,0-2.133-2.828-2.132a6.966,6.966,0,0,0-1.131.1,8.32,8.32,0,0,0-1,.218l-1.188-.639.53-7.193h7.659v2.53H166.43l-.259,2.771.336-.067A6.59,6.59,0,0,1,167.967,1070.137Z" transform="translate(-2.034 -1064.835)"/>
    <path id="Trazado_24677" data-name="Trazado 24677" d="M168.824,1072.85a1.618,1.618,0,0,1,.433-1.226,1.76,1.76,0,0,1,1.266-.415,1.712,1.712,0,0,1,1.239.424,1.882,1.882,0,0,1,0,2.42,1.681,1.681,0,0,1-1.235.439,1.737,1.737,0,0,1-1.257-.428A1.618,1.618,0,0,1,168.824,1072.85Zm5.627,0a1.606,1.606,0,0,1,.437-1.226,1.769,1.769,0,0,1,1.275-.415,1.715,1.715,0,0,1,1.239.424,1.882,1.882,0,0,1,0,2.42,1.681,1.681,0,0,1-1.235.439,1.755,1.755,0,0,1-1.268-.428A1.612,1.612,0,0,1,174.451,1072.85Zm5.64,0a1.612,1.612,0,0,1,.435-1.226,1.758,1.758,0,0,1,1.264-.415,1.721,1.721,0,0,1,1.242.424,1.879,1.879,0,0,1-.005,2.42,1.683,1.683,0,0,1-1.237.439,1.735,1.735,0,0,1-1.255-.428A1.612,1.612,0,0,1,180.091,1072.85Z" transform="translate(2.61 -1059.911)"/>
    <path id="Trazado_24678" data-name="Trazado 24678" d="M187.112,1076.415l-9.59-4.23v-1.379l9.59-4.79v2.318l-6.605,3.06,6.605,2.715Z" transform="translate(9.55 -1064.055)"/>
    <path id="Trazado_24679" data-name="Trazado 24679" d="M198.276,1079.157h-3.418l-3.283-5.342-3.285,5.342h-3.206l4.685-7.282-4.387-6.837h3.3l3.042,5.079,2.984-5.079h3.224l-4.432,7Z" transform="translate(15.585 -1064.835)"/>
    <path id="Trazado_24680" data-name="Trazado 24680" d="M202.7,1077.773h-2.947v-6.307a3.032,3.032,0,0,0-.414-1.753,1.514,1.514,0,0,0-1.325-.584,1.985,1.985,0,0,0-1.785.827,5.116,5.116,0,0,0-.55,2.736v5.081h-2.945v-10.8h2.251l.394,1.379h.164a3.136,3.136,0,0,1,1.357-1.181,4.609,4.609,0,0,1,1.965-.4,3.774,3.774,0,0,1,2.859,1.021,4.083,4.083,0,0,1,.976,2.94Z" transform="translate(21.686 -1063.451)"/>
  </g>
</svg>
