<svg id="Grupo_14547" data-name="Grupo 14547" xmlns="http://www.w3.org/2000/svg" width="50.35" height="14.32" viewBox="0 0 50.35 14.32">
  <g id="Grupo_14546" data-name="Grupo 14546">
    <path id="Trazado_24681" data-name="Trazado 24681" d="M89.486,1103.784H86.068l-3.283-5.339-3.285,5.339H76.3l4.685-7.281-4.387-6.837h3.3l3.042,5.079,2.985-5.079h3.224l-4.432,7Z" transform="translate(-76.295 -1089.464)"/>
    <path id="Trazado_24682" data-name="Trazado 24682" d="M93.908,1102.4H90.961v-6.3a3.034,3.034,0,0,0-.414-1.755,1.517,1.517,0,0,0-1.325-.583,1.984,1.984,0,0,0-1.785.825,5.117,5.117,0,0,0-.55,2.736v5.08H83.942v-10.8h2.251l.394,1.381h.164a3.125,3.125,0,0,1,1.357-1.183,4.634,4.634,0,0,1,1.965-.4,3.773,3.773,0,0,1,2.859,1.019,4.087,4.087,0,0,1,.976,2.941Z" transform="translate(-70.194 -1088.079)"/>
    <path id="Trazado_24683" data-name="Trazado 24683" d="M100.082,1089.665l-5.264,14.119H92.144l5.262-14.119Z" transform="translate(-63.649 -1089.464)"/>
    <path id="Trazado_24684" data-name="Trazado 24684" d="M108.7,1103.873H98.829V1101.8l3.545-3.583q1.572-1.613,2.055-2.235a4.931,4.931,0,0,0,.7-1.154,2.929,2.929,0,0,0,.212-1.1,1.6,1.6,0,0,0-.469-1.266,1.823,1.823,0,0,0-1.25-.415,3.6,3.6,0,0,0-1.593.376,8.187,8.187,0,0,0-1.613,1.073l-1.623-1.922a10.575,10.575,0,0,1,1.73-1.255,6.4,6.4,0,0,1,1.5-.566,7.723,7.723,0,0,1,1.816-.2,5.382,5.382,0,0,1,2.337.482,3.739,3.739,0,0,1,1.575,1.352,3.6,3.6,0,0,1,.557,1.99,4.869,4.869,0,0,1-.342,1.828,7,7,0,0,1-1.063,1.753,25.812,25.812,0,0,1-2.535,2.56l-1.816,1.708v.135H108.7Z" transform="translate(-58.347 -1089.553)"/>
  </g>
</svg>
