<svg id="Grupo_14554" data-name="Grupo 14554" xmlns="http://www.w3.org/2000/svg" width="194.239" height="36.914" viewBox="0 0 194.239 36.914">
  <g id="Grupo_14549" data-name="Grupo 14549" transform="translate(0 9.09)">
    <g id="Grupo_14548" data-name="Grupo 14548">
      <path id="Trazado_24685" data-name="Trazado 24685" d="M79.85,1131.951l-3.4-11.077h-.088q.183,3.379.187,4.509v6.568H73.872v-14.119h4.074l3.342,10.8h.058l3.545-10.8h4.074v14.119H86.173v-6.683c0-.315.007-.68.014-1.092s.056-1.507.133-3.283h-.088l-3.641,11.057Z" transform="translate(-73.872 -1116.924)"/>
      <path id="Trazado_24686" data-name="Trazado 24686" d="M87.275,1132.546a3.5,3.5,0,0,1-2.988-1.476,8.273,8.273,0,0,1,.018-8.233,3.589,3.589,0,0,1,3.047-1.483,3.516,3.516,0,0,1,3.109,1.584h.1a12.119,12.119,0,0,1-.225-2.154v-3.457h2.958v15.027H91.029l-.568-1.4h-.128A3.363,3.363,0,0,1,87.275,1132.546Zm1.032-2.346a2,2,0,0,0,1.658-.656,3.812,3.812,0,0,0,.574-2.231v-.318A4.45,4.45,0,0,0,90,1124.5a2,2,0,0,0-1.746-.753,1.736,1.736,0,0,0-1.532.834,4.492,4.492,0,0,0-.543,2.431,4.208,4.208,0,0,0,.55,2.389A1.8,1.8,0,0,0,88.307,1130.2Z" transform="translate(-66.43 -1117.327)"/>
      <path id="Trazado_24687" data-name="Trazado 24687" d="M91.9,1122.3v-2.114h9.59v2.114Zm0,3.736v-2.112h9.59v2.112Z" transform="translate(-59.491 -1115.047)"/>
    </g>
  </g>
  <g id="Grupo_14551" data-name="Grupo 14551" transform="translate(51.894)">
    <g id="Grupo_14550" data-name="Grupo 14550">
      <path id="Trazado_24688" data-name="Trazado 24688" d="M115.927,1126.5h-3.42l-3.283-5.34-3.283,5.34h-3.206l4.684-7.279-4.385-6.837h3.3l3.04,5.079,2.984-5.079h3.224l-4.432,7Z" transform="translate(-102.736 -1112.181)"/>
      <path id="Trazado_24689" data-name="Trazado 24689" d="M120.348,1125.117H117.4v-6.305a3.033,3.033,0,0,0-.414-1.753,1.509,1.509,0,0,0-1.323-.584,1.99,1.99,0,0,0-1.787.827,5.116,5.116,0,0,0-.548,2.737v5.079h-2.947v-10.8h2.251l.4,1.381h.164a3.1,3.1,0,0,1,1.357-1.181,4.573,4.573,0,0,1,1.963-.4,3.768,3.768,0,0,1,2.859,1.021,4.078,4.078,0,0,1,.976,2.938Z" transform="translate(-96.635 -1110.797)"/>
      <path id="Trazado_24690" data-name="Trazado 24690" d="M126.522,1112.384l-5.262,14.117h-2.675l5.262-14.117Z" transform="translate(-90.091 -1112.181)"/>
      <path id="Trazado_24691" data-name="Trazado 24691" d="M135.138,1126.591h-9.87v-2.076l3.545-3.582q1.572-1.615,2.057-2.235a5.026,5.026,0,0,0,.694-1.156,2.916,2.916,0,0,0,.212-1.1,1.6,1.6,0,0,0-.467-1.264,1.812,1.812,0,0,0-1.251-.417,3.607,3.607,0,0,0-1.591.377,8.2,8.2,0,0,0-1.615,1.072l-1.622-1.92a10.4,10.4,0,0,1,1.73-1.257,6.292,6.292,0,0,1,1.5-.564,7.7,7.7,0,0,1,1.814-.2,5.376,5.376,0,0,1,2.337.482,3.75,3.75,0,0,1,1.575,1.352,3.6,3.6,0,0,1,.559,1.989,4.877,4.877,0,0,1-.343,1.832,7.076,7.076,0,0,1-1.061,1.753,25.77,25.77,0,0,1-2.537,2.557l-1.814,1.711v.135h6.152Z" transform="translate(-84.788 -1112.271)"/>
      <path id="Trazado_24692" data-name="Trazado 24692" d="M135.525,1119.806h-2.377v-1.347h2.377v-2.4h1.347v2.4h2.379v1.347h-2.379v2.364h-1.347Z" transform="translate(-78.471 -1109.245)"/>
      <path id="Trazado_24693" data-name="Trazado 24693" d="M151.991,1126.5h-3.418l-3.285-5.34-3.283,5.34H138.8l4.685-7.279-4.387-6.837h3.3l3.04,5.079,2.986-5.079h3.224l-4.432,7Z" transform="translate(-73.961 -1112.181)"/>
      <path id="Trazado_24694" data-name="Trazado 24694" d="M156.413,1125.117h-2.947v-6.305a3.018,3.018,0,0,0-.415-1.753,1.509,1.509,0,0,0-1.323-.584,1.985,1.985,0,0,0-1.785.827,5.113,5.113,0,0,0-.55,2.737v5.079h-2.945v-10.8H148.7l.394,1.381h.164a3.123,3.123,0,0,1,1.357-1.181,4.581,4.581,0,0,1,1.965-.4,3.774,3.774,0,0,1,2.859,1.021,4.078,4.078,0,0,1,.976,2.938Z" transform="translate(-67.859 -1110.797)"/>
      <path id="Trazado_24695" data-name="Trazado 24695" d="M162.587,1112.384l-5.264,14.117h-2.673l5.261-14.117Z" transform="translate(-61.315 -1112.181)"/>
      <path id="Trazado_24696" data-name="Trazado 24696" d="M171.2,1126.591h-9.869v-2.076l3.544-3.582q1.572-1.615,2.057-2.235a4.977,4.977,0,0,0,.7-1.156,2.915,2.915,0,0,0,.212-1.1,1.6,1.6,0,0,0-.469-1.264,1.808,1.808,0,0,0-1.25-.417,3.608,3.608,0,0,0-1.593.377,8.19,8.19,0,0,0-1.613,1.072l-1.623-1.92a10.4,10.4,0,0,1,1.73-1.257,6.292,6.292,0,0,1,1.5-.564,7.72,7.72,0,0,1,1.816-.2,5.382,5.382,0,0,1,2.337.482,3.751,3.751,0,0,1,1.575,1.352,3.6,3.6,0,0,1,.557,1.989,4.876,4.876,0,0,1-.342,1.832,7.032,7.032,0,0,1-1.063,1.753,25.7,25.7,0,0,1-2.535,2.557l-1.816,1.711v.135H171.2Z" transform="translate(-56.013 -1112.271)"/>
      <path id="Trazado_24697" data-name="Trazado 24697" d="M173.9,1119.806H171.52v-1.347H173.9v-2.4h1.347v2.4h2.379v1.347h-2.379v2.364H173.9Z" transform="translate(-47.854 -1109.245)"/>
      <path id="Trazado_24698" data-name="Trazado 24698" d="M184.822,1126.5H181.84v-8.169l.029-1.343.049-1.467q-.744.744-1.034.976l-1.623,1.3-1.437-1.8,4.547-3.619h2.452Z" transform="translate(-42.825 -1112.181)"/>
    </g>
  </g>
  <g id="Grupo_14553" data-name="Grupo 14553" transform="translate(118.413 22.592)">
    <g id="Grupo_14552" data-name="Grupo 14552">
      <path id="Trazado_24699" data-name="Trazado 24699" d="M149.64,1139.159h-9.869v-2.078l3.545-3.581q1.572-1.613,2.055-2.235a4.927,4.927,0,0,0,.7-1.154,2.93,2.93,0,0,0,.212-1.1,1.606,1.606,0,0,0-.467-1.264,1.821,1.821,0,0,0-1.251-.415,3.592,3.592,0,0,0-1.593.378,8.22,8.22,0,0,0-1.613,1.07l-1.622-1.92a10.321,10.321,0,0,1,1.73-1.255,6.311,6.311,0,0,1,1.5-.566,7.687,7.687,0,0,1,1.814-.2,5.4,5.4,0,0,1,2.337.482,3.751,3.751,0,0,1,1.575,1.352,3.609,3.609,0,0,1,.559,1.99,4.876,4.876,0,0,1-.343,1.831,7.014,7.014,0,0,1-1.063,1.753,25.515,25.515,0,0,1-2.535,2.558l-1.814,1.71v.135h6.151Z" transform="translate(-139.734 -1124.837)"/>
    </g>
  </g>
  <line id="Línea_593" data-name="Línea 593" x2="142.497" transform="translate(51.742 20.382)" fill="#fff" stroke="#000" stroke-miterlimit="10" stroke-width="0.529"/>
</svg>
