<svg id="Grupo_14564" data-name="Grupo 14564" xmlns="http://www.w3.org/2000/svg" width="187.062" height="58.646" viewBox="0 0 187.062 58.646">
  <g id="Grupo_14556" data-name="Grupo 14556" transform="translate(115.094 44.803)">
    <g id="Grupo_14555" data-name="Grupo 14555">
      <path id="Trazado_24700" data-name="Trazado 24700" d="M147.7,1189.83h-9.869v-2.009l3.544-3.461q1.575-1.562,2.059-2.163a4.884,4.884,0,0,0,.694-1.115,2.775,2.775,0,0,0,.21-1.065,1.514,1.514,0,0,0-.466-1.221,1.852,1.852,0,0,0-1.251-.4,3.728,3.728,0,0,0-1.593.363,8.2,8.2,0,0,0-1.613,1.035l-1.622-1.857a10.747,10.747,0,0,1,1.728-1.214,6.51,6.51,0,0,1,1.5-.545,7.929,7.929,0,0,1,1.816-.191,5.548,5.548,0,0,1,2.337.465,3.683,3.683,0,0,1,1.573,1.309,3.386,3.386,0,0,1,.559,1.92,4.569,4.569,0,0,1-.342,1.769,6.668,6.668,0,0,1-1.063,1.694,25.492,25.492,0,0,1-2.535,2.475l-1.816,1.651v.131H147.7Z" transform="translate(-137.793 -1175.988)"/>
    </g>
  </g>
  <g id="Grupo_14558" data-name="Grupo 14558" transform="translate(0 30.093)">
    <g id="Grupo_14557" data-name="Grupo 14557">
      <path id="Trazado_24701" data-name="Trazado 24701" d="M79.753,1181.94l-3.4-10.7h-.085q.186,3.266.183,4.358v6.346H73.777v-13.646h4.076l3.34,10.435h.059l3.544-10.435h4.072v13.646H86.08v-6.46c0-.306,0-.656.014-1.054s.054-1.456.129-3.175h-.086l-3.643,10.688Z" transform="translate(-73.777 -1167.417)"/>
      <path id="Trazado_24702" data-name="Trazado 24702" d="M87.177,1182.516a3.548,3.548,0,0,1-2.988-1.429,7.774,7.774,0,0,1,.022-7.956,3.631,3.631,0,0,1,3.044-1.433,3.565,3.565,0,0,1,3.112,1.53h.1a11.294,11.294,0,0,1-.221-2.082v-3.34h2.952v14.523H90.935l-.568-1.354h-.126A3.408,3.408,0,0,1,87.177,1182.516Zm1.034-2.267a2.036,2.036,0,0,0,1.658-.636,3.6,3.6,0,0,0,.575-2.156v-.309a4.148,4.148,0,0,0-.538-2.407,2.017,2.017,0,0,0-1.742-.728,1.741,1.741,0,0,0-1.53.807,4.181,4.181,0,0,0-.548,2.348,3.992,3.992,0,0,0,.552,2.31A1.819,1.819,0,0,0,88.211,1180.249Z" transform="translate(-66.334 -1167.806)"/>
      <path id="Trazado_24703" data-name="Trazado 24703" d="M91.8,1172.612v-2.044h9.586v2.044Zm0,3.612v-2.046h9.586v2.046Z" transform="translate(-59.395 -1165.602)"/>
    </g>
  </g>
  <line id="Línea_594" data-name="Línea 594" x2="134.032" transform="translate(53.03 41.006)" fill="#fff" stroke="#000" stroke-miterlimit="10" stroke-width="0.529"/>
  <g id="Grupo_14563" data-name="Grupo 14563" transform="translate(53.031)">
    <g id="Grupo_14560" data-name="Grupo 14560" transform="translate(0 10.399)">
      <g id="Grupo_14559" data-name="Grupo 14559">
        <path id="Trazado_24704" data-name="Trazado 24704" d="M116.466,1170.5h-3.421l-3.283-5.162-3.283,5.162h-3.206l4.684-7.039-4.385-6.605h3.3l3.04,4.908,2.984-4.908h3.224l-4.432,6.765Z" transform="translate(-103.273 -1156.852)"/>
        <path id="Trazado_24705" data-name="Trazado 24705" d="M144.265,1163.787h-3.736v-2.044h3.736V1158.1h2.118v3.641h3.736v2.044h-3.736v3.594h-2.118Z" transform="translate(-73.547 -1155.855)"/>
        <path id="Trazado_24706" data-name="Trazado 24706" d="M163.593,1170.5h-3.421l-3.283-5.162-3.283,5.162H150.4l4.684-7.039-4.385-6.605H154l3.04,4.908,2.984-4.908h3.224l-4.432,6.765Z" transform="translate(-65.671 -1156.852)"/>
      </g>
    </g>
    <line id="Línea_595" data-name="Línea 595" x2="25.482" transform="translate(25.634 18.335)" fill="#fff" stroke="#000" stroke-miterlimit="10" stroke-width="0.492"/>
    <g id="Grupo_14561" data-name="Grupo 14561" transform="translate(33.421)">
      <path id="Trazado_24707" data-name="Trazado 24707" d="M131.828,1161.7h-2.947v-6.093a2.864,2.864,0,0,0-.413-1.7,1.539,1.539,0,0,0-1.325-.563,2.009,2.009,0,0,0-1.785.8,4.805,4.805,0,0,0-.552,2.646v4.908h-2.943v-10.433h2.249l.4,1.334h.164a3.117,3.117,0,0,1,1.357-1.145,4.8,4.8,0,0,1,1.965-.386,3.437,3.437,0,0,1,3.835,3.828Z" transform="translate(-121.862 -1151.068)"/>
      <path id="Trazado_24708" data-name="Trazado 24708" d="M131.805,1175.883h-9.87v-2.006l3.544-3.463q1.575-1.558,2.059-2.161a4.786,4.786,0,0,0,.694-1.115,2.75,2.75,0,0,0,.214-1.064,1.52,1.52,0,0,0-.469-1.223,1.854,1.854,0,0,0-1.251-.4,3.7,3.7,0,0,0-1.593.363,8.406,8.406,0,0,0-1.613,1.036l-1.622-1.856a10.736,10.736,0,0,1,1.728-1.215,6.538,6.538,0,0,1,1.5-.545,7.837,7.837,0,0,1,1.816-.193,5.532,5.532,0,0,1,2.335.468,3.712,3.712,0,0,1,1.573,1.305,3.391,3.391,0,0,1,.561,1.926,4.6,4.6,0,0,1-.342,1.767A6.792,6.792,0,0,1,130,1169.2a25.136,25.136,0,0,1-2.535,2.472l-1.816,1.654v.131h6.152Z" transform="translate(-121.834 -1142.313)"/>
    </g>
    <line id="Línea_596" data-name="Línea 596" x2="25.482" transform="translate(106.956 18.335)" fill="#fff" stroke="#000" stroke-miterlimit="10" stroke-width="0.492"/>
    <g id="Grupo_14562" data-name="Grupo 14562" transform="translate(106.083)">
      <path id="Trazado_24709" data-name="Trazado 24709" d="M177.059,1161.7h-2.945v-6.093a2.863,2.863,0,0,0-.415-1.7,1.531,1.531,0,0,0-1.323-.563,2.005,2.005,0,0,0-1.784.8,4.773,4.773,0,0,0-.552,2.646v4.908h-2.947v-10.433h2.251l.4,1.334h.162a3.112,3.112,0,0,1,1.359-1.145,4.784,4.784,0,0,1,1.961-.386,3.437,3.437,0,0,1,3.835,3.828Z" transform="translate(-158.434 -1151.068)"/>
      <path id="Trazado_24710" data-name="Trazado 24710" d="M172.187,1175.883h-9.872v-2.006l3.544-3.463c1.05-1.039,1.739-1.76,2.059-2.161a4.669,4.669,0,0,0,.694-1.115,2.718,2.718,0,0,0,.214-1.064,1.526,1.526,0,0,0-.469-1.223,1.854,1.854,0,0,0-1.251-.4,3.7,3.7,0,0,0-1.593.363,8.46,8.46,0,0,0-1.613,1.036l-1.622-1.856a10.736,10.736,0,0,1,1.728-1.215,6.584,6.584,0,0,1,1.5-.545,7.81,7.81,0,0,1,1.814-.193,5.521,5.521,0,0,1,2.335.468,3.7,3.7,0,0,1,1.573,1.305,3.378,3.378,0,0,1,.563,1.926,4.573,4.573,0,0,1-.345,1.767,6.826,6.826,0,0,1-1.059,1.693,25.2,25.2,0,0,1-2.537,2.472l-1.814,1.654v.131h6.152Z" transform="translate(-162.277 -1142.313)"/>
      <path id="Trazado_24711" data-name="Trazado 24711" d="M170.435,1169.385h-2.041v-1.117h2.041v-1.985h1.151v1.985h2.041v1.117h-2.041v1.96h-1.151Z" transform="translate(-157.396 -1138.928)"/>
      <path id="Trazado_24712" data-name="Trazado 24712" d="M179.215,1175.8H176.23v-7.9l.027-1.3.05-1.419c-.5.478-.84.793-1.034.94l-1.622,1.262-1.44-1.735,4.549-3.5h2.454Z" transform="translate(-154.35 -1142.226)"/>
    </g>
  </g>
</svg>
