<svg id="Grupo_14571" data-name="Grupo 14571" xmlns="http://www.w3.org/2000/svg" width="103.994" height="36.718" viewBox="0 0 103.994 36.718">
  <g id="Grupo_14566" data-name="Grupo 14566" transform="translate(0 8.461)">
    <g id="Grupo_14565" data-name="Grupo 14565">
      <path id="Trazado_24713" data-name="Trazado 24713" d="M79.753,1220.637l-3.4-10.7h-.085q.186,3.269.183,4.36v6.345H73.777v-13.646h4.076l3.34,10.437h.059l3.544-10.437h4.072v13.646H86.08v-6.458c0-.306,0-.656.014-1.055s.054-1.454.129-3.171h-.086l-3.643,10.685Z" transform="translate(-73.777 -1206.114)"/>
      <path id="Trazado_24714" data-name="Trazado 24714" d="M87.177,1221.215a3.55,3.55,0,0,1-2.988-1.428,7.777,7.777,0,0,1,.022-7.958,3.637,3.637,0,0,1,3.044-1.433,3.562,3.562,0,0,1,3.112,1.532h.1a11.357,11.357,0,0,1-.221-2.084V1206.5h2.952v14.523H90.935l-.568-1.352h-.126A3.409,3.409,0,0,1,87.177,1221.215Zm1.034-2.269a2.035,2.035,0,0,0,1.658-.634,3.605,3.605,0,0,0,.575-2.156v-.309a4.155,4.155,0,0,0-.538-2.409,2.021,2.021,0,0,0-1.742-.726,1.742,1.742,0,0,0-1.53.807,4.178,4.178,0,0,0-.548,2.346,3.985,3.985,0,0,0,.552,2.311A1.819,1.819,0,0,0,88.211,1218.946Z" transform="translate(-66.334 -1206.503)"/>
      <path id="Trazado_24715" data-name="Trazado 24715" d="M91.8,1211.308v-2.042h9.586v2.042Zm0,3.612v-2.042h9.586v2.042Z" transform="translate(-59.395 -1204.299)"/>
    </g>
  </g>
  <g id="Grupo_14568" data-name="Grupo 14568" transform="translate(74.116 22.876)">
    <g id="Grupo_14567" data-name="Grupo 14567">
      <path id="Trazado_24716" data-name="Trazado 24716" d="M124.907,1228.363h-9.867v-2.006l3.542-3.463c1.05-1.039,1.735-1.762,2.059-2.161a4.9,4.9,0,0,0,.7-1.114,2.79,2.79,0,0,0,.21-1.065,1.525,1.525,0,0,0-.467-1.224,1.864,1.864,0,0,0-1.25-.4,3.707,3.707,0,0,0-1.595.365,8.083,8.083,0,0,0-1.611,1.036L115,1216.472a10.62,10.62,0,0,1,1.728-1.213,6.418,6.418,0,0,1,1.5-.547,7.94,7.94,0,0,1,1.816-.191,5.581,5.581,0,0,1,2.339.466,3.687,3.687,0,0,1,1.573,1.307,3.391,3.391,0,0,1,.557,1.922,4.582,4.582,0,0,1-.34,1.771,6.693,6.693,0,0,1-1.064,1.692,25.154,25.154,0,0,1-2.535,2.474l-1.816,1.652v.131h6.152Z" transform="translate(-115.001 -1214.521)"/>
    </g>
  </g>
  <line id="Línea_597" data-name="Línea 597" x2="50.964" transform="translate(53.03 19.375)" fill="#fff" stroke="#000" stroke-miterlimit="10" stroke-width="0.492"/>
  <g id="Grupo_14570" data-name="Grupo 14570" transform="translate(57.304)">
    <g id="Grupo_14569" data-name="Grupo 14569">
      <path id="Trazado_24717" data-name="Trazado 24717" d="M105.65,1209.806q0-4.05,1.769-6.03a6.767,6.767,0,0,1,5.306-1.979,9.9,9.9,0,0,1,1.893.142v2.3a7.889,7.889,0,0,0-1.7-.187,6.007,6.007,0,0,0-2.5.448,3.078,3.078,0,0,0-1.453,1.327,5.852,5.852,0,0,0-.57,2.49h.122a3.314,3.314,0,0,1,3.064-1.586,3.844,3.844,0,0,1,2.963,1.147,4.471,4.471,0,0,1,1.075,3.175,4.676,4.676,0,0,1-1.275,3.457,4.787,4.787,0,0,1-3.536,1.275,5.192,5.192,0,0,1-2.729-.7,4.6,4.6,0,0,1-1.794-2.044A7.564,7.564,0,0,1,105.65,1209.806Zm5.1,3.677a1.8,1.8,0,0,0,1.467-.62,2.709,2.709,0,0,0,.509-1.769,2.389,2.389,0,0,0-.476-1.573,1.765,1.765,0,0,0-1.444-.573,2.254,2.254,0,0,0-1.548.57,1.72,1.72,0,0,0-.644,1.327,2.923,2.923,0,0,0,.6,1.875A1.866,1.866,0,0,0,110.749,1213.483Z" transform="translate(-105.65 -1201.797)"/>
      <path id="Trazado_24718" data-name="Trazado 24718" d="M117.507,1208.82h-3.736v-2.043h3.736v-3.641h2.118v3.641h3.736v2.043h-3.736v3.594h-2.118Z" transform="translate(-99.17 -1200.728)"/>
      <path id="Trazado_24719" data-name="Trazado 24719" d="M123.291,1215.524l5.3-11.2H121.63V1201.9h10.131v1.813l-5.342,11.816Z" transform="translate(-92.9 -1201.718)"/>
    </g>
  </g>
</svg>
