<svg id="Grupo_14578" data-name="Grupo 14578" xmlns="http://www.w3.org/2000/svg" width="103.994" height="37.428" viewBox="0 0 103.994 37.428">
  <g id="Grupo_14573" data-name="Grupo 14573" transform="translate(0 9.063)">
    <g id="Grupo_14572" data-name="Grupo 14572">
      <path id="Trazado_24720" data-name="Trazado 24720" d="M79.753,1255.54l-3.4-10.706h-.085q.186,3.268.183,4.36v6.347H73.777v-13.646h4.076l3.34,10.437h.059l3.544-10.437h4.072v13.646H86.08v-6.458c0-.306,0-.656.014-1.057s.054-1.453.129-3.173h-.086l-3.643,10.689Z" transform="translate(-73.777 -1241.016)"/>
      <path id="Trazado_24721" data-name="Trazado 24721" d="M87.177,1256.115a3.546,3.546,0,0,1-2.988-1.428,7.773,7.773,0,0,1,.022-7.956,3.631,3.631,0,0,1,3.044-1.433,3.568,3.568,0,0,1,3.112,1.53h.1a11.307,11.307,0,0,1-.221-2.08v-3.342h2.952v14.523H90.935l-.568-1.354h-.126A3.408,3.408,0,0,1,87.177,1256.115Zm1.034-2.267a2.036,2.036,0,0,0,1.658-.635,3.605,3.605,0,0,0,.575-2.156v-.307a4.152,4.152,0,0,0-.538-2.41,2.022,2.022,0,0,0-1.742-.726,1.736,1.736,0,0,0-1.53.805,4.185,4.185,0,0,0-.548,2.348,3.988,3.988,0,0,0,.552,2.31A1.821,1.821,0,0,0,88.211,1253.848Z" transform="translate(-66.334 -1241.406)"/>
      <path id="Trazado_24722" data-name="Trazado 24722" d="M91.8,1246.211v-2.044h9.586v2.044Zm0,3.614v-2.044h9.586v2.044Z" transform="translate(-59.395 -1239.203)"/>
    </g>
  </g>
  <g id="Grupo_14575" data-name="Grupo 14575" transform="translate(74.116 23.587)">
    <g id="Grupo_14574" data-name="Grupo 14574">
      <path id="Trazado_24723" data-name="Trazado 24723" d="M124.907,1263.326h-9.867v-2.006l3.542-3.463q1.575-1.559,2.059-2.161a4.866,4.866,0,0,0,.7-1.114,2.789,2.789,0,0,0,.21-1.064,1.525,1.525,0,0,0-.467-1.224,1.863,1.863,0,0,0-1.25-.4,3.7,3.7,0,0,0-1.595.363,8.24,8.24,0,0,0-1.611,1.036L115,1251.436a10.668,10.668,0,0,1,1.728-1.215,6.51,6.51,0,0,1,1.5-.545,7.848,7.848,0,0,1,1.816-.192,5.555,5.555,0,0,1,2.339.468,3.711,3.711,0,0,1,1.573,1.305,3.4,3.4,0,0,1,.557,1.924,4.574,4.574,0,0,1-.34,1.769,6.73,6.73,0,0,1-1.064,1.693,25.131,25.131,0,0,1-2.535,2.472l-1.816,1.654v.13h6.152Z" transform="translate(-115.001 -1249.484)"/>
    </g>
  </g>
  <line id="Línea_598" data-name="Línea 598" x2="50.964" transform="translate(53.03 19.976)" fill="#fff" stroke="#000" stroke-miterlimit="10" stroke-width="0.492"/>
  <g id="Grupo_14577" data-name="Grupo 14577" transform="translate(69.381)">
    <g id="Grupo_14576" data-name="Grupo 14576">
      <path id="Trazado_24724" data-name="Trazado 24724" d="M119.368,1250.119h-2.984v-7.9l.029-1.3.049-1.418q-.744.717-1.032.942l-1.623,1.259-1.438-1.735,4.547-3.5h2.454Z" transform="translate(-112.367 -1236.279)"/>
      <path id="Trazado_24725" data-name="Trazado 24725" d="M127.219,1239.612a3.153,3.153,0,0,1-.8,2.175,4.181,4.181,0,0,1-2.251,1.232v.056a4.573,4.573,0,0,1,2.589,1,2.767,2.767,0,0,1,.881,2.152,3.6,3.6,0,0,1-1.478,3.065,7,7,0,0,1-4.221,1.1,10.523,10.523,0,0,1-4.072-.737V1247.2a9.306,9.306,0,0,0,1.8.655,7.894,7.894,0,0,0,1.949.251,3.9,3.9,0,0,0,2.184-.485,1.751,1.751,0,0,0,.707-1.559,1.4,1.4,0,0,0-.811-1.363,6.232,6.232,0,0,0-2.589-.4h-1.073v-2.213h1.091a5.259,5.259,0,0,0,2.4-.415,1.487,1.487,0,0,0,.755-1.424c0-1.032-.667-1.55-2.008-1.55a4.714,4.714,0,0,0-1.411.225,7.076,7.076,0,0,0-1.6.773l-1.381-1.986a7.873,7.873,0,0,1,4.608-1.343,6.119,6.119,0,0,1,3.463.858A2.731,2.731,0,0,1,127.219,1239.612Z" transform="translate(-107.98 -1236.365)"/>
    </g>
  </g>
</svg>
