<svg id="Grupo_14580" data-name="Grupo 14580" xmlns="http://www.w3.org/2000/svg" width="82.505" height="17.574" viewBox="0 0 82.505 17.574">
  <g id="Grupo_14579" data-name="Grupo 14579">
    <path id="Trazado_24726" data-name="Trazado 24726" d="M80.374,1287.707l-3.515-11.077h-.092q.192,3.382.191,4.511v6.566H74.191v-14.119h4.216l3.456,10.8h.061l3.669-10.8h4.212v14.119H86.92v-6.683c0-.315,0-.68.014-1.09s.056-1.507.137-3.283h-.092l-3.768,11.055Z" transform="translate(-74.191 -1272.682)"/>
    <path id="Trazado_24727" data-name="Trazado 24727" d="M88.059,1288.3a3.673,3.673,0,0,1-3.094-1.476,8.035,8.035,0,0,1,.022-8.233,3.757,3.757,0,0,1,3.15-1.483,3.688,3.688,0,0,1,3.22,1.584h.1a11.649,11.649,0,0,1-.227-2.154v-3.455h3.055v15.025H91.942l-.586-1.4h-.129A3.527,3.527,0,0,1,88.059,1288.3Zm1.068-2.346a2.1,2.1,0,0,0,1.713-.656,3.734,3.734,0,0,0,.593-2.231v-.318a4.267,4.267,0,0,0-.556-2.49,2.087,2.087,0,0,0-1.8-.755,1.8,1.8,0,0,0-1.584.836,4.34,4.34,0,0,0-.565,2.429,4.119,4.119,0,0,0,.568,2.39A1.886,1.886,0,0,0,89.127,1285.955Z" transform="translate(-66.491 -1273.084)"/>
    <path id="Trazado_24728" data-name="Trazado 24728" d="M92.839,1278.057v-2.116h9.921v2.116Zm0,3.736v-2.114h9.921v2.114Z" transform="translate(-59.312 -1270.804)"/>
    <path id="Trazado_24729" data-name="Trazado 24729" d="M105.839,1281.784q0-4.193,1.834-6.24a7,7,0,0,1,5.491-2.046,10.219,10.219,0,0,1,1.956.146v2.386a8.2,8.2,0,0,0-1.758-.194,6.224,6.224,0,0,0-2.593.464,3.2,3.2,0,0,0-1.5,1.37,6.118,6.118,0,0,0-.59,2.58h.131a3.418,3.418,0,0,1,3.166-1.643,3.983,3.983,0,0,1,3.065,1.188,4.618,4.618,0,0,1,1.111,3.283,4.837,4.837,0,0,1-1.318,3.578,4.948,4.948,0,0,1-3.659,1.318,5.328,5.328,0,0,1-2.819-.725,4.747,4.747,0,0,1-1.863-2.114A7.826,7.826,0,0,1,105.839,1281.784Zm5.275,3.8a1.863,1.863,0,0,0,1.519-.64,2.811,2.811,0,0,0,.53-1.832,2.455,2.455,0,0,0-.494-1.625,1.832,1.832,0,0,0-1.5-.593,2.331,2.331,0,0,0-1.6.588,1.786,1.786,0,0,0-.663,1.372,3.046,3.046,0,0,0,.622,1.942A1.935,1.935,0,0,0,111.114,1285.586Z" transform="translate(-48.939 -1272.755)"/>
    <path id="Trazado_24730" data-name="Trazado 24730" d="M115.673,1280.384a29.373,29.373,0,0,1-1.758,4.626h-2.2q.647-2.568,1.009-4.847h2.8Z" transform="translate(-44.25 -1267.436)"/>
    <path id="Trazado_24731" data-name="Trazado 24731" d="M119.787,1278.687a4.8,4.8,0,0,1,3.371,1.149,4.062,4.062,0,0,1,1.253,3.15,4.5,4.5,0,0,1-1.507,3.639,6.5,6.5,0,0,1-4.315,1.275,8.693,8.693,0,0,1-3.936-.762v-2.578a9.083,9.083,0,0,0,3.824.917q2.826,0,2.83-2.24,0-2.133-2.929-2.134a7.421,7.421,0,0,0-1.17.1,8.757,8.757,0,0,0-1.039.216l-1.228-.637.55-7.2h7.923v2.532H118.2l-.27,2.772.351-.068A7.054,7.054,0,0,1,119.787,1278.687Z" transform="translate(-41.906 -1272.682)"/>
  </g>
</svg>
