<svg id="Grupo_14659" data-name="Grupo 14659" xmlns="http://www.w3.org/2000/svg" width="674.792" height="61.157" viewBox="0 0 674.792 61.157">
  <rect id="Rectángulo_3704" data-name="Rectángulo 3704" width="674.792" height="61.157" fill="#d5f4fc"/>
  <g id="Grupo_14658" data-name="Grupo 14658" transform="translate(14.271 6.206)">
    <path id="Trazado_25126" data-name="Trazado 25126" d="M119,1383.521h2.116v19.457H119Z" transform="translate(-49.497 -1380.182)"/>
    <path id="Trazado_25127" data-name="Trazado 25127" d="M125.779,1391.122l-3.477-5.281h3.339l2.1,3.438,2.114-3.438H133.2l-3.515,5.281,3.677,5.516h-3.351l-2.269-3.7-2.278,3.7h-3.342Z" transform="translate(-47.008 -1378.331)"/>
    <path id="Trazado_25128" data-name="Trazado 25128" d="M130.022,1396.887v-5.836h-.038l-1.562.694-.316-1.624,2.213-.949h2.017v7.715Z" transform="translate(-42.231 -1375.673)"/>
    <path id="Trazado_25129" data-name="Trazado 25129" d="M135.566,1390.639v-2.413h5.185v2.413Z" transform="translate(-36.278 -1376.428)"/>
    <path id="Trazado_25130" data-name="Trazado 25130" d="M144.249,1391.122l-3.475-5.281h3.339l2.1,3.438,2.114-3.438h3.342l-3.515,5.281,3.678,5.516h-3.351l-2.269-3.7-2.278,3.7h-3.342Z" transform="translate(-32.271 -1378.331)"/>
    <path id="Trazado_25131" data-name="Trazado 25131" d="M151.1,1383.521h2.116v19.457H151.1Z" transform="translate(-23.887 -1380.182)"/>
    <path id="Trazado_25132" data-name="Trazado 25132" d="M158.369,1391.17h-3.736v-2.116h3.736v-3.767h2.116v3.767h3.738v2.116h-3.738v3.717h-2.116Z" transform="translate(-21.064 -1378.773)"/>
    <path id="Trazado_25133" data-name="Trazado 25133" d="M162.332,1383.521h2.116v19.457h-2.116Z" transform="translate(-14.921 -1380.182)"/>
    <path id="Trazado_25134" data-name="Trazado 25134" d="M171.419,1391.122l-3.475-5.281h3.339l2.1,3.438,2.114-3.438h3.342l-3.515,5.281,3.678,5.516h-3.351l-2.269-3.7-2.278,3.7h-3.342Z" transform="translate(-10.592 -1378.331)"/>
    <path id="Trazado_25135" data-name="Trazado 25135" d="M188.456,1398.2h-9.869v-2.078l3.544-3.581q1.572-1.613,2.057-2.235a4.989,4.989,0,0,0,.7-1.154,2.932,2.932,0,0,0,.212-1.1,1.6,1.6,0,0,0-.469-1.264,1.815,1.815,0,0,0-1.25-.415,3.585,3.585,0,0,0-1.593.377,8.16,8.16,0,0,0-1.615,1.07l-1.622-1.92a10.325,10.325,0,0,1,1.73-1.255,6.213,6.213,0,0,1,1.5-.567,7.72,7.72,0,0,1,1.816-.2,5.408,5.408,0,0,1,2.337.482,3.75,3.75,0,0,1,1.575,1.352,3.609,3.609,0,0,1,.557,1.99,4.871,4.871,0,0,1-.342,1.83,7,7,0,0,1-1.063,1.753,25.68,25.68,0,0,1-2.535,2.558l-1.816,1.71v.135h6.152Z" transform="translate(-1.983 -1379.896)"/>
    <path id="Trazado_25136" data-name="Trazado 25136" d="M186.493,1390.639v-2.413h5.185v2.413Z" transform="translate(4.357 -1376.428)"/>
    <path id="Trazado_25137" data-name="Trazado 25137" d="M195.177,1391.122l-3.477-5.281h3.34l2.1,3.438,2.114-3.438h3.342l-3.515,5.281,3.678,5.516h-3.351l-2.269-3.7-2.28,3.7h-3.34Z" transform="translate(8.364 -1378.331)"/>
    <path id="Trazado_25138" data-name="Trazado 25138" d="M204.329,1383.521h2.116v19.457h-2.116Z" transform="translate(18.588 -1380.182)"/>
    <path id="Trazado_25139" data-name="Trazado 25139" d="M213.911,1391.17h-3.736v-2.116h3.736v-3.767h2.116v3.767h3.738v2.116h-3.738v3.717h-2.116Z" transform="translate(23.252 -1378.773)"/>
    <path id="Trazado_25140" data-name="Trazado 25140" d="M220.182,1383.521H222.3v19.457h-2.116Z" transform="translate(31.237 -1380.182)"/>
    <path id="Trazado_25141" data-name="Trazado 25141" d="M229.27,1391.122l-3.477-5.281h3.34l2.1,3.438,2.113-3.438h3.344l-3.515,5.281,3.678,5.516H233.5l-2.267-3.7-2.28,3.7h-3.34Z" transform="translate(35.567 -1378.331)"/>
    <path id="Trazado_25142" data-name="Trazado 25142" d="M231.781,1389.75a5.651,5.651,0,0,1,2.769-.633c1.9,0,2.868.872,2.868,1.958,0,.852-.692,1.465-1.641,1.742v.038a1.931,1.931,0,0,1,1.918,1.821c0,1.384-1.386,2.353-3.56,2.353a6.056,6.056,0,0,1-2.672-.553l.457-1.542a4.7,4.7,0,0,0,1.938.514c.831,0,1.424-.376,1.4-.89,0-.672-.829-.989-1.7-.989h-.593v-1.345h.554c.653,0,1.521-.218,1.521-.833,0-.4-.315-.692-1.048-.692a4.148,4.148,0,0,0-1.78.476Z" transform="translate(40.238 -1375.717)"/>
    <path id="Trazado_25143" data-name="Trazado 25143" d="M239.574,1390.639v-2.413h5.183v2.413Z" transform="translate(46.709 -1376.428)"/>
    <path id="Trazado_25144" data-name="Trazado 25144" d="M248.257,1391.122l-3.475-5.281h3.339l2.1,3.438,2.114-3.438h3.342l-3.515,5.281,3.678,5.516h-3.351l-2.269-3.7-2.28,3.7H244.6Z" transform="translate(50.717 -1378.331)"/>
    <path id="Trazado_25145" data-name="Trazado 25145" d="M257.41,1383.521h2.116v19.457H257.41Z" transform="translate(60.941 -1380.182)"/>
    <path id="Trazado_25146" data-name="Trazado 25146" d="M266.992,1391.17h-3.736v-2.116h3.736v-3.767h2.116v3.767h3.738v2.116h-3.738v3.717h-2.116Z" transform="translate(65.605 -1378.773)"/>
    <path id="Trazado_25147" data-name="Trazado 25147" d="M271.449,1391.805a1.61,1.61,0,0,1,.433-1.224,1.752,1.752,0,0,1,1.266-.417,1.712,1.712,0,0,1,1.239.424,1.882,1.882,0,0,1,0,2.42,1.68,1.68,0,0,1-1.235.439,1.737,1.737,0,0,1-1.257-.428A1.618,1.618,0,0,1,271.449,1391.805Zm5.627,0a1.6,1.6,0,0,1,.437-1.224,1.761,1.761,0,0,1,1.275-.417,1.715,1.715,0,0,1,1.239.424,1.882,1.882,0,0,1,0,2.42,1.679,1.679,0,0,1-1.235.439,1.756,1.756,0,0,1-1.268-.428A1.612,1.612,0,0,1,277.076,1391.805Zm5.64,0a1.6,1.6,0,0,1,.435-1.224,1.75,1.75,0,0,1,1.264-.417,1.721,1.721,0,0,1,1.242.424,1.879,1.879,0,0,1-.005,2.42,1.681,1.681,0,0,1-1.237.439,1.735,1.735,0,0,1-1.255-.428A1.612,1.612,0,0,1,282.716,1391.805Z" transform="translate(72.142 -1374.882)"/>
    <path id="Trazado_25148" data-name="Trazado 25148" d="M280.3,1391.805a1.61,1.61,0,0,1,.433-1.224,1.755,1.755,0,0,1,1.266-.417,1.716,1.716,0,0,1,1.241.424,1.882,1.882,0,0,1,0,2.42,1.684,1.684,0,0,1-1.237.439,1.74,1.74,0,0,1-1.257-.428A1.618,1.618,0,0,1,280.3,1391.805Zm5.629,0a1.6,1.6,0,0,1,.435-1.224,1.764,1.764,0,0,1,1.275-.417,1.72,1.72,0,0,1,1.241.424,1.882,1.882,0,0,1,0,2.42,1.684,1.684,0,0,1-1.237.439,1.748,1.748,0,0,1-1.266-.428A1.612,1.612,0,0,1,285.932,1391.805Zm5.64,0a1.6,1.6,0,0,1,.435-1.224,1.747,1.747,0,0,1,1.264-.417,1.717,1.717,0,0,1,1.241.424,1.879,1.879,0,0,1-.005,2.42,1.677,1.677,0,0,1-1.235.439,1.732,1.732,0,0,1-1.255-.428A1.612,1.612,0,0,1,291.572,1391.805Z" transform="translate(79.207 -1374.882)"/>
    <path id="Trazado_25149" data-name="Trazado 25149" d="M295.045,1391.17h-3.736v-2.116h3.736v-3.767h2.116v3.767H300.9v2.116h-3.738v3.717h-2.116Z" transform="translate(87.988 -1378.773)"/>
    <path id="Trazado_25150" data-name="Trazado 25150" d="M301.316,1383.521h2.114v19.457h-2.114Z" transform="translate(95.973 -1380.182)"/>
    <path id="Trazado_25151" data-name="Trazado 25151" d="M310.4,1391.122l-3.477-5.281h3.339l2.1,3.438,2.114-3.438h3.344l-3.515,5.281,3.677,5.516h-3.351l-2.269-3.7-2.278,3.7h-3.342Z" transform="translate(100.302 -1378.331)"/>
    <path id="Trazado_25152" data-name="Trazado 25152" d="M317.441,1390.639v-2.413h5.185v2.413Z" transform="translate(108.839 -1376.428)"/>
    <path id="Trazado_25153" data-name="Trazado 25153" d="M328.432,1391.122l-3.477-5.281h3.341l2.1,3.438,2.114-3.438h3.342l-3.515,5.281,3.679,5.516h-3.353l-2.267-3.7-2.28,3.7h-3.341Z" transform="translate(114.687 -1378.331)"/>
    <path id="Trazado_25154" data-name="Trazado 25154" d="M337.584,1383.521H339.7v19.457h-2.116Z" transform="translate(124.911 -1380.182)"/>
    <g id="Grupo_14647" data-name="Grupo 14647" transform="translate(0 19.497)">
      <g id="Grupo_14646" data-name="Grupo 14646">
        <path id="Trazado_25155" data-name="Trazado 25155" d="M92.056,1399.43a6.945,6.945,0,0,1-1.988,5.34,8.077,8.077,0,0,1-5.73,1.854h-4v-14.115h4.432a7.469,7.469,0,0,1,5.368,1.823A6.718,6.718,0,0,1,92.056,1399.43Zm-3.112.077q0-4.547-4.016-4.549H83.333v9.193h1.285Q88.944,1404.151,88.944,1399.507Z" transform="translate(-80.341 -1392.508)"/>
        <path id="Trazado_25156" data-name="Trazado 25156" d="M87.574,1400.321a1.609,1.609,0,0,1,.435-1.226,1.753,1.753,0,0,1,1.264-.416,1.708,1.708,0,0,1,1.239.425,1.88,1.88,0,0,1,0,2.418,1.673,1.673,0,0,1-1.235.44,1.733,1.733,0,0,1-1.257-.43A1.613,1.613,0,0,1,87.574,1400.321Z" transform="translate(-74.57 -1387.584)"/>
        <path id="Trazado_25157" data-name="Trazado 25157" d="M96.5,1406.623l-3.4-11.075h-.086q.183,3.382.185,4.509v6.566H90.521v-14.115h4.072l3.344,10.794h.056l3.547-10.794h4.072v14.115h-2.79v-6.681c0-.315.007-.678.013-1.091s.058-1.507.135-3.283h-.088l-3.643,11.055Z" transform="translate(-72.218 -1392.508)"/>
        <path id="Trazado_25158" data-name="Trazado 25158" d="M102.134,1396.975v-2.116h9.59v2.116Zm0,3.738V1398.6h9.59v2.116Z" transform="translate(-62.953 -1390.632)"/>
      </g>
    </g>
    <g id="Grupo_14649" data-name="Grupo 14649" transform="translate(476.284 23.723)">
      <g id="Grupo_14648" data-name="Grupo 14648">
        <path id="Trazado_25159" data-name="Trazado 25159" d="M345.254,1396.975v-2.116h9.59v2.116Zm0,3.738V1398.6h9.59v2.116Z" transform="translate(-345.254 -1394.859)"/>
      </g>
    </g>
    <g id="Grupo_14651" data-name="Grupo 14651" transform="translate(213.712 35.41)">
      <g id="Grupo_14650" data-name="Grupo 14650">
        <path id="Trazado_25160" data-name="Trazado 25160" d="M209.175,1412.36H206.23v-6.307a3.031,3.031,0,0,0-.415-1.753,1.509,1.509,0,0,0-1.323-.584,1.984,1.984,0,0,0-1.785.827,5.117,5.117,0,0,0-.55,2.736v5.081h-2.947v-10.8h2.251l.4,1.379h.164a3.1,3.1,0,0,1,1.357-1.182,4.6,4.6,0,0,1,1.963-.4,3.769,3.769,0,0,1,2.859,1.021,4.075,4.075,0,0,1,.976,2.94Z" transform="translate(-199.209 -1401.359)"/>
      </g>
    </g>
    <line id="Línea_611" data-name="Línea 611" x2="399.505" transform="translate(65.106 29.878)" fill="#fff" stroke="#000" stroke-miterlimit="10" stroke-width="0.573"/>
    <line id="Línea_612" data-name="Línea 612" x2="10.005" transform="translate(109.137 20.721)" fill="none" stroke="#000" stroke-miterlimit="10" stroke-width="0.5"/>
    <line id="Línea_613" data-name="Línea 613" x2="10.005" transform="translate(200.395 20.721)" fill="none" stroke="#000" stroke-miterlimit="10" stroke-width="0.5"/>
    <line id="Línea_614" data-name="Línea 614" x2="10.005" transform="translate(295.913 20.721)" fill="none" stroke="#000" stroke-miterlimit="10" stroke-width="0.5"/>
    <line id="Línea_615" data-name="Línea 615" x2="10.005" transform="translate(439.654 20.559)" fill="none" stroke="#000" stroke-miterlimit="10" stroke-width="0.5"/>
    <g id="Grupo_14652" data-name="Grupo 14652" transform="translate(419.457 14.942)">
      <path id="Trazado_25161" data-name="Trazado 25161" d="M320.893,1397.974h-2.141v-4.586a2.2,2.2,0,0,0-.3-1.275,1.1,1.1,0,0,0-.962-.424,1.446,1.446,0,0,0-1.3.6,3.712,3.712,0,0,0-.4,1.991v3.694h-2.141v-7.851h1.636l.288,1h.12a2.25,2.25,0,0,1,.985-.859,3.338,3.338,0,0,1,1.429-.291,2.748,2.748,0,0,1,2.08.741,2.978,2.978,0,0,1,.708,2.138Z" transform="translate(-313.646 -1389.975)"/>
    </g>
    <path id="Trazado_25162" data-name="Trazado 25162" d="M357.087,1402.524v-1.641l5.552-8.055-5.4-7.231v-1.6H368.5v2.434h-7.3l4.772,6.343-5.013,7.3h8.11v2.452Z" transform="translate(140.472 -1379.806)"/>
    <path id="Trazado_25163" data-name="Trazado 25163" d="M379.881,1388.458v-2.113h9.59v2.113Zm0,3.739v-2.116h9.59v2.116Z" transform="translate(158.659 -1377.928)"/>
    <path id="Trazado_25164" data-name="Trazado 25164" d="M395.1,1398.112h-2.983v-8.17l.027-1.343.05-1.469c-.5.5-.841.822-1.036.976l-1.622,1.3-1.438-1.8,4.549-3.621H395.1Z" transform="translate(165.213 -1379.806)"/>
    <path id="Trazado_25165" data-name="Trazado 25165" d="M402.539,1383.521h2.114v19.457h-2.114Z" transform="translate(176.738 -1380.182)"/>
    <path id="Trazado_25166" data-name="Trazado 25166" d="M409.318,1391.122l-3.477-5.281h3.34l2.1,3.438,2.114-3.438h3.342l-3.515,5.281,3.678,5.516h-3.353l-2.267-3.7-2.28,3.7h-3.341Z" transform="translate(179.226 -1378.331)"/>
    <path id="Trazado_25167" data-name="Trazado 25167" d="M418.664,1390.639v-2.413h5.183v2.413Z" transform="translate(189.604 -1376.428)"/>
    <path id="Trazado_25168" data-name="Trazado 25168" d="M427.348,1391.122l-3.475-5.281h3.339l2.1,3.438,2.114-3.438h3.342l-3.515,5.281,3.678,5.516h-3.351l-2.269-3.7-2.28,3.7h-3.34Z" transform="translate(193.611 -1378.331)"/>
    <path id="Trazado_25169" data-name="Trazado 25169" d="M436.5,1383.521h2.114v19.457H436.5Z" transform="translate(203.835 -1380.182)"/>
    <g id="Grupo_14654" data-name="Grupo 14654" transform="translate(564.5 35.41)">
      <g id="Grupo_14653" data-name="Grupo 14653">
        <path id="Trazado_25170" data-name="Trazado 25170" d="M404.286,1412.36h-2.947v-6.307a3.031,3.031,0,0,0-.414-1.753,1.514,1.514,0,0,0-1.325-.584,1.984,1.984,0,0,0-1.785.827,5.12,5.12,0,0,0-.548,2.736v5.081H394.32v-10.8h2.251l.4,1.379h.162a3.12,3.12,0,0,1,1.357-1.182,4.617,4.617,0,0,1,1.965-.4,3.772,3.772,0,0,1,2.859,1.021,4.083,4.083,0,0,1,.976,2.94Z" transform="translate(-394.32 -1401.359)"/>
      </g>
    </g>
    <line id="Línea_616" data-name="Línea 616" x2="149.074" transform="translate(494.945 29.878)" fill="#fff" stroke="#000" stroke-miterlimit="10" stroke-width="0.541"/>
    <line id="Línea_617" data-name="Línea 617" x2="10.005" transform="translate(617.858 5.617)" fill="none" stroke="#000" stroke-miterlimit="10" stroke-width="0.5"/>
    <g id="Grupo_14655" data-name="Grupo 14655" transform="translate(599.084 12.014)">
      <path id="Trazado_25171" data-name="Trazado 25171" d="M413.556,1389.392q0-1.046,1.167-1.046t1.165,1.046a1.018,1.018,0,0,1-.291.775,1.226,1.226,0,0,1-.874.279Q413.555,1390.446,413.556,1389.392Zm2.233,9.881h-2.141v-7.851h2.141Z" transform="translate(-413.556 -1388.346)"/>
    </g>
    <g id="Grupo_14656" data-name="Grupo 14656" transform="translate(522.307)">
      <path id="Trazado_25172" data-name="Trazado 25172" d="M378.1,1389.663h-2.141v-4.585a2.195,2.195,0,0,0-.3-1.274,1.1,1.1,0,0,0-.962-.426,1.452,1.452,0,0,0-1.3.6,3.733,3.733,0,0,0-.4,1.992v3.693h-2.141v-7.852h1.636l.288,1.005h.12a2.268,2.268,0,0,1,.987-.861,3.359,3.359,0,0,1,1.429-.292,2.752,2.752,0,0,1,2.078.741,2.974,2.974,0,0,1,.708,2.139Z" transform="translate(-370.852 -1381.664)"/>
      <path id="Trazado_25173" data-name="Trazado 25173" d="M372.21,1390.682c0-.7.386-1.047,1.165-1.047s1.165.349,1.165,1.047a1.011,1.011,0,0,1-.291.775,1.222,1.222,0,0,1-.874.279C372.6,1391.735,372.21,1391.383,372.21,1390.682Zm2.233,9.881H372.3v-7.852h2.143Z" transform="translate(-369.769 -1375.304)"/>
    </g>
    <line id="Línea_618" data-name="Línea 618" x2="15.668" transform="translate(517.674 12.406)" fill="none" stroke="#000" stroke-miterlimit="10" stroke-width="0.5"/>
    <g id="Grupo_14657" data-name="Grupo 14657" transform="translate(168.57 13.54)">
      <path id="Trazado_25174" data-name="Trazado 25174" d="M180.3,1397.048h-6.2v-1.266l3.637-4.952h-3.42v-1.636h5.858v1.392l-3.54,4.824H180.3Z" transform="translate(-174.101 -1389.195)"/>
    </g>
  </g>
</svg>
