<svg id="Grupo_14612" data-name="Grupo 14612" xmlns="http://www.w3.org/2000/svg" width="393.31" height="40.62" viewBox="0 0 393.31 40.62">
  <g id="Grupo_14599" data-name="Grupo 14599" transform="translate(0 12.123)">
    <g id="Grupo_14598" data-name="Grupo 14598">
      <path id="Trazado_24954" data-name="Trazado 24954" d="M98.17,1716.057a6.953,6.953,0,0,1-1.985,5.342,8.089,8.089,0,0,1-5.732,1.854h-4v-14.117h4.432a7.465,7.465,0,0,1,5.37,1.825A6.71,6.71,0,0,1,98.17,1716.057Zm-3.11.077q0-4.547-4.018-4.547H89.449v9.193h1.284Q95.061,1720.78,95.06,1716.134Z" transform="translate(-86.455 -1709.135)"/>
      <path id="Trazado_24955" data-name="Trazado 24955" d="M93.689,1716.948a1.619,1.619,0,0,1,.433-1.226,1.76,1.76,0,0,1,1.266-.415,1.719,1.719,0,0,1,1.241.424,1.882,1.882,0,0,1,0,2.42,1.685,1.685,0,0,1-1.237.439,1.738,1.738,0,0,1-1.257-.428A1.618,1.618,0,0,1,93.689,1716.948Z" transform="translate(-80.683 -1704.211)"/>
      <path id="Trazado_24956" data-name="Trazado 24956" d="M102.611,1723.252l-3.4-11.077h-.086q.183,3.382.183,4.511v6.566H96.635v-14.117h4.076l3.34,10.8h.058l3.545-10.8h4.074v14.117h-2.79v-6.681c0-.316.005-.679.014-1.093s.054-1.507.131-3.283H109l-3.641,11.057Z" transform="translate(-78.332 -1709.135)"/>
      <path id="Trazado_24957" data-name="Trazado 24957" d="M108.248,1713.6v-2.114h9.59v2.114Zm0,3.738v-2.114h9.59v2.114Z" transform="translate(-69.067 -1707.258)"/>
    </g>
  </g>
  <g id="Grupo_14601" data-name="Grupo 14601" transform="translate(100.268 26.503)">
    <g id="Grupo_14600" data-name="Grupo 14600">
      <path id="Trazado_24958" data-name="Trazado 24958" d="M152.869,1728.327h-1.7v2.923h-2.92v-2.923h-6.025v-2.078l6.19-9.115h2.754v8.874h1.7Zm-4.619-2.319v-2.395c0-.4.018-.98.05-1.737s.058-1.2.077-1.325H148.3a10.773,10.773,0,0,1-.861,1.546l-2.587,3.91Z" transform="translate(-142.225 -1717.133)"/>
    </g>
  </g>
  <g id="Grupo_14603" data-name="Grupo 14603" transform="translate(57.567)">
    <g id="Grupo_14602" data-name="Grupo 14602">
      <path id="Trazado_24959" data-name="Trazado 24959" d="M127.83,1705.752a3.323,3.323,0,0,1-.8,2.249,4.152,4.152,0,0,1-2.251,1.275v.058a4.5,4.5,0,0,1,2.587,1.037,2.912,2.912,0,0,1,.879,2.226,3.776,3.776,0,0,1-1.476,3.173,6.813,6.813,0,0,1-4.22,1.135,10.277,10.277,0,0,1-4.076-.762V1713.6a9.32,9.32,0,0,0,1.807.676,7.571,7.571,0,0,0,1.949.263,3.8,3.8,0,0,0,2.184-.5,1.848,1.848,0,0,0,.7-1.613,1.456,1.456,0,0,0-.811-1.41,6,6,0,0,0-2.587-.415h-1.073v-2.289h1.091a5.035,5.035,0,0,0,2.4-.432,1.544,1.544,0,0,0,.757-1.471q0-1.6-2.008-1.6a4.575,4.575,0,0,0-1.413.232,6.943,6.943,0,0,0-1.6.8l-1.379-2.057a7.675,7.675,0,0,1,4.606-1.39,5.937,5.937,0,0,1,3.461.888A2.846,2.846,0,0,1,127.83,1705.752Z" transform="translate(-118.474 -1702.392)"/>
      <path id="Trazado_24960" data-name="Trazado 24960" d="M130.3,1709.678h-3.736v-2.112H130.3V1703.8h2.116v3.767h3.738v2.112h-3.738v3.72H130.3Z" transform="translate(-112.019 -1701.269)"/>
      <path id="Trazado_24961" data-name="Trazado 24961" d="M141.777,1716.623h-2.983v-8.17l.029-1.341.049-1.469q-.744.744-1.034.974l-1.624,1.305-1.437-1.8,4.547-3.623h2.452Z" transform="translate(-105.465 -1702.303)"/>
      <path id="Trazado_24962" data-name="Trazado 24962" d="M146.372,1709.678h-3.736v-2.112h3.736V1703.8h2.116v3.767h3.738v2.112h-3.738v3.72h-2.116Z" transform="translate(-99.195 -1701.269)"/>
      <path id="Trazado_24963" data-name="Trazado 24963" d="M157.849,1716.623h-2.983v-8.17l.029-1.341.049-1.469q-.744.744-1.034.974l-1.622,1.305-1.438-1.8,4.547-3.623h2.452Z" transform="translate(-92.642 -1702.303)"/>
      <path id="Trazado_24964" data-name="Trazado 24964" d="M162.445,1709.678h-3.736v-2.112h3.736V1703.8h2.116v3.767H168.3v2.112h-3.738v3.72h-2.116Z" transform="translate(-86.371 -1701.269)"/>
      <path id="Trazado_24965" data-name="Trazado 24965" d="M176.048,1705.752a3.324,3.324,0,0,1-.8,2.249,4.141,4.141,0,0,1-2.249,1.275v.058a4.5,4.5,0,0,1,2.587,1.037,2.912,2.912,0,0,1,.879,2.226,3.776,3.776,0,0,1-1.476,3.173,6.816,6.816,0,0,1-4.221,1.135,10.274,10.274,0,0,1-4.074-.762V1713.6a9.233,9.233,0,0,0,1.807.676,7.571,7.571,0,0,0,1.949.263,3.8,3.8,0,0,0,2.183-.5,1.844,1.844,0,0,0,.7-1.613,1.456,1.456,0,0,0-.811-1.41,6,6,0,0,0-2.589-.415h-1.072v-2.289h1.091a5.035,5.035,0,0,0,2.4-.432,1.547,1.547,0,0,0,.757-1.471q0-1.6-2.008-1.6a4.575,4.575,0,0,0-1.413.232,6.943,6.943,0,0,0-1.6.8l-1.381-2.057a7.684,7.684,0,0,1,4.608-1.39,5.941,5.941,0,0,1,3.461.888A2.85,2.85,0,0,1,176.048,1705.752Z" transform="translate(-80.001 -1702.392)"/>
    </g>
  </g>
  <line id="Línea_604" data-name="Línea 604" x2="97.753" transform="translate(56.811 20.437)" fill="#fff" stroke="#000" stroke-miterlimit="10" stroke-width="0.58"/>
  <g id="Grupo_14605" data-name="Grupo 14605" transform="translate(166.769 12.123)">
    <g id="Grupo_14604" data-name="Grupo 14604">
      <path id="Trazado_24966" data-name="Trazado 24966" d="M182.893,1719.571l.144.221a29.651,29.651,0,0,1-1.7,4.626h-2.125q.631-2.57.976-4.847Zm-3.157-7.06a1.615,1.615,0,0,1,.433-1.225,1.762,1.762,0,0,1,1.268-.417,1.707,1.707,0,0,1,1.239.426,1.886,1.886,0,0,1-.009,2.429,1.71,1.71,0,0,1-1.23.428,1.747,1.747,0,0,1-1.259-.424A1.607,1.607,0,0,1,179.736,1712.511Z" transform="translate(-179.213 -1707.751)"/>
      <path id="Trazado_24967" data-name="Trazado 24967" d="M196.525,1716.057a6.953,6.953,0,0,1-1.985,5.342,8.086,8.086,0,0,1-5.732,1.854h-4v-14.117h4.432a7.46,7.46,0,0,1,5.369,1.825A6.71,6.71,0,0,1,196.525,1716.057Zm-3.11.077q0-4.547-4.016-4.547h-1.593v9.193h1.284Q193.415,1720.78,193.415,1716.134Z" transform="translate(-174.746 -1709.135)"/>
      <path id="Trazado_24968" data-name="Trazado 24968" d="M192.044,1716.948a1.619,1.619,0,0,1,.433-1.226,1.768,1.768,0,0,1,1.268-.415,1.714,1.714,0,0,1,1.239.424,1.882,1.882,0,0,1,0,2.42,1.68,1.68,0,0,1-1.235.439,1.743,1.743,0,0,1-1.259-.428A1.618,1.618,0,0,1,192.044,1716.948Z" transform="translate(-168.975 -1704.211)"/>
      <path id="Trazado_24969" data-name="Trazado 24969" d="M200.967,1723.252l-3.4-11.077h-.086q.186,3.382.185,4.511v6.566h-2.675v-14.117h4.074l3.342,10.8h.058l3.544-10.8h4.074v14.117h-2.79v-6.681c0-.316.005-.679.014-1.093s.054-1.507.131-3.283h-.086l-3.643,11.057Z" transform="translate(-166.624 -1709.135)"/>
      <path id="Trazado_24970" data-name="Trazado 24970" d="M206.6,1713.6v-2.114h9.59v2.114Zm0,3.738v-2.114h9.59v2.114Z" transform="translate(-157.358 -1707.258)"/>
    </g>
  </g>
  <g id="Grupo_14607" data-name="Grupo 14607" transform="translate(319.805 11.92)">
    <g id="Grupo_14606" data-name="Grupo 14606">
      <path id="Trazado_24971" data-name="Trazado 24971" d="M268.013,1719.571l.144.221a29.647,29.647,0,0,1-1.7,4.626h-2.125q.631-2.57.976-4.847Zm-3.157-7.06a1.609,1.609,0,0,1,.435-1.225,1.754,1.754,0,0,1,1.266-.417,1.7,1.7,0,0,1,1.239.426,1.886,1.886,0,0,1-.009,2.429,1.71,1.71,0,0,1-1.23.428,1.747,1.747,0,0,1-1.259-.424A1.607,1.607,0,0,1,264.856,1712.511Z" transform="translate(-264.333 -1707.548)"/>
      <path id="Trazado_24972" data-name="Trazado 24972" d="M281.647,1716.057a6.954,6.954,0,0,1-1.987,5.342,8.084,8.084,0,0,1-5.73,1.854h-4v-14.117h4.432a7.46,7.46,0,0,1,5.368,1.825A6.711,6.711,0,0,1,281.647,1716.057Zm-3.112.077q0-4.547-4.016-4.547h-1.593v9.193h1.284Q278.535,1720.78,278.535,1716.134Z" transform="translate(-259.866 -1708.932)"/>
      <path id="Trazado_24973" data-name="Trazado 24973" d="M277.164,1716.948a1.613,1.613,0,0,1,.435-1.226,1.76,1.76,0,0,1,1.266-.415,1.712,1.712,0,0,1,1.239.424,1.882,1.882,0,0,1,0,2.42,1.68,1.68,0,0,1-1.235.439,1.743,1.743,0,0,1-1.259-.428A1.618,1.618,0,0,1,277.164,1716.948Z" transform="translate(-254.095 -1704.008)"/>
      <path id="Trazado_24974" data-name="Trazado 24974" d="M286.087,1723.252l-3.4-11.077H282.6q.186,3.382.185,4.511v6.566h-2.675v-14.117h4.074l3.342,10.8h.058l3.545-10.8H295.2v14.117h-2.79v-6.681c0-.316.005-.679.014-1.093s.056-1.507.131-3.283h-.086l-3.643,11.057Z" transform="translate(-251.744 -1708.932)"/>
      <path id="Trazado_24975" data-name="Trazado 24975" d="M291.724,1713.6v-2.114h9.59v2.114Zm0,3.738v-2.114h9.59v2.114Z" transform="translate(-242.478 -1707.055)"/>
      <path id="Trazado_24976" data-name="Trazado 24976" d="M309.614,1723.343h-9.869v-2.077l3.546-3.581q1.572-1.616,2.055-2.235a4.986,4.986,0,0,0,.7-1.156,2.914,2.914,0,0,0,.212-1.1,1.6,1.6,0,0,0-.469-1.264,1.806,1.806,0,0,0-1.25-.417,3.607,3.607,0,0,0-1.593.377,8.179,8.179,0,0,0-1.613,1.072l-1.624-1.92a10.5,10.5,0,0,1,1.73-1.257,6.327,6.327,0,0,1,1.5-.565,7.719,7.719,0,0,1,1.816-.2,5.38,5.38,0,0,1,2.337.482,3.748,3.748,0,0,1,1.575,1.352,3.6,3.6,0,0,1,.557,1.99,4.873,4.873,0,0,1-.342,1.831,7.008,7.008,0,0,1-1.063,1.753,25.678,25.678,0,0,1-2.535,2.558l-1.816,1.71v.135h6.152Z" transform="translate(-236.109 -1709.022)"/>
    </g>
  </g>
  <g id="Grupo_14609" data-name="Grupo 14609" transform="translate(267.33 26.503)">
    <g id="Grupo_14608" data-name="Grupo 14608">
      <path id="Trazado_24977" data-name="Trazado 24977" d="M245.79,1728.327h-1.7v2.923h-2.918v-2.923h-6.025v-2.078l6.19-9.115h2.753v8.874h1.7Zm-4.619-2.319v-2.395c0-.4.018-.98.05-1.737s.058-1.2.077-1.325h-.077a10.771,10.771,0,0,1-.861,1.546l-2.587,3.91Z" transform="translate(-235.146 -1717.133)"/>
    </g>
  </g>
  <g id="Grupo_14611" data-name="Grupo 14611" transform="translate(267.835 0.018)">
    <g id="Grupo_14610" data-name="Grupo 14610">
      <path id="Trazado_24978" data-name="Trazado 24978" d="M240.391,1702.4a5.348,5.348,0,0,1,3.269.922,2.941,2.941,0,0,1,1.242,2.487,3.243,3.243,0,0,1-.6,1.925,5.081,5.081,0,0,1-1.933,1.512,6.884,6.884,0,0,1,2.276,1.771,3.31,3.31,0,0,1,.69,2.025,3.369,3.369,0,0,1-1.361,2.8,5.689,5.689,0,0,1-3.583,1.057,5.981,5.981,0,0,1-3.641-.985,3.273,3.273,0,0,1-1.323-2.79,3.7,3.7,0,0,1,.642-2.143,5.356,5.356,0,0,1,2.062-1.652,5.291,5.291,0,0,1-1.739-1.631,3.577,3.577,0,0,1-.53-1.9,2.925,2.925,0,0,1,1.255-2.452A5.34,5.34,0,0,1,240.391,1702.4Zm-2.2,10.546a1.566,1.566,0,0,0,.579,1.293,3.029,3.029,0,0,0,3.245-.015,1.588,1.588,0,0,0,.55-1.26,1.726,1.726,0,0,0-.545-1.212,7,7,0,0,0-1.773-1.2Q238.19,1711.5,238.189,1712.948Zm2.183-8.364a1.869,1.869,0,0,0-1.232.39,1.3,1.3,0,0,0-.467,1.048,1.6,1.6,0,0,0,.372,1.038,4.062,4.062,0,0,0,1.347.944,3.767,3.767,0,0,0,1.321-.908,1.642,1.642,0,0,0,.378-1.073,1.277,1.277,0,0,0-.482-1.051A1.922,1.922,0,0,0,240.371,1704.585Z" transform="translate(-235.427 -1702.402)"/>
    </g>
  </g>
  <line id="Línea_605" data-name="Línea 605" x2="76.446" transform="translate(233.624 20.437)" fill="#fff" stroke="#000" stroke-miterlimit="10" stroke-width="0.5"/>
</svg>
