<svg xmlns="http://www.w3.org/2000/svg" width="506.786" height="57.589" viewBox="0 0 506.786 57.589">
  <g id="Grupo_14717" data-name="Grupo 14717" transform="translate(-409.971 -554.771)">
    <rect id="Rectángulo_3716" data-name="Rectángulo 3716" width="506.786" height="57.589" transform="translate(409.971 554.771)" fill="#d5f4fc"/>
    <path id="Trazado_25550" data-name="Trazado 25550" d="M-460.918,864.717v1.152H-92.346v-1.152H-460.918" transform="translate(972.29 -281.727)" fill="#010201" fill-rule="evenodd"/>
    <g id="Grupo_14689" data-name="Grupo 14689" transform="translate(524.151 564.696)">
      <path id="Trazado_25551" data-name="Trazado 25551" d="M-453.055,864.821l1.128-6.009c.213-1.037.34-1.949.445-2.7h1.843l-.18,1.575h.037a3.725,3.725,0,0,1,3.129-1.772,2.129,2.129,0,0,1,2.217,2.4,8.54,8.54,0,0,1-.161,1.448l-.965,5.061h-2.074l.93-4.918a6.587,6.587,0,0,0,.107-1.039c0-.713-.268-1.25-1.091-1.25-.948,0-2.163,1.144-2.539,3.182l-.751,4.024Z" transform="translate(453.055 -851.927)" fill="#272525"/>
      <path id="Trazado_25552" data-name="Trazado 25552" d="M-438.231,857.459l-1.146,6.009c-.2,1.037-.32,1.95-.427,2.7h-1.841l.177-1.521h-.034a3.846,3.846,0,0,1-3.023,1.718c-1.269,0-2.271-.679-2.271-2.469a7.413,7.413,0,0,1,.179-1.555l.931-4.882h2.072l-.894,4.757a6.332,6.332,0,0,0-.143,1.2c0,.715.286,1.234,1.11,1.234.965,0,2.092-1.144,2.431-2.95l.8-4.239Zm-.715-3.7-2.342,2.648h-1.573l1.716-2.648Z" transform="translate(456.969 -853.275)" fill="#272525"/>
      <path id="Trazado_25553" data-name="Trazado 25553" d="M-441.075,864.821l1.107-6.009c.2-1.037.34-1.949.429-2.7h1.806l-.177,1.521h.018a3.674,3.674,0,0,1,3.021-1.718,1.879,1.879,0,0,1,2.056,1.789,3.639,3.639,0,0,1,3.075-1.789,2.068,2.068,0,0,1,2.129,2.326,11.533,11.533,0,0,1-.145,1.484l-.965,5.1h-2.02l.913-4.865a8.059,8.059,0,0,0,.125-1.108c0-.733-.306-1.234-1.073-1.234-.949,0-2,1.2-2.344,3.039l-.787,4.167h-2l.931-4.938a5.175,5.175,0,0,0,.107-1.019c0-.661-.2-1.25-1.039-1.25-.964,0-2.072,1.305-2.394,3.075l-.751,4.132Z" transform="translate(460.546 -851.927)" fill="#272525"/>
      <path id="Trazado_25554" data-name="Trazado 25554" d="M-425.283,864.318a6.991,6.991,0,0,1-3.075.679,3.268,3.268,0,0,1-3.577-3.594c0-2.628,1.931-5.49,4.934-5.49,1.718,0,2.809,1,2.809,2.451,0,2.235-2.342,2.95-5.7,2.878a2.423,2.423,0,0,0,.232,1.234,1.928,1.928,0,0,0,1.788.894,5.133,5.133,0,0,0,2.4-.572Zm-1.986-6.847a2.683,2.683,0,0,0-2.414,2.217c2.145.036,3.524-.268,3.524-1.305C-426.159,857.811-426.606,857.471-427.269,857.471Z" transform="translate(466.261 -851.927)" fill="#272525"/>
      <path id="Trazado_25555" data-name="Trazado 25555" d="M-426.775,864.821l1.017-5.365c.232-1.234.34-2.557.447-3.345h1.806c-.054.59-.106,1.2-.2,1.843h.054a3.205,3.205,0,0,1,2.737-2.04,3.727,3.727,0,0,1,.445.037l-.411,2.036a2.648,2.648,0,0,0-.393-.034c-1.484,0-2.431,1.5-2.771,3.361l-.662,3.506Z" transform="translate(469.488 -851.927)" fill="#272525"/>
      <path id="Trazado_25556" data-name="Trazado 25556" d="M-414.27,859.527a5.214,5.214,0,0,1-5.043,5.49,3.388,3.388,0,0,1-3.558-3.6c0-2.951,2.056-5.508,5.025-5.508A3.412,3.412,0,0,1-414.27,859.527Zm-6.456,1.841c0,1.2.645,2.038,1.7,2.038,1.555,0,2.594-2.145,2.594-3.88,0-.894-.393-2-1.664-2C-419.76,857.523-420.726,859.742-420.726,861.369Z" transform="translate(471.929 -851.927)" fill="#272525"/>
      <path id="Trazado_25557" data-name="Trazado 25557" d="M-405.3,853.582l-1.824,9.6a24.017,24.017,0,0,0-.393,3.095h-1.913l.177-1.555h-.034a3.536,3.536,0,0,1-2.987,1.752c-1.555,0-2.646-1.271-2.646-3.238a5.647,5.647,0,0,1,5.437-5.866,3.7,3.7,0,0,1,1.341.25l.769-4.041Zm-3.148,5.739a2.135,2.135,0,0,0-1.2-.34c-1.788,0-3.111,1.986-3.111,3.935,0,1.055.411,1.877,1.394,1.877.931,0,2.038-1.017,2.4-2.825Z" transform="translate(476.902 -853.385)" fill="#272525"/>
      <path id="Trazado_25558" data-name="Trazado 25558" d="M-402.271,864.318a6.993,6.993,0,0,1-3.077.679,3.267,3.267,0,0,1-3.576-3.594c0-2.628,1.931-5.49,4.934-5.49,1.718,0,2.809,1,2.809,2.451,0,2.235-2.344,2.95-5.7,2.878a2.406,2.406,0,0,0,.232,1.234,1.926,1.926,0,0,0,1.788.894,5.134,5.134,0,0,0,2.4-.572Zm-1.986-6.847a2.681,2.681,0,0,0-2.414,2.217c2.145.036,3.524-.268,3.524-1.305C-403.147,857.811-403.6,857.471-404.257,857.471Z" transform="translate(480.651 -851.927)" fill="#272525"/>
      <path id="Trazado_25559" data-name="Trazado 25559" d="M-395.6,864.515a5.918,5.918,0,0,1-2.5.483,3.271,3.271,0,0,1-3.524-3.468,5.509,5.509,0,0,1,5.544-5.615,4.682,4.682,0,0,1,1.77.341l-.536,1.627a3.1,3.1,0,0,0-1.305-.268,3.492,3.492,0,0,0-3.29,3.665,1.82,1.82,0,0,0,1.913,2.038,4.476,4.476,0,0,0,1.859-.411Z" transform="translate(485.21 -851.927)" fill="#272525"/>
      <path id="Trazado_25560" data-name="Trazado 25560" d="M-391.5,864.821c.018-.52.089-1.216.161-1.967h-.052a3.5,3.5,0,0,1-3.112,2.163c-1.555,0-2.574-1.216-2.574-2.969a5.962,5.962,0,0,1,6.132-6.134,9.241,9.241,0,0,1,2.628.393l-.892,4.543a20.035,20.035,0,0,0-.358,3.971Zm.86-7.206a3.482,3.482,0,0,0-.86-.091c-1.931,0-3.415,2.165-3.415,4.149,0,.913.34,1.663,1.251,1.663.965,0,2.147-1.216,2.558-3.433Z" transform="translate(488.059 -851.927)" fill="#272525"/>
      <path id="Trazado_25561" data-name="Trazado 25561" d="M-390.886,862.87a4.729,4.729,0,0,0,2.092.592c.84-.019,1.341-.5,1.341-1.074,0-.554-.284-.894-1.144-1.341a2.675,2.675,0,0,1-1.716-2.271c0-1.681,1.466-2.862,3.524-2.862a4.342,4.342,0,0,1,2.054.447l-.536,1.5a3.5,3.5,0,0,0-1.627-.392c-.787,0-1.323.429-1.323,1.019,0,.483.393.822,1.126,1.2a2.831,2.831,0,0,1,1.806,2.342c0,1.913-1.609,2.968-3.7,2.968a4.506,4.506,0,0,1-2.431-.626Z" transform="translate(491.594 -851.927)" fill="#272525"/>
      <path id="Trazado_25562" data-name="Trazado 25562" d="M-378.125,859.527a5.213,5.213,0,0,1-5.042,5.49,3.389,3.389,0,0,1-3.559-3.6c0-2.951,2.058-5.508,5.025-5.508A3.411,3.411,0,0,1-378.125,859.527Zm-6.454,1.841c0,1.2.644,2.038,1.7,2.038,1.555,0,2.592-2.145,2.592-3.88,0-.894-.393-2-1.663-2C-383.615,857.523-384.579,859.742-384.579,861.369Z" transform="translate(494.53 -851.927)" fill="#272525"/>
      <path id="Trazado_25563" data-name="Trazado 25563" d="M-380.546,862.87a4.723,4.723,0,0,0,2.092.592c.84-.019,1.341-.5,1.341-1.074,0-.554-.286-.894-1.144-1.341a2.675,2.675,0,0,1-1.716-2.271c0-1.681,1.466-2.862,3.522-2.862a4.345,4.345,0,0,1,2.056.447l-.536,1.5a3.5,3.5,0,0,0-1.627-.392c-.787,0-1.323.429-1.323,1.019,0,.483.393.822,1.126,1.2a2.831,2.831,0,0,1,1.806,2.342c0,1.913-1.609,2.968-3.7,2.968a4.506,4.506,0,0,1-2.431-.626Z" transform="translate(498.06 -851.927)" fill="#272525"/>
      <path id="Trazado_25564" data-name="Trazado 25564" d="M-374.351,866.354l1.343-7.1h-1.128l.306-1.609h1.126l.089-.445a4.975,4.975,0,0,1,1.448-2.934,3.512,3.512,0,0,1,2.29-.8,2.928,2.928,0,0,1,1.287.232l-.395,1.645a2.25,2.25,0,0,0-.84-.143c-.983,0-1.538.913-1.734,2.038l-.072.411h1.806l-.3,1.609h-1.806l-1.341,7.1Z" transform="translate(502.268 -853.461)" fill="#272525"/>
      <path id="Trazado_25565" data-name="Trazado 25565" d="M-365.538,864.821c.018-.52.089-1.216.161-1.967h-.054a3.5,3.5,0,0,1-3.111,2.163c-1.555,0-2.574-1.216-2.574-2.969a5.962,5.962,0,0,1,6.132-6.134,9.25,9.25,0,0,1,2.628.393l-.892,4.543a20.175,20.175,0,0,0-.359,3.971Zm.858-7.206a3.477,3.477,0,0,0-.858-.091c-1.931,0-3.415,2.165-3.415,4.149,0,.913.34,1.663,1.25,1.663.967,0,2.147-1.216,2.558-3.433Z" transform="translate(504.291 -851.927)" fill="#272525"/>
      <path id="Trazado_25566" data-name="Trazado 25566" d="M-362.812,856.035l.556,4.328c.106,1.037.215,1.7.249,2.27h.055c.213-.554.465-1.18.948-2.218l2.163-4.38h2.308l-4.847,8.71h-2.092l-1.484-8.71Z" transform="translate(508.143 -851.852)" fill="#272525"/>
      <path id="Trazado_25567" data-name="Trazado 25567" d="M-351.285,859.527a5.213,5.213,0,0,1-5.042,5.49,3.389,3.389,0,0,1-3.559-3.6c0-2.951,2.058-5.508,5.025-5.508A3.412,3.412,0,0,1-351.285,859.527Zm-6.456,1.841c0,1.2.645,2.038,1.7,2.038,1.555,0,2.594-2.145,2.594-3.88,0-.894-.393-2-1.663-2C-356.775,857.523-357.741,859.742-357.741,861.369Z" transform="translate(511.313 -851.927)" fill="#272525"/>
      <path id="Trazado_25568" data-name="Trazado 25568" d="M-354.044,864.821l1.019-5.365c.232-1.234.34-2.557.445-3.345h1.807c-.055.59-.107,1.2-.2,1.843h.054a3.2,3.2,0,0,1,2.735-2.04,3.752,3.752,0,0,1,.447.037l-.411,2.036a2.669,2.669,0,0,0-.393-.034c-1.484,0-2.431,1.5-2.771,3.361l-.663,3.506Z" transform="translate(514.966 -851.927)" fill="#272525"/>
      <path id="Trazado_25569" data-name="Trazado 25569" d="M-344.692,864.821c.018-.52.089-1.216.161-1.967h-.055a3.492,3.492,0,0,1-3.111,2.163c-1.555,0-2.574-1.216-2.574-2.969a5.964,5.964,0,0,1,6.134-6.134,9.25,9.25,0,0,1,2.628.393l-.894,4.543a20.286,20.286,0,0,0-.358,3.971Zm.857-7.206a3.452,3.452,0,0,0-.857-.091c-1.931,0-3.416,2.165-3.416,4.149,0,.913.34,1.663,1.251,1.663.967,0,2.145-1.216,2.557-3.433Z" transform="translate(517.325 -851.927)" fill="#272525"/>
      <path id="Trazado_25570" data-name="Trazado 25570" d="M-340.113,853.582l-1.091,5.276h.037a3.522,3.522,0,0,1,2.861-1.485c1.859,0,2.628,1.521,2.628,3.077,0,2.753-1.9,6.027-5.614,6.027-1.824,0-2.916-.77-2.9-2.344a8.391,8.391,0,0,1,.161-1.5l1.824-9.048Zm-1.841,9.155a4.408,4.408,0,0,0-.088,1.038,1.023,1.023,0,0,0,1.162,1.107c1.824,0,3.021-2.342,3.021-4.04,0-.965-.411-1.77-1.378-1.77-1.073,0-2.18,1.108-2.537,2.86Z" transform="translate(521.129 -853.385)" fill="#272525"/>
      <path id="Trazado_25571" data-name="Trazado 25571" d="M-338.425,866.279l2.431-12.7h2.076l-2.415,12.7Z" transform="translate(524.733 -853.385)" fill="#272525"/>
      <path id="Trazado_25572" data-name="Trazado 25572" d="M-328.924,864.318A7,7,0,0,1-332,865a3.267,3.267,0,0,1-3.576-3.594c0-2.628,1.931-5.49,4.936-5.49,1.716,0,2.805,1,2.805,2.451,0,2.235-2.342,2.95-5.7,2.878a2.387,2.387,0,0,0,.231,1.234,1.925,1.925,0,0,0,1.789.894,5.119,5.119,0,0,0,2.394-.572Zm-1.984-6.847a2.681,2.681,0,0,0-2.415,2.217c2.147.036,3.522-.268,3.522-1.305C-329.8,857.811-330.248,857.471-330.908,857.471Z" transform="translate(526.514 -851.927)" fill="#272525"/>
      <path id="Trazado_25573" data-name="Trazado 25573" d="M-330.079,862.87a4.729,4.729,0,0,0,2.092.592c.84-.019,1.341-.5,1.341-1.074,0-.554-.286-.894-1.144-1.341a2.675,2.675,0,0,1-1.716-2.271c0-1.681,1.468-2.862,3.522-2.862a4.348,4.348,0,0,1,2.058.447l-.536,1.5a3.509,3.509,0,0,0-1.629-.392c-.787,0-1.323.429-1.323,1.019,0,.483.395.822,1.128,1.2a2.829,2.829,0,0,1,1.8,2.342c0,1.913-1.609,2.968-3.7,2.968a4.506,4.506,0,0,1-2.431-.626Z" transform="translate(529.616 -851.927)" fill="#272525"/>
      <path id="Trazado_25574" data-name="Trazado 25574" d="M-314.319,853.582l-1.824,9.6a24.016,24.016,0,0,0-.393,3.095h-1.913l.18-1.555h-.037a3.53,3.53,0,0,1-2.986,1.752c-1.555,0-2.648-1.271-2.648-3.238a5.648,5.648,0,0,1,5.437-5.866,3.668,3.668,0,0,1,1.341.25l.77-4.041Zm-3.145,5.739a2.135,2.135,0,0,0-1.2-.34c-1.789,0-3.112,1.986-3.112,3.935,0,1.055.411,1.877,1.395,1.877.93,0,2.04-1.017,2.4-2.825Z" transform="translate(533.791 -853.385)" fill="#272525"/>
      <path id="Trazado_25575" data-name="Trazado 25575" d="M-311.292,864.318a6.99,6.99,0,0,1-3.075.679,3.267,3.267,0,0,1-3.576-3.594c0-2.628,1.931-5.49,4.936-5.49,1.715,0,2.805,1,2.805,2.451,0,2.235-2.342,2.95-5.7,2.878a2.4,2.4,0,0,0,.232,1.234,1.925,1.925,0,0,0,1.789.894,5.125,5.125,0,0,0,2.394-.572Zm-1.983-6.847a2.681,2.681,0,0,0-2.415,2.217c2.147.036,3.522-.268,3.522-1.305C-312.168,857.811-312.615,857.471-313.275,857.471Z" transform="translate(537.54 -851.927)" fill="#272525"/>
      <path id="Trazado_25576" data-name="Trazado 25576" d="M-302.039,859.527a5.213,5.213,0,0,1-5.042,5.49,3.389,3.389,0,0,1-3.559-3.6c0-2.951,2.058-5.508,5.025-5.508A3.412,3.412,0,0,1-302.039,859.527Zm-6.454,1.841c0,1.2.644,2.038,1.7,2.038,1.555,0,2.592-2.145,2.592-3.88,0-.894-.393-2-1.663-2C-307.529,857.523-308.493,859.742-308.493,861.369Z" transform="translate(542.107 -851.927)" fill="#272525"/>
      <path id="Trazado_25577" data-name="Trazado 25577" d="M-298.607,864.515a5.912,5.912,0,0,1-2.5.483,3.271,3.271,0,0,1-3.524-3.468,5.508,5.508,0,0,1,5.544-5.615,4.682,4.682,0,0,1,1.77.341l-.536,1.627a3.1,3.1,0,0,0-1.305-.268,3.492,3.492,0,0,0-3.29,3.665,1.82,1.82,0,0,0,1.913,2.038,4.476,4.476,0,0,0,1.859-.411Z" transform="translate(545.862 -851.927)" fill="#272525"/>
      <path id="Trazado_25578" data-name="Trazado 25578" d="M-291.185,856.035l-1.144,6.009c-.2,1.037-.322,1.95-.427,2.7H-294.6l.179-1.521h-.036a3.841,3.841,0,0,1-3.023,1.718c-1.268,0-2.269-.679-2.269-2.469a7.515,7.515,0,0,1,.177-1.555l.931-4.882h2.074l-.894,4.757a6.077,6.077,0,0,0-.143,1.2c0,.715.286,1.234,1.108,1.234.965,0,2.092-1.144,2.431-2.95l.8-4.239Z" transform="translate(548.917 -851.852)" fill="#272525"/>
      <path id="Trazado_25579" data-name="Trazado 25579" d="M-294.029,864.821l1.019-5.365c.232-1.234.34-2.557.447-3.345h1.806c-.054.59-.107,1.2-.2,1.843h.054a3.2,3.2,0,0,1,2.735-2.04,3.727,3.727,0,0,1,.447.037l-.411,2.036a2.689,2.689,0,0,0-.393-.034c-1.484,0-2.431,1.5-2.771,3.361l-.661,3.506Z" transform="translate(552.494 -851.927)" fill="#272525"/>
      <path id="Trazado_25580" data-name="Trazado 25580" d="M-290.213,864.821l1.019-5.365c.234-1.234.34-2.557.447-3.345h1.807c-.055.59-.109,1.2-.2,1.843h.054a3.2,3.2,0,0,1,2.734-2.04,3.779,3.779,0,0,1,.449.037l-.411,2.036a2.709,2.709,0,0,0-.393-.034c-1.484,0-2.431,1.5-2.771,3.361l-.663,3.506Z" transform="translate(554.88 -851.927)" fill="#272525"/>
      <path id="Trazado_25581" data-name="Trazado 25581" d="M-279.678,864.318a7,7,0,0,1-3.077.679,3.267,3.267,0,0,1-3.576-3.594c0-2.628,1.931-5.49,4.936-5.49,1.716,0,2.807,1,2.807,2.451,0,2.235-2.344,2.95-5.7,2.878a2.387,2.387,0,0,0,.231,1.234,1.926,1.926,0,0,0,1.789.894,5.131,5.131,0,0,0,2.4-.572Zm-1.984-6.847a2.678,2.678,0,0,0-2.414,2.217c2.145.036,3.522-.268,3.522-1.305C-280.554,857.811-281,857.471-281.662,857.471Z" transform="translate(557.308 -851.927)" fill="#272525"/>
      <path id="Trazado_25582" data-name="Trazado 25582" d="M-281.171,864.821l1.126-6.009c.215-1.037.34-1.949.447-2.7h1.843l-.18,1.575h.037a3.722,3.722,0,0,1,3.127-1.772,2.129,2.129,0,0,1,2.219,2.4,8.542,8.542,0,0,1-.161,1.448l-.967,5.061h-2.072l.928-4.918a6.594,6.594,0,0,0,.109-1.039c0-.713-.268-1.25-1.091-1.25-.948,0-2.163,1.144-2.54,3.182l-.751,4.024Z" transform="translate(560.534 -851.927)" fill="#272525"/>
      <path id="Trazado_25583" data-name="Trazado 25583" d="M-268.973,864.515a5.927,5.927,0,0,1-2.5.483A3.27,3.27,0,0,1-275,861.53a5.507,5.507,0,0,1,5.542-5.615,4.684,4.684,0,0,1,1.772.341l-.536,1.627a3.1,3.1,0,0,0-1.307-.268,3.492,3.492,0,0,0-3.29,3.665,1.821,1.821,0,0,0,1.913,2.038,4.463,4.463,0,0,0,1.859-.411Z" transform="translate(564.392 -851.927)" fill="#272525"/>
      <path id="Trazado_25584" data-name="Trazado 25584" d="M-270.391,866.141l1.645-8.71h2.092l-1.663,8.71Zm1.984-11.07a1.238,1.238,0,0,1,1.253-1.269,1.075,1.075,0,0,1,1.107,1.126,1.241,1.241,0,0,1-1.287,1.253A1.034,1.034,0,0,1-268.407,855.071Z" transform="translate(567.274 -853.248)" fill="#272525"/>
      <path id="Trazado_25585" data-name="Trazado 25585" d="M-261.985,864.821c.018-.52.089-1.216.161-1.967h-.054a3.492,3.492,0,0,1-3.112,2.163c-1.555,0-2.574-1.216-2.574-2.969a5.964,5.964,0,0,1,6.134-6.134,9.241,9.241,0,0,1,2.628.393l-.894,4.543a20.152,20.152,0,0,0-.356,3.971Zm.858-7.206a3.458,3.458,0,0,0-.858-.091c-1.931,0-3.415,2.165-3.415,4.149,0,.913.34,1.663,1.251,1.663.965,0,2.145-1.216,2.557-3.433Z" transform="translate(569.042 -851.927)" fill="#272525"/>
      <path id="Trazado_25586" data-name="Trazado 25586" d="M-249.981,853.582l-1.824,9.6a24.022,24.022,0,0,0-.393,3.095h-1.913l.18-1.555h-.037a3.53,3.53,0,0,1-2.986,1.752c-1.555,0-2.648-1.271-2.648-3.238a5.648,5.648,0,0,1,5.437-5.866,3.675,3.675,0,0,1,1.341.25l.77-4.041Zm-3.145,5.739a2.141,2.141,0,0,0-1.2-.34c-1.788,0-3.111,1.986-3.111,3.935,0,1.055.411,1.877,1.395,1.877.93,0,2.04-1.017,2.4-2.825Z" transform="translate(574.021 -853.385)" fill="#272525"/>
      <path id="Trazado_25587" data-name="Trazado 25587" d="M-246.954,864.318a6.986,6.986,0,0,1-3.075.679,3.268,3.268,0,0,1-3.577-3.594c0-2.628,1.932-5.49,4.938-5.49,1.715,0,2.805,1,2.805,2.451,0,2.235-2.34,2.95-5.7,2.878a2.4,2.4,0,0,0,.232,1.234,1.925,1.925,0,0,0,1.788.894,5.126,5.126,0,0,0,2.4-.572Zm-1.983-6.847a2.68,2.68,0,0,0-2.415,2.217c2.145.036,3.522-.268,3.522-1.305C-247.83,857.811-248.275,857.471-248.937,857.471Z" transform="translate(577.77 -851.927)" fill="#272525"/>
      <path id="Trazado_25588" data-name="Trazado 25588" d="M-243.1,862.6l-1.645,3.434h-2.217l6.043-12.052h2.61l1.521,12.052h-2.183l-.34-3.434Zm3.665-1.609-.34-3.005c-.052-.642-.125-1.572-.179-2.288h-.036c-.322.717-.642,1.575-.982,2.288l-1.468,3.005Z" transform="translate(581.925 -853.137)" fill="#272525"/>
      <path id="Trazado_25589" data-name="Trazado 25589" d="M-427.87,878.021l1.125-6.009c.215-1.037.34-1.949.449-2.7h1.84l-.177,1.575h.034a3.734,3.734,0,0,1,3.13-1.772,2.129,2.129,0,0,1,2.219,2.4,8.39,8.39,0,0,1-.162,1.448l-.965,5.061h-2.074l.93-4.918a6.575,6.575,0,0,0,.107-1.037c0-.715-.27-1.252-1.091-1.252-.948,0-2.163,1.144-2.539,3.182l-.753,4.024Z" transform="translate(468.803 -843.673)" fill="#272525"/>
      <path id="Trazado_25590" data-name="Trazado 25590" d="M-413.047,870.659l-1.144,6.01c-.2,1.035-.322,1.949-.429,2.7h-1.841l.179-1.521h-.037a3.832,3.832,0,0,1-3.021,1.718c-1.268,0-2.269-.68-2.269-2.469a7.529,7.529,0,0,1,.177-1.555l.93-4.882h2.075l-.894,4.757a6.075,6.075,0,0,0-.143,1.2c0,.715.286,1.234,1.108,1.234.964,0,2.092-1.144,2.431-2.95l.8-4.239Zm-.715-3.7-2.342,2.647h-1.573l1.716-2.647Z" transform="translate(472.717 -845.021)" fill="#272525"/>
      <path id="Trazado_25591" data-name="Trazado 25591" d="M-415.892,878.021l1.11-6.009c.2-1.037.34-1.949.429-2.7h1.806l-.179,1.521h.016a3.679,3.679,0,0,1,3.023-1.718,1.881,1.881,0,0,1,2.056,1.789,3.645,3.645,0,0,1,3.075-1.789,2.068,2.068,0,0,1,2.127,2.326,11.8,11.8,0,0,1-.141,1.484l-.965,5.1h-2.02l.91-4.863a7.848,7.848,0,0,0,.125-1.11c0-.733-.3-1.234-1.073-1.234-.948,0-2,1.2-2.342,3.039l-.787,4.167h-2l.93-4.936a5.2,5.2,0,0,0,.107-1.019c0-.663-.2-1.252-1.037-1.252-.967,0-2.074,1.305-2.4,3.075l-.751,4.131Z" transform="translate(476.293 -843.673)" fill="#272525"/>
      <path id="Trazado_25592" data-name="Trazado 25592" d="M-400.1,877.518a6.973,6.973,0,0,1-3.077.679,3.267,3.267,0,0,1-3.576-3.594c0-2.628,1.931-5.49,4.936-5.49,1.716,0,2.807,1,2.807,2.451,0,2.235-2.344,2.951-5.7,2.88a2.383,2.383,0,0,0,.231,1.232,1.922,1.922,0,0,0,1.789.894,5.152,5.152,0,0,0,2.4-.57Zm-1.985-6.847a2.678,2.678,0,0,0-2.414,2.218c2.145.034,3.522-.27,3.522-1.307C-400.975,871.011-401.423,870.671-402.083,870.671Z" transform="translate(482.009 -843.673)" fill="#272525"/>
      <path id="Trazado_25593" data-name="Trazado 25593" d="M-401.592,878.021l1.019-5.365c.234-1.234.34-2.557.447-3.345h1.807c-.054.592-.109,1.2-.2,1.843h.054a3.2,3.2,0,0,1,2.735-2.04,3.78,3.78,0,0,1,.447.037l-.411,2.038a2.457,2.457,0,0,0-.393-.036c-1.484,0-2.431,1.5-2.771,3.363l-.663,3.5Z" transform="translate(485.235 -843.673)" fill="#272525"/>
      <path id="Trazado_25594" data-name="Trazado 25594" d="M-389.086,872.727a5.213,5.213,0,0,1-5.042,5.49,3.389,3.389,0,0,1-3.559-3.6c0-2.95,2.056-5.508,5.024-5.508A3.413,3.413,0,0,1-389.086,872.727Zm-6.454,1.841c0,1.2.642,2.04,1.7,2.04,1.555,0,2.591-2.147,2.591-3.881,0-.894-.392-2-1.661-2C-394.576,870.723-395.54,872.942-395.54,874.568Z" transform="translate(487.676 -843.673)" fill="#272525"/>
      <path id="Trazado_25595" data-name="Trazado 25595" d="M-385.567,867.762l-.445,2.394h1.967l-.323,1.611h-1.949l-.7,3.524a7.645,7.645,0,0,0-.143,1.232.68.68,0,0,0,.767.769,4.8,4.8,0,0,0,.717-.034l-.2,1.625a4.674,4.674,0,0,1-1.359.18c-1.432,0-2.076-.788-2.076-1.79a7.182,7.182,0,0,1,.2-1.627l.751-3.88h-1.18l.3-1.611h1.18l.359-1.876Z" transform="translate(492.773 -844.519)" fill="#272525"/>
      <path id="Trazado_25596" data-name="Trazado 25596" d="M-377.492,872.727a5.213,5.213,0,0,1-5.042,5.49,3.389,3.389,0,0,1-3.559-3.6c0-2.95,2.056-5.508,5.024-5.508A3.413,3.413,0,0,1-377.492,872.727Zm-6.456,1.841c0,1.2.644,2.04,1.7,2.04,1.555,0,2.592-2.147,2.592-3.881,0-.894-.392-2-1.661-2C-382.982,870.723-383.948,872.942-383.948,874.568Z" transform="translate(494.926 -843.673)" fill="#272525"/>
      <path id="Trazado_25597" data-name="Trazado 25597" d="M-375.986,867.762l-.445,2.394h1.967l-.322,1.611h-1.95l-.7,3.524a7.662,7.662,0,0,0-.143,1.232.681.681,0,0,0,.767.769,4.8,4.8,0,0,0,.717-.034l-.2,1.625a4.674,4.674,0,0,1-1.359.18c-1.432,0-2.076-.788-2.076-1.79a7.177,7.177,0,0,1,.2-1.627l.751-3.88h-1.18l.3-1.611h1.18l.359-1.876Z" transform="translate(498.764 -844.519)" fill="#272525"/>
      <path id="Trazado_25598" data-name="Trazado 25598" d="M-370.921,878.021c.016-.52.088-1.216.159-1.967h-.052a3.492,3.492,0,0,1-3.112,2.163c-1.555,0-2.574-1.216-2.574-2.968a5.964,5.964,0,0,1,6.132-6.135,9.314,9.314,0,0,1,2.63.393l-.894,4.543a20.159,20.159,0,0,0-.358,3.971Zm.858-7.207a3.487,3.487,0,0,0-.858-.091c-1.932,0-3.416,2.166-3.416,4.149,0,.913.34,1.665,1.253,1.665.964,0,2.145-1.216,2.557-3.434Z" transform="translate(500.924 -843.673)" fill="#272525"/>
      <path id="Trazado_25599" data-name="Trazado 25599" d="M-370.649,879.479l2.433-12.7h2.074l-2.413,12.7Z" transform="translate(504.583 -845.131)" fill="#272525"/>
      <path id="Trazado_25600" data-name="Trazado 25600" d="M-356.179,866.782l-1.824,9.6a24.058,24.058,0,0,0-.393,3.094h-1.913l.179-1.555h-.036a3.531,3.531,0,0,1-2.986,1.752c-1.555,0-2.648-1.269-2.648-3.236a5.648,5.648,0,0,1,5.437-5.867,3.644,3.644,0,0,1,1.341.252l.77-4.042Zm-3.147,5.739a2.13,2.13,0,0,0-1.2-.34c-1.788,0-3.111,1.986-3.111,3.935,0,1.055.411,1.879,1.394,1.879.93,0,2.038-1.019,2.4-2.826Z" transform="translate(507.616 -845.131)" fill="#272525"/>
      <path id="Trazado_25601" data-name="Trazado 25601" d="M-353.152,877.518a6.968,6.968,0,0,1-3.077.679A3.267,3.267,0,0,1-359.8,874.6c0-2.628,1.932-5.49,4.936-5.49,1.716,0,2.807,1,2.807,2.451,0,2.235-2.344,2.951-5.7,2.88a2.4,2.4,0,0,0,.232,1.232,1.92,1.92,0,0,0,1.788.894,5.147,5.147,0,0,0,2.4-.57Zm-1.984-6.847a2.679,2.679,0,0,0-2.414,2.218c2.145.034,3.522-.27,3.522-1.307C-354.028,871.011-354.475,870.671-355.136,870.671Z" transform="translate(511.365 -843.673)" fill="#272525"/>
      <path id="Trazado_25602" data-name="Trazado 25602" d="M-352.631,878.021l1.019-5.365c.232-1.234.34-2.557.445-3.345h1.807c-.054.592-.107,1.2-.2,1.843h.054a3.2,3.2,0,0,1,2.735-2.04,3.754,3.754,0,0,1,.447.037l-.411,2.038a2.421,2.421,0,0,0-.393-.036c-1.484,0-2.431,1.5-2.771,3.363l-.663,3.5Z" transform="translate(515.85 -843.673)" fill="#272525"/>
      <path id="Trazado_25603" data-name="Trazado 25603" d="M-342.1,877.518a6.978,6.978,0,0,1-3.077.679,3.267,3.267,0,0,1-3.576-3.594c0-2.628,1.929-5.49,4.934-5.49,1.718,0,2.809,1,2.809,2.451,0,2.235-2.344,2.951-5.7,2.88a2.4,2.4,0,0,0,.231,1.232,1.926,1.926,0,0,0,1.789.894,5.159,5.159,0,0,0,2.4-.57Zm-1.986-6.847a2.681,2.681,0,0,0-2.414,2.218c2.145.034,3.524-.27,3.524-1.307C-342.972,871.011-343.42,870.671-344.082,870.671Z" transform="translate(518.278 -843.673)" fill="#272525"/>
      <path id="Trazado_25604" data-name="Trazado 25604" d="M-343.252,876.072a4.759,4.759,0,0,0,2.092.59c.842-.02,1.341-.5,1.341-1.073s-.286-.9-1.144-1.343a2.675,2.675,0,0,1-1.716-2.271c0-1.681,1.468-2.862,3.522-2.862a4.325,4.325,0,0,1,2.058.449l-.536,1.5a3.51,3.51,0,0,0-1.629-.392c-.785,0-1.321.429-1.321,1.019,0,.483.393.822,1.126,1.2a2.825,2.825,0,0,1,1.8,2.341c0,1.915-1.609,2.968-3.7,2.968a4.507,4.507,0,0,1-2.431-.626Z" transform="translate(521.379 -843.673)" fill="#272525"/>
      <path id="Trazado_25605" data-name="Trazado 25605" d="M-330.383,869.235l-1.144,6.01c-.2,1.035-.322,1.949-.429,2.7H-333.8l.179-1.521h-.036a3.837,3.837,0,0,1-3.023,1.718c-1.268,0-2.269-.679-2.269-2.469a7.523,7.523,0,0,1,.177-1.555l.93-4.882h2.075l-.894,4.757a6.071,6.071,0,0,0-.143,1.2c0,.715.286,1.234,1.108,1.234.964,0,2.092-1.144,2.431-2.95l.8-4.239Z" transform="translate(524.407 -843.598)" fill="#272525"/>
      <path id="Trazado_25606" data-name="Trazado 25606" d="M-333.228,879.479l2.431-12.7h2.076l-2.415,12.7Z" transform="translate(527.983 -845.131)" fill="#272525"/>
      <path id="Trazado_25607" data-name="Trazado 25607" d="M-326.222,867.762l-.447,2.394h1.965l-.32,1.611h-1.949l-.7,3.524a7.649,7.649,0,0,0-.143,1.232.681.681,0,0,0,.769.769,4.765,4.765,0,0,0,.715-.034l-.2,1.625a4.649,4.649,0,0,1-1.359.18c-1.429,0-2.074-.788-2.074-1.79a7.182,7.182,0,0,1,.2-1.627l.751-3.88h-1.178l.3-1.611h1.182l.356-1.876Z" transform="translate(529.882 -844.519)" fill="#272525"/>
      <path id="Trazado_25608" data-name="Trazado 25608" d="M-321.16,878.021c.018-.52.089-1.216.161-1.967h-.052a3.5,3.5,0,0,1-3.112,2.163c-1.555,0-2.574-1.216-2.574-2.968a5.964,5.964,0,0,1,6.132-6.135,9.293,9.293,0,0,1,2.628.393l-.894,4.543a20.15,20.15,0,0,0-.356,3.971Zm.86-7.207a3.492,3.492,0,0,0-.86-.091c-1.931,0-3.415,2.166-3.415,4.149,0,.913.34,1.665,1.251,1.665.965,0,2.147-1.216,2.557-3.434Z" transform="translate(532.041 -843.673)" fill="#272525"/>
      <path id="Trazado_25609" data-name="Trazado 25609" d="M-311.167,866.782l-1.824,9.6a24.357,24.357,0,0,0-.395,3.094H-315.3l.177-1.555h-.034a3.536,3.536,0,0,1-2.987,1.752c-1.555,0-2.646-1.269-2.646-3.236a5.647,5.647,0,0,1,5.437-5.867,3.663,3.663,0,0,1,1.341.252l.767-4.042Zm-3.148,5.739a2.135,2.135,0,0,0-1.2-.34c-1.788,0-3.111,1.986-3.111,3.935,0,1.055.411,1.879,1.395,1.879.931,0,2.038-1.019,2.4-2.826Z" transform="translate(535.762 -845.131)" fill="#272525"/>
      <path id="Trazado_25610" data-name="Trazado 25610" d="M-306.17,872.727a5.213,5.213,0,0,1-5.042,5.49,3.389,3.389,0,0,1-3.559-3.6,5.216,5.216,0,0,1,5.025-5.508A3.411,3.411,0,0,1-306.17,872.727Zm-6.454,1.841c0,1.2.644,2.04,1.7,2.04,1.555,0,2.592-2.147,2.592-3.881,0-.894-.393-2-1.663-2C-311.66,870.723-312.624,872.942-312.624,874.568Z" transform="translate(539.524 -843.673)" fill="#272525"/>
      <path id="Trazado_25611" data-name="Trazado 25611" d="M-308.591,876.072a4.746,4.746,0,0,0,2.092.59c.84-.02,1.341-.5,1.341-1.073s-.284-.9-1.144-1.343a2.675,2.675,0,0,1-1.716-2.271c0-1.681,1.466-2.862,3.524-2.862a4.32,4.32,0,0,1,2.054.449l-.536,1.5a3.5,3.5,0,0,0-1.627-.392c-.787,0-1.323.429-1.323,1.019,0,.483.393.822,1.126,1.2a2.827,2.827,0,0,1,1.806,2.341c0,1.915-1.609,2.968-3.7,2.968a4.508,4.508,0,0,1-2.431-.626Z" transform="translate(543.053 -843.673)" fill="#272525"/>
      <path id="Trazado_25612" data-name="Trazado 25612" d="M-303,881.559l1.7-9.011c.2-1.037.393-2.342.5-3.238h1.879l-.2,1.432h.036a3.675,3.675,0,0,1,2.952-1.629c1.877,0,2.753,1.539,2.753,3.238,0,3.041-2.111,5.866-5.079,5.866a3.515,3.515,0,0,1-1.736-.377h-.034l-.7,3.719Zm3.111-5.381a2.129,2.129,0,0,0,1.394.431c1.611,0,2.932-2.147,2.932-4.1,0-.8-.358-1.7-1.377-1.7-1.055,0-2.2,1.2-2.576,3.236Z" transform="translate(546.884 -843.673)" fill="#272525"/>
      <path id="Trazado_25613" data-name="Trazado 25613" d="M-287.777,872.727a5.213,5.213,0,0,1-5.043,5.49,3.388,3.388,0,0,1-3.558-3.6c0-2.95,2.056-5.508,5.024-5.508A3.413,3.413,0,0,1-287.777,872.727Zm-6.456,1.841c0,1.2.644,2.04,1.7,2.04,1.555,0,2.592-2.147,2.592-3.881,0-.894-.392-2-1.663-2C-293.267,870.723-294.233,872.942-294.233,874.568Z" transform="translate(551.025 -843.673)" fill="#272525"/>
      <path id="Trazado_25614" data-name="Trazado 25614" d="M-290.2,876.072a4.739,4.739,0,0,0,2.092.59c.839-.02,1.341-.5,1.341-1.073s-.286-.9-1.144-1.343a2.677,2.677,0,0,1-1.718-2.271c0-1.681,1.468-2.862,3.524-2.862a4.322,4.322,0,0,1,2.056.449l-.536,1.5a3.5,3.5,0,0,0-1.627-.392c-.788,0-1.325.429-1.325,1.019,0,.483.395.822,1.128,1.2a2.827,2.827,0,0,1,1.806,2.341c0,1.915-1.609,2.968-3.7,2.968a4.507,4.507,0,0,1-2.431-.626Z" transform="translate(554.553 -843.673)" fill="#272525"/>
      <path id="Trazado_25615" data-name="Trazado 25615" d="M-286.17,879.341l1.645-8.71h2.092l-1.664,8.71Zm1.984-11.07A1.237,1.237,0,0,1-282.934,867a1.075,1.075,0,0,1,1.108,1.126,1.241,1.241,0,0,1-1.287,1.253A1.032,1.032,0,0,1-284.186,868.271Z" transform="translate(557.408 -844.994)" fill="#272525"/>
      <path id="Trazado_25616" data-name="Trazado 25616" d="M-279.124,866.782l-1.091,5.276h.036a3.524,3.524,0,0,1,2.861-1.486c1.859,0,2.628,1.521,2.628,3.077,0,2.753-1.9,6.027-5.614,6.027-1.824,0-2.916-.771-2.9-2.344a8.5,8.5,0,0,1,.159-1.5l1.824-9.05Zm-1.842,9.155a4.413,4.413,0,0,0-.089,1.039,1.024,1.024,0,0,0,1.162,1.107c1.824,0,3.021-2.342,3.021-4.04,0-.965-.411-1.77-1.377-1.77-1.074,0-2.181,1.109-2.539,2.861Z" transform="translate(559.265 -845.131)" fill="#272525"/>
      <path id="Trazado_25617" data-name="Trazado 25617" d="M-277.437,879.479l2.431-12.7h2.076l-2.414,12.7Z" transform="translate(562.869 -845.131)" fill="#272525"/>
      <path id="Trazado_25618" data-name="Trazado 25618" d="M-267.936,877.518a6.974,6.974,0,0,1-3.077.679,3.267,3.267,0,0,1-3.576-3.594c0-2.628,1.932-5.49,4.936-5.49,1.716,0,2.807,1,2.807,2.451,0,2.235-2.344,2.951-5.7,2.88a2.384,2.384,0,0,0,.231,1.232,1.922,1.922,0,0,0,1.789.894,5.147,5.147,0,0,0,2.4-.57Zm-1.985-6.847a2.678,2.678,0,0,0-2.414,2.218c2.145.034,3.522-.27,3.522-1.307C-268.812,871.011-269.26,870.671-269.92,870.671Z" transform="translate(564.65 -843.673)" fill="#272525"/>
      <path id="Trazado_25619" data-name="Trazado 25619" d="M-269.091,876.072a4.758,4.758,0,0,0,2.092.59c.842-.02,1.341-.5,1.341-1.073s-.284-.9-1.144-1.343a2.673,2.673,0,0,1-1.715-2.271c0-1.681,1.466-2.862,3.522-2.862a4.323,4.323,0,0,1,2.056.449l-.536,1.5a3.5,3.5,0,0,0-1.629-.392c-.785,0-1.321.429-1.321,1.019,0,.483.393.822,1.126,1.2a2.825,2.825,0,0,1,1.8,2.341c0,1.915-1.609,2.968-3.7,2.968a4.508,4.508,0,0,1-2.431-.626Z" transform="translate(567.752 -843.673)" fill="#272525"/>
    </g>
    <g id="Grupo_14690" data-name="Grupo 14690" transform="translate(448.537 575.311)">
      <path id="Trazado_25620" data-name="Trazado 25620" d="M-489.96,864.37a4.255,4.255,0,0,1-1.4,3.438,6.008,6.008,0,0,1-4,1.191h-1.266v4.952h-2.952V860.027h4.447a5.917,5.917,0,0,1,3.852,1.091A3.98,3.98,0,0,1-489.96,864.37Zm-6.667,2.211h.972a3.247,3.247,0,0,0,2.038-.538,1.886,1.886,0,0,0,.676-1.567,1.929,1.929,0,0,0-.567-1.534,2.657,2.657,0,0,0-1.777-.494h-1.342Z" transform="translate(499.578 -859.97)" fill="#272525"/>
      <path id="Trazado_25621" data-name="Trazado 25621" d="M-492.641,868.609a14.8,14.8,0,0,1,.738-4.725,11.773,11.773,0,0,1,2.129-3.857h2.381a13.687,13.687,0,0,0-2.028,4.039,15.122,15.122,0,0,0-.686,4.523,14.581,14.581,0,0,0,.7,4.508,13.636,13.636,0,0,0,1.994,3.938h-2.362a11.231,11.231,0,0,1-2.134-3.78A14.413,14.413,0,0,1-492.641,868.609Z" transform="translate(503.916 -859.97)" fill="#272525"/>
      <path id="Trazado_25622" data-name="Trazado 25622" d="M-478.78,873.973l-1.009-3.314h-5.076l-1.009,3.314h-3.181l4.915-13.981h3.608l4.934,13.981Zm-1.713-5.791q-1.4-4.5-1.577-5.1t-.252-.933q-.315,1.219-1.8,6.028Z" transform="translate(506.158 -859.992)" fill="#272525"/>
      <path id="Trazado_25623" data-name="Trazado 25623" d="M-475.172,868.609a14.343,14.343,0,0,1-.738,4.666,11.152,11.152,0,0,1-2.128,3.761H-480.4a13.753,13.753,0,0,0,1.989-3.928,14.571,14.571,0,0,0,.705-4.518,15.122,15.122,0,0,0-.686-4.523,13.688,13.688,0,0,0-2.028-4.039h2.381A11.677,11.677,0,0,1-475.9,863.9,14.816,14.816,0,0,1-475.172,868.609Z" transform="translate(511.559 -859.97)" fill="#272525"/>
      <path id="Trazado_25624" data-name="Trazado 25624" d="M-473.076,864.679v-2.085h9.456v2.085Zm0,3.686v-2.087h9.456v2.087Z" transform="translate(516.15 -858.365)" fill="#272525"/>
    </g>
  </g>
</svg>
