<svg xmlns="http://www.w3.org/2000/svg" width="779.393" height="35.324" viewBox="0 0 779.393 35.324">
  <g id="Grupo_14720" data-name="Grupo 14720" transform="translate(-289.049 -1037.105)">
    <path id="Trazado_25800" data-name="Trazado 25800" d="M-561.169,1155.871v1.152h345.536v-1.152H-561.169" transform="translate(909.603 -99.668)" fill-rule="evenodd"/>
    <g id="Grupo_14700" data-name="Grupo 14700" transform="translate(351.511 1037.105)">
      <path id="Trazado_25801" data-name="Trazado 25801" d="M-553.428,1156.3l1.292-6.041a8.1,8.1,0,0,0,.175-1.258,1.24,1.24,0,0,0-.31-.881,1.3,1.3,0,0,0-.99-.332,2.582,2.582,0,0,0-1.515.525,4.63,4.63,0,0,0-1.3,1.492,7.816,7.816,0,0,0-.85,2.349l-.883,4.146h-1.466l2.041-9.568h1.214l-.193,1.773h.089a5.831,5.831,0,0,1,1.619-1.507,3.247,3.247,0,0,1,1.619-.442,2.434,2.434,0,0,1,1.749.608,2.22,2.22,0,0,1,.644,1.7,7.086,7.086,0,0,1-.2,1.572l-1.248,5.867Z" transform="translate(559.276 -1142.6)"/>
      <path id="Trazado_25802" data-name="Trazado 25802" d="M-549.686,1148.249l-1.31,6.067a6.633,6.633,0,0,0-.158,1.212,1.12,1.12,0,0,0,1.284,1.25,2.592,2.592,0,0,0,1.51-.523,4.694,4.694,0,0,0,1.31-1.5,8.068,8.068,0,0,0,.863-2.357l.873-4.148h1.451l-2.019,9.568H-547.1l.2-1.771h-.106a5.706,5.706,0,0,1-1.633,1.518,3.293,3.293,0,0,1-1.606.427,2.437,2.437,0,0,1-1.754-.606,2.276,2.276,0,0,1-.639-1.733,8.15,8.15,0,0,1,.192-1.5l1.276-5.9Zm1.614-1.5a17.029,17.029,0,0,0,1.1-1.322q.61-.8.93-1.305h1.659v.182a16.06,16.06,0,0,1-1.222,1.32,13.289,13.289,0,0,1-1.546,1.362h-.917Z" transform="translate(563.427 -1144.121)"/>
      <path id="Trazado_25803" data-name="Trazado 25803" d="M-541.017,1156.3l1.292-6.041a7.146,7.146,0,0,0,.154-1.178,1.486,1.486,0,0,0-.27-.952,1.118,1.118,0,0,0-.925-.34,2.346,2.346,0,0,0-1.427.525,4.544,4.544,0,0,0-1.222,1.5,8.557,8.557,0,0,0-.816,2.345l-.883,4.146h-1.466l2.043-9.568h1.214l-.193,1.773h.088a5.413,5.413,0,0,1,1.515-1.494,2.987,2.987,0,0,1,1.559-.455,1.974,1.974,0,0,1,1.517.569,2.587,2.587,0,0,1,.629,1.58h.07a5.632,5.632,0,0,1,1.6-1.619,3.193,3.193,0,0,1,1.71-.53,2.359,2.359,0,0,1,1.716.595,2.317,2.317,0,0,1,.606,1.728,8.259,8.259,0,0,1-.192,1.554l-1.258,5.867h-1.484l1.292-6.041a7.7,7.7,0,0,0,.176-1.274,1.238,1.238,0,0,0-.3-.869,1.227,1.227,0,0,0-.946-.327,2.334,2.334,0,0,0-1.4.507,4.379,4.379,0,0,0-1.209,1.435,7.9,7.9,0,0,0-.792,2.2l-.933,4.365Z" transform="translate(567.216 -1142.6)"/>
      <path id="Trazado_25804" data-name="Trazado 25804" d="M-533.339,1156.471a3.342,3.342,0,0,1-2.522-.951,3.646,3.646,0,0,1-.915-2.636,7.812,7.812,0,0,1,.65-3.147,5.8,5.8,0,0,1,1.723-2.345,3.755,3.755,0,0,1,2.366-.839,3,3,0,0,1,2.007.582,2.022,2.022,0,0,1,.671,1.619,2.77,2.77,0,0,1-1.448,2.467,7.935,7.935,0,0,1-4.146.894h-.288l-.036.7a2.7,2.7,0,0,0,.536,1.785,2.05,2.05,0,0,0,1.664.642,4.344,4.344,0,0,0,1.13-.156,8.764,8.764,0,0,0,1.445-.577v1.274a7.866,7.866,0,0,1-1.45.537A5.851,5.851,0,0,1-533.339,1156.471Zm1.214-8.668a2.334,2.334,0,0,0-1.69.821,5.375,5.375,0,0,0-1.208,2.277h.1a7.136,7.136,0,0,0,3.052-.518,1.632,1.632,0,0,0,1.06-1.507,1.02,1.02,0,0,0-.32-.767A1.4,1.4,0,0,0-532.124,1147.8Z" transform="translate(573.345 -1142.6)"/>
      <path id="Trazado_25805" data-name="Trazado 25805" d="M-525.511,1146.553a4.021,4.021,0,0,1,1.048.124l-.315,1.308a3.892,3.892,0,0,0-.917-.112,2.424,2.424,0,0,0-1.489.523,4.578,4.578,0,0,0-1.213,1.453,7.479,7.479,0,0,0-.766,2.064l-.933,4.383h-1.468l2.043-9.568h1.214l-.193,1.773h.089a8.619,8.619,0,0,1,1.039-1.193,3.229,3.229,0,0,1,.86-.557A2.441,2.441,0,0,1-525.511,1146.553Z" transform="translate(576.606 -1142.6)"/>
      <path id="Trazado_25806" data-name="Trazado 25806" d="M-522.239,1146.586a3.493,3.493,0,0,1,2.618.981,3.7,3.7,0,0,1,.962,2.7,7.75,7.75,0,0,1-.629,3.1,5.363,5.363,0,0,1-1.7,2.251,3.985,3.985,0,0,1-2.426.795,3.483,3.483,0,0,1-2.628-.987,3.726,3.726,0,0,1-.951-2.7,7.765,7.765,0,0,1,.635-3.12,5.319,5.319,0,0,1,1.721-2.245A4.01,4.01,0,0,1-522.239,1146.586Zm2.059,3.483a2.382,2.382,0,0,0-.544-1.628,1.861,1.861,0,0,0-1.481-.623,2.548,2.548,0,0,0-1.707.645,4.153,4.153,0,0,0-1.169,1.794,7.47,7.47,0,0,0-.414,2.553,2.583,2.583,0,0,0,.553,1.767,2.018,2.018,0,0,0,1.594.624,2.4,2.4,0,0,0,1.632-.637,4.156,4.156,0,0,0,1.131-1.81A8.227,8.227,0,0,0-520.18,1150.069Z" transform="translate(579.461 -1142.579)"/>
      <path id="Trazado_25807" data-name="Trazado 25807" d="M-513.245,1148.048a2.549,2.549,0,0,1,2.454,1.659h.086a20.318,20.318,0,0,1,.393-2.392l.681-3.126h1.45l-2.882,13.584h-1.214l.193-1.823h-.07a6.6,6.6,0,0,1-1.65,1.544,3.085,3.085,0,0,1-1.589.453,2.284,2.284,0,0,1-1.893-.855,3.723,3.723,0,0,1-.683-2.375,9.049,9.049,0,0,1,.629-3.423,5.7,5.7,0,0,1,1.7-2.4A3.755,3.755,0,0,1-513.245,1148.048Zm-1.658,8.687a2.543,2.543,0,0,0,1.694-.818,5.739,5.739,0,0,0,1.383-2.085,6.908,6.908,0,0,0,.512-2.589,2.09,2.09,0,0,0-.473-1.474,1.78,1.78,0,0,0-1.37-.507,2.337,2.337,0,0,0-1.637.72,5.066,5.066,0,0,0-1.212,2.025,8.186,8.186,0,0,0-.46,2.745Q-516.466,1156.737-514.9,1156.736Z" transform="translate(585.106 -1144.078)"/>
      <path id="Trazado_25808" data-name="Trazado 25808" d="M-508.18,1156.471a3.342,3.342,0,0,1-2.522-.951,3.646,3.646,0,0,1-.915-2.636,7.839,7.839,0,0,1,.65-3.147,5.784,5.784,0,0,1,1.724-2.345,3.748,3.748,0,0,1,2.365-.839,3,3,0,0,1,2.007.582,2.022,2.022,0,0,1,.671,1.619,2.771,2.771,0,0,1-1.447,2.467,7.945,7.945,0,0,1-4.148.894h-.288l-.034.7a2.693,2.693,0,0,0,.536,1.785,2.045,2.045,0,0,0,1.663.642,4.344,4.344,0,0,0,1.13-.156,8.651,8.651,0,0,0,1.445-.577v1.274a7.866,7.866,0,0,1-1.45.537A5.843,5.843,0,0,1-508.18,1156.471Zm1.214-8.668a2.335,2.335,0,0,0-1.69.821,5.376,5.376,0,0,0-1.208,2.277h.1a7.131,7.131,0,0,0,3.052-.518,1.634,1.634,0,0,0,1.061-1.507,1.021,1.021,0,0,0-.322-.767A1.4,1.4,0,0,0-506.966,1147.8Z" transform="translate(589.076 -1142.6)"/>
      <path id="Trazado_25809" data-name="Trazado 25809" d="M-499.9,1156.471a3.343,3.343,0,0,1-2.524-.951,3.647,3.647,0,0,1-.917-2.636,7.867,7.867,0,0,1,.65-3.147,5.843,5.843,0,0,1,1.724-2.345,3.759,3.759,0,0,1,2.366-.839,3,3,0,0,1,2.007.582,2.023,2.023,0,0,1,.673,1.619,2.768,2.768,0,0,1-1.45,2.467,7.935,7.935,0,0,1-4.146.894h-.289l-.034.7a2.71,2.71,0,0,0,.536,1.785,2.051,2.051,0,0,0,1.663.642,4.337,4.337,0,0,0,1.131-.156,8.707,8.707,0,0,0,1.445-.577v1.274a7.9,7.9,0,0,1-1.448.537A5.862,5.862,0,0,1-499.9,1156.471Zm1.212-8.668a2.328,2.328,0,0,0-1.689.821,5.36,5.36,0,0,0-1.209,2.277h.106a7.119,7.119,0,0,0,3.049-.518,1.629,1.629,0,0,0,1.061-1.507,1.023,1.023,0,0,0-.317-.767A1.408,1.408,0,0,0-498.684,1147.8Z" transform="translate(594.255 -1142.6)"/>
      <path id="Trazado_25810" data-name="Trazado 25810" d="M-492.048,1153.583a2.564,2.564,0,0,1-.964,2.124,4.285,4.285,0,0,1-2.721.764,5.815,5.815,0,0,1-2.664-.6v-1.38a5.4,5.4,0,0,0,1.32.567,4.788,4.788,0,0,0,1.31.2,2.659,2.659,0,0,0,1.658-.437,1.353,1.353,0,0,0,.559-1.117,1.207,1.207,0,0,0-.307-.838,6.152,6.152,0,0,0-1.317-.935,5.319,5.319,0,0,1-1.606-1.247,2.3,2.3,0,0,1-.471-1.45,2.4,2.4,0,0,1,.881-1.942,3.5,3.5,0,0,1,2.323-.74,6.75,6.75,0,0,1,2.88.647l-.47,1.2-.489-.218a4.859,4.859,0,0,0-1.921-.375,1.952,1.952,0,0,0-1.276.379,1.217,1.217,0,0,0-.462.983,1.225,1.225,0,0,0,.309.839,5.528,5.528,0,0,0,1.279.9,7.43,7.43,0,0,1,1.341.9,2.58,2.58,0,0,1,.606.806A2.275,2.275,0,0,1-492.048,1153.583Z" transform="translate(597.344 -1142.6)"/>
      <path id="Trazado_25811" data-name="Trazado 25811" d="M-490.583,1156.055a4.723,4.723,0,0,0,1.258-.228v1.125a3.807,3.807,0,0,1-.733.209,3.763,3.763,0,0,1-.7.088,2.427,2.427,0,0,1-1.671-.518,1.976,1.976,0,0,1-.58-1.549,6.367,6.367,0,0,1,.156-1.31l1.11-5.255h-1.5l.122-.639,1.616-.681,1.091-1.991h.855l-.479,2.2h2.391l-.226,1.11h-2.383l-1.128,5.272a6.211,6.211,0,0,0-.154,1.152,1.033,1.033,0,0,0,.252.751A.94.94,0,0,0-490.583,1156.055Z" transform="translate(600.566 -1143.38)"/>
      <path id="Trazado_25812" data-name="Trazado 25812" d="M-486.6,1146.661l-1.308,6.067a6.666,6.666,0,0,0-.159,1.213,1.12,1.12,0,0,0,1.284,1.25,2.588,2.588,0,0,0,1.51-.523,4.694,4.694,0,0,0,1.312-1.5,8.068,8.068,0,0,0,.863-2.357l.873-4.148h1.45l-2.019,9.568h-1.212l.193-1.771h-.106a5.7,5.7,0,0,1-1.633,1.518,3.288,3.288,0,0,1-1.606.427,2.437,2.437,0,0,1-1.754-.606,2.282,2.282,0,0,1-.637-1.733,8.267,8.267,0,0,1,.19-1.5l1.278-5.9Z" transform="translate(602.873 -1142.533)"/>
      <path id="Trazado_25813" data-name="Trazado 25813" d="M-478.563,1148.048a2.549,2.549,0,0,1,2.453,1.659h.088a19.661,19.661,0,0,1,.393-2.392l.679-3.126h1.45l-2.882,13.584h-1.212l.192-1.823h-.07a6.572,6.572,0,0,1-1.65,1.544,3.085,3.085,0,0,1-1.59.453,2.284,2.284,0,0,1-1.893-.855,3.713,3.713,0,0,1-.681-2.375,9.048,9.048,0,0,1,.629-3.423,5.681,5.681,0,0,1,1.7-2.4A3.759,3.759,0,0,1-478.563,1148.048Zm-1.659,8.687a2.552,2.552,0,0,0,1.7-.818,5.736,5.736,0,0,0,1.382-2.085,6.878,6.878,0,0,0,.512-2.589,2.089,2.089,0,0,0-.471-1.474,1.784,1.784,0,0,0-1.372-.507,2.337,2.337,0,0,0-1.637.72,5.047,5.047,0,0,0-1.212,2.025,8.185,8.185,0,0,0-.458,2.745Q-481.784,1156.737-480.222,1156.736Z" transform="translate(606.792 -1144.078)"/>
      <path id="Trazado_25814" data-name="Trazado 25814" d="M-475.68,1157.6h-1.468l2.045-9.568h1.468Zm.987-12.013a1.144,1.144,0,0,1,.28-.8.933.933,0,0,1,.723-.311.687.687,0,0,1,.769.787,1.184,1.184,0,0,1-.293.811.869.869,0,0,1-.676.331.806.806,0,0,1-.575-.214A.792.792,0,0,1-474.694,1145.583Z" transform="translate(610.63 -1143.9)"/>
      <path id="Trazado_25815" data-name="Trazado 25815" d="M-469.422,1146.553a2.471,2.471,0,0,1,1.432.432,2.811,2.811,0,0,1,.977,1.245h.1l.585-1.5h1.108l-2.035,9.568h-1.16l.226-1.823h-.068a4.311,4.311,0,0,1-3.293,2,2.3,2.3,0,0,1-1.9-.863,3.7,3.7,0,0,1-.691-2.366,8.989,8.989,0,0,1,.621-3.369,5.826,5.826,0,0,1,1.711-2.437A3.715,3.715,0,0,1-469.422,1146.553Zm-1.658,8.705a2.456,2.456,0,0,0,1.684-.808,5.977,5.977,0,0,0,1.362-2.1,6.873,6.873,0,0,0,.523-2.6,2.043,2.043,0,0,0-.488-1.432,1.67,1.67,0,0,0-1.284-.531,2.4,2.4,0,0,0-1.689.751,5.029,5.029,0,0,0-1.226,2.033,8.149,8.149,0,0,0-.447,2.706,2.282,2.282,0,0,0,.411,1.489A1.416,1.416,0,0,0-471.08,1155.258Z" transform="translate(612.508 -1142.6)"/>
      <path id="Trazado_25816" data-name="Trazado 25816" d="M-462.291,1156.3l1.292-6.041a8.043,8.043,0,0,0,.174-1.258,1.239,1.239,0,0,0-.309-.881,1.3,1.3,0,0,0-.991-.332,2.581,2.581,0,0,0-1.513.525,4.611,4.611,0,0,0-1.3,1.492,7.819,7.819,0,0,0-.85,2.349l-.883,4.146h-1.468l2.043-9.568h1.214l-.193,1.773h.089a5.81,5.81,0,0,1,1.619-1.507,3.247,3.247,0,0,1,1.619-.442,2.436,2.436,0,0,1,1.749.608,2.22,2.22,0,0,1,.644,1.7,7.089,7.089,0,0,1-.2,1.572l-1.248,5.867Z" transform="translate(616.263 -1142.6)"/>
      <path id="Trazado_25817" data-name="Trazado 25817" d="M-458.962,1156.055a4.745,4.745,0,0,0,1.256-.228v1.125a3.84,3.84,0,0,1-.733.209,3.746,3.746,0,0,1-.7.088,2.424,2.424,0,0,1-1.671-.518,1.976,1.976,0,0,1-.582-1.549,6.38,6.38,0,0,1,.158-1.31l1.11-5.255h-1.5l.12-.639,1.616-.681,1.092-1.991h.855l-.48,2.2h2.391l-.226,1.11h-2.384l-1.126,5.272a6.241,6.241,0,0,0-.156,1.152,1.04,1.04,0,0,0,.254.751A.939.939,0,0,0-458.962,1156.055Z" transform="translate(620.338 -1143.38)"/>
      <path id="Trazado_25818" data-name="Trazado 25818" d="M-454.576,1156.471a3.339,3.339,0,0,1-2.522-.951,3.647,3.647,0,0,1-.917-2.636,7.813,7.813,0,0,1,.652-3.147,5.781,5.781,0,0,1,1.723-2.345,3.754,3.754,0,0,1,2.365-.839,3.007,3.007,0,0,1,2.009.582,2.022,2.022,0,0,1,.671,1.619,2.77,2.77,0,0,1-1.448,2.467,7.941,7.941,0,0,1-4.148.894h-.286l-.036.7a2.692,2.692,0,0,0,.536,1.785,2.05,2.05,0,0,0,1.664.642,4.354,4.354,0,0,0,1.13-.156,8.76,8.76,0,0,0,1.445-.577v1.274a7.865,7.865,0,0,1-1.45.537A5.852,5.852,0,0,1-454.576,1156.471Zm1.214-8.668a2.332,2.332,0,0,0-1.69.821,5.359,5.359,0,0,0-1.209,2.277h.106a7.141,7.141,0,0,0,3.052-.518,1.635,1.635,0,0,0,1.06-1.507,1.02,1.02,0,0,0-.32-.767A1.4,1.4,0,0,0-453.362,1147.8Z" transform="translate(622.594 -1142.6)"/>
      <path id="Trazado_25819" data-name="Trazado 25819" d="M-446.728,1153.583a2.552,2.552,0,0,1-.965,2.124,4.274,4.274,0,0,1-2.719.764,5.8,5.8,0,0,1-2.661-.6v-1.38a5.347,5.347,0,0,0,1.316.567,4.788,4.788,0,0,0,1.31.2,2.656,2.656,0,0,0,1.658-.437,1.357,1.357,0,0,0,.559-1.117,1.212,1.212,0,0,0-.3-.838,6.288,6.288,0,0,0-1.32-.935,5.3,5.3,0,0,1-1.606-1.247,2.3,2.3,0,0,1-.471-1.45,2.4,2.4,0,0,1,.883-1.942,3.493,3.493,0,0,1,2.321-.74,6.757,6.757,0,0,1,2.882.647l-.473,1.2-.489-.218a4.846,4.846,0,0,0-1.919-.375,1.95,1.95,0,0,0-1.274.379,1.214,1.214,0,0,0-.463.983,1.22,1.22,0,0,0,.312.839,5.472,5.472,0,0,0,1.277.9,7.551,7.551,0,0,1,1.341.9,2.605,2.605,0,0,1,.606.806A2.3,2.3,0,0,1-446.728,1153.583Z" transform="translate(625.685 -1142.6)"/>
      <path id="Trazado_25820" data-name="Trazado 25820" d="M-440.284,1146.553a2.448,2.448,0,0,1,1.446.442,2.738,2.738,0,0,1,.948,1.235h.112l.587-1.5h1.091l-2.934,13.862h-1.45l.883-4.19q.078-.392.5-1.928h-.07a6.291,6.291,0,0,1-1.614,1.526,3.125,3.125,0,0,1-1.625.472,2.343,2.343,0,0,1-1.916-.85,3.676,3.676,0,0,1-.694-2.379,9.073,9.073,0,0,1,.634-3.423,5.67,5.67,0,0,1,1.711-2.417A3.778,3.778,0,0,1-440.284,1146.553Zm-1.676,8.705a2.5,2.5,0,0,0,1.661-.8,5.916,5.916,0,0,0,1.382-2.071,6.712,6.712,0,0,0,.528-2.618,2.1,2.1,0,0,0-.475-1.45,1.7,1.7,0,0,0-1.331-.531,2.357,2.357,0,0,0-1.65.736,5.087,5.087,0,0,0-1.222,2.035,8.181,8.181,0,0,0-.455,2.719Q-443.521,1155.26-441.959,1155.258Z" transform="translate(630.718 -1142.6)"/>
      <path id="Trazado_25821" data-name="Trazado 25821" d="M-435.643,1146.661l-1.308,6.067a6.522,6.522,0,0,0-.159,1.213,1.12,1.12,0,0,0,1.284,1.25,2.588,2.588,0,0,0,1.51-.523,4.7,4.7,0,0,0,1.312-1.5,8.071,8.071,0,0,0,.863-2.357l.873-4.148h1.45l-2.019,9.568h-1.212l.192-1.771h-.1a5.727,5.727,0,0,1-1.633,1.518,3.288,3.288,0,0,1-1.606.427,2.434,2.434,0,0,1-1.754-.606,2.281,2.281,0,0,1-.637-1.733,8.27,8.27,0,0,1,.19-1.5l1.276-5.9Z" transform="translate(634.739 -1142.533)"/>
      <path id="Trazado_25822" data-name="Trazado 25822" d="M-428.886,1156.471a3.337,3.337,0,0,1-2.522-.951,3.64,3.64,0,0,1-.917-2.636,7.84,7.84,0,0,1,.65-3.147,5.814,5.814,0,0,1,1.724-2.345,3.751,3.751,0,0,1,2.365-.839,3,3,0,0,1,2.009.582,2.027,2.027,0,0,1,.671,1.619,2.773,2.773,0,0,1-1.448,2.467,7.939,7.939,0,0,1-4.146.894h-.289l-.034.7a2.7,2.7,0,0,0,.536,1.785,2.046,2.046,0,0,0,1.663.642,4.335,4.335,0,0,0,1.13-.156,8.6,8.6,0,0,0,1.445-.577v1.274a7.856,7.856,0,0,1-1.448.537A5.852,5.852,0,0,1-428.886,1156.471Zm1.214-8.668a2.332,2.332,0,0,0-1.69.821,5.376,5.376,0,0,0-1.208,2.277h.1a7.123,7.123,0,0,0,3.051-.518,1.632,1.632,0,0,0,1.061-1.507,1.02,1.02,0,0,0-.32-.767A1.4,1.4,0,0,0-427.672,1147.8Z" transform="translate(638.658 -1142.6)"/>
      <path id="Trazado_25823" data-name="Trazado 25823" d="M-424.708,1162.1a3.109,3.109,0,0,1-1.092-.182v-1.232a3.062,3.062,0,0,0,.978.192,1.152,1.152,0,0,0,1.022-.541,4.624,4.624,0,0,0,.575-1.544l1.983-9.445h-1.685l.114-.587,1.8-.575.2-.873a5.218,5.218,0,0,1,1.113-2.467,2.845,2.845,0,0,1,2.108-.718,4.54,4.54,0,0,1,.857.1,4.005,4.005,0,0,1,.785.222l-.375,1.127a3.381,3.381,0,0,0-1.2-.254,1.54,1.54,0,0,0-1.165.424,3.372,3.372,0,0,0-.658,1.549l-.218.943h2.075l-.216,1.11h-2.069l-2.025,9.584a5.03,5.03,0,0,1-1.047,2.409A2.423,2.423,0,0,1-424.708,1162.1Z" transform="translate(642.738 -1144.114)"/>
      <path id="Trazado_25824" data-name="Trazado 25824" d="M-417.568,1146.661l-1.31,6.067a6.634,6.634,0,0,0-.158,1.213,1.12,1.12,0,0,0,1.284,1.25,2.592,2.592,0,0,0,1.51-.523,4.692,4.692,0,0,0,1.31-1.5,8.07,8.07,0,0,0,.865-2.357l.873-4.148h1.448l-2.015,9.568h-1.212l.19-1.771h-.106a5.7,5.7,0,0,1-1.632,1.518,3.293,3.293,0,0,1-1.606.427,2.441,2.441,0,0,1-1.755-.606,2.282,2.282,0,0,1-.637-1.733,8.178,8.178,0,0,1,.193-1.5l1.274-5.9Z" transform="translate(646.04 -1142.533)"/>
      <path id="Trazado_25825" data-name="Trazado 25825" d="M-410.813,1156.471a3.341,3.341,0,0,1-2.522-.951,3.646,3.646,0,0,1-.915-2.636,7.84,7.84,0,0,1,.65-3.147,5.784,5.784,0,0,1,1.724-2.345,3.751,3.751,0,0,1,2.365-.839,3,3,0,0,1,2.007.582,2.017,2.017,0,0,1,.671,1.619,2.768,2.768,0,0,1-1.447,2.467,7.945,7.945,0,0,1-4.148.894h-.288l-.034.7a2.693,2.693,0,0,0,.536,1.785,2.047,2.047,0,0,0,1.663.642,4.365,4.365,0,0,0,1.131-.156,8.7,8.7,0,0,0,1.443-.577v1.274a7.9,7.9,0,0,1-1.448.537A5.856,5.856,0,0,1-410.813,1156.471Zm1.214-8.668a2.335,2.335,0,0,0-1.69.821,5.375,5.375,0,0,0-1.208,2.277h.1a7.131,7.131,0,0,0,3.052-.518,1.634,1.634,0,0,0,1.061-1.507,1.026,1.026,0,0,0-.32-.767A1.4,1.4,0,0,0-409.6,1147.8Z" transform="translate(649.96 -1142.6)"/>
      <path id="Trazado_25826" data-name="Trazado 25826" d="M-402.987,1146.553a4.01,4.01,0,0,1,1.048.124l-.314,1.308a3.9,3.9,0,0,0-.918-.112,2.424,2.424,0,0,0-1.489.523,4.579,4.579,0,0,0-1.212,1.453,7.48,7.48,0,0,0-.766,2.064l-.933,4.383h-1.466l2.043-9.568h1.214l-.193,1.773h.088a8.631,8.631,0,0,1,1.039-1.193,3.283,3.283,0,0,1,.86-.557A2.452,2.452,0,0,1-402.987,1146.553Z" transform="translate(653.221 -1142.6)"/>
      <path id="Trazado_25827" data-name="Trazado 25827" d="M-399.714,1146.586a3.489,3.489,0,0,1,2.618.981,3.693,3.693,0,0,1,.962,2.7,7.75,7.75,0,0,1-.629,3.1,5.361,5.361,0,0,1-1.7,2.251,3.993,3.993,0,0,1-2.428.795,3.488,3.488,0,0,1-2.628-.987,3.733,3.733,0,0,1-.951-2.7,7.738,7.738,0,0,1,.637-3.12,5.317,5.317,0,0,1,1.72-2.245A4.013,4.013,0,0,1-399.714,1146.586Zm2.061,3.483a2.39,2.39,0,0,0-.544-1.628,1.867,1.867,0,0,0-1.482-.623,2.543,2.543,0,0,0-1.7.645,4.154,4.154,0,0,0-1.17,1.794,7.467,7.467,0,0,0-.414,2.553,2.575,2.575,0,0,0,.554,1.767,2.014,2.014,0,0,0,1.593.624,2.4,2.4,0,0,0,1.632-.637,4.159,4.159,0,0,0,1.133-1.81A8.229,8.229,0,0,0-397.653,1150.069Z" transform="translate(656.075 -1142.579)"/>
      <path id="Trazado_25828" data-name="Trazado 25828" d="M-392.66,1156.3l1.292-6.041a8.051,8.051,0,0,0,.174-1.258,1.239,1.239,0,0,0-.309-.881,1.3,1.3,0,0,0-.991-.332,2.577,2.577,0,0,0-1.513.525,4.612,4.612,0,0,0-1.3,1.492,7.817,7.817,0,0,0-.852,2.349l-.883,4.146h-1.466l2.043-9.568h1.214l-.193,1.773h.089a5.786,5.786,0,0,1,1.619-1.507,3.247,3.247,0,0,1,1.619-.442,2.436,2.436,0,0,1,1.749.608,2.219,2.219,0,0,1,.642,1.7,7.086,7.086,0,0,1-.2,1.572l-1.247,5.867Z" transform="translate(659.803 -1142.6)"/>
      <path id="Trazado_25829" data-name="Trazado 25829" d="M-384.371,1146.553a2.47,2.47,0,0,1,1.432.432,2.825,2.825,0,0,1,.978,1.245h.1l.585-1.5h1.107l-2.033,9.568h-1.159l.224-1.823h-.07a4.3,4.3,0,0,1-3.29,2,2.3,2.3,0,0,1-1.9-.863,3.694,3.694,0,0,1-.689-2.366,9.02,9.02,0,0,1,.619-3.369,5.825,5.825,0,0,1,1.711-2.437A3.715,3.715,0,0,1-384.371,1146.553Zm-1.658,8.705a2.459,2.459,0,0,0,1.685-.808,5.976,5.976,0,0,0,1.362-2.1,6.872,6.872,0,0,0,.523-2.6,2.036,2.036,0,0,0-.489-1.432,1.669,1.669,0,0,0-1.284-.531,2.412,2.412,0,0,0-1.69.751,5.083,5.083,0,0,0-1.225,2.033,8.232,8.232,0,0,0-.444,2.706,2.292,2.292,0,0,0,.41,1.489A1.416,1.416,0,0,0-386.029,1155.258Z" transform="translate(665.691 -1142.6)"/>
      <path id="Trazado_25830" data-name="Trazado 25830" d="M-381.631,1157.774H-383.1l2.9-13.584h1.468Z" transform="translate(669.439 -1144.078)"/>
      <path id="Trazado_25831" data-name="Trazado 25831" d="M-374.61,1156.055a4.745,4.745,0,0,0,1.258-.228v1.125a3.827,3.827,0,0,1-.735.209,3.732,3.732,0,0,1-.7.088,2.431,2.431,0,0,1-1.672-.518,1.98,1.98,0,0,1-.579-1.549,6.256,6.256,0,0,1,.156-1.31l1.108-5.255h-1.5l.124-.639,1.616-.681,1.091-1.991h.855l-.479,2.2h2.391l-.226,1.11h-2.384l-1.126,5.272a6.249,6.249,0,0,0-.156,1.152,1.033,1.033,0,0,0,.254.751A.94.94,0,0,0-374.61,1156.055Z" transform="translate(673.083 -1143.38)"/>
      <path id="Trazado_25832" data-name="Trazado 25832" d="M-370.223,1156.471a3.348,3.348,0,0,1-2.524-.951,3.653,3.653,0,0,1-.915-2.636,7.866,7.866,0,0,1,.65-3.147,5.813,5.813,0,0,1,1.724-2.345,3.755,3.755,0,0,1,2.366-.839,3,3,0,0,1,2.006.582,2.018,2.018,0,0,1,.673,1.619,2.77,2.77,0,0,1-1.448,2.467,7.942,7.942,0,0,1-4.148.894h-.288l-.034.7a2.7,2.7,0,0,0,.536,1.785,2.047,2.047,0,0,0,1.663.642,4.325,4.325,0,0,0,1.13-.156,8.716,8.716,0,0,0,1.447-.577v1.274a7.953,7.953,0,0,1-1.45.537A5.853,5.853,0,0,1-370.223,1156.471Zm1.212-8.668a2.331,2.331,0,0,0-1.689.821,5.36,5.36,0,0,0-1.209,2.277h.1a7.131,7.131,0,0,0,3.052-.518,1.632,1.632,0,0,0,1.061-1.507,1.02,1.02,0,0,0-.32-.767A1.406,1.406,0,0,0-369.01,1147.8Z" transform="translate(675.34 -1142.6)"/>
      <path id="Trazado_25833" data-name="Trazado 25833" d="M-363.514,1146.553a2.474,2.474,0,0,1,1.432.432,2.81,2.81,0,0,1,.977,1.245h.1l.584-1.5h1.11l-2.033,9.568h-1.162l.227-1.823h-.07a4.311,4.311,0,0,1-3.291,2,2.307,2.307,0,0,1-1.9-.863,3.7,3.7,0,0,1-.687-2.366,9.053,9.053,0,0,1,.618-3.369,5.854,5.854,0,0,1,1.711-2.437A3.727,3.727,0,0,1-363.514,1146.553Zm-1.661,8.705a2.456,2.456,0,0,0,1.685-.808,5.954,5.954,0,0,0,1.362-2.1,6.875,6.875,0,0,0,.525-2.6,2.036,2.036,0,0,0-.489-1.432,1.668,1.668,0,0,0-1.282-.531,2.406,2.406,0,0,0-1.69.751,5.068,5.068,0,0,0-1.227,2.033,8.234,8.234,0,0,0-.445,2.706,2.292,2.292,0,0,0,.41,1.489A1.423,1.423,0,0,0-365.175,1155.258Z" transform="translate(678.732 -1142.6)"/>
      <path id="Trazado_25834" data-name="Trazado 25834" d="M-359.4,1156.055a4.767,4.767,0,0,0,1.258-.228v1.125a3.862,3.862,0,0,1-.735.209,3.733,3.733,0,0,1-.7.088,2.431,2.431,0,0,1-1.672-.518,1.975,1.975,0,0,1-.58-1.549,6.267,6.267,0,0,1,.158-1.31l1.109-5.255h-1.5l.122-.639,1.616-.681,1.092-1.991h.853l-.479,2.2h2.394l-.229,1.11h-2.384l-1.125,5.272a6.28,6.28,0,0,0-.158,1.152,1.034,1.034,0,0,0,.255.751A.935.935,0,0,0-359.4,1156.055Z" transform="translate(682.591 -1143.38)"/>
      <path id="Trazado_25835" data-name="Trazado 25835" d="M-352.617,1146.553a3.972,3.972,0,0,1,1.047.124l-.314,1.308a3.874,3.874,0,0,0-.918-.112,2.415,2.415,0,0,0-1.485.523,4.586,4.586,0,0,0-1.216,1.453,7.423,7.423,0,0,0-.762,2.064l-.936,4.383h-1.463l2.041-9.568h1.212l-.19,1.773h.085a8.627,8.627,0,0,1,1.039-1.193,3.366,3.366,0,0,1,.86-.557A2.476,2.476,0,0,1-352.617,1146.553Z" transform="translate(684.718 -1142.6)"/>
      <path id="Trazado_25836" data-name="Trazado 25836" d="M-349.342,1146.586a3.494,3.494,0,0,1,2.618.981,3.693,3.693,0,0,1,.962,2.7,7.749,7.749,0,0,1-.629,3.1,5.351,5.351,0,0,1-1.7,2.251,3.985,3.985,0,0,1-2.427.795,3.488,3.488,0,0,1-2.628-.987,3.727,3.727,0,0,1-.952-2.7,7.713,7.713,0,0,1,.639-3.12,5.282,5.282,0,0,1,1.721-2.245A4,4,0,0,1-349.342,1146.586Zm2.061,3.483a2.383,2.383,0,0,0-.546-1.628,1.863,1.863,0,0,0-1.479-.623,2.549,2.549,0,0,0-1.708.645,4.167,4.167,0,0,0-1.169,1.794,7.466,7.466,0,0,0-.416,2.553,2.56,2.56,0,0,0,.556,1.767,2.014,2.014,0,0,0,1.593.624,2.4,2.4,0,0,0,1.632-.637,4.157,4.157,0,0,0,1.131-1.81A8.228,8.228,0,0,0-347.281,1150.069Z" transform="translate(687.572 -1142.579)"/>
      <path id="Trazado_25837" data-name="Trazado 25837" d="M-546.95,1169.5l1.292-6.041a7.858,7.858,0,0,0,.174-1.256,1.228,1.228,0,0,0-.311-.881,1.294,1.294,0,0,0-.991-.332,2.582,2.582,0,0,0-1.513.523,4.666,4.666,0,0,0-1.3,1.492,7.925,7.925,0,0,0-.852,2.349l-.881,4.146H-552.8l2.043-9.568h1.212l-.19,1.773h.086a5.784,5.784,0,0,1,1.619-1.507,3.272,3.272,0,0,1,1.62-.44,2.455,2.455,0,0,1,1.75.606,2.22,2.22,0,0,1,.64,1.7,7.18,7.18,0,0,1-.2,1.57l-1.248,5.868Z" transform="translate(563.326 -1134.346)"/>
      <path id="Trazado_25838" data-name="Trazado 25838" d="M-543.21,1161.449l-1.308,6.069a6.455,6.455,0,0,0-.158,1.212,1.119,1.119,0,0,0,1.282,1.248,2.6,2.6,0,0,0,1.512-.523,4.685,4.685,0,0,0,1.308-1.5,8.019,8.019,0,0,0,.865-2.357l.874-4.148h1.447l-2.015,9.568h-1.213l.19-1.772h-.1a5.78,5.78,0,0,1-1.632,1.52,3.32,3.32,0,0,1-1.607.426,2.442,2.442,0,0,1-1.755-.606,2.287,2.287,0,0,1-.635-1.733,8.31,8.31,0,0,1,.192-1.5l1.274-5.9Zm1.615-1.5q.49-.524,1.1-1.321c.4-.533.715-.969.93-1.305h1.658v.182a16.092,16.092,0,0,1-1.222,1.32,13.434,13.434,0,0,1-1.544,1.362h-.917Z" transform="translate(567.478 -1135.867)"/>
      <path id="Trazado_25839" data-name="Trazado 25839" d="M-534.542,1169.5l1.292-6.041a7.132,7.132,0,0,0,.159-1.178,1.506,1.506,0,0,0-.271-.953,1.12,1.12,0,0,0-.925-.338,2.347,2.347,0,0,0-1.429.523,4.547,4.547,0,0,0-1.222,1.5,8.715,8.715,0,0,0-.816,2.344l-.881,4.146H-540.1l2.043-9.568h1.212l-.19,1.773h.086a5.517,5.517,0,0,1,1.513-1.494,3,3,0,0,1,1.559-.453,1.984,1.984,0,0,1,1.521.567,2.606,2.606,0,0,1,.629,1.58h.07a5.592,5.592,0,0,1,1.6-1.619,3.2,3.2,0,0,1,1.711-.528,2.351,2.351,0,0,1,1.715.593,2.308,2.308,0,0,1,.608,1.728,8.246,8.246,0,0,1-.193,1.554l-1.256,5.868h-1.484l1.292-6.041a8.038,8.038,0,0,0,.174-1.274,1.229,1.229,0,0,0-.3-.868,1.233,1.233,0,0,0-.949-.327,2.346,2.346,0,0,0-1.4.506,4.433,4.433,0,0,0-1.209,1.435,7.814,7.814,0,0,0-.788,2.2l-.934,4.366Z" transform="translate(571.266 -1134.346)"/>
      <path id="Trazado_25840" data-name="Trazado 25840" d="M-526.859,1169.67a3.338,3.338,0,0,1-2.522-.951,3.642,3.642,0,0,1-.918-2.636,7.839,7.839,0,0,1,.652-3.146,5.851,5.851,0,0,1,1.723-2.345,3.767,3.767,0,0,1,2.366-.837,3,3,0,0,1,2.007.58,2.025,2.025,0,0,1,.675,1.619,2.769,2.769,0,0,1-1.451,2.467,7.933,7.933,0,0,1-4.146.9h-.289l-.034.7a2.71,2.71,0,0,0,.536,1.785,2.048,2.048,0,0,0,1.663.642,4.328,4.328,0,0,0,1.131-.156,8.7,8.7,0,0,0,1.445-.577v1.274a7.89,7.89,0,0,1-1.448.538A5.955,5.955,0,0,1-526.859,1169.67Zm1.212-8.668a2.332,2.332,0,0,0-1.689.821,5.364,5.364,0,0,0-1.209,2.277h.106a7.134,7.134,0,0,0,3.051-.518,1.628,1.628,0,0,0,1.06-1.507,1.024,1.024,0,0,0-.317-.767A1.408,1.408,0,0,0-525.647,1161Z" transform="translate(577.395 -1134.346)"/>
      <path id="Trazado_25841" data-name="Trazado 25841" d="M-519.035,1159.754a3.974,3.974,0,0,1,1.047.122l-.314,1.31a3.875,3.875,0,0,0-.917-.114,2.427,2.427,0,0,0-1.487.523,4.611,4.611,0,0,0-1.216,1.453,7.415,7.415,0,0,0-.762,2.066l-.935,4.382h-1.466l2.043-9.568h1.213l-.19,1.773h.085a8.361,8.361,0,0,1,1.04-1.191,3.308,3.308,0,0,1,.858-.559A2.478,2.478,0,0,1-519.035,1159.754Z" transform="translate(580.656 -1134.346)"/>
      <path id="Trazado_25842" data-name="Trazado 25842" d="M-515.76,1159.786a3.493,3.493,0,0,1,2.618.982,3.7,3.7,0,0,1,.959,2.7,7.773,7.773,0,0,1-.627,3.1,5.374,5.374,0,0,1-1.7,2.251,3.976,3.976,0,0,1-2.426.795,3.477,3.477,0,0,1-2.628-.986,3.727,3.727,0,0,1-.952-2.7,7.71,7.71,0,0,1,.639-3.121,5.3,5.3,0,0,1,1.719-2.245A4.012,4.012,0,0,1-515.76,1159.786Zm2.061,3.483a2.384,2.384,0,0,0-.546-1.627,1.869,1.869,0,0,0-1.479-.624,2.556,2.556,0,0,0-1.708.646,4.168,4.168,0,0,0-1.17,1.794,7.467,7.467,0,0,0-.414,2.553,2.567,2.567,0,0,0,.554,1.767,2.016,2.016,0,0,0,1.593.626,2.4,2.4,0,0,0,1.633-.639,4.171,4.171,0,0,0,1.131-1.81A8.221,8.221,0,0,0-513.7,1163.269Z" transform="translate(583.511 -1134.326)"/>
      <path id="Trazado_25843" data-name="Trazado 25843" d="M-508.871,1169.254a4.745,4.745,0,0,0,1.258-.228v1.126a4.108,4.108,0,0,1-.733.21,3.724,3.724,0,0,1-.7.086,2.424,2.424,0,0,1-1.671-.518,1.968,1.968,0,0,1-.582-1.549,6.267,6.267,0,0,1,.158-1.31l1.11-5.255h-1.5l.12-.639,1.616-.681,1.092-1.989h.853l-.479,2.2h2.392l-.228,1.11h-2.383l-1.126,5.273a6.247,6.247,0,0,0-.156,1.152,1.033,1.033,0,0,0,.253.751A.934.934,0,0,0-508.871,1169.254Z" transform="translate(589.13 -1135.125)"/>
      <path id="Trazado_25844" data-name="Trazado 25844" d="M-503.166,1159.786a3.491,3.491,0,0,1,2.618.982,3.7,3.7,0,0,1,.961,2.7,7.748,7.748,0,0,1-.629,3.1,5.373,5.373,0,0,1-1.7,2.251,3.978,3.978,0,0,1-2.428.795,3.476,3.476,0,0,1-2.627-.986,3.726,3.726,0,0,1-.951-2.7,7.738,7.738,0,0,1,.637-3.121,5.309,5.309,0,0,1,1.718-2.245A4.024,4.024,0,0,1-503.166,1159.786Zm2.059,3.483a2.383,2.383,0,0,0-.544-1.627,1.865,1.865,0,0,0-1.481-.624,2.551,2.551,0,0,0-1.7.646,4.155,4.155,0,0,0-1.172,1.794,7.467,7.467,0,0,0-.413,2.553,2.575,2.575,0,0,0,.553,1.767,2.016,2.016,0,0,0,1.593.626,2.406,2.406,0,0,0,1.633-.639,4.171,4.171,0,0,0,1.131-1.81A8.224,8.224,0,0,0-501.107,1163.269Z" transform="translate(591.387 -1134.326)"/>
      <path id="Trazado_25845" data-name="Trazado 25845" d="M-499.133,1169.254a4.713,4.713,0,0,0,1.256-.228v1.126a3.992,3.992,0,0,1-.733.21,3.711,3.711,0,0,1-.7.086,2.427,2.427,0,0,1-1.671-.518,1.978,1.978,0,0,1-.579-1.549,6.349,6.349,0,0,1,.154-1.31l1.11-5.255h-1.5l.122-.639,1.615-.681,1.091-1.989h.856l-.479,2.2h2.389l-.224,1.11h-2.384l-1.126,5.273a6.107,6.107,0,0,0-.156,1.152,1.039,1.039,0,0,0,.252.751A.943.943,0,0,0-499.133,1169.254Z" transform="translate(595.219 -1135.125)"/>
      <path id="Trazado_25846" data-name="Trazado 25846" d="M-493.463,1159.754a2.479,2.479,0,0,1,1.432.431,2.824,2.824,0,0,1,.977,1.245h.1l.585-1.5h1.108l-2.035,9.568h-1.16l.226-1.824h-.07a4.305,4.305,0,0,1-3.291,2,2.3,2.3,0,0,1-1.9-.863,3.692,3.692,0,0,1-.691-2.366,8.987,8.987,0,0,1,.621-3.369,5.806,5.806,0,0,1,1.711-2.435A3.705,3.705,0,0,1-493.463,1159.754Zm-1.658,8.7a2.46,2.46,0,0,0,1.684-.808,5.981,5.981,0,0,0,1.362-2.1,6.865,6.865,0,0,0,.523-2.6,2.037,2.037,0,0,0-.488-1.432,1.664,1.664,0,0,0-1.284-.531,2.4,2.4,0,0,0-1.689.749,5.028,5.028,0,0,0-1.225,2.033,8.149,8.149,0,0,0-.447,2.706,2.279,2.279,0,0,0,.411,1.489A1.411,1.411,0,0,0-495.121,1168.457Z" transform="translate(597.476 -1134.346)"/>
      <path id="Trazado_25847" data-name="Trazado 25847" d="M-490.725,1170.974h-1.466l2.9-13.584h1.466Z" transform="translate(601.224 -1135.824)"/>
      <path id="Trazado_25848" data-name="Trazado 25848" d="M-481.6,1161.249a2.551,2.551,0,0,1,2.454,1.659h.085a20.634,20.634,0,0,1,.395-2.393l.681-3.125h1.448l-2.88,13.584h-1.214l.193-1.824h-.07a6.6,6.6,0,0,1-1.651,1.544,3.077,3.077,0,0,1-1.588.453,2.283,2.283,0,0,1-1.893-.855,3.713,3.713,0,0,1-.683-2.375,9.082,9.082,0,0,1,.627-3.423,5.723,5.723,0,0,1,1.7-2.4A3.762,3.762,0,0,1-481.6,1161.249Zm-1.659,8.687a2.538,2.538,0,0,0,1.694-.818,5.71,5.71,0,0,0,1.385-2.085,6.9,6.9,0,0,0,.51-2.589,2.082,2.082,0,0,0-.473-1.474,1.775,1.775,0,0,0-1.368-.506,2.33,2.33,0,0,0-1.637.719,5.032,5.032,0,0,0-1.212,2.025,8.155,8.155,0,0,0-.462,2.745Q-484.821,1169.937-483.257,1169.936Z" transform="translate(604.895 -1135.824)"/>
      <path id="Trazado_25849" data-name="Trazado 25849" d="M-476.535,1169.67a3.337,3.337,0,0,1-2.521-.951,3.642,3.642,0,0,1-.917-2.636,7.812,7.812,0,0,1,.652-3.146,5.791,5.791,0,0,1,1.723-2.345,3.762,3.762,0,0,1,2.365-.837,3.009,3.009,0,0,1,2.009.58,2.023,2.023,0,0,1,.671,1.619A2.768,2.768,0,0,1-474,1164.42a7.944,7.944,0,0,1-4.148.9h-.286l-.036.7a2.692,2.692,0,0,0,.536,1.785,2.044,2.044,0,0,0,1.664.642,4.345,4.345,0,0,0,1.13-.156,8.761,8.761,0,0,0,1.445-.577v1.274a7.9,7.9,0,0,1-1.45.538A5.949,5.949,0,0,1-476.535,1169.67Zm1.216-8.668a2.332,2.332,0,0,0-1.69.821,5.364,5.364,0,0,0-1.209,2.277h.106a7.142,7.142,0,0,0,3.052-.518,1.633,1.633,0,0,0,1.06-1.507,1.021,1.021,0,0,0-.32-.767A1.4,1.4,0,0,0-475.319,1161Z" transform="translate(608.865 -1134.346)"/>
      <path id="Trazado_25850" data-name="Trazado 25850" d="M-470.444,1170.974h-1.466l2.9-13.584h1.466Z" transform="translate(613.906 -1135.824)"/>
      <path id="Trazado_25851" data-name="Trazado 25851" d="M-464.173,1159.754a2.479,2.479,0,0,1,1.432.431,2.811,2.811,0,0,1,.977,1.245h.1l.585-1.5h1.11l-2.035,9.568h-1.162l.229-1.824h-.07a4.313,4.313,0,0,1-3.293,2,2.3,2.3,0,0,1-1.9-.863,3.7,3.7,0,0,1-.691-2.366,8.987,8.987,0,0,1,.621-3.369,5.822,5.822,0,0,1,1.711-2.435A3.716,3.716,0,0,1-464.173,1159.754Zm-1.659,8.7a2.456,2.456,0,0,0,1.684-.808,5.98,5.98,0,0,0,1.362-2.1,6.866,6.866,0,0,0,.523-2.6,2.03,2.03,0,0,0-.488-1.432,1.658,1.658,0,0,0-1.282-.531,2.4,2.4,0,0,0-1.689.749,5.047,5.047,0,0,0-1.227,2.033,8.192,8.192,0,0,0-.447,2.706,2.279,2.279,0,0,0,.411,1.489A1.415,1.415,0,0,0-465.833,1168.457Z" transform="translate(615.789 -1134.346)"/>
      <path id="Trazado_25852" data-name="Trazado 25852" d="M-454.474,1169.5l1.292-6.041a7.214,7.214,0,0,0,.156-1.178,1.5,1.5,0,0,0-.27-.953,1.122,1.122,0,0,0-.926-.338,2.343,2.343,0,0,0-1.427.523,4.565,4.565,0,0,0-1.222,1.5,8.66,8.66,0,0,0-.816,2.344l-.881,4.146h-1.466l2.041-9.568h1.214l-.192,1.773h.086a5.477,5.477,0,0,1,1.515-1.494,2.989,2.989,0,0,1,1.559-.453,1.977,1.977,0,0,1,1.518.567,2.587,2.587,0,0,1,.629,1.58h.07a5.656,5.656,0,0,1,1.6-1.619,3.2,3.2,0,0,1,1.71-.528,2.354,2.354,0,0,1,1.716.593,2.314,2.314,0,0,1,.608,1.728,8.252,8.252,0,0,1-.193,1.554l-1.258,5.868H-448.9l1.292-6.041a8.086,8.086,0,0,0,.175-1.274,1.232,1.232,0,0,0-.3-.868,1.227,1.227,0,0,0-.948-.327,2.334,2.334,0,0,0-1.4.506,4.394,4.394,0,0,0-1.209,1.435,7.868,7.868,0,0,0-.79,2.2l-.935,4.366Z" transform="translate(621.332 -1134.346)"/>
      <path id="Trazado_25853" data-name="Trazado 25853" d="M-447.2,1159.861l-1.308,6.069a6.6,6.6,0,0,0-.158,1.212,1.119,1.119,0,0,0,1.284,1.248,2.583,2.583,0,0,0,1.508-.523,4.674,4.674,0,0,0,1.312-1.5,8.062,8.062,0,0,0,.863-2.357l.873-4.148h1.45l-2.017,9.568h-1.212l.192-1.772h-.106a5.736,5.736,0,0,1-1.632,1.52,3.315,3.315,0,0,1-1.607.426,2.438,2.438,0,0,1-1.754-.606,2.28,2.28,0,0,1-.635-1.733,8.284,8.284,0,0,1,.19-1.5l1.276-5.9Z" transform="translate(627.512 -1134.279)"/>
      <path id="Trazado_25854" data-name="Trazado 25854" d="M-440.445,1169.67a3.332,3.332,0,0,1-2.521-.951,3.635,3.635,0,0,1-.918-2.636,7.811,7.811,0,0,1,.652-3.146,5.821,5.821,0,0,1,1.723-2.345,3.762,3.762,0,0,1,2.365-.837,3,3,0,0,1,2.009.58,2.024,2.024,0,0,1,.673,1.619,2.77,2.77,0,0,1-1.45,2.467,7.937,7.937,0,0,1-4.146.9h-.289l-.034.7a2.7,2.7,0,0,0,.536,1.785,2.046,2.046,0,0,0,1.663.642,4.337,4.337,0,0,0,1.131-.156,8.638,8.638,0,0,0,1.443-.577v1.274a7.835,7.835,0,0,1-1.447.538A5.959,5.959,0,0,1-440.445,1169.67Zm1.214-8.668a2.335,2.335,0,0,0-1.69.821,5.379,5.379,0,0,0-1.208,2.277h.106a7.135,7.135,0,0,0,3.051-.518,1.631,1.631,0,0,0,1.06-1.507,1.019,1.019,0,0,0-.319-.767A1.4,1.4,0,0,0-439.231,1161Z" transform="translate(631.43 -1134.346)"/>
      <path id="Trazado_25855" data-name="Trazado 25855" d="M-432.6,1166.782a2.558,2.558,0,0,1-.964,2.126,4.287,4.287,0,0,1-2.719.762,5.794,5.794,0,0,1-2.662-.6v-1.378a5.434,5.434,0,0,0,1.317.566,4.794,4.794,0,0,0,1.312.2,2.66,2.66,0,0,0,1.656-.436,1.358,1.358,0,0,0,.559-1.118,1.214,1.214,0,0,0-.3-.839,6.236,6.236,0,0,0-1.318-.934,5.274,5.274,0,0,1-1.606-1.246,2.3,2.3,0,0,1-.473-1.45,2.409,2.409,0,0,1,.883-1.942,3.494,3.494,0,0,1,2.321-.738,6.777,6.777,0,0,1,2.882.645l-.471,1.2-.489-.218A4.85,4.85,0,0,0-434.6,1161a1.941,1.941,0,0,0-1.274.38,1.214,1.214,0,0,0-.463.982,1.226,1.226,0,0,0,.31.839,5.474,5.474,0,0,0,1.281.9,7.528,7.528,0,0,1,1.339.9,2.617,2.617,0,0,1,.606.806A2.3,2.3,0,0,1-432.6,1166.782Z" transform="translate(634.521 -1134.346)"/>
      <path id="Trazado_25856" data-name="Trazado 25856" d="M-431.128,1169.254a4.713,4.713,0,0,0,1.256-.228v1.126a3.99,3.99,0,0,1-.733.21,3.724,3.724,0,0,1-.7.086,2.431,2.431,0,0,1-1.672-.518,1.978,1.978,0,0,1-.58-1.549,6.377,6.377,0,0,1,.158-1.31l1.108-5.255h-1.5l.124-.639,1.614-.681,1.091-1.989h.858l-.481,2.2h2.391l-.226,1.11H-430.8l-1.128,5.273a6.254,6.254,0,0,0-.156,1.152,1.046,1.046,0,0,0,.252.751A.947.947,0,0,0-431.128,1169.254Z" transform="translate(637.741 -1135.125)"/>
      <path id="Trazado_25857" data-name="Trazado 25857" d="M-424.341,1159.754a4.031,4.031,0,0,1,1.048.122l-.315,1.31a3.9,3.9,0,0,0-.917-.114,2.435,2.435,0,0,0-1.489.523,4.562,4.562,0,0,0-1.212,1.453,7.418,7.418,0,0,0-.766,2.066l-.933,4.382h-1.468l2.043-9.568h1.214l-.193,1.773h.089a8.494,8.494,0,0,1,1.037-1.191,3.242,3.242,0,0,1,.861-.559A2.442,2.442,0,0,1-424.341,1159.754Z" transform="translate(639.867 -1134.346)"/>
      <path id="Trazado_25858" data-name="Trazado 25858" d="M-421.1,1159.754a2.479,2.479,0,0,1,1.432.431,2.8,2.8,0,0,1,.977,1.245h.1l.585-1.5h1.108l-2.035,9.568h-1.16l.228-1.824h-.07a4.311,4.311,0,0,1-3.293,2,2.3,2.3,0,0,1-1.9-.863,3.682,3.682,0,0,1-.691-2.366,8.987,8.987,0,0,1,.621-3.369,5.789,5.789,0,0,1,1.71-2.435A3.711,3.711,0,0,1-421.1,1159.754Zm-1.658,8.7a2.463,2.463,0,0,0,1.685-.808,6,6,0,0,0,1.362-2.1,6.9,6.9,0,0,0,.523-2.6,2.038,2.038,0,0,0-.489-1.432,1.662,1.662,0,0,0-1.284-.531,2.4,2.4,0,0,0-1.689.749,5.062,5.062,0,0,0-1.225,2.033,8.147,8.147,0,0,0-.445,2.706,2.279,2.279,0,0,0,.411,1.489A1.408,1.408,0,0,0-422.762,1168.457Z" transform="translate(642.722 -1134.346)"/>
      <path id="Trazado_25859" data-name="Trazado 25859" d="M-410.892,1166.782a2.555,2.555,0,0,1-.965,2.126,4.285,4.285,0,0,1-2.719.762,5.792,5.792,0,0,1-2.661-.6v-1.378a5.406,5.406,0,0,0,1.317.566,4.784,4.784,0,0,0,1.31.2,2.665,2.665,0,0,0,1.658-.436,1.362,1.362,0,0,0,.559-1.118,1.214,1.214,0,0,0-.3-.839,6.3,6.3,0,0,0-1.32-.934,5.274,5.274,0,0,1-1.606-1.246,2.3,2.3,0,0,1-.471-1.45,2.4,2.4,0,0,1,.883-1.942,3.492,3.492,0,0,1,2.319-.738,6.779,6.779,0,0,1,2.883.645l-.473,1.2-.489-.218a4.844,4.844,0,0,0-1.921-.376,1.939,1.939,0,0,0-1.273.38,1.209,1.209,0,0,0-.463.982,1.226,1.226,0,0,0,.31.839,5.491,5.491,0,0,0,1.279.9,7.553,7.553,0,0,1,1.341.9,2.643,2.643,0,0,1,.606.806A2.3,2.3,0,0,1-410.892,1166.782Z" transform="translate(648.093 -1134.346)"/>
      <path id="Trazado_25860" data-name="Trazado 25860" d="M-408.6,1169.67a3.336,3.336,0,0,1-2.522-.951,3.635,3.635,0,0,1-.917-2.636,7.838,7.838,0,0,1,.65-3.146,5.825,5.825,0,0,1,1.724-2.345,3.762,3.762,0,0,1,2.365-.837,3,3,0,0,1,2.009.58,2.023,2.023,0,0,1,.671,1.619,2.768,2.768,0,0,1-1.448,2.467,7.941,7.941,0,0,1-4.146.9h-.289l-.034.7a2.7,2.7,0,0,0,.536,1.785,2.043,2.043,0,0,0,1.663.642,4.347,4.347,0,0,0,1.131-.156,8.639,8.639,0,0,0,1.443-.577v1.274a7.922,7.922,0,0,1-1.446.538A5.96,5.96,0,0,1-408.6,1169.67Zm1.214-8.668a2.332,2.332,0,0,0-1.69.821,5.38,5.38,0,0,0-1.208,2.277h.106a7.121,7.121,0,0,0,3.049-.518,1.63,1.63,0,0,0,1.061-1.507,1.025,1.025,0,0,0-.319-.767A1.4,1.4,0,0,0-407.391,1161Z" transform="translate(651.34 -1134.346)"/>
      <path id="Trazado_25861" data-name="Trazado 25861" d="M-405.373,1170.974h-1.466l2.9-13.584h1.468Z" transform="translate(654.595 -1135.824)"/>
      <path id="Trazado_25862" data-name="Trazado 25862" d="M-400.387,1169.67a3.347,3.347,0,0,1-2.524-.951,3.648,3.648,0,0,1-.915-2.636,7.864,7.864,0,0,1,.65-3.146,5.824,5.824,0,0,1,1.724-2.345,3.76,3.76,0,0,1,2.366-.837,3,3,0,0,1,2.006.58,2.024,2.024,0,0,1,.673,1.619,2.768,2.768,0,0,1-1.448,2.467,7.943,7.943,0,0,1-4.148.9h-.288l-.034.7a2.7,2.7,0,0,0,.536,1.785,2.041,2.041,0,0,0,1.663.642,4.317,4.317,0,0,0,1.13-.156,8.711,8.711,0,0,0,1.447-.577v1.274a7.953,7.953,0,0,1-1.451.538A5.931,5.931,0,0,1-400.387,1169.67Zm1.212-8.668a2.332,2.332,0,0,0-1.689.821,5.363,5.363,0,0,0-1.209,2.277h.1a7.133,7.133,0,0,0,3.052-.518,1.63,1.63,0,0,0,1.061-1.507,1.021,1.021,0,0,0-.32-.767A1.406,1.406,0,0,0-399.174,1161Z" transform="translate(656.479 -1134.346)"/>
      <path id="Trazado_25863" data-name="Trazado 25863" d="M-394.84,1169.67a3.556,3.556,0,0,1-2.628-.933,3.568,3.568,0,0,1-.933-2.636,7.936,7.936,0,0,1,.645-3.221,5.448,5.448,0,0,1,1.786-2.3,4.248,4.248,0,0,1,2.561-.826,6.381,6.381,0,0,1,2.339.445l-.41,1.231a4.92,4.92,0,0,0-1.911-.444,2.735,2.735,0,0,0-1.786.667,4.382,4.382,0,0,0-1.265,1.859,7.115,7.115,0,0,0-.46,2.589,2.441,2.441,0,0,0,.582,1.736,2.081,2.081,0,0,0,1.6.621,3.994,3.994,0,0,0,1.188-.174q.558-.178,1.1-.411v1.248A5.221,5.221,0,0,1-394.84,1169.67Z" transform="translate(659.871 -1134.346)"/>
      <path id="Trazado_25864" data-name="Trazado 25864" d="M-389.888,1169.67a3.553,3.553,0,0,1-2.627-.933,3.562,3.562,0,0,1-.935-2.636,7.936,7.936,0,0,1,.645-3.221,5.461,5.461,0,0,1,1.786-2.3,4.255,4.255,0,0,1,2.561-.826,6.382,6.382,0,0,1,2.339.445l-.411,1.231a4.912,4.912,0,0,0-1.91-.444,2.735,2.735,0,0,0-1.786.667,4.382,4.382,0,0,0-1.265,1.859,7.114,7.114,0,0,0-.458,2.589,2.44,2.44,0,0,0,.58,1.736,2.079,2.079,0,0,0,1.6.621,3.987,3.987,0,0,0,1.188-.174c.371-.119.74-.255,1.1-.411v1.248A5.242,5.242,0,0,1-389.888,1169.67Z" transform="translate(662.967 -1134.346)"/>
      <path id="Trazado_25865" data-name="Trazado 25865" d="M-387.24,1170.8h-1.466l2.041-9.568h1.466Zm.986-12.013a1.144,1.144,0,0,1,.28-.8.926.926,0,0,1,.725-.309.687.687,0,0,1,.767.785,1.184,1.184,0,0,1-.293.811.876.876,0,0,1-.676.332.808.808,0,0,1-.577-.214A.791.791,0,0,1-386.253,1158.783Z" transform="translate(665.933 -1135.645)"/>
      <path id="Trazado_25866" data-name="Trazado 25866" d="M-380.945,1159.786a3.5,3.5,0,0,1,2.618.982,3.705,3.705,0,0,1,.959,2.7,7.747,7.747,0,0,1-.629,3.1,5.36,5.36,0,0,1-1.7,2.251,3.97,3.97,0,0,1-2.427.795,3.47,3.47,0,0,1-2.626-.986,3.72,3.72,0,0,1-.952-2.7,7.738,7.738,0,0,1,.637-3.121,5.312,5.312,0,0,1,1.72-2.245A4.017,4.017,0,0,1-380.945,1159.786Zm2.059,3.483a2.376,2.376,0,0,0-.546-1.627,1.864,1.864,0,0,0-1.479-.624,2.56,2.56,0,0,0-1.708.646,4.165,4.165,0,0,0-1.169,1.794,7.465,7.465,0,0,0-.414,2.553,2.575,2.575,0,0,0,.553,1.767,2.017,2.017,0,0,0,1.594.626,2.409,2.409,0,0,0,1.633-.639,4.17,4.17,0,0,0,1.13-1.81A8.222,8.222,0,0,0-378.886,1163.269Z" transform="translate(667.81 -1134.326)"/>
      <path id="Trazado_25867" data-name="Trazado 25867" d="M-373.894,1169.5l1.292-6.041a7.719,7.719,0,0,0,.176-1.256,1.229,1.229,0,0,0-.312-.881,1.293,1.293,0,0,0-.99-.332,2.59,2.59,0,0,0-1.515.523,4.681,4.681,0,0,0-1.3,1.492,7.884,7.884,0,0,0-.852,2.349l-.881,4.146h-1.466l2.043-9.568h1.212l-.192,1.773h.086a5.829,5.829,0,0,1,1.619-1.507,3.281,3.281,0,0,1,1.62-.44,2.459,2.459,0,0,1,1.752.606,2.225,2.225,0,0,1,.64,1.7,7.175,7.175,0,0,1-.2,1.57l-1.25,5.868Z" transform="translate(671.538 -1134.346)"/>
      <path id="Trazado_25868" data-name="Trazado 25868" d="M-368.46,1159.754a2.47,2.47,0,0,1,1.43.431,2.816,2.816,0,0,1,.979,1.245h.1l.585-1.5h1.11l-2.035,9.568h-1.162l.228-1.824h-.07a4.308,4.308,0,0,1-3.291,2,2.3,2.3,0,0,1-1.9-.863,3.7,3.7,0,0,1-.691-2.366,8.987,8.987,0,0,1,.621-3.369,5.821,5.821,0,0,1,1.711-2.435A3.712,3.712,0,0,1-368.46,1159.754Zm-1.659,8.7a2.46,2.46,0,0,0,1.684-.808,5.983,5.983,0,0,0,1.362-2.1,6.866,6.866,0,0,0,.523-2.6,2.029,2.029,0,0,0-.488-1.432,1.66,1.66,0,0,0-1.282-.531,2.4,2.4,0,0,0-1.69.749,5.063,5.063,0,0,0-1.225,2.033,8.191,8.191,0,0,0-.447,2.706,2.279,2.279,0,0,0,.411,1.489A1.415,1.415,0,0,0-370.12,1168.457Z" transform="translate(675.638 -1134.346)"/>
      <path id="Trazado_25869" data-name="Trazado 25869" d="M-362.247,1161.249a2.546,2.546,0,0,1,2.453,1.659h.088a19.961,19.961,0,0,1,.393-2.393l.679-3.125h1.451l-2.883,13.584h-1.212l.192-1.824h-.07a6.6,6.6,0,0,1-1.648,1.544,3.1,3.1,0,0,1-1.591.453,2.284,2.284,0,0,1-1.894-.855,3.723,3.723,0,0,1-.681-2.375,9.049,9.049,0,0,1,.629-3.423,5.7,5.7,0,0,1,1.7-2.4A3.755,3.755,0,0,1-362.247,1161.249Zm-1.659,8.687a2.545,2.545,0,0,0,1.7-.818,5.727,5.727,0,0,0,1.383-2.085,6.9,6.9,0,0,0,.51-2.589,2.089,2.089,0,0,0-.471-1.474,1.781,1.781,0,0,0-1.372-.506,2.338,2.338,0,0,0-1.637.719,5.086,5.086,0,0,0-1.212,2.025,8.234,8.234,0,0,0-.458,2.745Q-365.468,1169.937-363.906,1169.936Z" transform="translate(679.525 -1135.824)"/>
      <path id="Trazado_25870" data-name="Trazado 25870" d="M-355.9,1159.754a2.479,2.479,0,0,1,1.432.431,2.815,2.815,0,0,1,.978,1.245h.1l.584-1.5h1.108l-2.035,9.568h-1.159l.226-1.824h-.07a4.308,4.308,0,0,1-3.291,2,2.3,2.3,0,0,1-1.9-.863,3.682,3.682,0,0,1-.691-2.366,8.988,8.988,0,0,1,.621-3.369,5.8,5.8,0,0,1,1.71-2.435A3.711,3.711,0,0,1-355.9,1159.754Zm-1.656,8.7a2.463,2.463,0,0,0,1.685-.808,6,6,0,0,0,1.362-2.1,6.9,6.9,0,0,0,.523-2.6,2.045,2.045,0,0,0-.489-1.432,1.668,1.668,0,0,0-1.286-.531,2.4,2.4,0,0,0-1.689.749,5.063,5.063,0,0,0-1.225,2.033,8.148,8.148,0,0,0-.445,2.706,2.279,2.279,0,0,0,.411,1.489A1.411,1.411,0,0,0-357.556,1168.457Z" transform="translate(683.495 -1134.346)"/>
    </g>
    <path id="Trazado_25871" data-name="Trazado 25871" d="M-296.52,1155.871v1.152h46.071v-1.152H-296.52" transform="translate(1075.087 -99.668)" fill-rule="evenodd"/>
    <g id="Grupo_14701" data-name="Grupo 14701" transform="translate(788.313 1037.838)">
      <path id="Trazado_25872" data-name="Trazado 25872" d="M-286.474,1157.458h-1.5l1.711-7.97q.514-2.277.769-3.134a6.77,6.77,0,0,1-1.214.969l-1.554.96-.7-1.11,3.92-2.479h1.3Z" transform="translate(291.501 -1144.495)"/>
      <path id="Trazado_25873" data-name="Trazado 25873" d="M-275.4,1148.682a15.315,15.315,0,0,1-.686,4.707,7.384,7.384,0,0,1-1.867,3.224,3.921,3.921,0,0,1-2.747,1.1,2.75,2.75,0,0,1-2.357-1.114,5.387,5.387,0,0,1-.821-3.225,14.105,14.105,0,0,1,.715-4.492,7.591,7.591,0,0,1,1.892-3.221,3.842,3.842,0,0,1,2.683-1.086Q-275.4,1144.572-275.4,1148.682Zm-3.275-2.854a2.382,2.382,0,0,0-1.824,1.009,7.713,7.713,0,0,0-1.357,2.818,13.3,13.3,0,0,0-.52,3.7,4.938,4.938,0,0,0,.436,2.3,1.487,1.487,0,0,0,1.408.8,2.354,2.354,0,0,0,1.824-.994,7.492,7.492,0,0,0,1.313-2.864,15.452,15.452,0,0,0,.494-3.954Q-276.905,1145.83-278.678,1145.828Z" transform="translate(294.678 -1144.572)"/>
      <path id="Trazado_25874" data-name="Trazado 25874" d="M-269.346,1148.682a15.315,15.315,0,0,1-.684,4.707,7.385,7.385,0,0,1-1.869,3.224,3.917,3.917,0,0,1-2.745,1.1A2.748,2.748,0,0,1-277,1156.6a5.387,5.387,0,0,1-.821-3.225,14.06,14.06,0,0,1,.715-4.492,7.606,7.606,0,0,1,1.89-3.221,3.845,3.845,0,0,1,2.685-1.086Q-269.345,1144.572-269.346,1148.682Zm-3.273-2.854a2.382,2.382,0,0,0-1.824,1.009,7.714,7.714,0,0,0-1.357,2.818,13.3,13.3,0,0,0-.522,3.7,4.916,4.916,0,0,0,.437,2.3,1.486,1.486,0,0,0,1.406.8,2.354,2.354,0,0,0,1.824-.994,7.491,7.491,0,0,0,1.315-2.864,15.449,15.449,0,0,0,.494-3.954Q-270.846,1145.83-272.619,1145.828Z" transform="translate(298.467 -1144.572)"/>
      <path id="Trazado_25875" data-name="Trazado 25875" d="M-282.677,1170.729h-7.847l.27-1.283,4.06-3.667c.593-.541,1.105-1.017,1.541-1.429a10.51,10.51,0,0,0,1.073-1.16,4.228,4.228,0,0,0,.629-1.082,3.327,3.327,0,0,0,.2-1.191,1.813,1.813,0,0,0-.525-1.37,1.955,1.955,0,0,0-1.422-.507,3.6,3.6,0,0,0-1.313.249,6,6,0,0,0-1.419.842l-.717-1a5.634,5.634,0,0,1,3.607-1.344,3.6,3.6,0,0,1,2.431.772,2.665,2.665,0,0,1,.894,2.126,4.492,4.492,0,0,1-.345,1.781,6.621,6.621,0,0,1-1.143,1.719,29.383,29.383,0,0,1-2.571,2.453l-3.073,2.68v.07h5.919Z" transform="translate(290.524 -1136.311)"/>
      <path id="Trazado_25876" data-name="Trazado 25876" d="M-275.4,1161.884a15.31,15.31,0,0,1-.686,4.705,7.386,7.386,0,0,1-1.867,3.225,3.915,3.915,0,0,1-2.747,1.1,2.753,2.753,0,0,1-2.357-1.112,5.389,5.389,0,0,1-.821-3.226,14.1,14.1,0,0,1,.715-4.491,7.608,7.608,0,0,1,1.892-3.223,3.842,3.842,0,0,1,2.683-1.086Q-275.4,1157.772-275.4,1161.884Zm-3.275-2.854a2.378,2.378,0,0,0-1.824,1.008,7.707,7.707,0,0,0-1.357,2.818,13.3,13.3,0,0,0-.52,3.7,4.947,4.947,0,0,0,.436,2.3,1.487,1.487,0,0,0,1.408.8,2.351,2.351,0,0,0,1.824-1,7.493,7.493,0,0,0,1.313-2.862,15.464,15.464,0,0,0,.494-3.956Q-276.905,1159.03-278.678,1159.03Z" transform="translate(294.678 -1136.318)"/>
      <path id="Trazado_25877" data-name="Trazado 25877" d="M-269.346,1161.884a15.311,15.311,0,0,1-.684,4.705,7.387,7.387,0,0,1-1.869,3.225,3.911,3.911,0,0,1-2.745,1.1A2.751,2.751,0,0,1-277,1169.8a5.389,5.389,0,0,1-.821-3.226,14.056,14.056,0,0,1,.715-4.491,7.623,7.623,0,0,1,1.89-3.223,3.846,3.846,0,0,1,2.685-1.086Q-269.345,1157.772-269.346,1161.884Zm-3.273-2.854a2.379,2.379,0,0,0-1.824,1.008,7.708,7.708,0,0,0-1.357,2.818,13.3,13.3,0,0,0-.522,3.7,4.925,4.925,0,0,0,.437,2.3,1.486,1.486,0,0,0,1.406.8,2.351,2.351,0,0,0,1.824-1,7.492,7.492,0,0,0,1.315-2.862,15.462,15.462,0,0,0,.494-3.956Q-270.846,1159.03-272.619,1159.03Z" transform="translate(298.467 -1136.318)"/>
    </g>
    <g id="Grupo_14702" data-name="Grupo 14702" transform="translate(289.049 1048.58)">
      <path id="Trazado_25878" data-name="Trazado 25878" d="M-588.089,1155.524a4.26,4.26,0,0,1-1.4,3.439,6.014,6.014,0,0,1-4,1.19h-1.268v4.952h-2.952v-13.924h4.447a5.917,5.917,0,0,1,3.852,1.091A3.979,3.979,0,0,1-588.089,1155.524Zm-6.667,2.211h.972a3.24,3.24,0,0,0,2.038-.538,1.886,1.886,0,0,0,.676-1.567,1.932,1.932,0,0,0-.567-1.534,2.653,2.653,0,0,0-1.776-.494h-1.342Z" transform="translate(597.707 -1151.181)"/>
      <path id="Trazado_25879" data-name="Trazado 25879" d="M-590.77,1159.763a14.8,14.8,0,0,1,.738-4.725,11.766,11.766,0,0,1,2.129-3.857h2.381a13.685,13.685,0,0,0-2.028,4.039,15.12,15.12,0,0,0-.686,4.523,14.632,14.632,0,0,0,.7,4.509,13.642,13.642,0,0,0,1.994,3.938H-587.9a11.2,11.2,0,0,1-2.132-3.78A14.366,14.366,0,0,1-590.77,1159.763Z" transform="translate(602.045 -1151.181)"/>
      <path id="Trazado_25880" data-name="Trazado 25880" d="M-586.106,1151.181h4.333a8.35,8.35,0,0,1,4.3.843,2.932,2.932,0,0,1,1.338,2.68,3.381,3.381,0,0,1-.585,2.048,2.34,2.34,0,0,1-1.557.962v.1a3.072,3.072,0,0,1,1.91,1.1,3.6,3.6,0,0,1,.585,2.152,3.547,3.547,0,0,1-1.377,2.973,5.954,5.954,0,0,1-3.737,1.066h-5.211Zm2.953,5.515h1.715a3.122,3.122,0,0,0,1.737-.372,1.381,1.381,0,0,0,.538-1.227,1.228,1.228,0,0,0-.585-1.147,3.761,3.761,0,0,0-1.853-.348h-1.552Zm0,2.342v3.629h1.923a2.862,2.862,0,0,0,1.8-.466,1.727,1.727,0,0,0,.58-1.429q0-1.733-2.475-1.734Z" transform="translate(604.961 -1151.181)"/>
      <path id="Trazado_25881" data-name="Trazado 25881" d="M-573.516,1159.763a14.387,14.387,0,0,1-.738,4.666,11.169,11.169,0,0,1-2.129,3.761h-2.362a13.735,13.735,0,0,0,1.991-3.928,14.567,14.567,0,0,0,.7-4.518,15.075,15.075,0,0,0-.686-4.523,13.687,13.687,0,0,0-2.028-4.039h2.381a11.709,11.709,0,0,1,2.134,3.871A14.866,14.866,0,0,1-573.516,1159.763Z" transform="translate(609.552 -1151.181)"/>
      <path id="Trazado_25882" data-name="Trazado 25882" d="M-571.422,1155.833v-2.085h9.456v2.085Zm0,3.686v-2.087h9.456v2.087Z" transform="translate(614.143 -1149.576)"/>
    </g>
    <g id="Grupo_14703" data-name="Grupo 14703" transform="translate(708.335 1048.522)">
      <path id="Trazado_25883" data-name="Trazado 25883" d="M-336.1,1161.654l.143.219a29.562,29.562,0,0,1-1.676,4.562h-2.1q.619-2.533.962-4.782Zm-3.114-6.961a1.6,1.6,0,0,1,.429-1.209,1.732,1.732,0,0,1,1.247-.41,1.689,1.689,0,0,1,1.224.419,1.591,1.591,0,0,1,.434,1.2,1.57,1.57,0,0,1-.444,1.195,1.68,1.68,0,0,1-1.214.424,1.722,1.722,0,0,1-1.238-.419A1.584,1.584,0,0,1-339.217,1154.693Z" transform="translate(339.732 -1149.941)"/>
      <path id="Trazado_25884" data-name="Trazado 25884" d="M-322.806,1155.524a4.26,4.26,0,0,1-1.4,3.439,6.011,6.011,0,0,1-4,1.19h-1.266v4.952h-2.953v-13.924h4.447a5.919,5.919,0,0,1,3.854,1.091A3.978,3.978,0,0,1-322.806,1155.524Zm-6.665,2.211h.97a3.24,3.24,0,0,0,2.038-.538,1.886,1.886,0,0,0,.676-1.567,1.932,1.932,0,0,0-.567-1.534,2.651,2.651,0,0,0-1.775-.494h-1.343Z" transform="translate(344.301 -1151.124)"/>
      <path id="Trazado_25885" data-name="Trazado 25885" d="M-325.487,1159.763a14.761,14.761,0,0,1,.738-4.725,11.735,11.735,0,0,1,2.127-3.857h2.381a13.683,13.683,0,0,0-2.028,4.039,15.121,15.121,0,0,0-.686,4.523,14.631,14.631,0,0,0,.7,4.509,13.639,13.639,0,0,0,1.994,3.938h-2.362a11.226,11.226,0,0,1-2.132-3.78A14.368,14.368,0,0,1-325.487,1159.763Z" transform="translate(348.639 -1151.124)"/>
      <path id="Trazado_25886" data-name="Trazado 25886" d="M-311.626,1165.127l-1.009-3.314h-5.076l-1.009,3.314H-321.9l4.913-13.981h3.61l4.933,13.981Zm-1.715-5.791q-1.4-4.5-1.577-5.094c-.117-.4-.2-.705-.252-.935q-.315,1.219-1.8,6.028Z" transform="translate(350.882 -1151.146)"/>
      <path id="Trazado_25887" data-name="Trazado 25887" d="M-308.017,1159.763a14.388,14.388,0,0,1-.738,4.666,11.171,11.171,0,0,1-2.129,3.761h-2.362a13.736,13.736,0,0,0,1.991-3.928,14.568,14.568,0,0,0,.7-4.518,15.071,15.071,0,0,0-.686-4.523,13.686,13.686,0,0,0-2.028-4.039h2.381a11.71,11.71,0,0,1,2.134,3.871A14.87,14.87,0,0,1-308.017,1159.763Z" transform="translate(356.282 -1151.124)"/>
      <path id="Trazado_25888" data-name="Trazado 25888" d="M-305.923,1155.833v-2.085h9.456v2.085Zm0,3.686v-2.087h9.456v2.087Z" transform="translate(360.873 -1149.519)"/>
    </g>
    <path id="Trazado_25889" data-name="Trazado 25889" d="M-218.59,1155.871v1.152h46.071v-1.152H-218.59" transform="translate(1123.816 -99.668)" fill-rule="evenodd"/>
    <g id="Grupo_14704" data-name="Grupo 14704" transform="translate(925.411 1038.038)">
      <path id="Trazado_25890" data-name="Trazado 25890" d="M-202.484,1157.458h-1.5l1.71-7.97c.343-1.518.6-2.563.769-3.134a6.811,6.811,0,0,1-1.212.969l-1.555.96-.7-1.11,3.92-2.479h1.3Z" transform="translate(206.919 -1144.695)"/>
      <path id="Trazado_25891" data-name="Trazado 25891" d="M-201.649,1162.864a3.47,3.47,0,0,1,2.527.91,3.279,3.279,0,0,1,.938,2.467,4.732,4.732,0,0,1-.637,2.472,3.938,3.938,0,0,1-1.78,1.591,6.362,6.362,0,0,1-2.69.528,5.674,5.674,0,0,1-2.88-.689v-1.43a5.471,5.471,0,0,0,2.916.889,3.755,3.755,0,0,0,2.6-.837,2.989,2.989,0,0,0,.933-2.341,2.352,2.352,0,0,0-.642-1.742,2.408,2.408,0,0,0-1.783-.64,6.261,6.261,0,0,0-.848.057,10.277,10.277,0,0,0-1.212.266l-.647-.5,1.72-5.971h5.832l-.289,1.338h-4.554l-1.11,3.831A6.3,6.3,0,0,1-201.649,1162.864Z" transform="translate(206.171 -1136.441)"/>
    </g>
    <g id="Grupo_14705" data-name="Grupo 14705" transform="translate(834.645 1048.522)">
      <path id="Trazado_25892" data-name="Trazado 25892" d="M-258.388,1161.654l.143.219a29.413,29.413,0,0,1-1.677,4.562h-2.1q.619-2.533.962-4.782Zm-3.114-6.961a1.6,1.6,0,0,1,.427-1.209,1.739,1.739,0,0,1,1.248-.41,1.689,1.689,0,0,1,1.224.419,1.591,1.591,0,0,1,.434,1.2,1.57,1.57,0,0,1-.444,1.195,1.685,1.685,0,0,1-1.214.424,1.722,1.722,0,0,1-1.238-.419A1.584,1.584,0,0,1-261.5,1154.693Z" transform="translate(262.017 -1149.941)"/>
      <path id="Trazado_25893" data-name="Trazado 25893" d="M-245.091,1155.524a4.26,4.26,0,0,1-1.4,3.439,6.013,6.013,0,0,1-3.995,1.19h-1.268v4.952h-2.952v-13.924h4.447a5.917,5.917,0,0,1,3.852,1.091A3.979,3.979,0,0,1-245.091,1155.524Zm-6.667,2.211h.972a3.24,3.24,0,0,0,2.038-.538,1.886,1.886,0,0,0,.676-1.567,1.932,1.932,0,0,0-.567-1.534,2.652,2.652,0,0,0-1.775-.494h-1.344Z" transform="translate(266.586 -1151.124)"/>
      <path id="Trazado_25894" data-name="Trazado 25894" d="M-247.773,1159.763a14.761,14.761,0,0,1,.74-4.725,11.735,11.735,0,0,1,2.127-3.857h2.381a13.686,13.686,0,0,0-2.028,4.039,15.123,15.123,0,0,0-.686,4.523,14.631,14.631,0,0,0,.7,4.509,13.64,13.64,0,0,0,1.994,3.938h-2.362a11.2,11.2,0,0,1-2.132-3.78A14.367,14.367,0,0,1-247.773,1159.763Z" transform="translate(270.924 -1151.124)"/>
      <path id="Trazado_25895" data-name="Trazado 25895" d="M-233.91,1165.127l-1.009-3.314H-240l-1.011,3.314h-3.181l4.915-13.981h3.61l4.933,13.981Zm-1.715-5.791q-1.4-4.5-1.577-5.094c-.117-.4-.2-.705-.252-.935q-.314,1.219-1.8,6.028Z" transform="translate(273.166 -1151.146)"/>
      <path id="Trazado_25896" data-name="Trazado 25896" d="M-230.3,1159.763a14.389,14.389,0,0,1-.738,4.666,11.17,11.17,0,0,1-2.129,3.761h-2.362a13.734,13.734,0,0,0,1.989-3.928,14.523,14.523,0,0,0,.705-4.518,15.122,15.122,0,0,0-.686-4.523,13.685,13.685,0,0,0-2.028-4.039h2.381a11.677,11.677,0,0,1,2.132,3.871A14.824,14.824,0,0,1-230.3,1159.763Z" transform="translate(278.567 -1151.124)"/>
      <path id="Trazado_25897" data-name="Trazado 25897" d="M-228.208,1155.833v-2.085h9.456v2.085Zm0,3.686v-2.087h9.456v2.087Z" transform="translate(283.158 -1149.519)"/>
    </g>
    <g id="Grupo_14706" data-name="Grupo 14706" transform="translate(960.953 1048.362)">
      <path id="Trazado_25898" data-name="Trazado 25898" d="M-180.674,1161.654l.141.219a29.393,29.393,0,0,1-1.676,4.562H-184.3q.619-2.533.962-4.782Zm-3.114-6.961a1.594,1.594,0,0,1,.427-1.209,1.739,1.739,0,0,1,1.248-.41,1.689,1.689,0,0,1,1.224.419,1.59,1.59,0,0,1,.432,1.2,1.569,1.569,0,0,1-.442,1.195,1.685,1.685,0,0,1-1.214.424,1.722,1.722,0,0,1-1.238-.419A1.578,1.578,0,0,1-183.788,1154.693Z" transform="translate(184.303 -1149.78)"/>
      <path id="Trazado_25899" data-name="Trazado 25899" d="M-167.377,1155.524a4.26,4.26,0,0,1-1.4,3.439,6.014,6.014,0,0,1-3.995,1.19h-1.268v4.952H-177v-13.924h4.447a5.917,5.917,0,0,1,3.852,1.091A3.979,3.979,0,0,1-167.377,1155.524Zm-6.667,2.211h.972a3.246,3.246,0,0,0,2.038-.538,1.886,1.886,0,0,0,.676-1.567,1.932,1.932,0,0,0-.567-1.534,2.656,2.656,0,0,0-1.776-.494h-1.342Z" transform="translate(188.872 -1150.963)"/>
      <path id="Trazado_25900" data-name="Trazado 25900" d="M-170.059,1159.763a14.807,14.807,0,0,1,.738-4.725,11.768,11.768,0,0,1,2.129-3.857h2.381a13.686,13.686,0,0,0-2.028,4.039,15.123,15.123,0,0,0-.686,4.523,14.583,14.583,0,0,0,.7,4.509,13.639,13.639,0,0,0,1.994,3.938h-2.362a11.228,11.228,0,0,1-2.134-3.78A14.41,14.41,0,0,1-170.059,1159.763Z" transform="translate(193.21 -1150.963)"/>
      <path id="Trazado_25901" data-name="Trazado 25901" d="M-156.2,1165.127l-1.011-3.314h-5.076l-1.009,3.314h-3.181l4.915-13.981h3.608l4.934,13.981Zm-1.715-5.791q-1.4-4.5-1.577-5.094c-.117-.4-.2-.705-.252-.935q-.314,1.219-1.8,6.028Z" transform="translate(195.452 -1150.985)"/>
      <path id="Trazado_25902" data-name="Trazado 25902" d="M-152.59,1159.763a14.346,14.346,0,0,1-.738,4.666,11.14,11.14,0,0,1-2.128,3.761h-2.362a13.733,13.733,0,0,0,1.989-3.928,14.57,14.57,0,0,0,.705-4.518,15.123,15.123,0,0,0-.686-4.523,13.686,13.686,0,0,0-2.028-4.039h2.381a11.677,11.677,0,0,1,2.132,3.871A14.824,14.824,0,0,1-152.59,1159.763Z" transform="translate(200.853 -1150.963)"/>
      <path id="Trazado_25903" data-name="Trazado 25903" d="M-150.494,1155.833v-2.085h9.456v2.085Zm0,3.686v-2.087h9.456v2.087Z" transform="translate(205.444 -1149.358)"/>
      <path id="Trazado_25904" data-name="Trazado 25904" d="M-124.643,1158.228a9.708,9.708,0,0,1-1.195,5.4,4.146,4.146,0,0,1-3.681,1.752,4.1,4.1,0,0,1-3.633-1.809,9.565,9.565,0,0,1-1.224-5.342,9.8,9.8,0,0,1,1.19-5.433,4.131,4.131,0,0,1,3.667-1.747,4.108,4.108,0,0,1,3.642,1.829A9.581,9.581,0,0,1-124.643,1158.228Zm-6.808,0a10.86,10.86,0,0,0,.442,3.67,1.536,1.536,0,0,0,1.49,1.11,1.547,1.547,0,0,0,1.486-1.123,10.506,10.506,0,0,0,.458-3.657,10.475,10.475,0,0,0-.463-3.681,1.55,1.55,0,0,0-1.481-1.118,1.537,1.537,0,0,0-1.486,1.118A10.844,10.844,0,0,0-131.451,1158.228Z" transform="translate(215.523 -1151.047)"/>
      <path id="Trazado_25905" data-name="Trazado 25905" d="M-123.819,1158.573a29.392,29.392,0,0,1-1.676,4.562h-2.095q.619-2.533.962-4.782h2.665Z" transform="translate(219.766 -1146.479)"/>
      <path id="Trazado_25906" data-name="Trazado 25906" d="M-119,1156.21a4.49,4.49,0,0,1,3.215,1.133,4.077,4.077,0,0,1,1.195,3.106,4.514,4.514,0,0,1-1.438,3.59,6.065,6.065,0,0,1-4.114,1.256,8.052,8.052,0,0,1-3.753-.753V1162a7.769,7.769,0,0,0,1.752.652,7.722,7.722,0,0,0,1.9.252q2.7,0,2.7-2.209,0-2.1-2.791-2.1a6.945,6.945,0,0,0-1.115.1,8.475,8.475,0,0,0-.99.213l-1.172-.627.525-7.1h7.551v2.5h-4.972l-.257,2.732.333-.066A6.631,6.631,0,0,1-119,1156.21Z" transform="translate(222.077 -1150.963)"/>
    </g>
  </g>
</svg>
