<svg id="Grupo_14670" data-name="Grupo 14670" xmlns="http://www.w3.org/2000/svg" width="276.429" height="46.071" viewBox="0 0 276.429 46.071">
  <rect id="Rectángulo_3715" data-name="Rectángulo 3715" width="276.429" height="46.071" fill="#efc355"/>
  <g id="Grupo_14669" data-name="Grupo 14669" transform="translate(28.767 14.7)">
    <path id="Trazado_25241" data-name="Trazado 25241" d="M-419.195,1466.532a3.9,3.9,0,0,1-1.287,3.151,5.512,5.512,0,0,1-3.663,1.091h-1.16v4.539h-2.706V1462.55h4.076a5.423,5.423,0,0,1,3.532,1A3.643,3.643,0,0,1-419.195,1466.532Zm-6.111,2.025h.891a2.961,2.961,0,0,0,1.869-.494,1.729,1.729,0,0,0,.619-1.435,1.774,1.774,0,0,0-.52-1.406,2.445,2.445,0,0,0-1.629-.453h-1.23Z" transform="translate(428.012 -1461.731)" fill="#272525"/>
    <path id="Trazado_25242" data-name="Trazado 25242" d="M-418.8,1470.417a13.548,13.548,0,0,1,.676-4.33,10.793,10.793,0,0,1,1.95-3.537h2.184a12.564,12.564,0,0,0-1.861,3.7,13.9,13.9,0,0,0-.627,4.148,13.478,13.478,0,0,0,.64,4.133,12.573,12.573,0,0,0,1.828,3.608h-2.165a10.314,10.314,0,0,1-1.955-3.465A13.2,13.2,0,0,1-418.8,1470.417Z" transform="translate(433.775 -1461.731)" fill="#272525"/>
    <path id="Trazado_25243" data-name="Trazado 25243" d="M-406.089,1475.333l-.923-3.037h-4.655l-.925,3.037h-2.916l4.505-12.815h3.307l4.523,12.815Zm-1.572-5.308q-1.28-4.127-1.443-4.67c-.109-.361-.185-.645-.232-.855q-.285,1.117-1.65,5.524Z" transform="translate(435.831 -1461.751)" fill="#272525"/>
    <path id="Trazado_25244" data-name="Trazado 25244" d="M-405.061,1464.4h2.916l1.843,5.492a7.694,7.694,0,0,1,.322,1.694h.054a7.48,7.48,0,0,1,.374-1.694l1.807-5.492h2.856l-4.13,11.01a4.759,4.759,0,0,1-1.619,2.287,4.093,4.093,0,0,1-2.457.759,6.273,6.273,0,0,1-1.354-.148v-2.113a4.622,4.622,0,0,0,1.048.112,1.9,1.9,0,0,0,1.235-.431,2.828,2.828,0,0,0,.824-1.305l.158-.481Z" transform="translate(442.363 -1460.575)" fill="#272525"/>
    <path id="Trazado_25245" data-name="Trazado 25245" d="M-394.958,1462.55h3.971a7.651,7.651,0,0,1,3.943.774,2.688,2.688,0,0,1,1.226,2.457,3.087,3.087,0,0,1-.536,1.877,2.137,2.137,0,0,1-1.427.881v.088a2.819,2.819,0,0,1,1.75,1.013,3.3,3.3,0,0,1,.536,1.973,3.249,3.249,0,0,1-1.261,2.723,5.45,5.45,0,0,1-3.428.978h-4.773Zm2.706,5.056h1.572a2.866,2.866,0,0,0,1.593-.341,1.27,1.27,0,0,0,.494-1.125,1.127,1.127,0,0,0-.538-1.053,3.438,3.438,0,0,0-1.7-.318h-1.424Zm0,2.147v3.325h1.763a2.628,2.628,0,0,0,1.651-.427,1.583,1.583,0,0,0,.531-1.308q0-1.592-2.271-1.589Z" transform="translate(448.681 -1461.731)" fill="#272525"/>
    <path id="Trazado_25246" data-name="Trazado 25246" d="M-383.419,1470.417a13.13,13.13,0,0,1-.676,4.277,10.168,10.168,0,0,1-1.952,3.447h-2.165a12.465,12.465,0,0,0,1.825-3.6,13.339,13.339,0,0,0,.647-4.14,13.847,13.847,0,0,0-.629-4.148,12.639,12.639,0,0,0-1.859-3.7h2.181a10.652,10.652,0,0,1,1.955,3.55A13.532,13.532,0,0,1-383.419,1470.417Z" transform="translate(452.889 -1461.731)" fill="#272525"/>
    <path id="Trazado_25247" data-name="Trazado 25247" d="M-381.5,1466.816V1464.9h8.669v1.913Zm0,3.377v-1.911h8.669v1.911Z" transform="translate(457.097 -1460.26)" fill="#272525"/>
    <path id="Trazado_25248" data-name="Trazado 25248" d="M-363.029,1466.532a3.9,3.9,0,0,1-1.287,3.151,5.512,5.512,0,0,1-3.663,1.091h-1.16v4.539h-2.706V1462.55h4.076a5.423,5.423,0,0,1,3.532,1A3.643,3.643,0,0,1-363.029,1466.532Zm-6.111,2.025h.891a2.961,2.961,0,0,0,1.869-.494,1.728,1.728,0,0,0,.619-1.435,1.774,1.774,0,0,0-.52-1.406,2.445,2.445,0,0,0-1.629-.453h-1.23Z" transform="translate(463.133 -1461.731)" fill="#272525"/>
    <path id="Trazado_25249" data-name="Trazado 25249" d="M-362.63,1470.417a13.547,13.547,0,0,1,.676-4.33,10.794,10.794,0,0,1,1.95-3.537h2.184a12.566,12.566,0,0,0-1.861,3.7,13.9,13.9,0,0,0-.627,4.148,13.481,13.481,0,0,0,.64,4.133,12.577,12.577,0,0,0,1.828,3.608H-360a10.314,10.314,0,0,1-1.955-3.465A13.205,13.205,0,0,1-362.63,1470.417Z" transform="translate(468.895 -1461.731)" fill="#272525"/>
    <path id="Trazado_25250" data-name="Trazado 25250" d="M-349.923,1475.333l-.923-3.037H-355.5l-.925,3.037h-2.916l4.505-12.815h3.307l4.523,12.815Zm-1.572-5.308q-1.28-4.127-1.443-4.67c-.109-.361-.185-.645-.232-.855q-.285,1.117-1.65,5.524Z" transform="translate(470.951 -1461.751)" fill="#272525"/>
    <path id="Trazado_25251" data-name="Trazado 25251" d="M-346.616,1470.417a13.177,13.177,0,0,1-.676,4.277,10.2,10.2,0,0,1-1.952,3.447h-2.165a12.547,12.547,0,0,0,1.825-3.6,13.341,13.341,0,0,0,.645-4.14,13.9,13.9,0,0,0-.627-4.148,12.64,12.64,0,0,0-1.859-3.7h2.181a10.679,10.679,0,0,1,1.955,3.55A13.579,13.579,0,0,1-346.616,1470.417Z" transform="translate(475.902 -1461.731)" fill="#272525"/>
    <path id="Trazado_25252" data-name="Trazado 25252" d="M-339.374,1462.046l-.358,3.212,3.255-.907.289,2.2-2.968.21,1.945,2.594-1.98,1.055-1.362-2.732-1.2,2.714-2.059-1.037,1.929-2.594-2.951-.228.341-2.181,3.186.907-.358-3.212Z" transform="translate(480.026 -1462.046)" fill="#272525"/>
    <path id="Trazado_25253" data-name="Trazado 25253" d="M-326.511,1466.532a3.9,3.9,0,0,1-1.287,3.151,5.518,5.518,0,0,1-3.663,1.091h-1.16v4.539h-2.706V1462.55h4.076a5.418,5.418,0,0,1,3.53,1A3.639,3.639,0,0,1-326.511,1466.532Zm-6.111,2.025h.891a2.959,2.959,0,0,0,1.867-.494,1.725,1.725,0,0,0,.621-1.435,1.774,1.774,0,0,0-.52-1.406,2.445,2.445,0,0,0-1.629-.453h-1.23Z" transform="translate(485.967 -1461.731)" fill="#272525"/>
    <path id="Trazado_25254" data-name="Trazado 25254" d="M-326.111,1470.417a13.505,13.505,0,0,1,.676-4.33,10.765,10.765,0,0,1,1.95-3.537h2.184a12.564,12.564,0,0,0-1.861,3.7,13.849,13.849,0,0,0-.629,4.148,13.432,13.432,0,0,0,.642,4.133,12.577,12.577,0,0,0,1.828,3.608h-2.165a10.287,10.287,0,0,1-1.955-3.465A13.161,13.161,0,0,1-326.111,1470.417Z" transform="translate(491.73 -1461.731)" fill="#272525"/>
    <path id="Trazado_25255" data-name="Trazado 25255" d="M-321.836,1462.55h3.971a7.651,7.651,0,0,1,3.943.774,2.688,2.688,0,0,1,1.225,2.457,3.087,3.087,0,0,1-.536,1.877,2.137,2.137,0,0,1-1.427.881v.088a2.819,2.819,0,0,1,1.75,1.013,3.3,3.3,0,0,1,.536,1.973,3.249,3.249,0,0,1-1.261,2.723,5.45,5.45,0,0,1-3.428.978h-4.774Zm2.706,5.056h1.572a2.866,2.866,0,0,0,1.593-.341,1.27,1.27,0,0,0,.494-1.125,1.127,1.127,0,0,0-.538-1.053,3.438,3.438,0,0,0-1.7-.318h-1.424Zm0,2.147v3.325h1.763a2.628,2.628,0,0,0,1.651-.427,1.583,1.583,0,0,0,.532-1.308q0-1.592-2.271-1.589Z" transform="translate(494.404 -1461.731)" fill="#272525"/>
    <path id="Trazado_25256" data-name="Trazado 25256" d="M-310.133,1462.078h1.913v17.59h-1.913Z" transform="translate(501.722 -1462.026)" fill="#272525"/>
    <path id="Trazado_25257" data-name="Trazado 25257" d="M-294.241,1475.333l-.925-3.037h-4.653l-.925,3.037h-2.916l4.5-12.815h3.307l4.525,12.815Zm-1.572-5.308q-1.282-4.127-1.445-4.67t-.231-.855q-.288,1.117-1.65,5.524Z" transform="translate(505.769 -1461.751)" fill="#272525"/>
    <path id="Trazado_25258" data-name="Trazado 25258" d="M-290.933,1470.417a13.176,13.176,0,0,1-.676,4.277,10.222,10.222,0,0,1-1.952,3.447h-2.167a12.508,12.508,0,0,0,1.827-3.6,13.388,13.388,0,0,0,.645-4.14,13.849,13.849,0,0,0-.629-4.148,12.634,12.634,0,0,0-1.858-3.7h2.181a10.709,10.709,0,0,1,1.955,3.55A13.578,13.578,0,0,1-290.933,1470.417Z" transform="translate(510.72 -1461.731)" fill="#272525"/>
  </g>
</svg>
