<svg xmlns="http://www.w3.org/2000/svg" width="357.681" height="34.573" viewBox="0 0 357.681 34.573">
  <g id="Grupo_14724" data-name="Grupo 14724" transform="translate(-290.874 -1836.345)">
    <path id="Trazado_25478" data-name="Trazado 25478" d="M-479.966,1647.16v1.152h34.553v-1.152h-34.553" transform="translate(960.379 207.533)" fill-rule="evenodd"/>
    <g id="Grupo_14679" data-name="Grupo 14679" transform="translate(494.244 1836.345)">
      <path id="Trazado_25479" data-name="Trazado 25479" d="M-463.607,1648.815h-7.849l.271-1.282,4.058-3.665c.593-.541,1.108-1.017,1.541-1.429a10.179,10.179,0,0,0,1.073-1.161,4.279,4.279,0,0,0,.629-1.083,3.291,3.291,0,0,0,.206-1.193,1.811,1.811,0,0,0-.523-1.368,1.961,1.961,0,0,0-1.424-.507,3.657,3.657,0,0,0-1.315.247,6.1,6.1,0,0,0-1.417.844l-.715-1a5.622,5.622,0,0,1,3.6-1.344,3.606,3.606,0,0,1,2.431.77,2.664,2.664,0,0,1,.894,2.128,4.527,4.527,0,0,1-.345,1.781,6.519,6.519,0,0,1-1.144,1.718,28.9,28.9,0,0,1-2.571,2.454l-3.072,2.678v.07h5.918Z" transform="translate(471.456 -1635.871)"/>
      <path id="Trazado_25480" data-name="Trazado 25480" d="M-466.569,1654.151a3.469,3.469,0,0,1,2.527.91,3.281,3.281,0,0,1,.939,2.467,4.724,4.724,0,0,1-.637,2.471,3.946,3.946,0,0,1-1.781,1.593,6.352,6.352,0,0,1-2.688.528,5.7,5.7,0,0,1-2.882-.689V1660a5.46,5.46,0,0,0,2.916.89,3.762,3.762,0,0,0,2.6-.837,2.981,2.981,0,0,0,.935-2.34,2.353,2.353,0,0,0-.644-1.742,2.4,2.4,0,0,0-1.783-.642,6.245,6.245,0,0,0-.848.059,10.319,10.319,0,0,0-1.212.266l-.645-.5,1.718-5.971h5.831l-.286,1.336h-4.557l-1.11,3.833A6.287,6.287,0,0,1-466.569,1654.151Z" transform="translate(471.684 -1627.547)"/>
    </g>
    <g id="Grupo_14682" data-name="Grupo 14682" transform="translate(290.874 1846.913)">
      <path id="Trazado_25505" data-name="Trazado 25505" d="M-588.264,1652.166a3.3,3.3,0,0,1-1.243,2.724,5.409,5.409,0,0,1-3.462.995,8.134,8.134,0,0,1-3.615-.767V1652.6a15.249,15.249,0,0,0,2.188.813,6.522,6.522,0,0,0,1.637.234,2.335,2.335,0,0,0,1.365-.339,1.162,1.162,0,0,0,.476-1.013,1.127,1.127,0,0,0-.208-.668,2.36,2.36,0,0,0-.616-.562,15.36,15.36,0,0,0-1.655-.865,7.848,7.848,0,0,1-1.755-1.056,3.948,3.948,0,0,1-.933-1.179,3.346,3.346,0,0,1-.349-1.57,3.3,3.3,0,0,1,1.147-2.664,4.765,4.765,0,0,1,3.173-.97,7.455,7.455,0,0,1,1.9.237,12.761,12.761,0,0,1,1.89.663l-.873,2.1a13.087,13.087,0,0,0-1.689-.587,5.435,5.435,0,0,0-1.315-.166,1.737,1.737,0,0,0-1.177.359,1.172,1.172,0,0,0-.411.933,1.164,1.164,0,0,0,.166.626,1.815,1.815,0,0,0,.528.513,16.156,16.156,0,0,0,1.715.9,6.814,6.814,0,0,1,2.454,1.715A3.352,3.352,0,0,1-588.264,1652.166Z" transform="translate(596.584 -1642.129)"/>
      <path id="Trazado_25506" data-name="Trazado 25506" d="M-585.525,1654.729a5.036,5.036,0,0,1-3.684-1.3,4.926,4.926,0,0,1-1.326-3.683,5.418,5.418,0,0,1,1.227-3.794,4.363,4.363,0,0,1,3.392-1.339,4.3,4.3,0,0,1,3.22,1.177,4.46,4.46,0,0,1,1.152,3.257v1.292h-6.293a2.563,2.563,0,0,0,.671,1.771,2.364,2.364,0,0,0,1.763.639,7.258,7.258,0,0,0,1.669-.185,8.383,8.383,0,0,0,1.64-.583v2.061a6.363,6.363,0,0,1-1.494.519A9.495,9.495,0,0,1-585.525,1654.729Zm-.375-8.222a1.686,1.686,0,0,0-1.326.536,2.491,2.491,0,0,0-.551,1.523h3.737a2.22,2.22,0,0,0-.514-1.523A1.747,1.747,0,0,0-585.9,1646.506Z" transform="translate(600.366 -1640.972)"/>
      <path id="Trazado_25507" data-name="Trazado 25507" d="M-576.623,1654.729q-4.557,0-4.557-5a5.343,5.343,0,0,1,1.24-3.8,4.65,4.65,0,0,1,3.555-1.311,6.781,6.781,0,0,1,3.038.663l-.786,2.061c-.418-.17-.81-.309-1.169-.416a3.736,3.736,0,0,0-1.082-.163q-2.08,0-2.079,2.953,0,2.86,2.079,2.862a4.746,4.746,0,0,0,1.422-.206,5.173,5.173,0,0,0,1.308-.64v2.279a4.3,4.3,0,0,1-1.3.567A7.394,7.394,0,0,1-576.623,1654.729Z" transform="translate(606.216 -1640.972)"/>
      <path id="Trazado_25508" data-name="Trazado 25508" d="M-568.712,1654.563l-.515-1.326h-.07a3.947,3.947,0,0,1-1.383,1.174,4.476,4.476,0,0,1-1.854.327,3.005,3.005,0,0,1-2.214-.8,3.08,3.08,0,0,1-.808-2.287,2.575,2.575,0,0,1,1.087-2.292,6.291,6.291,0,0,1,3.278-.816l1.694-.052v-.429a1.327,1.327,0,0,0-1.52-1.482,6.915,6.915,0,0,0-2.75.705l-.881-1.8a7.938,7.938,0,0,1,3.737-.883,4.647,4.647,0,0,1,3.01.857,3.159,3.159,0,0,1,1.048,2.6v6.5Zm-.785-4.522-1.03.034a3.311,3.311,0,0,0-1.728.42,1.312,1.312,0,0,0-.569,1.17c0,.751.432,1.126,1.292,1.126a2.043,2.043,0,0,0,1.481-.533,1.876,1.876,0,0,0,.554-1.414Z" transform="translate(609.733 -1640.98)"/>
      <path id="Trazado_25509" data-name="Trazado 25509" d="M-565.851,1655.956h-2.664v-13.583h2.664Z" transform="translate(614.135 -1642.373)"/>
      <path id="Trazado_25510" data-name="Trazado 25510" d="M-560.966,1654.729q-4.557,0-4.556-5a5.343,5.343,0,0,1,1.238-3.8,4.649,4.649,0,0,1,3.553-1.311,6.772,6.772,0,0,1,3.038.663l-.785,2.061c-.419-.17-.808-.309-1.17-.416a3.712,3.712,0,0,0-1.082-.163q-2.077,0-2.077,2.953,0,2.86,2.077,2.862a4.747,4.747,0,0,0,1.424-.206,5.172,5.172,0,0,0,1.308-.64v2.279a4.336,4.336,0,0,1-1.3.567A7.4,7.4,0,0,1-560.966,1654.729Z" transform="translate(616.007 -1640.972)"/>
      <path id="Trazado_25511" data-name="Trazado 25511" d="M-552.568,1654.485l-.358-1.248h-.14a2.791,2.791,0,0,1-1.214,1.052,4.145,4.145,0,0,1-1.788.37,3.407,3.407,0,0,1-2.594-.92,3.717,3.717,0,0,1-.873-2.651v-6.363h2.664v5.7a2.755,2.755,0,0,0,.374,1.586,1.368,1.368,0,0,0,1.2.528,1.8,1.8,0,0,0,1.616-.747,4.633,4.633,0,0,0,.5-2.475v-4.592h2.662v9.76Z" transform="translate(619.751 -1640.902)"/>
      <path id="Trazado_25512" data-name="Trazado 25512" d="M-549.61,1655.956h-2.662v-13.583h2.662Z" transform="translate(624.292 -1642.373)"/>
      <path id="Trazado_25513" data-name="Trazado 25513" d="M-542.468,1654.563l-.517-1.326h-.07a3.944,3.944,0,0,1-1.382,1.174,4.484,4.484,0,0,1-1.856.327,3,3,0,0,1-2.212-.8,3.08,3.08,0,0,1-.808-2.287,2.571,2.571,0,0,1,1.087-2.292,6.28,6.28,0,0,1,3.277-.816l1.694-.052v-.429a1.326,1.326,0,0,0-1.518-1.482,6.922,6.922,0,0,0-2.752.705l-.881-1.8a7.943,7.943,0,0,1,3.737-.883,4.652,4.652,0,0,1,3.012.857,3.162,3.162,0,0,1,1.047,2.6v6.5Zm-.787-4.522-1.03.034a3.31,3.31,0,0,0-1.728.42,1.312,1.312,0,0,0-.569,1.17c0,.751.432,1.126,1.292,1.126a2.043,2.043,0,0,0,1.481-.533,1.876,1.876,0,0,0,.554-1.414Z" transform="translate(626.143 -1640.98)"/>
      <path id="Trazado_25514" data-name="Trazado 25514" d="M-530.468,1646.859a3.9,3.9,0,0,1-1.287,3.15,5.507,5.507,0,0,1-3.662,1.092h-1.162v4.539h-2.706v-12.764h4.078a5.421,5.421,0,0,1,3.53,1A3.643,3.643,0,0,1-530.468,1646.859Zm-6.111,2.025h.891a2.967,2.967,0,0,0,1.868-.494,1.721,1.721,0,0,0,.621-1.435,1.768,1.768,0,0,0-.52-1.406,2.424,2.424,0,0,0-1.627-.453h-1.232Z" transform="translate(632.413 -1642.058)"/>
      <path id="Trazado_25515" data-name="Trazado 25515" d="M-530.068,1650.742a13.516,13.516,0,0,1,.676-4.33,10.763,10.763,0,0,1,1.952-3.535h2.183a12.587,12.587,0,0,0-1.861,3.7,13.85,13.85,0,0,0-.629,4.148,13.44,13.44,0,0,0,.642,4.133,12.535,12.535,0,0,0,1.83,3.608h-2.165A10.252,10.252,0,0,1-529.4,1655,13.1,13.1,0,0,1-530.068,1650.742Z" transform="translate(638.176 -1642.058)"/>
      <path id="Trazado_25516" data-name="Trazado 25516" d="M-525.793,1642.877h3.972a7.649,7.649,0,0,1,3.941.774,2.687,2.687,0,0,1,1.227,2.457,3.088,3.088,0,0,1-.538,1.876,2.145,2.145,0,0,1-1.427.882v.088a2.806,2.806,0,0,1,1.75,1.013,3.3,3.3,0,0,1,.536,1.973,3.249,3.249,0,0,1-1.261,2.723,5.443,5.443,0,0,1-3.424.978h-4.777Zm2.706,5.057h1.572a2.878,2.878,0,0,0,1.593-.341,1.268,1.268,0,0,0,.494-1.126,1.126,1.126,0,0,0-.538-1.051,3.438,3.438,0,0,0-1.7-.319h-1.424Zm0,2.145v3.327h1.763a2.615,2.615,0,0,0,1.651-.429,1.578,1.578,0,0,0,.531-1.307q0-1.592-2.271-1.591Z" transform="translate(640.849 -1642.058)"/>
      <path id="Trazado_25517" data-name="Trazado 25517" d="M-516.533,1644.725h2.916l1.843,5.49a7.631,7.631,0,0,1,.322,1.7h.052a7.432,7.432,0,0,1,.377-1.7l1.806-5.49h2.856l-4.13,11.008a4.785,4.785,0,0,1-1.619,2.288,4.107,4.107,0,0,1-2.457.759,6.166,6.166,0,0,1-1.354-.15v-2.111a4.613,4.613,0,0,0,1.047.112,1.9,1.9,0,0,0,1.235-.431,2.8,2.8,0,0,0,.826-1.307l.158-.479Z" transform="translate(646.64 -1640.902)"/>
      <path id="Trazado_25518" data-name="Trazado 25518" d="M-498,1655.661l-.925-3.038h-4.653l-.925,3.038h-2.916l4.505-12.816h3.307l4.522,12.816Zm-1.572-5.308q-1.282-4.128-1.443-4.67c-.109-.361-.185-.647-.232-.857q-.288,1.119-1.65,5.526Z" transform="translate(652.339 -1642.078)"/>
      <path id="Trazado_25519" data-name="Trazado 25519" d="M-494.692,1650.742a13.183,13.183,0,0,1-.676,4.28,10.22,10.22,0,0,1-1.95,3.447h-2.165a12.6,12.6,0,0,0,1.824-3.6,13.3,13.3,0,0,0,.645-4.14,13.9,13.9,0,0,0-.627-4.148,12.582,12.582,0,0,0-1.859-3.7h2.183a10.723,10.723,0,0,1,1.955,3.55A13.617,13.617,0,0,1-494.692,1650.742Z" transform="translate(657.29 -1642.058)"/>
      <path id="Trazado_25520" data-name="Trazado 25520" d="M-492.771,1647.141v-1.911h8.669v1.911Zm0,3.379v-1.913h8.669v1.913Z" transform="translate(661.498 -1640.587)"/>
    </g>
    <g id="Grupo_14683" data-name="Grupo 14683" transform="translate(523.391 1848.247)">
      <path id="Trazado_25521" data-name="Trazado 25521" d="M-447.409,1644.088l-1.931,2.271.019.054,2.843-.572v1.806l-2.862-.5-.018.055,1.949,2.2-1.591.93-1.019-2.771-.036.018-1.037,2.753-1.538-.93,1.913-2.235v-.036l-2.807.518v-1.806l2.771.556.018-.037-1.9-2.253,1.591-.912,1,2.735H-450l1.019-2.735Z" transform="translate(453.523 -1643.194)"/>
    </g>
    <path id="Trazado_25522" data-name="Trazado 25522" d="M-440.281,1647.16v1.152h34.554v-1.152h-34.554" transform="translate(985.194 207.533)" fill-rule="evenodd"/>
    <g id="Grupo_14684" data-name="Grupo 14684" transform="translate(558.778 1836.527)">
      <path id="Trazado_25523" data-name="Trazado 25523" d="M-427.721,1648.745h-1.5l1.71-7.969q.517-2.277.769-3.135a6.7,6.7,0,0,1-1.212.97l-1.554.961-.7-1.11,3.919-2.479h1.3Z" transform="translate(432.714 -1635.983)"/>
      <path id="Trazado_25524" data-name="Trazado 25524" d="M-422.574,1659.057h-2.035l-.629,2.916h-1.432l.647-2.916h-5.728l.254-1.38,7.281-8.537h1.711l-1.809,8.582h2.025Zm-3.161-1.336q.4-1.921.681-3.255t1.013-3.885h-.07c-.1.167-.293.449-.58.84s-.5.674-.634.844l-4.652,5.456Z" transform="translate(431.75 -1627.756)"/>
    </g>
    <g id="Grupo_14685" data-name="Grupo 14685" transform="translate(582.19 1853.021)">
      <path id="Trazado_25525" data-name="Trazado 25525" d="M-417.345,1647.8v-1.664h9.227v1.664Zm0,3.7v-1.663h9.227v1.663Z" transform="translate(417.345 -1646.131)"/>
    </g>
    <path id="Trazado_25526" data-name="Trazado 25526" d="M-403.43,1647.16v1.152h34.554v-1.152H-403.43" transform="translate(1008.236 207.533)" fill-rule="evenodd"/>
    <g id="Grupo_14686" data-name="Grupo 14686" transform="translate(613.712 1836.345)">
      <path id="Trazado_25527" data-name="Trazado 25527" d="M-387.073,1648.815h-7.849l.271-1.282,4.058-3.665q.89-.812,1.541-1.429a10.359,10.359,0,0,0,1.074-1.161,4.317,4.317,0,0,0,.627-1.083,3.293,3.293,0,0,0,.206-1.193,1.811,1.811,0,0,0-.523-1.368,1.961,1.961,0,0,0-1.424-.507,3.656,3.656,0,0,0-1.315.247,6.105,6.105,0,0,0-1.417.844l-.715-1a5.625,5.625,0,0,1,3.6-1.344,3.6,3.6,0,0,1,2.431.77,2.665,2.665,0,0,1,.9,2.128,4.529,4.529,0,0,1-.346,1.781,6.55,6.55,0,0,1-1.143,1.718,29.365,29.365,0,0,1-2.571,2.454l-3.073,2.678v.07h5.919Z" transform="translate(399.845 -1635.871)"/>
      <path id="Trazado_25528" data-name="Trazado 25528" d="M-390.1,1662.016h-7.849l.271-1.282,4.058-3.667q.89-.812,1.541-1.429a10.087,10.087,0,0,0,1.073-1.161,4.255,4.255,0,0,0,.629-1.082,3.3,3.3,0,0,0,.206-1.192,1.813,1.813,0,0,0-.523-1.37,1.961,1.961,0,0,0-1.424-.507,3.621,3.621,0,0,0-1.315.248,5.977,5.977,0,0,0-1.417.842l-.715-1a5.621,5.621,0,0,1,3.6-1.344,3.608,3.608,0,0,1,2.433.77,2.664,2.664,0,0,1,.894,2.127,4.5,4.5,0,0,1-.346,1.781,6.5,6.5,0,0,1-1.143,1.718,28.931,28.931,0,0,1-2.571,2.454l-3.072,2.68v.068h5.918Z" transform="translate(397.951 -1627.617)"/>
      <path id="Trazado_25529" data-name="Trazado 25529" d="M-382.831,1653.17a15.265,15.265,0,0,1-.686,4.707,7.368,7.368,0,0,1-1.867,3.225,3.913,3.913,0,0,1-2.744,1.1,2.749,2.749,0,0,1-2.358-1.113,5.377,5.377,0,0,1-.821-3.225,14.013,14.013,0,0,1,.717-4.492,7.589,7.589,0,0,1,1.889-3.221,3.846,3.846,0,0,1,2.685-1.086Q-382.83,1649.06-382.831,1653.17Zm-3.272-2.854a2.377,2.377,0,0,0-1.825,1.009,7.684,7.684,0,0,0-1.357,2.818,13.36,13.36,0,0,0-.52,3.7,4.9,4.9,0,0,0,.437,2.3,1.482,1.482,0,0,0,1.4.8,2.357,2.357,0,0,0,1.825-.995,7.511,7.511,0,0,0,1.313-2.864,15.379,15.379,0,0,0,.492-3.954Q-384.333,1650.318-386.1,1650.316Z" transform="translate(402.105 -1627.624)"/>
    </g>
    <g id="Grupo_14687" data-name="Grupo 14687" transform="translate(644.407 1851.646)">
      <path id="Trazado_25530" data-name="Trazado 25530" d="M-379.065,1656.264a32.159,32.159,0,0,0,1.305-5.079l2.735-.179a24.575,24.575,0,0,1-2.253,5.1Zm2.539-7.709a1.535,1.535,0,0,1-1.573-1.627,1.544,1.544,0,0,1,1.593-1.643,1.542,1.542,0,0,1,1.59,1.643,1.537,1.537,0,0,1-1.59,1.627Z" transform="translate(379.065 -1645.285)"/>
    </g>
  </g>
</svg>
