<svg xmlns="http://www.w3.org/2000/svg" xmlns:xlink="http://www.w3.org/1999/xlink" width="966.921" height="530.888" viewBox="0 0 966.921 530.888">
  <defs>
    <clipPath id="clip-path">
      <path id="Trazado_21332" data-name="Trazado 21332" d="M858.592,858.442c-.391-14.351-1.1-27.157-1.026-39.96.321-55.716,2.015-255.971,2.563-311.686a66.631,66.631,0,0,1,1.384-12.343c1.518-7.572,6.981-11.619,14.1-12.049,24.417-1.473,48.778-2.914,73.362-2.407,15.635.322,29.942,6.69,45.553,5.681,20.833-1.346,41.519,1.089,61.976,5.269a29.08,29.08,0,0,0,4.985.378c26.555.738,53.492-1.074,79.569,2.844,30.559,4.592,60.541-3.173,90.9.343,14.994,1.736,30.334-2.528,45.515-5.241,17.839-3.188,36.454-3.121,54.682-2.631,11,.3,22,3.691,32.822,6.381,19.934,4.952,39.761,1.945,59.562-.306,11.082-1.261,21.976-4.151,33.055-5.466,8.6-1.021,17.066-.718,25.776,2.3a45.534,45.534,0,0,0,23.169,1.7c13.573-2.837,26.75-.022,39.311,2.54,11.156,2.274,22.195,1.881,33.211,3.295,15.606,2,31.355,2.983,47.069,4.027,18.977,1.262,37.981,2.134,58.42,3.254.561,75.775.606,296.016-2.178,373.076-19.668-1.222-38.155-2.414-56.648-3.473a52.4,52.4,0,0,0-8.594.492c-2.056.224-4.085,1.168-6.114,1.129-22.762-.431-45.748,1.963-67.585-7.814-10.876-4.871-21.984-1.049-32.851,2.006a51.591,51.591,0,0,1-13.2,1.871c-10.522.126-21.076.152-31.567-.541a217.291,217.291,0,0,1-24.441-3.464c-7.736-1.406-15.365-3.405-23.063-5.036a12.105,12.105,0,0,0-4.941-.23c-9.565,2.112-19.073,4.481-28.641,6.583a27.033,27.033,0,0,1-7.4.5c-15.777-.98-31.532-2.417-47.321-3.072-19.473-.808-38.969-1.1-58.459-1.36-3.249-.043-6.5,1.316-9.776,1.869-16.083,2.713-32.14,1.736-48.217-.246-6.6-.813-13.425-2.254-19.874-1.38a119.283,119.283,0,0,1-55.378-5.681c-6.8-2.323-12.339-1.813-18.81,2.081-12.092,7.276-25.844,5.222-39.022,3.656-19.828-2.356-39.563-5.5-59.338-8.306-.412-.059-.871-.274-1.231-.165-11.938,3.656-24.249,3.331-36.539,3.931-10.294.5-20.575,4.093-30.752,3.672C921.925,863.2,891.286,860.637,858.592,858.442Z" transform="translate(-857.561 -479.893)" fill="none"/>
    </clipPath>
    <linearGradient id="linear-gradient" x1="0.146" y1="0.146" x2="0.854" y2="0.854" gradientUnits="objectBoundingBox">
      <stop offset="0" stop-color="#ff0"/>
      <stop offset="1" stop-color="#ffcb00"/>
    </linearGradient>
  </defs>
  <g id="Grupo_14458" data-name="Grupo 14458" transform="translate(-217.532 -3499.746)">
    <g id="Grupo_14278" data-name="Grupo 14278" transform="translate(-540.767 3117.456)">
      <g id="Grupo_13603" data-name="Grupo 13603" transform="translate(849.771 471.414)">
        <g id="Grupo_13602" data-name="Grupo 13602">
          <g id="Grupo_13599" data-name="Grupo 13599" transform="translate(0 9.502)">
            <path id="Trazado_21138" data-name="Trazado 21138" d="M858.5,869.869c-.391-14.352-1.1-27.158-1.026-39.96.321-55.716,2.015-255.972,2.564-311.686a66.477,66.477,0,0,1,1.384-12.343c1.517-7.572,6.981-11.62,14.1-12.049,24.418-1.473,48.778-2.915,73.362-2.407,15.636.322,29.943,6.689,45.554,5.681,20.833-1.346,41.518,1.089,61.975,5.268a29.089,29.089,0,0,0,4.985.378c26.556.738,53.492-1.074,79.569,2.844,30.559,4.591,60.542-3.173,90.9.342,14.995,1.736,30.334-2.528,45.516-5.241,17.839-3.187,36.453-3.121,54.682-2.63,11,.3,21.995,3.691,32.822,6.381,19.934,4.951,39.76,1.944,59.561-.307,11.082-1.26,21.977-4.15,33.055-5.466,8.6-1.021,17.067-.717,25.776,2.3a45.538,45.538,0,0,0,23.17,1.7c13.573-2.837,26.75-.022,39.31,2.539,11.156,2.275,22.2,1.882,33.211,3.295,15.606,2,31.356,2.983,47.069,4.028,18.978,1.262,37.981,2.134,58.42,3.254.561,75.774.662,289.236-2.123,366.3-29.94,1.728-38.209,4.367-56.7,3.308a52.388,52.388,0,0,0-8.594.491c-2.057.224-4.086,1.167-6.114,1.128-22.762-.43-45.749,1.964-67.585-7.813-10.877-4.871-21.984-1.049-32.851,2.006a51.54,51.54,0,0,1-13.2,1.87c-10.521.126-21.075.153-31.567-.54a217.471,217.471,0,0,1-24.441-3.464c-7.737-1.406-15.365-3.405-23.063-5.037a12.118,12.118,0,0,0-4.941-.229c-9.565,2.112-19.073,4.481-28.641,6.583a27.064,27.064,0,0,1-7.4.5c-15.777-.98-31.532-2.417-47.321-3.073-19.472-.808-38.969-1.1-58.459-1.36-3.249-.043-6.5,1.317-9.776,1.869-16.083,2.714-32.14,1.737-48.217-.245-6.6-.814-13.425-2.254-19.873-1.38a119.281,119.281,0,0,1-55.378-5.681c-6.8-2.323-12.34-1.813-18.811,2.08-12.092,7.276-25.844,5.222-39.021,3.656-19.829-2.357-39.563-5.5-59.338-8.306-.413-.059-.871-.275-1.232-.165-11.937,3.656-24.248,3.331-36.538,3.931-10.3.5-20.575,4.092-30.753,3.671C921.833,874.623,891.192,872.064,858.5,869.869Z" transform="translate(-857.468 -491.319)" fill="#a8978c"/>
          </g>
          <g id="Grupo_13601" data-name="Grupo 13601" transform="translate(0.077)">
            <g id="Grupo_13600" data-name="Grupo 13600">
              <path id="Trazado_21139" data-name="Trazado 21139" d="M858.592,858.442c-.391-14.351-1.1-27.157-1.026-39.96.321-55.716,2.015-255.971,2.563-311.686a66.631,66.631,0,0,1,1.384-12.343c1.518-7.572,6.981-11.619,14.1-12.049,24.417-1.473,48.778-2.914,73.362-2.407,15.635.322,29.942,6.69,45.553,5.681,20.833-1.346,41.519,1.089,61.976,5.269a29.08,29.08,0,0,0,4.985.378c26.555.738,53.492-1.074,79.569,2.844,30.559,4.592,60.541-3.173,90.9.343,14.994,1.736,30.334-2.528,45.515-5.241,17.839-3.188,36.454-3.121,54.682-2.631,11,.3,22,3.691,32.822,6.381,19.934,4.952,39.761,1.945,59.562-.306,11.082-1.261,21.976-4.151,33.055-5.466,8.6-1.021,17.066-.718,25.776,2.3a45.534,45.534,0,0,0,23.169,1.7c13.573-2.837,26.75-.022,39.311,2.54,11.156,2.274,22.195,1.881,33.211,3.295,15.606,2,31.355,2.983,47.069,4.027,18.977,1.262,37.981,2.134,58.42,3.254.561,75.775.606,296.016-2.178,373.076-19.668-1.222-38.155-2.414-56.648-3.473a52.4,52.4,0,0,0-8.594.492c-2.056.224-4.085,1.168-6.114,1.129-22.762-.431-45.748,1.963-67.585-7.814-10.876-4.871-21.984-1.049-32.851,2.006a51.591,51.591,0,0,1-13.2,1.871c-10.522.126-21.076.152-31.567-.541a217.291,217.291,0,0,1-24.441-3.464c-7.736-1.406-15.365-3.405-23.063-5.036a12.105,12.105,0,0,0-4.941-.23c-9.565,2.112-19.073,4.481-28.641,6.583a27.033,27.033,0,0,1-7.4.5c-15.777-.98-31.532-2.417-47.321-3.072-19.473-.808-38.969-1.1-58.459-1.36-3.249-.043-6.5,1.316-9.776,1.869-16.083,2.713-32.14,1.736-48.217-.246-6.6-.813-13.425-2.254-19.874-1.38a119.283,119.283,0,0,1-55.378-5.681c-6.8-2.323-12.339-1.813-18.81,2.081-12.092,7.276-25.844,5.222-39.022,3.656-19.828-2.356-39.563-5.5-59.338-8.306-.412-.059-.871-.274-1.231-.165-11.938,3.656-24.249,3.331-36.539,3.931-10.294.5-20.575,4.093-30.752,3.672C921.925,863.2,891.286,860.637,858.592,858.442Z" transform="translate(-857.561 -479.893)" fill="#f1ece9"/>
            </g>
          </g>
        </g>
      </g>
      <g id="Grupo_13814" data-name="Grupo 13814" transform="translate(849.849 471.414)">
        <g id="Grupo_13813" data-name="Grupo 13813" clip-path="url(#clip-path)">
          <g id="Grupo_13812" data-name="Grupo 13812" transform="translate(-6.606 -218.171)">
            <g id="Grupo_13616" data-name="Grupo 13616" transform="translate(0 5.039)">
              <g id="Grupo_13604" data-name="Grupo 13604" transform="translate(0 0.839)">
                <path id="Trazado_21140" data-name="Trazado 21140" d="M956.732,330.865l-106.255.86-.86-106.255,106.255-.861ZM852.952,329.21l101.266-.82-.82-101.265-101.266.819Z" transform="translate(-849.617 -224.609)" fill="#d9d6c5"/>
              </g>
              <g id="Grupo_13605" data-name="Grupo 13605" transform="translate(103.761)">
                <path id="Trazado_21141" data-name="Trazado 21141" d="M1081.505,329.855l-106.255.86-.86-106.255,106.255-.86ZM977.725,328.2l101.265-.82-.819-101.265-101.266.819Z" transform="translate(-974.39 -223.6)" fill="#d9d6c5"/>
              </g>
              <g id="Grupo_13606" data-name="Grupo 13606" transform="translate(0.84 104.6)">
                <path id="Trazado_21142" data-name="Trazado 21142" d="M957.742,455.638l-106.255.86-.86-106.255,106.255-.86Zm-103.781-1.656,101.266-.819-.82-101.266-101.266.82Z" transform="translate(-850.627 -349.382)" fill="#d9d6c5"/>
              </g>
              <g id="Grupo_13607" data-name="Grupo 13607" transform="translate(104.601 103.76)">
                <path id="Trazado_21143" data-name="Trazado 21143" d="M1082.515,454.628l-106.255.86-.86-106.255,106.255-.86Zm-103.781-1.655,101.266-.82-.819-101.266-101.266.82Z" transform="translate(-975.4 -348.372)" fill="#d9d6c5"/>
              </g>
              <g id="Grupo_13608" data-name="Grupo 13608" transform="translate(53.138 53.558)">
                <path id="Trazado_21144" data-name="Trazado 21144" d="M966.655,340.716l-52.711.427-.427-52.712L966.228,288Zm-51.887-.412,51.049-.413-.413-51.048-51.048.412Z" transform="translate(-913.516 -288.004)" fill="#d9d6c5"/>
              </g>
              <g id="Grupo_13609" data-name="Grupo 13609" transform="translate(0.838 2.098)">
                <path id="Trazado_21145" data-name="Trazado 21145" d="M903.764,278.834l-52.712.427-.427-52.712,52.712-.427Zm-51.887-.411,51.048-.413-.412-51.049-51.049.413Z" transform="translate(-850.625 -226.123)" fill="#d9d6c5"/>
              </g>
              <g id="Grupo_13610" data-name="Grupo 13610" transform="translate(105.019 53.138)">
                <path id="Trazado_21146" data-name="Trazado 21146" d="M1029.041,340.211l-52.711.427-.427-52.712,52.711-.427Zm-51.887-.412,51.048-.413-.413-51.048-51.048.412Z" transform="translate(-975.903 -287.499)" fill="#d9d6c5"/>
              </g>
              <g id="Grupo_13611" data-name="Grupo 13611" transform="translate(156.479 0.838)">
                <path id="Trazado_21147" data-name="Trazado 21147" d="M1090.923,277.32l-52.712.427-.427-52.712,52.712-.427Zm-51.887-.412,51.049-.413-.413-51.048-51.049.412Z" transform="translate(-1037.784 -224.608)" fill="#d9d6c5"/>
              </g>
              <g id="Grupo_13612" data-name="Grupo 13612" transform="translate(53.559 105.438)">
                <path id="Trazado_21148" data-name="Trazado 21148" d="M967.16,403.1l-52.712.427-.427-52.712,52.712-.427Zm-51.887-.412,51.049-.412-.413-51.049-51.049.413Z" transform="translate(-914.022 -350.39)" fill="#d9d6c5"/>
              </g>
              <g id="Grupo_13613" data-name="Grupo 13613" transform="translate(2.098 157.738)">
                <path id="Trazado_21149" data-name="Trazado 21149" d="M905.278,465.993l-52.712.427-.427-52.711,52.711-.427Zm-51.887-.411,51.048-.413-.412-51.049-51.049.413Z" transform="translate(-852.14 -413.281)" fill="#d9d6c5"/>
              </g>
              <g id="Grupo_13614" data-name="Grupo 13614" transform="translate(105.439 105.018)">
                <path id="Trazado_21150" data-name="Trazado 21150" d="M1029.546,402.6l-52.711.427-.427-52.712,52.711-.427Zm-51.887-.411,51.048-.413-.413-51.049-51.048.413Z" transform="translate(-976.408 -349.885)" fill="#d9d6c5"/>
              </g>
              <g id="Grupo_13615" data-name="Grupo 13615" transform="translate(157.739 156.479)">
                <path id="Trazado_21151" data-name="Trazado 21151" d="M1092.437,464.478l-52.711.427-.427-52.712,52.712-.427Zm-51.887-.411,51.048-.413-.413-51.049-51.048.413Z" transform="translate(-1039.299 -411.767)" fill="#d9d6c5"/>
              </g>
            </g>
            <g id="Grupo_13629" data-name="Grupo 13629" transform="translate(207.521 3.36)">
              <g id="Grupo_13617" data-name="Grupo 13617" transform="translate(0 0.839)">
                <path id="Trazado_21152" data-name="Trazado 21152" d="M1206.277,328.845l-106.255.86-.861-106.255,106.256-.861ZM1102.5,327.19l101.266-.819-.82-101.266-101.265.819Z" transform="translate(-1099.162 -222.589)" fill="#d9d6c5"/>
              </g>
              <g id="Grupo_13618" data-name="Grupo 13618" transform="translate(103.761)">
                <path id="Trazado_21153" data-name="Trazado 21153" d="M1331.05,327.835l-106.255.861-.86-106.255,106.255-.86ZM1227.27,326.18l101.266-.819-.82-101.266-101.266.819Z" transform="translate(-1223.935 -221.58)" fill="#d9d6c5"/>
              </g>
              <g id="Grupo_13619" data-name="Grupo 13619" transform="translate(0.84 104.6)">
                <path id="Trazado_21154" data-name="Trazado 21154" d="M1207.287,453.618l-106.255.86-.861-106.255,106.255-.86Zm-103.781-1.655,101.266-.82-.82-101.265-101.265.819Z" transform="translate(-1100.172 -347.362)" fill="#d9d6c5"/>
              </g>
              <g id="Grupo_13620" data-name="Grupo 13620" transform="translate(104.601 103.76)">
                <path id="Trazado_21155" data-name="Trazado 21155" d="M1332.06,452.607l-106.255.86-.86-106.255,106.256-.861Zm-103.781-1.655,101.266-.82-.82-101.266-101.266.82Z" transform="translate(-1224.945 -346.352)" fill="#d9d6c5"/>
              </g>
              <g id="Grupo_13621" data-name="Grupo 13621" transform="translate(53.139 53.558)">
                <path id="Trazado_21156" data-name="Trazado 21156" d="M1216.2,338.7l-52.712.427-.427-52.711,52.712-.427Zm-51.887-.412,51.048-.412-.413-51.049-51.048.413Z" transform="translate(-1163.062 -285.984)" fill="#d9d6c5"/>
              </g>
              <g id="Grupo_13622" data-name="Grupo 13622" transform="translate(0.839 2.098)">
                <path id="Trazado_21157" data-name="Trazado 21157" d="M1153.309,276.815l-52.711.427-.427-52.712,52.712-.427Zm-51.886-.412,51.048-.413-.413-51.049-51.048.413Z" transform="translate(-1100.171 -224.103)" fill="#d9d6c5"/>
              </g>
              <g id="Grupo_13623" data-name="Grupo 13623" transform="translate(105.019 53.138)">
                <path id="Trazado_21158" data-name="Trazado 21158" d="M1278.587,338.191l-52.712.427-.427-52.712,52.712-.427Zm-51.887-.411,51.048-.413-.412-51.049-51.049.413Z" transform="translate(-1225.448 -285.479)" fill="#d9d6c5"/>
              </g>
              <g id="Grupo_13624" data-name="Grupo 13624" transform="translate(156.48 0.838)">
                <path id="Trazado_21159" data-name="Trazado 21159" d="M1340.468,275.3l-52.712.427-.427-52.712,52.712-.427Zm-51.887-.412,51.048-.413-.413-51.048-51.048.413Z" transform="translate(-1287.33 -222.588)" fill="#d9d6c5"/>
              </g>
              <g id="Grupo_13625" data-name="Grupo 13625" transform="translate(53.559 105.439)">
                <path id="Trazado_21160" data-name="Trazado 21160" d="M1216.705,401.083l-52.711.426-.427-52.712,52.712-.426Zm-51.886-.412,51.048-.412-.413-51.049-51.048.413Z" transform="translate(-1163.567 -348.371)" fill="#d9d6c5"/>
              </g>
              <g id="Grupo_13626" data-name="Grupo 13626" transform="translate(2.098 157.738)">
                <path id="Trazado_21161" data-name="Trazado 21161" d="M1154.824,463.973l-52.712.427-.427-52.712,52.712-.427Zm-51.887-.412,51.049-.413-.413-51.049-51.049.413Z" transform="translate(-1101.685 -411.261)" fill="#d9d6c5"/>
              </g>
              <g id="Grupo_13627" data-name="Grupo 13627" transform="translate(105.439 105.019)">
                <path id="Trazado_21162" data-name="Trazado 21162" d="M1279.092,400.577,1226.38,401l-.427-52.712,52.712-.427Zm-51.887-.411,51.048-.413-.413-51.049-51.048.413Z" transform="translate(-1225.953 -347.866)" fill="#d9d6c5"/>
              </g>
              <g id="Grupo_13628" data-name="Grupo 13628" transform="translate(157.739 156.479)">
                <path id="Trazado_21163" data-name="Trazado 21163" d="M1341.983,462.459l-52.712.427-.427-52.712,52.712-.427Zm-51.887-.412,51.049-.413-.413-51.049-51.048.413Z" transform="translate(-1288.844 -409.747)" fill="#d9d6c5"/>
              </g>
            </g>
            <g id="Grupo_13642" data-name="Grupo 13642" transform="translate(415.042 1.68)">
              <g id="Grupo_13630" data-name="Grupo 13630" transform="translate(0 0.84)">
                <path id="Trazado_21164" data-name="Trazado 21164" d="M1455.823,326.825l-106.255.86-.86-106.255,106.255-.86Zm-103.781-1.655,101.265-.819-.819-101.266-101.266.82Z" transform="translate(-1348.708 -220.57)" fill="#d9d6c5"/>
              </g>
              <g id="Grupo_13631" data-name="Grupo 13631" transform="translate(103.76)">
                <path id="Trazado_21165" data-name="Trazado 21165" d="M1580.6,325.815l-106.255.861-.861-106.256,106.256-.86Zm-103.781-1.655,101.266-.819-.819-101.266L1476,222.894Z" transform="translate(-1473.48 -219.56)" fill="#d9d6c5"/>
              </g>
              <g id="Grupo_13632" data-name="Grupo 13632" transform="translate(0.84 104.6)">
                <path id="Trazado_21166" data-name="Trazado 21166" d="M1456.833,451.6l-106.256.86-.86-106.255,106.255-.861Zm-103.781-1.655,101.266-.82-.819-101.265-101.266.819Z" transform="translate(-1349.718 -345.342)" fill="#d9d6c5"/>
              </g>
              <g id="Grupo_13633" data-name="Grupo 13633" transform="translate(104.6 103.76)">
                <path id="Trazado_21167" data-name="Trazado 21167" d="M1581.605,450.587l-106.255.86-.861-106.255,106.255-.861Zm-103.781-1.655,101.266-.819-.819-101.266-101.266.819Z" transform="translate(-1474.49 -344.332)" fill="#d9d6c5"/>
              </g>
              <g id="Grupo_13634" data-name="Grupo 13634" transform="translate(53.138 53.558)">
                <path id="Trazado_21168" data-name="Trazado 21168" d="M1465.746,336.676l-52.712.427-.427-52.712,52.712-.427Zm-51.887-.412,51.048-.412-.413-51.049-51.049.413Z" transform="translate(-1412.607 -283.964)" fill="#d9d6c5"/>
              </g>
              <g id="Grupo_13635" data-name="Grupo 13635" transform="translate(0.838 2.098)">
                <path id="Trazado_21169" data-name="Trazado 21169" d="M1402.854,274.795l-52.712.427-.427-52.712,52.712-.427Zm-51.887-.412,51.048-.413-.413-51.048-51.048.413Z" transform="translate(-1349.716 -222.083)" fill="#d9d6c5"/>
              </g>
              <g id="Grupo_13636" data-name="Grupo 13636" transform="translate(105.019 53.138)">
                <path id="Trazado_21170" data-name="Trazado 21170" d="M1528.132,336.171l-52.712.427-.427-52.711,52.712-.427Zm-51.886-.411,51.048-.413-.413-51.049-51.048.413Z" transform="translate(-1474.994 -283.459)" fill="#d9d6c5"/>
              </g>
              <g id="Grupo_13637" data-name="Grupo 13637" transform="translate(156.479 0.838)">
                <path id="Trazado_21171" data-name="Trazado 21171" d="M1590.013,273.28l-52.712.427-.427-52.712,52.712-.427Zm-51.887-.412,51.048-.413-.413-51.048-51.048.413Z" transform="translate(-1536.875 -220.568)" fill="#d9d6c5"/>
              </g>
              <g id="Grupo_13638" data-name="Grupo 13638" transform="translate(53.558 105.439)">
                <path id="Trazado_21172" data-name="Trazado 21172" d="M1466.251,399.063l-52.712.427-.427-52.712,52.712-.426Zm-51.887-.412,51.048-.413L1465,347.188l-51.049.413Z" transform="translate(-1413.112 -346.351)" fill="#d9d6c5"/>
              </g>
              <g id="Grupo_13639" data-name="Grupo 13639" transform="translate(2.098 157.739)">
                <path id="Trazado_21173" data-name="Trazado 21173" d="M1404.369,461.954l-52.711.427-.427-52.712,52.711-.427Zm-51.887-.412,51.048-.412-.413-51.049-51.048.412Z" transform="translate(-1351.231 -409.242)" fill="#d9d6c5"/>
              </g>
              <g id="Grupo_13640" data-name="Grupo 13640" transform="translate(105.438 105.019)">
                <path id="Trazado_21174" data-name="Trazado 21174" d="M1528.637,398.558l-52.712.427-.427-52.712,52.712-.427Zm-51.887-.412,51.049-.413-.413-51.049-51.048.413Z" transform="translate(-1475.498 -345.846)" fill="#d9d6c5"/>
              </g>
              <g id="Grupo_13641" data-name="Grupo 13641" transform="translate(157.739 156.479)">
                <path id="Trazado_21175" data-name="Trazado 21175" d="M1591.528,460.439l-52.712.427-.427-52.712,52.712-.427Zm-51.886-.412,51.048-.412-.413-51.049-51.048.413Z" transform="translate(-1538.39 -407.727)" fill="#d9d6c5"/>
              </g>
            </g>
            <g id="Grupo_13655" data-name="Grupo 13655" transform="translate(622.563)">
              <g id="Grupo_13643" data-name="Grupo 13643" transform="translate(0 0.84)">
                <path id="Trazado_21176" data-name="Trazado 21176" d="M1705.368,324.806l-106.255.86-.861-106.256,106.255-.86Zm-103.781-1.656,101.266-.819-.82-101.266-101.265.82Z" transform="translate(-1598.253 -218.55)" fill="#d9d6c5"/>
              </g>
              <g id="Grupo_13644" data-name="Grupo 13644" transform="translate(103.761)">
                <path id="Trazado_21177" data-name="Trazado 21177" d="M1830.141,323.795l-106.255.861-.86-106.255,106.255-.86Zm-103.781-1.654,101.265-.82-.819-101.266-101.266.82Z" transform="translate(-1723.026 -217.54)" fill="#d9d6c5"/>
              </g>
              <g id="Grupo_13645" data-name="Grupo 13645" transform="translate(0.84 104.601)">
                <path id="Trazado_21178" data-name="Trazado 21178" d="M1706.378,449.578l-106.256.861-.86-106.255,106.256-.86ZM1602.6,447.923l101.266-.819-.82-101.266-101.266.819Z" transform="translate(-1599.263 -343.323)" fill="#d9d6c5"/>
              </g>
              <g id="Grupo_13646" data-name="Grupo 13646" transform="translate(104.601 103.76)">
                <path id="Trazado_21179" data-name="Trazado 21179" d="M1831.151,448.568l-106.255.861-.86-106.256,106.255-.861Zm-103.781-1.655,101.265-.819-.819-101.266-101.266.82Z" transform="translate(-1724.036 -342.312)" fill="#d9d6c5"/>
              </g>
              <g id="Grupo_13647" data-name="Grupo 13647" transform="translate(53.138 53.559)">
                <path id="Trazado_21180" data-name="Trazado 21180" d="M1715.291,334.657l-52.712.427-.427-52.712,52.712-.426Zm-51.887-.412,51.048-.413-.413-51.049-51.048.413Z" transform="translate(-1662.152 -281.945)" fill="#d9d6c5"/>
              </g>
              <g id="Grupo_13648" data-name="Grupo 13648" transform="translate(0.838 2.098)">
                <path id="Trazado_21181" data-name="Trazado 21181" d="M1652.4,272.775l-52.712.427-.427-52.712,52.712-.427Zm-51.887-.412,51.048-.413-.412-51.048-51.049.413Z" transform="translate(-1599.261 -220.063)" fill="#d9d6c5"/>
              </g>
              <g id="Grupo_13649" data-name="Grupo 13649" transform="translate(105.019 53.139)">
                <path id="Trazado_21182" data-name="Trazado 21182" d="M1777.677,334.151l-52.712.427-.427-52.711,52.712-.427Zm-51.887-.411,51.048-.413-.413-51.049-51.048.413Z" transform="translate(-1724.539 -281.44)" fill="#d9d6c5"/>
              </g>
              <g id="Grupo_13650" data-name="Grupo 13650" transform="translate(156.479 0.838)">
                <path id="Trazado_21183" data-name="Trazado 21183" d="M1839.559,271.26l-52.712.427-.427-52.712,52.712-.427Zm-51.887-.411,51.049-.413-.413-51.049-51.048.413Z" transform="translate(-1786.42 -218.548)" fill="#d9d6c5"/>
              </g>
              <g id="Grupo_13651" data-name="Grupo 13651" transform="translate(53.559 105.439)">
                <path id="Trazado_21184" data-name="Trazado 21184" d="M1715.8,397.043l-52.712.427-.426-52.712,52.712-.427Zm-51.887-.412,51.049-.413-.413-51.048-51.048.413Z" transform="translate(-1662.658 -344.331)" fill="#d9d6c5"/>
              </g>
              <g id="Grupo_13652" data-name="Grupo 13652" transform="translate(2.098 157.739)">
                <path id="Trazado_21185" data-name="Trazado 21185" d="M1653.915,459.934l-52.712.427-.427-52.712,52.712-.427Zm-51.887-.411,51.048-.413-.413-51.049-51.048.412Z" transform="translate(-1600.776 -407.222)" fill="#d9d6c5"/>
              </g>
              <g id="Grupo_13653" data-name="Grupo 13653" transform="translate(105.439 105.019)">
                <path id="Trazado_21186" data-name="Trazado 21186" d="M1778.182,396.538l-52.711.427-.427-52.712,52.712-.427Zm-51.887-.412,51.048-.413-.413-51.048-51.048.413Z" transform="translate(-1725.044 -343.826)" fill="#d9d6c5"/>
              </g>
              <g id="Grupo_13654" data-name="Grupo 13654" transform="translate(157.739 156.479)">
                <path id="Trazado_21187" data-name="Trazado 21187" d="M1841.074,458.419l-52.712.427-.427-52.712,52.712-.427Zm-51.887-.412,51.048-.412-.413-51.049-51.048.413Z" transform="translate(-1787.935 -405.707)" fill="#d9d6c5"/>
              </g>
            </g>
            <g id="Grupo_13668" data-name="Grupo 13668" transform="translate(1.68 212.56)">
              <g id="Grupo_13656" data-name="Grupo 13656" transform="translate(0 0.84)">
                <path id="Trazado_21188" data-name="Trazado 21188" d="M958.752,580.41l-106.255.86-.86-106.255,106.255-.86Zm-103.781-1.655,101.265-.819-.819-101.266-101.266.819Z" transform="translate(-851.637 -474.155)" fill="#d9d6c5"/>
              </g>
              <g id="Grupo_13657" data-name="Grupo 13657" transform="translate(103.761)">
                <path id="Trazado_21189" data-name="Trazado 21189" d="M1083.525,579.4l-106.255.86L976.41,474l106.255-.86Zm-103.781-1.656,101.266-.819-.819-101.266-101.266.82Z" transform="translate(-976.41 -473.145)" fill="#d9d6c5"/>
              </g>
              <g id="Grupo_13658" data-name="Grupo 13658" transform="translate(0.84 104.6)">
                <path id="Trazado_21190" data-name="Trazado 21190" d="M959.762,705.182l-106.255.86-.86-106.256,106.255-.86Zm-103.781-1.655,101.265-.82-.819-101.265-101.266.819Z" transform="translate(-852.647 -598.927)" fill="#d9d6c5"/>
              </g>
              <g id="Grupo_13659" data-name="Grupo 13659" transform="translate(104.6 103.761)">
                <path id="Trazado_21191" data-name="Trazado 21191" d="M1084.534,704.173l-106.255.86-.861-106.255,106.256-.86Zm-103.781-1.655,101.266-.819-.82-101.266-101.265.819Z" transform="translate(-977.419 -597.918)" fill="#d9d6c5"/>
              </g>
              <g id="Grupo_13660" data-name="Grupo 13660" transform="translate(53.138 53.558)">
                <path id="Trazado_21192" data-name="Trazado 21192" d="M968.675,590.261l-52.712.427-.427-52.711,52.712-.427Zm-51.887-.411,51.049-.413-.413-51.049-51.049.413Z" transform="translate(-915.536 -537.549)" fill="#d9d6c5"/>
              </g>
              <g id="Grupo_13661" data-name="Grupo 13661" transform="translate(0.838 2.098)">
                <path id="Trazado_21193" data-name="Trazado 21193" d="M905.783,528.38l-52.711.427-.427-52.712,52.712-.427Zm-51.887-.412,51.048-.413-.413-51.049-51.048.413Z" transform="translate(-852.645 -475.668)" fill="#d9d6c5"/>
              </g>
              <g id="Grupo_13662" data-name="Grupo 13662" transform="translate(105.019 53.138)">
                <path id="Trazado_21194" data-name="Trazado 21194" d="M1031.061,589.756l-52.712.427-.427-52.711,52.711-.427Zm-51.887-.411,51.049-.413-.413-51.049-51.048.413Z" transform="translate(-977.923 -537.044)" fill="#d9d6c5"/>
              </g>
              <g id="Grupo_13663" data-name="Grupo 13663" transform="translate(156.479 0.838)">
                <path id="Trazado_21195" data-name="Trazado 21195" d="M1092.942,526.865l-52.712.427-.427-52.712,52.712-.427Zm-51.887-.412,51.048-.413-.413-51.048-51.048.413Z" transform="translate(-1039.804 -474.153)" fill="#d9d6c5"/>
              </g>
              <g id="Grupo_13664" data-name="Grupo 13664" transform="translate(53.558 105.439)">
                <path id="Trazado_21196" data-name="Trazado 21196" d="M969.18,652.647l-52.712.427-.427-52.712,52.712-.427Zm-51.887-.411,51.049-.413-.413-51.049-51.049.413Z" transform="translate(-916.041 -599.936)" fill="#d9d6c5"/>
              </g>
              <g id="Grupo_13665" data-name="Grupo 13665" transform="translate(2.098 157.739)">
                <path id="Trazado_21197" data-name="Trazado 21197" d="M907.3,715.539l-52.712.427-.427-52.712,52.712-.427Zm-51.887-.412,51.048-.413-.413-51.048L855,664.079Z" transform="translate(-854.16 -662.827)" fill="#d9d6c5"/>
              </g>
              <g id="Grupo_13666" data-name="Grupo 13666" transform="translate(105.439 105.018)">
                <path id="Trazado_21198" data-name="Trazado 21198" d="M1031.566,652.142l-52.712.427-.427-52.712,52.712-.427Zm-51.887-.411,51.049-.413-.413-51.049-51.048.413Z" transform="translate(-978.428 -599.43)" fill="#d9d6c5"/>
              </g>
              <g id="Grupo_13667" data-name="Grupo 13667" transform="translate(157.739 156.479)">
                <path id="Trazado_21199" data-name="Trazado 21199" d="M1094.457,714.024l-52.712.427-.427-52.712,52.712-.427Zm-51.887-.411,51.048-.413-.413-51.049-51.048.412Z" transform="translate(-1041.319 -661.312)" fill="#d9d6c5"/>
              </g>
            </g>
            <g id="Grupo_13681" data-name="Grupo 13681" transform="translate(209.2 210.88)">
              <g id="Grupo_13669" data-name="Grupo 13669" transform="translate(0 0.84)">
                <path id="Trazado_21200" data-name="Trazado 21200" d="M1208.3,578.39l-106.255.861-.86-106.255,106.255-.86Zm-103.781-1.654,101.266-.82-.82-101.266-101.266.82Z" transform="translate(-1101.182 -472.135)" fill="#d9d6c5"/>
              </g>
              <g id="Grupo_13670" data-name="Grupo 13670" transform="translate(103.761)">
                <path id="Trazado_21201" data-name="Trazado 21201" d="M1333.07,577.381l-106.255.86-.86-106.256,106.255-.86Zm-103.781-1.656,101.265-.819-.819-101.266-101.266.82Z" transform="translate(-1225.955 -471.125)" fill="#d9d6c5"/>
              </g>
              <g id="Grupo_13671" data-name="Grupo 13671" transform="translate(0.84 104.6)">
                <path id="Trazado_21202" data-name="Trazado 21202" d="M1209.307,703.162l-106.255.86-.86-106.255,106.255-.861Zm-103.781-1.655,101.266-.82-.82-101.265-101.266.82Z" transform="translate(-1102.192 -596.907)" fill="#d9d6c5"/>
              </g>
              <g id="Grupo_13672" data-name="Grupo 13672" transform="translate(104.601 103.761)">
                <path id="Trazado_21203" data-name="Trazado 21203" d="M1334.08,702.153l-106.255.86-.86-106.255,106.255-.86ZM1230.3,700.5l101.265-.819-.819-101.266-101.266.819Z" transform="translate(-1226.965 -595.898)" fill="#d9d6c5"/>
              </g>
              <g id="Grupo_13673" data-name="Grupo 13673" transform="translate(53.139 53.558)">
                <path id="Trazado_21204" data-name="Trazado 21204" d="M1218.22,588.241l-52.711.427-.427-52.711,52.712-.427Zm-51.887-.411,51.049-.413-.413-51.049-51.048.413Z" transform="translate(-1165.082 -535.529)" fill="#d9d6c5"/>
              </g>
              <g id="Grupo_13674" data-name="Grupo 13674" transform="translate(0.838 2.098)">
                <path id="Trazado_21205" data-name="Trazado 21205" d="M1155.329,526.36l-52.712.427-.427-52.711,52.712-.427Zm-51.887-.412,51.049-.412-.413-51.049-51.049.412Z" transform="translate(-1102.19 -473.648)" fill="#d9d6c5"/>
              </g>
              <g id="Grupo_13675" data-name="Grupo 13675" transform="translate(105.019 53.138)">
                <path id="Trazado_21206" data-name="Trazado 21206" d="M1280.606,587.736l-52.712.427-.427-52.711,52.712-.427Zm-51.887-.411,51.048-.413-.413-51.049-51.049.413Z" transform="translate(-1227.468 -535.024)" fill="#d9d6c5"/>
              </g>
              <g id="Grupo_13676" data-name="Grupo 13676" transform="translate(156.479 0.838)">
                <path id="Trazado_21207" data-name="Trazado 21207" d="M1342.488,524.845l-52.712.427-.427-52.711,52.712-.427Zm-51.887-.412,51.049-.412-.413-51.049-51.049.413Z" transform="translate(-1289.349 -472.133)" fill="#d9d6c5"/>
              </g>
              <g id="Grupo_13677" data-name="Grupo 13677" transform="translate(53.559 105.439)">
                <path id="Trazado_21208" data-name="Trazado 21208" d="M1218.725,650.628l-52.711.427-.427-52.712,52.712-.427Zm-51.887-.412,51.049-.413-.413-51.049-51.048.413Z" transform="translate(-1165.587 -597.916)" fill="#d9d6c5"/>
              </g>
              <g id="Grupo_13678" data-name="Grupo 13678" transform="translate(2.098 157.739)">
                <path id="Trazado_21209" data-name="Trazado 21209" d="M1156.843,713.519l-52.712.427-.427-52.711,52.712-.427Zm-51.887-.412,51.048-.413-.412-51.048-51.049.413Z" transform="translate(-1103.705 -660.807)" fill="#d9d6c5"/>
              </g>
              <g id="Grupo_13679" data-name="Grupo 13679" transform="translate(105.439 105.019)">
                <path id="Trazado_21210" data-name="Trazado 21210" d="M1281.111,650.123l-52.711.427-.427-52.711,52.712-.427Zm-51.886-.412,51.048-.412-.413-51.05-51.048.413Z" transform="translate(-1227.973 -597.411)" fill="#d9d6c5"/>
              </g>
              <g id="Grupo_13680" data-name="Grupo 13680" transform="translate(157.739 156.479)">
                <path id="Trazado_21211" data-name="Trazado 21211" d="M1344,712l-52.712.427-.427-52.711,52.712-.427Zm-51.887-.411,51.048-.413-.412-51.049-51.049.413Z" transform="translate(-1290.864 -659.292)" fill="#d9d6c5"/>
              </g>
            </g>
            <g id="Grupo_13694" data-name="Grupo 13694" transform="translate(416.722 209.2)">
              <g id="Grupo_13682" data-name="Grupo 13682" transform="translate(0 0.84)">
                <path id="Trazado_21212" data-name="Trazado 21212" d="M1457.843,576.37l-106.255.86-.86-106.255,106.255-.86Zm-103.781-1.655,101.266-.82-.819-101.266-101.266.82Z" transform="translate(-1350.728 -470.115)" fill="#d9d6c5"/>
              </g>
              <g id="Grupo_13683" data-name="Grupo 13683" transform="translate(103.76)">
                <path id="Trazado_21213" data-name="Trazado 21213" d="M1582.615,575.361l-106.255.86-.861-106.256,106.255-.86Zm-103.781-1.655,101.266-.82-.82-101.265-101.265.819Z" transform="translate(-1475.5 -469.105)" fill="#d9d6c5"/>
              </g>
              <g id="Grupo_13684" data-name="Grupo 13684" transform="translate(0.839 104.601)">
                <path id="Trazado_21214" data-name="Trazado 21214" d="M1458.852,701.144,1352.6,702l-.861-106.256,106.255-.86Zm-103.781-1.656,101.266-.819-.819-101.266-101.266.82Z" transform="translate(-1351.737 -594.888)" fill="#d9d6c5"/>
              </g>
              <g id="Grupo_13685" data-name="Grupo 13685" transform="translate(104.6 103.761)">
                <path id="Trazado_21215" data-name="Trazado 21215" d="M1583.625,700.133l-106.255.861-.861-106.255,106.255-.86Zm-103.781-1.654,101.266-.82-.82-101.266-101.265.82Z" transform="translate(-1476.51 -593.878)" fill="#d9d6c5"/>
              </g>
              <g id="Grupo_13686" data-name="Grupo 13686" transform="translate(53.138 53.559)">
                <path id="Trazado_21216" data-name="Trazado 21216" d="M1467.766,586.221l-52.712.427-.427-52.711,52.712-.427Zm-51.887-.411,51.048-.413-.413-51.049-51.048.413Z" transform="translate(-1414.627 -533.51)" fill="#d9d6c5"/>
              </g>
              <g id="Grupo_13687" data-name="Grupo 13687" transform="translate(0.838 2.098)">
                <path id="Trazado_21217" data-name="Trazado 21217" d="M1404.874,524.34l-52.712.427-.427-52.712,52.711-.427Zm-51.887-.411,51.048-.413-.413-51.049-51.048.413Z" transform="translate(-1351.736 -471.628)" fill="#d9d6c5"/>
              </g>
              <g id="Grupo_13688" data-name="Grupo 13688" transform="translate(105.018 53.138)">
                <path id="Trazado_21218" data-name="Trazado 21218" d="M1530.152,585.716l-52.712.427-.427-52.712,52.712-.427Zm-51.887-.412,51.049-.413-.413-51.049-51.049.413Z" transform="translate(-1477.013 -533.004)" fill="#d9d6c5"/>
              </g>
              <g id="Grupo_13689" data-name="Grupo 13689" transform="translate(156.479 0.839)">
                <path id="Trazado_21219" data-name="Trazado 21219" d="M1592.033,522.826l-52.712.426-.427-52.712,52.712-.426Zm-51.887-.412,51.048-.412-.413-51.049-51.048.413Z" transform="translate(-1538.895 -470.114)" fill="#d9d6c5"/>
              </g>
              <g id="Grupo_13690" data-name="Grupo 13690" transform="translate(53.558 105.439)">
                <path id="Trazado_21220" data-name="Trazado 21220" d="M1468.27,648.608l-52.712.427-.427-52.711,52.711-.427Zm-51.887-.412,51.048-.413-.413-51.048-51.048.413Z" transform="translate(-1415.132 -595.896)" fill="#d9d6c5"/>
              </g>
              <g id="Grupo_13691" data-name="Grupo 13691" transform="translate(2.098 157.739)">
                <path id="Trazado_21221" data-name="Trazado 21221" d="M1406.389,711.5l-52.711.427-.427-52.712,52.712-.427Zm-51.887-.411,51.048-.413-.413-51.049-51.048.413Z" transform="translate(-1353.251 -658.787)" fill="#d9d6c5"/>
              </g>
              <g id="Grupo_13692" data-name="Grupo 13692" transform="translate(105.438 105.019)">
                <path id="Trazado_21222" data-name="Trazado 21222" d="M1530.657,648.1l-52.712.427-.427-52.712,52.712-.427Zm-51.887-.412,51.048-.412-.413-51.049-51.048.413Z" transform="translate(-1477.518 -595.391)" fill="#d9d6c5"/>
              </g>
              <g id="Grupo_13693" data-name="Grupo 13693" transform="translate(157.738 156.479)">
                <path id="Trazado_21223" data-name="Trazado 21223" d="M1593.548,709.984l-52.711.427-.427-52.712,52.712-.427Zm-51.886-.411,51.048-.413-.413-51.049-51.048.413Z" transform="translate(-1540.409 -657.272)" fill="#d9d6c5"/>
              </g>
            </g>
            <g id="Grupo_13707" data-name="Grupo 13707" transform="translate(624.242 207.521)">
              <g id="Grupo_13695" data-name="Grupo 13695" transform="translate(0 0.84)">
                <path id="Trazado_21224" data-name="Trazado 21224" d="M1707.388,574.35l-106.255.86-.86-106.255,106.256-.861ZM1603.608,572.7l101.266-.82-.82-101.265-101.266.819Z" transform="translate(-1600.273 -468.095)" fill="#d9d6c5"/>
              </g>
              <g id="Grupo_13696" data-name="Grupo 13696" transform="translate(103.761)">
                <path id="Trazado_21225" data-name="Trazado 21225" d="M1832.161,573.341l-106.255.86-.86-106.255,106.255-.861Zm-103.781-1.655,101.266-.82-.819-101.265-101.266.819Z" transform="translate(-1725.046 -467.085)" fill="#d9d6c5"/>
              </g>
              <g id="Grupo_13697" data-name="Grupo 13697" transform="translate(0.84 104.601)">
                <path id="Trazado_21226" data-name="Trazado 21226" d="M1708.4,699.123l-106.255.86-.86-106.255,106.255-.86Zm-103.781-1.655,101.266-.82-.82-101.266-101.266.82Z" transform="translate(-1601.283 -592.868)" fill="#d9d6c5"/>
              </g>
              <g id="Grupo_13698" data-name="Grupo 13698" transform="translate(104.601 103.761)">
                <path id="Trazado_21227" data-name="Trazado 21227" d="M1833.171,698.114l-106.255.86-.86-106.255,106.255-.86Zm-103.781-1.655,101.266-.82-.819-101.266-101.266.82Z" transform="translate(-1726.056 -591.858)" fill="#d9d6c5"/>
              </g>
              <g id="Grupo_13699" data-name="Grupo 13699" transform="translate(53.138 53.559)">
                <path id="Trazado_21228" data-name="Trazado 21228" d="M1717.311,584.2l-52.712.427-.427-52.711,52.712-.427Zm-51.887-.412,51.048-.413-.413-51.048-51.048.412Z" transform="translate(-1664.172 -531.49)" fill="#d9d6c5"/>
              </g>
              <g id="Grupo_13700" data-name="Grupo 13700" transform="translate(0.838 2.099)">
                <path id="Trazado_21229" data-name="Trazado 21229" d="M1654.42,522.32l-52.712.427-.427-52.711,52.712-.427Zm-51.887-.411,51.048-.413-.413-51.049-51.049.413Z" transform="translate(-1601.281 -469.609)" fill="#d9d6c5"/>
              </g>
              <g id="Grupo_13701" data-name="Grupo 13701" transform="translate(105.019 53.139)">
                <path id="Trazado_21230" data-name="Trazado 21230" d="M1779.7,583.7l-52.711.427-.427-52.711,52.712-.427Zm-51.887-.412,51.048-.412-.413-51.049-51.048.412Z" transform="translate(-1726.559 -530.985)" fill="#d9d6c5"/>
              </g>
              <g id="Grupo_13702" data-name="Grupo 13702" transform="translate(156.479 0.839)">
                <path id="Trazado_21231" data-name="Trazado 21231" d="M1841.579,520.806l-52.712.427-.427-52.712,52.713-.427Zm-51.887-.412,51.048-.413-.413-51.048-51.049.412Z" transform="translate(-1788.44 -468.094)" fill="#d9d6c5"/>
              </g>
              <g id="Grupo_13703" data-name="Grupo 13703" transform="translate(53.558 105.439)">
                <path id="Trazado_21232" data-name="Trazado 21232" d="M1717.816,646.588l-52.712.427-.427-52.712,52.712-.427Zm-51.887-.412,51.048-.412-.412-51.049-51.048.413Z" transform="translate(-1664.677 -593.876)" fill="#d9d6c5"/>
              </g>
              <g id="Grupo_13704" data-name="Grupo 13704" transform="translate(2.098 157.739)">
                <path id="Trazado_21233" data-name="Trazado 21233" d="M1655.934,709.479l-52.712.427-.427-52.711,52.711-.427Zm-51.887-.411,51.048-.413-.413-51.049-51.048.413Z" transform="translate(-1602.796 -656.767)" fill="#d9d6c5"/>
              </g>
              <g id="Grupo_13705" data-name="Grupo 13705" transform="translate(105.439 105.019)">
                <path id="Trazado_21234" data-name="Trazado 21234" d="M1780.2,646.083l-52.711.427-.427-52.712,52.712-.427Zm-51.887-.411,51.048-.413-.413-51.049-51.048.413Z" transform="translate(-1727.064 -593.371)" fill="#d9d6c5"/>
              </g>
              <g id="Grupo_13706" data-name="Grupo 13706" transform="translate(157.739 156.48)">
                <path id="Trazado_21235" data-name="Trazado 21235" d="M1843.093,707.965l-52.711.427-.427-52.711,52.712-.427Zm-51.887-.412,51.048-.413-.413-51.049-51.048.413Z" transform="translate(-1789.955 -655.253)" fill="#d9d6c5"/>
              </g>
            </g>
            <g id="Grupo_13720" data-name="Grupo 13720" transform="translate(3.36 420.081)">
              <g id="Grupo_13708" data-name="Grupo 13708" transform="translate(0 0.84)">
                <path id="Trazado_21236" data-name="Trazado 21236" d="M960.772,829.956l-106.255.86-.86-106.255,106.255-.86ZM856.991,828.3l101.266-.82-.819-101.266-101.266.82Z" transform="translate(-853.657 -723.7)" fill="#d9d6c5"/>
              </g>
              <g id="Grupo_13709" data-name="Grupo 13709" transform="translate(103.76)">
                <path id="Trazado_21237" data-name="Trazado 21237" d="M1085.544,828.946l-106.255.86-.861-106.255,106.256-.86Zm-103.781-1.655,101.266-.82-.82-101.266-101.265.82Z" transform="translate(-978.429 -722.69)" fill="#d9d6c5"/>
              </g>
              <g id="Grupo_13710" data-name="Grupo 13710" transform="translate(0.839 104.601)">
                <path id="Trazado_21238" data-name="Trazado 21238" d="M961.781,954.728l-106.255.86-.861-106.255,106.255-.86ZM858,953.073l101.266-.819-.819-101.266-101.266.82Z" transform="translate(-854.666 -848.473)" fill="#d9d6c5"/>
              </g>
              <g id="Grupo_13711" data-name="Grupo 13711" transform="translate(104.6 103.761)">
                <path id="Trazado_21239" data-name="Trazado 21239" d="M1086.554,953.718l-106.255.861-.86-106.255,106.255-.86Zm-103.781-1.655,101.266-.819-.82-101.266-101.266.82Z" transform="translate(-979.439 -847.463)" fill="#d9d6c5"/>
              </g>
              <g id="Grupo_13712" data-name="Grupo 13712" transform="translate(53.138 53.558)">
                <path id="Trazado_21240" data-name="Trazado 21240" d="M970.694,839.806l-52.712.427-.427-52.712,52.712-.427Zm-51.887-.412,51.048-.413-.413-51.049-51.048.413Z" transform="translate(-917.556 -787.094)" fill="#d9d6c5"/>
              </g>
              <g id="Grupo_13713" data-name="Grupo 13713" transform="translate(0.838 2.098)">
                <path id="Trazado_21241" data-name="Trazado 21241" d="M907.8,777.925l-52.712.427-.427-52.711,52.712-.427Zm-51.887-.411,51.048-.413-.413-51.049-51.048.413Z" transform="translate(-854.665 -725.213)" fill="#d9d6c5"/>
              </g>
              <g id="Grupo_13714" data-name="Grupo 13714" transform="translate(105.018 53.139)">
                <path id="Trazado_21242" data-name="Trazado 21242" d="M1033.081,839.3l-52.712.427-.427-52.712,52.712-.427Zm-51.887-.412,51.049-.413-.413-51.048-51.049.412Z" transform="translate(-979.942 -786.59)" fill="#d9d6c5"/>
              </g>
              <g id="Grupo_13715" data-name="Grupo 13715" transform="translate(156.479 0.838)">
                <path id="Trazado_21243" data-name="Trazado 21243" d="M1094.962,776.41l-52.711.427-.427-52.712,52.712-.427ZM1043.076,776l51.048-.413-.413-51.049-51.048.413Z" transform="translate(-1041.824 -723.698)" fill="#d9d6c5"/>
              </g>
              <g id="Grupo_13716" data-name="Grupo 13716" transform="translate(53.558 105.439)">
                <path id="Trazado_21244" data-name="Trazado 21244" d="M971.2,902.193l-52.712.427-.427-52.711,52.712-.427Zm-51.887-.412,51.048-.413-.413-51.048-51.048.412Z" transform="translate(-918.061 -849.481)" fill="#d9d6c5"/>
              </g>
              <g id="Grupo_13717" data-name="Grupo 13717" transform="translate(2.098 157.739)">
                <path id="Trazado_21245" data-name="Trazado 21245" d="M909.318,965.084l-52.712.427L856.18,912.8l52.711-.427Zm-51.887-.412,51.049-.412-.413-51.049-51.048.413Z" transform="translate(-856.18 -912.372)" fill="#d9d6c5"/>
              </g>
              <g id="Grupo_13718" data-name="Grupo 13718" transform="translate(105.438 105.019)">
                <path id="Trazado_21246" data-name="Trazado 21246" d="M1033.586,901.688l-52.712.427-.427-52.712,52.712-.427Zm-51.887-.412,51.049-.413-.413-51.048-51.049.413Z" transform="translate(-980.447 -848.976)" fill="#d9d6c5"/>
              </g>
              <g id="Grupo_13719" data-name="Grupo 13719" transform="translate(157.739 156.479)">
                <path id="Trazado_21247" data-name="Trazado 21247" d="M1096.477,963.569l-52.711.427-.427-52.712,52.712-.427Zm-51.887-.411,51.048-.413-.413-51.049-51.048.413Z" transform="translate(-1043.339 -910.857)" fill="#d9d6c5"/>
              </g>
            </g>
            <g id="Grupo_13733" data-name="Grupo 13733" transform="translate(210.88 418.401)">
              <g id="Grupo_13721" data-name="Grupo 13721" transform="translate(0 0.84)">
                <path id="Trazado_21248" data-name="Trazado 21248" d="M1210.317,827.936l-106.255.86-.86-106.255,106.255-.861Zm-103.781-1.655,101.266-.82-.82-101.266-101.266.82Z" transform="translate(-1103.202 -721.68)" fill="#d9d6c5"/>
              </g>
              <g id="Grupo_13722" data-name="Grupo 13722" transform="translate(103.761)">
                <path id="Trazado_21249" data-name="Trazado 21249" d="M1335.09,826.925l-106.255.86-.86-106.255,106.255-.86Zm-103.781-1.655,101.265-.82-.819-101.265L1230.49,724Z" transform="translate(-1227.975 -720.67)" fill="#d9d6c5"/>
              </g>
              <g id="Grupo_13723" data-name="Grupo 13723" transform="translate(0.84 104.601)">
                <path id="Trazado_21250" data-name="Trazado 21250" d="M1211.328,952.708l-106.256.86-.86-106.255,106.255-.86Zm-103.781-1.656,101.265-.819-.819-101.266-101.266.82Z" transform="translate(-1104.212 -846.453)" fill="#d9d6c5"/>
              </g>
              <g id="Grupo_13724" data-name="Grupo 13724" transform="translate(104.601 103.761)">
                <path id="Trazado_21251" data-name="Trazado 21251" d="M1336.1,951.7l-106.255.86-.86-106.255,106.255-.86Zm-103.781-1.655,101.266-.82-.819-101.266-101.266.82Z" transform="translate(-1228.985 -845.443)" fill="#d9d6c5"/>
              </g>
              <g id="Grupo_13725" data-name="Grupo 13725" transform="translate(53.138 53.559)">
                <path id="Trazado_21252" data-name="Trazado 21252" d="M1220.24,837.787l-52.712.427L1167.1,785.5l52.713-.427Zm-51.887-.412,51.049-.413-.413-51.048-51.049.412Z" transform="translate(-1167.101 -785.075)" fill="#d9d6c5"/>
              </g>
              <g id="Grupo_13726" data-name="Grupo 13726" transform="translate(0.838 2.098)">
                <path id="Trazado_21253" data-name="Trazado 21253" d="M1157.348,775.9l-52.712.427-.427-52.711,52.712-.427Zm-51.887-.411,51.048-.413-.412-51.049-51.049.413Z" transform="translate(-1104.21 -723.193)" fill="#d9d6c5"/>
              </g>
              <g id="Grupo_13727" data-name="Grupo 13727" transform="translate(105.019 53.139)">
                <path id="Trazado_21254" data-name="Trazado 21254" d="M1282.626,837.282l-52.711.427L1229.488,785l52.712-.427Zm-51.886-.412,51.048-.413-.413-51.048-51.048.413Z" transform="translate(-1229.488 -784.57)" fill="#d9d6c5"/>
              </g>
              <g id="Grupo_13728" data-name="Grupo 13728" transform="translate(156.479 0.839)">
                <path id="Trazado_21255" data-name="Trazado 21255" d="M1344.507,774.391l-52.712.427-.427-52.711,52.712-.427Zm-51.886-.412,51.048-.413-.412-51.049-51.049.413Z" transform="translate(-1291.369 -721.679)" fill="#d9d6c5"/>
              </g>
              <g id="Grupo_13729" data-name="Grupo 13729" transform="translate(53.558 105.439)">
                <path id="Trazado_21256" data-name="Trazado 21256" d="M1220.745,900.172l-52.712.427-.427-52.712,52.713-.427Zm-51.887-.411,51.049-.413-.413-51.049-51.049.413Z" transform="translate(-1167.606 -847.461)" fill="#d9d6c5"/>
              </g>
              <g id="Grupo_13730" data-name="Grupo 13730" transform="translate(2.098 157.74)">
                <path id="Trazado_21257" data-name="Trazado 21257" d="M1158.863,963.065l-52.712.426-.427-52.711,52.712-.426Zm-51.887-.413,51.048-.412-.413-51.049-51.048.413Z" transform="translate(-1105.725 -910.353)" fill="#d9d6c5"/>
              </g>
              <g id="Grupo_13731" data-name="Grupo 13731" transform="translate(105.439 105.019)">
                <path id="Trazado_21258" data-name="Trazado 21258" d="M1283.131,899.668l-52.712.427-.427-52.711,52.712-.427Zm-51.886-.411,51.048-.413-.413-51.049-51.048.413Z" transform="translate(-1229.993 -846.956)" fill="#d9d6c5"/>
              </g>
              <g id="Grupo_13732" data-name="Grupo 13732" transform="translate(157.739 156.479)">
                <path id="Trazado_21259" data-name="Trazado 21259" d="M1346.023,961.549l-52.713.426-.427-52.711,52.712-.427Zm-51.887-.412,51.048-.413-.413-51.049-51.048.413Z" transform="translate(-1292.884 -908.837)" fill="#d9d6c5"/>
              </g>
            </g>
            <g id="Grupo_13746" data-name="Grupo 13746" transform="translate(418.401 416.722)">
              <g id="Grupo_13734" data-name="Grupo 13734" transform="translate(0 0.84)">
                <path id="Trazado_21260" data-name="Trazado 21260" d="M1459.862,825.916l-106.255.86-.861-106.255,106.256-.86Zm-103.781-1.655,101.266-.819-.819-101.266-101.266.819Z" transform="translate(-1352.747 -719.661)" fill="#d9d6c5"/>
              </g>
              <g id="Grupo_13735" data-name="Grupo 13735" transform="translate(103.761)">
                <path id="Trazado_21261" data-name="Trazado 21261" d="M1584.635,824.906l-106.255.86-.86-106.255,106.255-.86Zm-103.781-1.655,101.266-.82-.82-101.265-101.266.82Z" transform="translate(-1477.52 -718.651)" fill="#d9d6c5"/>
              </g>
              <g id="Grupo_13736" data-name="Grupo 13736" transform="translate(0.84 104.6)">
                <path id="Trazado_21262" data-name="Trazado 21262" d="M1460.872,950.689l-106.255.86-.861-106.256,106.255-.86Zm-103.781-1.655,101.266-.82-.82-101.266-101.265.82Z" transform="translate(-1353.757 -844.433)" fill="#d9d6c5"/>
              </g>
              <g id="Grupo_13737" data-name="Grupo 13737" transform="translate(104.601 103.76)">
                <path id="Trazado_21263" data-name="Trazado 21263" d="M1585.645,949.678l-106.255.86-.86-106.255,106.255-.861Zm-103.781-1.655,101.266-.82-.82-101.266-101.266.82Z" transform="translate(-1478.53 -843.423)" fill="#d9d6c5"/>
              </g>
              <g id="Grupo_13738" data-name="Grupo 13738" transform="translate(53.139 53.558)">
                <path id="Trazado_21264" data-name="Trazado 21264" d="M1469.785,835.767l-52.711.427-.427-52.712,52.712-.427Zm-51.887-.412,51.048-.412-.413-51.049-51.048.413Z" transform="translate(-1416.647 -783.055)" fill="#d9d6c5"/>
              </g>
              <g id="Grupo_13739" data-name="Grupo 13739" transform="translate(0.838 2.098)">
                <path id="Trazado_21265" data-name="Trazado 21265" d="M1406.894,773.885l-52.712.427-.427-52.712,52.712-.427Zm-51.887-.411,51.049-.413-.413-51.049-51.048.413Z" transform="translate(-1353.755 -721.174)" fill="#d9d6c5"/>
              </g>
              <g id="Grupo_13740" data-name="Grupo 13740" transform="translate(105.019 53.138)">
                <path id="Trazado_21266" data-name="Trazado 21266" d="M1532.172,835.261l-52.712.427-.427-52.712,52.712-.427Zm-51.887-.412,51.048-.413-.413-51.048-51.048.413Z" transform="translate(-1479.033 -782.55)" fill="#d9d6c5"/>
              </g>
              <g id="Grupo_13741" data-name="Grupo 13741" transform="translate(156.479 0.838)">
                <path id="Trazado_21267" data-name="Trazado 21267" d="M1594.053,772.371l-52.712.427-.427-52.712,52.712-.427Zm-51.887-.412,51.049-.413L1592.8,720.5l-51.048.413Z" transform="translate(-1540.914 -719.659)" fill="#d9d6c5"/>
              </g>
              <g id="Grupo_13742" data-name="Grupo 13742" transform="translate(53.559 105.438)">
                <path id="Trazado_21268" data-name="Trazado 21268" d="M1470.29,898.153l-52.712.427-.427-52.712,52.712-.427Zm-51.887-.411,51.048-.413-.413-51.049-51.048.413Z" transform="translate(-1417.152 -845.441)" fill="#d9d6c5"/>
              </g>
              <g id="Grupo_13743" data-name="Grupo 13743" transform="translate(2.098 157.739)">
                <path id="Trazado_21269" data-name="Trazado 21269" d="M1408.409,961.045l-52.712.427-.427-52.712,52.712-.426Zm-51.887-.412,51.049-.413-.413-51.048-51.049.412Z" transform="translate(-1355.27 -908.333)" fill="#d9d6c5"/>
              </g>
              <g id="Grupo_13744" data-name="Grupo 13744" transform="translate(105.439 105.018)">
                <path id="Trazado_21270" data-name="Trazado 21270" d="M1532.676,897.648l-52.711.427-.427-52.711,52.713-.427Zm-51.887-.411,51.048-.413-.413-51.049-51.048.413Z" transform="translate(-1479.538 -844.936)" fill="#d9d6c5"/>
              </g>
              <g id="Grupo_13745" data-name="Grupo 13745" transform="translate(157.739 156.479)">
                <path id="Trazado_21271" data-name="Trazado 21271" d="M1595.568,959.53l-52.712.427-.427-52.712,52.712-.427Zm-51.887-.412,51.049-.413-.413-51.048-51.049.412Z" transform="translate(-1542.429 -906.818)" fill="#d9d6c5"/>
              </g>
            </g>
            <g id="Grupo_13759" data-name="Grupo 13759" transform="translate(625.922 415.042)">
              <g id="Grupo_13747" data-name="Grupo 13747" transform="translate(0 0.84)">
                <path id="Trazado_21272" data-name="Trazado 21272" d="M1709.408,823.9l-106.255.86-.86-106.255,106.255-.86Zm-103.781-1.655,101.265-.819-.819-101.266-101.266.819Z" transform="translate(-1602.293 -717.641)" fill="#d9d6c5"/>
              </g>
              <g id="Grupo_13748" data-name="Grupo 13748" transform="translate(103.761)">
                <path id="Trazado_21273" data-name="Trazado 21273" d="M1834.18,822.886l-106.255.86-.86-106.255,106.255-.86ZM1730.4,821.231l101.266-.819-.82-101.266-101.265.82Z" transform="translate(-1727.066 -716.631)" fill="#d9d6c5"/>
              </g>
              <g id="Grupo_13749" data-name="Grupo 13749" transform="translate(0.84 104.6)">
                <path id="Trazado_21274" data-name="Trazado 21274" d="M1710.418,948.668l-106.255.86-.86-106.255,106.255-.86Zm-103.781-1.655,101.265-.82-.819-101.265-101.266.819Z" transform="translate(-1603.303 -842.413)" fill="#d9d6c5"/>
              </g>
              <g id="Grupo_13750" data-name="Grupo 13750" transform="translate(104.6 103.761)">
                <path id="Trazado_21275" data-name="Trazado 21275" d="M1835.19,947.659l-106.255.86-.861-106.255,106.256-.86ZM1731.41,946l101.266-.819-.82-101.266-101.265.819Z" transform="translate(-1728.075 -841.404)" fill="#d9d6c5"/>
              </g>
              <g id="Grupo_13751" data-name="Grupo 13751" transform="translate(53.138 53.558)">
                <path id="Trazado_21276" data-name="Trazado 21276" d="M1719.331,833.747l-52.712.427-.427-52.712,52.712-.427Zm-51.887-.411,51.049-.413-.413-51.049-51.049.413Z" transform="translate(-1666.192 -781.035)" fill="#d9d6c5"/>
              </g>
              <g id="Grupo_13752" data-name="Grupo 13752" transform="translate(0.838 2.098)">
                <path id="Trazado_21277" data-name="Trazado 21277" d="M1656.439,771.866l-52.712.427-.427-52.712,52.712-.427Zm-51.886-.412,51.048-.413-.413-51.049-51.048.413Z" transform="translate(-1603.301 -719.154)" fill="#d9d6c5"/>
              </g>
              <g id="Grupo_13753" data-name="Grupo 13753" transform="translate(105.018 53.138)">
                <path id="Trazado_21278" data-name="Trazado 21278" d="M1781.717,833.242l-52.712.427-.427-52.711,52.712-.427Zm-51.887-.411,51.048-.413-.413-51.049-51.048.413Z" transform="translate(-1728.578 -780.53)" fill="#d9d6c5"/>
              </g>
              <g id="Grupo_13754" data-name="Grupo 13754" transform="translate(156.479 0.838)">
                <path id="Trazado_21279" data-name="Trazado 21279" d="M1843.6,770.351l-52.712.427-.427-52.712,52.712-.427Zm-51.887-.412,51.048-.413-.413-51.048-51.048.413Z" transform="translate(-1790.46 -717.639)" fill="#d9d6c5"/>
              </g>
              <g id="Grupo_13755" data-name="Grupo 13755" transform="translate(53.558 105.439)">
                <path id="Trazado_21280" data-name="Trazado 21280" d="M1719.835,896.133l-52.712.427-.427-52.712,52.712-.427Zm-51.886-.411,51.048-.413-.412-51.049-51.049.413Z" transform="translate(-1666.697 -843.422)" fill="#d9d6c5"/>
              </g>
              <g id="Grupo_13756" data-name="Grupo 13756" transform="translate(2.098 157.739)">
                <path id="Trazado_21281" data-name="Trazado 21281" d="M1657.954,959.025l-52.711.427-.427-52.711,52.711-.427Zm-51.886-.412,51.048-.413-.413-51.048-51.048.413Z" transform="translate(-1604.816 -906.313)" fill="#d9d6c5"/>
              </g>
              <g id="Grupo_13757" data-name="Grupo 13757" transform="translate(105.439 105.018)">
                <path id="Trazado_21282" data-name="Trazado 21282" d="M1782.222,895.628l-52.712.427-.426-52.711,52.712-.427Zm-51.887-.411,51.049-.413-.413-51.049-51.048.413Z" transform="translate(-1729.084 -842.916)" fill="#d9d6c5"/>
              </g>
              <g id="Grupo_13758" data-name="Grupo 13758" transform="translate(157.739 156.479)">
                <path id="Trazado_21283" data-name="Trazado 21283" d="M1845.113,957.51l-52.712.427-.427-52.712,52.711-.427Zm-51.887-.411,51.048-.413-.413-51.049-51.048.412Z" transform="translate(-1791.975 -904.798)" fill="#d9d6c5"/>
              </g>
            </g>
            <g id="Grupo_13772" data-name="Grupo 13772" transform="translate(5.039 627.601)">
              <g id="Grupo_13760" data-name="Grupo 13760" transform="translate(0 0.84)">
                <path id="Trazado_21284" data-name="Trazado 21284" d="M962.791,1079.5l-106.255.86L855.676,974.1l106.255-.86Zm-103.781-1.655,101.266-.82-.82-101.265-101.265.819Z" transform="translate(-855.676 -973.245)" fill="#d9d6c5"/>
              </g>
              <g id="Grupo_13761" data-name="Grupo 13761" transform="translate(103.761)">
                <path id="Trazado_21285" data-name="Trazado 21285" d="M1087.564,1078.491l-106.255.86-.86-106.255,106.256-.861Zm-103.781-1.655,101.266-.819-.82-101.266-101.266.819Z" transform="translate(-980.449 -972.235)" fill="#d9d6c5"/>
              </g>
              <g id="Grupo_13762" data-name="Grupo 13762" transform="translate(0.84 104.601)">
                <path id="Trazado_21286" data-name="Trazado 21286" d="M963.8,1204.273l-106.255.861-.861-106.255,106.255-.861Zm-103.781-1.654,101.266-.82-.82-101.266-101.265.82Z" transform="translate(-856.686 -1098.018)" fill="#d9d6c5"/>
              </g>
              <g id="Grupo_13763" data-name="Grupo 13763" transform="translate(104.601 103.761)">
                <path id="Trazado_21287" data-name="Trazado 21287" d="M1088.574,1203.264l-106.256.86-.86-106.255,106.256-.86Zm-103.781-1.655,101.266-.82-.82-101.265-101.266.819Z" transform="translate(-981.459 -1097.008)" fill="#d9d6c5"/>
              </g>
              <g id="Grupo_13764" data-name="Grupo 13764" transform="translate(53.139 53.559)">
                <path id="Trazado_21288" data-name="Trazado 21288" d="M972.714,1089.352l-52.712.427-.427-52.711,52.711-.427Zm-51.887-.412,51.048-.413-.413-51.048-51.048.413Z" transform="translate(-919.576 -1036.64)" fill="#d9d6c5"/>
              </g>
              <g id="Grupo_13765" data-name="Grupo 13765" transform="translate(0.839 2.099)">
                <path id="Trazado_21289" data-name="Trazado 21289" d="M909.823,1027.471l-52.712.426-.427-52.711,52.712-.426Zm-51.887-.412,51.049-.413-.413-51.049-51.048.413Z" transform="translate(-856.685 -974.759)" fill="#d9d6c5"/>
              </g>
              <g id="Grupo_13766" data-name="Grupo 13766" transform="translate(105.019 53.139)">
                <path id="Trazado_21290" data-name="Trazado 21290" d="M1035.1,1088.847l-52.711.427-.427-52.712,52.712-.427Zm-51.887-.412,51.048-.413-.412-51.048-51.049.413Z" transform="translate(-981.962 -1036.135)" fill="#d9d6c5"/>
              </g>
              <g id="Grupo_13767" data-name="Grupo 13767" transform="translate(156.48 0.838)">
                <path id="Trazado_21291" data-name="Trazado 21291" d="M1096.982,1025.955l-52.712.427-.427-52.711,52.712-.427Zm-51.887-.412,51.049-.413-.413-51.049-51.048.413Z" transform="translate(-1043.844 -973.243)" fill="#d9d6c5"/>
              </g>
              <g id="Grupo_13768" data-name="Grupo 13768" transform="translate(53.559 105.439)">
                <path id="Trazado_21292" data-name="Trazado 21292" d="M973.219,1151.738l-52.712.427-.427-52.712,52.712-.427Zm-51.887-.411,51.048-.413-.413-51.049-51.048.413Z" transform="translate(-920.081 -1099.026)" fill="#d9d6c5"/>
              </g>
              <g id="Grupo_13769" data-name="Grupo 13769" transform="translate(2.098 157.74)">
                <path id="Trazado_21293" data-name="Trazado 21293" d="M911.338,1214.63l-52.712.427-.427-52.712,52.712-.427Zm-51.887-.412,51.049-.413-.413-51.049-51.049.413Z" transform="translate(-858.199 -1161.918)" fill="#d9d6c5"/>
              </g>
              <g id="Grupo_13770" data-name="Grupo 13770" transform="translate(105.439 105.019)">
                <path id="Trazado_21294" data-name="Trazado 21294" d="M1035.605,1151.233l-52.711.426-.427-52.712,52.712-.427Zm-51.887-.412,51.048-.413-.412-51.049-51.049.413Z" transform="translate(-982.467 -1098.521)" fill="#d9d6c5"/>
              </g>
              <g id="Grupo_13771" data-name="Grupo 13771" transform="translate(157.739 156.48)">
                <path id="Trazado_21295" data-name="Trazado 21295" d="M1098.5,1213.115l-52.712.427-.427-52.712,52.712-.427Zm-51.887-.412,51.049-.413-.413-51.048-51.049.413Z" transform="translate(-1045.358 -1160.403)" fill="#d9d6c5"/>
              </g>
            </g>
            <g id="Grupo_13785" data-name="Grupo 13785" transform="translate(212.56 625.922)">
              <g id="Grupo_13773" data-name="Grupo 13773" transform="translate(0 0.84)">
                <path id="Trazado_21296" data-name="Trazado 21296" d="M1212.337,1077.481l-106.255.861-.86-106.255,106.255-.86Zm-103.781-1.655,101.265-.819L1209,973.741l-101.266.819Z" transform="translate(-1105.222 -971.226)" fill="#d9d6c5"/>
              </g>
              <g id="Grupo_13774" data-name="Grupo 13774" transform="translate(103.76)">
                <path id="Trazado_21297" data-name="Trazado 21297" d="M1337.109,1076.471l-106.255.86-.861-106.255,106.255-.86Zm-103.781-1.655,101.266-.819-.819-101.266-101.266.82Z" transform="translate(-1229.994 -970.216)" fill="#d9d6c5"/>
              </g>
              <g id="Grupo_13775" data-name="Grupo 13775" transform="translate(0.84 104.6)">
                <path id="Trazado_21298" data-name="Trazado 21298" d="M1213.347,1202.254l-106.255.86-.86-106.255,106.255-.861Zm-103.781-1.655,101.265-.82-.819-101.266-101.266.82Z" transform="translate(-1106.232 -1095.998)" fill="#d9d6c5"/>
              </g>
              <g id="Grupo_13776" data-name="Grupo 13776" transform="translate(104.6 103.76)">
                <path id="Trazado_21299" data-name="Trazado 21299" d="M1338.12,1201.244l-106.255.86L1231,1095.849l106.255-.861Zm-103.781-1.655,101.266-.82-.819-101.265-101.266.819Z" transform="translate(-1231.004 -1094.988)" fill="#d9d6c5"/>
              </g>
              <g id="Grupo_13777" data-name="Grupo 13777" transform="translate(53.138 53.558)">
                <path id="Trazado_21300" data-name="Trazado 21300" d="M1222.26,1087.332l-52.712.427-.427-52.712,52.712-.427Zm-51.887-.411,51.049-.413-.413-51.049-51.049.413Z" transform="translate(-1169.121 -1034.62)" fill="#d9d6c5"/>
              </g>
              <g id="Grupo_13778" data-name="Grupo 13778" transform="translate(0.838 2.098)">
                <path id="Trazado_21301" data-name="Trazado 21301" d="M1159.368,1025.451l-52.711.427-.427-52.711,52.712-.427Zm-51.887-.412,51.048-.413-.413-51.048-51.048.412Z" transform="translate(-1106.23 -972.739)" fill="#d9d6c5"/>
              </g>
              <g id="Grupo_13779" data-name="Grupo 13779" transform="translate(105.019 53.138)">
                <path id="Trazado_21302" data-name="Trazado 21302" d="M1284.646,1086.827l-52.711.427-.427-52.711,52.712-.427Zm-51.887-.412,51.049-.412-.413-51.049-51.048.413Z" transform="translate(-1231.508 -1034.115)" fill="#d9d6c5"/>
              </g>
              <g id="Grupo_13780" data-name="Grupo 13780" transform="translate(156.479 0.838)">
                <path id="Trazado_21303" data-name="Trazado 21303" d="M1346.527,1023.936l-52.711.427-.427-52.712,52.712-.427Zm-51.886-.412,51.048-.412-.413-51.049-51.048.412Z" transform="translate(-1293.389 -971.224)" fill="#d9d6c5"/>
              </g>
              <g id="Grupo_13781" data-name="Grupo 13781" transform="translate(53.558 105.438)">
                <path id="Trazado_21304" data-name="Trazado 21304" d="M1222.764,1149.718l-52.711.427-.427-52.712,52.712-.427Zm-51.887-.411,51.048-.413-.412-51.049-51.049.413Z" transform="translate(-1169.626 -1097.006)" fill="#d9d6c5"/>
              </g>
              <g id="Grupo_13782" data-name="Grupo 13782" transform="translate(2.098 157.739)">
                <path id="Trazado_21305" data-name="Trazado 21305" d="M1160.883,1212.61l-52.712.427-.427-52.711,52.712-.427ZM1109,1212.2l51.048-.413-.413-51.048-51.048.413Z" transform="translate(-1107.745 -1159.898)" fill="#d9d6c5"/>
              </g>
              <g id="Grupo_13783" data-name="Grupo 13783" transform="translate(105.439 105.019)">
                <path id="Trazado_21306" data-name="Trazado 21306" d="M1285.151,1149.214l-52.711.426-.427-52.711,52.712-.427Zm-51.887-.412,51.049-.413-.413-51.048-51.048.412Z" transform="translate(-1232.013 -1096.502)" fill="#d9d6c5"/>
              </g>
              <g id="Grupo_13784" data-name="Grupo 13784" transform="translate(157.739 156.479)">
                <path id="Trazado_21307" data-name="Trazado 21307" d="M1348.042,1211.095l-52.711.427-.427-52.711,52.712-.427Zm-51.886-.412,51.048-.413-.413-51.048-51.048.413Z" transform="translate(-1294.904 -1158.383)" fill="#d9d6c5"/>
              </g>
            </g>
            <g id="Grupo_13798" data-name="Grupo 13798" transform="translate(420.081 624.242)">
              <g id="Grupo_13786" data-name="Grupo 13786" transform="translate(0 0.84)">
                <path id="Trazado_21308" data-name="Trazado 21308" d="M1461.882,1075.461l-106.255.861-.861-106.255,106.256-.86Zm-103.781-1.655,101.266-.819-.82-101.266-101.265.82Z" transform="translate(-1354.767 -969.206)" fill="#d9d6c5"/>
              </g>
              <g id="Grupo_13787" data-name="Grupo 13787" transform="translate(103.761)">
                <path id="Trazado_21309" data-name="Trazado 21309" d="M1586.656,1074.452l-106.256.86-.86-106.255,106.255-.86Zm-103.781-1.656,101.265-.819-.819-101.266-101.266.82Z" transform="translate(-1479.54 -968.196)" fill="#d9d6c5"/>
              </g>
              <g id="Grupo_13788" data-name="Grupo 13788" transform="translate(0.84 104.6)">
                <path id="Trazado_21310" data-name="Trazado 21310" d="M1462.892,1200.234l-106.255.86-.86-106.255,106.255-.861Zm-103.781-1.655,101.266-.819-.82-101.266-101.266.819Z" transform="translate(-1355.777 -1093.978)" fill="#d9d6c5"/>
              </g>
              <g id="Grupo_13789" data-name="Grupo 13789" transform="translate(104.601 103.761)">
                <path id="Trazado_21311" data-name="Trazado 21311" d="M1587.665,1199.224l-106.255.861-.86-106.256,106.255-.86Zm-103.781-1.655,101.265-.82-.819-101.265-101.266.819Z" transform="translate(-1480.55 -1092.969)" fill="#d9d6c5"/>
              </g>
              <g id="Grupo_13790" data-name="Grupo 13790" transform="translate(53.138 53.558)">
                <path id="Trazado_21312" data-name="Trazado 21312" d="M1471.805,1085.312l-52.712.427-.427-52.711,52.712-.427Zm-51.887-.411,51.048-.413-.413-51.049-51.048.413Z" transform="translate(-1418.666 -1032.6)" fill="#d9d6c5"/>
              </g>
              <g id="Grupo_13791" data-name="Grupo 13791" transform="translate(0.838 2.098)">
                <path id="Trazado_21313" data-name="Trazado 21313" d="M1408.914,1023.431l-52.712.427-.427-52.712,52.712-.427Zm-51.887-.412,51.048-.412-.412-51.049-51.048.413Z" transform="translate(-1355.775 -970.719)" fill="#d9d6c5"/>
              </g>
              <g id="Grupo_13792" data-name="Grupo 13792" transform="translate(105.019 53.139)">
                <path id="Trazado_21314" data-name="Trazado 21314" d="M1534.191,1084.808l-52.711.426-.427-52.712,52.712-.426Zm-51.887-.412,51.048-.413-.413-51.049-51.048.413Z" transform="translate(-1481.053 -1032.096)" fill="#d9d6c5"/>
              </g>
              <g id="Grupo_13793" data-name="Grupo 13793" transform="translate(156.479 0.838)">
                <path id="Trazado_21315" data-name="Trazado 21315" d="M1596.073,1021.916l-52.712.427-.427-52.712,52.713-.427Zm-51.887-.411,51.048-.413-.412-51.049-51.048.413Z" transform="translate(-1542.934 -969.204)" fill="#d9d6c5"/>
              </g>
              <g id="Grupo_13794" data-name="Grupo 13794" transform="translate(53.558 105.439)">
                <path id="Trazado_21316" data-name="Trazado 21316" d="M1472.31,1147.7l-52.712.427-.427-52.712,52.712-.427Zm-51.887-.412,51.049-.413-.413-51.049-51.048.413Z" transform="translate(-1419.171 -1094.987)" fill="#d9d6c5"/>
              </g>
              <g id="Grupo_13795" data-name="Grupo 13795" transform="translate(2.098 157.739)">
                <path id="Trazado_21317" data-name="Trazado 21317" d="M1410.429,1210.59l-52.712.427-.427-52.711,52.711-.427Zm-51.887-.412,51.048-.413-.413-51.048-51.048.413Z" transform="translate(-1357.29 -1157.878)" fill="#d9d6c5"/>
              </g>
              <g id="Grupo_13796" data-name="Grupo 13796" transform="translate(105.439 105.019)">
                <path id="Trazado_21318" data-name="Trazado 21318" d="M1534.7,1147.194l-52.712.427-.427-52.712,52.711-.427Zm-51.887-.412,51.048-.413-.413-51.048-51.048.412Z" transform="translate(-1481.558 -1094.482)" fill="#d9d6c5"/>
              </g>
              <g id="Grupo_13797" data-name="Grupo 13797" transform="translate(157.739 156.479)">
                <path id="Trazado_21319" data-name="Trazado 21319" d="M1597.588,1209.075l-52.712.427-.427-52.712,52.712-.427Zm-51.887-.411,51.048-.413-.413-51.049-51.048.413Z" transform="translate(-1544.449 -1156.363)" fill="#d9d6c5"/>
              </g>
            </g>
            <g id="Grupo_13811" data-name="Grupo 13811" transform="translate(627.602 622.563)">
              <g id="Grupo_13799" data-name="Grupo 13799" transform="translate(0 0.84)">
                <path id="Trazado_21320" data-name="Trazado 21320" d="M1711.427,1073.442l-106.255.86-.86-106.256,106.255-.86Zm-103.781-1.655,101.266-.82-.819-101.266-101.266.82Z" transform="translate(-1604.313 -967.186)" fill="#d9d6c5"/>
              </g>
              <g id="Grupo_13800" data-name="Grupo 13800" transform="translate(103.76)">
                <path id="Trazado_21321" data-name="Trazado 21321" d="M1836.2,1072.432l-106.255.86-.86-106.255,106.255-.86Zm-103.781-1.655,101.266-.82-.82-101.266-101.265.82Z" transform="translate(-1729.085 -966.176)" fill="#d9d6c5"/>
              </g>
              <g id="Grupo_13801" data-name="Grupo 13801" transform="translate(0.839 104.601)">
                <path id="Trazado_21322" data-name="Trazado 21322" d="M1712.438,1198.214l-106.255.86-.861-106.255,106.256-.86Zm-103.781-1.655,101.266-.819-.82-101.266-101.265.82Z" transform="translate(-1605.322 -1091.959)" fill="#d9d6c5"/>
              </g>
              <g id="Grupo_13802" data-name="Grupo 13802" transform="translate(104.6 103.761)">
                <path id="Trazado_21323" data-name="Trazado 21323" d="M1837.21,1197.2l-106.255.861-.86-106.255,106.256-.86Zm-103.781-1.655,101.266-.819-.82-101.266-101.266.82Z" transform="translate(-1730.095 -1090.949)" fill="#d9d6c5"/>
              </g>
              <g id="Grupo_13803" data-name="Grupo 13803" transform="translate(53.138 53.558)">
                <path id="Trazado_21324" data-name="Trazado 21324" d="M1721.35,1083.292l-52.711.427-.427-52.712,52.711-.427Zm-51.886-.412,51.048-.413-.413-51.049-51.048.413Z" transform="translate(-1668.212 -1030.58)" fill="#d9d6c5"/>
              </g>
              <g id="Grupo_13804" data-name="Grupo 13804" transform="translate(0.838 2.098)">
                <path id="Trazado_21325" data-name="Trazado 21325" d="M1658.459,1021.411l-52.711.427-.427-52.712,52.712-.427Zm-51.886-.411,51.048-.413-.413-51.049-51.048.413Z" transform="translate(-1605.321 -968.699)" fill="#d9d6c5"/>
              </g>
              <g id="Grupo_13805" data-name="Grupo 13805" transform="translate(105.018 53.139)">
                <path id="Trazado_21326" data-name="Trazado 21326" d="M1783.737,1082.788l-52.712.427-.427-52.711,52.712-.427Zm-51.887-.412,51.049-.413-.413-51.048-51.049.412Z" transform="translate(-1730.598 -1030.076)" fill="#d9d6c5"/>
              </g>
              <g id="Grupo_13806" data-name="Grupo 13806" transform="translate(156.479 0.838)">
                <path id="Trazado_21327" data-name="Trazado 21327" d="M1845.618,1019.9l-52.711.427-.427-52.712,52.712-.427Zm-51.886-.411,51.048-.413-.413-51.049-51.048.413Z" transform="translate(-1792.48 -967.184)" fill="#d9d6c5"/>
              </g>
              <g id="Grupo_13807" data-name="Grupo 13807" transform="translate(53.558 105.439)">
                <path id="Trazado_21328" data-name="Trazado 21328" d="M1721.855,1145.679l-52.711.427-.427-52.712,52.712-.427Zm-51.886-.412,51.048-.412-.413-51.049-51.048.412Z" transform="translate(-1668.717 -1092.967)" fill="#d9d6c5"/>
              </g>
              <g id="Grupo_13808" data-name="Grupo 13808" transform="translate(2.097 157.739)">
                <path id="Trazado_21329" data-name="Trazado 21329" d="M1659.974,1208.57l-52.711.427-.427-52.711,52.712-.427Zm-51.887-.412,51.048-.412-.413-51.049-51.048.413Z" transform="translate(-1606.835 -1155.858)" fill="#d9d6c5"/>
              </g>
              <g id="Grupo_13809" data-name="Grupo 13809" transform="translate(105.438 105.019)">
                <path id="Trazado_21330" data-name="Trazado 21330" d="M1784.242,1145.174l-52.712.427-.427-52.711,52.712-.427Zm-51.887-.412,51.048-.413-.412-51.048-51.049.413Z" transform="translate(-1731.103 -1092.462)" fill="#d9d6c5"/>
              </g>
              <g id="Grupo_13810" data-name="Grupo 13810" transform="translate(157.738 156.479)">
                <path id="Trazado_21331" data-name="Trazado 21331" d="M1847.133,1207.055l-52.712.427-.427-52.711,52.712-.427Zm-51.887-.411,51.048-.413-.413-51.049-51.048.413Z" transform="translate(-1793.994 -1154.343)" fill="#d9d6c5"/>
              </g>
            </g>
          </g>
        </g>
      </g>
      <g id="Grupo_13815" data-name="Grupo 13815" transform="translate(811.767 429.544)">
        <path id="Trazado_21333" data-name="Trazado 21333" d="M839.906,567.455c-1.893-2.183-3.639-4.085-5.262-6.086q-10.6-13.065-21.124-26.184a13.4,13.4,0,0,1-1.361-2.1,2.888,2.888,0,0,1,.656-3.676c3.611-3.346,7.217-6.681,11.107-9.741,2.474-1.946,5.513-2.782,7.814-4.932a47.093,47.093,0,0,1,10.315-7.093,5.716,5.716,0,0,0,.824-.578c4.226-3.276,8.186-7,12.743-9.716,5.341-3.187,9.015-8.224,14.187-11.553,2.555-1.644,4.4-4.267,6.412-6.627a54.637,54.637,0,0,1,8.172-7.391,31.647,31.647,0,0,1,5.922-3.2c3.734-1.775,6.435-4.773,9.228-7.652,1.563-1.611,2.89-3.452,4.446-5.071a11.337,11.337,0,0,1,4.3-2.932,9.165,9.165,0,0,0,3.822-2.694c1.75-2.175,4.16-3.419,6.441-4.625,2.027-1.07,3.694-2.54,5.588-3.727,2.684-1.681,5.26-3.539,7.838-5.384,3.114-2.226,6.182-4.517,9.505-6.952,9.762,11.718,19.617,23.341,29.023,35.687-3.216,2.321-6.244,4.5-9.257,6.692a10.553,10.553,0,0,0-1.274,1.174,10.422,10.422,0,0,1-.807.956c-3.6,2.839-6.867,6.146-11.513,7.414-2.314.63-3.555,2.644-4.856,4.506a10.388,10.388,0,0,1-1.815,1.976c-1.621,1.363-3.26,2.714-4.98,3.947a43.831,43.831,0,0,1-4.245,2.581c-1.384.769-2.826,1.432-4.231,2.161a2.431,2.431,0,0,0-.8.6c-1.218,1.549-2.4,3.133-3.616,4.681a5.47,5.47,0,0,1-1.087,1.023c-2.58,1.861-5.215,3.65-7.755,5.563-3.133,2.361-6.2,4.8-9.27,7.252a11.427,11.427,0,0,0-1.282,1.539,33.4,33.4,0,0,1-7.533,6.118,15.974,15.974,0,0,0-3.269,2.323,24.01,24.01,0,0,1-9.341,6.187,4.1,4.1,0,0,0-2.661,2.725c-.953,2.676-3.355,4.112-5.6,5.551-3.385,2.165-6.857,4.2-10.293,6.284-.072.043-.171.068-.213.131a29.537,29.537,0,0,1-5.183,5.276c-1.538,1.393-2.679,3.264-4.316,4.5C850.366,560.108,845.272,563.622,839.906,567.455Z" transform="translate(-811.767 -429.544)" fill="#d9d6c5"/>
      </g>
      <g id="Grupo_13816" data-name="Grupo 13816" transform="translate(1581.521 758.804)">
        <path id="Trazado_21334" data-name="Trazado 21334" d="M1771.752,979.855c-2.265-1.794-4.334-3.339-6.3-5q-12.838-10.871-25.62-21.807a13.342,13.342,0,0,1-1.726-1.808,2.887,2.887,0,0,1-.038-3.733c2.927-3.959,5.852-7.905,9.105-11.635,2.07-2.372,4.9-3.757,6.762-6.3a47.114,47.114,0,0,1,8.819-8.886,5.773,5.773,0,0,0,.7-.721c3.544-4,6.744-8.395,10.718-11.913,4.656-4.124,7.331-9.755,11.795-13.986,2.205-2.091,3.528-5.01,5.071-7.7a54.6,54.6,0,0,1,6.658-8.78,31.594,31.594,0,0,1,5.225-4.242c3.339-2.437,5.436-5.885,7.647-9.232,1.237-1.874,2.2-3.929,3.426-5.809a11.336,11.336,0,0,1,3.686-3.681,9.162,9.162,0,0,0,3.256-3.356c1.316-2.462,3.452-4.132,5.47-5.74,1.792-1.428,3.158-3.183,4.8-4.7,2.325-2.15,4.511-4.454,6.7-6.744,2.646-2.767,5.236-5.587,8.049-8.6,11.769,9.7,23.611,19.293,35.145,29.677-2.729,2.878-5.3,5.578-7.854,8.3a10.5,10.5,0,0,0-1.035,1.39,10.284,10.284,0,0,1-.615,1.09c-3.007,3.458-5.607,7.315-9.937,9.422-2.156,1.05-3,3.258-3.933,5.33a10.424,10.424,0,0,1-1.417,2.279c-1.34,1.64-2.7,3.272-4.161,4.8a43.807,43.807,0,0,1-3.692,3.325c-1.217,1.012-2.511,1.932-3.756,2.909a2.448,2.448,0,0,0-.674.733c-.909,1.749-1.772,3.523-2.684,5.271a5.434,5.434,0,0,1-.877,1.207c-2.19,2.309-4.447,4.556-6.587,6.907-2.64,2.9-5.2,5.873-7.762,8.847a11.519,11.519,0,0,0-.974,1.75,33.4,33.4,0,0,1-6.267,7.411,15.939,15.939,0,0,0-2.78,2.889,24.008,24.008,0,0,1-8.031,7.814,4.1,4.1,0,0,0-2.109,3.172c-.439,2.807-2.532,4.664-4.477,6.5-2.925,2.756-5.959,5.4-8.947,8.086-.062.057-.155.1-.185.169a29.577,29.577,0,0,1-4.113,6.148c-1.252,1.654-2.026,3.7-3.406,5.221C1780.667,970.693,1776.314,975.092,1771.752,979.855Z" transform="translate(-1737.402 -825.481)" fill="#d9d6c5"/>
      </g>
    </g>
    <g id="Grupo_14279" data-name="Grupo 14279" transform="translate(-780.252 3405.155) rotate(-20)">
      <circle id="Elipse_852" data-name="Elipse 852" cx="102.286" cy="102.286" r="102.286" transform="translate(883.861 500.162)" fill="#dcdcdc"/>
      <circle id="Elipse_853" data-name="Elipse 853" cx="102.286" cy="102.286" r="102.286" transform="translate(881.328 495.897)" fill="#fff"/>
      <circle id="Elipse_854" data-name="Elipse 854" cx="95.5" cy="95.5" r="95.5" transform="translate(888.114 502.683)" fill="url(#linear-gradient)"/>
      <g id="Grupo_13821" data-name="Grupo 13821">
        <g id="Grupo_13820" data-name="Grupo 13820">
          <path id="Trazado_21336" data-name="Trazado 21336" d="M1013.675,567.567h22.408l-11.9-15.588,11.9-15.588h-22.408v-1.06a12.566,12.566,0,1,0-25.111,0v28.2a12.338,12.338,0,0,0-6.89-2.119,12.47,12.47,0,0,0-9.453,4.42,12.329,12.329,0,0,0-18.916,0,12.471,12.471,0,0,0-9.459-4.42A12.848,12.848,0,0,0,931.214,573.8l-.07.344v54.786c0,26.61,20.938,45.182,50.942,45.182s50.941-18.571,50.941-45.182V597.507a8.045,8.045,0,0,0-2.618-5.19c-2.149-1.866-9.305-3.312-16.782-4.372l.037-.168v-20.2h.012v-.006Zm-18.864,0h12.629v19.585c-2.643-.3-5.169-.56-7.331-.767a25.785,25.785,0,0,0-5.31-.012l.012-18.806Zm28.681-6.236h-27.78V542.626h27.779l-7.149,9.353Zm-22.348-32.839a6.589,6.589,0,0,1,6.309,6.838v1.06H994.824v-1.06A6.582,6.582,0,0,1,1001.144,528.492Zm-19.47,39.163a6.681,6.681,0,0,1,6.476,6.854v12.75l.256,1.221a11.221,11.221,0,0,0-4.244,5.5,12.4,12.4,0,0,0-.362,7.282,5.986,5.986,0,0,1-1.745.28,6.615,6.615,0,0,1-6.408-6.579l.024-.268V574l-.183-.91A6.469,6.469,0,0,1,981.674,567.655Zm-18.9,0a6.555,6.555,0,0,1,6.3,5.916l-.1.925v21.062l.143.737a6.46,6.46,0,0,1-6.147,5.231,6.6,6.6,0,0,1-6.4-6.461l.006-.03V573.991l-.088-.438A6.545,6.545,0,0,1,962.776,567.655ZM937.4,587.289V574.5a6.675,6.675,0,0,1,6.467-6.847,6.541,6.541,0,0,1,6.3,5.91l-.091.932v21.586a6.5,6.5,0,0,1-6.2,5.444,6.677,6.677,0,0,1-6.473-6.848Zm88.914,9.7.5.514v31.42c0,22.932-18.377,38.947-44.707,38.947S937.4,651.857,937.4,628.926V605.885a12.33,12.33,0,0,0,6.473,1.888,12.49,12.49,0,0,0,9.548-4.542,12.294,12.294,0,0,0,19.084,0,12.529,12.529,0,0,0,9.547,4.542,12.263,12.263,0,0,0,4.744-1.048,13.563,13.563,0,0,0,5.541,3.788l19.9,5.505a3.144,3.144,0,0,0,3.836-2.192A3.112,3.112,0,0,0,1013.9,610l-19.656-5.419a6.72,6.72,0,0,1-4.226-8.464c.487-1.315,1.583-4.427,9.456-3.517C1010.777,593.631,1024.283,595.637,1026.317,596.992Z"/>
        </g>
      </g>
    </g>
  </g>
</svg>
