<svg xmlns="http://www.w3.org/2000/svg" width="136" height="136" viewBox="0 0 136 136">
  <g id="Grupo_12219" data-name="Grupo 12219" transform="translate(-538 -2577)">
    <g id="Elipse_646" data-name="Elipse 646" transform="translate(538 2577)" fill="#fdf8eb" stroke="#6278aa" stroke-width="3">
      <circle cx="68" cy="68" r="68" stroke="none"/>
      <circle cx="68" cy="68" r="66.5" fill="none"/>
    </g>
    <g id="Grupo_9737" data-name="Grupo 9737" transform="translate(-3510.707 1132.36)">
      <g id="Grupo_9735" data-name="Grupo 9735" transform="translate(4096.324 1475.475)">
        <path id="Trazado_19966" data-name="Trazado 19966" d="M4286.368,1774.211h-12.75a2.96,2.96,0,0,1-2.93-2.58l-.59-4.616a1.18,1.18,0,0,1,2.341-.3l.59,4.617a.6.6,0,0,0,.589.52h12.75a.595.595,0,0,0,.59-.671l-2.306-18.811a.6.6,0,0,0-.588-.514h-12.751a.594.594,0,0,0-.589.67l.856,7.14a1.18,1.18,0,0,1-2.343.281l-.854-7.131a2.954,2.954,0,0,1,2.931-3.319h12.751a2.959,2.959,0,0,1,2.929,2.58l2.307,18.811a2.954,2.954,0,0,1-2.931,3.322Z" transform="translate(-4267.13 -1718.854)" fill="#6278aa"/>
        <path id="Trazado_19967" data-name="Trazado 19967" d="M4264.715,1838.134a2.45,2.45,0,0,1-.328-.022l-4.016-.556a2.347,2.347,0,0,1-2.014-2.083l-.39-3.743a2.35,2.35,0,0,1,2.659-2.573h0l4.015.557a2.347,2.347,0,0,1,2.015,2.083l.389,3.743a2.35,2.35,0,0,1-2.331,2.594Zm-4.414-6.64.4,3.732,4.009.548-.4-3.731Z" transform="translate(-4257.955 -1789.097)" fill="#6278aa"/>
        <path id="Trazado_19968" data-name="Trazado 19968" d="M4447.941,1511.686c-5.678,0-9.347-4.31-9.347-10.98s3.668-10.979,9.347-10.979,9.346,4.309,9.346,10.979S4453.619,1511.686,4447.941,1511.686Zm0-19.6c-5.152,0-6.987,4.453-6.987,8.62s1.835,8.62,6.987,8.62,6.987-4.453,6.987-8.62S4453.093,1492.086,4447.941,1492.086Z" transform="translate(-4417.286 -1489.727)" fill="#6278aa"/>
        <g id="Grupo_9733" data-name="Grupo 9733" transform="translate(12.605 25.697)">
          <g id="Grupo_9732" data-name="Grupo 9732">
            <path id="Trazado_19969" data-name="Trazado 19969" d="M4500.813,1709.923h-2.73a1.18,1.18,0,0,1,0-2.359h2.73a1.18,1.18,0,0,1,0,2.359Z" transform="translate(-4481.322 -1707.564)" fill="#6278aa"/>
            <path id="Trazado_19970" data-name="Trazado 19970" d="M4509.657,1720.843a1.179,1.179,0,0,1-1.18-1.18v-10.92a1.18,1.18,0,0,1,2.359,0v10.92A1.179,1.179,0,0,1,4509.657,1720.843Z" transform="translate(-4491.53 -1707.564)" fill="#6278aa"/>
            <path id="Trazado_19971" data-name="Trazado 19971" d="M4402.049,1737.225H4384.3a2.547,2.547,0,0,1-2.544-2.545v-4.071a3.549,3.549,0,0,1,3.481-3.539c2.22-.031,6.148-.068,9.72-.009l-1.593-3.745a1.179,1.179,0,1,1,2.17-.924l2.309,5.427a1.176,1.176,0,0,1-.111,1.127,1.142,1.142,0,0,1-1.008.514c-3.931-.112-8.865-.067-11.454-.031a1.18,1.18,0,0,0-1.154,1.18v4.071a.185.185,0,0,0,.186.185h17.745a2.428,2.428,0,0,0,2.091-.883,4.617,4.617,0,0,0,.2-3.981l-4.219-13.068c-1.7-4.773-4.247-7.01-8.015-7.01h-.314l-6.644,10.854a2.51,2.51,0,0,1-2.206,1.281h0a2.538,2.538,0,0,1-2.241-1.337l-6.612-10.8h-.314c-2.966,0-5.113,1.341-6.757,4.22a1.179,1.179,0,1,1-2.048-1.17c2.049-3.589,5.012-5.409,8.8-5.409h.976a1.18,1.18,0,0,1,1.005.564l6.988,11.418c.046.08.085.154.2.154a.17.17,0,0,0,.162-.1l7.021-11.475a1.178,1.178,0,0,1,1.005-.564h.976c4.771,0,8.219,2.9,10.248,8.613l4.232,13.107a6.814,6.814,0,0,1-.542,6.093A4.673,4.673,0,0,1,4402.049,1737.225Z" transform="translate(-4364.813 -1707.564)" fill="#6278aa"/>
          </g>
        </g>
        <path id="Trazado_19972" data-name="Trazado 19972" d="M4319.065,1942.916h-53.237a1.18,1.18,0,1,1,0-2.359h53.237a1.18,1.18,0,1,1,0,2.359Z" transform="translate(-4263.859 -1887.376)" fill="#6278aa"/>
        <g id="Grupo_9734" data-name="Grupo 9734" transform="translate(11.982 53.33)">
          <path id="Trazado_19973" data-name="Trazado 19973" d="M4388.353,1964.652h-27.644a1.18,1.18,0,0,1-1.134-1.5l5.841-20.477a1.181,1.181,0,0,1,1.134-.856h16.38a1.18,1.18,0,0,1,1.14.878l5.422,20.477a1.181,1.181,0,0,1-1.14,1.481Zm-26.08-2.359h24.548l-4.8-18.117h-14.582Z" transform="translate(-4359.53 -1941.816)" fill="#6278aa"/>
        </g>
      </g>
      <path id="Trazado_19974" data-name="Trazado 19974" d="M4507.827,2082.545" transform="translate(-382.028 -537.139)" fill="none" stroke="#1d1d1b" stroke-linecap="round" stroke-linejoin="round" stroke-width="2"/>
      <path id="Trazado_19975" data-name="Trazado 19975" d="M4467.827,2082.545" transform="translate(-346.747 -537.139)" fill="none" stroke="#1d1d1b" stroke-linecap="round" stroke-linejoin="round" stroke-width="2"/>
      <path id="Trazado_19976" data-name="Trazado 19976" d="M4440.808,2064.9h-11.8a1.18,1.18,0,0,1,0-2.359h11.8a1.18,1.18,0,0,1,0,2.359Z" transform="translate(-311.469 -519.498)" fill="#6278aa"/>
      <path id="Trazado_19977" data-name="Trazado 19977" d="M4448.448,2014.9h-9.437a1.18,1.18,0,1,1,0-2.359h9.437a1.18,1.18,0,1,1,0,2.359Z" transform="translate(-320.29 -475.396)" fill="#6278aa"/>
      <g id="Grupo_9736" data-name="Grupo 9736" transform="translate(4074.707 1473.569)">
        <path id="Trazado_19978" data-name="Trazado 19978" d="M4089.793,1503.743a15.087,15.087,0,1,1,6.405-28.75,1.18,1.18,0,0,1-1,2.136,12.73,12.73,0,1,0,7.326,11.528q0-.612-.057-1.209a1.179,1.179,0,1,1,2.348-.224q.067.708.068,1.433A15.1,15.1,0,0,1,4089.793,1503.743Z" transform="translate(-4074.707 -1473.569)" fill="#ff5a5a"/>
        <path id="Trazado_19979" data-name="Trazado 19979" d="M4135.523,1514.869a1.178,1.178,0,0,1-.738-.259l-7.9-6.337a1.179,1.179,0,0,1-.117-1.732l3.065-3.235a1.178,1.178,0,0,1,1.585-.116l3.767,2.964,10.727-11.464a1.182,1.182,0,0,1,.843-.374,1.112,1.112,0,0,1,.853.346l3.091,3.091a1.18,1.18,0,0,1,.022,1.646l-14.341,15.1A1.179,1.179,0,0,1,4135.523,1514.869Zm-6.163-7.635,6.055,4.857,12.8-13.483-1.416-1.416-10.633,11.364a1.18,1.18,0,0,1-1.591.122l-3.772-2.968Z" transform="translate(-4120.34 -1491.866)" fill="#ff5a5a"/>
      </g>
    </g>
  </g>
</svg>
