<svg xmlns="http://www.w3.org/2000/svg" width="136" height="136" viewBox="0 0 136 136">
  <g id="Grupo_12222" data-name="Grupo 12222" transform="translate(-538 -1975)">
    <g id="Elipse_643" data-name="Elipse 643" transform="translate(538 1975)" fill="#fdf8eb" stroke="#6278aa" stroke-width="3">
      <circle cx="68" cy="68" r="68" stroke="none"/>
      <circle cx="68" cy="68" r="66.5" fill="none"/>
    </g>
    <g id="Grupo_9723" data-name="Grupo 9723" transform="translate(295 1873.002)">
      <g id="Grupo_9720" data-name="Grupo 9720">
        <g id="Grupo_9718" data-name="Grupo 9718">
          <path id="Trazado_19942" data-name="Trazado 19942" d="M303.271,175.323c-.031,0-.063,0-.1-.005a1,1,0,0,1-.9-1.09l.056-.584a8.033,8.033,0,0,1,2.351-4.665,7.889,7.889,0,0,0-.32-11.483,8.015,8.015,0,0,0-13.286,4.88,7.878,7.878,0,0,0,2.385,6.725,7.5,7.5,0,0,1,2.271,4.983l.013.162a1,1,0,1,1-1.994.154l-.014-.177a5.515,5.515,0,0,0-1.659-3.677,9.856,9.856,0,0,1-2.986-8.417,10,10,0,0,1,19.913,1.26,9.837,9.837,0,0,1-2.909,7,6.031,6.031,0,0,0-1.779,3.476l-.051.547A1,1,0,0,1,303.271,175.323Z" fill="#ff5a5a"/>
        </g>
        <path id="Trazado_19943" data-name="Trazado 19943" d="M298.826,151.466a1,1,0,0,1-1-1V147a1,1,0,0,1,2,0v3.466A1,1,0,0,1,298.826,151.466Z" fill="#ff5a5a"/>
        <path id="Trazado_19944" data-name="Trazado 19944" d="M315,165.33h-3.537a1,1,0,0,1,0-2H315a1,1,0,0,1,0,2Z" fill="#ff5a5a"/>
        <path id="Trazado_19945" data-name="Trazado 19945" d="M309.8,154.932a1,1,0,0,1-.707-1.707l2.31-2.31a1,1,0,1,1,1.414,1.414l-2.31,2.31A1,1,0,0,1,309.8,154.932Z" fill="#ff5a5a"/>
        <path id="Trazado_19946" data-name="Trazado 19946" d="M287.852,154.932a1,1,0,0,1-.708-.293l-2.31-2.31a1,1,0,1,1,1.414-1.414l2.311,2.31a1,1,0,0,1-.707,1.707Z" fill="#ff5a5a"/>
        <g id="Grupo_9719" data-name="Grupo 9719">
          <path id="Trazado_19947" data-name="Trazado 19947" d="M286.189,165.33h-3.538a1,1,0,0,1,0-2h3.538a1,1,0,0,1,0,2Z" fill="#ff5a5a"/>
        </g>
        <path id="Trazado_19948" data-name="Trazado 19948" d="M303.412,179.1h-8.933a1,1,0,0,1,0-2h8.933a1,1,0,0,1,0,2Z" fill="#ff5a5a"/>
        <path id="Trazado_19949" data-name="Trazado 19949" d="M301.737,182.867h-5.583a1,1,0,0,1,0-2h5.583a1,1,0,0,1,0,2Z" fill="#ff5a5a"/>
      </g>
      <g id="Grupo_9721" data-name="Grupo 9721">
        <path id="Trazado_19950" data-name="Trazado 19950" d="M305,204a1,1,0,0,1-1-1V191a1,1,0,0,1,1-1h11a4,4,0,0,0,4-4V176a1,1,0,0,1,1-1h5.615l-6.646-19.031a.984.984,0,0,1-.052-.245,21.2,21.2,0,0,0-18.85-19.624,20.781,20.781,0,0,0-16.152,5.36A21.043,21.043,0,0,0,278,157v46a1,1,0,0,1-2,0V157a23.052,23.052,0,0,1,7.57-17.021,22.744,22.744,0,0,1,17.691-5.869A23.191,23.191,0,0,1,321.9,155.434l6.552,18.945A1.954,1.954,0,0,1,326.615,177H322v9a6.006,6.006,0,0,1-6,6H306v11A1,1,0,0,1,305,204Z" fill="#6278aa"/>
      </g>
      <g id="Grupo_9722" data-name="Grupo 9722">
        <path id="Trazado_19951" data-name="Trazado 19951" d="M327,204a1,1,0,0,1-1-1V191a1,1,0,0,1,1-1h11a4,4,0,0,0,4-4V176a1,1,0,0,1,1-1h5.615l-6.646-19.031a.984.984,0,0,1-.052-.245,21.2,21.2,0,0,0-18.85-19.624,20.864,20.864,0,0,0-8.747,1,1,1,0,0,1-.64-1.895,22.823,22.823,0,0,1,9.581-1.091A23.191,23.191,0,0,1,343.9,155.434l6.552,18.945A1.954,1.954,0,0,1,348.615,177H344v9a6.006,6.006,0,0,1-6,6H328v11A1,1,0,0,1,327,204Z" fill="#6278aa"/>
      </g>
    </g>
  </g>
</svg>
