<svg xmlns="http://www.w3.org/2000/svg" width="136" height="136" viewBox="0 0 136 136">
  <g id="Grupo_12223" data-name="Grupo 12223" transform="translate(-538 -1767)">
    <g id="Elipse_642" data-name="Elipse 642" transform="translate(538 1767)" fill="#fdf8eb" stroke="#6278aa" stroke-width="3">
      <circle cx="68" cy="68" r="68" stroke="none"/>
      <circle cx="68" cy="68" r="66.5" fill="none"/>
    </g>
    <g id="Grupo_9717" data-name="Grupo 9717" transform="translate(544.061 1531.363)">
      <g id="Grupo_9713" data-name="Grupo 9713" transform="translate(18.939 264.696)">
        <g id="Grupo_9712" data-name="Grupo 9712">
          <path id="Trazado_19927" data-name="Trazado 19927" d="M37.693,282.414c-4.638,0-7.755-3.562-7.755-8.862s3.116-8.862,7.755-8.862,7.755,3.56,7.755,8.862S42.331,282.414,37.693,282.414Zm0-15.509c-4.088,0-5.539,3.58-5.539,6.647S33.6,280.2,37.693,280.2s5.539-3.581,5.539-6.647S41.78,266.9,37.693,266.9Z" transform="translate(-17.753 -264.689)" fill="#6278aa"/>
          <path id="Trazado_19928" data-name="Trazado 19928" d="M46.046,342.462a1.108,1.108,0,0,1-1.108-1.108V304.8a1.108,1.108,0,0,1,2.216,0v36.557A1.108,1.108,0,0,1,46.046,342.462Z" transform="translate(-16.137 -260.485)" fill="#6278aa"/>
          <path id="Trazado_19929" data-name="Trazado 19929" d="M28.046,342.462a1.108,1.108,0,0,1-1.108-1.108V304.8a1.108,1.108,0,0,1,2.216,0v36.557A1.108,1.108,0,0,1,28.046,342.462Z" transform="translate(-18.077 -260.485)" fill="#6278aa"/>
          <path id="Trazado_19930" data-name="Trazado 19930" d="M38.261,284.9H36.046a1.108,1.108,0,0,1,0-2.216h2.216a1.108,1.108,0,0,1,0,2.216Z" transform="translate(-17.215 -262.749)" fill="#6278aa"/>
          <path id="Trazado_19931" data-name="Trazado 19931" d="M37.046,297.09a1.108,1.108,0,0,1-1.108-1.108V283.8a1.108,1.108,0,1,1,2.216,0v12.186A1.108,1.108,0,0,1,37.046,297.09Z" transform="translate(-17.107 -262.749)" fill="#6278aa"/>
          <path id="Trazado_19932" data-name="Trazado 19932" d="M52.019,307.149H43.787a11.674,11.674,0,0,1-2.981-.547,1.2,1.2,0,0,1-.143.022l-6.372.522-10.782,0a5.008,5.008,0,0,1-3.722-1.593,3.408,3.408,0,0,1-.81-2.757l2.3-12.847c.8-3.948,5.2-7.263,9.6-7.263h1.358a1.108,1.108,0,0,1,1.01.651l5.671,12.59,5.6-12.59a1.108,1.108,0,0,1,1.01-.651h.791a8.857,8.857,0,0,1,8.5,7.238l1.738,12.884a3.159,3.159,0,0,1-.724,2.615A5.088,5.088,0,0,1,52.019,307.149Zm-11.528-3.012a10.92,10.92,0,0,0,3.3.8h8.232a2.866,2.866,0,0,0,2.1-.914.952.952,0,0,0,.251-.844L52.632,290.3a6.619,6.619,0,0,0-6.317-5.392H46.24l-5.377,11.936a2.237,2.237,0,0,1-1.985,1.235,2.211,2.211,0,0,1-1.951-1.167L31.516,284.9h-.643c-3.36,0-6.827,2.552-7.419,5.464l-2.292,12.787a1.159,1.159,0,0,0,.3.952,2.825,2.825,0,0,0,2.046.826H34.2l3.137-.259c-2.471-1.563-6.866-3.948-10.316-3.6a1.108,1.108,0,0,1-1.192-1.339l1.222-5.578a1.108,1.108,0,0,1,2.165.474l-.923,4.214C33.623,299.164,39.64,303.5,40.491,304.137Z" transform="translate(-18.939 -262.749)" fill="#6278aa"/>
          <path id="Trazado_19933" data-name="Trazado 19933" d="M26.433,299.757a1.107,1.107,0,0,1-.9-1.756l1.34-1.859a2.627,2.627,0,0,1,3-1.123l4.356.815c1.188-.133,7.728-.785,12.3.652l-.325-3.288a1.108,1.108,0,1,1,2.2-.218l.506,5.118a1.109,1.109,0,0,1-1.628,1.085c-4.1-2.208-12.871-1.141-12.96-1.13a1.176,1.176,0,0,1-.341-.01l-4.627-.866a1.12,1.12,0,0,1-.238-.074c-.082-.035-.311.135-.455.336l-1.34,1.859A1.108,1.108,0,0,1,26.433,299.757Z" transform="translate(-18.251 -261.747)" fill="#6278aa"/>
        </g>
      </g>
      <path id="Trazado_19934" data-name="Trazado 19934" d="M37.108,341.156A1.108,1.108,0,0,1,36,340.048v-19.94a1.108,1.108,0,0,1,2.216,0v19.94A1.108,1.108,0,0,1,37.108,341.156Z" transform="translate(1.839 5.861)" fill="#6278aa"/>
      <g id="Grupo_9716" data-name="Grupo 9716" transform="translate(50.829 264.62)">
        <g id="Grupo_9715" data-name="Grupo 9715">
          <path id="Trazado_19935" data-name="Trazado 19935" d="M92.539,302.537a1.108,1.108,0,0,1-.959-1.661A22.734,22.734,0,1,0,49.9,283.672a1.107,1.107,0,1,1-2.139-.573A24.948,24.948,0,1,1,93.5,301.982,1.107,1.107,0,0,1,92.539,302.537Z" transform="translate(-47.726 -264.62)" fill="#ff5a5a"/>
          <path id="Trazado_19936" data-name="Trazado 19936" d="M71.145,310.731a24.928,24.928,0,0,1-16.392-6.142,1.109,1.109,0,0,1,1.458-1.671,22.728,22.728,0,0,0,32.6-2.833,1.108,1.108,0,1,1,1.722,1.4A24.856,24.856,0,0,1,71.145,310.731Z" transform="translate(-47.009 -260.841)" fill="#ff5a5a"/>
          <path id="Trazado_19937" data-name="Trazado 19937" d="M70.363,296.723a8.73,8.73,0,1,1,7.681-4.571,1.108,1.108,0,1,1-1.947-1.058,6.517,6.517,0,1,0-2.354,2.47,1.108,1.108,0,1,1,1.151,1.893A8.725,8.725,0,0,1,70.363,296.723Z" transform="translate(-46.227 -263.043)" fill="#ff5a5a"/>
          <path id="Trazado_19938" data-name="Trazado 19938" d="M71.2,306.14a17.311,17.311,0,1,1,14.988-8.64,1.107,1.107,0,1,1-1.915-1.112,15.115,15.115,0,1,0-2.117,2.829,1.107,1.107,0,1,1,1.606,1.524A17.165,17.165,0,0,1,71.2,306.14Z" transform="translate(-47.062 -263.878)" fill="#ff5a5a"/>
          <g id="Grupo_9714" data-name="Grupo 9714" transform="translate(23.039 23.839)">
            <path id="Trazado_19939" data-name="Trazado 19939" d="M96.282,304.006a1.114,1.114,0,0,1-.554-.148l-5.779-3.337a1.109,1.109,0,0,1,.016-1.929l4.861-2.7a1.11,1.11,0,0,1,1.091.009l5.78,3.337a1.108,1.108,0,0,1-.017,1.929l-4.86,2.7A1.109,1.109,0,0,1,96.282,304.006ZM92.75,299.58l3.543,2.045,2.6-1.445-3.542-2.045Z" transform="translate(-66.273 -285.103)" fill="#ff5a5a"/>
            <path id="Trazado_19940" data-name="Trazado 19940" d="M96.375,309.3a1.113,1.113,0,0,1-.554-.148l-5.779-3.337a1.109,1.109,0,0,1-.554-.941l-.093-5.56a1.108,1.108,0,0,1,1.662-.978l5.779,3.338a1.107,1.107,0,0,1,.554.94l.093,5.559a1.109,1.109,0,0,1-1.108,1.127Zm-4.683-5.09,3.543,2.045-.05-2.975-3.543-2.045Z" transform="translate(-66.273 -284.841)" fill="#ff5a5a"/>
            <path id="Trazado_19941" data-name="Trazado 19941" d="M101.008,306.472a1.105,1.105,0,0,1-.553-.148L69.077,288.208a1.108,1.108,0,0,1,1.108-1.92l31.378,18.117a1.108,1.108,0,0,1-.555,2.067Z" transform="translate(-68.523 -286.14)" fill="#ff5a5a"/>
          </g>
        </g>
      </g>
    </g>
  </g>
</svg>
