<svg xmlns="http://www.w3.org/2000/svg" width="126.599" height="153.946" viewBox="0 0 126.599 153.946">
  <g id="Grupo_9661" data-name="Grupo 9661" transform="translate(-282.649 -1615.861)">
    <rect id="Rectángulo_2239" data-name="Rectángulo 2239" width="17.039" height="134.881" transform="translate(380.371 1627.172)" fill="#ffd571"/>
    <path id="Trazado_19783" data-name="Trazado 19783" d="M380.259,1756.455l17.895,3.937,3.936,17.895L431.373,1749s-3.936-17.405-20.463-21.928Z" transform="translate(-67.155 -76.514)" fill="#ffd571"/>
    <path id="Trazado_19784" data-name="Trazado 19784" d="M288.649,1621.861v150.2H384.5v-150.2Zm47.925,98.184a33.913,33.913,0,1,1,33.913-33.913A33.912,33.912,0,0,1,336.574,1720.045Z" transform="translate(-4.128 -4.128)" fill="#fff0ce"/>
    <path id="Trazado_19785" data-name="Trazado 19785" d="M466.258,2020.2H373.736v-7.57h92.522a3.785,3.785,0,0,1,3.785,3.785h0A3.785,3.785,0,0,1,466.258,2020.2Z" transform="translate(-62.667 -272.976)" fill="#ffd571"/>
    <path id="Trazado_19786" data-name="Trazado 19786" d="M315.2,1994.06H288.65v-8.08l2.519-2.85-2.519-2.672v-21.551l2.965-3.028-2.965-3.206v-8.139H315.2Z" transform="translate(-4.128 -226.125)" fill="#ffd571"/>
    <path id="Trazado_19787" data-name="Trazado 19787" d="M314.46,1958.11H292.876l-2.393-2.585v-7.744h25.976v7.8Z" transform="translate(-5.39 -228.358)" fill="#fff"/>
    <path id="Trazado_19788" data-name="Trazado 19788" d="M314.46,2069.2H292.876l-2.393,2.585v7.744h25.976v-7.8Z" transform="translate(-5.39 -311.893)" fill="#fff"/>
    <g id="Grupo_9660" data-name="Grupo 9660" transform="translate(282.649 1615.861)">
      <g id="Grupo_9659" data-name="Grupo 9659" transform="translate(0)">
        <path id="Trazado_19789" data-name="Trazado 19789" d="M380.371,1732.319a1.872,1.872,0,0,1-1.872-1.872V1619.605H286.393v87.909a1.872,1.872,0,1,1-3.744,0v-89.781a1.872,1.872,0,0,1,1.872-1.872h95.85a1.872,1.872,0,0,1,1.872,1.872v112.714A1.872,1.872,0,0,1,380.371,1732.319Z" transform="translate(-282.649 -1615.861)" fill="#3d4c6d"/>
        <path id="Trazado_19790" data-name="Trazado 19790" d="M628.22,1754.53a1.872,1.872,0,0,1-1.872-1.872V1651.89H620a1.872,1.872,0,1,1,0-3.744h8.215a1.872,1.872,0,0,1,1.872,1.872v102.64A1.872,1.872,0,0,1,628.22,1754.53Z" transform="translate(-513.458 -1638.073)" fill="#3d4c6d"/>
        <path id="Trazado_19791" data-name="Trazado 19791" d="M628.22,2071.165H620a1.872,1.872,0,0,1,0-3.744h6.343v-5.988a1.872,1.872,0,1,1,3.744,0v7.86A1.872,1.872,0,0,1,628.22,2071.165Z" transform="translate(-513.458 -1921.122)" fill="#3d4c6d"/>
        <g id="Grupo_9655" data-name="Grupo 9655" transform="translate(0 101.217)">
          <g id="Grupo_9654" data-name="Grupo 9654">
            <path id="Trazado_19792" data-name="Trazado 19792" d="M369.608,2014.943a1.872,1.872,0,0,1-1.872-1.872v-14.6a1.872,1.872,0,1,1,3.744,0v14.6A1.873,1.873,0,0,1,369.608,2014.943Z" transform="translate(-341.188 -1979.022)" fill="#3d4c6d"/>
            <path id="Trazado_19793" data-name="Trazado 19793" d="M311.069,1992.995H284.521a1.872,1.872,0,0,1-1.872-1.872v-8.269a1.872,1.872,0,0,1,.683-1.445l1.176-.968-1.2-1.028a1.87,1.87,0,0,1-.656-1.423v-22.216a1.871,1.871,0,0,1,.661-1.427l1.353-1.149-1.466-1.468a1.872,1.872,0,0,1-.547-1.323v-8.269a1.872,1.872,0,0,1,1.872-1.872h26.548a1.872,1.872,0,0,1,1.872,1.872v8.269a1.873,1.873,0,0,1-.282.988l-1.85,2.974a1.872,1.872,0,0,1-1.59.883H295.04a1.872,1.872,0,1,1,0-3.744h13.139l1.018-1.636v-5.862h-22.8v5.622l2.353,2.356a1.872,1.872,0,0,1-.113,2.75l-2.24,1.9v20.487l2.244,1.918a1.872,1.872,0,0,1-.027,2.869l-2.217,1.825v5.513h22.8v-5.7l-.837-.974H295.04a1.872,1.872,0,1,1,0-3.744h14.179a1.873,1.873,0,0,1,1.42.652l1.85,2.153a1.871,1.871,0,0,1,.452,1.22v8.269A1.872,1.872,0,0,1,311.069,1992.995Z" transform="translate(-282.649 -1940.266)" fill="#3d4c6d"/>
          </g>
          <path id="Trazado_19794" data-name="Trazado 19794" d="M462.13,2017.948H369.608a1.872,1.872,0,1,1,0-3.744H462.13a1.913,1.913,0,0,0,0-3.827H369.608a1.872,1.872,0,1,1,0-3.744H462.13a5.657,5.657,0,1,1,0,11.315Z" transform="translate(-341.188 -1985.926)" fill="#3d4c6d"/>
        </g>
        <g id="Grupo_9658" data-name="Grupo 9658" transform="translate(14.012 30.359)">
          <g id="Grupo_9657" data-name="Grupo 9657" transform="translate(10.322 1.958)">
            <g id="Grupo_9656" data-name="Grupo 9656">
              <path id="Trazado_19795" data-name="Trazado 19795" d="M362.512,1779.69a1.872,1.872,0,0,1-1.849-2.167l4.249-26.617a1.874,1.874,0,0,1,.525-1.028l29.89-29.891a1.872,1.872,0,0,1,2.648,2.647L368.514,1752.1l-3.736,23.4,22.9-4.2,28.87-28.87a1.872,1.872,0,0,1,2.648,2.647l-29.283,29.282a1.87,1.87,0,0,1-.986.518l-26.08,4.786A1.84,1.84,0,0,1,362.512,1779.69Z" transform="translate(-360.64 -1719.439)" fill="#3d4c6d"/>
              <path id="Trazado_19796" data-name="Trazado 19796" d="M397.959,1840.815a1.873,1.873,0,0,1-1.827-1.47l-3.679-16.726-16.726-3.679a1.872,1.872,0,1,1,.8-3.657l17.895,3.936a1.872,1.872,0,0,1,1.426,1.426l3.936,17.9a1.874,1.874,0,0,1-1.83,2.275Z" transform="translate(-370.009 -1785.35)" fill="#3d4c6d"/>
              <path id="Trazado_19797" data-name="Trazado 19797" d="M433.484,1775.346a1.872,1.872,0,0,1-1.324-3.2l25.511-25.511a1.872,1.872,0,0,1,2.648,2.647L434.808,1774.8A1.866,1.866,0,0,1,433.484,1775.346Z" transform="translate(-409.468 -1737.775)" fill="#3d4c6d"/>
            </g>
            <path id="Trazado_19798" data-name="Trazado 19798" d="M375.253,1880.727a1.872,1.872,0,0,1-1.855-1.637c-.644-5.09-6.047-6.582-6.276-6.643a1.872,1.872,0,0,1,.938-3.625c.33.085,8.087,2.158,9.054,9.8a1.872,1.872,0,0,1-1.622,2.092A1.791,1.791,0,0,1,375.253,1880.727Z" transform="translate(-364.139 -1822.171)" fill="#3d4c6d"/>
          </g>
          <path id="Trazado_19799" data-name="Trazado 19799" d="M363.344,1784.732a35.508,35.508,0,0,1-14.773-3.182,1.872,1.872,0,0,1,1.547-3.41,32.018,32.018,0,1,0-15.686-15.365,1.872,1.872,0,1,1-3.377,1.618,35.463,35.463,0,0,1-3.5-15.446,35.785,35.785,0,1,1,35.785,35.785Z" transform="translate(-327.559 -1713.163)" fill="#3d4c6d"/>
        </g>
        <path id="Trazado_19800" data-name="Trazado 19800" d="M340.339,1694.5H327.065a1.872,1.872,0,1,1,0-3.744h13.274a1.872,1.872,0,1,1,0,3.744Z" transform="translate(-311.919 -1667.385)" fill="#3d4c6d"/>
        <path id="Trazado_19801" data-name="Trazado 19801" d="M358.721,1662.488H327.065a1.872,1.872,0,0,1,0-3.744h31.656a1.872,1.872,0,0,1,0,3.744Z" transform="translate(-311.919 -1645.364)" fill="#3d4c6d"/>
      </g>
      <path id="Trazado_19802" data-name="Trazado 19802" d="M461.39,2075.068H402.283a1.872,1.872,0,0,1,0-3.744h57.235v-9.892a1.872,1.872,0,0,1,3.744,0V2073.2A1.872,1.872,0,0,1,461.39,2075.068Z" transform="translate(-363.668 -1921.122)" fill="#3d4c6d"/>
    </g>
  </g>
</svg>
