<svg xmlns="http://www.w3.org/2000/svg" width="208.495" height="113.778" viewBox="0 0 208.495 113.778">
  <g id="Grupo_9673" data-name="Grupo 9673" transform="translate(-875 -2369.672)">
    <g id="Grupo_9668" data-name="Grupo 9668" transform="translate(-798.484 1441.373)">
      <path id="Trazado_19804" data-name="Trazado 19804" d="M1818.757,1054.922h-22.078l-.2,9.733-8.528-9.733H1773.37a5.9,5.9,0,0,1-5.885-5.885v-20.221a5.9,5.9,0,0,1,5.885-5.885h45.387a5.9,5.9,0,0,1,5.885,5.885v20.221A5.9,5.9,0,0,1,1818.757,1054.922Z" transform="translate(-4.526 -71.37)" fill="#fff0ce"/>
      <rect id="Rectángulo_2241" data-name="Rectángulo 2241" width="43.02" height="28.933" rx="14.466" transform="translate(1772.575 929.774)" fill="#fff"/>
      <rect id="Rectángulo_2242" data-name="Rectángulo 2242" width="43.02" height="28.933" rx="14.466" transform="translate(1820.116 929.774)" fill="#fff0ce"/>
      <path id="Trazado_19805" data-name="Trazado 19805" d="M2077.872,1018.894h-14.029l-11.887,11.382,3.161-11.382H2036a5.6,5.6,0,0,1-5.578-5.578V992.4a5.6,5.6,0,0,1,5.578-5.579h41.877a5.6,5.6,0,0,1,5.578,5.579v20.919A5.6,5.6,0,0,1,2077.872,1018.894Z" transform="translate(-202.824 -44.134)" fill="#fff"/>
      <path id="Trazado_19806" data-name="Trazado 19806" d="M1952.22,981.689a14.382,14.382,0,0,1-1.762,5.669l-3.973,7.117a14.382,14.382,0,0,1-12.558,7.371h0a14.382,14.382,0,0,1-12.557-7.371l-3.974-7.117a14.384,14.384,0,0,1-1.762-5.669l-3.7-16.022a24.761,24.761,0,0,1,2.988-17.125c3.136-5.255,8.8-10.2,19-10.2s15.865,4.946,19,10.2a24.761,24.761,0,0,1,2.988,17.124Z" transform="translate(-113.155 -7.573)" fill="#fff"/>
      <path id="Trazado_19807" data-name="Trazado 19807" d="M1953.551,1177.3l-.887,8.629,13.033,9.464,11.551-9.464-1.176-9.917s-4.93,5.082-11.116,5.082S1953.551,1177.3,1953.551,1177.3Z" transform="translate(-144.184 -186.818)" fill="#fff"/>
      <path id="Trazado_19808" data-name="Trazado 19808" d="M1913.2,963.58s7.792-7.257,16.911-6.415,10.508-3.471,10.508-3.471a28.82,28.82,0,0,0,15.823,9.255s4.494-28.609-21.694-28.609S1912.562,960.827,1913.2,963.58Z" transform="translate(-113.974 -4.556)" fill="#ffd571"/>
      <path id="Trazado_19809" data-name="Trazado 19809" d="M1886.844,1257.326l-3.091-22.6-3.073-3.6-36.868-14.77-11.551,9.464-13.033-9.464-37.24,14.912-3.218,4.829-3.035,21.234Z" transform="translate(-10.748 -217.243)" fill="#ffd571"/>
      <path id="Trazado_19810" data-name="Trazado 19810" d="M1913.747,1216.351l8.13,39.465-16.656-13.216,4.368-7.361-8.527-5.058Z" transform="translate(-105.267 -217.243)" fill="#fff"/>
      <path id="Trazado_19811" data-name="Trazado 19811" d="M1952.664,1216.351l11.551,9.464-3.593,5.867,4.334,4.921-4.161,19.214Z" transform="translate(-144.184 -217.243)" fill="#fff"/>
      <path id="Trazado_19812" data-name="Trazado 19812" d="M2029.164,1216.351l-8.13,39.465,16.656-13.216-4.368-7.361,8.527-5.058Z" transform="translate(-195.747 -217.243)" fill="#fff"/>
      <path id="Trazado_19813" data-name="Trazado 19813" d="M2016.4,1216.351l-11.551,9.464,3.593,5.867-4.334,4.921,4.161,19.214Z" transform="translate(-182.979 -217.243)" fill="#fff"/>
      <g id="Grupo_9667" data-name="Grupo 9667" transform="translate(1761.484 928.299)">
        <g id="Grupo_9666" data-name="Grupo 9666" transform="translate(2.458 0)">
          <g id="Grupo_9664" data-name="Grupo 9664" transform="translate(32.627)">
            <path id="Trazado_19814" data-name="Trazado 19814" d="M1928.4,995.621a16.066,16.066,0,0,1-14.017-8.228l-4.027-7.214a15.952,15.952,0,0,1-1.957-6.227l-3.726-16.147c-.005-.022-.01-.045-.014-.068a26.545,26.545,0,0,1,3.213-18.379c4.318-7.235,11.416-11.06,20.527-11.06s16.209,3.824,20.527,11.06a26.549,26.549,0,0,1,3.214,18.378c0,.023-.009.045-.014.068l-3.725,16.148a15.957,15.957,0,0,1-1.957,6.227l-4.027,7.214A16.066,16.066,0,0,1,1928.4,995.621Zm-20.845-38.445,3.74,16.207a1.437,1.437,0,0,1,.031.194,13.018,13.018,0,0,0,1.6,5.164l4.027,7.215a13.1,13.1,0,0,0,22.882,0l4.027-7.215a13.022,13.022,0,0,0,1.605-5.164,1.468,1.468,0,0,1,.031-.194l3.739-16.207a23.6,23.6,0,0,0-2.85-16.3c-3.81-6.384-9.864-9.622-17.995-9.622s-14.183,3.237-17.994,9.621A23.6,23.6,0,0,0,1907.553,957.176Z" transform="translate(-1904.21 -928.299)" fill="#3d4c6d"/>
            <g id="Grupo_9663" data-name="Grupo 9663" transform="translate(5.98 30.422)">
              <path id="Trazado_19815" data-name="Trazado 19815" d="M1940.148,1064.24h-6.535a5.081,5.081,0,0,1-5.075-5.075v-3.588a3.524,3.524,0,0,1,3.52-3.52h9.646a3.524,3.524,0,0,1,3.52,3.52v3.588A5.081,5.081,0,0,1,1940.148,1064.24Zm-8.09-9.234a.571.571,0,0,0-.57.57v3.588a2.128,2.128,0,0,0,2.126,2.126h6.535a2.128,2.128,0,0,0,2.126-2.126v-3.588a.571.571,0,0,0-.57-.57Z" transform="translate(-1928.538 -1052.057)" fill="#3d4c6d"/>
              <path id="Trazado_19816" data-name="Trazado 19816" d="M2020.405,1064.24h-6.535a5.081,5.081,0,0,1-5.075-5.075v-3.588a3.524,3.524,0,0,1,3.52-3.52h9.646a3.524,3.524,0,0,1,3.52,3.52v3.588A5.082,5.082,0,0,1,2020.405,1064.24Zm-8.09-9.234a.571.571,0,0,0-.57.57v3.588a2.128,2.128,0,0,0,2.126,2.126h6.535a2.128,2.128,0,0,0,2.126-2.126v-3.588a.571.571,0,0,0-.57-.57Z" transform="translate(-1989.066 -1052.057)" fill="#3d4c6d"/>
            </g>
            <path id="Trazado_19817" data-name="Trazado 19817" d="M1930.012,995.221a1.475,1.475,0,0,1-1.1-2.461c.158-.175,3.953-4.268,12.371-2.311a15.36,15.36,0,0,0,10.844-2.623,7.133,7.133,0,0,0,3-5.586,1.475,1.475,0,1,1,2.948.105,10.085,10.085,0,0,1-4.159,7.823c-3.868,2.96-9.918,3.942-13.306,3.154-6.631-1.542-9.482,1.379-9.509,1.409A1.471,1.471,0,0,1,1930.012,995.221Z" transform="translate(-1922.557 -967.906)" fill="#3d4c6d"/>
            <path id="Trazado_19818" data-name="Trazado 19818" d="M2032.354,1017.449a1.479,1.479,0,0,1-.4-.056,16.232,16.232,0,0,1-7.188-4.678,1.475,1.475,0,0,1,2.252-1.9h0a13.392,13.392,0,0,0,5.736,3.744,1.475,1.475,0,0,1-.4,2.895Z" transform="translate(-1994.867 -990.134)" fill="#3d4c6d"/>
          </g>
          <g id="Grupo_9665" data-name="Grupo 9665" transform="translate(0 59.22)">
            <path id="Trazado_19819" data-name="Trazado 19819" d="M1772.96,1223.309a1.535,1.535,0,0,1-.17-.01,1.475,1.475,0,0,1-1.3-1.633l2.268-19.818a10.553,10.553,0,0,1,7.772-9l32.943-13.158,1.088-9.181a1.475,1.475,0,0,1,2.929.347l-1.192,10.052a1.475,1.475,0,0,1-.918,1.2l-33.841,13.517a1.429,1.429,0,0,1-.175.058,7.619,7.619,0,0,0-5.678,6.51L1774.424,1222A1.475,1.475,0,0,1,1772.96,1223.309Z" transform="translate(-1771.483 -1169.208)" fill="#3d4c6d"/>
            <path id="Trazado_19820" data-name="Trazado 19820" d="M1916.411,1254.15a1.469,1.469,0,0,1-.727-.193c-.036-.021-.072-.043-.107-.067a1.509,1.509,0,0,1-.13-.1l-17.1-14.481a1.475,1.475,0,0,1-.315-1.878l3.675-6.193-7.375-4.374a1.475,1.475,0,0,1-.334-2.266l12.847-14.006q.048-.053.1-.1a1.466,1.466,0,0,1,.742-.366,1.35,1.35,0,0,1,.258-.022,1.468,1.468,0,0,1,.94.34l11.7,9.587a1.475,1.475,0,0,1,.323,1.911l-3.073,5.019,3.674,4.171a1.474,1.474,0,0,1,.341,1.256l-3.986,20.537a1.471,1.471,0,0,1-.168.474h0a1.474,1.474,0,0,1-.937.711q-.061.015-.123.024A1.477,1.477,0,0,1,1916.411,1254.15Zm-15.2-16.286,12.9,10.924-7.023-34.089-9.68,10.554,7.081,4.2a1.475,1.475,0,0,1,.516,2.021Zm9.022-22.509,6.14,29.8,2.45-12.622-3.914-4.443a1.475,1.475,0,0,1-.151-1.745l2.97-4.851Z" transform="translate(-1863.592 -1200.049)" fill="#3d4c6d"/>
            <path id="Trazado_19821" data-name="Trazado 19821" d="M2087.988,1223.309a1.475,1.475,0,0,1-1.463-1.307l-2.268-19.819a7.616,7.616,0,0,0-5.678-6.5,1.439,1.439,0,0,1-.176-.058l-33.841-13.517a1.474,1.474,0,0,1-.917-1.2l-1.192-10.052a1.475,1.475,0,1,1,2.929-.347l1.088,9.181,32.943,13.158a10.551,10.551,0,0,1,7.772,8.991l2.268,19.825a1.475,1.475,0,0,1-1.3,1.633A1.533,1.533,0,0,1,2087.988,1223.309Z" transform="translate(-1975.836 -1169.208)" fill="#3d4c6d"/>
            <path id="Trazado_19822" data-name="Trazado 19822" d="M2002.074,1254.15a1.49,1.49,0,0,1-.225-.017c-.043-.007-.086-.015-.129-.026a1.471,1.471,0,0,1-.85-.577,1.514,1.514,0,0,1-.087-.137v0h0a1.471,1.471,0,0,1-.165-.468l-3.986-20.537a1.475,1.475,0,0,1,.341-1.256l3.673-4.171-3.073-5.019a1.475,1.475,0,0,1,.323-1.911l11.7-9.586a1.468,1.468,0,0,1,.94-.34,2.538,2.538,0,0,1,.256.022,1.466,1.466,0,0,1,.743.365c.036.033.07.067.1.1l12.846,14.006a1.475,1.475,0,0,1-.335,2.266l-7.374,4.374,3.675,6.193a1.475,1.475,0,0,1-.315,1.878l-17.1,14.482c-.025.022-.051.043-.078.063a1.477,1.477,0,0,1-.884.3Zm9.328-39.451-7.023,34.089,12.9-10.924-3.792-6.389a1.475,1.475,0,0,1,.516-2.021l7.081-4.2Zm-11.736,17.835,2.45,12.622,6.14-29.8-7.495,6.14,2.97,4.851a1.475,1.475,0,0,1-.151,1.745Z" transform="translate(-1941.266 -1200.05)" fill="#3d4c6d"/>
          </g>
        </g>
        <path id="Trazado_19823" data-name="Trazado 19823" d="M2107.146,1026.848a1.475,1.475,0,0,1-1.421-1.87l2.643-9.512h-3.3a1.475,1.475,0,0,1,0-2.95h5.236a1.475,1.475,0,0,1,1.421,1.87l-1.725,6.208,8.009-7.669a1.476,1.476,0,0,1,1.02-.41h13.854a4.161,4.161,0,0,0,4.156-4.156V987.424a4.161,4.161,0,0,0-4.156-4.156h-24.926a1.475,1.475,0,0,1,0-2.95h24.926a7.114,7.114,0,0,1,7.106,7.106v20.937a7.114,7.114,0,0,1-7.106,7.106h-13.262l-11.459,10.972A1.475,1.475,0,0,1,2107.146,1026.848Z" transform="translate(-2019.499 -967.531)" fill="#3d4c6d"/>
        <path id="Trazado_19824" data-name="Trazado 19824" d="M1791.956,1061.6a1.475,1.475,0,0,1-1.1-.491l-8.088-9.034H1768.59a7.114,7.114,0,0,1-7.106-7.106v-20.937a7.114,7.114,0,0,1,7.106-7.106h3.985a1.475,1.475,0,0,1,0,2.95h-3.985a4.161,4.161,0,0,0-4.156,4.156v20.937a4.161,4.161,0,0,0,4.156,4.156h14.837a1.475,1.475,0,0,1,1.1.491l6.032,6.737.12-5.784a1.475,1.475,0,0,1,1.475-1.444h4.1a1.475,1.475,0,1,1,0,2.95H1793.6l-.168,8.081a1.475,1.475,0,0,1-1.474,1.444Z" transform="translate(-1761.484 -995.144)" fill="#3d4c6d"/>
        <path id="Trazado_19825" data-name="Trazado 19825" d="M1818.512,960.182h-9.318a8.6,8.6,0,0,1-8.593-8.593v-14.7a8.6,8.6,0,0,1,8.593-8.593h19.814a1.475,1.475,0,1,1,0,2.95h-19.814a5.649,5.649,0,0,0-5.643,5.643v14.7a5.649,5.649,0,0,0,5.643,5.643h9.318a1.475,1.475,0,0,1,0,2.95Z" transform="translate(-1790.986 -928.299)" fill="#3d4c6d"/>
        <path id="Trazado_19826" data-name="Trazado 19826" d="M2102.266,944.036a1.475,1.475,0,0,1-1.475-1.475v-5.67a5.65,5.65,0,0,0-5.643-5.643h-15.413a1.475,1.475,0,0,1,0-2.95h15.413a8.6,8.6,0,0,1,8.593,8.593v5.67A1.475,1.475,0,0,1,2102.266,944.036Z" transform="translate(-2000.391 -928.299)" fill="#3d4c6d"/>
        <path id="Trazado_19827" data-name="Trazado 19827" d="M2154.951,1332.64a1.475,1.475,0,0,1-1.471-1.4l-.821-15.515a1.475,1.475,0,1,1,2.945-.156l.821,15.515a1.475,1.475,0,0,1-1.395,1.551Z" transform="translate(-2056.499 -1219.32)" fill="#3d4c6d"/>
        <path id="Trazado_19828" data-name="Trazado 19828" d="M1837.349,1332.639l-.079,0a1.475,1.475,0,0,1-1.4-1.551l.821-15.515a1.475,1.475,0,0,1,2.946.156l-.821,15.515A1.475,1.475,0,0,1,1837.349,1332.639Z" transform="translate(-1817.586 -1219.319)" fill="#3d4c6d"/>
      </g>
    </g>
    <g id="Grupo_9672" data-name="Grupo 9672" transform="translate(-2412.46 71.877)">
      <rect id="Rectángulo_2243" data-name="Rectángulo 2243" width="66.703" height="46.164" rx="23.082" transform="translate(3288.365 2351.442)" fill="#ffd571"/>
      <rect id="Rectángulo_2244" data-name="Rectángulo 2244" width="31.038" height="42.796" transform="translate(3327.79 2364.277)" fill="#fff0ce"/>
      <rect id="Rectángulo_2245" data-name="Rectángulo 2245" width="31.038" height="42.796" transform="translate(3324.031 2367.873)" fill="#fff"/>
      <rect id="Rectángulo_2246" data-name="Rectángulo 2246" width="3.833" height="34.232" transform="translate(3300.774 2351.442)" fill="#fff"/>
      <rect id="Rectángulo_2247" data-name="Rectángulo 2247" width="3.833" height="12.608" transform="translate(3338.796 2351.442)" fill="#fff"/>
      <g id="Grupo_9671" data-name="Grupo 9671" transform="translate(3287.46 2343.849)">
        <g id="Grupo_9670" data-name="Grupo 9670" transform="translate(35.666 19.297)">
          <path id="Trazado_19829" data-name="Trazado 19829" d="M3556.1,2541.887h-31.038a.9.9,0,0,1-.9-.9v-42.8a.9.9,0,0,1,.9-.9H3556.1a.9.9,0,0,1,.9.9v42.8A.9.9,0,0,1,3556.1,2541.887Zm-30.134-1.808H3555.2v-40.988h-29.229Z" transform="translate(-3524.161 -2493.461)" fill="#3d4c6d"/>
          <path id="Trazado_19830" data-name="Trazado 19830" d="M3581.05,2516.974a.9.9,0,0,1-.9-.9v-42.344h-30.134a.9.9,0,0,1,0-1.808h31.038a.9.9,0,0,1,.9.9v43.248A.9.9,0,0,1,3581.05,2516.974Z" transform="translate(-3545.349 -2471.918)" fill="#3d4c6d"/>
          <g id="Grupo_9669" data-name="Grupo 9669" transform="translate(6.342 12.195)">
            <path id="Trazado_19831" data-name="Trazado 19831" d="M3609.678,2554.658h-7.927a.9.9,0,1,1,0-1.808h7.927a.9.9,0,1,1,0,1.808Z" transform="translate(-3595.633 -2552.85)" fill="#3d4c6d"/>
            <path id="Trazado_19832" data-name="Trazado 19832" d="M3585.506,2589.467h-18.354a.9.9,0,0,1,0-1.808h18.354a.9.9,0,0,1,0,1.808Z" transform="translate(-3566.248 -2582.414)" fill="#3d4c6d"/>
            <path id="Trazado_19833" data-name="Trazado 19833" d="M3585.506,2631.234h-18.354a.9.9,0,0,1,0-1.808h18.354a.9.9,0,0,1,0,1.808Z" transform="translate(-3566.248 -2617.887)" fill="#3d4c6d"/>
            <path id="Trazado_19834" data-name="Trazado 19834" d="M3585.506,2673h-18.354a.9.9,0,0,1,0-1.808h18.354a.9.9,0,0,1,0,1.808Z" transform="translate(-3566.248 -2653.36)" fill="#3d4c6d"/>
            <path id="Trazado_19835" data-name="Trazado 19835" d="M3574.173,2714.767h-7.021a.9.9,0,0,1,0-1.808h7.021a.9.9,0,0,1,0,1.808Z" transform="translate(-3566.248 -2688.834)" fill="#3d4c6d"/>
          </g>
        </g>
        <path id="Trazado_19836" data-name="Trazado 19836" d="M3318.735,2436.215h-26.04a5.239,5.239,0,0,1-5.233-5.233v-37.507a5.239,5.239,0,0,1,5.233-5.233h58.045a5.239,5.239,0,0,1,5.233,5.233v3.37a.9.9,0,0,1-1.808,0v-3.37a3.429,3.429,0,0,0-3.425-3.425h-58.045a3.429,3.429,0,0,0-3.425,3.425v37.507a3.428,3.428,0,0,0,3.425,3.425h26.04a.9.9,0,0,1,0,1.808Z" transform="translate(-3287.462 -2381.553)" fill="#3d4c6d"/>
        <path id="Trazado_19837" data-name="Trazado 19837" d="M3443.311,2352.346a.9.9,0,0,1-.814-1.3l2.449-5.1a3.718,3.718,0,0,1,3.335-2.1h9.906a3.683,3.683,0,0,1,3.293,2.014l2.645,5.168a.9.9,0,0,1-1.61.824l-2.645-5.168a1.884,1.884,0,0,0-1.684-1.029h-9.906a1.9,1.9,0,0,0-1.705,1.073l-2.449,5.1A.9.9,0,0,1,3443.311,2352.346Z" transform="translate(-3419.06 -2343.849)" fill="#3d4c6d"/>
        <path id="Trazado_19838" data-name="Trazado 19838" d="M3374.551,2424.282h-3.832a.9.9,0,0,1-.9-.9v-34.232a.9.9,0,0,1,1.808,0v33.328h2.024v-33.328a.9.9,0,0,1,1.808,0v34.232A.9.9,0,0,1,3374.551,2424.282Z" transform="translate(-3357.406 -2381.553)" fill="#3d4c6d"/>
        <path id="Trazado_19839" data-name="Trazado 19839" d="M3648.491,2397.9a.9.9,0,0,1-.9-.9v-7.849a.9.9,0,0,1,1.808,0V2397A.9.9,0,0,1,3648.491,2397.9Z" transform="translate(-3593.323 -2381.553)" fill="#3d4c6d"/>
        <path id="Trazado_19840" data-name="Trazado 19840" d="M3623.056,2397.9a.9.9,0,0,1-.9-.9v-7.849a.9.9,0,0,1,1.808,0V2397A.9.9,0,0,1,3623.056,2397.9Z" transform="translate(-3571.721 -2381.553)" fill="#3d4c6d"/>
        <path id="Trazado_19841" data-name="Trazado 19841" d="M3300.774,2493.684h-5.521a5.7,5.7,0,0,1-5.172-3.319l-2.538-5.542a.9.9,0,0,1,1.644-.753l2.539,5.542a3.89,3.89,0,0,0,3.527,2.264h5.521a.9.9,0,0,1,0,1.808Z" transform="translate(-3287.46 -2462.493)" fill="#3d4c6d"/>
        <path id="Trazado_19842" data-name="Trazado 19842" d="M3410.281,2540.658h-14.128a.9.9,0,0,1,0-1.808h14.128a.9.9,0,0,1,0,1.808Z" transform="translate(-3379.007 -2509.467)" fill="#3d4c6d"/>
        <path id="Trazado_19843" data-name="Trazado 19843" d="M3374.551,2480.965h-3.832a.9.9,0,0,1,0-1.808h3.832a.9.9,0,0,1,0,1.808Z" transform="translate(-3357.406 -2458.769)" fill="#3d4c6d"/>
      </g>
    </g>
  </g>
</svg>
