<svg xmlns="http://www.w3.org/2000/svg" width="176.866" height="159.937" viewBox="0 0 176.866 159.937">
  <g id="Grupo_9684" data-name="Grupo 9684" transform="translate(-3278.4 -933.746)">
    <path id="Trazado_19872" data-name="Trazado 19872" d="M3461.457,1076.645h46.753s.681-23.257-5.644-25.593l-12.659-4.674-.448-4.117a6.654,6.654,0,0,1-4.442,1.312,6.548,6.548,0,0,1-4.809-2.161l-.449,4.966s-12.872,4.093-15.587,6.328S3461.457,1076.645,3461.457,1076.645Z" transform="translate(-118.012 -69.409)" fill="#ffd571"/>
    <path id="Trazado_19873" data-name="Trazado 19873" d="M3532,946.338s.483-6.914,7.32-5.679,8.75,11.61,13.011,12.475c0,0-6.82,3.51-13.649-.59S3532,946.338,3532,946.338Z" transform="translate(-163.491 -4.362)" fill="#ffd571"/>
    <path id="Trazado_19874" data-name="Trazado 19874" d="M3488.047,1018.813l9.163-3.3.516-7.37s-3.6-2.288-3.6-10.525c0,0,7.045-1.09,10.137-4.084l6.326,6.21s-.708,5.744-4.569,8.4l.515,7.37,10.019,3.612s-2.163,5.543-14.469,5.543S3488.047,1018.813,3488.047,1018.813Z" transform="translate(-135.154 -38.541)" fill="#fff"/>
    <path id="Trazado_19875" data-name="Trazado 19875" d="M3361.5,1000.692s.784,14.521,8.223,14.521,9.147-15.09,9.147-15.09l-8.685-2.7Z" transform="translate(-53.574 -41.05)" fill="#fff"/>
    <path id="Trazado_19876" data-name="Trazado 19876" d="M3358.553,975.872s-1.812-13.316,8.973-13.316c11.852,0,9.435,14.46,9.435,14.46l-8.972-2.8-9.9,3.029Z" transform="translate(-51.374 -18.573)" fill="#ffd571"/>
    <path id="Trazado_19877" data-name="Trazado 19877" d="M3653,962.556c7.643,0,9.535,5.714,9.385,7.764-7.222,8.025-18.82,8.614-18.82,8.614S3640.279,962.556,3653,962.556Z" transform="translate(-235.165 -18.573)" fill="#ffd571"/>
    <path id="Trazado_19878" data-name="Trazado 19878" d="M3501.079,977.862s-3.128-15.305,8.973-15.305c11.853,0,9.435,14.46,9.435,14.46l-8.972-2.8Z" transform="translate(-143.32 -18.573)" fill="#ffd571"/>
    <path id="Trazado_19879" data-name="Trazado 19879" d="M3308.478,1076.645h53.707s.783-23.257-6.483-25.593l-14.542-4.674-.515-4.117s-1.592,1.312-5.1,1.312a7.934,7.934,0,0,1-5.523-2.161l-.516,4.966s-14.786,4.093-17.906,6.328S3308.478,1076.645,3308.478,1076.645Z" transform="translate(-19.39 -69.409)" fill="#fff0ce"/>
    <path id="Trazado_19880" data-name="Trazado 19880" d="M3596.216,1076.645h53.533s.78-23.257-6.462-25.593l-14.495-4.674-.514-4.117s-1.586,1.312-5.086,1.312a7.9,7.9,0,0,1-5.506-2.161l-.514,4.966s-14.739,4.093-17.848,6.328S3596.216,1076.645,3596.216,1076.645Z" transform="translate(-204.887 -69.409)" fill="#fff0ce"/>
    <rect id="Rectángulo_2256" data-name="Rectángulo 2256" width="173.715" height="11.639" transform="translate(3280.532 1013.475)" fill="#ffd571"/>
    <rect id="Rectángulo_2257" data-name="Rectángulo 2257" width="173.715" height="66.436" transform="translate(3280.532 1025.115)" fill="#fff0ce"/>
    <rect id="Rectángulo_2258" data-name="Rectángulo 2258" width="36.816" height="53.073" transform="translate(3288.771 1038.477)" fill="#fff"/>
    <rect id="Rectángulo_2259" data-name="Rectángulo 2259" width="36.816" height="53.073" transform="translate(3407.873 1038.477)" fill="#fff"/>
    <rect id="Rectángulo_2260" data-name="Rectángulo 2260" width="45.652" height="53.073" transform="translate(3344.165 1038.477)" fill="#fff"/>
    <g id="Grupo_9683" data-name="Grupo 9683" transform="translate(3278.4 933.746)">
      <g id="Grupo_9682" data-name="Grupo 9682" transform="translate(8.247)">
        <path id="Trazado_19881" data-name="Trazado 19881" d="M3363.659,991c-3.9,0-6.366-3.288-7.32-5.454a12.374,12.374,0,0,1-2.524-5.066l-.162-1.27a4.686,4.686,0,0,0-.458-1.507l-.158-.314a9.01,9.01,0,0,1-.946-4.008v-5.26a11.567,11.567,0,0,1,23.133,0v5.025a8.978,8.978,0,0,1-1.221,4.516,4.666,4.666,0,0,0-.6,1.774l-.133,1.044c-.267,2.1-1.969,4.38-2.639,5.209a10.391,10.391,0,0,1-1.322,2.334A6.954,6.954,0,0,1,3363.659,991Zm0-30.181a7.311,7.311,0,0,0-7.3,7.3v5.26a4.727,4.727,0,0,0,.5,2.1l.157.314a8.944,8.944,0,0,1,.875,2.875l.162,1.269a9.206,9.206,0,0,0,1.789,3.148,2.153,2.153,0,0,1,.342.58c.008.02,1.3,3.066,3.483,3.066,2.109,0,3.067-2.771,3.077-2.8a2.2,2.2,0,0,1,.424-.741,8.949,8.949,0,0,0,1.879-3.254l.132-1.044a8.9,8.9,0,0,1,1.15-3.383,4.707,4.707,0,0,0,.64-2.368v-5.025A7.31,7.31,0,0,0,3363.659,960.82Z" transform="translate(-3334.154 -948.451)" fill="#3d4c6d"/>
        <path id="Trazado_19882" data-name="Trazado 19882" d="M3303.745,1071.561a2.217,2.217,0,0,1-.236-.013,2.132,2.132,0,0,1-1.885-2.353l1.912-17.362a9.073,9.073,0,0,1,6.354-8.556l13.183-4.238.395-4.586a2.132,2.132,0,1,1,4.248.366l-.516,6a2.131,2.131,0,0,1-1.472,1.847l-14.541,4.674a4.828,4.828,0,0,0-3.388,4.619,2.071,2.071,0,0,1-.013.233l-1.924,17.471A2.133,2.133,0,0,1,3303.745,1071.561Z" transform="translate(-3301.61 -997.412)" fill="#3d4c6d"/>
        <path id="Trazado_19883" data-name="Trazado 19883" d="M3416.982,1071.56a2.133,2.133,0,0,1-2.117-1.9l-1.924-17.471a2.078,2.078,0,0,1-.013-.234,4.825,4.825,0,0,0-3.38-4.616L3395,1042.664a2.132,2.132,0,0,1-1.472-1.847l-.516-6a2.132,2.132,0,1,1,4.248-.365l.395,4.586,13.191,4.24a9.07,9.07,0,0,1,6.346,8.553l1.913,17.362a2.133,2.133,0,0,1-1.886,2.353A2.276,2.276,0,0,1,3416.982,1071.56Z" transform="translate(-3360.529 -997.411)" fill="#3d4c6d"/>
        <path id="Trazado_19884" data-name="Trazado 19884" d="M3506.459,987.85a5.036,5.036,0,0,1-3.229-1.162l-2.35-1.954c-1.547-1.172-3.889-4.006-4.166-6.181l-.162-1.269a4.677,4.677,0,0,0-.458-1.508l-.157-.313a9.013,9.013,0,0,1-.947-4.009v-5.259a11.567,11.567,0,0,1,23.134,0v5.025a8.971,8.971,0,0,1-1.221,4.516,4.666,4.666,0,0,0-.6,1.774l-.133,1.044c-.263,2.064-2.322,4.954-4.4,6.23l-1.886,1.737A5.046,5.046,0,0,1,3506.459,987.85Zm.1-28.959a7.311,7.311,0,0,0-7.3,7.3v5.259a4.732,4.732,0,0,0,.5,2.1l.157.313a8.934,8.934,0,0,1,.875,2.876l.162,1.269a8.853,8.853,0,0,0,2.528,3.334c.032.023.063.048.094.074l2.39,1.988a.791.791,0,0,0,1.038-.026l2.054-1.892a2.144,2.144,0,0,1,.414-.3,6.652,6.652,0,0,0,2.476-3.18l.133-1.044a8.913,8.913,0,0,1,1.149-3.383,4.705,4.705,0,0,0,.64-2.368v-5.025A7.311,7.311,0,0,0,3506.557,958.891Z" transform="translate(-3426.277 -947.207)" fill="#3d4c6d"/>
        <path id="Trazado_19885" data-name="Trazado 19885" d="M3456.941,1071.561c-.068,0-.136,0-.206-.01a2.132,2.132,0,0,1-1.919-2.325l1.656-17.376a9.038,9.038,0,0,1,5.61-8.544l11.691-4.215.4-4.639a2.132,2.132,0,1,1,4.248.365l-.516,6a2.132,2.132,0,0,1-1.4,1.823l-12.965,4.674a4.859,4.859,0,0,0-2.8,4.643c0,.067,0,.135-.009.2l-1.665,17.471A2.133,2.133,0,0,1,3456.941,1071.561Z" transform="translate(-3400.372 -997.412)" fill="#3d4c6d"/>
        <path id="Trazado_19886" data-name="Trazado 19886" d="M3554.1,1071.56a2.132,2.132,0,0,1-2.12-1.93l-1.666-17.471c-.006-.067-.009-.135-.009-.2a4.858,4.858,0,0,0-2.813-4.646l-12.956-4.671a2.131,2.131,0,0,1-1.4-1.823l-.516-6a2.132,2.132,0,1,1,4.248-.365l.4,4.639,11.682,4.211a9.041,9.041,0,0,1,5.62,8.547l1.656,17.376a2.132,2.132,0,0,1-1.92,2.325C3554.24,1071.557,3554.172,1071.56,3554.1,1071.56Z" transform="translate(-3450.533 -997.411)" fill="#3d4c6d"/>
        <path id="Trazado_19887" data-name="Trazado 19887" d="M3545.079,952.733a15.237,15.237,0,0,1-7.092-1.961,2.132,2.132,0,1,1,1.982-3.775,11.315,11.315,0,0,0,4.951,1.464,26.717,26.717,0,0,1-3.371-4.337c-1.827-2.712-3.716-5.517-6.4-6.012a3.961,3.961,0,0,0-3.256.575c-1.636,1.231-2.245,3.96-2.33,4.819a2.132,2.132,0,1,1-4.243-.417c.052-.53.608-5.249,4.009-7.808a8.208,8.208,0,0,1,6.594-1.361c4.44.821,6.946,4.541,9.157,7.824,2.044,3.034,3.38,4.88,5.106,4.622a2.132,2.132,0,0,1,1.939,3.491A9.491,9.491,0,0,1,3545.079,952.733Z" transform="translate(-3445.827 -933.746)" fill="#3d4c6d"/>
        <path id="Trazado_19888" data-name="Trazado 19888" d="M3498.449,991.069q-.617,0-1.268-.041a2.132,2.132,0,1,1,.268-4.255c7.849.5,10.219-5.179,10.242-5.236a2.132,2.132,0,0,1,3.956,1.592C3511.511,983.465,3508.332,991.069,3498.449,991.069Z" transform="translate(-3426.4 -963.693)" fill="#3d4c6d"/>
        <path id="Trazado_19889" data-name="Trazado 19889" d="M3355.521,996.328a2.132,2.132,0,0,1-.05-4.263c6.612-.158,8.844-3.58,8.937-3.726a2.118,2.118,0,0,1,2.909-.745,2.146,2.146,0,0,1,.75,2.932c-.134.228-3.383,5.585-12.495,5.8Z" transform="translate(-3334.991 -968.268)" fill="#3d4c6d"/>
        <path id="Trazado_19890" data-name="Trazado 19890" d="M3392,997.768a19.134,19.134,0,0,1-8.8-2.336,2.132,2.132,0,0,1,2.016-3.757,14.381,14.381,0,0,0,7.038,1.824,2.132,2.132,0,0,1,.341,4.25C3392.555,997.752,3392.348,997.768,3392,997.768Z" transform="translate(-3353.483 -970.927)" fill="#3d4c6d"/>
        <path id="Trazado_19891" data-name="Trazado 19891" d="M3536.532,995.073a2.126,2.126,0,0,1-1.491-.608l-6.726-6.58a2.132,2.132,0,1,1,2.981-3.048l6.726,6.58a2.132,2.132,0,0,1-1.49,3.656Z" transform="translate(-3447.346 -966.291)" fill="#3d4c6d"/>
        <path id="Trazado_19892" data-name="Trazado 19892" d="M3498.212,1068.8c-11.494,0-15.678-6.586-15.85-6.867a2.132,2.132,0,0,1,3.621-2.252c.152.234,3.286,4.854,12.229,4.854,9.275,0,13.6-4.383,13.778-4.569a2.132,2.132,0,0,1,3.1,2.922C3514.87,1063.129,3509.445,1068.8,3498.212,1068.8Z" transform="translate(-3417.932 -1014.289)" fill="#3d4c6d"/>
        <path id="Trazado_19893" data-name="Trazado 19893" d="M3494.864,1118.735a7.391,7.391,0,0,1-3.214-.719,9.158,9.158,0,0,1-4.433-5.232,2.132,2.132,0,0,1,4.065-1.285,5,5,0,0,0,2.224,2.678,4.383,4.383,0,0,0,3.5-.179,2.132,2.132,0,1,1,1.577,3.961A10.06,10.06,0,0,1,3494.864,1118.735Z" transform="translate(-3421.202 -1047.382)" fill="#3d4c6d"/>
        <path id="Trazado_19894" data-name="Trazado 19894" d="M3537.987,1118.751a10.072,10.072,0,0,1-3.721-.776,2.132,2.132,0,0,1,1.577-3.961,4.386,4.386,0,0,0,3.5.179,5,5,0,0,0,2.225-2.679,2.132,2.132,0,0,1,4.064,1.286,9.157,9.157,0,0,1-4.433,5.232A7.384,7.384,0,0,1,3537.987,1118.751Z" transform="translate(-3450.731 -1047.399)" fill="#3d4c6d"/>
        <path id="Trazado_19895" data-name="Trazado 19895" d="M3332.423,1110.943a2.133,2.133,0,0,1-2.132-2.132v-13.086a2.132,2.132,0,1,1,4.264,0v13.086A2.133,2.133,0,0,1,3332.423,1110.943Z" transform="translate(-3320.1 -1036.794)" fill="#3d4c6d"/>
        <path id="Trazado_19896" data-name="Trazado 19896" d="M3425.88,1110.943a2.133,2.133,0,0,1-2.132-2.132v-13.086a2.132,2.132,0,1,1,4.264,0v13.086A2.132,2.132,0,0,1,3425.88,1110.943Z" transform="translate(-3380.349 -1036.794)" fill="#3d4c6d"/>
        <path id="Trazado_19897" data-name="Trazado 19897" d="M3650.108,991c-3.9,0-6.365-3.288-7.319-5.454a12.374,12.374,0,0,1-2.524-5.066l-.161-1.27a4.712,4.712,0,0,0-.459-1.507l-.157-.314a9,9,0,0,1-.947-4.008v-5.26a11.567,11.567,0,0,1,23.134,0v5.025a8.974,8.974,0,0,1-1.221,4.516,4.683,4.683,0,0,0-.6,1.774l-.133,1.044c-.268,2.1-1.968,4.38-2.638,5.209a10.417,10.417,0,0,1-1.323,2.334A6.956,6.956,0,0,1,3650.108,991Zm0-30.181a7.311,7.311,0,0,0-7.3,7.3v5.26a4.723,4.723,0,0,0,.5,2.1l.157.314a8.957,8.957,0,0,1,.875,2.875l.161,1.269a9.214,9.214,0,0,0,1.789,3.148,2.121,2.121,0,0,1,.342.58c.008.02,1.3,3.066,3.483,3.066,2.11,0,3.068-2.771,3.077-2.8a2.207,2.207,0,0,1,.424-.741,8.948,8.948,0,0,0,1.879-3.255l.133-1.043a8.917,8.917,0,0,1,1.149-3.383,4.707,4.707,0,0,0,.64-2.368v-5.025A7.31,7.31,0,0,0,3650.108,960.82Z" transform="translate(-3518.819 -948.451)" fill="#3d4c6d"/>
        <path id="Trazado_19898" data-name="Trazado 19898" d="M3590.195,1071.561a2.217,2.217,0,0,1-.236-.013,2.132,2.132,0,0,1-1.885-2.353l1.912-17.362a9.073,9.073,0,0,1,6.355-8.556l13.182-4.238.395-4.586a2.132,2.132,0,0,1,4.249.366l-.517,6a2.131,2.131,0,0,1-1.471,1.847l-14.541,4.674a4.828,4.828,0,0,0-3.388,4.619,1.965,1.965,0,0,1-.013.233l-1.924,17.471A2.131,2.131,0,0,1,3590.195,1071.561Z" transform="translate(-3486.276 -997.412)" fill="#3d4c6d"/>
        <path id="Trazado_19899" data-name="Trazado 19899" d="M3703.432,1071.56a2.132,2.132,0,0,1-2.116-1.9l-1.925-17.471a2.2,2.2,0,0,1-.013-.234,4.825,4.825,0,0,0-3.379-4.616l-14.55-4.677a2.133,2.133,0,0,1-1.472-1.847l-.515-6a2.132,2.132,0,1,1,4.249-.365l.393,4.586,13.191,4.24a9.068,9.068,0,0,1,6.347,8.553l1.913,17.362a2.132,2.132,0,0,1-1.886,2.353A2.276,2.276,0,0,1,3703.432,1071.56Z" transform="translate(-3545.195 -997.411)" fill="#3d4c6d"/>
        <path id="Trazado_19900" data-name="Trazado 19900" d="M3643.76,990.7a18.343,18.343,0,0,1-2.024-.113,2.132,2.132,0,0,1,.472-4.238c8.908.993,15.344-7.044,15.408-7.126a2.132,2.132,0,0,1,3.351,2.637C3660.664,982.24,3653.884,990.7,3643.76,990.7Z" transform="translate(-3519.657 -962.537)" fill="#3d4c6d"/>
        <path id="Trazado_19901" data-name="Trazado 19901" d="M3618.873,1110.943a2.132,2.132,0,0,1-2.132-2.132v-13.086a2.132,2.132,0,1,1,4.264,0v13.086A2.132,2.132,0,0,1,3618.873,1110.943Z" transform="translate(-3504.766 -1036.794)" fill="#3d4c6d"/>
        <path id="Trazado_19902" data-name="Trazado 19902" d="M3712.33,1110.943a2.132,2.132,0,0,1-2.132-2.132v-13.086a2.132,2.132,0,1,1,4.263,0v13.086A2.132,2.132,0,0,1,3712.33,1110.943Z" transform="translate(-3565.015 -1036.794)" fill="#3d4c6d"/>
      </g>
      <path id="Trazado_19903" data-name="Trazado 19903" d="M3453.134,1156.392h-172.6a2.132,2.132,0,0,1,0-4.264h172.6a2.132,2.132,0,0,1,0,4.264Z" transform="translate(-3278.4 -1074.53)" fill="#3d4c6d"/>
      <path id="Trazado_19904" data-name="Trazado 19904" d="M3453.134,1189.149h-172.6a2.132,2.132,0,0,1,0-4.264h172.6a2.132,2.132,0,0,1,0,4.264Z" transform="translate(-3278.4 -1095.648)" fill="#3d4c6d"/>
      <path id="Trazado_19905" data-name="Trazado 19905" d="M3504.693,1279.827a2.132,2.132,0,0,1-2.131-2.132v-50.942h-41.7v50.942a2.132,2.132,0,1,1-4.264,0v-53.074a2.132,2.132,0,0,1,2.132-2.132h45.966a2.132,2.132,0,0,1,2.132,2.132v53.074A2.132,2.132,0,0,1,3504.693,1279.827Z" transform="translate(-3393.277 -1119.89)" fill="#3d4c6d"/>
      <path id="Trazado_19906" data-name="Trazado 19906" d="M3340.533,1279.827a2.133,2.133,0,0,1-2.132-2.132v-50.942h-32.551v50.942a2.132,2.132,0,1,1-4.264,0v-53.074a2.132,2.132,0,0,1,2.131-2.132h36.816a2.132,2.132,0,0,1,2.132,2.132v53.074A2.132,2.132,0,0,1,3340.533,1279.827Z" transform="translate(-3293.346 -1119.89)" fill="#3d4c6d"/>
      <path id="Trazado_19907" data-name="Trazado 19907" d="M3675.723,1279.827a2.132,2.132,0,0,1-2.132-2.132v-50.942h-32.552v50.942a2.132,2.132,0,0,1-4.265,0v-53.074a2.133,2.133,0,0,1,2.132-2.132h36.816a2.132,2.132,0,0,1,2.132,2.132v53.074A2.132,2.132,0,0,1,3675.723,1279.827Z" transform="translate(-3509.434 -1119.89)" fill="#3d4c6d"/>
    </g>
  </g>
</svg>
