<svg xmlns="http://www.w3.org/2000/svg" width="136" height="136" viewBox="0 0 136 136">
  <g id="Grupo_12221" data-name="Grupo 12221" transform="translate(-538 -2180)">
    <g id="Elipse_644" data-name="Elipse 644" transform="translate(538 2180)" fill="#fdf8eb" stroke="#6278aa" stroke-width="3">
      <circle cx="68" cy="68" r="68" stroke="none"/>
      <circle cx="68" cy="68" r="66.5" fill="none"/>
    </g>
    <g id="Grupo_12123" data-name="Grupo 12123" transform="translate(155.586 2060.138)">
      <g id="Grupo_12118" data-name="Grupo 12118" transform="translate(431.002 144.023)">
        <g id="Grupo_12117" data-name="Grupo 12117">
          <path id="Trazado_19980" data-name="Trazado 19980" d="M441.647,162.068h-2.216a1.29,1.29,0,0,1,0-2.58h2.216a1.29,1.29,0,0,1,0,2.58Z" transform="translate(-420.799 -139.541)" fill="#6278aa"/>
          <g id="Grupo_12116" data-name="Grupo 12116" transform="translate(11.801)">
            <path id="Trazado_19981" data-name="Trazado 19981" d="M441.784,162.118c-4.674,0-7.939-3.721-7.939-9.047s3.265-9.048,7.939-9.048,7.939,3.721,7.939,9.048S446.458,162.118,441.784,162.118Zm0-15.515c-3.956,0-5.359,3.485-5.359,6.468s1.4,6.467,5.359,6.467,5.359-3.484,5.359-6.467S445.74,146.6,441.784,146.6Z" transform="translate(-433.845 -144.023)" fill="#6278aa"/>
          </g>
          <path id="Trazado_19982" data-name="Trazado 19982" d="M440.29,174.258a1.289,1.289,0,0,1-1.29-1.29v-12.19a1.29,1.29,0,1,1,2.58,0v12.19A1.289,1.289,0,0,1,440.29,174.258Z" transform="translate(-420.55 -139.541)" fill="#6278aa"/>
          <path id="Trazado_19983" data-name="Trazado 19983" d="M431.171,175.614a1.29,1.29,0,0,1-1.045-2.046l1.341-1.859a2.842,2.842,0,0,1,3.2-1.194l4.316.81c1.243-.139,7.529-.751,12.092.584l-.3-3.021a1.289,1.289,0,0,1,1.156-1.41,1.27,1.27,0,0,1,1.411,1.157l.506,5.121a1.29,1.29,0,0,1-1.9,1.261c-4.04-2.175-12.768-1.12-12.856-1.109a1.413,1.413,0,0,1-.4-.012l-4.629-.868a1.291,1.291,0,0,1-.276-.085c.014.021-.133.13-.236.275l-1.343,1.86A1.286,1.286,0,0,1,431.171,175.614Z" transform="translate(-423.193 -137.227)" fill="#6278aa"/>
          <path id="Trazado_19984" data-name="Trazado 19984" d="M457.58,184.321h-8.234a11.839,11.839,0,0,1-2.99-.542c-.04.006-.08.013-.121.015l-6.373.521-10.8.005a1.191,1.191,0,0,1-.135-.008,4.327,4.327,0,0,1-3.026-1.7,6.551,6.551,0,0,1-1.123-4.9l1.873-10.8c.823-4.041,5.3-7.424,9.779-7.424h1.358a1.291,1.291,0,0,1,1.176.761l5.474,12.154,5.471-12.154a1.291,1.291,0,0,1,1.176-.761h.792a9.043,9.043,0,0,1,8.679,7.387l1.562,11.679a5.068,5.068,0,0,1-1.161,4.087A4.551,4.551,0,0,1,457.58,184.321ZM446.14,180.97a11.023,11.023,0,0,0,3.205.771h8.234a1.986,1.986,0,0,0,1.408-.767,2.514,2.514,0,0,0,.578-2.038L458.013,167.3a6.441,6.441,0,0,0-6.094-5.235L446.588,173.9a2.432,2.432,0,0,1-2.153,1.344h0a2.4,2.4,0,0,1-2.11-1.263l-5.371-11.915h-.524c-3.281,0-6.667,2.488-7.245,5.322l-1.861,10.734a4.034,4.034,0,0,0,.618,2.912,1.749,1.749,0,0,0,1.2.706h10.618l2.576-.213c-2.509-1.537-6.556-3.605-9.739-3.288a1.27,1.27,0,0,1-1.09-.426,1.292,1.292,0,0,1-.3-1.134l1.221-5.578a1.29,1.29,0,1,1,2.52.552l-.878,4.01C439.368,176.088,445.236,180.3,446.14,180.97Z" transform="translate(-424.696 -139.541)" fill="#6278aa"/>
        </g>
      </g>
      <g id="Grupo_12122" data-name="Grupo 12122" transform="translate(402.937 195.586)">
        <g id="Grupo_12119" data-name="Grupo 12119" transform="translate(36.195)">
          <path id="Trazado_19985" data-name="Trazado 19985" d="M442.608,207.216a11.608,11.608,0,1,1,3.114-22.792,1.289,1.289,0,1,1-.69,2.484,9.03,9.03,0,1,0,6.605,8.7,1.29,1.29,0,1,1,2.58,0A11.62,11.62,0,0,1,442.608,207.216Z" transform="translate(-431 -184)" fill="#ff5a5a"/>
          <path id="Trazado_19986" data-name="Trazado 19986" d="M441.339,201.026a1.283,1.283,0,0,1-.89-.357l-4.674-4.464a1.289,1.289,0,1,1,1.78-1.865l3.6,3.437,9.456-13.236a1.289,1.289,0,1,1,2.1,1.5l-10.32,14.446a1.286,1.286,0,0,1-.927.535C441.419,201.024,441.379,201.026,441.339,201.026Z" transform="translate(-429.732 -184)" fill="#ff5a5a"/>
        </g>
        <g id="Grupo_12120" data-name="Grupo 12120" transform="translate(60.541 3.029)">
          <path id="Trazado_19987" data-name="Trazado 19987" d="M463,206.7a1.282,1.282,0,0,1-.6-.148l-5.193-2.729-5.194,2.729a1.289,1.289,0,0,1-1.87-1.359l.989-5.771-1.255-1.19,1.773-1.872,1.755,1.664a1.287,1.287,0,0,1,.384,1.154l-.664,3.875,3.481-1.829a1.287,1.287,0,0,1,1.2,0l3.481,1.829-.664-3.875a1.291,1.291,0,0,1,.37-1.141l2.816-2.743-3.89-.566a1.29,1.29,0,0,1-.971-.706l-1.74-3.525-1.74,3.525a1.294,1.294,0,0,1-.984.708l-2.605.351-.346-2.556,1.926-.259,2.593-5.253a1.343,1.343,0,0,1,2.313,0l2.6,5.261,5.8.844a1.289,1.289,0,0,1,.715,2.2l-4.2,4.1.991,5.782A1.289,1.289,0,0,1,463,206.7Z" transform="translate(-449.875 -186.348)" fill="#ff5a5a"/>
          <path id="Trazado_19988" data-name="Trazado 19988" d="M464.62,206.7a1.289,1.289,0,0,1-1.27-1.508l.985-5.746-1.208-1.081,1.718-1.924,1.742,1.557a1.3,1.3,0,0,1,.411,1.18l-.666,3.875,3.48-1.829a1.289,1.289,0,0,1,1.2,0l3.48,1.829-.663-3.875a1.291,1.291,0,0,1,.37-1.141l2.816-2.743-3.89-.566a1.287,1.287,0,0,1-.971-.706l-1.741-3.525-1.739,3.525a1.286,1.286,0,0,1-.974.706l-2.081.3-.366-2.553,1.408-.2,2.6-5.26a1.343,1.343,0,0,1,2.313,0l2.6,5.261,5.805.844a1.29,1.29,0,0,1,.716,2.2l-4.2,4.094.992,5.782a1.289,1.289,0,0,1-1.87,1.359l-5.194-2.729-5.193,2.729A1.285,1.285,0,0,1,464.62,206.7Z" transform="translate(-446.035 -186.348)" fill="#ff5a5a"/>
        </g>
        <g id="Grupo_12121" data-name="Grupo 12121" transform="translate(0 2.97)">
          <path id="Trazado_19989" data-name="Trazado 19989" d="M432.612,206.71a1.285,1.285,0,0,1-.6-.148l-5.193-2.729-5.194,2.729a1.289,1.289,0,0,1-1.87-1.359l.992-5.782-4.2-4.094a1.29,1.29,0,0,1,.716-2.2l5.805-.844,2.6-5.261a1.289,1.289,0,0,1,1.157-.718h0a1.287,1.287,0,0,1,1.156.718l2.593,5.253,1.926.259-.344,2.556-2.607-.351a1.294,1.294,0,0,1-.984-.708l-1.739-3.525-1.741,3.525a1.287,1.287,0,0,1-.971.706l-3.889.566,2.814,2.743a1.287,1.287,0,0,1,.37,1.141l-.663,3.875,3.48-1.829a1.289,1.289,0,0,1,1.2,0l3.48,1.829-.666-3.875a1.291,1.291,0,0,1,.384-1.154l1.757-1.665,1.773,1.874-1.255,1.189.989,5.771a1.289,1.289,0,0,1-1.27,1.508Z" transform="translate(-399.107 -186.303)" fill="#ff5a5a"/>
          <path id="Trazado_19990" data-name="Trazado 19990" d="M407.807,206.7a1.29,1.29,0,0,1-1.272-1.508l.993-5.782-4.2-4.094a1.29,1.29,0,0,1,.716-2.2l5.805-.844,2.6-5.261a1.343,1.343,0,0,1,2.313,0l2.6,5.26,1.408.2-.365,2.553-2.081-.3a1.283,1.283,0,0,1-.974-.706l-1.741-3.525-1.74,3.525a1.285,1.285,0,0,1-.971.706L407,195.29l2.814,2.743a1.292,1.292,0,0,1,.371,1.141l-.666,3.875,3.48-1.829a1.289,1.289,0,0,1,1.2,0l3.48,1.829-.664-3.875a1.293,1.293,0,0,1,.413-1.18l1.741-1.557,1.718,1.924-1.209,1.081.985,5.746a1.29,1.29,0,0,1-1.872,1.359L413.6,203.82l-5.193,2.729A1.285,1.285,0,0,1,407.807,206.7Z" transform="translate(-402.937 -186.29)" fill="#ff5a5a"/>
        </g>
      </g>
    </g>
  </g>
</svg>
