<svg xmlns="http://www.w3.org/2000/svg" width="136" height="136" viewBox="0 0 136 136">
  <g id="Grupo_12220" data-name="Grupo 12220" transform="translate(-538 -2399)">
    <g id="Elipse_645" data-name="Elipse 645" transform="translate(538 2399)" fill="#fdf8eb" stroke="#6278aa" stroke-width="3">
      <circle cx="68" cy="68" r="68" stroke="none"/>
      <circle cx="68" cy="68" r="66.5" fill="none"/>
    </g>
    <g id="Grupo_9731" data-name="Grupo 9731" transform="translate(-3508 -341.373)">
      <g id="Grupo_9726" data-name="Grupo 9726" transform="translate(4070 2774.873)">
        <g id="Grupo_9725" data-name="Grupo 9725" transform="translate(25.297)">
          <path id="Trazado_19952" data-name="Trazado 19952" d="M4297.28,2958.839h-2.663v-9.32c0-6.943-4.789-11.983-11.387-11.983h-9.18c-6.6,0-11.387,5.04-11.387,11.983v9.32H4260v-9.32c0-8.35,6.041-14.646,14.05-14.646h9.18c8.009,0,14.05,6.3,14.05,14.646Z" transform="translate(-4260 -2913.57)" fill="#6278aa"/>
          <path id="Trazado_19953" data-name="Trazado 19953" d="M4348.252,2793.513c-4.778,0-7.988-3.746-7.988-9.32s3.21-9.32,7.988-9.32,7.989,3.746,7.989,9.32S4353.031,2793.513,4348.252,2793.513Zm0-15.977c-3.926,0-5.326,3.439-5.326,6.657s1.4,6.657,5.326,6.657,5.326-3.439,5.326-6.657S4352.179,2777.536,4348.252,2777.536Z" transform="translate(-4329.578 -2774.873)" fill="#6278aa"/>
          <path id="Trazado_19954" data-name="Trazado 19954" d="M4332.5,3020.264h-21.3v-3.911l-1.083-8.67a3.022,3.022,0,0,1,3-3.4h17.475a3.022,3.022,0,0,1,3,3.4l-1.084,8.67Zm-18.64-2.663h15.978l.01-1.5,1.095-8.752a.348.348,0,0,0-.087-.282.354.354,0,0,0-.269-.121h-17.475a.359.359,0,0,0-.355.4l1.1,8.917Z" transform="translate(-4303.419 -2973.742)" fill="#6278aa"/>
        </g>
        <path id="Trazado_19955" data-name="Trazado 19955" d="M4156.543,3107.536h-85.212a1.331,1.331,0,1,1,0-2.663h85.212a1.331,1.331,0,1,1,0,2.663Z" transform="translate(-4070 -3060.936)" fill="#6278aa"/>
        <path id="Trazado_19956" data-name="Trazado 19956" d="M4548.757,2968.839a1.331,1.331,0,0,1-1.332-1.331v-7.989c0-6.859-7.417-11.983-14.05-11.983h-6.517a1.331,1.331,0,1,1,0-2.663h6.517c7.89,0,16.713,6.263,16.713,14.646v7.989A1.331,1.331,0,0,1,4548.757,2968.839Z" transform="translate(-4464.876 -2922.239)" fill="#6278aa"/>
        <path id="Trazado_19957" data-name="Trazado 19957" d="M4508.174,2803.5a7.236,7.236,0,0,1-5.632-2.5,10.473,10.473,0,0,1-2.345-6.328h0c-.342-5.565,2.633-9.5,7.4-9.795,4.752-.307,8.2,3.248,8.546,8.812a10.462,10.462,0,0,1-1.55,6.569,7.321,7.321,0,0,1-5.851,3.224C4508.551,2803.5,4508.362,2803.5,4508.174,2803.5Zm-5.319-8.992c.2,3.213,1.771,6.556,5.725,6.316a4.693,4.693,0,0,0,3.81-2.058,7.98,7.98,0,0,0,1.1-4.914c-.2-3.213-1.812-6.548-5.725-6.318s-5.1,3.76-4.907,6.973Z" transform="translate(-4442.896 -2783.532)" fill="#6278aa"/>
        <path id="Trazado_19958" data-name="Trazado 19958" d="M4571.331,3072.862a1.331,1.331,0,0,1-1.331-1.331v-2.994a3.667,3.667,0,0,1,3.663-3.663h6.989a1.331,1.331,0,1,1,0,2.663h-6.989a1,1,0,0,0-1,1v2.994A1.33,1.33,0,0,1,4571.331,3072.862Z" transform="translate(-4503.428 -3026.261)" fill="#6278aa"/>
        <path id="Trazado_19959" data-name="Trazado 19959" d="M4091.332,2968.839a1.331,1.331,0,0,1-1.332-1.331v-7.989c0-8.383,8.823-14.646,16.713-14.646h6.517a1.331,1.331,0,1,1,0,2.663h-6.517c-6.632,0-14.05,5.124-14.05,11.983v7.989A1.331,1.331,0,0,1,4091.332,2968.839Z" transform="translate(-4087.337 -2922.239)" fill="#6278aa"/>
        <path id="Trazado_19960" data-name="Trazado 19960" d="M4187.524,2803.513q-.38,0-.772-.035a7.323,7.323,0,0,1-5.762-3.378,11.673,11.673,0,0,1,1.136-12.874,7.806,7.806,0,0,1,12.028,1.063,10.47,10.47,0,0,1,1.376,6.608h0C4195.066,2800.144,4191.889,2803.513,4187.524,2803.513Zm.068-15.976a4.576,4.576,0,0,0-3.508,1.494,7.978,7.978,0,0,0-1.817,4.7c-.283,3.206.809,6.755,4.72,7.1,3.933.354,5.606-2.958,5.891-6.163h0a7.974,7.974,0,0,0-.967-4.941,4.693,4.693,0,0,0-3.752-2.158C4187.965,2787.546,4187.776,2787.537,4187.592,2787.537Z" transform="translate(-4164.972 -2783.542)" fill="#6278aa"/>
        <path id="Trazado_19961" data-name="Trazado 19961" d="M4150.651,3072.862a1.33,1.33,0,0,1-1.331-1.331v-2.994a1,1,0,0,0-1-1h-6.989a1.331,1.331,0,1,1,0-2.663h6.989a3.667,3.667,0,0,1,3.663,3.663v2.994A1.331,1.331,0,0,1,4150.651,3072.862Z" transform="translate(-4130.68 -3026.261)" fill="#6278aa"/>
      </g>
      <g id="Grupo_9730" data-name="Grupo 9730" transform="translate(4076.008 2823.028)">
        <g id="Grupo_9727" data-name="Grupo 9727" transform="translate(19.225 0.308)">
          <path id="Trazado_19962" data-name="Trazado 19962" d="M4277.285,3166.766a3.058,3.058,0,0,1-3.056-3.031l-.031-3.086a18.059,18.059,0,0,1-5.993-2.5l-2.209,2.161a3.064,3.064,0,0,1-4.33-.047l-1.271-1.3a3.058,3.058,0,0,1,.051-4.332l2.213-2.157a17.74,17.74,0,0,1-2.174-5.21,1.331,1.331,0,1,1,2.587-.624,15.139,15.139,0,0,0,2.391,5.246,1.332,1.332,0,0,1-.156,1.724l-3,2.927a.4.4,0,0,0-.121.282.391.391,0,0,0,.113.281l1.273,1.3a.4.4,0,0,0,.564.005l3-2.931a1.328,1.328,0,0,1,1.725-.116,15.34,15.34,0,0,0,6.861,2.859,1.333,1.333,0,0,1,1.134,1.3l.042,4.184a.387.387,0,0,0,.12.281.381.381,0,0,0,.281.113l1.811-.017a.4.4,0,0,0,.394-.4l-.041-4.184a1.33,1.33,0,0,1,1.108-1.325,15.317,15.317,0,0,0,6.811-2.984,1.333,1.333,0,0,1,1.731.083l3.053,2.879a.4.4,0,0,0,.283.108.4.4,0,0,0,.278-.125l1.243-1.317a.4.4,0,0,0-.017-.563l-3.051-2.876a1.33,1.33,0,0,1-.187-1.719,15.22,15.22,0,0,0,2.283-5.258,1.332,1.332,0,0,1,2.6.585,17.882,17.882,0,0,1-2.067,5.209l2.252,2.122a3.066,3.066,0,0,1,.127,4.327l-1.243,1.319a3.068,3.068,0,0,1-4.327.126l-2.251-2.122a18.019,18.019,0,0,1-5.95,2.6l.03,3.084a3.061,3.061,0,0,1-3.029,3.092l-1.812.017Z" transform="translate(-4259.521 -3144.5)" fill="#ff5a5a"/>
          <path id="Trazado_19963" data-name="Trazado 19963" d="M4339.128,3146.981a9.632,9.632,0,0,1-9.039-6.33,1.331,1.331,0,1,1,2.5-.9,6.93,6.93,0,0,0,13,.088,1.332,1.332,0,0,1,2.491.941,9.584,9.584,0,0,1-8.956,6.2Z" transform="translate(-4320.625 -3138.867)" fill="#ff5a5a"/>
        </g>
        <g id="Grupo_9728" data-name="Grupo 9728" transform="translate(57.345 0)">
          <path id="Trazado_19964" data-name="Trazado 19964" d="M4559.216,3149.723a3.059,3.059,0,0,1-2.642-1.506l-1.57-2.656a18.075,18.075,0,0,1-6.491.83l-.092.283a1.332,1.332,0,1,1-2.53-.832l.423-1.283a1.328,1.328,0,0,1,1.42-.906,15.311,15.311,0,0,0,7.371-.953,1.334,1.334,0,0,1,1.635.562l2.128,3.6a.4.4,0,0,0,.546.142l1.558-.921a.4.4,0,0,0,.14-.546l-2.127-3.6a1.333,1.333,0,0,1,.3-1.7,15.4,15.4,0,0,0,2.849-3.108,1.331,1.331,0,0,1,2.192,1.511,17.97,17.97,0,0,1-2.486,2.89l1.569,2.656a3.067,3.067,0,0,1-1.078,4.192l-1.56.922A3.052,3.052,0,0,1,4559.216,3149.723Z" transform="translate(-4545.824 -3136.552)" fill="#ff5a5a"/>
        </g>
        <g id="Grupo_9729" data-name="Grupo 9729" transform="translate(0 0.001)">
          <path id="Trazado_19965" data-name="Trazado 19965" d="M4120.467,3149.731a3.046,3.046,0,0,1-1.55-.424l-1.56-.921a3.067,3.067,0,0,1-1.08-4.192l1.569-2.658a17.963,17.963,0,0,1-2.486-2.89,1.331,1.331,0,0,1,2.192-1.511,15.393,15.393,0,0,0,2.85,3.108,1.331,1.331,0,0,1,.3,1.7l-2.128,3.6a.4.4,0,0,0,.142.546l1.558.919a.4.4,0,0,0,.545-.14l2.128-3.6a1.338,1.338,0,0,1,1.634-.562,15.326,15.326,0,0,0,7.371.953,1.326,1.326,0,0,1,1.42.906l.422,1.283a1.332,1.332,0,1,1-2.53.832l-.092-.283a18.059,18.059,0,0,1-6.491-.83l-1.569,2.658A3.062,3.062,0,0,1,4120.467,3149.731Z" transform="translate(-4115.126 -3136.561)" fill="#ff5a5a"/>
        </g>
      </g>
    </g>
  </g>
</svg>
