<svg xmlns="http://www.w3.org/2000/svg" width="314.523" height="317" viewBox="0 0 314.523 317">
  <g id="Grupo_9711" data-name="Grupo 9711" transform="translate(-1194.545 -1199.994)">
    <g id="Grupo_9685" data-name="Grupo 9685" transform="translate(1459.538 1224.732)">
      <path id="Trazado_19908" data-name="Trazado 19908" d="M725.927,425.3a9.906,9.906,0,1,1,9.906-9.906,9.907,9.907,0,0,1-9.906,9.906m0-14.859a4.953,4.953,0,1,0,4.953,4.953,4.952,4.952,0,0,0-4.953-4.953" transform="translate(-716.021 -405.488)" fill="#5fe0ed"/>
    </g>
    <g id="Grupo_9686" data-name="Grupo 9686" transform="translate(1268.55 1462.509)">
      <rect id="Rectángulo_2263" data-name="Rectángulo 2263" width="4.953" height="54.484" fill="#353535"/>
    </g>
    <g id="Grupo_9687" data-name="Grupo 9687" transform="translate(1428.072 1462.509)">
      <rect id="Rectángulo_2264" data-name="Rectángulo 2264" width="4.953" height="54.484" fill="#353535"/>
    </g>
    <g id="Grupo_9688" data-name="Grupo 9688" transform="translate(1219.31 1403.144)">
      <path id="Trazado_19909" data-name="Trazado 19909" d="M623.974,591.378h-4.953V513.626a17.263,17.263,0,0,1,12.13-16.533L697.9,477.528l1.394,4.755-66.706,19.55a12.313,12.313,0,0,0-8.616,11.793Z" transform="translate(-619.021 -477.528)" fill="#353535"/>
    </g>
    <g id="Grupo_9689" data-name="Grupo 9689" transform="translate(1340.694 1401.038)">
      <path id="Trazado_19910" data-name="Trazado 19910" d="M690.556,501.446H670.743l-2.709-12.383V476.678H692.8v12.385Z" transform="translate(-668.034 -476.678)" fill="#5fe0ed"/>
    </g>
    <g id="Grupo_9690" data-name="Grupo 9690" transform="translate(1338.45 1430.76)">
      <path id="Trazado_19911" data-name="Trazado 19911" d="M696.847,574.913V569.96l-4.953-81.281H672.081l-4.953,81.281v4.953Z" transform="translate(-667.128 -488.679)" fill="#5fe0ed"/>
    </g>
    <g id="Grupo_9691" data-name="Grupo 9691" transform="translate(1296.414 1388.185)">
      <path id="Trazado_19912" data-name="Trazado 19912" d="M684.826,491.3H650.154v-7.43a12.4,12.4,0,0,1,12.383-12.383h32.2a14.877,14.877,0,0,1,14.859,14.859v2.474h-4.953v-2.474a9.906,9.906,0,1,0-19.812,0Zm-29.719-4.953h24.766a14.793,14.793,0,0,1,3.794-9.906h-21.13a7.439,7.439,0,0,0-7.43,7.43Z" transform="translate(-650.154 -471.488)" fill="#353535"/>
    </g>
    <g id="Grupo_9692" data-name="Grupo 9692" transform="translate(1350.898 1388.185)">
      <path id="Trazado_19913" data-name="Trazado 19913" d="M726.638,491.3H696.92v-4.953a9.906,9.906,0,1,0-19.812,0v2.474h-4.953v-2.474a14.878,14.878,0,0,1,14.859-14.859h27.242a12.4,12.4,0,0,1,12.383,12.383Zm-24.766-4.953h19.813v-2.477a7.438,7.438,0,0,0-7.43-7.43H698.081a14.805,14.805,0,0,1,3.792,9.906" transform="translate(-672.154 -471.488)" fill="#353535"/>
    </g>
    <g id="Grupo_9693" data-name="Grupo 9693" transform="translate(1401.99 1403.144)">
      <path id="Trazado_19914" data-name="Trazado 19914" d="M773.059,591.378h-4.953V513.626a12.333,12.333,0,0,0-8.663-11.808l-66.659-19.535,1.392-4.755,66.706,19.55a17.28,17.28,0,0,1,12.177,16.548Z" transform="translate(-692.784 -477.528)" fill="#353535"/>
    </g>
    <g id="Grupo_9694" data-name="Grupo 9694" transform="translate(1204.452 1289.123)">
      <path id="Trazado_19915" data-name="Trazado 19915" d="M622.927,451.3a9.906,9.906,0,1,1,9.906-9.906,9.907,9.907,0,0,1-9.906,9.906m0-14.859a4.953,4.953,0,1,0,4.953,4.953,4.952,4.952,0,0,0-4.953-4.953" transform="translate(-613.021 -431.488)" fill="#fede31"/>
    </g>
    <g id="Grupo_9695" data-name="Grupo 9695" transform="translate(1201.975 1400.568)">
      <rect id="Rectángulo_2265" data-name="Rectángulo 2265" width="4.953" height="19.812" fill="#353535"/>
    </g>
    <g id="Grupo_9696" data-name="Grupo 9696" transform="translate(1194.545 1407.998)">
      <rect id="Rectángulo_2266" data-name="Rectángulo 2266" width="19.812" height="4.953" fill="#353535"/>
    </g>
    <g id="Grupo_9697" data-name="Grupo 9697" transform="translate(1397.918 1430.398)">
      <path id="Trazado_19916" data-name="Trazado 19916" d="M701.046,508.345a9.906,9.906,0,1,1,9.906-9.906,9.907,9.907,0,0,1-9.906,9.906m0-14.859A4.953,4.953,0,1,0,706,498.439a4.952,4.952,0,0,0-4.953-4.953" transform="translate(-691.14 -488.533)" fill="#dededd"/>
    </g>
    <g id="Grupo_9698" data-name="Grupo 9698" transform="translate(1261.412 1252.002)">
      <path id="Trazado_19917" data-name="Trazado 19917" d="M650.88,416.5v66.867L706.251,509.7a26.869,26.869,0,0,1,18.926,25.67,19.813,19.813,0,0,0-19.812-19.812H636.021V416.5Z" transform="translate(-636.021 -416.499)" fill="#dededd"/>
    </g>
    <g id="Grupo_9699" data-name="Grupo 9699" transform="translate(1350.569 1252.002)">
      <path id="Trazado_19918" data-name="Trazado 19918" d="M746.318,416.5v66.867L690.947,509.7a26.869,26.869,0,0,0-18.926,25.67,19.813,19.813,0,0,1,19.812-19.812h69.344V416.5Z" transform="translate(-672.021 -416.499)" fill="#dededd"/>
    </g>
    <g id="Grupo_9700" data-name="Grupo 9700" transform="translate(1249.029 1351.064)">
      <path id="Trazado_19919" data-name="Trazado 19919" d="M631.021,483.741V456.5h81.727a19.813,19.813,0,0,1,19.812,19.813A19.814,19.814,0,0,1,752.372,456.5H834.1v27.242Z" transform="translate(-631.021 -456.499)" fill="#dededd"/>
    </g>
    <g id="Grupo_9701" data-name="Grupo 9701" transform="translate(1348.092 1229.713)">
      <path id="Trazado_19920" data-name="Trazado 19920" d="M675.974,548.663h-4.953V429.788A22.313,22.313,0,0,1,693.31,407.5h86.68V531.327H693.31a17.358,17.358,0,0,0-17.336,17.336M693.31,412.452a17.358,17.358,0,0,0-17.336,17.336v104.88a22.259,22.259,0,0,1,17.336-8.294h81.726V412.452Z" transform="translate(-671.021 -407.499)" fill="#353535"/>
    </g>
    <g id="Grupo_9702" data-name="Grupo 9702" transform="translate(1244.076 1229.713)">
      <path id="Trazado_19921" data-name="Trazado 19921" d="M737.99,548.663h-4.953A17.358,17.358,0,0,0,715.7,531.327h-86.68V407.5H715.7a22.316,22.316,0,0,1,22.289,22.289ZM633.974,526.374H715.7a22.26,22.26,0,0,1,17.336,8.294V429.788A17.358,17.358,0,0,0,715.7,412.452H633.974Z" transform="translate(-629.021 -407.499)" fill="#353535"/>
    </g>
    <g id="Grupo_9703" data-name="Grupo 9703" transform="translate(1244.076 1373.353)">
      <path id="Trazado_19922" data-name="Trazado 19922" d="M842.005,475.405H773.687a10.868,10.868,0,0,1-7.729-3.2,5.938,5.938,0,0,0-4.228-1.751h-4.351a7.444,7.444,0,0,1-7.006,4.953H720.654a7.444,7.444,0,0,1-7.006-4.953H709.3a5.942,5.942,0,0,0-3.779,1.342,2.587,2.587,0,0,1-.215,2.236,3.25,3.25,0,0,1-3.012,1.375H629.021v-4.953H700.49a4.2,4.2,0,0,1,1.077-1.751,10.848,10.848,0,0,1,7.732-3.2h8.878v2.477a2.481,2.481,0,0,0,2.477,2.477h29.719a2.477,2.477,0,0,0,2.477-2.477V465.5h8.881a10.858,10.858,0,0,1,7.73,3.2,5.937,5.937,0,0,0,4.227,1.751h68.318Z" transform="translate(-629.021 -465.499)" fill="#353535"/>
    </g>
    <g id="Grupo_9704" data-name="Grupo 9704" transform="translate(1357.998 1239.619)">
      <path id="Trazado_19923" data-name="Trazado 19923" d="M687.4,411.5a12.4,12.4,0,0,0-12.383,12.383v94.612a27.076,27.076,0,0,1,12.383-2.979Z" transform="translate(-675.021 -411.499)" fill="#dededd"/>
    </g>
    <g id="Grupo_9705" data-name="Grupo 9705" transform="translate(1348.092 1199.994)">
      <path id="Trazado_19924" data-name="Trazado 19924" d="M675.974,566.382h-4.953V447.688a29.164,29.164,0,0,1,20.729-28.052L742.282,395.5h7.989v120.44l-57.112,27.138a24.278,24.278,0,0,0-17.185,23.3M743.4,400.452,693.36,424.324a24.242,24.242,0,0,0-17.386,23.364V550.007A29.292,29.292,0,0,1,691.52,538.4l53.8-25.59V400.452Z" transform="translate(-671.021 -395.499)" fill="#353535"/>
    </g>
    <g id="Grupo_9706" data-name="Grupo 9706" transform="translate(1273.796 1199.994)">
      <path id="Trazado_19925" data-name="Trazado 19925" d="M720.271,566.382h-4.953a24.278,24.278,0,0,0-17.18-23.3l-.332-.129-56.785-27.009V395.5h7.992l50.529,24.137a29.157,29.157,0,0,1,20.729,28.052Zm-20.5-27.983a29.25,29.25,0,0,1,15.543,11.608V447.688a24.237,24.237,0,0,0-17.385-23.364l-.357-.139-49.685-23.733h-1.917V512.809Z" transform="translate(-641.021 -395.499)" fill="#353535"/>
    </g>
    <g id="Grupo_9707" data-name="Grupo 9707" transform="translate(1361.522 1274.261)">
      <path id="Trazado_19926" data-name="Trazado 19926" d="M799.049,445.3H699.493l-23.049-9.882,22.623-9.931h99.984a9.906,9.906,0,1,1,0,19.813Zm-98.54-4.953h98.54a4.953,4.953,0,1,0,0-9.906H700.108l-11.216,4.923Z" transform="translate(-676.444 -425.487)" fill="#353535"/>
    </g>
    <g id="Grupo_9708" data-name="Grupo 9708" transform="translate(1474.221 1276.737)">
      <rect id="Rectángulo_2267" data-name="Rectángulo 2267" width="4.953" height="14.859" fill="#353535"/>
    </g>
    <g id="Grupo_9709" data-name="Grupo 9709" transform="translate(1496.685 1373.326)">
      <rect id="Rectángulo_2268" data-name="Rectángulo 2268" width="4.953" height="19.812" fill="#353535"/>
    </g>
    <g id="Grupo_9710" data-name="Grupo 9710" transform="translate(1489.255 1380.755)">
      <rect id="Rectángulo_2269" data-name="Rectángulo 2269" width="19.812" height="4.953" fill="#353535"/>
    </g>
  </g>
</svg>
