<svg xmlns="http://www.w3.org/2000/svg" width="144.302" height="150.439" viewBox="0 0 144.302 150.439">
  <g id="Grupo_9681" data-name="Grupo 9681" transform="translate(-246.521 -909.624)">
    <rect id="Rectángulo_2248" data-name="Rectángulo 2248" width="92.738" height="90.344" transform="translate(266.414 910.905)" fill="#ffd571"/>
    <rect id="Rectángulo_2249" data-name="Rectángulo 2249" width="92.738" height="76.867" transform="translate(279.811 924.381)" fill="#fff0ce"/>
    <path id="Trazado_19844" data-name="Trazado 19844" d="M469.306,1181.575l23.46,23.1s4.04,4.1,0,7.556-6.213.977-6.213.977l3.737,4h17.1V1181.5H494.931l-9.366-13.569H465.043L451.5,1181.04a7.788,7.788,0,0,0,1.013,7.793c2.938,3.734,8.937,0,8.937,0Z" transform="translate(-142.669 -180.326)" fill="#fff"/>
    <path id="Trazado_19845" data-name="Trazado 19845" d="M402.138,1305.354a5.341,5.341,0,0,0-7.226-.3,5.339,5.339,0,0,0-7.524-7.524,5.34,5.34,0,0,0-.3-7.226h0a5.341,5.341,0,0,0-7.226-.3,5.341,5.341,0,0,0-.3-7.226h0a5.343,5.343,0,0,0-7.556,0l-3.193,3.193a5.343,5.343,0,0,0,0,7.556h0a5.34,5.34,0,0,0,7.226.3,5.34,5.34,0,0,0,.3,7.226h0a5.34,5.34,0,0,0,7.226.3,5.34,5.34,0,0,0,.3,7.226h0a5.34,5.34,0,0,0,7.226.3,5.341,5.341,0,0,0,7.854,7.226l3.193-3.193A5.343,5.343,0,0,0,402.138,1305.354Z" transform="translate(-84.284 -259.416)" fill="#fff"/>
    <rect id="Rectángulo_2250" data-name="Rectángulo 2250" width="12.475" height="45.99" transform="translate(248.332 995.536)" fill="#ffd571"/>
    <rect id="Rectángulo_2251" data-name="Rectángulo 2251" width="12.147" height="45.99" transform="translate(260.479 995.536)" fill="#fff"/>
    <rect id="Rectángulo_2252" data-name="Rectángulo 2252" width="12.147" height="45.99" transform="translate(364.555 995.536)" fill="#fff"/>
    <rect id="Rectángulo_2253" data-name="Rectángulo 2253" width="13.422" height="45.99" transform="translate(376.537 995.536)" fill="#ffd571"/>
    <path id="Trazado_19846" data-name="Trazado 19846" d="M410.466,1217.566l-18.242-18.242L387.883,1193l-8.732,8.731s-4.778,3.9-8.937,0,0-8.937,0-8.937l6.393-6.392-17.023.253-11.057,7.283H332.994V1230.1h17.965a5.313,5.313,0,0,1,1.168-2.468,5.34,5.34,0,0,1-7.226-.3h0a5.343,5.343,0,0,1,0-7.556l3.193-3.193a5.343,5.343,0,0,1,7.556,0h0a5.341,5.341,0,0,1,.3,7.226,5.341,5.341,0,0,1,7.226.3h0a5.338,5.338,0,0,1,1.08,5.991h1.825l.029.036a5.33,5.33,0,0,1,5.8,7.16l.555.685a5.337,5.337,0,0,1,6.42,7.922l1.45,1.789a5.341,5.341,0,0,0,7.99-7.058l1.147,1.147a5.343,5.343,0,0,0,7.556,0h0a5.34,5.34,0,0,0,.589-6.849l.036-.02,1.215,1.215a5.343,5.343,0,0,0,7.556,0h0a5.343,5.343,0,0,0,0-7.556l-2.27-2.27.1-.205a5.343,5.343,0,0,0,6.213-.977h0A5.343,5.343,0,0,0,410.466,1217.566Z" transform="translate(-60.368 -193.222)" fill="#fff0ce"/>
    <g id="Grupo_9680" data-name="Grupo 9680" transform="translate(246.521 909.624)">
      <g id="Grupo_9675" data-name="Grupo 9675" transform="translate(12.475 76.165)">
        <path id="Trazado_19847" data-name="Trazado 19847" d="M452.3,1188.3a8.127,8.127,0,0,1-5.75-13.876l10.383-10.384a7.178,7.178,0,0,1,5.108-2.116h16.078a7.22,7.22,0,0,1,5.965,3.149l7.119,10.42h11.5a1.811,1.811,0,0,1,0,3.623H490.244a1.811,1.811,0,0,1-1.5-.79l-7.658-11.209a3.6,3.6,0,0,0-2.974-1.57H462.038a3.578,3.578,0,0,0-2.547,1.055l-10.383,10.383a4.508,4.508,0,0,0,6.376,6.376l8.732-8.732a1.811,1.811,0,0,1,1.281-.53H475.6a1.811,1.811,0,0,1,0,3.623h-9.356l-8.2,8.2A8.107,8.107,0,0,1,452.3,1188.3Z" transform="translate(-396.978 -1161.927)" fill="#3d4c6d"/>
        <path id="Trazado_19848" data-name="Trazado 19848" d="M368.413,1292.715a7.151,7.151,0,0,1-5.059-12.209l3.193-3.193a7.154,7.154,0,1,1,10.117,10.118l-3.193,3.193A7.132,7.132,0,0,1,368.413,1292.715Zm3.193-13.875a3.507,3.507,0,0,0-2.5,1.035l-3.193,3.193a3.532,3.532,0,1,0,4.994,4.995l3.193-3.193h0a3.532,3.532,0,0,0-2.5-6.029Z" transform="translate(-339.099 -1241.017)" fill="#3d4c6d"/>
        <path id="Trazado_19849" data-name="Trazado 19849" d="M393.33,1317.651a7.154,7.154,0,0,1-5.059-12.213l3.193-3.193a7.154,7.154,0,0,1,10.118,10.118l-3.193,3.193A7.107,7.107,0,0,1,393.33,1317.651Zm3.193-13.877a3.521,3.521,0,0,0-2.5,1.033L390.833,1308a3.532,3.532,0,0,0,4.994,4.995l3.193-3.193a3.53,3.53,0,0,0-2.5-6.027Z" transform="translate(-356.491 -1258.425)" fill="#3d4c6d"/>
        <path id="Trazado_19850" data-name="Trazado 19850" d="M418.263,1342.564a7.151,7.151,0,0,1-5.059-12.21l3.193-3.193a7.154,7.154,0,1,1,10.117,10.118l-3.193,3.193A7.133,7.133,0,0,1,418.263,1342.564Zm3.193-13.875a3.508,3.508,0,0,0-2.5,1.035l-3.193,3.193a3.532,3.532,0,0,0,4.994,4.995l3.193-3.193h0a3.532,3.532,0,0,0-2.5-6.029Z" transform="translate(-373.9 -1275.818)" fill="#3d4c6d"/>
        <path id="Trazado_19851" data-name="Trazado 19851" d="M443.179,1367.5a7.154,7.154,0,0,1-5.059-12.213l3.193-3.193a7.154,7.154,0,0,1,10.118,10.118l-3.193,3.193A7.107,7.107,0,0,1,443.179,1367.5Zm3.193-13.877a3.521,3.521,0,0,0-2.5,1.033l-3.193,3.193a3.532,3.532,0,0,0,4.994,4.995l3.193-3.193a3.53,3.53,0,0,0-2.5-6.027Z" transform="translate(-391.292 -1293.226)" fill="#3d4c6d"/>
        <g id="Grupo_9674" data-name="Grupo 9674" transform="translate(56.681 18.419)">
          <path id="Trazado_19852" data-name="Trazado 19852" d="M483.674,1347.945a7.131,7.131,0,0,1-5.059-2.092l-1.547-1.547a1.811,1.811,0,1,1,2.561-2.561l1.547,1.547a3.532,3.532,0,0,0,4.994-4.994l-10.036-10.036a1.811,1.811,0,1,1,2.562-2.562l10.036,10.036a7.151,7.151,0,0,1-5.059,12.21Z" transform="translate(-475.605 -1294.308)" fill="#3d4c6d"/>
          <path id="Trazado_19853" data-name="Trazado 19853" d="M510.951,1325.376a7.106,7.106,0,0,1-5.059-2.1l-3.193-3.193a1.811,1.811,0,1,1,2.561-2.561l3.193,3.193a3.531,3.531,0,0,0,4.994-4.994l-11.33-11.33a1.811,1.811,0,1,1,2.561-2.561l11.33,11.329a7.154,7.154,0,0,1-5.059,12.213Z" transform="translate(-493.744 -1277.647)" fill="#3d4c6d"/>
          <path id="Trazado_19854" data-name="Trazado 19854" d="M543.416,1325.463a7.132,7.132,0,0,1-5.059-2.092l-3.193-3.193a1.811,1.811,0,0,1,2.562-2.562l3.193,3.193a3.532,3.532,0,0,0,4.994-4.995l-3.193-3.193a1.811,1.811,0,1,1,2.561-2.561l3.193,3.193a7.151,7.151,0,0,1-5.059,12.21Z" transform="translate(-516.814 -1283.39)" fill="#3d4c6d"/>
          <path id="Trazado_19855" data-name="Trazado 19855" d="M539.281,1254.005a7.132,7.132,0,0,1-5.059-2.092l-10.245-10.245a1.811,1.811,0,0,1,2.561-2.562l10.245,10.245a3.532,3.532,0,1,0,4.995-4.994l-18.324-18.324a1.811,1.811,0,0,1,2.562-2.561L544.34,1241.8a7.151,7.151,0,0,1-5.059,12.21Z" transform="translate(-508.639 -1222.941)" fill="#3d4c6d"/>
        </g>
        <path id="Trazado_19856" data-name="Trazado 19856" d="M344.338,1191.558H328.805a1.811,1.811,0,0,1,0-3.623h14.783l2.584-2.584a16.8,16.8,0,0,1,11.957-4.953h14.289a1.811,1.811,0,0,1,0,3.623H358.129a13.2,13.2,0,0,0-9.4,3.892l-3.115,3.114A1.812,1.812,0,0,1,344.338,1191.558Z" transform="translate(-315.175 -1174.822)" fill="#3d4c6d"/>
        <path id="Trazado_19857" data-name="Trazado 19857" d="M335.35,1328.792h-6.545a1.811,1.811,0,0,1,0-3.623h6.545a1.811,1.811,0,0,1,0,3.623Z" transform="translate(-315.175 -1275.889)" fill="#3d4c6d"/>
        <path id="Trazado_19858" data-name="Trazado 19858" d="M608.12,1328.792H596.985a1.811,1.811,0,0,1,0-3.623H608.12a1.811,1.811,0,0,1,0,3.623Z" transform="translate(-502.397 -1275.889)" fill="#3d4c6d"/>
        <path id="Trazado_19859" data-name="Trazado 19859" d="M301.474,1237.826H289.655a1.811,1.811,0,0,1-1.811-1.811v-45.99a1.812,1.812,0,0,1,1.811-1.811h11.819a1.811,1.811,0,0,1,1.811,1.811v45.99A1.811,1.811,0,0,1,301.474,1237.826Zm-10.007-3.623h8.2v-42.368h-8.2Z" transform="translate(-287.844 -1180.278)" fill="#3d4c6d"/>
        <path id="Trazado_19860" data-name="Trazado 19860" d="M645.689,1237.826H633.87a1.811,1.811,0,0,1-1.811-1.811v-45.99a1.812,1.812,0,0,1,1.811-1.811h11.819a1.811,1.811,0,0,1,1.811,1.811v45.99A1.811,1.811,0,0,1,645.689,1237.826Zm-10.007-3.623h8.2v-42.368h-8.2Z" transform="translate(-528.147 -1180.278)" fill="#3d4c6d"/>
      </g>
      <path id="Trazado_19861" data-name="Trazado 19861" d="M260.807,1191.836H248.332a1.811,1.811,0,0,1,0-3.623h12.475a1.811,1.811,0,0,1,0,3.623Z" transform="translate(-246.521 -1104.112)" fill="#3d4c6d"/>
      <path id="Trazado_19862" data-name="Trazado 19862" d="M260.807,1344.182H248.332a1.811,1.811,0,0,1,0-3.623h12.475a1.811,1.811,0,0,1,0,3.623Z" transform="translate(-246.521 -1210.468)" fill="#3d4c6d"/>
      <path id="Trazado_19863" data-name="Trazado 19863" d="M685.495,1191.836H673.02a1.811,1.811,0,0,1,0-3.623h12.475a1.811,1.811,0,0,1,0,3.623Z" transform="translate(-543.004 -1104.112)" fill="#3d4c6d"/>
      <path id="Trazado_19864" data-name="Trazado 19864" d="M685.495,1344.182H673.02a1.811,1.811,0,0,1,0-3.623h12.475a1.811,1.811,0,0,1,0,3.623Z" transform="translate(-543.004 -1210.468)" fill="#3d4c6d"/>
      <path id="Trazado_19865" data-name="Trazado 19865" d="M445.347,1018.991a1.811,1.811,0,0,1-1.811-1.811V956.131H354.421v61.049a1.811,1.811,0,1,1-3.623,0v-62.86a1.811,1.811,0,0,1,1.811-1.811h92.738a1.811,1.811,0,0,1,1.811,1.811v62.86A1.811,1.811,0,0,1,445.347,1018.991Z" transform="translate(-319.319 -939.562)" fill="#3d4c6d"/>
      <path id="Trazado_19866" data-name="Trazado 19866" d="M308.23,989.052a1.811,1.811,0,0,1-1.811-1.811V911.435a1.811,1.811,0,0,1,1.811-1.811h92.738a1.811,1.811,0,0,1,1.811,1.811v5.718a1.811,1.811,0,0,1-3.623,0v-3.907H310.042v73.995A1.811,1.811,0,0,1,308.23,989.052Z" transform="translate(-288.337 -909.624)" fill="#3d4c6d"/>
      <g id="Grupo_9676" data-name="Grupo 9676" transform="translate(43.252 31.305)">
        <path id="Trazado_19867" data-name="Trazado 19867" d="M426.388,1016.948h-34.78a1.811,1.811,0,0,1,0-3.623h34.78a1.811,1.811,0,0,1,0,3.623Z" transform="translate(-389.796 -1013.325)" fill="#3d4c6d"/>
      </g>
      <g id="Grupo_9677" data-name="Grupo 9677" transform="translate(43.252 41.911)">
        <path id="Trazado_19868" data-name="Trazado 19868" d="M417.131,1052.079H391.607a1.811,1.811,0,0,1,0-3.623h25.523a1.811,1.811,0,0,1,0,3.623Z" transform="translate(-389.796 -1048.456)" fill="#3d4c6d"/>
      </g>
      <g id="Grupo_9678" data-name="Grupo 9678" transform="translate(43.252 52.515)">
        <path id="Trazado_19869" data-name="Trazado 19869" d="M459.669,1087.208H391.607a1.811,1.811,0,0,1,0-3.623h68.062a1.811,1.811,0,1,1,0,3.623Z" transform="translate(-389.796 -1083.585)" fill="#3d4c6d"/>
      </g>
      <g id="Grupo_9679" data-name="Grupo 9679" transform="translate(43.252 63.121)">
        <path id="Trazado_19870" data-name="Trazado 19870" d="M459.669,1122.339H391.607a1.811,1.811,0,0,1,0-3.623h68.062a1.811,1.811,0,1,1,0,3.623Z" transform="translate(-389.796 -1118.716)" fill="#3d4c6d"/>
      </g>
    </g>
    <path id="Trazado_19871" data-name="Trazado 19871" d="M344.338,1191.558H328.805a1.811,1.811,0,0,1,0-3.623h14.783l2.584-2.584a16.8,16.8,0,0,1,11.957-4.953h14.289a1.811,1.811,0,0,1,0,3.623H358.129a13.2,13.2,0,0,0-9.4,3.892l-3.115,3.114A1.812,1.812,0,0,1,344.338,1191.558Z" transform="translate(-56.18 -189.033)" fill="#3d4c6d"/>
  </g>
</svg>
