<svg xmlns="http://www.w3.org/2000/svg" width="632" height="71" viewBox="0 0 632 71">
  <g id="Grupo_14481" data-name="Grupo 14481" transform="translate(-384 -1512)">
    <rect id="Rectángulo_3690" data-name="Rectángulo 3690" width="632" height="71" transform="translate(384 1512)" fill="#d5f4fc"/>
    <path id="Trazado_24152" data-name="Trazado 24152" d="M-79.481-11.286c0-3.686-1.368-7.524-7.03-7.524a11.909,11.909,0,0,0-6.08,1.6l.76,2.242a8.863,8.863,0,0,1,4.826-1.368c3.762-.038,4.18,2.736,4.18,4.256v.38c-7.106-.038-11.058,2.394-11.058,6.84A5.24,5.24,0,0,0-88.259.418a6.8,6.8,0,0,0,5.624-2.736h.114l.3,2.318h3a30.859,30.859,0,0,1-.266-4.408Zm-3.268,5.092A3.433,3.433,0,0,1-82.9-5.13a4.643,4.643,0,0,1-4.522,3.078,2.93,2.93,0,0,1-3.116-3.192c0-3.572,4.142-4.218,7.79-4.142Zm6.46-12.2,6.232,9.006L-76.593,0h3.686l2.66-4.142c.684-1.1,1.33-2.09,1.938-3.192h.076c.646,1.1,1.254,2.128,1.976,3.192L-63.559,0h3.8l-6.422-9.5,6.27-8.892h-3.648l-2.546,3.914c-.646.988-1.254,1.938-1.862,3.04h-.114c-.608-1.064-1.178-1.976-1.862-3l-2.622-3.952ZM-49.107-13v-1.618h-6.45v-.044l1.13-1.064c3.037-2.926,4.965-5.076,4.965-7.736a4.047,4.047,0,0,0-4.389-4.189,6.4,6.4,0,0,0-4.078,1.463l.621,1.374a4.906,4.906,0,0,1,3.059-1.219,2.553,2.553,0,0,1,2.837,2.815c0,2.172-1.685,4.034-5.364,7.536L-58.306-14.2V-13Zm11.283-7.216v8.93h-8.588v2.28h8.588V0h2.432V-9.006H-26.8v-2.28h-8.588v-8.93ZM-22.511-4.75c0,1.634-.038,3.5-.152,4.75h2.888l.19-3.04h.076A6.589,6.589,0,0,0-13.353.418c4.1,0,8.284-3.268,8.284-9.88,0-5.548-3.192-9.348-7.752-9.348a6.824,6.824,0,0,0-6.27,3.344h-.076V-26.98h-3.344Zm3.344-5.928a5.242,5.242,0,0,1,.19-1.406,5.3,5.3,0,0,1,5.054-4.1c3.572,0,5.472,3.154,5.472,6.878,0,4.218-2.052,7.068-5.586,7.068a5.192,5.192,0,0,1-5.016-3.914,6.289,6.289,0,0,1-.114-1.216Zm15.58-7.714L2.645-9.386-3.891,0H-.2l2.66-4.142c.684-1.1,1.33-2.09,1.938-3.192h.076c.646,1.1,1.254,2.128,1.976,3.192L9.143,0h3.8L6.521-9.5l6.27-8.892H9.143L6.6-14.478c-.646.988-1.254,1.938-1.862,3.04H4.621c-.608-1.064-1.178-1.976-1.862-3L.137-18.392Zm27.094-1.824v8.93H14.919v2.28h8.588V0h2.432V-9.006h8.588v-2.28H25.939v-8.93ZM51.361-3.192a9.573,9.573,0,0,1-4.1.874c-3.648,0-6.384-2.622-6.384-6.878,0-3.8,2.28-6.954,6.5-6.954a8.189,8.189,0,0,1,3.876.874l.76-2.546a10.529,10.529,0,0,0-4.636-.988c-6,0-9.88,4.142-9.88,9.8C37.491-3.382,41.1.38,46.649.38A12.929,12.929,0,0,0,51.931-.684ZM74.2-12.806v-2.28H54.591v2.28Zm0,7.448v-2.28H54.591v2.28ZM85.333.418c5.4,0,8.55-4.636,8.55-13.034,0-7.866-3-12.5-8.17-12.5-5.016,0-8.626,4.522-8.626,12.844C77.163-4.1,80.469.418,85.3.418Zm.114-2.584c-3.078,0-5.054-3.876-4.978-10.3,0-6.194,1.976-10.07,5.016-10.07,3.5,0,5.016,3.99,5.016,10.07,0,6.308-1.634,10.3-5.016,10.3Z" transform="translate(700 1560)"/>
  </g>
</svg>
