<svg xmlns="http://www.w3.org/2000/svg" width="632" height="107" viewBox="0 0 632 107">
  <g id="Grupo_14480" data-name="Grupo 14480" transform="translate(-384 -1243)">
    <rect id="Rectángulo_3688" data-name="Rectángulo 3688" width="632" height="107" transform="translate(384 1243)" fill="#d5f4fc"/>
    <path id="Trazado_24151" data-name="Trazado 24151" d="M-87.746,0V-10.906l8.55-14.706H-82.92l-3.686,7.068c-.988,1.938-1.9,3.61-2.584,5.282h-.076c-.8-1.786-1.6-3.344-2.546-5.282l-3.61-7.068h-3.8l8.132,14.744V0Zm29.754-12.806v-2.28H-77.6v2.28Zm0,7.448v-2.28H-77.6v2.28Zm17.252-5.928c0-3.686-1.368-7.524-7.03-7.524a11.909,11.909,0,0,0-6.08,1.6l.76,2.242a8.863,8.863,0,0,1,4.826-1.368c3.762-.038,4.18,2.736,4.18,4.256v.38c-7.106-.038-11.058,2.394-11.058,6.84A5.24,5.24,0,0,0-49.518.418a6.8,6.8,0,0,0,5.624-2.736h.114l.3,2.318h3a30.859,30.859,0,0,1-.266-4.408Zm-3.268,5.092A3.433,3.433,0,0,1-44.16-5.13a4.643,4.643,0,0,1-4.522,3.078A2.93,2.93,0,0,1-51.8-5.244c0-3.572,4.142-4.218,7.79-4.142Zm6.46-12.2,6.232,9.006L-37.852,0h3.686l2.66-4.142c.684-1.1,1.33-2.09,1.938-3.192h.076c.646,1.1,1.254,2.128,1.976,3.192L-24.818,0h3.8L-27.44-9.5l6.27-8.892h-3.648l-2.546,3.914c-.646.988-1.254,1.938-1.862,3.04h-.114c-.608-1.064-1.178-1.976-1.862-3l-2.622-3.952ZM-10.366-13v-1.618h-6.45v-.044l1.13-1.064c3.037-2.926,4.965-5.076,4.965-7.736a4.047,4.047,0,0,0-4.389-4.189,6.4,6.4,0,0,0-4.078,1.463l.621,1.374a4.906,4.906,0,0,1,3.059-1.219,2.553,2.553,0,0,1,2.837,2.815c0,2.172-1.685,4.034-5.364,7.536L-19.565-14.2V-13ZM.916-20.216v8.93H-7.672v2.28H.916V0H3.348V-9.006h8.588v-2.28H3.348v-8.93ZM16.23-4.75c0,1.634-.038,3.5-.152,4.75h2.888l.19-3.04h.076A6.589,6.589,0,0,0,25.388.418c4.1,0,8.284-3.268,8.284-9.88,0-5.548-3.192-9.348-7.752-9.348a6.824,6.824,0,0,0-6.27,3.344h-.076V-26.98H16.23Zm3.344-5.928a5.242,5.242,0,0,1,.19-1.406,5.3,5.3,0,0,1,5.054-4.1c3.572,0,5.472,3.154,5.472,6.878,0,4.218-2.052,7.068-5.586,7.068a5.192,5.192,0,0,1-5.016-3.914,6.289,6.289,0,0,1-.114-1.216Zm15.58-7.714,6.232,9.006L34.85,0h3.686L41.2-4.142c.684-1.1,1.33-2.09,1.938-3.192h.076c.646,1.1,1.254,2.128,1.976,3.192L47.884,0h3.8L45.262-9.5l6.27-8.892H47.884l-2.546,3.914c-.646.988-1.254,1.938-1.862,3.04h-.114c-.608-1.064-1.178-1.976-1.862-3l-2.622-3.952Zm27.094-1.824v8.93H53.66v2.28h8.588V0H64.68V-9.006h8.588v-2.28H64.68v-8.93ZM90.1-3.192a9.573,9.573,0,0,1-4.1.874c-3.648,0-6.384-2.622-6.384-6.878,0-3.8,2.28-6.954,6.5-6.954a8.189,8.189,0,0,1,3.876.874l.76-2.546a10.529,10.529,0,0,0-4.636-.988c-6,0-9.88,4.142-9.88,9.8,0,5.624,3.61,9.386,9.158,9.386A12.929,12.929,0,0,0,90.672-.684Zm4.674,7.638a48.567,48.567,0,0,0,3.648-9.234l-3.686.38a54.675,54.675,0,0,1-2.28,9.082ZM96.334-13a2.206,2.206,0,0,0,2.242-2.356,2.2,2.2,0,0,0-2.242-2.394,2.239,2.239,0,0,0-2.242,2.394A2.22,2.22,0,0,0,96.3-13ZM-54.34,30.714c0-3.686-1.368-7.524-7.03-7.524a11.909,11.909,0,0,0-6.08,1.6l.76,2.242a8.863,8.863,0,0,1,4.826-1.368c3.762-.038,4.18,2.736,4.18,4.256v.38c-7.106-.038-11.058,2.394-11.058,6.84a5.24,5.24,0,0,0,5.624,5.282,6.8,6.8,0,0,0,5.624-2.736h.114l.3,2.318h3a30.859,30.859,0,0,1-.266-4.408Zm-3.268,5.092a3.433,3.433,0,0,1-.152,1.064,4.643,4.643,0,0,1-4.522,3.078A2.93,2.93,0,0,1-65.4,36.756c0-3.572,4.142-4.218,7.79-4.142Zm26.98.874V34.4h-10.3l3.344-5.244h6.954v-2.28h-5.51l3-4.636h-2.47l-2.888,4.636H-50.236v2.28h10.3L-43.32,34.4h-6.916v2.28h5.472l-3,4.636h2.47l2.888-4.636Zm11.134,5.738c5.4,0,8.55-4.636,8.55-13.034,0-7.866-3-12.5-8.17-12.5-5.016,0-8.626,4.522-8.626,12.844.076,8.17,3.382,12.692,8.208,12.692Zm.114-2.584c-3.078,0-5.054-3.876-4.978-10.3,0-6.194,1.976-10.07,5.016-10.07,3.5,0,5.016,3.99,5.016,10.07,0,6.308-1.634,10.3-5.016,10.3Zm12.73,6.612A48.567,48.567,0,0,0-3,37.212l-3.724.38a56.122,56.122,0,0,1-2.28,9.12Zm15.732-9.2c0,1.634-.038,3.5-.152,4.75h2.888l.19-3.04h.076a6.589,6.589,0,0,0,6.156,3.458c4.1,0,8.284-3.268,8.284-9.88,0-5.548-3.192-9.348-7.752-9.348a6.824,6.824,0,0,0-6.27,3.344h-.076V15.02H9.082Zm3.344-5.928a5.242,5.242,0,0,1,.19-1.406,5.3,5.3,0,0,1,5.054-4.1c3.572,0,5.472,3.154,5.472,6.878,0,4.218-2.052,7.068-5.586,7.068a5.192,5.192,0,0,1-5.016-3.914,6.289,6.289,0,0,1-.114-1.216ZM49.058,36.68V34.4H38.76L42.1,29.156h6.954v-2.28h-5.51l3-4.636H44.08l-2.888,4.636H29.45v2.28h10.3L36.366,34.4H29.45v2.28h5.472l-3,4.636h2.47l2.888-4.636Zm11.134,5.738c5.4,0,8.55-4.636,8.55-13.034,0-7.866-3-12.5-8.17-12.5-5.016,0-8.626,4.522-8.626,12.844.076,8.17,3.382,12.692,8.208,12.692Zm.114-2.584c-3.078,0-5.054-3.876-4.978-10.3,0-6.194,1.976-10.07,5.016-10.07,3.5,0,5.016,3.99,5.016,10.07,0,6.308-1.634,10.3-5.016,10.3Z" transform="translate(700 1286)"/>
  </g>
</svg>
