<svg xmlns="http://www.w3.org/2000/svg" viewBox="0 0 423.5 147.33"><defs><style>.cls-1{fill:#fff;}.cls-2{fill:#ff6300;}.cls-3{fill:#5fb900;}.cls-4{fill:#b400ff;}.cls-5{fill:#b2b2b2;}.cls-6{fill:#0070e7;}</style></defs><g id="Capa_2" data-name="Capa 2"><g id="Capa_1-2" data-name="Capa 1"><path d="M70.48,137.71a15.24,15.24,0,0,1,2-.15,4.22,4.22,0,0,1,3,.93,3.38,3.38,0,0,1,1.06,2.66A4,4,0,0,1,75.52,144a4.63,4.63,0,0,1-3.29,1.07,12.78,12.78,0,0,1-1.75-.09Zm1,6.57a5.45,5.45,0,0,0,1,.05,2.85,2.85,0,0,0,3.15-3.15c0-1.75-1-2.86-3-2.86a5.09,5.09,0,0,0-1.12.1Z"/><path d="M78.25,138.8a.57.57,0,0,1-.59-.59.59.59,0,0,1,.61-.61.58.58,0,0,1,.59.61.58.58,0,0,1-.6.59ZM77.78,145v-5.32h1V145Z"/><path d="M84.11,143.75a8.2,8.2,0,0,0,.08,1.28h-.87l-.09-.67h0a2,2,0,0,1-1.63.79,1.52,1.52,0,0,1-1.63-1.53c0-1.28,1.14-2,3.2-2v-.11a1.09,1.09,0,0,0-1.21-1.23,2.49,2.49,0,0,0-1.39.4l-.23-.65a3.41,3.41,0,0,1,1.77-.47c1.63,0,2,1.12,2,2.18Zm-1-1.44c-1,0-2.25.17-2.25,1.2a.85.85,0,0,0,.9.93,1.35,1.35,0,0,0,1.31-.89,1.1,1.1,0,0,0,0-.31Z"/><path d="M90.21,144.25a3.15,3.15,0,0,1-.75,2.44,2.9,2.9,0,0,1-1.95.64,3.39,3.39,0,0,1-1.77-.44l.24-.75a2.89,2.89,0,0,0,1.56.43c1,0,1.72-.52,1.72-1.87v-.58h0a1.91,1.91,0,0,1-1.7.89,2.38,2.38,0,0,1-2.26-2.61,2.55,2.55,0,0,1,2.4-2.82,1.79,1.79,0,0,1,1.67.93h0l0-.8h.86c0,.37-.05.81-.05,1.45Zm-1-2.45a1.18,1.18,0,0,0-.06-.43,1.37,1.37,0,0,0-1.35-1c-.92,0-1.59.78-1.59,2,0,1,.54,1.91,1.58,1.91a1.39,1.39,0,0,0,1.34-1,1.72,1.72,0,0,0,.08-.52Z"/><path d="M91.74,141.37c0-.63,0-1.17,0-1.66h.85l0,1h0a1.62,1.62,0,0,1,1.49-1.17,2.06,2.06,0,0,1,.26,0v.91l-.33,0a1.37,1.37,0,0,0-1.3,1.23,3.29,3.29,0,0,0,0,.45V145h-1Z"/><path d="M99,143.75a9.77,9.77,0,0,0,.07,1.28h-.87l-.08-.67h0a2,2,0,0,1-1.62.79,1.52,1.52,0,0,1-1.63-1.53c0-1.28,1.14-2,3.2-2v-.11a1.09,1.09,0,0,0-1.21-1.23,2.5,2.5,0,0,0-1.4.4l-.22-.65a3.4,3.4,0,0,1,1.76-.47c1.64,0,2,1.12,2,2.18Zm-1-1.44c-1.06,0-2.26.17-2.26,1.2a.85.85,0,0,0,.91.93,1.36,1.36,0,0,0,1.31-.89,1.1,1.1,0,0,0,0-.31Z"/><path d="M100.59,141.15c0-.56,0-1,0-1.44h.85l0,.85h0a1.84,1.84,0,0,1,1.68-1,1.58,1.58,0,0,1,1.5,1.07h0a2,2,0,0,1,.6-.69,1.8,1.8,0,0,1,1.17-.38c.71,0,1.76.47,1.76,2.32V145h-1v-3c0-1-.38-1.64-1.15-1.64a1.27,1.27,0,0,0-1.16.87,1.85,1.85,0,0,0-.07.48V145h-1v-3.2c0-.85-.37-1.45-1.11-1.45a1.32,1.32,0,0,0-1.2,1,1.19,1.19,0,0,0-.08.47V145h-.94Z"/><path d="M113.51,143.75a8.2,8.2,0,0,0,.08,1.28h-.87l-.09-.67h0a2,2,0,0,1-1.63.79,1.52,1.52,0,0,1-1.63-1.53c0-1.28,1.15-2,3.2-2v-.11a1.09,1.09,0,0,0-1.21-1.23,2.49,2.49,0,0,0-1.39.4l-.22-.65a3.4,3.4,0,0,1,1.76-.47c1.64,0,2,1.12,2,2.18Zm-.94-1.44c-1.06,0-2.26.17-2.26,1.2a.85.85,0,0,0,.9.93,1.34,1.34,0,0,0,1.31-.89,1.12,1.12,0,0,0,0-.31Z"/><path d="M122,137.22v6.44c0,.47,0,1,.05,1.37h-.87l0-.92h0a2,2,0,0,1-1.8,1,2.43,2.43,0,0,1-2.29-2.7c0-1.79,1.1-2.87,2.39-2.87a1.76,1.76,0,0,1,1.6.81h0v-3.17Zm-1,4.65a1.9,1.9,0,0,0,0-.41,1.43,1.43,0,0,0-1.4-1.12c-1,0-1.59.88-1.59,2s.54,2,1.57,2a1.47,1.47,0,0,0,1.42-1.16,1.78,1.78,0,0,0,0-.41Z"/><path d="M124.15,142.54a1.69,1.69,0,0,0,1.81,1.84,3.54,3.54,0,0,0,1.48-.27l.17.69a4.38,4.38,0,0,1-1.78.34,2.48,2.48,0,0,1-2.62-2.68,2.6,2.6,0,0,1,2.51-2.88,2.25,2.25,0,0,1,2.19,2.51,2.56,2.56,0,0,1,0,.45Zm2.83-.69a1.38,1.38,0,0,0-1.34-1.57,1.59,1.59,0,0,0-1.48,1.57Z"/><path d="M132.71,145l-2.43-7.41h1l1.16,3.65c.3,1,.58,1.91.79,2.77h0c.21-.86.51-1.79.85-2.76l1.25-3.66h1L133.76,145Z"/><path d="M137.37,142.54a1.7,1.7,0,0,0,1.82,1.84,3.52,3.52,0,0,0,1.47-.27l.17.69a4.38,4.38,0,0,1-1.78.34,2.48,2.48,0,0,1-2.62-2.68,2.6,2.6,0,0,1,2.51-2.88,2.25,2.25,0,0,1,2.19,2.51,2.56,2.56,0,0,1,0,.45Zm2.83-.69a1.38,1.38,0,0,0-1.33-1.57,1.6,1.6,0,0,0-1.49,1.57Z"/><path d="M142.33,141.15c0-.56,0-1,0-1.44h.85l.06.87h0a2,2,0,0,1,1.76-1c.74,0,1.88.45,1.88,2.27V145h-1V142c0-.86-.31-1.58-1.23-1.58a1.41,1.41,0,0,0-1.3,1,1.53,1.53,0,0,0-.06.45V145h-1Z"/><path d="M148.43,141.15c0-.56,0-1,0-1.44h.86l.05.87h0a2,2,0,0,1,1.76-1c.73,0,1.88.45,1.88,2.27V145h-1V142c0-.86-.32-1.58-1.23-1.58a1.4,1.4,0,0,0-1.3,1,1.25,1.25,0,0,0-.07.45V145h-1Z"/><path d="M322.49,137.71a10.68,10.68,0,0,1,1.84-.15,3,3,0,0,1,2.08.62,2,2,0,0,1,.66,1.54,2.11,2.11,0,0,1-.59,1.58,3.05,3.05,0,0,1-2.26.82,3.55,3.55,0,0,1-.77-.07v3h-1Zm1,3.56a3.43,3.43,0,0,0,.79.08c1.15,0,1.86-.57,1.86-1.58s-.69-1.45-1.75-1.45a3.58,3.58,0,0,0-.9.08Z"/><path d="M328.25,137.22h1V145h-1Z"/><path d="M334.6,143.75a8.2,8.2,0,0,0,.08,1.28h-.87l-.09-.67h0a2,2,0,0,1-1.63.79,1.52,1.52,0,0,1-1.63-1.53c0-1.28,1.15-2,3.2-2v-.11a1.09,1.09,0,0,0-1.21-1.23,2.49,2.49,0,0,0-1.39.4l-.23-.65a3.44,3.44,0,0,1,1.77-.47c1.63,0,2,1.12,2,2.18Zm-1-1.44c-1,0-2.25.17-2.25,1.2a.85.85,0,0,0,.9.93,1.35,1.35,0,0,0,1.31-.89,1.1,1.1,0,0,0,0-.31Z"/><path d="M336.15,141.15c0-.56,0-1,0-1.44H337l.06.87h0a2,2,0,0,1,1.76-1c.74,0,1.88.45,1.88,2.27V145h-1V142c0-.86-.31-1.58-1.23-1.58a1.41,1.41,0,0,0-1.3,1,1.53,1.53,0,0,0-.06.45V145h-1Z"/><path d="M344.42,145.15a2.53,2.53,0,0,1-2.55-2.74,2.61,2.61,0,0,1,2.64-2.83,2.52,2.52,0,0,1,2.56,2.73,2.61,2.61,0,0,1-2.64,2.84Zm.05-.72c.92,0,1.61-.87,1.61-2.08,0-.91-.45-2-1.59-2s-1.63,1.06-1.63,2.07c0,1.17.66,2.05,1.6,2.05Z"/><path d="M355.83,144.79a4.83,4.83,0,0,1-2,.35,3.45,3.45,0,0,1-3.65-3.75,3.68,3.68,0,0,1,3.87-3.88,4.09,4.09,0,0,1,1.76.32l-.24.79a3.34,3.34,0,0,0-1.49-.31,2.76,2.76,0,0,0-2.89,3.05,2.69,2.69,0,0,0,2.84,3,3.78,3.78,0,0,0,1.57-.31Z"/><path d="M360.68,143.75a8.2,8.2,0,0,0,.08,1.28h-.87l-.09-.67h0a2,2,0,0,1-1.63.79,1.52,1.52,0,0,1-1.63-1.53c0-1.28,1.15-2,3.2-2v-.11a1.09,1.09,0,0,0-1.21-1.23,2.49,2.49,0,0,0-1.39.4l-.23-.65a3.44,3.44,0,0,1,1.77-.47c1.63,0,2,1.12,2,2.18Zm-.95-1.44c-1.05,0-2.25.17-2.25,1.2a.85.85,0,0,0,.9.93,1.35,1.35,0,0,0,1.31-.89,1.1,1.1,0,0,0,0-.31Z"/><path d="M362.23,141.37c0-.63,0-1.17,0-1.66H363l.05,1h0a1.62,1.62,0,0,1,1.49-1.17,2.06,2.06,0,0,1,.26,0v.91l-.33,0a1.36,1.36,0,0,0-1.3,1.23,3.29,3.29,0,0,0,0,.45V145h-1Z"/><path d="M367.26,138.43v1.28h1.38v.73h-1.38v2.86c0,.66.18,1,.72,1a1.58,1.58,0,0,0,.56-.07l0,.74a2.59,2.59,0,0,1-.86.13,1.35,1.35,0,0,1-1-.41,2,2,0,0,1-.38-1.39v-2.9h-.82v-.73h.82v-1Z"/><path d="M370.22,142.54a1.69,1.69,0,0,0,1.81,1.84,3.61,3.61,0,0,0,1.48-.27l.17.69a4.38,4.38,0,0,1-1.78.34,2.48,2.48,0,0,1-2.62-2.68,2.6,2.6,0,0,1,2.51-2.88,2.25,2.25,0,0,1,2.19,2.51,2.56,2.56,0,0,1,0,.45Zm2.82-.69a1.38,1.38,0,0,0-1.33-1.57,1.58,1.58,0,0,0-1.48,1.57Z"/><path d="M375,144a2.73,2.73,0,0,0,1.29.38c.7,0,1-.35,1-.8s-.28-.7-1-1c-1-.35-1.42-.88-1.42-1.5a1.65,1.65,0,0,1,1.83-1.57,2.43,2.43,0,0,1,1.3.34l-.23.69a2.18,2.18,0,0,0-1.09-.31c-.57,0-.88.33-.88.73s.31.63,1,.91c.92.34,1.4.8,1.4,1.6s-.74,1.6-2,1.6a3.08,3.08,0,0,1-1.5-.37Z"/><path d="M380,138.8a.57.57,0,0,1-.59-.59.6.6,0,1,1,1.2,0,.58.58,0,0,1-.6.59Zm-.47,6.23v-5.32h1V145Z"/><path d="M385.86,143.75a8.2,8.2,0,0,0,.08,1.28h-.87l-.09-.67h0a2,2,0,0,1-1.63.79,1.52,1.52,0,0,1-1.63-1.53c0-1.28,1.14-2,3.2-2v-.11a1.09,1.09,0,0,0-1.21-1.23,2.53,2.53,0,0,0-1.4.4l-.22-.65a3.4,3.4,0,0,1,1.76-.47c1.64,0,2,1.12,2,2.18Zm-.95-1.44c-1.05,0-2.25.17-2.25,1.2a.85.85,0,0,0,.9.93,1.36,1.36,0,0,0,1.31-.89,1.1,1.1,0,0,0,0-.31Z"/><path d="M387.41,141.15c0-.56,0-1,0-1.44h.85l.06.87h0a2,2,0,0,1,1.76-1c.74,0,1.88.45,1.88,2.27V145h-1V142c0-.86-.31-1.58-1.23-1.58a1.41,1.41,0,0,0-1.3,1,1.53,1.53,0,0,0-.06.45V145h-1Z"/><path d="M395.68,145.15a2.53,2.53,0,0,1-2.55-2.74,2.61,2.61,0,0,1,2.64-2.83,2.52,2.52,0,0,1,2.56,2.73,2.61,2.61,0,0,1-2.64,2.84Zm.05-.72c.92,0,1.61-.87,1.61-2.08,0-.91-.45-2-1.59-2s-1.63,1.06-1.63,2.07c0,1.17.66,2.05,1.59,2.05Z"/><path d="M2.24,25.67l-1,3H0L3.21,19.2H4.68L7.9,28.64H6.6l-1-3Zm3.1-1L4.4,22c-.2-.62-.34-1.18-.48-1.73h0c-.13.55-.28,1.14-.46,1.71l-.93,2.73Z"/><path d="M224.53,19.34a10.55,10.55,0,0,1,2.23-.21,3.89,3.89,0,0,1,2.58.68,2,2,0,0,1,.8,1.67,2.24,2.24,0,0,1-1.6,2.07v0a2.41,2.41,0,0,1,2,2.36,2.47,2.47,0,0,1-.82,1.89,4.65,4.65,0,0,1-3.24.88,13.75,13.75,0,0,1-1.9-.11Zm1.22,3.86h1.11c1.27,0,2-.68,2-1.6,0-1.09-.83-1.54-2.06-1.54a5.29,5.29,0,0,0-1.08.09Zm0,4.51a6.84,6.84,0,0,0,1,.06c1.26,0,2.42-.46,2.42-1.84s-1.11-1.82-2.44-1.82h-1Z"/><path class="cls-1" d="M55.08,122.77c-25.23,0-45.76-26.46-45.76-59s20.53-59,45.76-59,45.76,26.46,45.76,59S80.31,122.77,55.08,122.77Z"/><path class="cls-2" d="M55.08,6.29c24.41,0,44.26,25.79,44.26,57.49s-19.85,57.49-44.26,57.49S10.82,95.48,10.82,63.78,30.68,6.29,55.08,6.29m0-3C29,3.29,7.82,30.37,7.82,63.78S29,124.27,55.08,124.27s47.26-27.08,47.26-60.49S81.18,3.29,55.08,3.29Z"/><path class="cls-1" d="M175.39,122.77c-25.23,0-45.76-26.46-45.76-59s20.53-59,45.76-59,45.77,26.46,45.77,59S200.63,122.77,175.39,122.77Z"/><path class="cls-3" d="M175.39,6.29c24.41,0,44.27,25.79,44.27,57.49s-19.86,57.49-44.27,57.49-44.26-25.79-44.26-57.49S151,6.29,175.39,6.29m0-3c-26.1,0-47.26,27.08-47.26,60.49s21.16,60.49,47.26,60.49,47.27-27.08,47.27-60.49S201.5,3.29,175.39,3.29Z"/><rect class="cls-1" x="158.71" y="26.17" width="33.37" height="20.74"/><path class="cls-3" d="M191.08,27.17V45.91H159.71V27.17h31.37m2-2H157.71V47.91h35.37V25.17Z"/><rect class="cls-1" x="158.71" y="53.41" width="33.37" height="20.74"/><path class="cls-3" d="M191.08,54.41V73.15H159.71V54.41h31.37m2-2H157.71V75.15h35.37V52.41Z"/><rect class="cls-1" x="158.71" y="80.65" width="33.37" height="20.74"/><path class="cls-3" d="M191.08,81.65v18.74H159.71V81.65h31.37m2-2H157.71v22.74h35.37V79.65Z"/><rect class="cls-1" x="38.4" y="26.17" width="33.37" height="20.74"/><path class="cls-2" d="M70.76,27.17V45.91H39.4V27.17H70.76m2-2H37.4V47.91H72.76V25.17Z"/><rect class="cls-1" x="38.4" y="80.65" width="33.37" height="20.74"/><path class="cls-2" d="M70.76,81.65v18.74H39.4V81.65H70.76m2-2H37.4v22.74H72.76V79.65Z"/><path d="M175.11,33h0l-1.58.85-.24-.94,2-1.06h1.05v9.1h-1.19Z"/><path d="M176.25,68.9V66.41H172v-.8l4.07-5.81h1.33v5.66h1.27v1h-1.27V68.9Zm0-3.44v-3c0-.48,0-1,0-1.43h0c-.29.53-.51.92-.76,1.34l-2.23,3.1v0Z"/><path d="M177.87,88.84H174.4l-.35,2.33a6.28,6.28,0,0,1,.74,0,3.78,3.78,0,0,1,2,.49,2.58,2.58,0,0,1,1.3,2.34,3.16,3.16,0,0,1-3.39,3.11,4.52,4.52,0,0,1-2.27-.56l.31-.94a4.15,4.15,0,0,0,2,.5,2,2,0,0,0,2.15-2c0-1.17-.8-2-2.61-2a7.08,7.08,0,0,0-1.27.1l.58-4.37h4.36Z"/><path d="M52.12,40.9v-.75l1-.94c2.32-2.21,3.39-3.39,3.39-4.76a1.62,1.62,0,0,0-1.8-1.78,3.11,3.11,0,0,0-1.93.77l-.39-.87a4,4,0,0,1,2.58-.92,2.55,2.55,0,0,1,2.77,2.64c0,1.68-1.22,3-3.14,4.89l-.71.67v0h4.07v1Z"/><path d="M52.42,95.5a4.17,4.17,0,0,0,2,.56c1.57,0,2.07-1,2.06-1.76,0-1.28-1.16-1.82-2.35-1.82h-.69v-.93h.69c.89,0,2-.46,2-1.54,0-.73-.46-1.37-1.6-1.37a3.33,3.33,0,0,0-1.82.6l-.33-.89a4.4,4.4,0,0,1,2.39-.7c1.79,0,2.61,1.06,2.61,2.17A2.28,2.28,0,0,1,55.73,92v0a2.35,2.35,0,0,1,2,2.33c0,1.45-1.15,2.73-3.32,2.73a4.56,4.56,0,0,1-2.37-.62Z"/><path class="cls-4" d="M155.63,37.45H72.76a.91.91,0,1,1,0-1.82h82.87a.91.91,0,1,1,0,1.82Z"/><polygon class="cls-4" points="152 39.63 155.09 36.54 152 33.45 154.62 33.45 157.71 36.54 154.62 39.63 152 39.63"/><path class="cls-4" d="M72.77,91.93a.91.91,0,0,1-.5-1.68l83.2-53.35a.91.91,0,0,1,1.26.27.92.92,0,0,1-.28,1.26L73.26,91.79A.92.92,0,0,1,72.77,91.93Z"/><polygon class="cls-4" points="154.57 42.22 155.51 37.95 151.24 37.02 153.44 35.61 157.71 36.54 156.78 40.8 154.57 42.22"/><rect class="cls-5" x="295.19" width="1.5" height="127.56"/><rect class="cls-5" x="281.77" y="112.64" width="140.11" height="1.5"/><polygon class="cls-5" points="416.9 119.52 415.88 118.42 421.3 113.39 415.88 108.35 416.9 107.25 423.5 113.39 416.9 119.52"/><rect class="cls-5" x="289.44" y="98.84" width="6.5" height="0.75"/><rect class="cls-5" x="309.74" y="113.39" width="0.75" height="6.5"/><rect class="cls-5" x="289.44" y="84.67" width="6.5" height="0.75"/><rect class="cls-5" x="289.44" y="70.49" width="6.5" height="0.75"/><rect class="cls-5" x="289.44" y="56.32" width="6.5" height="0.75"/><rect class="cls-5" x="289.44" y="42.14" width="6.5" height="0.75"/><rect class="cls-5" x="289.44" y="27.97" width="6.5" height="0.75"/><rect class="cls-5" x="289.44" y="13.8" width="6.5" height="0.75"/><rect class="cls-5" x="323.91" y="113.39" width="0.75" height="6.5"/><rect class="cls-5" x="352.26" y="113.39" width="0.75" height="6.5"/><rect class="cls-5" x="338.08" y="113.39" width="0.75" height="6.5"/><rect class="cls-5" x="366.43" y="113.39" width="0.75" height="6.5"/><rect class="cls-5" x="380.6" y="113.39" width="0.75" height="6.5"/><rect class="cls-5" x="394.78" y="113.39" width="0.75" height="6.5"/><rect class="cls-5" x="408.95" y="113.39" width="0.75" height="6.5"/><rect class="cls-6" x="296.69" y="98.84" width="1" height="0.75"/><path class="cls-6" d="M321.47,99.59h-2v-.75h2Zm-4,0h-2v-.75h2Zm-4,0h-2v-.75h2Zm-4,0h-2v-.75h2Zm-4,0h-2v-.75h2Zm-4,0h-2v-.75h2Z"/><rect class="cls-6" x="323.45" y="98.84" width="1" height="0.75"/><path class="cls-6" d="M310.49,112.64h-.75v-2h.75Zm0-4h-.75v-2h.75Zm0-4h-.75v-2h.75Zm0-4h-.75V99.21h.75Z"/><path class="cls-6" d="M324.66,112.64h-.75v-2h.75Zm0-4h-.75v-2h.75Zm0-4h-.75v-2h.75Zm0-4h-.75V99.21h.75Z"/><circle class="cls-6" cx="310.11" cy="99.21" r="1.77"/><circle class="cls-6" cx="324.29" cy="99.21" r="1.77"/><path d="M312.12,77a9.21,9.21,0,0,0-1.75,5.74,9.49,9.49,0,0,0,1.75,5.67h-1a9,9,0,0,1-1.83-5.68A9.25,9.25,0,0,1,311.16,77Z"/><path d="M313,86.72V86l1-.94c2.33-2.21,3.39-3.39,3.39-4.76a1.61,1.61,0,0,0-1.79-1.78,3.11,3.11,0,0,0-1.93.77l-.39-.87a4.05,4.05,0,0,1,2.57-.92,2.56,2.56,0,0,1,2.78,2.65c0,1.68-1.22,3-3.14,4.89l-.71.67v0h4.07v1Z"/><path d="M319.81,88.46a21,21,0,0,0,.85-3.37L322,85a17.75,17.75,0,0,1-1.35,3.41Z"/><path d="M325.79,78.76h0l-1.59.86-.23-.94,2-1.07H327v9.11h-1.19Z"/><path d="M330,88.41A10.17,10.17,0,0,0,330,77h.95a9,9,0,0,1,1.84,5.7,9.25,9.25,0,0,1-1.84,5.71Z"/><path d="M337.33,77a9.27,9.27,0,0,0-1.75,5.74,9.49,9.49,0,0,0,1.75,5.67h-.95a9,9,0,0,1-1.84-5.68A9.24,9.24,0,0,1,336.38,77Z"/><path d="M338.55,85.32a4.24,4.24,0,0,0,2,.56c1.57,0,2.08-1,2.06-1.77,0-1.27-1.16-1.82-2.35-1.82h-.69v-.92h.69c.9,0,2-.46,2-1.54,0-.73-.46-1.38-1.6-1.38a3.39,3.39,0,0,0-1.82.61l-.33-.9a4.4,4.4,0,0,1,2.39-.7c1.79,0,2.61,1.06,2.61,2.17a2.3,2.3,0,0,1-1.68,2.16v0a2.34,2.34,0,0,1,2,2.32c0,1.46-1.15,2.73-3.32,2.73a4.67,4.67,0,0,1-2.37-.61Z"/><path d="M345,88.46a21,21,0,0,0,.84-3.37l1.37-.14a17.8,17.8,0,0,1-1.34,3.41Z"/><path d="M351,78.76h0l-1.58.86-.24-.94,2-1.07h1.05v9.11H351Z"/><path d="M355.16,88.41a9.5,9.5,0,0,0,1.75-5.71,9.38,9.38,0,0,0-1.75-5.7h1A9,9,0,0,1,358,82.7a9.25,9.25,0,0,1-1.83,5.71Z"/><path d="M309.91,123.8h0l-1.13.61-.17-.67L310,123h.75v6.5h-.85Z"/><path d="M322.17,129.48v-.54l.69-.67c1.66-1.58,2.42-2.42,2.42-3.4A1.15,1.15,0,0,0,324,123.6a2.21,2.21,0,0,0-1.38.55l-.28-.62a2.89,2.89,0,0,1,1.84-.66,1.83,1.83,0,0,1,2,1.89c0,1.2-.87,2.17-2.24,3.49l-.51.48v0h2.91v.73Z"/><path d="M336.55,128.48a3,3,0,0,0,1.44.4c1.12,0,1.48-.71,1.47-1.26,0-.91-.83-1.3-1.68-1.3h-.49v-.66h.49c.64,0,1.45-.33,1.45-1.1,0-.52-.33-1-1.14-1a2.39,2.39,0,0,0-1.3.43l-.24-.64a3.15,3.15,0,0,1,1.71-.5c1.28,0,1.86.76,1.86,1.55a1.63,1.63,0,0,1-1.2,1.54v0a1.68,1.68,0,0,1,1.45,1.66c0,1-.82,2-2.37,2a3.3,3.3,0,0,1-1.69-.44Z"/><path d="M353.24,129.48V127.7h-3v-.57l2.9-4.15h.95v4h.9v.68h-.9v1.78Zm0-2.46v-2.17q0-.51,0-1h0c-.2.38-.36.66-.54,1L351.11,127v0Z"/><path d="M368.57,123.72h-2.48l-.25,1.67a3.48,3.48,0,0,1,.53,0,2.72,2.72,0,0,1,1.4.35,1.84,1.84,0,0,1,.93,1.67,2.26,2.26,0,0,1-2.42,2.22,3.21,3.21,0,0,1-1.62-.4l.22-.67a2.92,2.92,0,0,0,1.4.36,1.43,1.43,0,0,0,1.53-1.42c0-.83-.57-1.43-1.86-1.43a5.43,5.43,0,0,0-.91.07l.42-3.12h3.11Z"/><path d="M382.57,123.6a3.26,3.26,0,0,0-.66.05,2.6,2.6,0,0,0-2.26,2.3h0a2,2,0,0,1,3.54,1.34,2.18,2.18,0,0,1-2.17,2.3c-1.38,0-2.29-1.08-2.29-2.77a4,4,0,0,1,1.1-2.93,3.54,3.54,0,0,1,2.08-1,4.23,4.23,0,0,1,.64-.05Zm-1.51,5.31c.75,0,1.26-.63,1.26-1.56a1.32,1.32,0,0,0-1.34-1.49,1.44,1.44,0,0,0-1.27.8.82.82,0,0,0-.09.38c0,1.07.51,1.87,1.43,1.87Z"/><path d="M397.25,123v.58l-2.82,5.92h-.9l2.8-5.75v0h-3.17V123Z"/><path d="M409.39,122.87a1.68,1.68,0,0,1,1.9,1.6,1.65,1.65,0,0,1-1.08,1.52v0a1.81,1.81,0,0,1,1.31,1.68,2,2,0,0,1-2.21,1.89c-1.36,0-2.18-.8-2.18-1.75a1.87,1.87,0,0,1,1.28-1.75v0a1.61,1.61,0,0,1-1-1.46,1.82,1.82,0,0,1,2-1.73Zm-.06,6.08a1.18,1.18,0,0,0,1.3-1.16c0-.78-.55-1.17-1.43-1.42a1.42,1.42,0,0,0-1.17,1.35,1.2,1.2,0,0,0,1.29,1.23Zm0-5.45a1,1,0,0,0-1.13,1c0,.65.49,1,1.24,1.2a1.28,1.28,0,0,0,1-1.18,1,1,0,0,0-1.09-1.06Z"/></g></g></svg>