<svg xmlns="http://www.w3.org/2000/svg" width="632" height="107" viewBox="0 0 632 107">
  <g id="Grupo_14479" data-name="Grupo 14479" transform="translate(-384 -813)">
    <rect id="Rectángulo_3693" data-name="Rectángulo 3693" width="632" height="107" transform="translate(384 813)" fill="#d5f4fc"/>
    <path id="Trazado_24150" data-name="Trazado 24150" d="M-99.526-11.286c0-3.686-1.368-7.524-7.03-7.524a11.909,11.909,0,0,0-6.08,1.6l.76,2.242a8.863,8.863,0,0,1,4.826-1.368c3.762-.038,4.18,2.736,4.18,4.256v.38c-7.106-.038-11.058,2.394-11.058,6.84A5.24,5.24,0,0,0-108.3.418a6.8,6.8,0,0,0,5.624-2.736h.114l.3,2.318h3a30.859,30.859,0,0,1-.266-4.408Zm-3.268,5.092a3.433,3.433,0,0,1-.152,1.064,4.643,4.643,0,0,1-4.522,3.078,2.93,2.93,0,0,1-3.116-3.192c0-3.572,4.142-4.218,7.79-4.142Zm6.46-12.2L-90.1-9.386-96.638,0h3.686l2.66-4.142c.684-1.1,1.33-2.09,1.938-3.192h.076c.646,1.1,1.254,2.128,1.976,3.192L-83.6,0h3.8l-6.422-9.5,6.27-8.892H-83.6l-2.546,3.914c-.646.988-1.254,1.938-1.862,3.04h-.114c-.608-1.064-1.178-1.976-1.862-3l-2.622-3.952ZM-69.152-13v-1.618H-75.6v-.044l1.13-1.064c3.037-2.926,4.965-5.076,4.965-7.736A4.047,4.047,0,0,0-73.9-27.651a6.4,6.4,0,0,0-4.078,1.463l.621,1.374a4.906,4.906,0,0,1,3.059-1.219,2.553,2.553,0,0,1,2.837,2.815c0,2.172-1.685,4.034-5.364,7.536L-78.351-14.2V-13Zm11.283-7.216v8.93h-8.588v2.28h8.588V0h2.432V-9.006h8.588v-2.28h-8.588v-8.93ZM-42.556-4.75c0,1.634-.038,3.5-.152,4.75h2.888l.19-3.04h.076A6.589,6.589,0,0,0-33.4.418c4.1,0,8.284-3.268,8.284-9.88,0-5.548-3.192-9.348-7.752-9.348a6.824,6.824,0,0,0-6.27,3.344h-.076V-26.98h-3.344Zm3.344-5.928a5.242,5.242,0,0,1,.19-1.406,5.3,5.3,0,0,1,5.054-4.1c3.572,0,5.472,3.154,5.472,6.878,0,4.218-2.052,7.068-5.586,7.068A5.192,5.192,0,0,1-39.1-6.156a6.289,6.289,0,0,1-.114-1.216Zm15.58-7.714L-17.4-9.386-23.936,0h3.686l2.66-4.142c.684-1.1,1.33-2.09,1.938-3.192h.076c.646,1.1,1.254,2.128,1.976,3.192L-10.9,0h3.8l-6.422-9.5,6.27-8.892H-10.9l-2.546,3.914c-.646.988-1.254,1.938-1.862,3.04h-.114c-.608-1.064-1.178-1.976-1.862-3l-2.622-3.952ZM3.462-20.216v8.93H-5.126v2.28H3.462V0H5.894V-9.006h8.588v-2.28H5.894v-8.93ZM39.372-3.192a9.573,9.573,0,0,1-4.1.874c-3.648,0-6.384-2.622-6.384-6.878,0-3.8,2.28-6.954,6.5-6.954a8.189,8.189,0,0,1,3.876.874l.76-2.546a10.529,10.529,0,0,0-4.636-.988c-6,0-9.88,4.142-9.88,9.8C25.5-3.382,29.112.38,34.66.38A12.929,12.929,0,0,0,39.942-.684Zm30.894-9.614v-2.28H50.658v2.28Zm0,7.448v-2.28H50.658v2.28ZM89.456.418c5.4,0,8.55-4.636,8.55-13.034,0-7.866-3-12.5-8.17-12.5-5.016,0-8.626,4.522-8.626,12.844C81.286-4.1,84.592.418,89.418.418Zm.114-2.584c-3.078,0-5.054-3.876-4.978-10.3,0-6.194,1.976-10.07,5.016-10.07,3.5,0,5.016,3.99,5.016,10.07,0,6.308-1.634,10.3-5.016,10.3ZM102.3,4.446a48.567,48.567,0,0,0,3.648-9.234l-3.686.38a54.675,54.675,0,0,1-2.28,9.082ZM103.858-13a2.206,2.206,0,0,0,2.242-2.356,2.2,2.2,0,0,0-2.242-2.394,2.239,2.239,0,0,0-2.242,2.394A2.22,2.22,0,0,0,103.82-13Zm-154.17,43.71c0-3.686-1.368-7.524-7.03-7.524a11.909,11.909,0,0,0-6.08,1.6l.76,2.242a8.863,8.863,0,0,1,4.826-1.368c3.762-.038,4.18,2.736,4.18,4.256v.38c-7.106-.038-11.058,2.394-11.058,6.84a5.24,5.24,0,0,0,5.624,5.282,6.8,6.8,0,0,0,5.624-2.736h.114l.3,2.318h3a30.859,30.859,0,0,1-.266-4.408Zm-3.268,5.092a3.433,3.433,0,0,1-.152,1.064,4.643,4.643,0,0,1-4.522,3.078,2.93,2.93,0,0,1-3.116-3.192c0-3.572,4.142-4.218,7.79-4.142Zm26.98.874V34.4H-36.9l3.344-5.244H-26.6v-2.28h-5.51l3-4.636h-2.47l-2.888,4.636H-46.208v2.28h10.3L-39.292,34.4h-6.916v2.28h5.472l-3,4.636h2.47l2.888-4.636Zm11.134,5.738c5.4,0,8.55-4.636,8.55-13.034,0-7.866-3-12.5-8.17-12.5-5.016,0-8.626,4.522-8.626,12.844.076,8.17,3.382,12.692,8.208,12.692Zm.114-2.584c-3.078,0-5.054-3.876-4.978-10.3,0-6.194,1.976-10.07,5.016-10.07,3.5,0,5.016,3.99,5.016,10.07,0,6.308-1.634,10.3-5.016,10.3Zm12.73,6.612a48.567,48.567,0,0,0,3.648-9.234l-3.724.38a56.122,56.122,0,0,1-2.28,9.12Zm7.676-9.2c0,1.634-.038,3.5-.152,4.75H7.79l.19-3.04h.076a6.589,6.589,0,0,0,6.156,3.458c4.1,0,8.284-3.268,8.284-9.88,0-5.548-3.192-9.348-7.752-9.348a6.824,6.824,0,0,0-6.27,3.344H8.4V15.02H5.054ZM8.4,31.322a5.242,5.242,0,0,1,.19-1.406,5.3,5.3,0,0,1,5.054-4.1c3.572,0,5.472,3.154,5.472,6.878,0,4.218-2.052,7.068-5.586,7.068a5.192,5.192,0,0,1-5.016-3.914A6.289,6.289,0,0,1,8.4,34.628ZM45.03,36.68V34.4h-10.3l3.344-5.244H45.03v-2.28H39.52l3-4.636h-2.47l-2.888,4.636H25.422v2.28h10.3L32.338,34.4H25.422v2.28h5.472l-3,4.636h2.47L33.25,36.68Zm11.134,5.738c5.4,0,8.55-4.636,8.55-13.034,0-7.866-3-12.5-8.17-12.5-5.016,0-8.626,4.522-8.626,12.844.076,8.17,3.382,12.692,8.208,12.692Zm.114-2.584c-3.078,0-5.054-3.876-4.978-10.3,0-6.194,1.976-10.07,5.016-10.07,3.5,0,5.016,3.99,5.016,10.07,0,6.308-1.634,10.3-5.016,10.3Z" transform="translate(698 856)"/>
  </g>
</svg>
