<svg xmlns="http://www.w3.org/2000/svg" width="182.9" height="56.88" viewBox="0 0 182.9 56.88">
  <g id="Grupo_14485" data-name="Grupo 14485" transform="translate(-598.1 -3488)">
    <path id="Trazado_24167" data-name="Trazado 24167" d="M-1.74,0-6.96-7.24-2.08-14h-3.5L-8.74-9.46-11.96-14h-3.68l4.92,6.88L-15.9,0h3.72l3.32-4.86L-5.48,0ZM5.22-8.26h9.52V-10.7H5.22Zm0,4.96h9.52V-5.74H5.22Z" transform="translate(614 3523)" fill="#00223d"/>
    <path id="Trazado_24166" data-name="Trazado 24166" d="M-67.64-4.38h5.66v-2.5h-5.66Zm11.58,1.74,3.22-3.04c1.96-1.82,2.34-3.06,2.34-4.42,0-2.54-2.08-4.14-5.2-4.14a6.5,6.5,0,0,0-5.56,2.6l2.36,1.52a3.423,3.423,0,0,1,2.9-1.4c1.48,0,2.24.64,2.24,1.74,0,.68-.22,1.4-1.46,2.58l-5.4,5.1V0h10.58V-2.64ZM-42.2-9.8v-3.28h-2.58V-9.8h-3.46v2.36h3.46v3.28h2.58V-7.44h3.48V-9.8ZM-48.24,0h9.52V-2.44h-9.52Zm24.42-14.84L-28.66-.02l-2.68-8.2h-4.92V-5.8h2.62l3.36,9.68h3.22l6.14-18.72Zm7.94,12.2,3.22-3.04c1.96-1.82,2.34-3.06,2.34-4.42,0-2.54-2.08-4.14-5.2-4.14a6.5,6.5,0,0,0-5.56,2.6l2.36,1.52a3.423,3.423,0,0,1,2.9-1.4c1.48,0,2.24.64,2.24,1.74,0,.68-.22,1.4-1.46,2.58l-5.4,5.1V0H-9.86V-2.64Zm11.8,0L-.86-5.68C1.1-7.5,1.48-8.74,1.48-10.1c0-2.54-2.08-4.14-5.2-4.14a6.5,6.5,0,0,0-5.56,2.6l2.36,1.52a3.423,3.423,0,0,1,2.9-1.4c1.48,0,2.24.64,2.24,1.74,0,.68-.22,1.4-1.46,2.58l-5.4,5.1V0H1.94V-2.64ZM3.46-4.38H9.12v-2.5H3.46Zm20.36-1.2H21.54V-8.2H18.48v2.62H14.72L20.84-14h-3.4l-6.6,8.88v2.18h7.54V0h3.16V-2.94h2.28Zm4.14,9.46h2.98a18.272,18.272,0,0,1-2.42-9.36,18.272,18.272,0,0,1,2.42-9.36H27.96a16.915,16.915,0,0,0-2.5,9.36A17.011,17.011,0,0,0,27.96,3.88ZM31.48-14v2.6h2.8V0h3.24V-14ZM42.36,3.88a16.688,16.688,0,0,0,2.52-9.36,16.6,16.6,0,0,0-2.52-9.36H39.38a18.1,18.1,0,0,1,2.44,9.36,18.1,18.1,0,0,1-2.44,9.36Zm7.94,0h2.98a18.272,18.272,0,0,1-2.42-9.36,18.272,18.272,0,0,1,2.42-9.36H50.3a16.915,16.915,0,0,0-2.5,9.36A17.011,17.011,0,0,0,50.3,3.88ZM53.82-14v2.6h2.8V0h3.24V-14ZM64.7,3.88a16.688,16.688,0,0,0,2.52-9.36,16.6,16.6,0,0,0-2.52-9.36H61.72a18.1,18.1,0,0,1,2.44,9.36,18.1,18.1,0,0,1-2.44,9.36Z" transform="translate(709 3506)" fill="#00223d"/>
    <path id="Trazado_24165" data-name="Trazado 24165" d="M-70,1.8h10V0H-70Zm10,0h10V0H-60Zm10,0h10V0H-50Zm10,0h10V0H-40Zm10,0h10V0H-30Zm10,0h10V0H-20Zm10,0H0V0H-10Zm10,0H10V0H0Zm10,0H20V0H10Zm10,0H30V0H20Zm10,0H40V0H30Zm10,0H50V0H40Zm10,0H60V0H50Zm10,0H70V0H60ZM-14.68,21.36l3.22-3.04c1.96-1.82,2.34-3.06,2.34-4.42,0-2.54-2.08-4.14-5.2-4.14a6.5,6.5,0,0,0-5.56,2.6l2.36,1.52a3.423,3.423,0,0,1,2.9-1.4c1.48,0,2.24.64,2.24,1.74,0,.68-.22,1.4-1.46,2.58l-5.4,5.1V24H-8.66V21.36Zm16.2,6.52H4.5a18.272,18.272,0,0,1-2.42-9.36A18.272,18.272,0,0,1,4.5,9.16H1.52a16.915,16.915,0,0,0-2.5,9.36A17.011,17.011,0,0,0,1.52,27.88ZM5.04,10v2.6h2.8V24h3.24V10ZM15.92,27.88a16.688,16.688,0,0,0,2.52-9.36,16.6,16.6,0,0,0-2.52-9.36H12.94a18.1,18.1,0,0,1,2.44,9.36,18.1,18.1,0,0,1-2.44,9.36Z" transform="translate(710 3517)" fill="#00223d"/>
    <path id="Trazado_24131" data-name="Trazado 24131" d="M-.748,0H94V2L1.5,1.968,1.082,3.154H-1.793Z" transform="translate(687 3488)" fill="#00223d"/>
    <line id="Línea_560" data-name="Línea 560" x1="6" transform="translate(678.5 3492.5)" fill="none" stroke="#707070" stroke-width="0.1"/>
  </g>
</svg>
