<svg xmlns="http://www.w3.org/2000/svg" width="159.9" height="53.16" viewBox="0 0 159.9 53.16">
  <g id="Grupo_14484" data-name="Grupo 14484" transform="translate(-598.1 -3352)">
    <path id="Trazado_24162" data-name="Trazado 24162" d="M-57.451-4.38h5.66v-2.5h-5.66Zm14.48-6.54a4.177,4.177,0,0,0-3.24,1.3v-5.22h-3.12V0h2.98V-1.24a4.181,4.181,0,0,0,3.38,1.4,5.226,5.226,0,0,0,5.36-5.54A5.226,5.226,0,0,0-42.971-10.92Zm-.54,8.52a2.715,2.715,0,0,1-2.74-2.98,2.715,2.715,0,0,1,2.74-2.98,2.715,2.715,0,0,1,2.74,2.98A2.715,2.715,0,0,1-43.511-2.4Zm13.82-7.4v-3.28h-2.58V-9.8h-3.46v2.36h3.46v3.28h2.58V-7.44h3.48V-9.8ZM-35.731,0h9.52V-2.44h-9.52Zm24.42-14.84L-16.151-.02l-2.68-8.2h-4.92V-5.8h2.62l3.36,9.68h3.22l6.14-18.72Zm10.52,3.92a4.177,4.177,0,0,0-3.24,1.3v-5.22h-3.12V0h2.98V-1.24A4.181,4.181,0,0,0-.791.16a5.226,5.226,0,0,0,5.36-5.54A5.226,5.226,0,0,0-.791-10.92Zm-.54,8.52a2.715,2.715,0,0,1-2.74-2.98,2.715,2.715,0,0,1,2.74-2.98,2.715,2.715,0,0,1,2.74,2.98A2.715,2.715,0,0,1-1.331-2.4ZM8.253-8.54l1.878-1.773A3.258,3.258,0,0,0,11.5-12.891c0-1.482-1.213-2.415-3.033-2.415A3.793,3.793,0,0,0,5.22-13.79L6.6-12.9a2,2,0,0,1,1.692-.817c.863,0,1.307.373,1.307,1.015,0,.4-.128.817-.852,1.5L5.594-8.225V-7h6.171V-8.54Zm4.878,4.16h5.66v-2.5h-5.66Zm20.36-1.2h-2.28V-8.2h-3.06v2.62h-3.76L30.511-14h-3.4l-6.6,8.88v2.18h7.54V0h3.16V-2.94h2.28Zm6.5-5.34a8.271,8.271,0,0,0-4.64,1.3l1.12,2.18a5.174,5.174,0,0,1,3.1-1c1.68,0,2.48.78,2.48,2.12h-2.48c-3.28,0-4.62,1.32-4.62,3.22,0,1.86,1.5,3.26,4.02,3.26a3.531,3.531,0,0,0,3.28-1.5V0h2.92V-6.14C45.171-9.4,43.271-10.92,39.991-10.92Zm-.24,8.98c-1.1,0-1.76-.52-1.76-1.3,0-.72.46-1.26,1.92-1.26h2.14v1.1A2.3,2.3,0,0,1,39.751-1.94ZM53.311.16a4.992,4.992,0,0,0,4.82-2.72l-2.42-1.32a2.647,2.647,0,0,1-2.42,1.48,2.753,2.753,0,0,1-2.82-2.98,2.753,2.753,0,0,1,2.82-2.98,2.683,2.683,0,0,1,2.42,1.48l2.42-1.3a4.943,4.943,0,0,0-4.82-2.74c-3.5,0-6,2.3-6,5.54S49.811.16,53.311.16Z" transform="translate(697 3370)" fill="#00223d"/>
    <path id="Trazado_24163" data-name="Trazado 24163" d="M-60,1.8h10V0H-60Zm10,0h10V0H-50Zm10,0h10V0H-40Zm10,0h10V0H-30Zm10,0h10V0H-20Zm10,0H0V0H-10Zm10,0H10V0H0Zm10,0H20V0H10Zm10,0H30V0H20Zm10,0H40V0H30Zm10,0H50V0H40Zm10,0H60V0H50ZM-6.85,21.36l3.22-3.04c1.96-1.82,2.34-3.06,2.34-4.42,0-2.54-2.08-4.14-5.2-4.14a6.5,6.5,0,0,0-5.56,2.6l2.36,1.52a3.423,3.423,0,0,1,2.9-1.4c1.48,0,2.24.64,2.24,1.74,0,.68-.22,1.4-1.46,2.58l-5.4,5.1V24H-.83V21.36ZM5.51,13.08a8.271,8.271,0,0,0-4.64,1.3l1.12,2.18a5.174,5.174,0,0,1,3.1-1c1.68,0,2.48.78,2.48,2.12H5.09C1.81,17.68.47,19,.47,20.9c0,1.86,1.5,3.26,4.02,3.26a3.531,3.531,0,0,0,3.28-1.5V24h2.92V17.86C10.69,14.6,8.79,13.08,5.51,13.08Zm-.24,8.98c-1.1,0-1.76-.52-1.76-1.3,0-.72.46-1.26,1.92-1.26H7.57v1.1A2.3,2.3,0,0,1,5.27,22.06Z" transform="translate(698 3381)" fill="#00223d"/>
    <path id="Trazado_24164" data-name="Trazado 24164" d="M-1.74,0-6.96-7.24-2.08-14h-3.5L-8.74-9.46-11.96-14h-3.68l4.92,6.88L-15.9,0h3.72l3.32-4.86L-5.48,0ZM5.22-8.26h9.52V-10.7H5.22Zm0,4.96h9.52V-5.74H5.22Z" transform="translate(614 3387)" fill="#00223d"/>
    <path id="Trazado_24130" data-name="Trazado 24130" d="M-.244,0H55V2H2L1.569,3.154H-1.29Z" transform="translate(687 3352)" fill="#00223d"/>
    <line id="Línea_559" data-name="Línea 559" x1="6" transform="translate(686.5 3356.5)" fill="none" stroke="#707070" stroke-width="0.1"/>
  </g>
</svg>
