<svg xmlns="http://www.w3.org/2000/svg" viewBox="0 0 423.5 147.71"><defs><style>.cls-1{fill:#b2b2b2;}.cls-2{fill:#0070e7;}.cls-3{fill:#fff;}.cls-4{fill:#ff6300;}.cls-5{fill:#5fb900;}.cls-6{fill:#b400ff;}</style></defs><g id="Capa_2" data-name="Capa 2"><g id="Capa_1-2" data-name="Capa 1"><rect class="cls-1" x="295.19" y="0.38" width="1.5" height="127.56"/><rect class="cls-1" x="281.77" y="113.01" width="140.11" height="1.5"/><polygon class="cls-1" points="416.9 119.9 415.88 118.8 421.3 113.76 415.88 108.73 416.9 107.63 423.5 113.76 416.9 119.9"/><rect class="cls-1" x="289.44" y="99.21" width="6.5" height="0.75"/><rect class="cls-1" x="309.74" y="113.76" width="0.75" height="6.5"/><rect class="cls-1" x="289.44" y="85.04" width="11.74" height="0.75"/><rect class="cls-1" x="289.44" y="70.87" width="6.5" height="0.75"/><rect class="cls-1" x="289.44" y="56.69" width="6.5" height="0.75"/><rect class="cls-1" x="289.44" y="42.52" width="6.5" height="0.75"/><rect class="cls-1" x="289.44" y="28.35" width="6.5" height="0.75"/><rect class="cls-1" x="289.44" y="14.17" width="6.5" height="0.75"/><rect class="cls-1" x="289.44" width="6.5" height="0.75"/><rect class="cls-1" x="289.44" width="6.5" height="0.75"/><rect class="cls-1" x="323.91" y="113.76" width="0.75" height="6.5"/><rect class="cls-1" x="352.26" y="113.76" width="0.75" height="6.5"/><rect class="cls-1" x="338.08" y="113.76" width="0.75" height="6.5"/><rect class="cls-1" x="366.43" y="113.76" width="0.75" height="6.5"/><rect class="cls-1" x="380.6" y="113.76" width="0.75" height="6.5"/><rect class="cls-1" x="394.78" y="113.76" width="0.75" height="6.5"/><rect class="cls-1" x="408.95" y="113.76" width="0.75" height="6.5"/><circle class="cls-2" cx="352.63" cy="85.41" r="1.77"/><circle class="cls-2" cx="366.81" cy="85.41" r="1.77"/><circle class="cls-2" cx="352.63" cy="71.24" r="1.77"/><circle class="cls-2" cx="366.81" cy="71.24" r="1.77"/><path d="M309.91,124.18h0l-1.13.6-.17-.67,1.42-.75h.75v6.49h-.85Z"/><path d="M322.17,129.85v-.54l.69-.67c1.66-1.58,2.42-2.42,2.42-3.4A1.14,1.14,0,0,0,324,124a2.21,2.21,0,0,0-1.38.54l-.28-.61a2.89,2.89,0,0,1,1.84-.66,1.82,1.82,0,0,1,2,1.88c0,1.2-.87,2.17-2.24,3.49l-.51.48v0h2.91v.73Z"/><path d="M336.55,128.85a3,3,0,0,0,1.44.4c1.12,0,1.48-.71,1.47-1.26,0-.91-.83-1.3-1.68-1.3h-.49V126h.49c.64,0,1.45-.33,1.45-1.09,0-.53-.33-1-1.14-1a2.39,2.39,0,0,0-1.3.43l-.24-.64a3.15,3.15,0,0,1,1.71-.5c1.28,0,1.86.76,1.86,1.54a1.63,1.63,0,0,1-1.2,1.54v0a1.68,1.68,0,0,1,1.45,1.66c0,1-.82,2-2.37,2a3.3,3.3,0,0,1-1.69-.44Z"/><path d="M353.24,129.85v-1.78h-3v-.57l2.9-4.14h.95v4h.9v.68h-.9v1.78Zm0-2.46v-2.17c0-.33,0-.67,0-1h0c-.2.37-.36.65-.54,1l-1.59,2.21v0Z"/><path d="M368.57,124.1h-2.48l-.25,1.66a3.48,3.48,0,0,1,.53,0,2.72,2.72,0,0,1,1.4.35,1.84,1.84,0,0,1,.93,1.67,2.26,2.26,0,0,1-2.42,2.22,3.21,3.21,0,0,1-1.62-.4l.22-.67a2.92,2.92,0,0,0,1.4.36,1.43,1.43,0,0,0,1.53-1.42c0-.83-.57-1.43-1.86-1.43a5.43,5.43,0,0,0-.91.07l.42-3.11h3.11Z"/><path d="M382.57,124a3.18,3.18,0,0,0-.66,0,2.61,2.61,0,0,0-2.26,2.3h0a2,2,0,0,1,3.54,1.34A2.18,2.18,0,0,1,381,130c-1.38,0-2.29-1.08-2.29-2.77a4,4,0,0,1,1.1-2.92,3.54,3.54,0,0,1,2.08-1,4.23,4.23,0,0,1,.64,0Zm-1.51,5.3c.75,0,1.26-.63,1.26-1.56a1.32,1.32,0,0,0-1.34-1.49,1.44,1.44,0,0,0-1.27.8.82.82,0,0,0-.09.38c0,1.07.51,1.87,1.43,1.87Z"/><path d="M397.25,123.36v.58l-2.82,5.91h-.9l2.8-5.75h-3.17v-.73Z"/><path d="M409.39,123.25a1.68,1.68,0,0,1,1.9,1.6,1.65,1.65,0,0,1-1.08,1.51v0a1.81,1.81,0,0,1,1.31,1.68,2,2,0,0,1-2.21,1.89c-1.36,0-2.18-.8-2.18-1.75a1.87,1.87,0,0,1,1.28-1.75v0a1.6,1.6,0,0,1-1-1.45,1.81,1.81,0,0,1,2-1.73Zm-.06,6.07a1.18,1.18,0,0,0,1.3-1.16c0-.78-.55-1.17-1.43-1.42a1.42,1.42,0,0,0-1.17,1.35,1.2,1.2,0,0,0,1.29,1.23Zm0-5.44a1,1,0,0,0-1.13,1c0,.65.49,1,1.24,1.2a1.28,1.28,0,0,0,1-1.17,1,1,0,0,0-1.09-1.06Z"/><path d="M70.48,138.09a13.76,13.76,0,0,1,2-.15,4.22,4.22,0,0,1,3,.92,3.38,3.38,0,0,1,1.06,2.66,4,4,0,0,1-1.07,2.88,4.58,4.58,0,0,1-3.29,1.07,12.78,12.78,0,0,1-1.75-.09Zm1,6.57a6.8,6.8,0,0,0,1,0,2.84,2.84,0,0,0,3.15-3.14c0-1.75-1-2.87-3-2.87a5.79,5.79,0,0,0-1.12.1Z"/><path d="M78.25,139.18a.6.6,0,1,1,.61-.6.58.58,0,0,1-.61.6Zm-.47,6.23v-5.33h1v5.33Z"/><path d="M84.11,144.13a8.36,8.36,0,0,0,.08,1.28h-.87l-.09-.68h0a2,2,0,0,1-1.63.8A1.52,1.52,0,0,1,79.94,144c0-1.29,1.14-2,3.2-2v-.11a1.09,1.09,0,0,0-1.21-1.23,2.57,2.57,0,0,0-1.39.39l-.23-.65a3.51,3.51,0,0,1,1.77-.46c1.63,0,2,1.11,2,2.18Zm-1-1.44c-1,0-2.25.16-2.25,1.2a.84.84,0,0,0,.9.92,1.35,1.35,0,0,0,1.31-.89,1.1,1.1,0,0,0,0-.31Z"/><path d="M90.21,144.62a3.17,3.17,0,0,1-.75,2.45,3,3,0,0,1-1.95.64,3.49,3.49,0,0,1-1.77-.44l.24-.75a2.89,2.89,0,0,0,1.56.43c1,0,1.72-.52,1.72-1.87v-.59h0a1.89,1.89,0,0,1-1.7.89,2.38,2.38,0,0,1-2.26-2.6,2.54,2.54,0,0,1,2.4-2.82,1.78,1.78,0,0,1,1.67.92h0l0-.8h.86c0,.38-.05.82-.05,1.45Zm-1-2.45a1.21,1.21,0,0,0-.06-.43,1.38,1.38,0,0,0-1.35-1c-.92,0-1.59.78-1.59,2,0,1,.54,1.92,1.58,1.92a1.4,1.4,0,0,0,1.34-1,1.82,1.82,0,0,0,.08-.52Z"/><path d="M91.74,141.74c0-.62,0-1.16,0-1.66h.85l0,1h0A1.61,1.61,0,0,1,94.11,140l.26,0v.92a1.61,1.61,0,0,0-.33,0,1.37,1.37,0,0,0-1.3,1.24,3.19,3.19,0,0,0,0,.45v2.85h-1Z"/><path d="M99,144.13a10,10,0,0,0,.07,1.28h-.87l-.08-.68h0a2,2,0,0,1-1.62.8A1.52,1.52,0,0,1,94.87,144c0-1.29,1.14-2,3.2-2v-.11a1.09,1.09,0,0,0-1.21-1.23,2.58,2.58,0,0,0-1.4.39l-.22-.65A3.5,3.5,0,0,1,97,140c1.64,0,2,1.11,2,2.18Zm-1-1.44c-1.06,0-2.26.16-2.26,1.2a.85.85,0,0,0,.91.92,1.36,1.36,0,0,0,1.31-.89,1.1,1.1,0,0,0,0-.31Z"/><path d="M100.59,141.52c0-.56,0-1,0-1.44h.85l0,.86h0a1.82,1.82,0,0,1,1.68-1,1.57,1.57,0,0,1,1.5,1.07h0a2.09,2.09,0,0,1,.6-.7,1.8,1.8,0,0,1,1.17-.37c.71,0,1.76.46,1.76,2.31v3.14h-1v-3c0-1-.38-1.64-1.15-1.64a1.29,1.29,0,0,0-1.16.87,1.87,1.87,0,0,0-.07.49v3.3h-1V142.2c0-.84-.37-1.45-1.11-1.45a1.33,1.33,0,0,0-1.2,1,1.22,1.22,0,0,0-.08.47v3.22h-.94Z"/><path d="M113.51,144.13a8.36,8.36,0,0,0,.08,1.28h-.87l-.09-.68h0a2,2,0,0,1-1.63.8,1.52,1.52,0,0,1-1.63-1.53c0-1.29,1.15-2,3.2-2v-.11a1.09,1.09,0,0,0-1.21-1.23,2.57,2.57,0,0,0-1.39.39l-.22-.65a3.5,3.5,0,0,1,1.76-.46c1.64,0,2,1.11,2,2.18Zm-.94-1.44c-1.06,0-2.26.16-2.26,1.2a.84.84,0,0,0,.9.92,1.34,1.34,0,0,0,1.31-.89,1.12,1.12,0,0,0,0-.31Z"/><path d="M122,137.59V144c0,.47,0,1,.05,1.38h-.87l0-.93h0a1.94,1.94,0,0,1-1.8,1.05,2.44,2.44,0,0,1-2.29-2.71c0-1.78,1.1-2.86,2.39-2.86a1.78,1.78,0,0,1,1.6.8h0v-3.17Zm-1,4.66a2,2,0,0,0,0-.42,1.43,1.43,0,0,0-1.4-1.11c-1,0-1.59.88-1.59,2.05s.54,2,1.57,2a1.47,1.47,0,0,0,1.42-1.17,1.68,1.68,0,0,0,0-.41Z"/><path d="M124.15,142.92a1.69,1.69,0,0,0,1.81,1.84,3.36,3.36,0,0,0,1.48-.28l.17.69a4.18,4.18,0,0,1-1.78.35,2.49,2.49,0,0,1-2.62-2.69,2.6,2.6,0,0,1,2.51-2.87,2.25,2.25,0,0,1,2.19,2.51,2.56,2.56,0,0,1,0,.45Zm2.83-.69a1.39,1.39,0,0,0-1.34-1.58,1.6,1.6,0,0,0-1.48,1.58Z"/><path d="M132.71,145.41,130.28,138h1l1.16,3.65c.3,1,.58,1.92.79,2.78h0c.21-.86.51-1.8.85-2.77l1.25-3.66h1l-2.65,7.42Z"/><path d="M137.37,142.92a1.7,1.7,0,0,0,1.82,1.84,3.35,3.35,0,0,0,1.47-.28l.17.69a4.18,4.18,0,0,1-1.78.35,2.49,2.49,0,0,1-2.62-2.69,2.6,2.6,0,0,1,2.51-2.87,2.25,2.25,0,0,1,2.19,2.51,2.56,2.56,0,0,1,0,.45Zm2.83-.69a1.38,1.38,0,0,0-1.33-1.58,1.61,1.61,0,0,0-1.49,1.58Z"/><path d="M142.33,141.52c0-.56,0-1,0-1.44h.85l.06.87h0a2,2,0,0,1,1.76-1c.74,0,1.88.44,1.88,2.27v3.18h-1v-3.07c0-.86-.31-1.59-1.23-1.59a1.41,1.41,0,0,0-1.3,1,1.58,1.58,0,0,0-.06.45v3.22h-1Z"/><path d="M148.43,141.52c0-.56,0-1,0-1.44h.86l.05.87h0a2,2,0,0,1,1.76-1c.73,0,1.88.44,1.88,2.27v3.18h-1v-3.07c0-.86-.32-1.59-1.23-1.59a1.4,1.4,0,0,0-1.3,1,1.29,1.29,0,0,0-.07.45v3.22h-1Z"/><path d="M322.49,138.09a9.76,9.76,0,0,1,1.84-.15,3.09,3.09,0,0,1,2.08.61,2,2,0,0,1,.66,1.54,2.15,2.15,0,0,1-.59,1.59,3,3,0,0,1-2.26.81,3,3,0,0,1-.77-.07v3h-1Zm1,3.55a3,3,0,0,0,.79.08c1.15,0,1.86-.56,1.86-1.57s-.69-1.46-1.75-1.46a4.15,4.15,0,0,0-.9.08Z"/><path d="M328.25,137.59h1v7.82h-1Z"/><path d="M334.6,144.13a8.36,8.36,0,0,0,.08,1.28h-.87l-.09-.68h0a2,2,0,0,1-1.63.8,1.52,1.52,0,0,1-1.63-1.53c0-1.29,1.15-2,3.2-2v-.11a1.09,1.09,0,0,0-1.21-1.23,2.57,2.57,0,0,0-1.39.39l-.23-.65a3.54,3.54,0,0,1,1.77-.46c1.63,0,2,1.11,2,2.18Zm-1-1.44c-1,0-2.25.16-2.25,1.2a.84.84,0,0,0,.9.92,1.35,1.35,0,0,0,1.31-.89,1.1,1.1,0,0,0,0-.31Z"/><path d="M336.15,141.52c0-.56,0-1,0-1.44H337l.06.87h0a2,2,0,0,1,1.76-1c.74,0,1.88.44,1.88,2.27v3.18h-1v-3.07c0-.86-.31-1.59-1.23-1.59a1.41,1.41,0,0,0-1.3,1,1.58,1.58,0,0,0-.06.45v3.22h-1Z"/><path d="M344.42,145.53a2.54,2.54,0,0,1-2.55-2.74,2.61,2.61,0,0,1,2.64-2.83,2.52,2.52,0,0,1,2.56,2.73,2.61,2.61,0,0,1-2.64,2.84Zm.05-.73c.92,0,1.61-.87,1.61-2.08,0-.9-.45-2-1.59-2s-1.63,1.05-1.63,2.06c0,1.17.66,2.05,1.6,2.05Z"/><path d="M355.83,145.16a4.63,4.63,0,0,1-2,.36,3.46,3.46,0,0,1-3.65-3.76,3.68,3.68,0,0,1,3.87-3.88,4.26,4.26,0,0,1,1.76.32l-.24.79a3.48,3.48,0,0,0-1.49-.31,2.76,2.76,0,0,0-2.89,3,2.68,2.68,0,0,0,2.84,3,3.78,3.78,0,0,0,1.57-.31Z"/><path d="M360.68,144.13a8.36,8.36,0,0,0,.08,1.28h-.87l-.09-.68h0a2,2,0,0,1-1.63.8,1.52,1.52,0,0,1-1.63-1.53c0-1.29,1.15-2,3.2-2v-.11a1.09,1.09,0,0,0-1.21-1.23,2.57,2.57,0,0,0-1.39.39l-.23-.65a3.54,3.54,0,0,1,1.77-.46c1.63,0,2,1.11,2,2.18Zm-.95-1.44c-1.05,0-2.25.16-2.25,1.2a.84.84,0,0,0,.9.92,1.35,1.35,0,0,0,1.31-.89,1.1,1.1,0,0,0,0-.31Z"/><path d="M362.23,141.74c0-.62,0-1.16,0-1.66H363l.05,1h0A1.61,1.61,0,0,1,364.6,140l.26,0v.92a1.61,1.61,0,0,0-.33,0,1.36,1.36,0,0,0-1.3,1.24,3.19,3.19,0,0,0,0,.45v2.85h-1Z"/><path d="M367.26,138.8v1.28h1.38v.74h-1.38v2.86c0,.66.18,1,.72,1a1.93,1.93,0,0,0,.56-.06l0,.73a2.55,2.55,0,0,1-.86.14,1.38,1.38,0,0,1-1-.41,2.06,2.06,0,0,1-.38-1.4v-2.89h-.82v-.74h.82v-1Z"/><path d="M370.22,142.92a1.69,1.69,0,0,0,1.81,1.84,3.43,3.43,0,0,0,1.48-.28l.17.69a4.18,4.18,0,0,1-1.78.35,2.49,2.49,0,0,1-2.62-2.69,2.6,2.6,0,0,1,2.51-2.87,2.25,2.25,0,0,1,2.19,2.51,2.56,2.56,0,0,1,0,.45Zm2.82-.69a1.38,1.38,0,0,0-1.33-1.58,1.59,1.59,0,0,0-1.48,1.58Z"/><path d="M375,144.42a2.84,2.84,0,0,0,1.29.37c.7,0,1-.34,1-.79s-.28-.71-1-1c-1-.35-1.42-.88-1.42-1.51a1.64,1.64,0,0,1,1.83-1.56,2.43,2.43,0,0,1,1.3.33l-.23.69a2.19,2.19,0,0,0-1.09-.3c-.57,0-.88.32-.88.72s.31.64,1,.91c.92.35,1.4.81,1.4,1.6,0,1-.74,1.61-2,1.61a3.08,3.08,0,0,1-1.5-.38Z"/><path d="M380,139.18a.6.6,0,1,1,.61-.6.58.58,0,0,1-.61.6Zm-.47,6.23v-5.33h1v5.33Z"/><path d="M385.86,144.13a8.36,8.36,0,0,0,.08,1.28h-.87l-.09-.68h0a2,2,0,0,1-1.63.8,1.52,1.52,0,0,1-1.63-1.53c0-1.29,1.14-2,3.2-2v-.11a1.09,1.09,0,0,0-1.21-1.23,2.6,2.6,0,0,0-1.4.39l-.22-.65a3.5,3.5,0,0,1,1.76-.46c1.64,0,2,1.11,2,2.18Zm-.95-1.44c-1.05,0-2.25.16-2.25,1.2a.84.84,0,0,0,.9.92,1.36,1.36,0,0,0,1.31-.89,1.1,1.1,0,0,0,0-.31Z"/><path d="M387.41,141.52c0-.56,0-1,0-1.44h.85l.06.87h0a2,2,0,0,1,1.76-1c.74,0,1.88.44,1.88,2.27v3.18h-1v-3.07c0-.86-.31-1.59-1.23-1.59a1.41,1.41,0,0,0-1.3,1,1.58,1.58,0,0,0-.06.45v3.22h-1Z"/><path d="M395.68,145.53a2.54,2.54,0,0,1-2.55-2.74,2.61,2.61,0,0,1,2.64-2.83,2.52,2.52,0,0,1,2.56,2.73,2.61,2.61,0,0,1-2.64,2.84Zm.05-.73c.92,0,1.61-.87,1.61-2.08,0-.9-.45-2-1.59-2s-1.63,1.05-1.63,2.06c0,1.17.66,2.05,1.59,2.05Z"/><path d="M2.24,26l-1,3H0l3.21-9.44H4.68L7.9,29H6.6l-1-3Zm3.1-.95L4.4,22.37c-.2-.61-.34-1.17-.48-1.72h0c-.13.55-.28,1.13-.46,1.71l-.93,2.73Z"/><path d="M224.53,19.71a10.55,10.55,0,0,1,2.23-.21,3.83,3.83,0,0,1,2.58.69,2,2,0,0,1,.8,1.66,2.24,2.24,0,0,1-1.6,2.08v0a2.4,2.4,0,0,1,2,2.35,2.47,2.47,0,0,1-.82,1.89,4.6,4.6,0,0,1-3.24.89,13.4,13.4,0,0,1-1.9-.12Zm1.22,3.87h1.11c1.27,0,2-.69,2-1.6,0-1.09-.83-1.54-2.06-1.54a5.54,5.54,0,0,0-1.08.08Zm0,4.51a7.08,7.08,0,0,0,1,.05c1.26,0,2.42-.46,2.42-1.83s-1.11-1.82-2.44-1.82h-1Z"/><path class="cls-3" d="M55.08,123.14c-25.23,0-45.76-26.46-45.76-59s20.53-59,45.76-59,45.76,26.46,45.76,59S80.31,123.14,55.08,123.14Z"/><path class="cls-4" d="M55.08,6.67c24.41,0,44.26,25.79,44.26,57.48s-19.85,57.49-44.26,57.49S10.82,95.85,10.82,64.15,30.68,6.67,55.08,6.67m0-3C29,3.67,7.82,30.75,7.82,64.15S29,124.64,55.08,124.64s47.26-27.08,47.26-60.49S81.18,3.67,55.08,3.67Z"/><path class="cls-3" d="M175.39,123.14c-25.23,0-45.76-26.46-45.76-59s20.53-59,45.76-59,45.77,26.46,45.77,59S200.63,123.14,175.39,123.14Z"/><path class="cls-5" d="M175.39,6.67c24.41,0,44.27,25.79,44.27,57.48s-19.86,57.49-44.27,57.49-44.26-25.79-44.26-57.49S151,6.67,175.39,6.67m0-3c-26.1,0-47.26,27.08-47.26,60.48s21.16,60.49,47.26,60.49,47.27-27.08,47.27-60.49S201.5,3.67,175.39,3.67Z"/><rect class="cls-3" x="158.71" y="26.54" width="33.37" height="20.74"/><path class="cls-5" d="M191.08,27.54V46.28H159.71V27.54h31.37m2-2H157.71V48.28h35.37V25.54Z"/><rect class="cls-3" x="158.71" y="53.79" width="33.37" height="20.74"/><path class="cls-5" d="M191.08,54.79V73.52H159.71V54.79h31.37m2-2H157.71V75.52h35.37V52.79Z"/><rect class="cls-3" x="158.71" y="81.03" width="33.37" height="20.74"/><path class="cls-5" d="M191.08,82v18.73H159.71V82h31.37m2-2H157.71v22.73h35.37V80Z"/><rect class="cls-3" x="38.4" y="26.54" width="33.37" height="20.74"/><path class="cls-4" d="M70.76,27.54V46.28H39.4V27.54H70.76m2-2H37.4V48.28H72.76V25.54Z"/><rect class="cls-3" x="38.4" y="81.03" width="33.37" height="20.74"/><path class="cls-4" d="M70.76,82v18.73H39.4V82H70.76m2-2H37.4v22.73H72.76V80Z"/><path d="M175.11,33.32h0l-1.58.86-.24-.94,2-1.07h1.05v9.11h-1.19Z"/><path d="M176.25,69.28V66.79H172V66l4.07-5.82h1.33v5.66h1.27v1h-1.27v2.49Zm0-3.45v-3c0-.47,0-.95,0-1.42h0c-.29.53-.51.92-.76,1.34l-2.23,3.1v0Z"/><path d="M177.87,89.21H174.4l-.35,2.34a4.48,4.48,0,0,1,.74-.06,3.88,3.88,0,0,1,2,.49,2.59,2.59,0,0,1,1.3,2.34,3.16,3.16,0,0,1-3.39,3.11,4.52,4.52,0,0,1-2.27-.56l.31-.94a4,4,0,0,0,2,.51,2,2,0,0,0,2.15-2c0-1.16-.8-2-2.61-2a8.34,8.34,0,0,0-1.27.09l.58-4.37h4.36Z"/><path d="M52.12,41.28v-.76l1-.94c2.32-2.21,3.39-3.39,3.39-4.76A1.62,1.62,0,0,0,54.68,33a3.11,3.11,0,0,0-1.93.77l-.39-.87A4.08,4.08,0,0,1,54.94,32a2.56,2.56,0,0,1,2.77,2.65c0,1.68-1.22,3-3.14,4.89l-.71.67v0h4.07v1Z"/><path d="M52.42,95.88a4.17,4.17,0,0,0,2,.56c1.57,0,2.07-1,2.06-1.77,0-1.27-1.16-1.82-2.35-1.82h-.69v-.92h.69c.89,0,2-.46,2-1.54,0-.73-.46-1.38-1.6-1.38a3.33,3.33,0,0,0-1.82.61l-.33-.9a4.4,4.4,0,0,1,2.39-.7c1.79,0,2.61,1.06,2.61,2.17a2.3,2.3,0,0,1-1.69,2.16v0a2.34,2.34,0,0,1,2,2.32c0,1.46-1.15,2.73-3.32,2.73a4.67,4.67,0,0,1-2.37-.61Z"/><path class="cls-6" d="M155.73,64.43a.9.9,0,0,1-.28,0l-83-26.61A.91.91,0,0,1,73,36.05l83,26.6a.92.92,0,0,1,.59,1.15A.93.93,0,0,1,155.73,64.43Z"/><polygon class="cls-6" points="151.33 65.35 155.22 63.35 153.22 59.47 155.71 60.27 157.71 64.16 153.83 66.15 151.33 65.35"/><path class="cls-6" d="M72.76,92.31a.91.91,0,0,1-.27-1.78l83-26.61a.91.91,0,1,1,.56,1.74L73,92.26A.87.87,0,0,1,72.76,92.31Z"/><polygon class="cls-6" points="153.22 68.84 155.22 64.95 151.33 62.96 153.83 62.16 157.71 64.16 155.71 68.04 153.22 68.84"/><path class="cls-6" d="M157,91.19a.86.86,0,0,1-.48-.14L72.28,37.68A.9.9,0,0,1,72,36.43a.91.91,0,0,1,1.25-.29l84.27,53.37a.91.91,0,0,1-.49,1.68Z"/><polygon class="cls-6" points="152.32 90.95 156.58 90 155.62 85.73 157.84 87.14 158.79 91.4 154.53 92.35 152.32 90.95"/><path class="cls-6" d="M156.71,92.31H72.76a.91.91,0,1,1,0-1.82h84a.91.91,0,1,1,0,1.82Z"/><polygon class="cls-6" points="153.08 94.48 156.17 91.4 153.08 88.31 155.71 88.31 158.79 91.4 155.71 94.48 153.08 94.48"/></g></g></svg>