<svg xmlns="http://www.w3.org/2000/svg" width="138.866" height="133.896" viewBox="0 0 138.866 133.896">
  <g id="Grupo_9645" data-name="Grupo 9645" transform="translate(-1756.522 -1621.46)">
    <path id="Trazado_19732" data-name="Trazado 19732" d="M1762.522,1648.972l21.511,21.511V1656.03h28.248v58.315l17.975,5.84v-65.537s-1.608-11.783-18.024-11.783h-28.2v-15.406Z" transform="translate(-4.334 -4.334)" fill="#ffd571"/>
    <path id="Trazado_19733" data-name="Trazado 19733" d="M2074.306,1648.972l-21.511,21.511V1656.03h-28.248v58.315l-17.975,5.84v-65.537s1.608-11.783,18.024-11.783h28.2v-15.406Z" transform="translate(-180.618 -4.334)" fill="#fff0ce"/>
    <path id="Trazado_19734" data-name="Trazado 19734" d="M2128.539,1812.867s3.048-10.68,10.175-8.575,11.411,15.184,16.985,15.523c0,0-5.761,4.855-19.382-2.329A11.247,11.247,0,0,0,2128.539,1812.867Z" transform="translate(-268.718 -131.866)" fill="#ffd571"/>
    <path id="Trazado_19735" data-name="Trazado 19735" d="M2023.307,2019.79h55.865s1.141-27.7-7.589-30.438-2.675-.624-2.675-.624a29.452,29.452,0,0,1-17.772,6.347c-8.718,0-16.326-6.955-16.326-6.955s-2.817-.582-6.565,2.034S2023.307,2019.79,2023.307,2019.79Z" transform="translate(-192.706 -264.725)" fill="#ffd571"/>
    <path id="Trazado_19736" data-name="Trazado 19736" d="M1855.714,1891.96s.942,17,9.88,17,10.991-17.67,10.991-17.67l-10.436-3.163Z" transform="translate(-71.649 -192.623)" fill="#fff"/>
    <path id="Trazado_19737" data-name="Trazado 19737" d="M1863.366,1948.745l-2.031,9.237s.568,5.294,8.081,5.294,8.815-6.125,8.815-6.125l-2.987-7.285s-1.05,3.491-5.828,3.491S1863.366,1948.745,1863.366,1948.745Z" transform="translate(-75.709 -236.406)" fill="#fff"/>
    <path id="Trazado_19738" data-name="Trazado 19738" d="M1850.749,1850.395s-1.758-14.506,11.2-14.506c14.242,0,11.337,16.931,11.337,16.931l-10.781-3.273s-3.421,4.417-11.756,5.069Z" transform="translate(-68.005 -154.887)" fill="#ffd571"/>
    <path id="Trazado_19739" data-name="Trazado 19739" d="M1774.183,2011.517h64.533s.941-27.232-7.79-29.967-15.742-5.052-15.742-5.052,1.744,6.825-8.719,6.825c-8.719,0-8.719-6.775-8.719-6.775s-16.067,4.323-19.815,6.94S1774.183,2011.517,1774.183,2011.517Z" transform="translate(-12.757 -256.452)" fill="#fff0ce"/>
    <path id="Trazado_19740" data-name="Trazado 19740" d="M2086.531,1887.551s1.689,16.12,10.627,16.12,10.244-15.3,10.244-15.3a36.1,36.1,0,0,1-7.29-6.343A15.709,15.709,0,0,1,2086.531,1887.551Z" transform="translate(-238.374 -188.214)" fill="#fff"/>
    <path id="Trazado_19741" data-name="Trazado 19741" d="M2078.413,1948.745l-.68,6.581-9.987,4.475s2,6.955,15.49,6.955,17.772-6.347,17.772-6.347l-11.86-5.172-.716-5.371s-.662,2.01-5.44,2.01S2078.413,1948.745,2078.413,1948.745Z" transform="translate(-224.805 -236.406)" fill="#fff"/>
    <path id="Trazado_19742" data-name="Trazado 19742" d="M2083.92,1850.395s-2.492-14.506,10.466-14.506c15.578,0,10.991,19.155,10.991,19.155l-7.29-6.343a25.8,25.8,0,0,1-14.086,5.916C2084,1853.168,2083.92,1850.395,2083.92,1850.395Z" transform="translate(-236.349 -154.887)" fill="#ffd571"/>
    <g id="Grupo_9644" data-name="Grupo 9644" transform="translate(1756.522 1621.46)">
      <g id="Grupo_9643" data-name="Grupo 9643" transform="translate(3.238 49.131)">
        <path id="Trazado_19743" data-name="Trazado 19743" d="M1857.836,1869.375c-4.928,0-7.4-4.845-7.938-6.05-1.029-1.29-2.651-3.751-2.9-5.694l-.192-1.508a6.437,6.437,0,0,0-.63-2.07l-.187-.373a9.839,9.839,0,0,1-1.033-4.376v-6.25a12.879,12.879,0,1,1,25.758,0v5.972a9.791,9.791,0,0,1-1.333,4.93,6.417,6.417,0,0,0-.827,2.436l-.158,1.24c-.266,2.085-1.994,4.612-3.034,5.862C1864.85,1864.811,1862.721,1869.375,1857.836,1869.375Zm0-35.87a9.558,9.558,0,0,0-9.547,9.547v6.25a6.486,6.486,0,0,0,.681,2.886l.187.373a9.768,9.768,0,0,1,.954,3.139l.192,1.509a11.418,11.418,0,0,0,2.318,4.185,1.66,1.66,0,0,1,.267.453c.015.037,1.719,4.2,4.947,4.2,3.185,0,4.466-3.874,4.479-3.912a1.667,1.667,0,0,1,.334-.59,11.126,11.126,0,0,0,2.443-4.331l.158-1.24a9.73,9.73,0,0,1,1.254-3.693,6.457,6.457,0,0,0,.879-3.251v-5.972A9.558,9.558,0,0,0,1857.836,1833.506Z" transform="translate(-1823.639 -1821.35)" fill="#3d4c6d"/>
        <path id="Trazado_19744" data-name="Trazado 19744" d="M1769.851,1987.427a1.743,1.743,0,0,1-.184-.01,1.666,1.666,0,0,1-1.474-1.839l2.278-20.677a9.918,9.918,0,0,1,6.947-9.395l16.22-5.214.518-6.026a1.666,1.666,0,0,1,3.32.286l-.613,7.13a1.666,1.666,0,0,1-1.15,1.444l-17.282,5.555A6.6,6.6,0,0,0,1773.8,1965a1.667,1.667,0,0,1-.01.182l-2.287,20.764A1.666,1.666,0,0,1,1769.851,1987.427Z" transform="translate(-1768.182 -1902.662)" fill="#3d4c6d"/>
        <path id="Trazado_19745" data-name="Trazado 19745" d="M1934.808,1987.427a1.666,1.666,0,0,1-1.654-1.484l-2.287-20.764a1.634,1.634,0,0,1-.01-.182,6.6,6.6,0,0,0-4.622-6.314l-17.288-5.557a1.666,1.666,0,0,1-1.15-1.443l-.613-7.13a1.666,1.666,0,0,1,3.32-.285l.518,6.026,16.227,5.216a9.915,9.915,0,0,1,6.941,9.392l2.278,20.677a1.666,1.666,0,0,1-1.473,1.839A1.759,1.759,0,0,1,1934.808,1987.427Z" transform="translate(-1868.582 -1902.662)" fill="#3d4c6d"/>
        <path id="Trazado_19746" data-name="Trazado 19746" d="M2091.182,1867.924a5.119,5.119,0,0,1-3.282-1.182l-2.808-2.335c-1.713-1.29-4.344-4.539-4.63-6.775l-.192-1.508a6.43,6.43,0,0,0-.63-2.071l-.186-.373a9.828,9.828,0,0,1-1.033-4.376v-6.25a12.879,12.879,0,1,1,25.758,0v5.972a9.793,9.793,0,0,1-1.333,4.93,6.416,6.416,0,0,0-.827,2.436l-.158,1.24c-.283,2.219-2.628,5.465-4.893,6.818l-2.3,2.123A5.13,5.13,0,0,1,2091.182,1867.924Zm.118-34.418a9.558,9.558,0,0,0-9.547,9.547v6.25a6.485,6.485,0,0,0,.681,2.886l.186.373a9.768,9.768,0,0,1,.955,3.139l.193,1.508c.117.922,1.9,3.477,3.348,4.55.025.019.049.037.073.058l2.841,2.363a1.81,1.81,0,0,0,2.376-.06l2.441-2.248a1.692,1.692,0,0,1,.324-.233,8.66,8.66,0,0,0,3.384-4.429l.158-1.24a9.733,9.733,0,0,1,1.255-3.693,6.462,6.462,0,0,0,.879-3.251v-5.972A9.558,9.558,0,0,0,2091.3,1833.506Z" transform="translate(-1992.276 -1821.35)" fill="#3d4c6d"/>
        <path id="Trazado_19747" data-name="Trazado 19747" d="M2018.975,1987.428c-.053,0-.106,0-.16-.008a1.666,1.666,0,0,1-1.5-1.817l1.972-20.688a9.877,9.877,0,0,1,6.1-9.384l14.413-5.2.522-6.067a1.666,1.666,0,0,1,3.32.286l-.613,7.13a1.666,1.666,0,0,1-1.095,1.425l-15.409,5.555c-2.3.841-3.905,3.447-3.905,6.334a1.548,1.548,0,0,1-.008.158l-1.979,20.764A1.666,1.666,0,0,1,2018.975,1987.428Z" transform="translate(-1948.131 -1902.663)" fill="#3d4c6d"/>
        <path id="Trazado_19748" data-name="Trazado 19748" d="M2160.312,1987.428a1.667,1.667,0,0,1-1.657-1.508l-1.979-20.764c-.005-.052-.007-.105-.007-.158a6.649,6.649,0,0,0-3.913-6.337l-15.4-5.552a1.664,1.664,0,0,1-1.095-1.425l-.613-7.13a1.666,1.666,0,0,1,3.32-.286l.522,6.067,14.406,5.193a9.88,9.88,0,0,1,6.106,9.387l1.972,20.688a1.666,1.666,0,0,1-1.5,1.817C2160.419,1987.425,2160.365,1987.428,2160.312,1987.428Z" transform="translate(-2033.607 -1902.663)" fill="#3d4c6d"/>
        <path id="Trazado_19749" data-name="Trazado 19749" d="M2147.168,1819.233a17.274,17.274,0,0,1-8.034-2.232,1.666,1.666,0,1,1,1.549-2.95c3.729,1.959,6.528,2.058,8.449,1.608-2.151-1.38-3.816-3.853-5.448-6.275-2.271-3.373-4.62-6.86-8.162-7.514a5.528,5.528,0,0,0-4.539.836c-2.64,1.976-3.117,6.3-3.121,6.347a1.666,1.666,0,0,1-3.316-.33c.023-.236.612-5.8,4.423-8.671a8.79,8.79,0,0,1,7.157-1.458c4.919.909,7.789,5.171,10.321,8.93,2.628,3.9,4.4,6.242,6.917,5.867a1.666,1.666,0,0,1,1.515,2.728A10.35,10.35,0,0,1,2147.168,1819.233Z" transform="translate(-2025.588 -1798.397)" fill="#3d4c6d"/>
        <path id="Trazado_19750" data-name="Trazado 19750" d="M2081.678,1880.249c-.456,0-.923-.015-1.4-.045a1.666,1.666,0,0,1,.209-3.326c9.946.628,13-6.691,13.032-6.765a1.666,1.666,0,0,1,3.092,1.244,14.343,14.343,0,0,1-3.55,4.785A16.524,16.524,0,0,1,2081.678,1880.249Z" transform="translate(-1992.486 -1849.445)" fill="#3d4c6d"/>
        <path id="Trazado_19751" data-name="Trazado 19751" d="M1848.6,1885.955a1.666,1.666,0,0,1-.039-3.332c8.393-.2,11.22-4.648,11.336-4.837a1.666,1.666,0,0,1,2.865,1.7c-.149.254-3.77,6.22-14.122,6.467Z" transform="translate(-1825.065 -1855.151)" fill="#3d4c6d"/>
        <path id="Trazado_19752" data-name="Trazado 19752" d="M1901.459,1889.009a21.793,21.793,0,0,1-10.025-2.674,1.666,1.666,0,1,1,1.575-2.936,17.7,17.7,0,0,0,8.843,2.269,1.666,1.666,0,1,1,.266,3.321C1902.078,1888.992,1901.847,1889.009,1901.459,1889.009Z" transform="translate(-1856.575 -1859.653)" fill="#3d4c6d"/>
        <path id="Trazado_19753" data-name="Trazado 19753" d="M2137.785,1886.347a1.66,1.66,0,0,1-1.165-.475l-7.994-7.82a1.666,1.666,0,0,1,2.33-2.382l7.994,7.82a1.666,1.666,0,0,1-1.165,2.857Z" transform="translate(-2028.178 -1853.87)" fill="#3d4c6d"/>
        <path id="Trazado_19754" data-name="Trazado 19754" d="M2077.079,1992.848c-13.182,0-17.9-7.431-18.1-7.747a1.666,1.666,0,0,1,2.833-1.754c.176.275,4.076,6.17,15.265,6.17a28.205,28.205,0,0,0,12.84-2.846,16.573,16.573,0,0,0,4.161-2.852,1.666,1.666,0,0,1,2.43,2.28C2096.253,1986.373,2090.056,1992.848,2077.079,1992.848Z" transform="translate(-1978.055 -1931.423)" fill="#3d4c6d"/>
        <path id="Trazado_19755" data-name="Trazado 19755" d="M2074.789,2069.256a7.916,7.916,0,0,1-3.448-.768,10.162,10.162,0,0,1-4.813-5.693,1.666,1.666,0,0,1,3.178-1,6.827,6.827,0,0,0,3.089,3.7,6.018,6.018,0,0,0,4.861-.187,1.666,1.666,0,0,1,1.232,3.1A11.1,11.1,0,0,1,2074.789,2069.256Z" transform="translate(-1983.629 -1987.816)" fill="#3d4c6d"/>
        <path id="Trazado_19756" data-name="Trazado 19756" d="M2141.257,2069.267a11.1,11.1,0,0,1-4.1-.858,1.666,1.666,0,1,1,1.232-3.1,6.017,6.017,0,0,0,4.86.188,6.825,6.825,0,0,0,3.089-3.7,1.666,1.666,0,0,1,3.178,1,10.162,10.162,0,0,1-4.813,5.693A7.922,7.922,0,0,1,2141.257,2069.267Z" transform="translate(-2033.945 -1987.827)" fill="#3d4c6d"/>
        <path id="Trazado_19757" data-name="Trazado 19757" d="M1863.675,1980.655c-10.115,0-10.628-8.33-10.632-8.415a1.666,1.666,0,0,1,3.328-.17c.036.549.55,5.253,7.3,5.253,2.438,0,4.256-.6,5.406-1.778a5.167,5.167,0,0,0,1.4-3.341,1.666,1.666,0,0,1,3.331-.085,8.57,8.57,0,0,1-2.341,5.752C1869.667,1979.718,1867.045,1980.655,1863.675,1980.655Z" transform="translate(-1829.478 -1922.707)" fill="#3d4c6d"/>
        <path id="Trazado_19758" data-name="Trazado 19758" d="M1813.468,2054.538a1.666,1.666,0,0,1-1.666-1.666v-15.553a1.666,1.666,0,0,1,3.332,0v15.553A1.666,1.666,0,0,1,1813.468,2054.538Z" transform="translate(-1799.69 -1969.773)" fill="#3d4c6d"/>
        <path id="Trazado_19759" data-name="Trazado 19759" d="M1955.6,2054.538a1.666,1.666,0,0,1-1.666-1.666v-15.553a1.666,1.666,0,0,1,3.332,0v15.553A1.666,1.666,0,0,1,1955.6,2054.538Z" transform="translate(-1902.357 -1969.773)" fill="#3d4c6d"/>
      </g>
      <path id="Trazado_19760" data-name="Trazado 19760" d="M1825.988,1718.616a1.666,1.666,0,0,1-1.666-1.666v-63.772a12.994,12.994,0,0,0-12.979-12.98H1779.7a1.666,1.666,0,0,1-1.666-1.666v-11.383l-17.489,17.489,17.489,17.489V1651.7a1.666,1.666,0,0,1,1.666-1.666h28.248a1.666,1.666,0,0,1,1.666,1.666V1677.5a1.666,1.666,0,1,1-3.332,0v-24.141h-24.916v12.786a1.666,1.666,0,0,1-2.844,1.179l-21.511-21.511a1.666,1.666,0,0,1,0-2.356l21.511-21.511a1.666,1.666,0,0,1,2.844,1.178v13.739h29.978a16.33,16.33,0,0,1,16.311,16.312v63.772A1.666,1.666,0,0,1,1825.988,1718.616Z" transform="translate(-1756.522 -1621.46)" fill="#3d4c6d"/>
      <path id="Trazado_19761" data-name="Trazado 19761" d="M2020.161,1679.17a1.666,1.666,0,0,1-1.666-1.666V1651.7a1.666,1.666,0,0,1,1.666-1.666h28.247a1.666,1.666,0,0,1,1.666,1.666v10.43l17.489-17.489-17.489-17.489v11.383a1.666,1.666,0,0,1-1.666,1.666h-31.644a12.994,12.994,0,0,0-12.979,12.98,1.666,1.666,0,0,1-3.332,0,16.33,16.33,0,0,1,16.311-16.312h29.978v-13.74a1.666,1.666,0,0,1,2.844-1.178l21.511,21.511a1.665,1.665,0,0,1,0,2.356l-21.511,21.51a1.666,1.666,0,0,1-2.844-1.178v-12.786h-24.915V1677.5A1.666,1.666,0,0,1,2020.161,1679.17Z" transform="translate(-1932.72 -1621.461)" fill="#3d4c6d"/>
    </g>
  </g>
</svg>
