<svg xmlns="http://www.w3.org/2000/svg" width="140.064" height="138.38" viewBox="0 0 140.064 138.38">
  <g id="Grupo_9653" data-name="Grupo 9653" transform="translate(-3282.423 -209.855)">
    <rect id="Rectángulo_2234" data-name="Rectángulo 2234" width="87.864" height="122.683" transform="translate(3284.139 211.571)" fill="#ffd571"/>
    <rect id="Rectángulo_2235" data-name="Rectángulo 2235" width="87.864" height="122.683" transform="translate(3297.261 223.836)" fill="#fff0ce"/>
    <rect id="Rectángulo_2236" data-name="Rectángulo 2236" width="63.491" height="62.082" transform="translate(3309.448 273.134)" fill="#fff"/>
    <g id="Grupo_9652" data-name="Grupo 9652" transform="translate(3282.423 209.855)">
      <path id="Trazado_19763" data-name="Trazado 19763" d="M3416.381,378.853h-87.865a1.716,1.716,0,0,1-1.716-1.716V254.454a1.716,1.716,0,0,1,1.716-1.716h87.865a1.716,1.716,0,0,1,1.716,1.716v76.493a1.716,1.716,0,0,1-3.432,0V256.17h-84.432V375.421h86.148a1.716,1.716,0,0,1,0,3.432Z" transform="translate(-3314.108 -240.473)" fill="#3d4c6d"/>
      <path id="Trazado_19764" data-name="Trazado 19764" d="M3290.066,335.97h-5.927a1.716,1.716,0,0,1-1.716-1.716V211.571a1.716,1.716,0,0,1,1.716-1.716H3372a1.716,1.716,0,0,1,1.716,1.716v5.417a1.716,1.716,0,0,1-3.433,0v-3.7h-84.432V332.538h4.211a1.716,1.716,0,0,1,0,3.432Z" transform="translate(-3282.423 -209.855)" fill="#3d4c6d"/>
      <g id="Grupo_9647" data-name="Grupo 9647" transform="translate(68.329 97.508)">
        <g id="Grupo_9646" data-name="Grupo 9646" transform="translate(0 10.022)">
          <path id="Rectángulo_2237" data-name="Rectángulo 2237" d="M4.372,0H22.059a4.372,4.372,0,0,1,4.372,4.372V4.363A13.215,13.215,0,0,1,13.215,17.578h0A13.215,13.215,0,0,1,0,4.363v.009A4.372,4.372,0,0,1,4.372,0Z" transform="translate(5.51 1.716)" fill="#fff"/>
          <path id="Rectángulo_2238" data-name="Rectángulo 2238" d="M13.215,0h0A13.215,13.215,0,0,1,26.431,13.215v-.009a4.372,4.372,0,0,1-4.372,4.372H4.372A4.372,4.372,0,0,1,0,13.206v.009A13.215,13.215,0,0,1,13.215,0Z" transform="translate(66.224 19.294) rotate(180)" fill="#fff"/>
          <path id="Trazado_19765" data-name="Trazado 19765" d="M3567.531,592.065l-16.87,16.87-3.064-3.064,13.81-13.809Z" transform="translate(-3540.082 -590.275)" fill="#fff0ce"/>
          <path id="Trazado_19766" data-name="Trazado 19766" d="M3684.46,592.065l-16.871,16.87-3.064-3.064,13.81-13.809Z" transform="translate(-3623.568 -590.275)" fill="#fff0ce"/>
          <path id="Trazado_19767" data-name="Trazado 19767" d="M3553.621,606.824h-8.2a10.844,10.844,0,0,1-10.832-10.832v-5.447a4.737,4.737,0,0,1,4.732-4.731h20.4a4.737,4.737,0,0,1,4.732,4.731v5.447A10.844,10.844,0,0,1,3553.621,606.824Zm-14.3-17.578a1.3,1.3,0,0,0-1.3,1.3v5.447a7.408,7.408,0,0,0,7.4,7.4h8.2a7.408,7.408,0,0,0,7.4-7.4v-5.447a1.3,1.3,0,0,0-1.3-1.3Z" transform="translate(-3530.796 -585.814)" fill="#3d4c6d"/>
          <path id="Trazado_19768" data-name="Trazado 19768" d="M3530.431,589.246h-7.389a1.716,1.716,0,1,1,0-3.432h7.389a1.716,1.716,0,1,1,0,3.432Z" transform="translate(-3521.325 -585.814)" fill="#3d4c6d"/>
          <path id="Trazado_19769" data-name="Trazado 19769" d="M3673.485,606.824h-8.2a10.844,10.844,0,0,1-10.832-10.832v-5.447a4.737,4.737,0,0,1,4.732-4.731h20.4a4.737,4.737,0,0,1,4.732,4.731v5.447A10.844,10.844,0,0,1,3673.485,606.824Zm-14.3-17.578a1.3,1.3,0,0,0-1.3,1.3v5.447a7.408,7.408,0,0,0,7.4,7.4h8.2a7.408,7.408,0,0,0,7.4-7.4v-5.447a1.3,1.3,0,0,0-1.3-1.3Z" transform="translate(-3616.377 -585.814)" fill="#3d4c6d"/>
          <path id="Trazado_19770" data-name="Trazado 19770" d="M3743.4,589.246h-7.39a1.716,1.716,0,1,1,0-3.432h7.39a1.716,1.716,0,0,1,0,3.432Z" transform="translate(-3673.381 -585.814)" fill="#3d4c6d"/>
          <path id="Trazado_19771" data-name="Trazado 19771" d="M3636.569,603.81h-7.852a1.716,1.716,0,1,1,0-3.432h7.852a1.716,1.716,0,1,1,0,3.432Z" transform="translate(-3596.776 -596.213)" fill="#3d4c6d"/>
        </g>
        <path id="Trazado_19772" data-name="Trazado 19772" d="M3698.1,557.449a1.714,1.714,0,0,1-1.354-.659l-.912-1.167a3.718,3.718,0,0,0-3.677-1.341l-5.253,1.111a1.716,1.716,0,1,1-.71-3.358l5.252-1.111a7.173,7.173,0,0,1,7.092,2.585l.911,1.167a1.716,1.716,0,0,1-1.351,2.773Z" transform="translate(-3638.068 -550.773)" fill="#3d4c6d"/>
        <path id="Trazado_19773" data-name="Trazado 19773" d="M3536.3,574.245a1.716,1.716,0,0,1-.342-3.4l29.357-6.009a1.716,1.716,0,0,1,.688,3.362l-29.356,6.009A1.709,1.709,0,0,1,3536.3,574.245Z" transform="translate(-3530.795 -560.79)" fill="#3d4c6d"/>
        <path id="Trazado_19774" data-name="Trazado 19774" d="M3605.637,564.228a1.743,1.743,0,0,1-.357-.037l-46.826-9.908a3.718,3.718,0,0,0-3.677,1.34l-.912,1.167a1.716,1.716,0,1,1-2.7-2.113l.911-1.167a7.174,7.174,0,0,1,7.092-2.585l46.826,9.908a1.717,1.717,0,0,1-.354,3.4Z" transform="translate(-3542.368 -550.773)" fill="#3d4c6d"/>
      </g>
      <g id="Grupo_9648" data-name="Grupo 9648" transform="translate(24.918 26.1)">
        <path id="Trazado_19775" data-name="Trazado 19775" d="M3472.452,316.988h-48.28a1.716,1.716,0,0,1,0-3.432h48.28a1.716,1.716,0,0,1,0,3.432Z" transform="translate(-3407.322 -309.996)" fill="#3d4c6d"/>
        <path id="Trazado_19776" data-name="Trazado 19776" d="M3373.461,309.95a1.711,1.711,0,0,1-1.021-.337l-2.2-1.63a1.716,1.716,0,1,1,2.042-2.759l1.013.75,4.365-4.365a1.716,1.716,0,1,1,2.426,2.427l-5.411,5.411A1.713,1.713,0,0,1,3373.461,309.95Z" transform="translate(-3369.543 -301.107)" fill="#3d4c6d"/>
      </g>
      <g id="Grupo_9649" data-name="Grupo 9649" transform="translate(24.918 40.837)">
        <path id="Trazado_19777" data-name="Trazado 19777" d="M3458.152,369.525h-33.98a1.716,1.716,0,0,1,0-3.432h33.98a1.716,1.716,0,0,1,0,3.432Z" transform="translate(-3407.322 -362.244)" fill="#3d4c6d"/>
        <path id="Trazado_19778" data-name="Trazado 19778" d="M3373.461,361.477a1.711,1.711,0,0,1-1.021-.337l-2.2-1.63a1.716,1.716,0,1,1,2.042-2.758l1.013.75,4.365-4.365a1.716,1.716,0,1,1,2.426,2.427l-5.411,5.411A1.713,1.713,0,0,1,3373.461,361.477Z" transform="translate(-3369.543 -352.634)" fill="#3d4c6d"/>
      </g>
      <g id="Grupo_9651" data-name="Grupo 9651" transform="translate(25.308 61.562)">
        <path id="Trazado_19779" data-name="Trazado 19779" d="M3408.692,490.611h-36.067a1.716,1.716,0,0,1-1.716-1.716V426.813a1.716,1.716,0,0,1,1.716-1.716h63.492a1.716,1.716,0,0,1,1.716,1.716v27.2a1.716,1.716,0,1,1-3.432,0v-25.48h-60.059v58.65h34.351a1.716,1.716,0,1,1,0,3.432Z" transform="translate(-3370.909 -425.097)" fill="#3d4c6d"/>
        <path id="Trazado_19780" data-name="Trazado 19780" d="M3436.116,474.382h-63.492a1.716,1.716,0,0,1,0-3.432h63.492a1.716,1.716,0,0,1,0,3.432Z" transform="translate(-3370.909 -457.835)" fill="#3d4c6d"/>
        <g id="Grupo_9650" data-name="Grupo 9650" transform="translate(12.894)">
          <path id="Trazado_19781" data-name="Trazado 19781" d="M3417.708,490.611a1.716,1.716,0,0,1-1.716-1.716V426.813a1.716,1.716,0,1,1,3.432,0v62.082A1.716,1.716,0,0,1,3417.708,490.611Z" transform="translate(-3415.992 -425.097)" fill="#3d4c6d"/>
          <path id="Trazado_19782" data-name="Trazado 19782" d="M3463.117,490.611a1.716,1.716,0,0,1-1.716-1.716V426.813a1.716,1.716,0,0,1,3.432,0v62.082A1.716,1.716,0,0,1,3463.117,490.611Z" transform="translate(-3448.413 -425.097)" fill="#3d4c6d"/>
        </g>
      </g>
    </g>
  </g>
</svg>
